<svg width="22" height="17" viewBox="0 0 22 17" fill="none" xmlns="http://www.w3.org/2000/svg">
<path d="M19.4375 0.214844L7.10938 12.5898L2.5625 8.04297C2.46875 7.91797 2.34375 7.85547 2.1875 7.85547C2.03125 7.85547 1.89062 7.91797 1.76562 8.04297L0.453125 9.35547C0.328125 9.48047 0.265625 9.62109 0.265625 9.77734C0.265625 9.93359 0.328125 10.0586 0.453125 10.1523L6.6875 16.4336C6.8125 16.5273 6.95312 16.5742 7.10938 16.5742C7.26562 16.5742 7.39062 16.5273 7.48438 16.4336L21.5469 2.37109C21.6719 2.24609 21.7344 2.10547 21.7344 1.94922C21.7344 1.79297 21.6719 1.66797 21.5469 1.57422L20.2344 0.214844C20.1094 0.121094 19.9688 0.0742188 19.8125 0.0742188C19.6562 0.0742188 19.5312 0.121094 19.4375 0.214844Z" fill="#1F2A44"/>
</svg>
