<svg width="970" height="899" viewBox="0 0 970 899" fill="none" xmlns="http://www.w3.org/2000/svg">
<path d="M858.911 348.771C727.645 261.797 721.486 239.489 706.16 138.136C694.665 60.0118 627.347 0 546.013 0C498.919 0 456.555 20.1252 426.97 52.2284V52.2042C356.135 129.019 338.991 140.318 206.78 139.082V139.13C206.149 139.106 205.494 139.082 204.84 139.082C91.7135 139.082 0 230.76 0 343.874C0 393.895 17.9935 439.747 47.7967 475.317H47.7725C128.38 571.603 132.429 592.043 117.903 696.84C117.903 696.912 117.879 697.009 117.879 697.082C117.782 697.834 117.685 698.586 117.564 699.337H117.588C116.497 707.242 115.891 715.316 115.891 723.512C115.891 820.088 194.194 898.382 290.758 898.382C331.983 898.382 369.837 884.101 399.713 860.266V860.314C492.905 786.069 514.828 772.952 681.595 800.399C694.714 802.533 708.173 803.697 721.898 803.697C858.911 803.697 970 692.621 970 555.6C970 469.231 925.841 393.216 858.911 348.771Z" fill="white"/>
</svg>
