<svg width="523" height="468" viewBox="0 0 523 468" fill="none" xmlns="http://www.w3.org/2000/svg">
<path d="M370.855 21.4525C412.048 11.0736 476.127 8.84021 506.335 44.8377C553.152 100.542 488.55 165.442 468.411 202.228C440.033 253.991 429.964 296.689 418.717 354.101C409.956 398.638 387.724 462.881 336.069 467.742C286.768 472.472 269.113 410.987 246.751 372.231C220.989 327.694 175.872 282.5 134.941 253.071C68.1156 204.856 -52.0646 99.6222 24.8298 24.7369C64.0616 -13.3626 132.848 -0.224854 182.803 16.3287C210.527 25.5252 238.251 35.7726 267.675 37.4805C302.722 39.4512 336.985 29.0724 370.855 21.4525Z" fill="white"/>
</svg>
