<svg width="754" height="496" viewBox="0 0 754 496" fill="none" 
  xmlns="http://www.w3.org/2000/svg">
  <path d="M222.498 462.543C153.558 514.111 25.8377 510.762 2.51483 410.942C-8.03567 365.456 15.6841 320.52 57.5447 301.951C96.9169 284.4 133.905 266.001 131.628 223.68C128.751 171.412 79.0642 138.413 91.2657 79.3113C99.2407 41.1958 129.873 7.3334 170.015 1.13323C218.525 -6.56695 249.851 40.6012 289.168 58.7229C334.431 79.6305 369.782 76.202 417.743 65.957C513.269 45.3257 607.516 58.1425 679.28 130.656C739.932 191.946 787.827 310.126 720.973 383.807C654.8 456.835 540.572 436.018 463.36 395.469C422.444 373.981 387.679 355.017 339.96 373.068C293.517 390.679 261.369 433.513 222.498 462.543Z" fill="#F3F5F8"/>
</svg>
