<svg width="945" height="790" viewBox="0 0 945 790" fill="none" xmlns="http://www.w3.org/2000/svg" xmlns:xlink="http://www.w3.org/1999/xlink">
<path d="M572.785 113.741C628.682 13.4327 786.056 -52.022 868.789 56.7968C906.396 106.427 901.964 174.043 861.088 219.437C822.689 262.237 787.654 304.772 813.462 355.052C845.413 417.115 923.886 430.236 941.193 508.827C952.225 559.569 933.348 617.468 887.832 646.87C832.942 682.653 769.119 642.286 711.372 641.63C644.867 640.82 603.678 664.239 550.842 702.821C445.729 779.942 323.968 815.649 197.101 766.442C89.8745 724.85 -32.7784 607.057 8.54127 480.965C49.3881 356.038 199.837 319.194 315.944 326.521C377.471 330.405 430.132 334.565 478.425 286.611C525.404 239.889 541.244 170.243 572.785 113.741Z" fill="black"/>
</svg>
