<svg width="1010" height="936" viewBox="0 0 1010 936" fill="none" xmlns="http://www.w3.org/2000/svg">
<path d="M894.052 363.057C757.416 272.52 751.004 249.299 735.051 143.794C723.086 62.4698 653.014 0 568.352 0C519.332 0 475.234 20.9495 444.438 54.3677V54.3424C370.706 134.304 352.86 146.066 215.24 144.779V144.829C214.583 144.804 213.902 144.779 213.22 144.779C95.4658 144.779 0 240.212 0 357.958C0 410.029 18.7297 457.759 49.7523 494.786H49.727C133.632 595.016 137.847 616.293 122.727 725.382C122.727 725.458 122.702 725.559 122.702 725.635C122.601 726.417 122.5 727.199 122.374 727.982H122.399C121.263 736.21 120.632 744.615 120.632 753.146C120.632 853.679 202.139 935.18 302.653 935.18C345.565 935.18 384.968 920.313 416.066 895.502V895.552C513.072 818.267 535.891 804.612 709.481 833.184C723.137 835.405 737.146 836.616 751.433 836.616C894.052 836.616 1009.69 720.99 1009.69 578.357C1009.69 488.451 963.72 409.323 894.052 363.057Z" fill="#797F8F"/>
</svg>
