<svg width="245" height="123" viewBox="0 0 245 123" fill="none" xmlns="http://www.w3.org/2000/svg">
<path d="M46.1707 22.8455H50.7787V35.9495C49.1147 37.3255 47.1787 38.3815 44.9707 39.1175C42.7627 39.8535 40.4587 40.2215 38.0587 40.2215C34.6667 40.2215 31.6107 39.4855 28.8907 38.0135C26.1707 36.5095 24.0267 34.4615 22.4587 31.8695C20.9227 29.2455 20.1547 26.3015 20.1547 23.0375C20.1547 19.7735 20.9227 16.8295 22.4587 14.2055C24.0267 11.5815 26.1707 9.53354 28.8907 8.06154C31.6427 6.58954 34.7307 5.85354 38.1547 5.85354C40.8427 5.85354 43.2747 6.30154 45.4507 7.19754C47.6587 8.06154 49.5307 9.34154 51.0667 11.0375L48.0907 14.0135C45.4027 11.4215 42.1547 10.1255 38.3467 10.1255C35.7867 10.1255 33.4827 10.6855 31.4347 11.8055C29.4187 12.8935 27.8347 14.4295 26.6827 16.4135C25.5307 18.3655 24.9547 20.5735 24.9547 23.0375C24.9547 25.4695 25.5307 27.6775 26.6827 29.6615C27.8347 31.6135 29.4187 33.1495 31.4347 34.2695C33.4827 35.3895 35.7707 35.9495 38.2987 35.9495C41.3067 35.9495 43.9307 35.2295 46.1707 33.7895V22.8455ZM82.2888 27.2615C82.2888 27.6135 82.2568 28.0775 82.1928 28.6535H61.5528C61.8408 30.8935 62.8168 32.7015 64.4808 34.0775C66.1768 35.4215 68.2728 36.0935 70.7688 36.0935C73.8088 36.0935 76.2568 35.0695 78.1128 33.0215L80.6568 35.9975C79.5048 37.3415 78.0648 38.3655 76.3368 39.0695C74.6408 39.7735 72.7368 40.1255 70.6248 40.1255C67.9368 40.1255 65.5528 39.5815 63.4728 38.4935C61.3928 37.3735 59.7768 35.8215 58.6248 33.8375C57.5048 31.8535 56.9448 29.6135 56.9448 27.1175C56.9448 24.6535 57.4888 22.4295 58.5768 20.4455C59.6968 18.4615 61.2168 16.9255 63.1368 15.8375C65.0888 14.7175 67.2808 14.1575 69.7128 14.1575C72.1448 14.1575 74.3048 14.7175 76.1928 15.8375C78.1128 16.9255 79.6008 18.4615 80.6568 20.4455C81.7448 22.4295 82.2888 24.7015 82.2888 27.2615ZM69.7128 18.0455C67.5048 18.0455 65.6488 18.7175 64.1448 20.0615C62.6728 21.4055 61.8088 23.1655 61.5528 25.3415H77.8728C77.6168 23.1975 76.7368 21.4535 75.2328 20.1095C73.7608 18.7335 71.9208 18.0455 69.7128 18.0455ZM102.991 38.3495C102.319 38.9255 101.487 39.3735 100.495 39.6935C99.5035 39.9815 98.4795 40.1255 97.4235 40.1255C94.8635 40.1255 92.8795 39.4375 91.4715 38.0615C90.0635 36.6855 89.3595 34.7175 89.3595 32.1575V18.1895H85.0395V14.3975H89.3595V8.82954H93.9675V14.3975H101.263V18.1895H93.9675V31.9655C93.9675 33.3415 94.3035 34.3975 94.9755 35.1335C95.6795 35.8695 96.6715 36.2375 97.9515 36.2375C99.3595 36.2375 100.559 35.8375 101.551 35.0375L102.991 38.3495ZM146.365 29.9975C146.365 32.6215 145.405 34.8775 143.485 36.7655C141.565 38.6215 138.797 39.7735 135.181 40.2215V45.5975H130.381V40.3655C128.013 40.2375 125.757 39.8215 123.613 39.1175C121.469 38.4135 119.741 37.5495 118.429 36.5255L121.069 30.6695C122.285 31.5655 123.709 32.3175 125.341 32.9255C126.973 33.5335 128.653 33.9175 130.381 34.0775V26.0615C128.109 25.5175 126.189 24.9095 124.621 24.2375C123.053 23.5655 121.741 22.5895 120.685 21.3095C119.629 19.9975 119.101 18.2695 119.101 16.1255C119.101 13.4695 120.061 11.1975 121.981 9.30954C123.933 7.38954 126.733 6.22154 130.381 5.80554V0.477537H135.181V5.70954C139.117 6.02954 142.365 7.00554 144.925 8.63754L142.525 14.5415C140.125 13.1655 137.677 12.3335 135.181 12.0455V20.2055C137.421 20.7175 139.309 21.3095 140.845 21.9815C142.413 22.6215 143.725 23.5975 144.781 24.9095C145.837 26.1895 146.365 27.8855 146.365 29.9975ZM126.829 15.7415C126.829 16.5415 127.133 17.1975 127.741 17.7095C128.349 18.2215 129.229 18.6535 130.381 19.0055V12.1895C129.165 12.4775 128.269 12.9415 127.693 13.5815C127.117 14.1895 126.829 14.9095 126.829 15.7415ZM135.181 33.8855C136.333 33.6295 137.197 33.2135 137.773 32.6375C138.349 32.0615 138.637 31.3735 138.637 30.5735C138.637 29.7735 138.333 29.1175 137.725 28.6055C137.149 28.0935 136.301 27.6455 135.181 27.2615V33.8855ZM162.058 6.23754V39.8375H154.282V12.4775H147.562V6.23754H162.058ZM179.415 18.8615C184.151 18.8615 187.639 19.8055 189.879 21.6935C192.151 23.5815 193.287 26.1095 193.287 29.2775C193.287 31.3255 192.775 33.1975 191.751 34.8935C190.727 36.5575 189.159 37.9015 187.047 38.9255C184.967 39.9175 182.391 40.4135 179.319 40.4135C176.951 40.4135 174.615 40.1095 172.311 39.5015C170.039 38.8615 168.103 37.9655 166.503 36.8135L169.575 30.8615C170.855 31.8215 172.327 32.5735 173.991 33.1175C175.655 33.6295 177.367 33.8855 179.127 33.8855C181.079 33.8855 182.615 33.5015 183.735 32.7335C184.855 31.9655 185.415 30.8935 185.415 29.5175C185.415 28.0775 184.823 26.9895 183.639 26.2535C182.487 25.5175 180.471 25.1495 177.591 25.1495H168.999L170.727 6.23754H191.223V12.4775H177.207L176.679 18.8615H179.415ZM210.841 40.4135C208.057 40.4135 205.577 39.7255 203.401 38.3495C201.225 36.9735 199.513 34.9895 198.265 32.3975C197.049 29.7735 196.441 26.6535 196.441 23.0375C196.441 19.4215 197.049 16.3175 198.265 13.7255C199.513 11.1015 201.225 9.10154 203.401 7.72554C205.577 6.34954 208.057 5.66154 210.841 5.66154C213.625 5.66154 216.105 6.34954 218.281 7.72554C220.457 9.10154 222.153 11.1015 223.369 13.7255C224.617 16.3175 225.241 19.4215 225.241 23.0375C225.241 26.6535 224.617 29.7735 223.369 32.3975C222.153 34.9895 220.457 36.9735 218.281 38.3495C216.105 39.7255 213.625 40.4135 210.841 40.4135ZM210.841 33.8375C212.889 33.8375 214.489 32.9575 215.641 31.1975C216.825 29.4375 217.417 26.7175 217.417 23.0375C217.417 19.3575 216.825 16.6375 215.641 14.8775C214.489 13.1175 212.889 12.2375 210.841 12.2375C208.825 12.2375 207.225 13.1175 206.041 14.8775C204.889 16.6375 204.313 19.3575 204.313 23.0375C204.313 26.7175 204.889 29.4375 206.041 31.1975C207.225 32.9575 208.825 33.8375 210.841 33.8375Z" fill="#FBE122"/>
<rect x="16.9991" y="53.8375" width="211" height="5" rx="2.5" fill="#FBE122"/>
<path d="M25.0092 90.0535C23.1012 90.0535 21.3822 89.6395 19.8522 88.8115C18.3222 87.9655 17.1162 86.8045 16.2342 85.3285C15.3702 83.8525 14.9382 82.2055 14.9382 80.3875C14.9382 78.5695 15.3702 76.9225 16.2342 75.4465C17.1162 73.9705 18.3222 72.8185 19.8522 71.9905C21.3822 71.1445 23.1012 70.7215 25.0092 70.7215C26.8992 70.7215 28.6092 71.1445 30.1392 71.9905C31.6692 72.8185 32.8662 73.9705 33.7302 75.4465C34.5942 76.9045 35.0262 78.5515 35.0262 80.3875C35.0262 82.2235 34.5942 83.8795 33.7302 85.3555C32.8662 86.8135 31.6692 87.9655 30.1392 88.8115C28.6092 89.6395 26.8992 90.0535 25.0092 90.0535ZM25.0092 87.6505C26.3952 87.6505 27.6372 87.3355 28.7352 86.7055C29.8512 86.0755 30.7242 85.2115 31.3542 84.1135C32.0022 82.9975 32.3262 81.7555 32.3262 80.3875C32.3262 79.0195 32.0022 77.7865 31.3542 76.6885C30.7242 75.5725 29.8512 74.6995 28.7352 74.0695C27.6372 73.4395 26.3952 73.1245 25.0092 73.1245C23.6232 73.1245 22.3632 73.4395 21.2292 74.0695C20.1132 74.6995 19.2312 75.5725 18.5832 76.6885C17.9532 77.7865 17.6382 79.0195 17.6382 80.3875C17.6382 81.7555 17.9532 82.9975 18.5832 84.1135C19.2312 85.2115 20.1132 86.0755 21.2292 86.7055C22.3632 87.3355 23.6232 87.6505 25.0092 87.6505ZM41.853 73.2865V79.8745H51.33V82.1965H41.853V89.8375H39.153V70.9375H52.491V73.2865H41.853ZM66.2426 73.2865V79.8745H75.7196V82.1965H66.2426V89.8375H63.5426V70.9375H76.8806V73.2865H66.2426ZM93.3173 89.8375L89.2403 84.0325C88.7363 84.0685 88.3403 84.0865 88.0523 84.0865H83.3813V89.8375H80.6813V70.9375H88.0523C90.5003 70.9375 92.4263 71.5225 93.8303 72.6925C95.2343 73.8625 95.9363 75.4735 95.9363 77.5255C95.9363 78.9835 95.5763 80.2255 94.8563 81.2515C94.1363 82.2775 93.1103 83.0245 91.7783 83.4925L96.2603 89.8375H93.3173ZM87.9713 81.7915C89.6813 81.7915 90.9863 81.4225 91.8863 80.6845C92.7863 79.9465 93.2363 78.8935 93.2363 77.5255C93.2363 76.1575 92.7863 75.1135 91.8863 74.3935C90.9863 73.6555 89.6813 73.2865 87.9713 73.2865H83.3813V81.7915H87.9713ZM114.015 87.4885V89.8375H100.299V70.9375H113.637V73.2865H102.999V79.0915H112.476V81.3865H102.999V87.4885H114.015ZM132.102 87.4885V89.8375H118.386V70.9375H131.724V73.2865H121.086V79.0915H130.563V81.3865H121.086V87.4885H132.102ZM157.441 87.4885V89.8375H143.725V70.9375H157.063V73.2865H146.425V79.0915H155.902V81.3865H146.425V87.4885H157.441ZM173.482 89.8375L167.812 82.0345L162.223 89.8375H159.118L166.219 80.1445L159.55 70.9375H162.628L167.92 78.2005L173.158 70.9375H176.101L169.432 80.0635L176.587 89.8375H173.482ZM182.705 73.2865H176.225V70.9375H191.858V73.2865H185.378V89.8375H182.705V73.2865ZM207.435 89.8375L203.358 84.0325C202.854 84.0685 202.458 84.0865 202.17 84.0865H197.499V89.8375H194.799V70.9375H202.17C204.618 70.9375 206.544 71.5225 207.948 72.6925C209.352 73.8625 210.054 75.4735 210.054 77.5255C210.054 78.9835 209.694 80.2255 208.974 81.2515C208.254 82.2775 207.228 83.0245 205.896 83.4925L210.378 89.8375H207.435ZM202.089 81.7915C203.799 81.7915 205.104 81.4225 206.004 80.6845C206.904 79.9465 207.354 78.8935 207.354 77.5255C207.354 76.1575 206.904 75.1135 206.004 74.3935C205.104 73.6555 203.799 73.2865 202.089 73.2865H197.499V81.7915H202.089ZM226.458 85.1125H216.414L214.335 89.8375H211.554L220.113 70.9375H222.786L231.372 89.8375H228.537L226.458 85.1125ZM225.513 82.9525L221.436 73.6915L217.359 82.9525H225.513ZM26.7373 108.342H29.0413V114.894C28.2093 115.582 27.2413 116.11 26.1373 116.478C25.0333 116.846 23.8813 117.03 22.6813 117.03C20.9853 117.03 19.4573 116.662 18.0973 115.926C16.7373 115.174 15.6653 114.15 14.8813 112.854C14.1133 111.542 13.7293 110.07 13.7293 108.438C13.7293 106.806 14.1133 105.334 14.8813 104.022C15.6653 102.71 16.7373 101.686 18.0973 100.95C19.4733 100.214 21.0173 99.8455 22.7293 99.8455C24.0733 99.8455 25.2893 100.07 26.3773 100.518C27.4813 100.95 28.4173 101.59 29.1853 102.438L27.6973 103.926C26.3533 102.63 24.7293 101.982 22.8253 101.982C21.5453 101.982 20.3933 102.262 19.3693 102.822C18.3613 103.366 17.5693 104.134 16.9933 105.126C16.4173 106.102 16.1293 107.206 16.1293 108.438C16.1293 109.654 16.4173 110.758 16.9933 111.75C17.5693 112.726 18.3613 113.494 19.3693 114.054C20.3933 114.614 21.5373 114.894 22.8013 114.894C24.3053 114.894 25.6173 114.534 26.7373 113.814V108.342ZM41.2203 117.03C39.5243 117.03 37.9963 116.662 36.6363 115.926C35.2763 115.174 34.2043 114.142 33.4203 112.83C32.6523 111.518 32.2683 110.054 32.2683 108.438C32.2683 106.822 32.6523 105.358 33.4203 104.046C34.2043 102.734 35.2763 101.71 36.6363 100.974C37.9963 100.222 39.5243 99.8455 41.2203 99.8455C42.9003 99.8455 44.4203 100.222 45.7803 100.974C47.1403 101.71 48.2043 102.734 48.9723 104.046C49.7403 105.342 50.1243 106.806 50.1243 108.438C50.1243 110.07 49.7403 111.542 48.9723 112.854C48.2043 114.15 47.1403 115.174 45.7803 115.926C44.4203 116.662 42.9003 117.03 41.2203 117.03ZM41.2203 114.894C42.4523 114.894 43.5563 114.614 44.5323 114.054C45.5243 113.494 46.3003 112.726 46.8603 111.75C47.4363 110.758 47.7243 109.654 47.7243 108.438C47.7243 107.222 47.4363 106.126 46.8603 105.15C46.3003 104.158 45.5243 103.382 44.5323 102.822C43.5563 102.262 42.4523 101.982 41.2203 101.982C39.9883 101.982 38.8683 102.262 37.8603 102.822C36.8683 103.382 36.0843 104.158 35.5083 105.15C34.9483 106.126 34.6683 107.222 34.6683 108.438C34.6683 109.654 34.9483 110.758 35.5083 111.75C36.0843 112.726 36.8683 113.494 37.8603 114.054C38.8683 114.614 39.9883 114.894 41.2203 114.894ZM61.3766 117.03C59.6806 117.03 58.1526 116.662 56.7926 115.926C55.4326 115.174 54.3606 114.142 53.5766 112.83C52.8086 111.518 52.4246 110.054 52.4246 108.438C52.4246 106.822 52.8086 105.358 53.5766 104.046C54.3606 102.734 55.4326 101.71 56.7926 100.974C58.1526 100.222 59.6806 99.8455 61.3766 99.8455C63.0566 99.8455 64.5766 100.222 65.9366 100.974C67.2966 101.71 68.3606 102.734 69.1286 104.046C69.8966 105.342 70.2806 106.806 70.2806 108.438C70.2806 110.07 69.8966 111.542 69.1286 112.854C68.3606 114.15 67.2966 115.174 65.9366 115.926C64.5766 116.662 63.0566 117.03 61.3766 117.03ZM61.3766 114.894C62.6086 114.894 63.7126 114.614 64.6886 114.054C65.6806 113.494 66.4566 112.726 67.0166 111.75C67.5926 110.758 67.8806 109.654 67.8806 108.438C67.8806 107.222 67.5926 106.126 67.0166 105.15C66.4566 104.158 65.6806 103.382 64.6886 102.822C63.7126 102.262 62.6086 101.982 61.3766 101.982C60.1446 101.982 59.0246 102.262 58.0166 102.822C57.0246 103.382 56.2406 104.158 55.6646 105.15C55.1046 106.126 54.8246 107.222 54.8246 108.438C54.8246 109.654 55.1046 110.758 55.6646 111.75C56.2406 112.726 57.0246 113.494 58.0166 114.054C59.0246 114.614 60.1446 114.894 61.3766 114.894ZM85.5888 108.342H87.8928V114.894C87.0608 115.582 86.0928 116.11 84.9888 116.478C83.8848 116.846 82.7328 117.03 81.5328 117.03C79.8368 117.03 78.3088 116.662 76.9488 115.926C75.5888 115.174 74.5168 114.15 73.7328 112.854C72.9648 111.542 72.5808 110.07 72.5808 108.438C72.5808 106.806 72.9648 105.334 73.7328 104.022C74.5168 102.71 75.5888 101.686 76.9488 100.95C78.3248 100.214 79.8688 99.8455 81.5808 99.8455C82.9248 99.8455 84.1408 100.07 85.2288 100.518C86.3328 100.95 87.2688 101.59 88.0368 102.438L86.5488 103.926C85.2048 102.63 83.5808 101.982 81.6768 101.982C80.3968 101.982 79.2448 102.262 78.2208 102.822C77.2128 103.366 76.4208 104.134 75.8448 105.126C75.2688 106.102 74.9808 107.206 74.9808 108.438C74.9808 109.654 75.2688 110.758 75.8448 111.75C76.4208 112.726 77.2128 113.494 78.2208 114.054C79.2448 114.614 80.3888 114.894 81.6528 114.894C83.1568 114.894 84.4688 114.534 85.5888 113.814V108.342ZM92.4879 100.038H94.8879V114.75H103.984V116.838H92.4879V100.038ZM118.93 114.75V116.838H106.738V100.038H118.594V102.126H109.138V107.286H117.562V109.326H109.138V114.75H118.93ZM140.565 108.126C141.541 108.398 142.309 108.894 142.869 109.614C143.429 110.318 143.709 111.214 143.709 112.302C143.709 113.758 143.157 114.878 142.053 115.662C140.965 116.446 139.373 116.838 137.277 116.838H129.261V100.038H136.797C138.717 100.038 140.197 100.422 141.237 101.19C142.293 101.958 142.821 103.022 142.821 104.382C142.821 105.262 142.613 106.022 142.197 106.662C141.797 107.302 141.253 107.79 140.565 108.126ZM131.661 101.982V107.358H136.581C137.813 107.358 138.757 107.134 139.413 106.686C140.085 106.222 140.421 105.55 140.421 104.67C140.421 103.79 140.085 103.126 139.413 102.678C138.757 102.214 137.813 101.982 136.581 101.982H131.661ZM137.181 114.894C138.541 114.894 139.565 114.67 140.253 114.222C140.941 113.774 141.285 113.07 141.285 112.11C141.285 110.238 139.917 109.302 137.181 109.302H131.661V114.894H137.181ZM154.385 117.03C152.145 117.03 150.401 116.39 149.153 115.11C147.905 113.83 147.281 111.99 147.281 109.59V100.038H149.681V109.494C149.681 113.094 151.257 114.894 154.409 114.894C155.945 114.894 157.121 114.454 157.937 113.574C158.753 112.678 159.161 111.318 159.161 109.494V100.038H161.489V109.59C161.489 112.006 160.865 113.854 159.617 115.134C158.369 116.398 156.625 117.03 154.385 117.03ZM166.41 100.038H173.49C175.266 100.038 176.842 100.39 178.218 101.094C179.594 101.798 180.658 102.79 181.41 104.07C182.178 105.334 182.562 106.79 182.562 108.438C182.562 110.086 182.178 111.55 181.41 112.83C180.658 114.094 179.594 115.078 178.218 115.782C176.842 116.486 175.266 116.838 173.49 116.838H166.41V100.038ZM173.346 114.75C174.706 114.75 175.898 114.486 176.922 113.958C177.962 113.43 178.762 112.694 179.322 111.75C179.882 110.79 180.162 109.686 180.162 108.438C180.162 107.19 179.882 106.094 179.322 105.15C178.762 104.19 177.962 103.446 176.922 102.918C175.898 102.39 174.706 102.126 173.346 102.126H168.81V114.75H173.346ZM197.878 108.342H200.182V114.894C199.35 115.582 198.382 116.11 197.278 116.478C196.174 116.846 195.022 117.03 193.822 117.03C192.126 117.03 190.598 116.662 189.238 115.926C187.878 115.174 186.806 114.15 186.022 112.854C185.254 111.542 184.87 110.07 184.87 108.438C184.87 106.806 185.254 105.334 186.022 104.022C186.806 102.71 187.878 101.686 189.238 100.95C190.614 100.214 192.158 99.8455 193.87 99.8455C195.214 99.8455 196.43 100.07 197.518 100.518C198.622 100.95 199.558 101.59 200.326 102.438L198.838 103.926C197.494 102.63 195.87 101.982 193.966 101.982C192.686 101.982 191.534 102.262 190.51 102.822C189.502 103.366 188.71 104.134 188.134 105.126C187.558 106.102 187.27 107.206 187.27 108.438C187.27 109.654 187.558 110.758 188.134 111.75C188.71 112.726 189.502 113.494 190.51 114.054C191.534 114.614 192.678 114.894 193.942 114.894C195.446 114.894 196.758 114.534 197.878 113.814V108.342ZM216.969 114.75V116.838H204.777V100.038H216.633V102.126H207.177V107.286H215.601V109.326H207.177V114.75H216.969ZM224.191 102.126H218.431V100.038H232.327V102.126H226.567V116.838H224.191V102.126Z" fill="#FBE122"/>
</svg>
