<svg width="195" height="200" viewBox="0 0 195 200" fill="none" 
	xmlns="http://www.w3.org/2000/svg">
	<path fill-rule="evenodd" clip-rule="evenodd" d="M97.5745 176.175C56.3249 176.175 22.8863 142.052 22.8863 99.9609C22.8863 57.8674 56.3249 23.7444 97.5745 23.7444C138.826 23.7444 172.265 57.8674 172.265 99.9609C172.265 142.052 138.826 176.175 97.5745 176.175ZM97.5745 0.815918C43.9148 0.815918 0.414551 45.2059 0.414551 99.9609C0.414551 154.716 43.9148 199.102 97.5745 199.102C151.236 199.102 194.736 154.716 194.736 99.9609C194.736 45.2059 151.236 0.815918 97.5745 0.815918Z" fill="#F9E01A"/>
	<path fill-rule="evenodd" clip-rule="evenodd" d="M97.5755 46.4995C68.5984 46.4995 45.1087 70.4332 45.1087 99.958C45.1087 129.483 68.5984 153.418 97.5755 153.418C126.554 153.418 150.042 129.483 150.042 99.958C150.042 70.4332 126.554 46.4995 97.5755 46.4995Z" fill="#F9E01A"/>
</svg>
