<svg viewBox="0 0 1441 376" fill="none" xmlns="http://www.w3.org/2000/svg">
<path d="M198 333.195C80.4 339.595 17 363.195 0 374.195V19.6943C68.5 22.6943 23.5 41.6943 146.5 79.6943C269.5 117.694 357.5 75.6943 416.5 49.6947C560.5 -18.3053 677.5 -5.30527 740.5 22.6947C840.5 69.6947 866.5 54.6947 942.5 34.6947C1018.5 14.6947 1077.5 26.6947 1121.5 34.6947C1255.1 62.6947 1389.83 26.6947 1440.5 5.19473V358.695C1402.5 367.195 1381 342.195 1327 317.195C1273 292.195 1254 293.695 1231 288.695C1139.5 268.195 1080.5 304.695 966 349.695C851.5 394.695 724.5 368.695 717.5 365.195C607.5 319.195 590 321.195 536.5 333.695C435.435 363.069 383.447 354.768 324.265 345.318L323.5 345.195C264 335.695 212.5 333.195 198 333.195Z" fill="#C4C4C4"/>
</svg>
