<svg width="26" height="25" viewBox="0 0 26 25" fill="none" xmlns="http://www.w3.org/2000/svg">
<path d="M25.0057 15.1094L23.5764 14.125C23.4454 14.0345 23.376 13.8793 23.3954 13.7201C23.48 13.0289 23.4924 12.3262 23.4319 11.6327C23.4178 11.4729 23.493 11.3206 23.627 11.2347L25.0903 10.2984C25.5833 9.98282 25.7843 9.36605 25.5681 8.83118L24.7089 6.70771C24.5191 6.23869 24.0618 5.93517 23.5447 5.93517C23.4736 5.93517 23.4025 5.9409 23.332 5.95293L21.6065 6.24213C21.4484 6.26847 21.2868 6.20662 21.1852 6.08121C20.7438 5.5343 20.2425 5.02921 19.6966 4.58023C19.5708 4.47658 19.5126 4.31738 19.5455 4.1639L19.9011 2.49399C20.021 1.93105 19.7154 1.35666 19.1741 1.12759L17.0256 0.218188C16.8669 0.151185 16.6994 0.116825 16.5272 0.116825C16.1212 0.116825 15.7386 0.309816 15.5047 0.632803L14.4956 2.0244C14.404 2.15096 14.2429 2.21968 14.0802 2.20078C13.3714 2.11831 12.6468 2.10572 11.9363 2.16413C11.7723 2.1773 11.616 2.104 11.5279 1.974L10.5682 0.550338C10.3361 0.205589 9.94467 0 9.52154 0C9.36404 0 9.20949 0.0286336 9.06257 0.0853281L6.88346 0.922575C6.33457 1.13332 6.009 1.6974 6.1089 2.26377L6.4045 3.93998C6.43154 4.09403 6.36865 4.25152 6.23936 4.35059C5.67637 4.78181 5.15628 5.27145 4.69436 5.8046C4.58917 5.92601 4.42403 5.98385 4.26712 5.95178L2.55874 5.60646C2.47529 5.58985 2.38949 5.58126 2.30428 5.58126C1.80593 5.58126 1.35518 5.86932 1.15655 6.31486L0.222727 8.40912C-0.0123439 8.93655 0.166898 9.55962 0.648793 9.89119L2.07215 10.8716C2.2032 10.9621 2.27254 11.1173 2.25315 11.2765C2.16794 11.9706 2.1556 12.6755 2.21613 13.3719C2.23023 13.5317 2.15501 13.684 2.02102 13.7699L0.564167 14.7016C0.0711063 15.0172 -0.129879 15.6339 0.0863859 16.1688L0.94557 18.2923C1.13539 18.7613 1.5926 19.0648 2.10976 19.0648C2.18087 19.0648 2.25198 19.0591 2.3225 19.0471L4.03969 18.7596C4.19836 18.7327 4.35997 18.7951 4.46105 18.9205C4.90475 19.4697 5.40721 19.9765 5.9561 20.4272C6.08187 20.5309 6.14005 20.6901 6.10773 20.8435L5.75394 22.5066C5.63406 23.0695 5.93965 23.6439 6.4809 23.873L8.62945 24.7824C8.78812 24.8494 8.95561 24.8832 9.1278 24.8832C9.53388 24.8832 9.91646 24.6902 10.1504 24.3672L11.157 22.979C11.2487 22.8525 11.4097 22.7832 11.5725 22.8027C12.2824 22.8851 13.0088 22.8971 13.7205 22.8382C13.8856 22.825 14.0414 22.8977 14.1289 23.0283L15.0868 24.4497C15.319 24.7944 15.7104 25 16.1335 25C16.291 25 16.4456 24.9714 16.5925 24.9147L18.7716 24.0774C19.3205 23.8667 19.646 23.3026 19.5461 22.7362L19.2499 21.0583C19.2229 20.9043 19.2858 20.7468 19.4151 20.6477C19.9769 20.2165 20.4958 19.728 20.9571 19.1948C21.0623 19.0728 21.2281 19.0156 21.3844 19.0471L23.0963 19.393C23.1797 19.4096 23.2655 19.4182 23.3508 19.4182C23.8491 19.4182 24.2999 19.1301 24.4985 18.6846L25.4317 16.5909C25.6662 16.0646 25.4876 15.441 25.0057 15.1094ZM15.1421 18.231C11.8952 19.4789 8.22513 17.9252 6.94458 14.7606C5.66403 11.5966 7.2584 8.02027 10.5059 6.77242C13.7528 5.52457 17.4229 7.07823 18.7034 10.2428C19.9834 13.4068 18.389 16.9837 15.1421 18.231Z" fill="#1F2A44"/>
</svg>
