<svg width="9" height="5" viewBox="0 0 9 5" fill="none" xmlns="http://www.w3.org/2000/svg">
<path fill-rule="evenodd" clip-rule="evenodd" d="M4.21875 4.89933L0.140625 0.939597C0.0468748 0.872483 0 0.782998 0 0.671141C0 0.559284 0.0351562 0.458613 0.105469 0.369128L0.386719 0.134228C0.457031 0.0447426 0.550781 0 0.667969 0C0.785156 0 0.890625 0.0447426 0.984375 0.134228L4.5 3.55705L8.01562 0.134228C8.10938 0.0671141 8.21484 0.033557 8.33203 0.033557C8.44922 0.033557 8.54297 0.0671141 8.61328 0.134228L8.89453 0.369128C8.96484 0.458613 9 0.559284 9 0.671141C9 0.782998 8.96484 0.872483 8.89453 0.939597L4.81641 4.89933C4.72266 4.96644 4.61719 5 4.5 5C4.38281 5 4.27734 4.96644 4.18359 4.89933H4.21875Z" fill="#797F8F"/>
</svg>
