<?xml version="1.0" encoding="UTF-8"?>
<svg width="16px" height="15px" viewBox="0 0 16 15" version="1.1" xmlns="http://www.w3.org/2000/svg" xmlns:xlink="http://www.w3.org/1999/xlink">
    <g id="Yellow-DLP-/SRP" stroke="none" stroke-width="1" fill="none" fill-rule="evenodd">
        <g id="Artboard" transform="translate(-607.000000, -959.000000)" fill="#1F2A44">
            <path d="M610.50558,963.84933 L610.50558,973.803571 L607.190848,973.803571 L607.190848,963.84933 L610.50558,963.84933 Z M610.716518,960.77567 C610.723214,961.264511 610.554131,961.672989 610.209263,962.001116 C609.864396,962.329243 609.410717,962.493304 608.848214,962.493304 L608.828125,962.493304 C608.279015,962.493304 607.837055,962.329243 607.502232,962.001116 C607.167409,961.672989 607,961.264511 607,960.77567 C607,960.280131 607.172431,959.869979 607.517299,959.545201 C607.862167,959.220422 608.312497,959.058036 608.868304,959.058036 C609.42411,959.058036 609.869418,959.220422 610.204241,959.545201 C610.539064,959.869979 610.709821,960.280131 610.716518,960.77567 Z M615.638393,965.263857 C615.765952,965.062813 615.896531,964.885948 616.030134,964.733259 C616.17076,964.572544 616.359932,964.398438 616.597656,964.210938 C616.835381,964.023437 617.126672,963.877791 617.47154,963.773996 C617.816408,963.6702 618.199775,963.618304 618.621652,963.618304 C619.766747,963.618304 620.687497,963.998322 621.383929,964.758371 C622.080361,965.518419 622.428571,966.631689 622.428571,968.098214 L622.428571,973.803571 L619.123884,973.803571 L619.123884,968.479911 C619.123884,967.776782 618.988283,967.226006 618.717076,966.827567 C618.445869,966.429127 618.022324,966.229911 617.446429,966.229911 C617.024551,966.229911 616.671318,966.345423 616.386719,966.576451 C616.102119,966.807479 615.88951,967.093748 615.748884,967.435268 C615.675223,967.636162 615.638393,967.907364 615.638393,968.248884 L615.638393,973.803571 L612.333705,973.803571 C612.347098,971.131683 612.353795,968.96541 612.353795,967.304688 C612.353795,965.643965 612.350446,964.652903 612.34375,964.331473 L612.333705,963.84933 L615.638393,963.84933 L615.638393,965.263857 Z" id="IN"></path>
        </g>
    </g>
</svg>
