<?xml version="1.0" encoding="UTF-8"?>
<svg width="17px" height="13px" viewBox="0 0 17 13" version="1.1" xmlns="http://www.w3.org/2000/svg" xmlns:xlink="http://www.w3.org/1999/xlink">
    <defs></defs>
    <g id="Yellow-DLP-/SRP" stroke="none" stroke-width="1" fill="none" fill-rule="evenodd">
        <g id="Artboard" transform="translate(-559.000000, -961.000000)" fill="#1F2A44">
            <path d="M575.272321,962.669643 C574.823658,963.325896 574.281253,963.885042 573.645089,964.347098 C573.651786,964.440849 573.655134,964.581472 573.655134,964.768973 C573.655134,965.639513 573.527903,966.508366 573.273438,967.375558 C573.018972,968.24275 572.632257,969.074773 572.113281,969.871652 C571.594305,970.668531 570.976566,971.373323 570.260045,971.986049 C569.543523,972.598775 568.679693,973.08761 567.668527,973.452567 C566.657361,973.817524 565.575899,974 564.424107,974 C562.609366,974 560.948668,973.514514 559.441964,972.543527 C559.67634,972.570313 559.937499,972.583705 560.225446,972.583705 C561.73215,972.583705 563.074771,972.121656 564.253348,971.197545 C563.55022,971.184152 562.920762,970.968194 562.364955,970.549665 C561.809149,970.131136 561.427456,969.597101 561.219866,968.947545 C561.440849,968.981027 561.645088,968.997768 561.832589,968.997768 C562.120537,968.997768 562.405133,968.960938 562.686384,968.887277 C561.93638,968.733258 561.315293,968.359936 560.823103,967.767299 C560.330913,967.174662 560.084821,966.486611 560.084821,965.703125 L560.084821,965.662946 C560.540181,965.917412 561.029015,966.054687 561.551339,966.074777 C561.109373,965.780132 560.757814,965.395092 560.496652,964.919643 C560.23549,964.444194 560.104911,963.928574 560.104911,963.372768 C560.104911,962.783479 560.252231,962.237726 560.546875,961.735491 C561.357147,962.733264 562.343186,963.531805 563.505022,964.131138 C564.666858,964.730472 565.910708,965.063616 567.236607,965.13058 C567.183035,964.876115 567.15625,964.628349 567.15625,964.387277 C567.15625,963.489951 567.472653,962.724892 568.105469,962.092076 C568.738284,961.45926 569.503344,961.142857 570.40067,961.142857 C571.338174,961.142857 572.128345,961.484372 572.771205,962.167411 C573.50112,962.026785 574.187497,961.765627 574.830357,961.383929 C574.582588,962.154022 574.107146,962.749998 573.404018,963.171875 C574.026789,963.10491 574.64955,962.937501 575.272321,962.669643 Z" id="T"></path>
        </g>
    </g>
</svg>
