<svg width="14" height="14" viewBox="0 0 14 14" fill="none" xmlns="http://www.w3.org/2000/svg">
<path fill-rule="evenodd" clip-rule="evenodd" d="M13.3437 6.9453C13.3437 8.22133 13.0703 9.36065 12.5234 10.3633C11.9765 11.3659 11.2064 12.1497 10.2129 12.7148C9.21938 13.2799 8.0755 13.5625 6.78123 13.5625C5.55988 13.5625 4.42968 13.2571 3.39062 12.6465C2.35156 12.0358 1.52669 11.2109 0.916013 10.1719C0.305338 9.13279 0 8.00259 0 6.78123C0 5.55988 0.305338 4.42968 0.916013 3.39062C1.52669 2.35156 2.35156 1.52669 3.39062 0.916013C4.42968 0.305338 5.55988 0 6.78123 0C8.54946 0 10.0625 0.592447 11.3203 1.77734L9.48826 3.55468C8.90493 2.98958 8.20311 2.65234 7.38279 2.54296C6.61717 2.43359 5.86066 2.54296 5.11327 2.87109C4.36587 3.19921 3.76431 3.6914 3.30859 4.34765C2.8164 5.05858 2.57031 5.86978 2.57031 6.78123C2.57031 7.56509 2.76171 8.28058 3.14452 8.92771C3.52734 9.57485 4.03775 10.0944 4.67577 10.4863C5.31379 10.8782 6.01561 11.0742 6.78123 11.0742C7.60154 11.0742 8.32159 10.8919 8.94139 10.5273C9.43357 10.2357 9.84373 9.84373 10.1719 9.35154C10.4088 8.9505 10.5638 8.54946 10.6367 8.14842H6.78123V5.79686H13.2343C13.3073 6.1979 13.3437 6.58071 13.3437 6.9453Z" fill="#1F2A44"/>
</svg>
