<?xml version="1.0" encoding="UTF-8"?>
<svg width="16px" height="19px" viewBox="0 0 16 19" version="1.1" xmlns="http://www.w3.org/2000/svg" xmlns:xlink="http://www.w3.org/1999/xlink">
    <g id="Yellow-DLP-/SRP" stroke="none" stroke-width="1" fill="none" fill-rule="evenodd">
        <g id="Artboard" transform="translate(-700.000000, -957.000000)" fill="#1F2A44">
            <path d="M709.753348,970.066964 L709.753348,972.186384 C709.753348,972.635047 709.622769,972.859375 709.361607,972.859375 C709.207589,972.859375 709.05692,972.785715 708.909598,972.638393 L708.909598,969.614955 C709.05692,969.467633 709.207589,969.393973 709.361607,969.393973 C709.622769,969.393973 709.753348,969.618301 709.753348,970.066964 Z M713.148438,970.077009 L713.148438,970.539062 L712.24442,970.539062 L712.24442,970.077009 C712.24442,969.62165 712.395088,969.393973 712.696429,969.393973 C712.997769,969.393973 713.148438,969.62165 713.148438,970.077009 Z M703.445312,967.887277 L704.520089,967.887277 L704.520089,966.94308 L701.386161,966.94308 L701.386161,967.887277 L702.440848,967.887277 L702.440848,973.602679 L703.445312,973.602679 L703.445312,967.887277 Z M706.33817,973.602679 L707.232143,973.602679 L707.232143,968.640625 L706.33817,968.640625 L706.33817,972.4375 C706.137276,972.718751 705.946429,972.859375 705.765625,972.859375 C705.645089,972.859375 705.574777,972.789063 705.554688,972.648438 C705.547991,972.628348 705.544643,972.511162 705.544643,972.296875 L705.544643,968.640625 L704.65067,968.640625 L704.65067,972.56808 C704.65067,972.896207 704.677455,973.140624 704.731027,973.301339 C704.811384,973.549108 705.005579,973.672991 705.313616,973.672991 C705.635046,973.672991 705.976561,973.468752 706.33817,973.060268 L706.33817,973.602679 Z M710.647321,972.116071 L710.647321,970.137277 C710.647321,969.648435 710.617188,969.316965 710.55692,969.142857 C710.44308,968.767855 710.205359,968.580357 709.84375,968.580357 C709.508927,968.580357 709.197546,968.761159 708.909598,969.122768 L708.909598,966.94308 L708.015625,966.94308 L708.015625,973.602679 L708.909598,973.602679 L708.909598,973.120536 C709.210939,973.488841 709.52232,973.672991 709.84375,973.672991 C710.205359,973.672991 710.44308,973.488841 710.55692,973.120536 C710.617188,972.939731 710.647321,972.604913 710.647321,972.116071 Z M714.042411,972.015625 L714.042411,971.885045 L713.128348,971.885045 C713.128348,972.226564 713.121652,972.430803 713.108259,972.497768 C713.061384,972.73884 712.927456,972.859375 712.706473,972.859375 C712.398436,972.859375 712.24442,972.628351 712.24442,972.166295 L712.24442,971.292411 L714.042411,971.292411 L714.042411,970.257812 C714.042411,969.728792 713.95201,969.340403 713.771205,969.092634 C713.510043,968.751114 713.155136,968.580357 712.706473,968.580357 C712.251114,968.580357 711.892858,968.751114 711.631696,969.092634 C711.444195,969.340403 711.350446,969.728792 711.350446,970.257812 L711.350446,971.995536 C711.350446,972.524556 711.447544,972.912945 711.641741,973.160714 C711.902903,973.502234 712.264507,973.672991 712.726562,973.672991 C713.208708,973.672991 713.570311,973.495537 713.811384,973.140625 C713.93192,972.959821 714.002232,972.779019 714.022321,972.598214 C714.035714,972.537946 714.042411,972.343752 714.042411,972.015625 Z M707.935268,962.844866 L707.935268,960.735491 C707.935268,960.273435 707.791296,960.042411 707.503348,960.042411 C707.2154,960.042411 707.071429,960.273435 707.071429,960.735491 L707.071429,962.844866 C707.071429,963.313618 707.2154,963.547991 707.503348,963.547991 C707.791296,963.547991 707.935268,963.313618 707.935268,962.844866 Z M715.157366,970.388393 C715.157366,971.955365 715.070313,973.127228 714.896205,973.904018 C714.802455,974.299109 714.60826,974.630579 714.313616,974.898438 C714.018972,975.166296 713.677457,975.320312 713.289062,975.360491 C712.056913,975.501117 710.198673,975.571429 707.714286,975.571429 C705.229898,975.571429 703.371658,975.501117 702.139509,975.360491 C701.751114,975.320312 701.407926,975.166296 701.109933,974.898438 C700.81194,974.630579 700.61942,974.299109 700.532366,973.904018 C700.358258,973.154014 700.271205,971.982151 700.271205,970.388393 C700.271205,968.821421 700.358258,967.649557 700.532366,966.872768 C700.626117,966.477677 700.820311,966.146207 701.114955,965.878348 C701.4096,965.61049 701.754462,965.453125 702.149554,965.40625 C703.375006,965.272321 705.229898,965.205357 707.714286,965.205357 C710.198673,965.205357 712.056913,965.272321 713.289062,965.40625 C713.677457,965.453125 714.020646,965.61049 714.318638,965.878348 C714.616631,966.146207 714.809151,966.477677 714.896205,966.872768 C715.070313,967.622772 715.157366,968.794635 715.157366,970.388393 Z M705.132812,957.571429 L706.157366,957.571429 L704.941964,961.579241 L704.941964,964.301339 L703.9375,964.301339 L703.9375,961.579241 C703.84375,961.083703 703.639511,960.373889 703.324777,959.449777 C703.077008,958.760041 702.859376,958.133931 702.671875,957.571429 L703.736607,957.571429 L704.449777,960.21317 L705.132812,957.571429 Z M708.84933,960.916295 L708.84933,962.674107 C708.84933,963.216521 708.755581,963.611606 708.56808,963.859375 C708.313615,964.200895 707.958708,964.371652 707.503348,964.371652 C707.054685,964.371652 706.703126,964.200895 706.448661,963.859375 C706.26116,963.604909 706.167411,963.209824 706.167411,962.674107 L706.167411,960.916295 C706.167411,960.380578 706.26116,959.988841 706.448661,959.741071 C706.703126,959.399552 707.054685,959.228795 707.503348,959.228795 C707.958708,959.228795 708.313615,959.399552 708.56808,959.741071 C708.755581,959.988841 708.84933,960.380578 708.84933,960.916295 Z M712.214286,959.289062 L712.214286,964.301339 L711.300223,964.301339 L711.300223,963.748884 C710.945311,964.164065 710.600448,964.371652 710.265625,964.371652 C709.957588,964.371652 709.760045,964.247769 709.672991,964 C709.619419,963.839285 709.592634,963.588171 709.592634,963.246652 L709.592634,959.289062 L710.506696,959.289062 L710.506696,962.975446 C710.506696,963.19643 710.510045,963.313616 710.516741,963.327009 C710.53683,963.474331 710.607142,963.547991 710.727679,963.547991 C710.908483,963.547991 711.099329,963.404019 711.300223,963.116071 L711.300223,959.289062 L712.214286,959.289062 Z" id="Yt"></path>
        </g>
    </g>
</svg>