<?xml version="1.0" encoding="UTF-8"?>
<svg width="10px" height="18px" viewBox="0 0 10 18" version="1.1" xmlns="http://www.w3.org/2000/svg" xmlns:xlink="http://www.w3.org/1999/xlink">
    <g id="Yellow-DLP-/SRP" stroke="none" stroke-width="1" fill="none" fill-rule="evenodd">
        <g id="Artboard" transform="translate(-516.000000, -958.000000)" fill="#1F2A44">
            <path d="M525.632812,958.691964 L525.632812,961.34375 L524.055804,961.34375 C523.479908,961.34375 523.091519,961.464285 522.890625,961.705357 C522.689731,961.94643 522.589286,962.308033 522.589286,962.790179 L522.589286,964.688616 L525.532366,964.688616 L525.140625,967.66183 L522.589286,967.66183 L522.589286,975.285714 L519.515625,975.285714 L519.515625,967.66183 L516.954241,967.66183 L516.954241,964.688616 L519.515625,964.688616 L519.515625,962.498884 C519.515625,961.253342 519.863836,960.287392 520.560268,959.601004 C521.2567,958.914617 522.184146,958.571429 523.342634,958.571429 C524.327014,958.571429 525.090399,958.611607 525.632812,958.691964 Z" id="FB"></path>
        </g>
    </g>
</svg>
