<svg width="20" height="20" viewBox="0 0 20 20" fill="none" xmlns="http://www.w3.org/2000/svg">
<path d="M19.75 10C19.75 15.3848 15.3848 19.75 10 19.75C4.61522 19.75 0.25 15.3848 0.25 10C0.25 4.61522 4.61522 0.25 10 0.25C15.3848 0.25 19.75 4.61522 19.75 10Z" stroke="#1B365D" stroke-width="0.5"/>
<path d="M8.8 4.1001H5.3C4.6 4.1001 4 4.7001 4 5.4001V8.9001C4 9.3001 4.1 9.6001 4.4 9.9001L11.7 17.2001C12 17.5001 12.4 17.5001 12.6 17.2001L17 12.8001C17.3 12.5001 17.3 12.1001 17 11.9001L9.8 4.6001C9.6 4.3001 9.2 4.1001 8.8 4.1001Z" stroke="#1B365D" stroke-width="0.5" stroke-miterlimit="10"/>
<path d="M6.49998 8.0002C7.27317 8.0002 7.89998 7.37339 7.89998 6.6002C7.89998 5.827 7.27317 5.2002 6.49998 5.2002C5.72678 5.2002 5.09998 5.827 5.09998 6.6002C5.09998 7.37339 5.72678 8.0002 6.49998 8.0002Z" fill="#1B365D"/>
<path d="M12.9 13.5003C12.7 13.7003 12.4 13.8003 12.1 14.0003C11.8 14.1003 11.4 14.2003 11.1 14.2003H11L10.7 13.3003H10.9C11.2 13.3003 11.5 13.2003 11.8 13.1003C12.1 13.0003 12.3 12.8003 12.5 12.6003C12.7 12.4003 12.8 12.2003 12.9 12.0003C12.9 11.8003 12.9 11.7003 12.8 11.5003C12.7 11.4003 12.6 11.3003 12.5 11.3003C12.3 11.3003 12.2 11.3003 12.1 11.4003C11.9 11.5003 11.7 11.6003 11.5 11.7003C11.2 11.9003 10.9 12.0003 10.7 12.1003C10.5 12.2003 10.3 12.2003 10.2 12.2003C10.1 12.2003 10.1 12.2003 10 12.2003C9.7 12.2003 9.5 12.0003 9.2 11.8003C8.9 11.5003 8.8 11.2003 8.8 10.8003C8.8 10.4003 9 10.1003 9.2 9.70029L8.5 9.00029L9 8.40029L9.6 9.00029C9.8 8.90029 10 8.70029 10.2 8.60029C10.4 8.50029 10.7 8.40029 10.9 8.30029H11L11.3 9.20029H11.1C10.8 9.30029 10.6 9.30029 10.4 9.50029C10.3 9.70029 10.1 9.90029 10 10.0003C9.8 10.2003 9.7 10.4003 9.7 10.6003C9.7 10.8003 9.7 10.9003 9.8 11.0003C9.9 11.1003 10 11.2003 10.1 11.2003C10.3 11.2003 10.4 11.2003 10.5 11.1003C10.7 11.0003 10.9 10.9003 11.1 10.8003C11.4 10.6003 11.7 10.5003 11.9 10.4003C12.1 10.3003 12.3 10.3003 12.5 10.3003C12.6 10.3003 12.6 10.3003 12.7 10.3003C13 10.3003 13.2 10.5003 13.5 10.7003C13.8 11.0003 13.9 11.4003 13.9 11.8003C13.9 12.2003 13.7 12.5003 13.5 12.9003L14.2 13.6003L13.6 14.2003L12.9 13.5003Z" fill="#1B365D"/>
</svg>
