<svg width="20" height="20" viewBox="0 0 20 20" fill="none" xmlns="http://www.w3.org/2000/svg">
<path d="M19.75 10C19.75 15.3848 15.3848 19.75 10 19.75C4.61522 19.75 0.25 15.3848 0.25 10C0.25 4.61522 4.61522 0.25 10 0.25C15.3848 0.25 19.75 4.61522 19.75 10Z" stroke="#1B365D" stroke-width="0.5"/>
<path d="M12.2998 10.6L12.5998 8.8H10.8998V7.6C10.8998 7.1 11.0998 6.6 11.8998 6.6H12.6998V5.1C12.6998 5.1 11.9998 5 11.2998 5C9.7998 5 8.8998 5.9 8.8998 7.4V8.8H7.2998V10.6H8.8998V15H10.8998V10.6H12.2998Z" fill="#1B365D"/>
</svg>
