<svg width="20" height="20" viewBox="0 0 20 20" fill="none" xmlns="http://www.w3.org/2000/svg">
<path d="M19.75 10C19.75 15.3848 15.3848 19.75 10 19.75C4.61522 19.75 0.25 15.3848 0.25 10C0.25 4.61522 4.61522 0.25 10 0.25C15.3848 0.25 19.75 4.61522 19.75 10Z" stroke="#1B365D" stroke-width="0.5"/>
<path d="M12.4 8.29999V6.89999C12.8 6.79999 13 6.39999 13 5.99999C13 5.39999 12.5 4.99999 11.9 4.99999C11.3 4.99999 10.9 5.49999 10.8 5.99999C10.8 6.39999 11 6.79999 11.4 6.89999V8.29999C10.9 8.39999 10.4 8.59999 10 8.89999L6.30004 5.99999C6.40004 5.49999 6.20004 4.99999 5.80004 4.69999C5.40004 4.39999 4.80004 4.39999 4.40004 4.79999C4.10004 5.09999 3.90004 5.59999 4.10004 6.09999C4.30004 6.59999 4.70004 6.89999 5.20004 6.89999C5.40004 6.89999 5.60004 6.79999 5.80004 6.69999L9.50004 9.49999C8.80004 10.5 8.80004 11.8 9.50004 12.8L8.40004 14C8.30004 14 8.20004 14 8.10004 14C7.70004 14 7.40004 14.2 7.20004 14.6C7.00004 15 7.10004 15.4 7.40004 15.7C7.70004 16 8.10004 16.1 8.50004 15.9C8.90004 15.8 9.10004 15.4 9.10004 15C9.10004 14.9 9.10004 14.8 9.10004 14.7L10.2 13.6C11.2 14.3 12.6 14.4 13.6 13.8C14.7 13.1 15.2 11.9 14.9 10.7C14.7 9.39999 13.7 8.49999 12.4 8.29999ZM12 12.7C11.4 12.7 10.8 12.3 10.6 11.8C10.4 11.2 10.5 10.6 10.9 10.1C11.3 9.69999 12 9.49999 12.6 9.79999C13.2 9.99999 13.5 10.6 13.5 11.2C13.5 12.1 12.8 12.7 12 12.7Z" fill="#1B365D"/>
</svg>
