<svg width="20" height="20" viewBox="0 0 20 20" fill="none" xmlns="http://www.w3.org/2000/svg">
<g clip-path="url(#clip0)">
<path d="M19.75 10C19.75 15.3848 15.3848 19.75 10 19.75C4.61522 19.75 0.25 15.3848 0.25 10C0.25 4.61522 4.61522 0.25 10 0.25C15.3848 0.25 19.75 4.61522 19.75 10Z" stroke="#1B365D" stroke-width="0.5"/>
<path d="M8.8999 4.79999C8.2999 4.79999 7.8999 5.29999 7.8999 5.79999C7.8999 6.39999 8.3999 6.79999 8.8999 6.79999C9.4999 6.79999 9.8999 6.29999 9.8999 5.79999C9.8999 5.19999 9.3999 4.79999 8.8999 4.79999Z" stroke="#1B365D" stroke-width="0.4787" stroke-miterlimit="10" stroke-linecap="round" stroke-linejoin="round"/>
<path d="M15.5999 7.79999H8.8999C7.7999 7.79999 6.8999 6.89999 6.8999 5.79999C6.8999 4.69999 7.7999 3.79999 8.8999 3.79999H15.5999V7.79999V7.79999Z" stroke="#1B365D" stroke-width="0.4787" stroke-miterlimit="10" stroke-linecap="round" stroke-linejoin="round"/>
<path d="M5.2002 15.4V4.00001C5.2002 3.80001 5.3002 3.70001 5.5002 3.70001H15.6002V14.9H5.5002C5.3002 14.9 5.2002 15 5.2002 15.2V15.5C5.2002 15.7 5.3002 15.8 5.5002 15.8H15.6002" stroke="#1B365D" stroke-width="0.4787" stroke-miterlimit="10" stroke-linecap="round" stroke-linejoin="round"/>
<path d="M15.6 13H5.5" stroke="#1B365D" stroke-width="0.4787" stroke-miterlimit="10" stroke-linecap="round" stroke-linejoin="round"/>
<path d="M6.2002 9.09998H8.7002" stroke="#1B365D" stroke-width="0.4787" stroke-miterlimit="10" stroke-linecap="round" stroke-linejoin="round"/>
<path d="M6.2002 9.90002H8.7002" stroke="#1B365D" stroke-width="0.4787" stroke-miterlimit="10" stroke-linecap="round" stroke-linejoin="round"/>
<path d="M4.2 4.5L3.2 4.7C3 4.7 3 4.8 3 5L5.2 15.6" stroke="#1B365D" stroke-width="0.4787" stroke-miterlimit="10" stroke-linecap="round" stroke-linejoin="round"/>
<path d="M4.4002 7.40002L3.7002 7.50002" stroke="#1B365D" stroke-width="0.4787" stroke-miterlimit="10" stroke-linecap="round" stroke-linejoin="round"/>
</g>
<defs>
<clipPath id="clip0">
<rect width="20" height="20" fill="white"/>
</clipPath>
</defs>
</svg>
