<svg width="15" height="15" viewBox="0 0 15 15" fill="none" xmlns="http://www.w3.org/2000/svg">
<path fill-rule="evenodd" clip-rule="evenodd" d="M1.65422 0.90583C1.47195 0.960511 1.31702 1.06532 1.18943 1.22025C1.06184 1.37518 0.998047 1.54378 0.998047 1.72605C0.998047 4.00443 1.5722 6.11877 2.7205 8.06907C3.81413 9.94646 5.30875 11.4411 7.20437 12.5529C9.13644 13.683 11.2325 14.248 13.4927 14.248C13.6932 14.248 13.8709 14.1843 14.0258 14.0567C14.1808 13.9291 14.2856 13.7741 14.3403 13.5919L14.9691 10.8305C15.0238 10.63 15.001 10.4386 14.9007 10.2563C14.8005 10.074 14.6592 9.93734 14.477 9.84621L11.5242 8.58854C11.3419 8.51563 11.1596 8.50196 10.9774 8.54753C10.7951 8.5931 10.6402 8.68879 10.5126 8.83461L9.30959 10.311C8.36178 9.8371 7.51423 9.22649 6.76692 8.47918C6.01961 7.73187 5.409 6.88431 4.93509 5.9365L6.41149 4.73351C6.5573 4.60593 6.653 4.451 6.69856 4.26872C6.74413 4.08645 6.73046 3.90418 6.65755 3.72191L5.39989 0.769127C5.30875 0.586856 5.17205 0.445596 4.98978 0.345347C4.8075 0.245098 4.61612 0.222315 4.41562 0.276996L1.65422 0.90583ZM13.4927 13.3731C11.3966 13.3731 9.44629 12.8446 7.64181 11.7874C5.89202 10.7667 4.49765 9.3723 3.4587 7.60428C2.40153 5.7998 1.87295 3.8495 1.87295 1.75339L4.60701 1.12455L5.86468 4.07734L3.86881 5.69044C4.52499 7.11215 5.28141 8.25134 6.13808 9.10801C6.99475 9.96468 8.13395 10.7211 9.55566 11.3773L11.1688 9.38142L14.1215 10.6391L13.4927 13.3731Z" fill="#1F2A44"/>
</svg>
