<svg width="20" height="20" viewBox="0 0 20 20" fill="none" xmlns="http://www.w3.org/2000/svg">
<path d="M10 0.5C15.2 0.5 19.5 4.8 19.5 10C19.5 15.2 15.2 19.5 10 19.5C4.8 19.5 0.5 15.2 0.5 10C0.5 4.8 4.8 0.5 10 0.5ZM10 0C4.5 0 0 4.5 0 10C0 15.5 4.5 20 10 20C15.5 20 20 15.5 20 10C20 4.5 15.5 0 10 0Z" fill="#1B365D"/>
<path d="M16.2999 12.2H12.2999V13.8H14.5999C14.5999 14.2 14.2999 14.8 13.6999 15.2C13.2999 15.4 12.8999 15.6 12.1999 15.6C11.0999 15.6 10.0999 14.9 9.7999 13.8C9.6999 13.5 9.6999 13.3 9.6999 13C9.6999 12.7 9.7999 12.4 9.7999 12.2C10.0999 11.2 11.0999 10.4 12.1999 10.4C12.9999 10.4 13.4999 10.7 13.7999 11L14.9999 9.80001C14.2999 9.10001 13.2999 8.70001 12.1999 8.70001C10.4999 8.70001 9.0999 9.70001 8.3999 11C8.0999 11.6 7.8999 12.2 7.8999 12.9C7.8999 13.6 8.0999 14.2 8.3999 14.8C9.0999 16.2 10.4999 17.1 12.1999 17.1C13.2999 17.1 14.2999 16.7 14.9999 16.1C15.7999 15.4 16.2999 14.3 16.2999 13C16.3999 12.7 16.2999 12.4 16.2999 12.2Z" fill="#1B365D"/>
<path d="M8.4998 16.4H5.0998C4.8998 16.4 4.7998 16.3 4.7998 16.1V10.3" stroke="#1B365D" stroke-width="0.5" stroke-miterlimit="10" stroke-linecap="round" stroke-linejoin="round"/>
<path d="M8.5 9.40001H3.5V4.70001H16.1V11" stroke="#1B365D" stroke-width="0.5" stroke-miterlimit="10" stroke-linecap="round" stroke-linejoin="round"/>
<path d="M10.8999 8.09999L9.5999 6.99999L8.2999 8.29999L6.4999 6.29999L4.3999 9.19999" stroke="#1B365D" stroke-width="0.5" stroke-miterlimit="10" stroke-linecap="round" stroke-linejoin="round"/>
<path d="M13.1999 7.30001C13.6417 7.30001 13.9999 6.94184 13.9999 6.50001C13.9999 6.05818 13.6417 5.70001 13.1999 5.70001C12.7581 5.70001 12.3999 6.05818 12.3999 6.50001C12.3999 6.94184 12.7581 7.30001 13.1999 7.30001Z" fill="#1B365D"/>
</svg>
