<svg width="26" height="29" viewBox="0 0 26 29" fill="none" xmlns="http://www.w3.org/2000/svg">
<path d="M23.737 7.72937L6.99948 5.52917L6.21491 0.912934C6.15215 0.517257 5.84878 0.229492 5.49834 0.229492H1.31918C0.916434 0.229492 0.586914 0.607184 0.586914 1.06881C0.586914 1.53643 0.916434 1.90812 1.31918 1.90812H4.8916L7.30808 16.1765C7.45454 17.0458 7.22962 17.957 6.70658 18.6105C6.08415 19.3839 5.92723 20.469 6.2986 21.4342C6.66996 22.3994 7.47023 22.9989 8.38556 22.9989H22.5549C22.9629 22.9989 23.2872 22.6212 23.2872 22.1596C23.2872 21.698 22.9577 21.3203 22.5549 21.3203H8.39079C7.89913 21.3203 7.69514 20.8946 7.64806 20.7627C7.60099 20.6308 7.45977 20.1752 7.79452 19.7615C8.08742 19.3958 8.31756 18.9822 8.49017 18.5385H21.875C22.8321 18.5385 23.6795 17.8311 23.9724 16.788L25.5886 11.0267C26.0123 9.49193 25.1179 7.90922 23.737 7.72937Z" fill="#fff"/>
<path d="M21.1425 24.252C19.9971 24.252 19.0713 25.3131 19.0713 26.626C19.0713 27.9389 19.9971 29.0001 21.1425 29.0001C22.288 29.0001 23.2138 27.9389 23.2138 26.626C23.2138 25.3191 22.288 24.252 21.1425 24.252Z" fill="#fff"/>
<path d="M8.25489 24.252C7.1094 24.252 6.18359 25.3131 6.18359 26.626C6.18359 27.9389 7.1094 29.0001 8.25489 29.0001C9.40037 29.0001 10.3262 27.9389 10.3262 26.626C10.3314 25.3191 9.40037 24.252 8.25489 24.252Z" fill="#fff"/>
</svg>
