<svg width="20" height="20" viewBox="0 0 20 20" fill="none" xmlns="http://www.w3.org/2000/svg">
<path d="M19.75 10C19.75 15.3848 15.3848 19.75 10 19.75C4.61522 19.75 0.25 15.3848 0.25 10C0.25 4.61522 4.61522 0.25 10 0.25C15.3848 0.25 19.75 4.61522 19.75 10Z" stroke="#1B365D" stroke-width="0.5"/>
<path d="M13.5 2.3999C12.2 2.3999 11.1 3.4999 11.1 4.7999C11.1 6.0999 12.2 7.1999 13.5 7.1999C14.8 7.1999 15.9 6.0999 15.9 4.7999C15.9 3.4999 14.8 2.3999 13.5 2.3999ZM13.5 6.5999C12.5 6.5999 11.7 5.7999 11.7 4.7999C11.7 3.7999 12.5 2.9999 13.5 2.9999C14.5 2.9999 15.3 3.7999 15.3 4.7999C15.3 5.7999 14.5 6.5999 13.5 6.5999Z" fill="#1B365D"/>
<path d="M13.5 3.5C12.8 3.5 12.2 4.1 12.2 4.8C12.2 5.5 12.8 6 13.5 6C14.2 6 14.8 5.4 14.8 4.7C14.8 4 14.2 3.5 13.5 3.5Z" fill="#1B365D"/>
<path d="M12.2 8.5C11.8 8.5 11.5 8.7 11.4 9.1C11.4 9.1 10.7 11.2 10 13L8.60002 9C8.40002 8.7 8.10002 8.5 7.80002 8.5H6.90002L9.50002 14.7C9.40002 15.1 9.30002 15.4 9.30002 15.4C9.00002 16 8.30002 16.4 7.70002 16.5C7.60002 16.5 7.50002 16.6 7.50002 16.8V17.6C7.50002 17.6 7.50002 17.7 7.60002 17.7C8.80002 17.7 10 16.9 10.5 15.7L13.2 8.6H12.2V8.5Z" fill="#1B365D"/>
</svg>
