<svg width="20" height="20" viewBox="0 0 20 20" fill="none" xmlns="http://www.w3.org/2000/svg">
<path d="M19.75 10C19.75 15.3848 15.3848 19.75 10 19.75C4.61522 19.75 0.25 15.3848 0.25 10C0.25 4.61522 4.61522 0.25 10 0.25C15.3848 0.25 19.75 4.61522 19.75 10Z" stroke="#1B365D" stroke-width="0.5"/>
<path d="M14.4 13.8997L8.80005 8.69971V16.2997L10.4 13.8997L11.6 16.5997L12.8 16.0997L11.6 13.3997L14.4 13.8997Z" fill="#1B365D"/>
<path d="M7.30005 15.4999H4.00005C3.60005 15.4999 3.30005 15.1999 3.30005 14.6999V5.1999C3.30005 4.7999 3.60005 4.3999 4.00005 4.3999H16C16.4 4.3999 16.7 4.6999 16.7 5.1999V14.6999C16.7 15.0999 16.4 15.4999 16 15.4999H14.2" stroke="#1B365D" stroke-width="0.5" stroke-miterlimit="10" stroke-linecap="round" stroke-linejoin="round"/>
<path d="M3.5 7.7998H16.7" stroke="#1B365D" stroke-width="0.5" stroke-miterlimit="10" stroke-linecap="round" stroke-linejoin="round"/>
<path d="M5 6.69971C5.27614 6.69971 5.5 6.47585 5.5 6.19971C5.5 5.92356 5.27614 5.69971 5 5.69971C4.72386 5.69971 4.5 5.92356 4.5 6.19971C4.5 6.47585 4.72386 6.69971 5 6.69971Z" fill="#1B365D"/>
<path d="M6.80005 6.69971C7.07619 6.69971 7.30005 6.47585 7.30005 6.19971C7.30005 5.92356 7.07619 5.69971 6.80005 5.69971C6.52391 5.69971 6.30005 5.92356 6.30005 6.19971C6.30005 6.47585 6.52391 6.69971 6.80005 6.69971Z" fill="#1B365D"/>
<path d="M8.5 6.69971C8.77614 6.69971 9 6.47585 9 6.19971C9 5.92356 8.77614 5.69971 8.5 5.69971C8.22386 5.69971 8 5.92356 8 6.19971C8 6.47585 8.22386 6.69971 8.5 6.69971Z" fill="#1B365D"/>
</svg>
