<svg width="24" height="24" viewBox="0 0 24 24" fill="none" xmlns="http://www.w3.org/2000/svg">
<path d="M1.15865 2.17C0.948649 2.52 0.978649 2.99999 1.06865 3.49999C1.96865 8.55 4.40865 13.07 7.83865 16.51C11.2686 19.94 15.9186 22.51 20.8086 23.25C21.3086 23.33 21.7886 23.36 22.1386 23.16C22.2586 23.09 22.4186 22.96 22.4586 22.76L23.2586 19.16C23.3186 18.85 23.2086 18.53 22.9586 18.27C22.8386 18.15 20.1086 17.16 18.8186 16.54C18.2886 16.28 17.6686 16.43 17.4086 16.86L16.9086 17.72C16.7386 18.01 16.4486 18.23 16.1286 18.31C14.8686 18.63 10.9686 15.04 10.1186 14.19C9.23865 13.31 5.52865 9.31 5.84865 8.05C5.92865 7.72 6.14865 7.44 6.43865 7.27C7.19865 6.83 6.98865 6.95 7.29865 6.77C7.73865 6.51 7.88865 5.89 7.62865 5.36C7.06865 4.21 6.73865 3.13 6.36865 1.9C6.20865 1.36 5.68865 0.929995 5.16865 1.04C5.16865 1.04 5.10865 1.05 1.54865 1.85C1.35865 1.89 1.22865 2.05 1.15865 2.17Z" stroke="#1F2A44" stroke-miterlimit="10"/>
<path d="M12.1286 4.00999C16.0586 4.00999 19.2386 7.18999 19.2386 11.12" stroke="#1F2A44" stroke-miterlimit="10" stroke-linecap="round" stroke-linejoin="round"/>
<path d="M12.1286 1C17.7186 1 22.2486 5.53 22.2486 11.12" stroke="#1F2A44" stroke-miterlimit="10" stroke-linecap="round" stroke-linejoin="round"/>
</svg>
