<svg width="20" height="20" viewBox="0 0 20 20" fill="none" xmlns="http://www.w3.org/2000/svg">
<path d="M19.75 10C19.75 15.3848 15.3848 19.75 10 19.75C4.61522 19.75 0.25 15.3848 0.25 10C0.25 4.61522 4.61522 0.25 10 0.25C15.3848 0.25 19.75 4.61522 19.75 10Z" stroke="#1B365D" stroke-width="0.5"/>
<path d="M10.0001 15.9C13.2586 15.9 15.9001 13.2585 15.9001 9.99998C15.9001 6.7415 13.2586 4.09998 10.0001 4.09998C6.74162 4.09998 4.1001 6.7415 4.1001 9.99998C4.1001 13.2585 6.74162 15.9 10.0001 15.9Z" stroke="#1B365D" stroke-width="0.5" stroke-miterlimit="10" stroke-linejoin="round"/>
<path d="M15.9003 15.6L14.8003 14.5" stroke="#1B365D" stroke-miterlimit="10" stroke-linecap="round" stroke-linejoin="round"/>
<path d="M13.5998 9.19998C14.0416 9.19998 14.3998 8.8418 14.3998 8.39998C14.3998 7.95815 14.0416 7.59998 13.5998 7.59998C13.158 7.59998 12.7998 7.95815 12.7998 8.39998C12.7998 8.8418 13.158 9.19998 13.5998 9.19998Z" fill="#4285F4"/>
<path d="M6.69971 11L8.39971 9.59998" stroke="#1B365D" stroke-width="0.5" stroke-miterlimit="10" stroke-linejoin="round"/>
<path d="M9.3999 9.49994L10.6999 10.8999" stroke="#1B365D" stroke-width="0.5" stroke-miterlimit="10" stroke-linejoin="round"/>
<path d="M11.5996 10.7L13.3996 8.69995" stroke="#1B365D" stroke-width="0.5" stroke-miterlimit="10" stroke-linejoin="round"/>
<path d="M6.1999 12.1C6.64173 12.1 6.9999 11.7418 6.9999 11.3C6.9999 10.8582 6.64173 10.5 6.1999 10.5C5.75807 10.5 5.3999 10.8582 5.3999 11.3C5.3999 11.7418 5.75807 12.1 6.1999 12.1Z" fill="#1B365D"/>
<path d="M8.8999 10C9.45219 10 9.8999 9.55228 9.8999 9C9.8999 8.44772 9.45219 8 8.8999 8C8.34762 8 7.8999 8.44772 7.8999 9C7.8999 9.55228 8.34762 10 8.8999 10Z" fill="#1B365D"/>
<path d="M11.1997 12.4C11.752 12.4 12.1997 11.9522 12.1997 11.4C12.1997 10.8477 11.752 10.4 11.1997 10.4C10.6474 10.4 10.1997 10.8477 10.1997 11.4C10.1997 11.9522 10.6474 12.4 11.1997 12.4Z" fill="#1B365D"/>
<path d="M13.5998 9.19998C14.0416 9.19998 14.3998 8.8418 14.3998 8.39998C14.3998 7.95815 14.0416 7.59998 13.5998 7.59998C13.158 7.59998 12.7998 7.95815 12.7998 8.39998C12.7998 8.8418 13.158 9.19998 13.5998 9.19998Z" fill="#1B365D"/>
</svg>
