<svg width="20" height="20" viewBox="0 0 20 20" fill="none" xmlns="http://www.w3.org/2000/svg">
<path d="M10 0.5C15.2 0.5 19.5 4.8 19.5 10C19.5 15.2 15.2 19.5 10 19.5C4.8 19.5 0.5 15.2 0.5 10C0.5 4.8 4.8 0.5 10 0.5ZM10 0C4.5 0 0 4.5 0 10C0 15.5 4.5 20 10 20C15.5 20 20 15.5 20 10C20 4.5 15.5 0 10 0Z" fill="#1B365D"/>
<path d="M7.5001 8.69999H6.9001L6.7001 8.09999H5.5001L5.3001 8.69999H4.6001L5.7001 5.79999H6.3001L7.5001 8.69999ZM6.5001 7.59999L6.1001 6.49999L5.7001 7.59999H6.5001Z" fill="#1B365D"/>
<path d="M9.8002 8.69996H9.3002V8.39996C9.2002 8.49996 9.1002 8.59996 9.0002 8.69996C8.8002 8.79996 8.7002 8.79996 8.6002 8.79996C8.4002 8.79996 8.2002 8.69996 8.0002 8.49996C7.8002 8.29996 7.7002 7.99996 7.7002 7.69996C7.7002 7.29996 7.8002 7.09996 8.0002 6.89996C8.2002 6.69996 8.4002 6.59996 8.6002 6.59996C8.8002 6.59996 9.0002 6.69996 9.2002 6.89996V5.89996H9.8002V8.69996ZM8.3002 7.59996C8.3002 7.79996 8.3002 7.99996 8.4002 8.09996C8.5002 8.19996 8.6002 8.29996 8.8002 8.29996C8.9002 8.29996 9.0002 8.19996 9.1002 8.09996C9.2002 7.99996 9.2002 7.79996 9.2002 7.59996C9.2002 7.39996 9.2002 7.19996 9.1002 7.09996C9.0002 7.09996 8.9002 6.99996 8.8002 6.99996C8.6002 6.99996 8.5002 7.09996 8.4002 7.19996C8.3002 7.29996 8.3002 7.39996 8.3002 7.59996Z" fill="#1B365D"/>
<path d="M11.2002 8.20001C11.4763 8.20001 11.7002 7.97615 11.7002 7.70001C11.7002 7.42387 11.4763 7.20001 11.2002 7.20001C10.9241 7.20001 10.7002 7.42387 10.7002 7.70001C10.7002 7.97615 10.9241 8.20001 11.2002 8.20001Z" fill="#1B365D"/>
<path d="M8.3 9.79998H3.9C3.7 9.79998 3.5 9.59998 3.5 9.39998V4.99998C3.5 4.79998 3.7 4.59998 3.9 4.59998H16.2V11.1" stroke="#1B365D" stroke-width="0.5" stroke-miterlimit="10" stroke-linecap="round" stroke-linejoin="round"/>
<path d="M8.3002 16.4H5.0002C4.8002 16.4 4.7002 16.3 4.7002 16.1V11.4" stroke="#1B365D" stroke-width="0.5" stroke-miterlimit="10" stroke-linecap="round" stroke-linejoin="round"/>
<path d="M12.8999 7.69995H14.6999" stroke="#1B365D" stroke-width="0.5" stroke-miterlimit="10" stroke-linecap="round" stroke-linejoin="round"/>
<path d="M16.2999 12.2H12.2999V13.8H14.5999C14.5999 14.2 14.2999 14.8 13.6999 15.2C13.2999 15.4 12.8999 15.6 12.1999 15.6C11.0999 15.6 10.0999 14.9 9.7999 13.8C9.6999 13.5 9.6999 13.3 9.6999 13C9.6999 12.7 9.7999 12.4 9.7999 12.2C10.0999 11.2 11.0999 10.4 12.1999 10.4C12.9999 10.4 13.4999 10.7 13.7999 11L14.9999 9.80001C14.2999 9.10001 13.2999 8.70001 12.1999 8.70001C10.4999 8.70001 9.0999 9.70001 8.3999 11C8.0999 11.6 7.8999 12.2 7.8999 12.9C7.8999 13.6 8.0999 14.2 8.3999 14.8C9.0999 16.2 10.4999 17.1 12.1999 17.1C13.2999 17.1 14.2999 16.7 14.9999 16.1C15.7999 15.4 16.2999 14.3 16.2999 13C16.3999 12.7 16.2999 12.4 16.2999 12.2Z" fill="#1B365D"/>
</svg>
