<svg width="26" height="22" viewBox="0 0 26 22" fill="none" xmlns="http://www.w3.org/2000/svg">
<path d="M24.0186 11C23.3343 11 22.7463 11.4099 22.5004 11.9986H16.6414C16.3741 10.3956 15.0911 9.129 13.4553 8.86622V3.10607C14.0487 2.86431 14.471 2.28619 14.471 1.61347C14.471 0.725275 13.7387 0 12.8299 0C11.9211 0 11.1887 0.725275 11.1887 1.61347C11.1887 2.28619 11.6057 2.86431 12.2044 3.10607V8.86622C10.574 9.129 9.28563 10.3903 9.01834 11.9986H3.15936C2.91345 11.4152 2.32542 11 1.64116 11C0.737718 11 0 11.72 0 12.6135C0 13.5069 0.737718 14.2269 1.64116 14.2269C2.32542 14.2269 2.91345 13.817 3.15936 13.2284H9.01834C9.11456 13.817 9.34978 14.3583 9.69191 14.8261L5.54892 18.8992C5.35648 18.8204 5.14264 18.7731 4.91812 18.7731C4.00934 18.7731 3.27697 19.4983 3.27697 20.3865C3.27697 21.28 4.01468 22 4.91812 22C5.8269 22 6.55928 21.2747 6.55928 20.3865C6.55928 20.1658 6.51651 19.9608 6.43098 19.7664L10.574 15.6933C11.2101 16.14 11.9852 16.408 12.8245 16.408C14.749 16.408 16.3367 15.0311 16.6361 13.2231H22.4951C22.741 13.8065 23.329 14.2217 24.0133 14.2217C24.922 14.2217 25.6544 13.4964 25.6544 12.6082C25.6598 11.72 24.922 11 24.0186 11Z" fill="#1F2A44"/>
</svg>
