<svg xmlns="http://www.w3.org/2000/svg" width="21" height="35" viewBox="0 0 21 35">
    <g fill="none" fill-rule="evenodd">
        <path fill="#FBE122" d="M15.046 9.49c-2.282 0-4.131-1.838-4.131-4.104s1.85-4.104 4.13-4.104c2.283 0 4.132 1.838 4.132 4.104s-1.85 4.104-4.131 4.104m0-9.442c-2.968 0-5.374 2.39-5.374 5.338s2.406 5.338 5.374 5.338c2.968 0 5.374-2.39 5.374-5.338S18.014.048 15.046.048"/>
        <path fill="#FBE122" d="M15.046 2.506a2.89 2.89 0 0 0-2.9 2.88 2.89 2.89 0 0 0 2.9 2.88 2.89 2.89 0 0 0 2.9-2.88 2.89 2.89 0 0 0-2.9-2.88"/>
        <path fill="#1F2A44" d="M12.194 13.738c-.82 0-1.55.514-1.82 1.282L7.24 23.8l-3.422-8.88a1.85 1.85 0 0 0-1.729-1.182H0l5.852 13.946-.544 1.52a4.419 4.419 0 0 1-3.567 2.759.638.638 0 0 0-.553.611v1.737c0 .068.057.124.125.122 2.832-.05 5.483-1.771 6.569-4.552l6.244-16.143h-1.932z"/>
    </g>
</svg>
