<svg width="26" height="25" viewBox="0 0 26 25" fill="none" xmlns="http://www.w3.org/2000/svg">
<path d="M24.2167 0H4.0673C3.27094 0 2.62958 0.625 2.62958 1.40104V7.13542H1.30945C0.58257 7.13542 0 7.70833 0 8.41146V23.724C0 24.4323 0.58257 25 1.30945 25H19.6417C20.3686 25 20.9511 24.4323 20.9511 23.724V19.6354H24.2167C25.0131 19.6354 25.6545 19.0052 25.6545 18.2292V1.40104C25.6545 0.625 25.0131 0 24.2167 0ZM19.9463 1.49479C20.4808 1.49479 20.9084 1.91667 20.9084 2.42708C20.9084 2.94271 20.4808 3.36458 19.9463 3.36458C19.4172 3.36458 18.9843 2.94271 18.9843 2.42708C18.9896 1.91667 19.4172 1.49479 19.9463 1.49479ZM16.7235 1.49479C17.258 1.49479 17.6855 1.91667 17.6855 2.42708C17.6855 2.94271 17.258 3.36458 16.7235 3.36458C16.1944 3.36458 15.7615 2.94271 15.7615 2.42708C15.7615 1.91667 16.1944 1.49479 16.7235 1.49479ZM19.0538 22.9896H1.89202V11.901H19.0538V22.9896ZM11.9507 9.34896C11.9507 8.88021 12.3462 8.5 12.8219 8.5C13.3083 8.5 13.6931 8.88542 13.6931 9.34896C13.6931 9.81771 13.3029 10.1979 12.8219 10.1979C12.3462 10.1979 11.9507 9.81771 11.9507 9.34896ZM14.8849 9.34896C14.8849 8.88021 15.2751 8.5 15.7561 8.5C16.2425 8.5 16.6273 8.88542 16.6273 9.34896C16.6273 9.81771 16.2371 10.1979 15.7561 10.1979C15.2751 10.1979 14.8849 9.81771 14.8849 9.34896ZM18.6903 10.1979C18.2093 10.1979 17.8192 9.81771 17.8192 9.34896C17.8192 8.88021 18.2147 8.5 18.6903 8.5C19.1767 8.5 19.5615 8.88542 19.5615 9.34896C19.5615 9.81771 19.1714 10.1979 18.6903 10.1979ZM23.57 17.4219H20.9511V8.41146C20.9511 7.70312 20.3686 7.13542 19.6417 7.13542H4.70866V5.23438H23.57V17.4219ZM23.1692 3.36458C22.6401 3.36458 22.2071 2.94271 22.2071 2.42708C22.2071 1.91146 22.6401 1.49479 23.1692 1.49479C23.7036 1.49479 24.1312 1.91667 24.1312 2.42708C24.1312 2.94271 23.7036 3.36458 23.1692 3.36458Z" fill="#1F2A44"/>
</svg>
