<svg xmlns="http://www.w3.org/2000/svg" xmlns:xlink="http://www.w3.org/1999/xlink" width="114" height="48" viewBox="0 0 114 48">
    <defs>
        <path id="a" d="M.086.058h14.705v14.84H.086z"/>
    </defs>
    <g fill="none" fill-rule="evenodd">
        <g transform="translate(99.25 .086)">
            <mask id="b" fill="#fff">
                <use xlink:href="#a"/>
            </mask>
            <path fill="#F9E01A" d="M7.438 13.182c-3.121 0-5.652-2.554-5.652-5.704s2.53-5.704 5.652-5.704c3.122 0 5.652 2.554 5.652 5.704s-2.53 5.704-5.652 5.704m0-13.124C3.378.058.086 3.38.086 7.478s3.292 7.42 7.352 7.42c4.061 0 7.353-3.322 7.353-7.42S11.499.058 7.438.058" mask="url(#b)"/>
        </g>
        <path fill="#F9E01A" d="M106.688 3.56c-2.191 0-3.967 1.793-3.967 4.004 0 2.211 1.776 4.004 3.967 4.004s3.968-1.793 3.968-4.004c0-2.211-1.777-4.004-3.968-4.004"/>
        <path fill="#1E2943" d="M85.177 32.2l4.02-12.515a.837.837 0 0 1 .795-.584h2.455c.363 0 .685.237.796.586L97.228 32.2l3.246-11.188a2.538 2.538 0 0 1 2.433-1.839h2.522l-5.532 17.37a2.537 2.537 0 0 1-2.412 1.775h-1.497a.7.7 0 0 1-.665-.486l-4.085-12.505-4.05 12.504a.7.7 0 0 1-.665.487h-1.502a2.537 2.537 0 0 1-2.41-1.767l-5.6-17.378h2.426c1.12 0 2.108.743 2.429 1.827l3.31 11.2zM66.498 22.592c-3.459 0-5.67 2.735-5.67 6.082 0 3.382 2.39 6.153 5.741 6.153 3.495 0 5.705-2.735 5.705-6.081 0-3.383-2.389-6.154-5.776-6.154m0 16.013c-5.74 0-9.984-4.426-9.984-9.86 0-5.47 4.28-9.968 10.055-9.968 5.777 0 10.02 4.427 10.02 9.897 0 5.433-4.279 9.931-10.09 9.931M41.07 38.174V14.459c0-1.411 1.132-2.555 2.53-2.555h1.783V35.62c0 1.411-1.133 2.555-2.53 2.555h-1.784zM49.207 38.174V14.459c0-1.411 1.133-2.555 2.531-2.555h1.784V35.62c0 1.411-1.134 2.555-2.531 2.555h-1.784zM33.634 27.342c-.285-2.807-1.925-5.002-4.778-5.002-2.638 0-4.492 2.051-4.884 5.002h9.662zm-4.207 7.7c1.432 0 2.584-.366 3.646-1.066a2.498 2.498 0 0 1 3.046.226l.938.84c-1.782 2.16-4.243 3.564-7.701 3.564-5.456 0-9.663-3.995-9.663-9.897 0-5.47 3.815-9.932 9.199-9.932 5.99 0 9.021 4.75 9.021 10.256 0 .191-.008.373-.02.56a.671.671 0 0 1-.668.628H24.007c.5 3.095 2.639 4.822 5.42 4.822zM16.682 19.173c-1.12 0-2.119.715-2.489 1.783l-4.29 12.205-4.68-12.345a2.534 2.534 0 0 0-2.366-1.643H0L8.006 38.56l-.743 2.114a6.062 6.062 0 0 1-4.88 3.835.881.881 0 0 0-.757.85v2.414a.17.17 0 0 0 .17.17 9.827 9.827 0 0 0 8.987-6.328l8.542-22.44h-2.643z"/>
    </g>
</svg>
