<svg width="193" height="180" viewBox="0 0 193 180" fill="none" xmlns="http://www.w3.org/2000/svg">
<mask id="mask0" mask-type="alpha" maskUnits="userSpaceOnUse" x="0" y="0" width="174" height="168">
<path d="M107.308 3.83081C134.981 6.50792 157.836 26.5152 164.065 53.5145L172.254 89.0063C182.145 131.883 146.948 171.805 103.002 167.554L66.6246 164.034C38.9518 161.357 16.0961 141.35 9.86719 114.351L1.67905 78.8589C-8.21285 35.9821 26.9847 -3.9398 70.9309 0.311638L107.308 3.83081Z" fill="#C4C4C4"/>
</mask>
<g mask="url(#mask0)">
<path d="M-43.7578 48.3465C-30.0531 48.3465 -26.4807 42.516 -12.2217 42.3318C1.48297 42.3318 5.05543 48.1623 19.3144 48.3465C33.0191 48.3465 36.5915 42.516 50.8506 42.3318C64.5552 42.3318 68.1277 48.1623 82.3867 48.3465C96.0913 48.3465 99.6638 42.516 113.923 42.3318C127.627 42.3318 131.2 48.1623 145.459 48.3465C159.164 48.3465 162.736 42.516 176.995 42.3318C190.7 42.3318 194.272 48.1623 208.531 48.3465M-43.7578 45.3642C-30.0531 45.3642 -26.4807 39.5337 -12.2217 39.3495C1.48297 39.3495 5.05543 45.18 19.3144 45.3642C33.0191 45.3642 36.5915 39.5337 50.8506 39.3495C64.5552 39.3495 68.1277 45.18 82.3867 45.3642C96.0913 45.3642 99.6638 39.5337 113.923 39.3495C127.627 39.3495 131.2 45.18 145.459 45.3642C159.164 45.3642 162.736 39.5337 176.995 39.3495C190.7 39.3495 194.272 45.18 208.531 45.3642M-43.7578 42.3568C-30.0531 42.3568 -26.4807 36.5264 -12.2217 36.3422C1.48297 36.3422 5.05543 42.1727 19.3144 42.3568C33.0191 42.3568 36.5915 36.5264 50.8506 36.3422C64.5552 36.3422 68.1277 42.1727 82.3867 42.3568C96.0913 42.3568 99.6638 36.5264 113.923 36.3422C127.627 36.3422 131.2 42.1727 145.459 42.3568C159.164 42.3568 162.736 36.5264 176.995 36.3422C190.7 36.3422 194.272 42.1727 208.531 42.3568M-43.7578 39.3746C-30.0531 39.3746 -26.4807 33.5441 -12.2217 33.3599C1.48297 33.3599 5.05543 39.1904 19.3144 39.3746C33.0191 39.3746 36.5915 33.5441 50.8506 33.3599C64.5552 33.3599 68.1277 39.1904 82.3867 39.3746C96.0913 39.3746 99.6638 33.5441 113.923 33.3599C127.627 33.3599 131.2 39.1904 145.459 39.3746C159.164 39.3746 162.736 33.5441 176.995 33.3599C190.7 33.3599 194.272 39.1904 208.531 39.3746M-43.7578 36.4052C-30.0531 36.4052 -26.4807 30.5748 -12.2217 30.3906C1.48297 30.3906 5.05543 36.2211 19.3144 36.4052C33.0191 36.4052 36.5915 30.5748 50.8506 30.3906C64.5552 30.3906 68.1277 36.2211 82.3867 36.4052C96.0913 36.4052 99.6638 30.5748 113.923 30.3906C127.627 30.3906 131.2 36.2211 145.459 36.4052C159.164 36.4052 162.736 30.5748 176.995 30.3906C190.7 30.3906 194.272 36.2211 208.531 36.4052M-43.7578 33.423C-30.0531 33.423 -26.4807 27.5925 -12.2217 27.4083C1.48297 27.4083 5.05543 33.2388 19.3144 33.423C33.0191 33.423 36.5915 27.5925 50.8506 27.4083C64.5552 27.4083 68.1277 33.2388 82.3867 33.423C96.0913 33.423 99.6638 27.5925 113.923 27.4083C127.627 27.4083 131.2 33.2388 145.459 33.423C159.164 33.423 162.736 27.5925 176.995 27.4083C190.7 27.4083 194.272 33.2388 208.531 33.423M-43.7578 30.4156C-30.0531 30.4156 -26.4807 24.5852 -12.2217 24.401C1.48297 24.401 5.05543 30.2315 19.3144 30.4156C33.0191 30.4156 36.5915 24.5852 50.8506 24.401C64.5552 24.401 68.1277 30.2315 82.3867 30.4156C96.0913 30.4156 99.6638 24.5852 113.923 24.401C127.627 24.401 131.2 30.2315 145.459 30.4156C159.164 30.4156 162.736 24.5852 176.995 24.401C190.7 24.401 194.272 30.2315 208.531 30.4156M-43.7578 27.4333C-30.0531 27.4333 -26.4807 21.6029 -12.2217 21.4187C1.48297 21.4187 5.05543 27.2492 19.3144 27.4333C33.0191 27.4333 36.5915 21.6029 50.8506 21.4187C64.5552 21.4187 68.1277 27.2492 82.3867 27.4333C96.0913 27.4333 99.6638 21.6029 113.923 21.4187C127.627 21.4187 131.2 27.2492 145.459 27.4333C159.164 27.4333 162.736 21.6029 176.995 21.4187C190.7 21.4187 194.272 27.2492 208.531 27.4333M-43.7578 72.2604C-30.0531 72.2604 -26.4807 66.4299 -12.2217 66.2458C1.48297 66.2458 5.05543 72.0762 19.3144 72.2604C33.0191 72.2604 36.5915 66.4299 50.8506 66.2458C64.5552 66.2458 68.1277 72.0762 82.3867 72.2604C96.0913 72.2604 99.6638 66.4299 113.923 66.2458C127.627 66.2458 131.2 72.0762 145.459 72.2604C159.164 72.2604 162.736 66.4299 176.995 66.2458C190.7 66.2458 194.272 72.0762 208.531 72.2604M-43.7578 69.2781C-30.0531 69.2781 -26.4807 63.4476 -12.2217 63.2635C1.48297 63.2635 5.05543 69.0939 19.3144 69.2781C33.0191 69.2781 36.5915 63.4476 50.8506 63.2635C64.5552 63.2635 68.1277 69.0939 82.3867 69.2781C96.0913 69.2781 99.6638 63.4476 113.923 63.2635C127.627 63.2635 131.2 69.0939 145.459 69.2781C159.164 69.2781 162.736 63.4476 176.995 63.2635C190.7 63.2635 194.272 69.0939 208.531 69.2781M-43.7578 66.2708C-30.0531 66.2708 -26.4807 60.4403 -12.2217 60.2562C1.48297 60.2562 5.05543 66.0866 19.3144 66.2708C33.0191 66.2708 36.5915 60.4403 50.8506 60.2562C64.5552 60.2562 68.1277 66.0866 82.3867 66.2708C96.0913 66.2708 99.6638 60.4403 113.923 60.2562C127.627 60.2562 131.2 66.0866 145.459 66.2708C159.164 66.2708 162.736 60.4403 176.995 60.2562C190.7 60.2562 194.272 66.0866 208.531 66.2708M-43.7578 63.2885C-30.0531 63.2885 -26.4807 57.458 -12.2217 57.2739C1.48297 57.2739 5.05543 63.1043 19.3144 63.2885C33.0191 63.2885 36.5915 57.458 50.8506 57.2739C64.5552 57.2739 68.1277 63.1043 82.3867 63.2885C96.0913 63.2885 99.6638 57.458 113.923 57.2739C127.627 57.2739 131.2 63.1043 145.459 63.2885C159.164 63.2885 162.736 57.458 176.995 57.2739C190.7 57.2739 194.272 63.1043 208.531 63.2885M-43.7578 60.3192C-30.0531 60.3192 -26.4807 54.4887 -12.2217 54.3045C1.48297 54.3045 5.05543 60.135 19.3144 60.3192C33.0191 60.3192 36.5915 54.4887 50.8506 54.3045C64.5552 54.3045 68.1277 60.135 82.3867 60.3192C96.0913 60.3192 99.6638 54.4887 113.923 54.3045C127.627 54.3045 131.2 60.135 145.459 60.3192C159.164 60.3192 162.736 54.4887 176.995 54.3045C190.7 54.3045 194.272 60.135 208.531 60.3192M-43.7578 57.3369C-30.0531 57.3369 -26.4807 51.5064 -12.2217 51.3223C1.48297 51.3223 5.05543 57.1527 19.3144 57.3369C33.0191 57.3369 36.5915 51.5064 50.8506 51.3223C64.5552 51.3223 68.1277 57.1527 82.3867 57.3369C96.0913 57.3369 99.6638 51.5064 113.923 51.3223C127.627 51.3223 131.2 57.1527 145.459 57.3369C159.164 57.3369 162.736 51.5064 176.995 51.3223C190.7 51.3223 194.272 57.1527 208.531 57.3369M-43.7578 54.3296C-30.0531 54.3296 -26.4807 48.4991 -12.2217 48.3149C1.48297 48.3149 5.05543 54.1454 19.3144 54.3296C33.0191 54.3296 36.5915 48.4991 50.8506 48.3149C64.5552 48.3149 68.1277 54.1454 82.3867 54.3296C96.0913 54.3296 99.6638 48.4991 113.923 48.3149C127.627 48.3149 131.2 54.1454 145.459 54.3296C159.164 54.3296 162.736 48.4991 176.995 48.3149C190.7 48.3149 194.272 54.1454 208.531 54.3296M-43.7578 51.3473C-30.0531 51.3473 -26.4807 45.5168 -12.2217 45.3327C1.48297 45.3327 5.05543 51.1631 19.3144 51.3473C33.0191 51.3473 36.5915 45.5168 50.8506 45.3327C64.5552 45.3327 68.1277 51.1631 82.3867 51.3473C96.0913 51.3473 99.6638 45.5168 113.923 45.3327C127.627 45.3327 131.2 51.1631 145.459 51.3473C159.164 51.3473 162.736 45.5168 176.995 45.3327C190.7 45.3327 194.272 51.1631 208.531 51.3473M-43.4133 95.8796C-29.7086 95.8796 -26.1362 90.0492 -11.8772 89.865C1.82749 89.865 5.39994 95.6955 19.6589 95.8796C33.3636 95.8796 36.9361 90.0492 51.1951 89.865C64.8997 89.865 68.4722 95.6955 82.7312 95.8796C96.4359 95.8796 100.008 90.0492 114.267 89.865C127.972 89.865 131.544 95.6955 145.803 95.8796C159.508 95.8796 163.081 90.0492 177.34 89.865C191.044 89.865 194.617 95.6955 208.876 95.8796M-43.4133 92.8973C-29.7086 92.8973 -26.1362 87.0669 -11.8772 86.8827C1.82749 86.8827 5.39994 92.7132 19.6589 92.8973C33.3636 92.8973 36.9361 87.0669 51.1951 86.8827C64.8997 86.8827 68.4722 92.7132 82.7312 92.8973C96.4359 92.8973 100.008 87.0669 114.267 86.8827C127.972 86.8827 131.544 92.7132 145.803 92.8973C159.508 92.8973 163.081 87.0669 177.34 86.8827C191.044 86.8827 194.617 92.7132 208.876 92.8973M-43.4133 89.89C-29.7086 89.89 -26.1362 84.0596 -11.8772 83.8754C1.82749 83.8754 5.39994 89.7058 19.6589 89.89C33.3636 89.89 36.9361 84.0596 51.1951 83.8754C64.8997 83.8754 68.4722 89.7058 82.7312 89.89C96.4359 89.89 100.008 84.0596 114.267 83.8754C127.972 83.8754 131.544 89.7058 145.803 89.89C159.508 89.89 163.081 84.0596 177.34 83.8754C191.044 83.8754 194.617 89.7058 208.876 89.89M-43.4133 86.9077C-29.7086 86.9077 -26.1362 81.0773 -11.8772 80.8931C1.82749 80.8931 5.39994 86.7236 19.6589 86.9077C33.3636 86.9077 36.9361 81.0773 51.1951 80.8931C64.8997 80.8931 68.4722 86.7236 82.7312 86.9077C96.4359 86.9077 100.008 81.0773 114.267 80.8931C127.972 80.8931 131.544 86.7236 145.803 86.9077C159.508 86.9077 163.081 81.0773 177.34 80.8931C191.044 80.8931 194.617 86.7236 208.876 86.9077M-43.4133 83.9384C-29.7086 83.9384 -26.1362 78.1079 -11.8772 77.9238C1.82749 77.9238 5.39994 83.7542 19.6589 83.9384C33.3636 83.9384 36.9361 78.1079 51.1951 77.9238C64.8997 77.9238 68.4722 83.7542 82.7312 83.9384C96.4359 83.9384 100.008 78.1079 114.267 77.9238C127.972 77.9238 131.544 83.7542 145.803 83.9384C159.508 83.9384 163.081 78.1079 177.34 77.9238C191.044 77.9238 194.617 83.7542 208.876 83.9384M-43.4133 80.9561C-29.7086 80.9561 -26.1362 75.1257 -11.8772 74.9415C1.82749 74.9415 5.39994 80.772 19.6589 80.9561C33.3636 80.9561 36.9361 75.1257 51.1951 74.9415C64.8997 74.9415 68.4722 80.772 82.7312 80.9561C96.4359 80.9561 100.008 75.1257 114.267 74.9415C127.972 74.9415 131.544 80.772 145.803 80.9561C159.508 80.9561 163.081 75.1257 177.34 74.9415C191.044 74.9415 194.617 80.772 208.876 80.9561M-43.4133 77.9488C-29.7086 77.9488 -26.1362 72.1183 -11.8772 71.9342C1.82749 71.9342 5.39994 77.7646 19.6589 77.9488C33.3636 77.9488 36.9361 72.1183 51.1951 71.9342C64.8997 71.9342 68.4722 77.7646 82.7312 77.9488C96.4359 77.9488 100.008 72.1183 114.267 71.9342C127.972 71.9342 131.544 77.7646 145.803 77.9488C159.508 77.9488 163.081 72.1183 177.34 71.9342C191.044 71.9342 194.617 77.7646 208.876 77.9488M-43.4133 74.9665C-29.7086 74.9665 -26.1362 69.1361 -11.8772 68.9519C1.82749 68.9519 5.39994 74.7823 19.6589 74.9665C33.3636 74.9665 36.9361 69.1361 51.1951 68.9519C64.8997 68.9519 68.4722 74.7823 82.7312 74.9665C96.4359 74.9665 100.008 69.1361 114.267 68.9519C127.972 68.9519 131.544 74.7823 145.803 74.9665C159.508 74.9665 163.081 69.1361 177.34 68.9519C191.044 68.9519 194.617 74.7823 208.876 74.9665M-43.4133 119.794C-29.7086 119.794 -26.1362 113.963 -11.8772 113.779C1.82749 113.779 5.39994 119.609 19.6589 119.794C33.3636 119.794 36.9361 113.963 51.1951 113.779C64.8997 113.779 68.4722 119.609 82.7312 119.794C96.4359 119.794 100.008 113.963 114.267 113.779C127.972 113.779 131.544 119.609 145.803 119.794C159.508 119.794 163.081 113.963 177.34 113.779C191.044 113.779 194.617 119.609 208.876 119.794M-43.4133 116.811C-29.7086 116.811 -26.1362 110.981 -11.8772 110.797C1.82749 110.797 5.39994 116.627 19.6589 116.811C33.3636 116.811 36.9361 110.981 51.1951 110.797C64.8997 110.797 68.4722 116.627 82.7312 116.811C96.4359 116.811 100.008 110.981 114.267 110.797C127.972 110.797 131.544 116.627 145.803 116.811C159.508 116.811 163.081 110.981 177.34 110.797C191.044 110.797 194.617 116.627 208.876 116.811M-43.4133 113.804C-29.7086 113.804 -26.1362 107.974 -11.8772 107.789C1.82749 107.789 5.39994 113.62 19.6589 113.804C33.3636 113.804 36.9361 107.974 51.1951 107.789C64.8997 107.789 68.4722 113.62 82.7312 113.804C96.4359 113.804 100.008 107.974 114.267 107.789C127.972 107.789 131.544 113.62 145.803 113.804C159.508 113.804 163.081 107.974 177.34 107.789C191.044 107.789 194.617 113.62 208.876 113.804M-43.4133 110.822C-29.7086 110.822 -26.1362 104.991 -11.8772 104.807C1.82749 104.807 5.39994 110.638 19.6589 110.822C33.3636 110.822 36.9361 104.991 51.1951 104.807C64.8997 104.807 68.4722 110.638 82.7312 110.822C96.4359 110.822 100.008 104.991 114.267 104.807C127.972 104.807 131.544 110.638 145.803 110.822C159.508 110.822 163.081 104.991 177.34 104.807C191.044 104.807 194.617 110.638 208.876 110.822M-43.4133 107.852C-29.7086 107.852 -26.1362 102.022 -11.8772 101.838C1.82749 101.838 5.39994 107.668 19.6589 107.852C33.3636 107.852 36.9361 102.022 51.1951 101.838C64.8997 101.838 68.4722 107.668 82.7312 107.852C96.4359 107.852 100.008 102.022 114.267 101.838C127.972 101.838 131.544 107.668 145.803 107.852C159.508 107.852 163.081 102.022 177.34 101.838C191.044 101.838 194.617 107.668 208.876 107.852M-43.4133 104.87C-29.7086 104.87 -26.1362 99.0396 -11.8772 98.8554C1.82749 98.8554 5.39994 104.686 19.6589 104.87C33.3636 104.87 36.9361 99.0396 51.1951 98.8554C64.8997 98.8554 68.4722 104.686 82.7312 104.87C96.4359 104.87 100.008 99.0396 114.267 98.8554C127.972 98.8554 131.544 104.686 145.803 104.87C159.508 104.87 163.081 99.0396 177.34 98.8554C191.044 98.8554 194.617 104.686 208.876 104.87M-43.4133 101.863C-29.7086 101.863 -26.1362 96.0323 -11.8772 95.8481C1.82749 95.8481 5.39994 101.679 19.6589 101.863C33.3636 101.863 36.9361 96.0323 51.1951 95.8481C64.8997 95.8481 68.4722 101.679 82.7312 101.863C96.4359 101.863 100.008 96.0323 114.267 95.8481C127.972 95.8481 131.544 101.679 145.803 101.863C159.508 101.863 163.081 96.0323 177.34 95.8481C191.044 95.8481 194.617 101.679 208.876 101.863M-43.4133 98.8805C-29.7086 98.8805 -26.1362 93.05 -11.8772 92.8658C1.82749 92.8658 5.39994 98.6963 19.6589 98.8805C33.3636 98.8805 36.9361 93.05 51.1951 92.8658C64.8997 92.8658 68.4722 98.6963 82.7312 98.8805C96.4359 98.8805 100.008 93.05 114.267 92.8658C127.972 92.8658 131.544 98.6963 145.803 98.8805C159.508 98.8805 163.081 93.05 177.34 92.8658C191.044 92.8658 194.617 98.6963 208.876 98.8805M-43.6369 -46.5945C-29.9322 -46.5945 -26.3597 -52.4249 -12.1007 -52.6091C1.60393 -52.6091 5.17638 -46.7786 19.4354 -46.5945C33.14 -46.5945 36.7125 -52.4249 50.9715 -52.6091C64.6762 -52.6091 68.2486 -46.7786 82.5076 -46.5945C96.2123 -46.5945 99.7847 -52.4249 114.044 -52.6091C127.748 -52.6091 131.321 -46.7786 145.58 -46.5945C159.285 -46.5945 162.857 -52.4249 177.116 -52.6091C190.821 -52.6091 194.393 -46.7786 208.652 -46.5945M-43.6369 -49.5768C-29.9322 -49.5768 -26.3597 -55.4072 -12.1007 -55.5914C1.60393 -55.5914 5.17638 -49.7609 19.4354 -49.5768C33.14 -49.5768 36.7125 -55.4072 50.9715 -55.5914C64.6762 -55.5914 68.2486 -49.7609 82.5076 -49.5768C96.2123 -49.5768 99.7847 -55.4072 114.044 -55.5914C127.748 -55.5914 131.321 -49.7609 145.58 -49.5768C159.285 -49.5768 162.857 -55.4072 177.116 -55.5914C190.821 -55.5914 194.393 -49.7609 208.652 -49.5768M-43.6369 -52.5841C-29.9322 -52.5841 -26.3597 -58.4145 -12.1007 -58.5987C1.60393 -58.5987 5.17638 -52.7682 19.4354 -52.5841C33.14 -52.5841 36.7125 -58.4145 50.9715 -58.5987C64.6762 -58.5987 68.2486 -52.7682 82.5076 -52.5841C96.2123 -52.5841 99.7847 -58.4145 114.044 -58.5987C127.748 -58.5987 131.321 -52.7682 145.58 -52.5841C159.285 -52.5841 162.857 -58.4145 177.116 -58.5987C190.821 -58.5987 194.393 -52.7682 208.652 -52.5841M-43.6369 -55.5664C-29.9322 -55.5664 -26.3597 -61.3968 -12.1007 -61.581C1.60393 -61.581 5.17638 -55.7505 19.4354 -55.5664C33.14 -55.5664 36.7125 -61.3968 50.9715 -61.581C64.6762 -61.581 68.2486 -55.7505 82.5076 -55.5664C96.2123 -55.5664 99.7847 -61.3968 114.044 -61.581C127.748 -61.581 131.321 -55.7505 145.58 -55.5664C159.285 -55.5664 162.857 -61.3968 177.116 -61.581C190.821 -61.581 194.393 -55.7505 208.652 -55.5664M-43.6369 -58.5357C-29.9322 -58.5357 -26.3597 -64.3662 -12.1007 -64.5503C1.60393 -64.5503 5.17638 -58.7199 19.4354 -58.5357C33.14 -58.5357 36.7125 -64.3662 50.9715 -64.5503C64.6762 -64.5503 68.2486 -58.7199 82.5076 -58.5357C96.2123 -58.5357 99.7847 -64.3662 114.044 -64.5503C127.748 -64.5503 131.321 -58.7199 145.58 -58.5357C159.285 -58.5357 162.857 -64.3662 177.116 -64.5503C190.821 -64.5503 194.393 -58.7199 208.652 -58.5357M-43.6369 -61.518C-29.9322 -61.518 -26.3597 -67.3484 -12.1007 -67.5326C1.60393 -67.5326 5.17638 -61.7021 19.4354 -61.518C33.14 -61.518 36.7125 -67.3484 50.9715 -67.5326C64.6762 -67.5326 68.2486 -61.7021 82.5076 -61.518C96.2123 -61.518 99.7847 -67.3484 114.044 -67.5326C127.748 -67.5326 131.321 -61.7021 145.58 -61.518C159.285 -61.518 162.857 -67.3484 177.116 -67.5326C190.821 -67.5326 194.393 -61.7021 208.652 -61.518M-43.6369 -64.5253C-29.9322 -64.5253 -26.3597 -70.3558 -12.1007 -70.5399C1.60393 -70.5399 5.17638 -64.7095 19.4354 -64.5253C33.14 -64.5253 36.7125 -70.3558 50.9715 -70.5399C64.6762 -70.5399 68.2486 -64.7095 82.5076 -64.5253C96.2123 -64.5253 99.7847 -70.3558 114.044 -70.5399C127.748 -70.5399 131.321 -64.7095 145.58 -64.5253C159.285 -64.5253 162.857 -70.3558 177.116 -70.5399C190.821 -70.5399 194.393 -64.7095 208.652 -64.5253M-43.6369 -67.5076C-29.9322 -67.5076 -26.3597 -73.338 -12.1007 -73.5222C1.60393 -73.5222 5.17638 -67.6917 19.4354 -67.5076C33.14 -67.5076 36.7125 -73.338 50.9715 -73.5222C64.6762 -73.5222 68.2486 -67.6917 82.5076 -67.5076C96.2123 -67.5076 99.7847 -73.338 114.044 -73.5222C127.748 -73.5222 131.321 -67.6917 145.58 -67.5076C159.285 -67.5076 162.857 -73.338 177.116 -73.5222C190.821 -73.5222 194.393 -67.6917 208.652 -67.5076M-43.6369 -22.6805C-29.9322 -22.6805 -26.3597 -28.511 -12.1007 -28.6952C1.60393 -28.6952 5.17638 -22.8647 19.4354 -22.6805C33.14 -22.6805 36.7125 -28.511 50.9715 -28.6952C64.6762 -28.6952 68.2486 -22.8647 82.5076 -22.6805C96.2123 -22.6805 99.7847 -28.511 114.044 -28.6952C127.748 -28.6952 131.321 -22.8647 145.58 -22.6805C159.285 -22.6805 162.857 -28.511 177.116 -28.6952C190.821 -28.6952 194.393 -22.8647 208.652 -22.6805M-43.6369 -25.6628C-29.9322 -25.6628 -26.3597 -31.4933 -12.1007 -31.6774C1.60393 -31.6774 5.17638 -25.847 19.4354 -25.6628C33.14 -25.6628 36.7125 -31.4933 50.9715 -31.6774C64.6762 -31.6774 68.2486 -25.847 82.5076 -25.6628C96.2123 -25.6628 99.7847 -31.4933 114.044 -31.6774C127.748 -31.6774 131.321 -25.847 145.58 -25.6628C159.285 -25.6628 162.857 -31.4933 177.116 -31.6774C190.821 -31.6774 194.393 -25.847 208.652 -25.6628M-43.6369 -28.6701C-29.9322 -28.6701 -26.3597 -34.5006 -12.1007 -34.6848C1.60393 -34.6848 5.17638 -28.8543 19.4354 -28.6701C33.14 -28.6701 36.7125 -34.5006 50.9715 -34.6848C64.6762 -34.6848 68.2486 -28.8543 82.5076 -28.6701C96.2123 -28.6701 99.7847 -34.5006 114.044 -34.6848C127.748 -34.6848 131.321 -28.8543 145.58 -28.6701C159.285 -28.6701 162.857 -34.5006 177.116 -34.6848C190.821 -34.6848 194.393 -28.8543 208.652 -28.6701M-43.6369 -31.6524C-29.9322 -31.6524 -26.3597 -37.4829 -12.1007 -37.667C1.60393 -37.667 5.17638 -31.8366 19.4354 -31.6524C33.14 -31.6524 36.7125 -37.4829 50.9715 -37.667C64.6762 -37.667 68.2486 -31.8366 82.5076 -31.6524C96.2123 -31.6524 99.7847 -37.4829 114.044 -37.667C127.748 -37.667 131.321 -31.8366 145.58 -31.6524C159.285 -31.6524 162.857 -37.4829 177.116 -37.667C190.821 -37.667 194.393 -31.8366 208.652 -31.6524M-43.6369 -34.6217C-29.9322 -34.6217 -26.3597 -40.4522 -12.1007 -40.6364C1.60393 -40.6364 5.17638 -34.8059 19.4354 -34.6217C33.14 -34.6217 36.7125 -40.4522 50.9715 -40.6364C64.6762 -40.6364 68.2486 -34.8059 82.5076 -34.6217C96.2123 -34.6217 99.7847 -40.4522 114.044 -40.6364C127.748 -40.6364 131.321 -34.8059 145.58 -34.6217C159.285 -34.6217 162.857 -40.4522 177.116 -40.6364C190.821 -40.6364 194.393 -34.8059 208.652 -34.6217M-43.6369 -37.604C-29.9322 -37.604 -26.3597 -43.4345 -12.1007 -43.6187C1.60393 -43.6187 5.17638 -37.7882 19.4354 -37.604C33.14 -37.604 36.7125 -43.4345 50.9715 -43.6187C64.6762 -43.6187 68.2486 -37.7882 82.5076 -37.604C96.2123 -37.604 99.7847 -43.4345 114.044 -43.6187C127.748 -43.6187 131.321 -37.7882 145.58 -37.604C159.285 -37.604 162.857 -43.4345 177.116 -43.6187C190.821 -43.6187 194.393 -37.7882 208.652 -37.604M-43.6369 -40.6113C-29.9322 -40.6113 -26.3597 -46.4418 -12.1007 -46.626C1.60393 -46.626 5.17638 -40.7955 19.4354 -40.6113C33.14 -40.6113 36.7125 -46.4418 50.9715 -46.626C64.6762 -46.626 68.2486 -40.7955 82.5076 -40.6113C96.2123 -40.6113 99.7847 -46.4418 114.044 -46.626C127.748 -46.626 131.321 -40.7955 145.58 -40.6113C159.285 -40.6113 162.857 -46.4418 177.116 -46.626C190.821 -46.626 194.393 -40.7955 208.652 -40.6113M-43.6369 -43.5936C-29.9322 -43.5936 -26.3597 -49.4241 -12.1007 -49.6083C1.60393 -49.6083 5.17638 -43.7778 19.4354 -43.5936C33.14 -43.5936 36.7125 -49.4241 50.9715 -49.6083C64.6762 -49.6083 68.2486 -43.7778 82.5076 -43.5936C96.2123 -43.5936 99.7847 -49.4241 114.044 -49.6083C127.748 -49.6083 131.321 -43.7778 145.58 -43.5936C159.285 -43.5936 162.857 -49.4241 177.116 -49.6083C190.821 -49.6083 194.393 -43.7778 208.652 -43.5936M-43.2923 0.93871C-29.5877 0.93871 -26.0152 -4.89176 -11.7562 -5.07593C1.94844 -5.07593 5.5209 0.754534 19.7799 0.93871C33.4846 0.93871 37.057 -4.89176 51.316 -5.07593C65.0207 -5.07593 68.5931 0.754534 82.8521 0.93871C96.5568 0.93871 100.129 -4.89176 114.388 -5.07593C128.093 -5.07593 131.665 0.754534 145.924 0.93871C159.629 0.93871 163.202 -4.89176 177.461 -5.07593C191.165 -5.07593 194.738 0.754534 208.997 0.93871M-43.2923 -2.04358C-29.5877 -2.04358 -26.0152 -7.87404 -11.7562 -8.05822C1.94844 -8.05822 5.5209 -2.22775 19.7799 -2.04358C33.4846 -2.04358 37.057 -7.87404 51.316 -8.05822C65.0207 -8.05822 68.5931 -2.22775 82.8521 -2.04358C96.5568 -2.04358 100.129 -7.87404 114.388 -8.05822C128.093 -8.05822 131.665 -2.22775 145.924 -2.04358C159.629 -2.04358 163.202 -7.87404 177.461 -8.05822C191.165 -8.05822 194.738 -2.22775 208.997 -2.04358M-43.2923 -5.0509C-29.5877 -5.0509 -26.0152 -10.8814 -11.7562 -11.0655C1.94844 -11.0655 5.5209 -5.23507 19.7799 -5.0509C33.4846 -5.0509 37.057 -10.8814 51.316 -11.0655C65.0207 -11.0655 68.5931 -5.23507 82.8521 -5.0509C96.5568 -5.0509 100.129 -10.8814 114.388 -11.0655C128.093 -11.0655 131.665 -5.23507 145.924 -5.0509C159.629 -5.0509 163.202 -10.8814 177.461 -11.0655C191.165 -11.0655 194.738 -5.23507 208.997 -5.0509M-43.2923 -8.03318C-29.5877 -8.03318 -26.0152 -13.8637 -11.7562 -14.0478C1.94844 -14.0478 5.5209 -8.21736 19.7799 -8.03318C33.4846 -8.03318 37.057 -13.8637 51.316 -14.0478C65.0207 -14.0478 68.5931 -8.21736 82.8521 -8.03318C96.5568 -8.03318 100.129 -13.8637 114.388 -14.0478C128.093 -14.0478 131.665 -8.21736 145.924 -8.03318C159.629 -8.03318 163.202 -13.8637 177.461 -14.0478C191.165 -14.0478 194.738 -8.21736 208.997 -8.03318M-43.2923 -11.0025C-29.5877 -11.0025 -26.0152 -16.833 -11.7562 -17.0171C1.94844 -17.0171 5.5209 -11.1867 19.7799 -11.0025C33.4846 -11.0025 37.057 -16.833 51.316 -17.0171C65.0207 -17.0171 68.5931 -11.1867 82.8521 -11.0025C96.5568 -11.0025 100.129 -16.833 114.388 -17.0171C128.093 -17.0171 131.665 -11.1867 145.924 -11.0025C159.629 -11.0025 163.202 -16.833 177.461 -17.0171C191.165 -17.0171 194.738 -11.1867 208.997 -11.0025M-43.2923 -13.9848C-29.5877 -13.9848 -26.0152 -19.8153 -11.7562 -19.9994C1.94844 -19.9994 5.5209 -14.169 19.7799 -13.9848C33.4846 -13.9848 37.057 -19.8153 51.316 -19.9994C65.0207 -19.9994 68.5931 -14.169 82.8521 -13.9848C96.5568 -13.9848 100.129 -19.8153 114.388 -19.9994C128.093 -19.9994 131.665 -14.169 145.924 -13.9848C159.629 -13.9848 163.202 -19.8153 177.461 -19.9994C191.165 -19.9994 194.738 -14.169 208.997 -13.9848M-43.2923 -16.9921C-29.5877 -16.9921 -26.0152 -22.8226 -11.7562 -23.0068C1.94844 -23.0068 5.5209 -17.1763 19.7799 -16.9921C33.4846 -16.9921 37.057 -22.8226 51.316 -23.0068C65.0207 -23.0068 68.5931 -17.1763 82.8521 -16.9921C96.5568 -16.9921 100.129 -22.8226 114.388 -23.0068C128.093 -23.0068 131.665 -17.1763 145.924 -16.9921C159.629 -16.9921 163.202 -22.8226 177.461 -23.0068C191.165 -23.0068 194.738 -17.1763 208.997 -16.9921M-43.2923 -19.9744C-29.5877 -19.9744 -26.0152 -25.8049 -11.7562 -25.989C1.94844 -25.989 5.5209 -20.1586 19.7799 -19.9744C33.4846 -19.9744 37.057 -25.8049 51.316 -25.989C65.0207 -25.989 68.5931 -20.1586 82.8521 -19.9744C96.5568 -19.9744 100.129 -25.8049 114.388 -25.989C128.093 -25.989 131.665 -20.1586 145.924 -19.9744C159.629 -19.9744 163.202 -25.8049 177.461 -25.989C191.165 -25.989 194.738 -20.1586 208.997 -19.9744M-43.2923 24.8527C-29.5877 24.8527 -26.0152 19.0222 -11.7562 18.838C1.94844 18.838 5.5209 24.6685 19.7799 24.8527C33.4846 24.8527 37.057 19.0222 51.316 18.838C65.0207 18.838 68.5931 24.6685 82.8521 24.8527C96.5568 24.8527 100.129 19.0222 114.388 18.838C128.093 18.838 131.665 24.6685 145.924 24.8527C159.629 24.8527 163.202 19.0222 177.461 18.838C191.165 18.838 194.738 24.6685 208.997 24.8527M-43.2923 21.8704C-29.5877 21.8704 -26.0152 16.0399 -11.7562 15.8557C1.94844 15.8557 5.5209 21.6862 19.7799 21.8704C33.4846 21.8704 37.057 16.0399 51.316 15.8557C65.0207 15.8557 68.5931 21.6862 82.8521 21.8704C96.5568 21.8704 100.129 16.0399 114.388 15.8557C128.093 15.8557 131.665 21.6862 145.924 21.8704C159.629 21.8704 163.202 16.0399 177.461 15.8557C191.165 15.8557 194.738 21.6862 208.997 21.8704M-43.2923 18.8631C-29.5877 18.8631 -26.0152 13.0326 -11.7562 12.8484C1.94844 12.8484 5.5209 18.6789 19.7799 18.8631C33.4846 18.8631 37.057 13.0326 51.316 12.8484C65.0207 12.8484 68.5931 18.6789 82.8521 18.8631C96.5568 18.8631 100.129 13.0326 114.388 12.8484C128.093 12.8484 131.665 18.6789 145.924 18.8631C159.629 18.8631 163.202 13.0326 177.461 12.8484C191.165 12.8484 194.738 18.6789 208.997 18.8631M-43.2923 15.8808C-29.5877 15.8808 -26.0152 10.0503 -11.7562 9.86613C1.94844 9.86613 5.5209 15.6966 19.7799 15.8808C33.4846 15.8808 37.057 10.0503 51.316 9.86613C65.0207 9.86613 68.5931 15.6966 82.8521 15.8808C96.5568 15.8808 100.129 10.0503 114.388 9.86613C128.093 9.86613 131.665 15.6966 145.924 15.8808C159.629 15.8808 163.202 10.0503 177.461 9.86613C191.165 9.86613 194.738 15.6966 208.997 15.8808M-43.2923 12.9114C-29.5877 12.9114 -26.0152 7.08098 -11.7562 6.8968C1.94844 6.8968 5.5209 12.7273 19.7799 12.9114C33.4846 12.9114 37.057 7.08098 51.316 6.8968C65.0207 6.8968 68.5931 12.7273 82.8521 12.9114C96.5568 12.9114 100.129 7.08098 114.388 6.8968C128.093 6.8968 131.665 12.7273 145.924 12.9114C159.629 12.9114 163.202 7.08098 177.461 6.8968C191.165 6.8968 194.738 12.7273 208.997 12.9114M-43.2923 9.92916C-29.5877 9.92916 -26.0152 4.09869 -11.7562 3.91451C1.94844 3.91451 5.5209 9.74498 19.7799 9.92916C33.4846 9.92916 37.057 4.09869 51.316 3.91451C65.0207 3.91451 68.5931 9.74498 82.8521 9.92916C96.5568 9.92916 100.129 4.09869 114.388 3.91451C128.093 3.91451 131.665 9.74498 145.924 9.92916C159.629 9.92916 163.202 4.09869 177.461 3.91451C191.165 3.91451 194.738 9.74498 208.997 9.92916M-43.2923 6.92184C-29.5877 6.92184 -26.0152 1.09137 -11.7562 0.907195C1.94844 0.907195 5.5209 6.73766 19.7799 6.92184C33.4846 6.92184 37.057 1.09137 51.316 0.907195C65.0207 0.907195 68.5931 6.73766 82.8521 6.92184C96.5568 6.92184 100.129 1.09137 114.388 0.907195C128.093 0.907195 131.665 6.73766 145.924 6.92184C159.629 6.92184 163.202 1.09137 177.461 0.907195C191.165 0.907195 194.738 6.73766 208.997 6.92184M-43.2923 3.93955C-29.5877 3.93955 -26.0152 -1.89092 -11.7562 -2.07509C1.94844 -2.07509 5.5209 3.75537 19.7799 3.93955C33.4846 3.93955 37.057 -1.89092 51.316 -2.07509C65.0207 -2.07509 68.5931 3.75537 82.8521 3.93955C96.5568 3.93955 100.129 -1.89092 114.388 -2.07509C128.093 -2.07509 131.665 3.75537 145.924 3.93955C159.629 3.93955 163.202 -1.89092 177.461 -2.07509C191.165 -2.07509 194.738 3.75537 208.997 3.93955M-43.7578 143.638C-30.0531 143.638 -26.4807 137.807 -12.2217 137.623C1.48297 137.623 5.05543 143.454 19.3144 143.638C33.0191 143.638 36.5915 137.807 50.8506 137.623C64.5552 137.623 68.1277 143.454 82.3867 143.638C96.0913 143.638 99.6638 137.807 113.923 137.623C127.627 137.623 131.2 143.454 145.459 143.638C159.164 143.638 162.736 137.807 176.995 137.623C190.7 137.623 194.272 143.454 208.531 143.638M-43.7578 140.656C-30.0531 140.656 -26.4807 134.825 -12.2217 134.641C1.48297 134.641 5.05543 140.471 19.3144 140.656C33.0191 140.656 36.5915 134.825 50.8506 134.641C64.5552 134.641 68.1277 140.471 82.3867 140.656C96.0913 140.656 99.6638 134.825 113.923 134.641C127.627 134.641 131.2 140.471 145.459 140.656C159.164 140.656 162.736 134.825 176.995 134.641C190.7 134.641 194.272 140.471 208.531 140.656M-43.7578 137.648C-30.0531 137.648 -26.4807 131.818 -12.2217 131.634C1.48297 131.634 5.05543 137.464 19.3144 137.648C33.0191 137.648 36.5915 131.818 50.8506 131.634C64.5552 131.634 68.1277 137.464 82.3867 137.648C96.0913 137.648 99.6638 131.818 113.923 131.634C127.627 131.634 131.2 137.464 145.459 137.648C159.164 137.648 162.736 131.818 176.995 131.634C190.7 131.634 194.272 137.464 208.531 137.648M-43.7578 134.666C-30.0531 134.666 -26.4807 128.836 -12.2217 128.651C1.48297 128.651 5.05543 134.482 19.3144 134.666C33.0191 134.666 36.5915 128.836 50.8506 128.651C64.5552 128.651 68.1277 134.482 82.3867 134.666C96.0913 134.666 99.6638 128.836 113.923 128.651C127.627 128.651 131.2 134.482 145.459 134.666C159.164 134.666 162.736 128.836 176.995 128.651C190.7 128.651 194.272 134.482 208.531 134.666M-43.7578 131.697C-30.0531 131.697 -26.4807 125.866 -12.2217 125.682C1.48297 125.682 5.05543 131.513 19.3144 131.697C33.0191 131.697 36.5915 125.866 50.8506 125.682C64.5552 125.682 68.1277 131.513 82.3867 131.697C96.0913 131.697 99.6638 125.866 113.923 125.682C127.627 125.682 131.2 131.513 145.459 131.697C159.164 131.697 162.736 125.866 176.995 125.682C190.7 125.682 194.272 131.513 208.531 131.697M-43.7578 128.714C-30.0531 128.714 -26.4807 122.884 -12.2217 122.7C1.48297 122.7 5.05543 128.53 19.3144 128.714C33.0191 128.714 36.5915 122.884 50.8506 122.7C64.5552 122.7 68.1277 128.53 82.3867 128.714C96.0913 128.714 99.6638 122.884 113.923 122.7C127.627 122.7 131.2 128.53 145.459 128.714C159.164 128.714 162.736 122.884 176.995 122.7C190.7 122.7 194.272 128.53 208.531 128.714M-43.7578 125.707C-30.0531 125.707 -26.4807 119.877 -12.2217 119.692C1.48297 119.692 5.05543 125.523 19.3144 125.707C33.0191 125.707 36.5915 119.877 50.8506 119.692C64.5552 119.692 68.1277 125.523 82.3867 125.707C96.0913 125.707 99.6638 119.877 113.923 119.692C127.627 119.692 131.2 125.523 145.459 125.707C159.164 125.707 162.736 119.877 176.995 119.692C190.7 119.692 194.272 125.523 208.531 125.707M-43.7578 122.725C-30.0531 122.725 -26.4807 116.894 -12.2217 116.71C1.48297 116.71 5.05543 122.541 19.3144 122.725C33.0191 122.725 36.5915 116.894 50.8506 116.71C64.5552 116.71 68.1277 122.541 82.3867 122.725C96.0913 122.725 99.6638 116.894 113.923 116.71C127.627 116.71 131.2 122.541 145.459 122.725C159.164 122.725 162.736 116.894 176.995 116.71C190.7 116.71 194.272 122.541 208.531 122.725M-43.7578 167.552C-30.0531 167.552 -26.4807 161.721 -12.2217 161.537C1.48297 161.537 5.05543 167.368 19.3144 167.552C33.0191 167.552 36.5915 161.721 50.8506 161.537C64.5552 161.537 68.1277 167.368 82.3867 167.552C96.0913 167.552 99.6638 161.721 113.923 161.537C127.627 161.537 131.2 167.368 145.459 167.552C159.164 167.552 162.736 161.721 176.995 161.537C190.7 161.537 194.272 167.368 208.531 167.552M-43.7578 164.57C-30.0531 164.57 -26.4807 158.739 -12.2217 158.555C1.48297 158.555 5.05543 164.385 19.3144 164.57C33.0191 164.57 36.5915 158.739 50.8506 158.555C64.5552 158.555 68.1277 164.385 82.3867 164.57C96.0913 164.57 99.6638 158.739 113.923 158.555C127.627 158.555 131.2 164.385 145.459 164.57C159.164 164.57 162.736 158.739 176.995 158.555C190.7 158.555 194.272 164.385 208.531 164.57M-43.7578 161.562C-30.0531 161.562 -26.4807 155.732 -12.2217 155.548C1.48297 155.548 5.05543 161.378 19.3144 161.562C33.0191 161.562 36.5915 155.732 50.8506 155.548C64.5552 155.548 68.1277 161.378 82.3867 161.562C96.0913 161.562 99.6638 155.732 113.923 155.548C127.627 155.548 131.2 161.378 145.459 161.562C159.164 161.562 162.736 155.732 176.995 155.548C190.7 155.548 194.272 161.378 208.531 161.562M-43.7578 158.58C-30.0531 158.58 -26.4807 152.75 -12.2217 152.565C1.48297 152.565 5.05543 158.396 19.3144 158.58C33.0191 158.58 36.5915 152.75 50.8506 152.565C64.5552 152.565 68.1277 158.396 82.3867 158.58C96.0913 158.58 99.6638 152.75 113.923 152.565C127.627 152.565 131.2 158.396 145.459 158.58C159.164 158.58 162.736 152.75 176.995 152.565C190.7 152.565 194.272 158.396 208.531 158.58M-43.7578 155.611C-30.0531 155.611 -26.4807 149.78 -12.2217 149.596C1.48297 149.596 5.05543 155.426 19.3144 155.611C33.0191 155.611 36.5915 149.78 50.8506 149.596C64.5552 149.596 68.1277 155.426 82.3867 155.611C96.0913 155.611 99.6638 149.78 113.923 149.596C127.627 149.596 131.2 155.426 145.459 155.611C159.164 155.611 162.736 149.78 176.995 149.596C190.7 149.596 194.272 155.426 208.531 155.611M-43.7578 152.628C-30.0531 152.628 -26.4807 146.798 -12.2217 146.614C1.48297 146.614 5.05543 152.444 19.3144 152.628C33.0191 152.628 36.5915 146.798 50.8506 146.614C64.5552 146.614 68.1277 152.444 82.3867 152.628C96.0913 152.628 99.6638 146.798 113.923 146.614C127.627 146.614 131.2 152.444 145.459 152.628C159.164 152.628 162.736 146.798 176.995 146.614C190.7 146.614 194.272 152.444 208.531 152.628M-43.7578 149.621C-30.0531 149.621 -26.4807 143.791 -12.2217 143.606C1.48297 143.606 5.05543 149.437 19.3144 149.621C33.0191 149.621 36.5915 143.791 50.8506 143.606C64.5552 143.606 68.1277 149.437 82.3867 149.621C96.0913 149.621 99.6638 143.791 113.923 143.606C127.627 143.606 131.2 149.437 145.459 149.621C159.164 149.621 162.736 143.791 176.995 143.606C190.7 143.606 194.272 149.437 208.531 149.621M-43.7578 146.639C-30.0531 146.639 -26.4807 140.808 -12.2217 140.624C1.48297 140.624 5.05543 146.455 19.3144 146.639C33.0191 146.639 36.5915 140.808 50.8506 140.624C64.5552 140.624 68.1277 146.455 82.3867 146.639C96.0913 146.639 99.6638 140.808 113.923 140.624C127.627 140.624 131.2 146.455 145.459 146.639C159.164 146.639 162.736 140.808 176.995 140.624C190.7 140.624 194.272 146.455 208.531 146.639M-43.4133 191.171C-29.7086 191.171 -26.1362 185.341 -11.8772 185.156C1.82749 185.156 5.39994 190.987 19.6589 191.171C33.3636 191.171 36.9361 185.341 51.1951 185.156C64.8997 185.156 68.4722 190.987 82.7312 191.171C96.4359 191.171 100.008 185.341 114.267 185.156C127.972 185.156 131.544 190.987 145.803 191.171C159.508 191.171 163.081 185.341 177.34 185.156C191.044 185.156 194.617 190.987 208.876 191.171M-43.4133 188.189C-29.7086 188.189 -26.1362 182.358 -11.8772 182.174C1.82749 182.174 5.39994 188.005 19.6589 188.189C33.3636 188.189 36.9361 182.358 51.1951 182.174C64.8997 182.174 68.4722 188.005 82.7312 188.189C96.4359 188.189 100.008 182.358 114.267 182.174C127.972 182.174 131.544 188.005 145.803 188.189C159.508 188.189 163.081 182.358 177.34 182.174C191.044 182.174 194.617 188.005 208.876 188.189M-43.4133 185.182C-29.7086 185.182 -26.1362 179.351 -11.8772 179.167C1.82749 179.167 5.39994 184.997 19.6589 185.182C33.3636 185.182 36.9361 179.351 51.1951 179.167C64.8997 179.167 68.4722 184.997 82.7312 185.182C96.4359 185.182 100.008 179.351 114.267 179.167C127.972 179.167 131.544 184.997 145.803 185.182C159.508 185.182 163.081 179.351 177.34 179.167C191.044 179.167 194.617 184.997 208.876 185.182M-43.4133 182.199C-29.7086 182.199 -26.1362 176.369 -11.8772 176.185C1.82749 176.185 5.39994 182.015 19.6589 182.199C33.3636 182.199 36.9361 176.369 51.1951 176.185C64.8997 176.185 68.4722 182.015 82.7312 182.199C96.4359 182.199 100.008 176.369 114.267 176.185C127.972 176.185 131.544 182.015 145.803 182.199C159.508 182.199 163.081 176.369 177.34 176.185C191.044 176.185 194.617 182.015 208.876 182.199M-43.4133 179.23C-29.7086 179.23 -26.1362 173.399 -11.8772 173.215C1.82749 173.215 5.39994 179.046 19.6589 179.23C33.3636 179.23 36.9361 173.399 51.1951 173.215C64.8997 173.215 68.4722 179.046 82.7312 179.23C96.4359 179.23 100.008 173.399 114.267 173.215C127.972 173.215 131.544 179.046 145.803 179.23C159.508 179.23 163.081 173.399 177.34 173.215C191.044 173.215 194.617 179.046 208.876 179.23M-43.4133 176.248C-29.7086 176.248 -26.1362 170.417 -11.8772 170.233C1.82749 170.233 5.39994 176.063 19.6589 176.248C33.3636 176.248 36.9361 170.417 51.1951 170.233C64.8997 170.233 68.4722 176.063 82.7312 176.248C96.4359 176.248 100.008 170.417 114.267 170.233C127.972 170.233 131.544 176.063 145.803 176.248C159.508 176.248 163.081 170.417 177.34 170.233C191.044 170.233 194.617 176.063 208.876 176.248M-43.4133 173.24C-29.7086 173.24 -26.1362 167.41 -11.8772 167.226C1.82749 167.226 5.39994 173.056 19.6589 173.24C33.3636 173.24 36.9361 167.41 51.1951 167.226C64.8997 167.226 68.4722 173.056 82.7312 173.24C96.4359 173.24 100.008 167.41 114.267 167.226C127.972 167.226 131.544 173.056 145.803 173.24C159.508 173.24 163.081 167.41 177.34 167.226C191.044 167.226 194.617 173.056 208.876 173.24M-43.4133 170.258C-29.7086 170.258 -26.1362 164.428 -11.8772 164.243C1.82749 164.243 5.39994 170.074 19.6589 170.258C33.3636 170.258 36.9361 164.428 51.1951 164.243C64.8997 164.243 68.4722 170.074 82.7312 170.258C96.4359 170.258 100.008 164.428 114.267 164.243C127.972 164.243 131.544 170.074 145.803 170.258C159.508 170.258 163.081 164.428 177.34 164.243C191.044 164.243 194.617 170.074 208.876 170.258M-43.4133 215.085C-29.7086 215.085 -26.1362 209.255 -11.8772 209.07C1.82749 209.07 5.39994 214.901 19.6589 215.085C33.3636 215.085 36.9361 209.255 51.1951 209.07C64.8997 209.07 68.4722 214.901 82.7312 215.085C96.4359 215.085 100.008 209.255 114.267 209.07C127.972 209.07 131.544 214.901 145.803 215.085C159.508 215.085 163.081 209.255 177.34 209.07C191.044 209.07 194.617 214.901 208.876 215.085M-43.4133 212.103C-29.7086 212.103 -26.1362 206.272 -11.8772 206.088C1.82749 206.088 5.39994 211.919 19.6589 212.103C33.3636 212.103 36.9361 206.272 51.1951 206.088C64.8997 206.088 68.4722 211.919 82.7312 212.103C96.4359 212.103 100.008 206.272 114.267 206.088C127.972 206.088 131.544 211.919 145.803 212.103C159.508 212.103 163.081 206.272 177.34 206.088C191.044 206.088 194.617 211.919 208.876 212.103M-43.4133 209.095C-29.7086 209.095 -26.1362 203.265 -11.8772 203.081C1.82749 203.081 5.39994 208.911 19.6589 209.095C33.3636 209.095 36.9361 203.265 51.1951 203.081C64.8997 203.081 68.4722 208.911 82.7312 209.095C96.4359 209.095 100.008 203.265 114.267 203.081C127.972 203.081 131.544 208.911 145.803 209.095C159.508 209.095 163.081 203.265 177.34 203.081C191.044 203.081 194.617 208.911 208.876 209.095M-43.4133 206.113C-29.7086 206.113 -26.1362 200.283 -11.8772 200.099C1.82749 200.099 5.39994 205.929 19.6589 206.113C33.3636 206.113 36.9361 200.283 51.1951 200.099C64.8997 200.099 68.4722 205.929 82.7312 206.113C96.4359 206.113 100.008 200.283 114.267 200.099C127.972 200.099 131.544 205.929 145.803 206.113C159.508 206.113 163.081 200.283 177.34 200.099C191.044 200.099 194.617 205.929 208.876 206.113M-43.4133 203.144C-29.7086 203.144 -26.1362 197.313 -11.8772 197.129C1.82749 197.129 5.39994 202.96 19.6589 203.144C33.3636 203.144 36.9361 197.313 51.1951 197.129C64.8997 197.129 68.4722 202.96 82.7312 203.144C96.4359 203.144 100.008 197.313 114.267 197.129C127.972 197.129 131.544 202.96 145.803 203.144C159.508 203.144 163.081 197.313 177.34 197.129C191.044 197.129 194.617 202.96 208.876 203.144M-43.4133 200.162C-29.7086 200.162 -26.1362 194.331 -11.8772 194.147C1.82749 194.147 5.39994 199.977 19.6589 200.162C33.3636 200.162 36.9361 194.331 51.1951 194.147C64.8997 194.147 68.4722 199.977 82.7312 200.162C96.4359 200.162 100.008 194.331 114.267 194.147C127.972 194.147 131.544 199.977 145.803 200.162C159.508 200.162 163.081 194.331 177.34 194.147C191.044 194.147 194.617 199.977 208.876 200.162M-43.4133 197.154C-29.7086 197.154 -26.1362 191.324 -11.8772 191.14C1.82749 191.14 5.39994 196.97 19.6589 197.154C33.3636 197.154 36.9361 191.324 51.1951 191.14C64.8997 191.14 68.4722 196.97 82.7312 197.154C96.4359 197.154 100.008 191.324 114.267 191.14C127.972 191.14 131.544 196.97 145.803 197.154C159.508 197.154 163.081 191.324 177.34 191.14C191.044 191.14 194.617 196.97 208.876 197.154M-43.4133 194.172C-29.7086 194.172 -26.1362 188.341 -11.8772 188.157C1.82749 188.157 5.39994 193.988 19.6589 194.172C33.3636 194.172 36.9361 188.341 51.1951 188.157C64.8997 188.157 68.4722 193.988 82.7312 194.172C96.4359 194.172 100.008 188.341 114.267 188.157C127.972 188.157 131.544 193.988 145.803 194.172C159.508 194.172 163.081 188.341 177.34 188.157C191.044 188.157 194.617 193.988 208.876 194.172" stroke="#B7DFF5" stroke-width="0.15"/>
</g>
<path opacity="0.211798" fill-rule="evenodd" clip-rule="evenodd" d="M192.133 95.9766C192.566 139.89 116.026 178.852 77.2373 178.852C76.9296 178.852 76.6243 178.852 76.3215 178.85C75.9729 179.242 75.6177 179.625 75.2554 180C67.7746 179.863 60.8279 178.691 54.5962 176.529C51.3569 175.623 48.7659 174.458 46.6936 173.044C44.0148 171.579 41.5219 169.889 39.235 167.977C38.0723 167.005 36.9567 165.983 35.9037 164.898C20.7363 149.866 16.6999 123.649 23.2446 94.1411C29.7952 64.6084 44.267 37.5068 59.1043 20.6093C62.107 17.2166 65.1244 14.2306 68.1595 11.6514C68.8027 11.1046 69.4475 10.5755 70.0922 10.0655C81.778 0.838579 93.7378 -2.24394 106.183 1.64624C114.318 4.10017 122.246 8.87687 130.027 14.8149C134.092 17.9174 138.116 21.3367 142.108 24.9085C145.852 28.257 149.567 31.7382 153.259 35.2172C168.096 49.9592 182.569 64.6534 189.118 80.6717C190.38 83.755 191.243 86.8648 191.716 90.0018C192.013 91.9821 192.153 93.9735 192.133 95.9766Z" fill="#B2E2F5"/>
<path d="M109.213 69.9482H30.3369V130.622H109.213V69.9482Z" fill="url(#paint0_linear)"/>
<path d="M133.464 121.345L132.977 128.427C132.977 130.939 130.939 132.978 128.427 132.978H32.865C30.3531 132.978 28.3145 130.939 28.3145 128.427V52.023C28.3145 48.9969 30.7945 46.5168 33.8206 46.5168H86.1748" stroke="#1D3767" stroke-width="2.25" stroke-linecap="round" stroke-linejoin="round"/>
<path d="M28.3145 69.2715H62.4437" stroke="#1D3767" stroke-width="2.25" stroke-linecap="round" stroke-linejoin="round"/>
<path fill-rule="evenodd" clip-rule="evenodd" d="M44.2413 57.895C44.2413 60.407 42.2026 62.4456 39.6907 62.4456C37.1788 62.4456 35.1401 60.407 35.1401 57.895C35.1401 55.3786 37.1788 53.3445 39.6907 53.3445C42.2026 53.3445 44.2413 55.3786 44.2413 57.895Z" fill="#1D3767"/>
<path fill-rule="evenodd" clip-rule="evenodd" d="M57.8931 57.895C57.8931 60.407 55.8545 62.4456 53.3426 62.4456C50.8306 62.4456 48.792 60.407 48.792 57.895C48.792 55.3786 50.8306 53.3445 53.3426 53.3445C55.8545 53.3445 57.8931 55.3786 57.8931 57.895Z" fill="#1D3767"/>
<path d="M66.4884 92H62.5116C61.1245 92 60 92.8586 60 93.9178V125.082C60 126.141 61.1245 127 62.5116 127H66.4884C67.8755 127 69 126.141 69 125.082V93.9178C69 92.8586 67.8755 92 66.4884 92Z" fill="#FBE122" stroke="#1D3767" stroke-width="2"/>
<path d="M53.4884 105H49.5116C48.1245 105 47 106.105 47 107.467V124.533C47 125.895 48.1245 127 49.5116 127H53.4884C54.8755 127 56 125.895 56 124.533V107.467C56 106.105 54.8755 105 53.4884 105Z" fill="#1D3767"/>
<path d="M42.4884 114H38.5116C37.1245 114 36 114.653 36 115.458V125.542C36 126.347 37.1245 127 38.5116 127H42.4884C43.8755 127 45 126.347 45 125.542V115.458C45 114.653 43.8755 114 42.4884 114Z" fill="#1D3767"/>
<path fill-rule="evenodd" clip-rule="evenodd" d="M135.736 41.2477C135.736 49.0656 129.625 55.4045 122.085 55.4045C114.545 55.4045 108.433 49.0656 108.433 41.2477V33.1568C108.433 25.3389 114.545 19 122.085 19C129.625 19 135.736 25.3389 135.736 33.1568V41.2477Z" fill="#FBE122" stroke="#1D3767" stroke-width="2.25" stroke-linecap="round" stroke-linejoin="round"/>
<path fill-rule="evenodd" clip-rule="evenodd" d="M122.085 69.0576C103.737 69.0576 88.5565 82.6319 86.0446 100.288C85.6578 103.018 87.8375 105.462 90.5906 105.462H153.584C156.337 105.462 158.512 103.018 158.126 100.288C155.614 82.6319 140.433 69.0576 122.085 69.0576Z" fill="url(#paint1_linear)" stroke="#1D3767" stroke-width="2.25" stroke-linecap="round" stroke-linejoin="round"/>
<defs>
<linearGradient id="paint0_linear" x1="93.0572" y1="130.622" x2="49.3075" y2="130.622" gradientUnits="userSpaceOnUse">
<stop stop-color="white" stop-opacity="0"/>
<stop offset="1" stop-color="white"/>
</linearGradient>
<linearGradient id="paint1_linear" x1="122.085" y1="69.0576" x2="122.085" y2="104.904" gradientUnits="userSpaceOnUse">
<stop stop-color="white" stop-opacity="0"/>
<stop offset="1" stop-color="white"/>
</linearGradient>
</defs>
</svg>
