<?xml version="1.0" encoding="UTF-8"?>
<svg width="55px" height="55px" viewBox="0 0 55 55" version="1.1" xmlns="http://www.w3.org/2000/svg" xmlns:xlink="http://www.w3.org/1999/xlink">
    <!-- Generator: Sketch 50.2 (55047) - http://www.bohemiancoding.com/sketch -->
    <title>Group 34</title>
    <desc>Created with Sketch.</desc>
    <defs></defs>
    <g id="Yellow-DLP-/SRP" stroke="none" stroke-width="1" fill="none" fill-rule="evenodd">
        <g id="Group-34">
            <g id="Oval-5-Copy-3-+-DM" fill="#D2D4DA">
                <ellipse id="Oval-5-Copy-3" cx="27.4121406" cy="27.5" rx="27.4121406" ry="27.5"></ellipse>
            </g>
            <path d="M27.5,12 C29.1236982,12 30.6341143,12.4059248 32.03125,13.2177734 C33.4283857,14.0296221 34.5328779,15.1341143 35.3447266,16.53125 C36.1565752,17.9283857 36.5625,19.4388018 36.5625,21.0625 C36.5625,22.6861982 36.1565752,24.1966143 35.3447266,25.59375 C34.5328779,26.9908857 33.4283857,28.0953779 32.03125,28.9072266 C30.6341143,29.7190752 29.1236982,30.125 27.5,30.125 C25.8763018,30.125 24.3658857,29.7190752 22.96875,28.9072266 C21.5716143,28.0953779 20.4671221,26.9908857 19.6552734,25.59375 C18.8434248,24.1966143 18.4375,22.6861982 18.4375,21.0625 C18.4375,19.4388018 18.8434248,17.9283857 19.6552734,16.53125 C20.4671221,15.1341143 21.5716143,14.0296221 22.96875,13.2177734 C24.3658857,12.4059248 25.8763018,12 27.5,12 Z M37.8652344,30.9179687 C39.0735674,31.2200518 40.0647784,31.8619795 40.8388672,32.84375 C41.612956,33.8255205 42,34.9394531 42,36.1855469 L42,38.28125 C42,39.036458 41.7356768,39.6783857 41.2070312,40.2070312 C40.6783857,40.7356768 40.036458,41 39.28125,41 L15.71875,41 C14.963542,41 14.3216143,40.7356768 13.7929688,40.2070312 C13.2643232,39.6783857 13,39.036458 13,38.28125 L13,36.1855469 C13,34.9394531 13.387044,33.8255205 14.1611328,32.84375 C14.9352216,31.8619795 15.9264326,31.2200518 17.1347656,30.9179687 L21.15625,29.8984375 C22.9309893,31.182292 24.932292,31.8619795 27.1601562,31.9375 C29.614583,32.0130205 31.8424482,31.333333 33.84375,29.8984375 L37.8652344,30.9179687 Z" id="" fill="#F3F3F4"></path>
        </g>
    </g>
</svg>