<svg width="40" height="40" viewBox="0 0 40 40" fill="none" xmlns="http://www.w3.org/2000/svg">
<g id="icon close/ black">
<path id="Shape" d="M23.5244 19.999L35.4888 8.03408C35.8179 7.70472 35.9995 7.2653 36 6.79675C36 6.32794 35.8184 5.888 35.4888 5.55915L34.4403 4.51096C34.1107 4.18081 33.6713 4 33.2022 4C32.7339 4 32.2945 4.18081 31.9649 4.51096L20.0005 16.4751L8.03564 4.51096C7.70654 4.18081 7.26686 4 6.79805 4C6.32976 4 5.89008 4.18081 5.56098 4.51096L4.512 5.55915C3.82933 6.24182 3.82933 7.3522 4.512 8.03408L16.4766 19.999L4.512 31.9633C4.18263 32.2932 4.0013 32.7326 4.0013 33.2012C4.0013 33.6697 4.18263 34.1091 4.512 34.4388L5.56072 35.487C5.88982 35.8168 6.32976 35.9979 6.79779 35.9979C7.2666 35.9979 7.70628 35.8168 8.03538 35.487L20.0003 23.5226L31.9646 35.487C32.2942 35.8168 32.7337 35.9979 33.202 35.9979C33.671 35.9979 34.1104 35.8168 34.4401 35.487L35.4885 34.4388C35.8176 34.1094 35.9992 33.6697 35.9992 33.2012C35.9992 32.7326 35.8176 32.2932 35.4885 31.9636L23.5244 19.999Z" fill="#1F2A44"/>
</g>
</svg>
