<svg width="36" height="31" viewBox="0 0 36 31" fill="none" xmlns="http://www.w3.org/2000/svg">
<path fill-rule="evenodd" clip-rule="evenodd" d="M13.2211 20.1124C13.9014 21.2186 14.2415 22.3752 14.2415 23.582C14.2415 25.4928 13.5874 27.1019 12.2792 28.4093C10.971 29.7167 9.32269 30.3704 7.33421 30.3704C5.45038 30.3704 3.85439 29.7418 2.54617 28.4847C1.23796 27.2276 0.583862 25.5934 0.583862 23.582C0.583862 22.174 1.15947 20.2632 2.3107 17.8496L10.1599 0.652344H16.4393L10.3169 17.6987C11.5728 18.2016 12.5409 19.0061 13.2211 20.1124ZM32.0496 20.1124C32.7299 21.2186 33.07 22.3752 33.07 23.582C33.07 25.4928 32.4159 27.1019 31.1077 28.4093C29.7995 29.7167 28.1511 30.3704 26.1626 30.3704C24.2788 30.3704 22.6828 29.7418 21.3746 28.4847C20.0663 27.2276 19.4122 25.5934 19.4122 23.582C19.4122 22.174 19.9878 20.2632 21.1391 17.8496L28.9884 0.652344H35.2678L29.1454 17.6987C30.4013 18.2016 31.3693 19.0061 32.0496 20.1124Z" fill="#61679E"/>
</svg>
