<svg width="25" height="25" viewBox="0 0 25 25" fill="none" xmlns="http://www.w3.org/2000/svg">
<path d="M24.3678 14.7239L22.975 13.7646C22.8473 13.6765 22.7797 13.5252 22.7986 13.3701C22.8811 12.6965 22.8931 12.0118 22.8341 11.3359C22.8204 11.1802 22.8937 11.0318 23.0242 10.9481L24.4502 10.0356C24.9307 9.72816 25.1266 9.12712 24.9158 8.60589L24.0786 6.53659C23.8936 6.07954 23.448 5.78377 22.9441 5.78377C22.8748 5.78377 22.8055 5.78935 22.7367 5.80107L21.0553 6.08289C20.9013 6.10856 20.7438 6.04829 20.6447 5.92607C20.2146 5.39312 19.7261 4.90091 19.1941 4.46339C19.0716 4.36238 19.0149 4.20724 19.0469 4.05768L19.3934 2.43036C19.5102 1.88179 19.2124 1.32205 18.685 1.09883L16.5913 0.212622C16.4366 0.147329 16.2734 0.113845 16.1056 0.113845C15.7099 0.113845 15.3371 0.301912 15.1092 0.61666L14.1259 1.97275C14.0365 2.09609 13.8796 2.16305 13.721 2.14464C13.0303 2.06428 12.3242 2.052 11.6318 2.10892C11.472 2.12176 11.3197 2.05032 11.2338 1.92364L10.2986 0.536299C10.0724 0.200345 9.69098 0 9.27864 0C9.12517 0 8.97455 0.0279032 8.83138 0.0831514L6.70786 0.89904C6.17297 1.10441 5.8557 1.6541 5.95306 2.20602L6.24112 3.83947C6.26747 3.98959 6.20619 4.14306 6.0802 4.23961C5.53156 4.65983 5.02474 5.13697 4.57461 5.65653C4.4721 5.77484 4.31117 5.8312 4.15827 5.79995L2.49347 5.46344C2.41215 5.44725 2.32854 5.43888 2.2455 5.43888C1.75986 5.43888 1.32061 5.71959 1.12704 6.15376L0.217045 8.1946C-0.012029 8.70857 0.16264 9.31575 0.632242 9.63887L2.01929 10.5943C2.14699 10.6824 2.21457 10.8337 2.19567 10.9888C2.11263 11.6652 2.10061 12.3522 2.15959 13.0308C2.17334 13.1865 2.10003 13.3349 1.96946 13.4186L0.549775 14.3266C0.0692924 14.6341 -0.126566 15.2351 0.0841822 15.7564L0.921448 17.8257C1.10643 18.2827 1.55197 18.5785 2.05594 18.5785C2.12523 18.5785 2.19453 18.5729 2.26325 18.5612L3.93664 18.281C4.09126 18.2548 4.24875 18.3156 4.34725 18.4378C4.77963 18.973 5.26927 19.4669 5.80416 19.9061C5.92672 20.0071 5.98341 20.1623 5.95192 20.3118L5.60716 21.9324C5.49033 22.481 5.78813 23.0408 6.31557 23.264L8.40931 24.1502C8.56393 24.2155 8.72715 24.2484 8.89495 24.2484C9.29067 24.2484 9.66349 24.0603 9.89142 23.7456L10.8724 22.3928C10.9618 22.2695 11.1187 22.202 11.2773 22.221C11.9691 22.3013 12.677 22.313 13.3705 22.2556C13.5314 22.2427 13.6832 22.3136 13.7685 22.4408L14.702 23.8259C14.9282 24.1619 15.3096 24.3622 15.7219 24.3622C15.8754 24.3622 16.026 24.3343 16.1692 24.2791L18.2927 23.4632C18.8276 23.2578 19.1449 22.7081 19.0475 22.1562L18.7589 20.5211C18.7325 20.371 18.7938 20.2175 18.9198 20.121C19.4673 19.7007 19.973 19.2247 20.4225 18.7052C20.525 18.5863 20.6865 18.5305 20.8389 18.5612L22.5071 18.8983C22.5884 18.9144 22.672 18.9228 22.7551 18.9228C23.2407 18.9228 23.68 18.6421 23.8735 18.2079L24.783 16.1676C25.0115 15.6548 24.8374 15.0471 24.3678 14.7239ZM14.7558 17.7659C11.5917 18.982 8.0153 17.4679 6.76742 14.3841C5.51954 11.3008 7.07323 7.81567 10.2379 6.59965C13.402 5.38364 16.9784 6.89766 18.2263 9.98152C19.4736 13.0648 17.9199 16.5505 14.7558 17.7659Z" fill="#1F2A44"/>
</svg>
