<svg viewBox="0 0 26 26" fill="none" xmlns="http://www.w3.org/2000/svg">
  <path fill-rule="evenodd" clip-rule="evenodd" d="M26 13C26 15.3414 25.4146 17.5081 24.244 19.5C23.0733 21.4919 21.4919 23.0733 19.5 24.244C17.5081 25.4146 15.3414 26 13 26C10.6586 26 8.49194 25.4146 6.5 24.244C4.50806 23.0733 2.92675 21.4919 1.75605 19.5C0.58535 17.5081 0 15.3414 0 13C0 10.6586 0.58535 8.49193 1.75605 6.5C2.92675 4.50806 4.50806 2.92675 6.5 1.75605C8.49194 0.58535 10.6586 0 13 0C15.3414 0 17.5081 0.58535 19.5 1.75605C21.4919 2.92675 23.0733 4.50806 24.244 6.5C25.4146 8.49193 26 10.6586 26 13ZM11.4798 19.8669L21.125 10.2218C21.2997 10.082 21.3871 9.88978 21.3871 9.64516C21.3871 9.40054 21.2997 9.20833 21.125 9.06855L19.9718 7.8629C19.797 7.68817 19.5961 7.60081 19.369 7.60081C19.1418 7.60081 18.9409 7.68817 18.7661 7.8629L10.9032 15.7258L7.23387 12.0565C7.05914 11.8817 6.8582 11.7944 6.63105 11.7944C6.4039 11.7944 6.20296 11.8817 6.02823 12.0565L4.875 13.2621C4.70027 13.4019 4.6129 13.5941 4.6129 13.8387C4.6129 14.0833 4.70027 14.2755 4.875 14.4153L10.3266 19.8669C10.4664 20.0417 10.6586 20.129 10.9032 20.129C11.1479 20.129 11.3401 20.0417 11.4798 19.8669Z" fill="#43B02A"/>
</svg>
