<svg width="36" height="36" viewBox="0 0 36 36" fill="none" xmlns="http://www.w3.org/2000/svg">
<path d="M1 28L9.0255 19.9745C9.68185 19.3184 10.5719 18.9497 11.5 18.9497C12.4281 18.9497 13.3182 19.3184 13.9745 19.9745L22 28M18.5 24.5L21.2755 21.7245C21.9318 21.0684 22.8219 20.6997 23.75 20.6997C24.6781 20.6997 25.5682 21.0684 26.2245 21.7245L29 24.5M18.5 14H18.5175M4.5 35H25.5C26.4283 35 27.3185 34.6312 27.9749 33.9749C28.6312 33.3185 29 32.4283 29 31.5V10.5C29 9.57174 28.6312 8.6815 27.9749 8.02513C27.3185 7.36875 26.4283 7 25.5 7H4.5C3.57174 7 2.6815 7.36875 2.02513 8.02513C1.36875 8.6815 1 9.57174 1 10.5V31.5C1 32.4283 1.36875 33.3185 2.02513 33.9749C2.6815 34.6312 3.57174 35 4.5 35Z" stroke="#A0A4C5" stroke-width="2" stroke-linecap="round" stroke-linejoin="round"/>
<circle cx="29" cy="7" r="7" fill="#F7F7FA"/>
<path d="M29 7H25.5H29Z" fill="#F7F7FA"/>
<path d="M29 3.5V7M29 7V10.5M29 7H32.5M29 7H25.5" stroke="#A0A4C5" stroke-width="2" stroke-linecap="round" stroke-linejoin="round"/>
</svg>
