<svg viewBox="0 0 14 11" fill="none" xmlns="http://www.w3.org/2000/svg">
<path d="M0 1.43119V9.3268C0 9.87892 0.487048 10.3268 1.08847 10.3268H12.9115C13.5125 10.3268 14 9.87936 14 9.3268V1.43119C14 0.879066 13.513 0.431152 12.9115 0.431152H1.08847C0.487048 0.43159 0 0.879066 0 1.43119ZM3.19488 2.05248C4.00123 1.99381 4.66889 2.60723 4.60598 3.34806C4.55642 3.93083 4.04269 4.40326 3.40838 4.44967C2.60156 4.50878 1.93294 3.89493 1.99632 3.15366C2.04684 2.57045 2.56057 2.09846 3.19488 2.05248ZM12.6628 9.10481H1.70705L5.69064 5.30741L8.00293 6.9283L10.4868 4.38575L12.6623 6.74528V9.10481H12.6628Z" fill="#A5AAB4"/>
</svg>
