<svg width="20" height="20" viewBox="0 0 20 20" fill="none" xmlns="http://www.w3.org/2000/svg">
<path d="M17.0711 2.92887C15.1824 1.04011 12.6711 0 10 0C7.32894 0 4.81763 1.04011 2.92887 2.92887C1.04011 4.81763 0 7.32894 0 10C0 12.6711 1.04011 15.1824 2.92887 17.0711C4.81763 18.9599 7.32894 20 10 20C12.6711 20 15.1824 18.9599 17.0711 17.0711C18.9599 15.1824 20 12.6711 20 10C20 7.32894 18.9599 4.81763 17.0711 2.92887ZM10 5.01078C10.451 5.01078 10.8178 5.37763 10.8178 5.82858C10.8178 6.27953 10.451 6.64638 10 6.64638C9.54905 6.64638 9.1822 6.27953 9.1822 5.82858C9.1822 5.37763 9.54905 5.01078 10 5.01078ZM11.2003 14.4343C10.6881 14.8012 10.2278 14.985 9.82461 14.985C9.60441 14.985 9.40112 14.9301 9.21601 14.8202C8.72237 14.5273 8.55797 13.9305 8.6146 13.4698C8.75491 12.3211 8.98271 10.885 9.30899 9.08922C9.0347 9.15388 8.74097 9.02667 8.60657 8.76463C8.4485 8.45611 8.57022 8.07785 8.87875 7.91978C9.10317 7.80483 9.78615 7.45446 10.2958 7.83357C10.5046 7.9891 10.7299 8.30227 10.6175 8.91256C10.2612 10.8461 10.0063 12.4306 9.86053 13.6224C9.85715 13.6507 9.8618 13.6913 9.86983 13.7234C9.95097 13.7091 10.1407 13.6499 10.47 13.4145C10.7519 13.2125 11.1441 13.2775 11.3457 13.5594C11.5473 13.8405 11.4822 14.2323 11.2003 14.4343Z" fill="#A5AAB4"/>
</svg>
