<svg width="31" height="30" viewBox="0 0 31 30" fill="none" xmlns="http://www.w3.org/2000/svg">
<path d="M15.2375 30C23.5218 30 30.2375 23.2843 30.2375 15C30.2375 6.71573 23.5218 0 15.2375 0C6.95328 0 0.237549 6.71573 0.237549 15C0.237549 23.2843 6.95328 30 15.2375 30Z" fill="#1F2A44"/>
<path fill-rule="evenodd" clip-rule="evenodd" d="M11.5056 11.8494V21.8036H8.19085V11.8494H11.5056ZM11.7165 8.77574C11.7232 9.26458 11.5541 9.67306 11.2093 10.0012C10.8644 10.3293 10.4107 10.4934 9.84821 10.4934H9.82812C9.27902 10.4934 8.83705 10.3293 8.50223 10.0012C8.16741 9.67306 8 9.26458 8 8.77574C8 8.2802 8.17243 7.87005 8.5173 7.54527C8.86217 7.22049 9.3125 7.05811 9.8683 7.05811C10.4241 7.05811 10.8694 7.22049 11.2042 7.54527C11.5391 7.87005 11.7098 8.2802 11.7165 8.77574ZM16.6384 13.2639C16.766 13.0629 16.8965 12.886 17.0301 12.7333C17.1708 12.5726 17.3599 12.3985 17.5977 12.211C17.8354 12.0235 18.1267 11.8779 18.4715 11.7741C18.8164 11.6703 19.1998 11.6184 19.6217 11.6184C20.7667 11.6184 21.6875 11.9984 22.3839 12.7584C23.0804 13.5185 23.4286 14.6318 23.4286 16.0983V21.8036H20.1239V16.48C20.1239 15.7769 19.9883 15.2261 19.7171 14.8276C19.4459 14.4292 19.0223 14.23 18.4464 14.23C18.0246 14.23 17.6713 14.3455 17.3867 14.5765C17.1021 14.8075 16.8895 15.0938 16.7489 15.4353C16.6752 15.6362 16.6384 15.9074 16.6384 16.249V21.8036H13.3337C13.3471 19.1318 13.3538 16.9655 13.3538 15.3048C13.3538 13.644 13.3504 12.653 13.3438 12.3315L13.3337 11.8494H16.6384V13.2639Z" fill="white"/>
</svg>
