<svg width="60" height="60" viewBox="0 0 60 60" fill="none" xmlns="http://www.w3.org/2000/svg">
<path fill-rule="evenodd" clip-rule="evenodd" d="M60 30C60 35.4032 58.6492 40.4032 55.9476 45C53.246 49.5968 49.5968 53.246 45 55.9476C40.4032 58.6492 35.4032 60 30 60C24.5968 60 19.5968 58.6492 15 55.9476C10.4032 53.246 6.75403 49.5968 4.05242 45C1.35081 40.4032 0 35.4032 0 30C0 24.5968 1.35081 19.5968 4.05242 15C6.75403 10.4032 10.4032 6.75403 15 4.05242C19.5968 1.35081 24.5968 0 30 0C35.4032 0 40.4032 1.35081 45 4.05242C49.5968 6.75403 53.246 10.4032 55.9476 15C58.6492 19.5968 60 24.5968 60 30ZM26.4919 45.8468L48.75 23.5887C49.1532 23.2661 49.3548 22.8226 49.3548 22.2581C49.3548 21.6935 49.1532 21.25 48.75 20.9274L46.0887 18.1452C45.6855 17.7419 45.2218 17.5403 44.6976 17.5403C44.1734 17.5403 43.7097 17.7419 43.3065 18.1452L25.1613 36.2903L16.6935 27.8226C16.2903 27.4194 15.8266 27.2177 15.3024 27.2177C14.7782 27.2177 14.3145 27.4194 13.9113 27.8226L11.25 30.6048C10.8468 30.9274 10.6452 31.371 10.6452 31.9355C10.6452 32.5 10.8468 32.9435 11.25 33.2661L23.8306 45.8468C24.1532 46.25 24.5968 46.4516 25.1613 46.4516C25.7258 46.4516 26.1694 46.25 26.4919 45.8468Z" fill="#64B056"/>
</svg>
