<svg width="22" height="19" viewBox="0 0 22 19" fill="none" xmlns="http://www.w3.org/2000/svg">
<path d="M20.1304 12.3043V16.6522C20.1304 17.1304 19.7391 17.5217 19.2609 17.5217H2.73913C1.78261 17.5217 1 16.7391 1 15.7826V5.34783M20.1304 12.3043H14.913C13.9565 12.3043 13.1739 11.5217 13.1739 10.5652C13.1739 9.6087 13.9565 8.82609 14.913 8.82609H20.1304M20.1304 12.3043C20.6087 12.3043 21 11.913 21 11.4348V9.69565C21 9.21739 20.6087 8.82609 20.1304 8.82609M20.1304 8.82609V5.34783C20.1304 4.86957 19.7391 4.47826 19.2609 4.47826H2.73913C1.78261 4.47826 1 3.69565 1 2.73913M1 4.47826V5.34783M1 5.34783V2.73913M1 2.73913C1 1.78261 1.78261 1 2.73913 1H16.6522C17.1304 1 17.5217 1.3913 17.5217 1.86957V4.47826" stroke="#1F2A44" stroke-miterlimit="10" stroke-linecap="round" stroke-linejoin="round"/>
</svg>
