<svg width="40" height="40" viewBox="0 0 40 40" fill="none" xmlns="http://www.w3.org/2000/svg">
<path d="M36.1296 6.64771H11.338C10.9539 6.64771 10.5666 6.68382 10.2022 6.73962C8.38679 7.03179 7.031 8.555 7.031 10.3507C7.031 18.8958 7.0113 27.4212 7.031 35.9466C7.031 38.0902 8.90219 39.9811 11.0458 39.9975H36.3496C37.1013 39.9975 37.7808 39.7579 38.3652 39.318C39.4846 38.4579 39.9803 37.2827 39.9803 35.8908C40 31.656 40 27.4015 40 23.147V10.4984C40 8.0987 38.5326 6.64771 36.1296 6.64771ZM16.8597 11.6178C19.2627 11.5981 21.2061 13.5416 21.2061 15.9642C21.2061 18.3672 19.2988 20.291 16.8958 20.3107C14.4928 20.3107 12.5494 18.3475 12.5494 15.9642C12.5494 13.5809 14.4731 11.6375 16.8597 11.6178ZM36.0377 34.4266C35.9458 34.5547 35.7061 34.6466 35.3975 34.6663C35.3614 34.686 35.3253 34.686 35.2498 34.686H18.6389C17.3915 34.686 16.1276 34.6663 14.8801 34.6499C14.3122 34.6499 13.7246 34.6302 13.1567 34.6302C12.6249 34.6302 12.0931 34.7418 11.5415 34.686C11.5219 34.686 11.5054 34.686 11.4693 34.6663C11.4332 34.6663 11.3774 34.6466 11.3216 34.6105C10.9736 34.3905 11.6893 33.8587 11.8173 33.6946C12.2014 33.2186 16.4001 27.3325 16.4559 27.257C17.0238 26.4134 17.7953 25.9373 18.5995 25.9373C19.7912 25.9373 20.3952 27.2012 21.3308 27.733C22.5586 28.4487 23.3661 27.4934 23.9702 26.5217C24.374 25.8783 24.7942 25.2184 25.1979 24.5586C25.4376 24.1745 25.6936 23.7707 25.93 23.3669C26.2222 22.9073 26.5176 22.451 26.8098 21.975L27.3974 21.023C27.4532 20.9508 27.4893 20.895 27.5254 20.8228C27.7454 20.5109 28.0014 20.3107 28.205 20.3107C28.3888 20.3107 28.6087 20.5109 28.809 20.8425C30.864 24.5093 32.9355 28.232 34.9511 31.8431L35.9228 33.6026C36.0147 33.7307 36.0508 33.8784 36.0869 33.9867C36.1099 34.1345 36.1296 34.3183 36.0377 34.4266Z" fill="#1F2A44"/>
<path d="M32.9781 3.85071V4.40221H9.70318C9.26657 4.40221 8.82668 4.44161 8.40976 4.50398C6.34818 4.84211 4.81512 6.56557 4.81512 8.60746C4.81512 16.8637 4.80198 25.1067 4.81512 33.3498H4.02725C1.88031 33.3367 0.00583606 31.4425 0.00583606 29.3021C-0.00729508 20.7767 0.00583606 12.2514 0.00583606 3.70298C0.00583606 1.90401 1.36491 0.384086 3.17701 0.091918C3.54796 0.0328278 3.93205 0 4.31613 0H29.1077C31.5107 0 32.9781 1.44771 32.9781 3.85071Z" fill="#1F2A44"/>
</svg>
