<svg viewBox="0 0 97 96" fill="none" xmlns="http://www.w3.org/2000/svg">
<path opacity="0.9" d="M48.6223 95.695C75.0339 95.695 96.4448 74.2841 96.4448 47.8725C96.4448 21.4608 75.0339 0.0499878 48.6223 0.0499878C22.2107 0.0499878 0.799805 21.4608 0.799805 47.8725C0.799805 74.2841 22.2107 95.695 48.6223 95.695Z" fill="white"/>
<path d="M42.5707 68.1306C40.8568 69.1137 39.4648 68.3046 39.4648 66.3297L39.4735 51.6272C39.4735 49.6523 39.4735 46.416 39.4822 44.4412L39.4909 29.7386C39.4909 27.7638 40.8916 26.9547 42.6055 27.9465L64.7115 46.2594C66.4254 47.2512 66.4167 48.8606 64.7115 49.8524L42.5707 68.1306Z" fill="#1F2A44"/>
</svg>
