<svg width="23" height="16" viewBox="0 0 23 16" fill="none" xmlns="http://www.w3.org/2000/svg">
<path d="M20.3665 6.32812L20.4811 6.02023L20.244 5.79283C19.9747 5.5345 19.8053 5.16936 19.8053 4.76028C19.8053 3.97438 20.4222 3.36037 21.1526 3.36037C21.8831 3.36037 22.5 3.97438 22.5 4.76028C22.5 5.53371 21.9065 6.13661 21.1941 6.15617L20.8332 6.16608L20.7291 6.51176L18.0213 15.5H4.92251L2.2137 6.50964L2.11339 6.1767L1.76636 6.15487C1.06987 6.11104 0.5 5.51605 0.5 4.76028C0.5 3.97438 1.1169 3.36037 1.84736 3.36037C2.57781 3.36037 3.19471 3.97438 3.19471 4.76028C3.19471 5.18717 3.01148 5.56427 2.72499 5.8217L2.46969 6.05109L2.59199 6.37178C2.73542 6.74787 3.12094 7.64076 3.818 8.44152C4.51792 9.24556 5.56872 9.99471 7.02168 9.9702L7.02748 9.97029C7.03895 9.97039 7.05392 9.97037 7.07215 9.97002C7.1086 9.96933 7.15823 9.96731 7.21914 9.96233C7.34077 9.95236 7.50858 9.93045 7.7069 9.88293C8.10353 9.78789 8.62716 9.58914 9.14412 9.17531C10.1496 8.37047 11.0262 6.84053 11.0439 4.00498L11.4704 3.91725L11.8968 4.00497C11.9145 6.84052 12.7912 8.37047 13.7966 9.17531C14.3136 9.58914 14.8372 9.78789 15.2338 9.88293C15.4322 9.93045 15.6 9.95236 15.7216 9.96233C15.7825 9.96731 15.8321 9.96933 15.8686 9.97002C15.8868 9.97037 15.9018 9.97039 15.9133 9.97029L15.9192 9.97019C17.4017 9.99467 18.465 9.21503 19.1651 8.39302C19.8627 7.57385 20.2388 6.67107 20.3665 6.32812ZM12.0631 3.21759L11.4502 3.74711L10.8904 3.22902C10.8553 3.19651 10.8288 3.17004 10.8085 3.14689L10.7676 3.10017L10.7166 3.06487C10.3575 2.8166 10.1169 2.38939 10.1169 1.89991C10.1169 1.114 10.7338 0.5 11.4642 0.5C12.1972 0.5 12.8131 1.11433 12.8116 1.89893V1.89991C12.8116 2.37625 12.5813 2.79358 12.2341 3.04713L12.1823 3.08496L12.1417 3.13465C12.112 3.17097 12.087 3.19694 12.0631 3.21759Z" fill="#FBE122" stroke="#1F2A44"/>
</svg>
