<svg width="35" height="40" viewBox="0 0 35 40" fill="none" xmlns="http://www.w3.org/2000/svg">
<path d="M0 0H34.7826V40L17.3913 33.0435L0 40V0Z" fill="#FBE122"/>
<path d="M28 12.7603C28 11.7115 27.1724 10.8604 26.1526 10.8604C25.1329 10.8604 24.3053 11.7115 24.3053 12.7603C24.3053 13.3109 24.5342 13.8048 24.8979 14.1537C24.6609 14.7905 23.492 17.5185 20.9191 17.4701C20.9191 17.4701 17.2653 17.6004 17.4002 11.5981L17.39 11.596C17.441 11.5518 17.486 11.5035 17.5289 11.4509C18.001 11.1063 18.3116 10.5409 18.3116 9.89991C18.3136 8.85118 17.486 8 16.4642 8C15.4445 8 14.6169 8.85118 14.6169 9.89991C14.6169 10.5556 14.9398 11.1357 15.4323 11.4762C15.469 11.5182 15.5099 11.5581 15.5508 11.596L15.5406 11.5981C15.6754 17.6004 12.0216 17.4701 12.0216 17.4701C9.49987 17.5185 8.32688 14.8956 8.05917 14.1936C8.44745 13.8447 8.69471 13.334 8.69471 12.7603C8.69471 11.7115 7.86708 10.8604 6.84736 10.8604C5.82763 10.8604 5 11.7115 5 12.7603C5 13.7712 5.76633 14.5929 6.73496 14.6539L9.55096 24H23.398V23.9832L26.2078 14.656C27.203 14.6287 28 13.7922 28 12.7603Z" fill="#1F2A44"/>
<path d="M28 12.7603C28 11.7115 27.1724 10.8604 26.1526 10.8604C25.1329 10.8604 24.3053 11.7115 24.3053 12.7603C24.3053 13.3109 24.5342 13.8048 24.8979 14.1537C24.6609 14.7905 23.492 17.5185 20.9191 17.4701C20.9191 17.4701 17.2653 17.6004 17.4002 11.5981L17.39 11.596C17.441 11.5518 17.486 11.5035 17.5289 11.4509C18.001 11.1063 18.3116 10.5409 18.3116 9.89991C18.3136 8.85118 17.486 8 16.4642 8C15.4445 8 14.6169 8.85118 14.6169 9.89991C14.6169 10.5556 14.9398 11.1357 15.4323 11.4762C15.469 11.5182 15.5099 11.5581 15.5508 11.596L15.5406 11.5981C15.6754 17.6004 12.0216 17.4701 12.0216 17.4701C9.49987 17.5185 8.32688 14.8956 8.05917 14.1936C8.44745 13.8447 8.69471 13.334 8.69471 12.7603C8.69471 11.7115 7.86708 10.8604 6.84736 10.8604C5.82763 10.8604 5 11.7115 5 12.7603C5 13.7712 5.76633 14.5929 6.73496 14.6539L9.55096 24H23.398V23.9832L26.2078 14.656C27.203 14.6287 28 13.7922 28 12.7603Z" stroke="#1F2A44"/>
</svg>
