<svg width="28" height="24" viewBox="0 0 28 24" fill="none" xmlns="http://www.w3.org/2000/svg">
<path d="M24.9833 0H3.01669L0 9.53217H28L24.9833 0ZM27.7663 10.7478C27.7663 13.3252 25.6366 15.4539 23.0129 15.4539C20.8619 15.4539 19.0508 14.0348 18.4613 12.1043C17.8718 14.0296 16.0607 15.4539 13.915 15.4539C11.7375 15.4539 9.90516 13.9878 9.34219 12.0157C8.77921 13.9565 6.94689 15.3496 4.77466 15.3496C2.14568 15.3496 0.0212443 13.3304 0.0212443 10.7426C0.0159332 10.7478 27.761 10.7426 27.7663 10.7478ZM24.3778 16.2574V22.8522C24.3778 23.4835 23.852 24 23.2094 24H4.49848C3.85584 24 3.33005 23.4835 3.33005 22.8522V16.1478C3.79742 16.2626 4.27542 16.3304 4.76935 16.3304C4.98179 16.3304 5.19423 16.3148 5.40668 16.2939V17.7809C5.40668 18.2765 5.81563 18.6783 6.32018 18.6783H21.6267C22.1313 18.6783 22.5402 18.2765 22.5402 17.7809V16.4035C22.6995 16.4191 22.8536 16.4296 23.0129 16.4296C23.4856 16.4296 23.937 16.367 24.3778 16.2574Z" fill="#1F2A44"/>
</svg>
