<svg viewBox="0 0 366 47" fill="none" xmlns="http://www.w3.org/2000/svg">
<path d="M30.4603 43.349H4.68254C2.64864 43.349 1 41.7004 1 39.6665V19.4125C1 17.3786 2.64864 15.73 4.68254 15.73H30.4603C32.4942 15.73 34.1429 17.3786 34.1429 19.4125V39.6665C34.1429 41.7004 32.4942 43.349 30.4603 43.349Z" stroke="#797F8F" stroke-width="2" stroke-miterlimit="10" stroke-linecap="round" stroke-linejoin="round"/>
<path d="M11.1272 15.7301V12.7961C11.1272 9.33236 13.9358 6.52371 17.3996 6.52371H17.743C21.2074 6.52371 24.0154 9.33236 24.0154 12.7961V15.7301" stroke="#797F8F" stroke-width="2" stroke-miterlimit="10" stroke-linecap="round" stroke-linejoin="round"/>
<path d="M5.60303 15.7302V12.9683C5.60303 6.35809 10.9611 1 17.5713 1C24.1814 1 29.5395 6.35809 29.5395 12.9683V15.7302" stroke="#797F8F" stroke-width="2" stroke-miterlimit="10" stroke-linecap="round" stroke-linejoin="round"/>
<path d="M17.5714 23.0951C15.1997 23.0951 13.2749 25.02 13.2749 27.3917C13.2749 29.1529 14.3407 30.6656 15.8527 31.3355V34.266C15.8527 35.2114 16.626 35.9847 17.5714 35.9847C18.5169 35.9847 19.2902 35.2114 19.2902 34.266V31.3355C20.8022 30.6656 21.868 29.1529 21.868 27.3917C21.868 25.02 19.9431 23.0951 17.5714 23.0951Z" stroke="#797F8F" stroke-width="2" stroke-miterlimit="10"/>
<path d="M52.13 19.0721C51.5767 19.0721 51.04 18.9988 50.52 18.8521C50.0067 18.6988 49.5933 18.5021 49.28 18.2621L49.83 17.0421C50.13 17.2621 50.4867 17.4388 50.9 17.5721C51.3133 17.7055 51.7267 17.7721 52.14 17.7721C52.6 17.7721 52.94 17.7055 53.16 17.5721C53.38 17.4321 53.49 17.2488 53.49 17.0221C53.49 16.8555 53.4233 16.7188 53.29 16.6121C53.1633 16.4988 52.9967 16.4088 52.79 16.3421C52.59 16.2755 52.3167 16.2021 51.97 16.1221C51.4367 15.9955 51 15.8688 50.66 15.7421C50.32 15.6155 50.0267 15.4121 49.78 15.1321C49.54 14.8521 49.42 14.4788 49.42 14.0121C49.42 13.6055 49.53 13.2388 49.75 12.9121C49.97 12.5788 50.3 12.3155 50.74 12.1221C51.1867 11.9288 51.73 11.8321 52.37 11.8321C52.8167 11.8321 53.2533 11.8855 53.68 11.9921C54.1067 12.0988 54.48 12.2521 54.8 12.4521L54.3 13.6821C53.6533 13.3155 53.0067 13.1321 52.36 13.1321C51.9067 13.1321 51.57 13.2055 51.35 13.3521C51.1367 13.4988 51.03 13.6921 51.03 13.9321C51.03 14.1721 51.1533 14.3521 51.4 14.4721C51.6533 14.5855 52.0367 14.6988 52.55 14.8121C53.0833 14.9388 53.52 15.0655 53.86 15.1921C54.2 15.3188 54.49 15.5188 54.73 15.7921C54.9767 16.0655 55.1 16.4355 55.1 16.9021C55.1 17.3021 54.9867 17.6688 54.76 18.0021C54.54 18.3288 54.2067 18.5888 53.76 18.7821C53.3133 18.9755 52.77 19.0721 52.13 19.0721ZM64.977 17.6521V18.9521H59.557V11.9521H64.847V13.2521H61.167V14.7721H64.417V16.0321H61.167V17.6521H64.977ZM72.9464 19.0721C72.2331 19.0721 71.5864 18.9188 71.0064 18.6121C70.4331 18.2988 69.9797 17.8688 69.6464 17.3221C69.3197 16.7688 69.1564 16.1455 69.1564 15.4521C69.1564 14.7588 69.3197 14.1388 69.6464 13.5921C69.9797 13.0388 70.4331 12.6088 71.0064 12.3021C71.5864 11.9888 72.2364 11.8321 72.9564 11.8321C73.5631 11.8321 74.1097 11.9388 74.5964 12.1521C75.0897 12.3655 75.5031 12.6721 75.8364 13.0721L74.7964 14.0321C74.3231 13.4855 73.7364 13.2121 73.0364 13.2121C72.6031 13.2121 72.2164 13.3088 71.8764 13.5021C71.5364 13.6888 71.2697 13.9521 71.0764 14.2921C70.8897 14.6321 70.7964 15.0188 70.7964 15.4521C70.7964 15.8855 70.8897 16.2721 71.0764 16.6121C71.2697 16.9521 71.5364 17.2188 71.8764 17.4121C72.2164 17.5988 72.6031 17.6921 73.0364 17.6921C73.7364 17.6921 74.3231 17.4155 74.7964 16.8621L75.8364 17.8221C75.5031 18.2288 75.0897 18.5388 74.5964 18.7521C74.1031 18.9655 73.5531 19.0721 72.9464 19.0721ZM83.3318 19.0721C82.3318 19.0721 81.5518 18.7955 80.9918 18.2421C80.4385 17.6888 80.1618 16.8988 80.1618 15.8721V11.9521H81.7818V15.8121C81.7818 17.0655 82.3018 17.6921 83.3418 17.6921C83.8485 17.6921 84.2351 17.5421 84.5018 17.2421C84.7685 16.9355 84.9018 16.4588 84.9018 15.8121V11.9521H86.5018V15.8721C86.5018 16.8988 86.2218 17.6888 85.6618 18.2421C85.1085 18.7955 84.3318 19.0721 83.3318 19.0721ZM95.9127 18.9521L94.5627 17.0021H94.4827H93.0727V18.9521H91.4527V11.9521H94.4827C95.1027 11.9521 95.6393 12.0555 96.0927 12.2621C96.5527 12.4688 96.906 12.7621 97.1527 13.1421C97.3993 13.5221 97.5227 13.9721 97.5227 14.4921C97.5227 15.0121 97.396 15.4621 97.1427 15.8421C96.896 16.2155 96.5427 16.5021 96.0827 16.7021L97.6527 18.9521H95.9127ZM95.8827 14.4921C95.8827 14.0988 95.756 13.7988 95.5027 13.5921C95.2493 13.3788 94.8793 13.2721 94.3927 13.2721H93.0727V15.7121H94.3927C94.8793 15.7121 95.2493 15.6055 95.5027 15.3921C95.756 15.1788 95.8827 14.8788 95.8827 14.4921ZM107.576 17.6521V18.9521H102.156V11.9521H107.446V13.2521H103.766V14.7721H107.016V16.0321H103.766V17.6521H107.576ZM120.697 19.0721C120.144 19.0721 119.607 18.9988 119.087 18.8521C118.574 18.6988 118.161 18.5021 117.847 18.2621L118.397 17.0421C118.697 17.2621 119.054 17.4388 119.467 17.5721C119.881 17.7055 120.294 17.7721 120.707 17.7721C121.167 17.7721 121.507 17.7055 121.727 17.5721C121.947 17.4321 122.057 17.2488 122.057 17.0221C122.057 16.8555 121.991 16.7188 121.857 16.6121C121.731 16.4988 121.564 16.4088 121.357 16.3421C121.157 16.2755 120.884 16.2021 120.537 16.1221C120.004 15.9955 119.567 15.8688 119.227 15.7421C118.887 15.6155 118.594 15.4121 118.347 15.1321C118.107 14.8521 117.987 14.4788 117.987 14.0121C117.987 13.6055 118.097 13.2388 118.317 12.9121C118.537 12.5788 118.867 12.3155 119.307 12.1221C119.754 11.9288 120.297 11.8321 120.937 11.8321C121.384 11.8321 121.821 11.8855 122.247 11.9921C122.674 12.0988 123.047 12.2521 123.367 12.4521L122.867 13.6821C122.221 13.3155 121.574 13.1321 120.927 13.1321C120.474 13.1321 120.137 13.2055 119.917 13.3521C119.704 13.4988 119.597 13.6921 119.597 13.9321C119.597 14.1721 119.721 14.3521 119.967 14.4721C120.221 14.5855 120.604 14.6988 121.117 14.8121C121.651 14.9388 122.087 15.0655 122.427 15.1921C122.767 15.3188 123.057 15.5188 123.297 15.7921C123.544 16.0655 123.667 16.4355 123.667 16.9021C123.667 17.3021 123.554 17.6688 123.327 18.0021C123.107 18.3288 122.774 18.5888 122.327 18.7821C121.881 18.9755 121.337 19.0721 120.697 19.0721ZM130.424 19.0721C129.871 19.0721 129.334 18.9988 128.814 18.8521C128.301 18.6988 127.887 18.5021 127.574 18.2621L128.124 17.0421C128.424 17.2621 128.781 17.4388 129.194 17.5721C129.607 17.7055 130.021 17.7721 130.434 17.7721C130.894 17.7721 131.234 17.7055 131.454 17.5721C131.674 17.4321 131.784 17.2488 131.784 17.0221C131.784 16.8555 131.717 16.7188 131.584 16.6121C131.457 16.4988 131.291 16.4088 131.084 16.3421C130.884 16.2755 130.611 16.2021 130.264 16.1221C129.731 15.9955 129.294 15.8688 128.954 15.7421C128.614 15.6155 128.321 15.4121 128.074 15.1321C127.834 14.8521 127.714 14.4788 127.714 14.0121C127.714 13.6055 127.824 13.2388 128.044 12.9121C128.264 12.5788 128.594 12.3155 129.034 12.1221C129.481 11.9288 130.024 11.8321 130.664 11.8321C131.111 11.8321 131.547 11.8855 131.974 11.9921C132.401 12.0988 132.774 12.2521 133.094 12.4521L132.594 13.6821C131.947 13.3155 131.301 13.1321 130.654 13.1321C130.201 13.1321 129.864 13.2055 129.644 13.3521C129.431 13.4988 129.324 13.6921 129.324 13.9321C129.324 14.1721 129.447 14.3521 129.694 14.4721C129.947 14.5855 130.331 14.6988 130.844 14.8121C131.377 14.9388 131.814 15.0655 132.154 15.1921C132.494 15.3188 132.784 15.5188 133.024 15.7921C133.271 16.0655 133.394 16.4355 133.394 16.9021C133.394 17.3021 133.281 17.6688 133.054 18.0021C132.834 18.3288 132.501 18.5888 132.054 18.7821C131.607 18.9755 131.064 19.0721 130.424 19.0721ZM137.851 11.9521H139.471V17.6321H142.981V18.9521H137.851V11.9521ZM55.25 37.6521V38.9521H49.83V31.9521H55.12V33.2521H51.44V34.7721H54.69V36.0321H51.44V37.6521H55.25ZM66.309 31.9521V38.9521H64.979L61.489 34.7021V38.9521H59.889V31.9521H61.229L64.709 36.2021V31.9521H66.309ZM74.6652 39.0721C73.9518 39.0721 73.3052 38.9188 72.7252 38.6121C72.1518 38.2988 71.6985 37.8688 71.3652 37.3221C71.0385 36.7688 70.8752 36.1455 70.8752 35.4521C70.8752 34.7588 71.0385 34.1388 71.3652 33.5921C71.6985 33.0388 72.1518 32.6088 72.7252 32.3021C73.3052 31.9888 73.9552 31.8321 74.6752 31.8321C75.2818 31.8321 75.8285 31.9388 76.3152 32.1521C76.8085 32.3655 77.2218 32.6721 77.5552 33.0721L76.5152 34.0321C76.0418 33.4855 75.4552 33.2121 74.7552 33.2121C74.3218 33.2121 73.9352 33.3088 73.5952 33.5021C73.2552 33.6888 72.9885 33.9521 72.7952 34.2921C72.6085 34.6321 72.5152 35.0188 72.5152 35.4521C72.5152 35.8855 72.6085 36.2721 72.7952 36.6121C72.9885 36.9521 73.2552 37.2188 73.5952 37.4121C73.9352 37.5988 74.3218 37.6921 74.7552 37.6921C75.4552 37.6921 76.0418 37.4155 76.5152 36.8621L77.5552 37.8221C77.2218 38.2288 76.8085 38.5388 76.3152 38.7521C75.8218 38.9655 75.2718 39.0721 74.6652 39.0721ZM86.4591 38.9521L85.1091 37.0021H85.0291H83.6191V38.9521H81.9991V31.9521H85.0291C85.6491 31.9521 86.1858 32.0555 86.6391 32.2621C87.0991 32.4688 87.4525 32.7621 87.6991 33.1421C87.9458 33.5221 88.0691 33.9721 88.0691 34.4921C88.0691 35.0121 87.9425 35.4621 87.6891 35.8421C87.4425 36.2155 87.0891 36.5021 86.6291 36.7021L88.1991 38.9521H86.4591ZM86.4291 34.4921C86.4291 34.0988 86.3025 33.7988 86.0491 33.5921C85.7958 33.3788 85.4258 33.2721 84.9391 33.2721H83.6191V35.7121H84.9391C85.4258 35.7121 85.7958 35.6055 86.0491 35.3921C86.3025 35.1788 86.4291 34.8788 86.4291 34.4921ZM95.965 36.4721V38.9521H94.345V36.4521L91.635 31.9521H93.355L95.225 35.0621L97.095 31.9521H98.685L95.965 36.4721ZM105.674 31.9521C106.294 31.9521 106.831 32.0555 107.284 32.2621C107.744 32.4688 108.098 32.7621 108.344 33.1421C108.591 33.5221 108.714 33.9721 108.714 34.4921C108.714 35.0055 108.591 35.4555 108.344 35.8421C108.098 36.2221 107.744 36.5155 107.284 36.7221C106.831 36.9221 106.294 37.0221 105.674 37.0221H104.264V38.9521H102.644V31.9521H105.674ZM105.584 35.7021C106.071 35.7021 106.441 35.5988 106.694 35.3921C106.948 35.1788 107.074 34.8788 107.074 34.4921C107.074 34.0988 106.948 33.7988 106.694 33.5921C106.441 33.3788 106.071 33.2721 105.584 33.2721H104.264V35.7021H105.584ZM114.476 33.2721H112.236V31.9521H118.336V33.2721H116.096V38.9521H114.476V33.2721ZM122.557 31.9521H124.177V38.9521H122.557V31.9521ZM132.579 39.0721C131.852 39.0721 131.195 38.9155 130.609 38.6021C130.029 38.2888 129.572 37.8588 129.239 37.3121C128.912 36.7588 128.749 36.1388 128.749 35.4521C128.749 34.7655 128.912 34.1488 129.239 33.6021C129.572 33.0488 130.029 32.6155 130.609 32.3021C131.195 31.9888 131.852 31.8321 132.579 31.8321C133.305 31.8321 133.959 31.9888 134.539 32.3021C135.119 32.6155 135.575 33.0488 135.909 33.6021C136.242 34.1488 136.409 34.7655 136.409 35.4521C136.409 36.1388 136.242 36.7588 135.909 37.3121C135.575 37.8588 135.119 38.2888 134.539 38.6021C133.959 38.9155 133.305 39.0721 132.579 39.0721ZM132.579 37.6921C132.992 37.6921 133.365 37.5988 133.699 37.4121C134.032 37.2188 134.292 36.9521 134.479 36.6121C134.672 36.2721 134.769 35.8855 134.769 35.4521C134.769 35.0188 134.672 34.6321 134.479 34.2921C134.292 33.9521 134.032 33.6888 133.699 33.5021C133.365 33.3088 132.992 33.2121 132.579 33.2121C132.165 33.2121 131.792 33.3088 131.459 33.5021C131.125 33.6888 130.862 33.9521 130.669 34.2921C130.482 34.6321 130.389 35.0188 130.389 35.4521C130.389 35.8855 130.482 36.2721 130.669 36.6121C130.862 36.9521 131.125 37.2188 131.459 37.4121C131.792 37.5988 132.165 37.6921 132.579 37.6921ZM147.396 31.9521V38.9521H146.066L142.576 34.7021V38.9521H140.976V31.9521H142.316L145.796 36.2021V31.9521H147.396Z" fill="#797F8F"/>
<path d="M233.56 15.39H235.04V18.23C234.66 18.5167 234.22 18.7367 233.72 18.89C233.22 19.0433 232.717 19.12 232.21 19.12C231.483 19.12 230.83 18.9667 230.25 18.66C229.67 18.3467 229.213 17.9167 228.88 17.37C228.553 16.8167 228.39 16.1933 228.39 15.5C228.39 14.8067 228.553 14.1867 228.88 13.64C229.213 13.0867 229.673 12.6567 230.26 12.35C230.847 12.0367 231.507 11.88 232.24 11.88C232.853 11.88 233.41 11.9833 233.91 12.19C234.41 12.3967 234.83 12.6967 235.17 13.09L234.13 14.05C233.63 13.5233 233.027 13.26 232.32 13.26C231.873 13.26 231.477 13.3533 231.13 13.54C230.783 13.7267 230.513 13.99 230.32 14.33C230.127 14.67 230.03 15.06 230.03 15.5C230.03 15.9333 230.127 16.32 230.32 16.66C230.513 17 230.78 17.2667 231.12 17.46C231.467 17.6467 231.86 17.74 232.3 17.74C232.767 17.74 233.187 17.64 233.56 17.44V15.39ZM243.005 19.12C242.005 19.12 241.225 18.8433 240.665 18.29C240.112 17.7367 239.835 16.9467 239.835 15.92V12H241.455V15.86C241.455 17.1133 241.975 17.74 243.015 17.74C243.522 17.74 243.908 17.59 244.175 17.29C244.442 16.9833 244.575 16.5067 244.575 15.86V12H246.175V15.92C246.175 16.9467 245.895 17.7367 245.335 18.29C244.782 18.8433 244.005 19.12 243.005 19.12ZM255.589 17.5H252.339L251.719 19H250.059L253.179 12H254.779L257.909 19H256.209L255.589 17.5ZM255.079 16.27L253.969 13.59L252.859 16.27H255.079ZM266.445 19L265.095 17.05H265.015H263.605V19H261.985V12H265.015C265.635 12 266.172 12.1033 266.625 12.31C267.085 12.5167 267.439 12.81 267.685 13.19C267.932 13.57 268.055 14.02 268.055 14.54C268.055 15.06 267.929 15.51 267.675 15.89C267.429 16.2633 267.075 16.55 266.615 16.75L268.185 19H266.445ZM266.415 14.54C266.415 14.1467 266.289 13.8467 266.035 13.64C265.782 13.4267 265.412 13.32 264.925 13.32H263.605V15.76H264.925C265.412 15.76 265.782 15.6533 266.035 15.44C266.289 15.2267 266.415 14.9267 266.415 14.54ZM277.299 17.5H274.049L273.429 19H271.769L274.889 12H276.489L279.619 19H277.919L277.299 17.5ZM276.789 16.27L275.679 13.59L274.569 16.27H276.789ZM290.115 12V19H288.785L285.295 14.75V19H283.695V12H285.035L288.515 16.25V12H290.115ZM296.571 13.32H294.331V12H300.431V13.32H298.191V19H296.571V13.32ZM310.073 17.7V19H304.653V12H309.943V13.3H306.263V14.82H309.513V16.08H306.263V17.7H310.073ZM320.132 17.7V19H314.712V12H320.002V13.3H316.322V14.82H319.572V16.08H316.322V17.7H320.132ZM324.771 12H327.951C328.711 12 329.381 12.1467 329.961 12.44C330.548 12.7267 331.001 13.1333 331.321 13.66C331.648 14.1867 331.811 14.8 331.811 15.5C331.811 16.2 331.648 16.8133 331.321 17.34C331.001 17.8667 330.548 18.2767 329.961 18.57C329.381 18.8567 328.711 19 327.951 19H324.771V12ZM327.871 17.67C328.571 17.67 329.128 17.4767 329.541 17.09C329.961 16.6967 330.171 16.1667 330.171 15.5C330.171 14.8333 329.961 14.3067 329.541 13.92C329.128 13.5267 328.571 13.33 327.871 13.33H326.391V17.67H327.871ZM231.13 39.12C230.577 39.12 230.04 39.0467 229.52 38.9C229.007 38.7467 228.593 38.55 228.28 38.31L228.83 37.09C229.13 37.31 229.487 37.4867 229.9 37.62C230.313 37.7533 230.727 37.82 231.14 37.82C231.6 37.82 231.94 37.7533 232.16 37.62C232.38 37.48 232.49 37.2967 232.49 37.07C232.49 36.9033 232.423 36.7667 232.29 36.66C232.163 36.5467 231.997 36.4567 231.79 36.39C231.59 36.3233 231.317 36.25 230.97 36.17C230.437 36.0433 230 35.9167 229.66 35.79C229.32 35.6633 229.027 35.46 228.78 35.18C228.54 34.9 228.42 34.5267 228.42 34.06C228.42 33.6533 228.53 33.2867 228.75 32.96C228.97 32.6267 229.3 32.3633 229.74 32.17C230.187 31.9767 230.73 31.88 231.37 31.88C231.817 31.88 232.253 31.9333 232.68 32.04C233.107 32.1467 233.48 32.3 233.8 32.5L233.3 33.73C232.653 33.3633 232.007 33.18 231.36 33.18C230.907 33.18 230.57 33.2533 230.35 33.4C230.137 33.5467 230.03 33.74 230.03 33.98C230.03 34.22 230.153 34.4 230.4 34.52C230.653 34.6333 231.037 34.7467 231.55 34.86C232.083 34.9867 232.52 35.1133 232.86 35.24C233.2 35.3667 233.49 35.5667 233.73 35.84C233.977 36.1133 234.1 36.4833 234.1 36.95C234.1 37.35 233.987 37.7167 233.76 38.05C233.54 38.3767 233.207 38.6367 232.76 38.83C232.313 39.0233 231.77 39.12 231.13 39.12ZM243.167 37.5H239.917L239.297 39H237.637L240.757 32H242.357L245.487 39H243.787L243.167 37.5ZM242.657 36.27L241.547 33.59L240.437 36.27H242.657ZM251.183 33.3V35.15H254.423V36.45H251.183V39H249.563V32H254.853V33.3H251.183ZM264.72 37.7V39H259.3V32H264.59V33.3H260.91V34.82H264.16V36.08H260.91V37.7H264.72ZM278.891 39.12C278.178 39.12 277.531 38.9667 276.951 38.66C276.378 38.3467 275.924 37.9167 275.591 37.37C275.264 36.8167 275.101 36.1933 275.101 35.5C275.101 34.8067 275.264 34.1867 275.591 33.64C275.924 33.0867 276.378 32.6567 276.951 32.35C277.531 32.0367 278.181 31.88 278.901 31.88C279.508 31.88 280.054 31.9867 280.541 32.2C281.034 32.4133 281.448 32.72 281.781 33.12L280.741 34.08C280.268 33.5333 279.681 33.26 278.981 33.26C278.548 33.26 278.161 33.3567 277.821 33.55C277.481 33.7367 277.214 34 277.021 34.34C276.834 34.68 276.741 35.0667 276.741 35.5C276.741 35.9333 276.834 36.32 277.021 36.66C277.214 37 277.481 37.2667 277.821 37.46C278.161 37.6467 278.548 37.74 278.981 37.74C279.681 37.74 280.268 37.4633 280.741 36.91L281.781 37.87C281.448 38.2767 281.034 38.5867 280.541 38.8C280.048 39.0133 279.498 39.12 278.891 39.12ZM292.645 32V39H291.025V36.13H287.845V39H286.225V32H287.845V34.76H291.025V32H292.645ZM303.071 37.7V39H297.651V32H302.941V33.3H299.261V34.82H302.511V36.08H299.261V37.7H303.071ZM311.041 39.12C310.327 39.12 309.681 38.9667 309.101 38.66C308.527 38.3467 308.074 37.9167 307.741 37.37C307.414 36.8167 307.251 36.1933 307.251 35.5C307.251 34.8067 307.414 34.1867 307.741 33.64C308.074 33.0867 308.527 32.6567 309.101 32.35C309.681 32.0367 310.331 31.88 311.051 31.88C311.657 31.88 312.204 31.9867 312.691 32.2C313.184 32.4133 313.597 32.72 313.931 33.12L312.891 34.08C312.417 33.5333 311.831 33.26 311.131 33.26C310.697 33.26 310.311 33.3567 309.971 33.55C309.631 33.7367 309.364 34 309.171 34.34C308.984 34.68 308.891 35.0667 308.891 35.5C308.891 35.9333 308.984 36.32 309.171 36.66C309.364 37 309.631 37.2667 309.971 37.46C310.311 37.6467 310.697 37.74 311.131 37.74C311.831 37.74 312.417 37.4633 312.891 36.91L313.931 37.87C313.597 38.2767 313.184 38.5867 312.691 38.8C312.197 39.0133 311.647 39.12 311.041 39.12ZM320.925 36.25L319.985 37.23V39H318.375V32H319.985V35.27L323.085 32H324.885L321.985 35.12L325.055 39H323.165L320.925 36.25ZM332.263 39.12C331.536 39.12 330.88 38.9633 330.293 38.65C329.713 38.3367 329.256 37.9067 328.923 37.36C328.596 36.8067 328.433 36.1867 328.433 35.5C328.433 34.8133 328.596 34.1967 328.923 33.65C329.256 33.0967 329.713 32.6633 330.293 32.35C330.88 32.0367 331.536 31.88 332.263 31.88C332.99 31.88 333.643 32.0367 334.223 32.35C334.803 32.6633 335.26 33.0967 335.593 33.65C335.926 34.1967 336.093 34.8133 336.093 35.5C336.093 36.1867 335.926 36.8067 335.593 37.36C335.26 37.9067 334.803 38.3367 334.223 38.65C333.643 38.9633 332.99 39.12 332.263 39.12ZM332.263 37.74C332.676 37.74 333.05 37.6467 333.383 37.46C333.716 37.2667 333.976 37 334.163 36.66C334.356 36.32 334.453 35.9333 334.453 35.5C334.453 35.0667 334.356 34.68 334.163 34.34C333.976 34 333.716 33.7367 333.383 33.55C333.05 33.3567 332.676 33.26 332.263 33.26C331.85 33.26 331.476 33.3567 331.143 33.55C330.81 33.7367 330.546 34 330.353 34.34C330.166 34.68 330.073 35.0667 330.073 35.5C330.073 35.9333 330.166 36.32 330.353 36.66C330.546 37 330.81 37.2667 331.143 37.46C331.476 37.6467 331.85 37.74 332.263 37.74ZM343.77 39.12C342.77 39.12 341.99 38.8433 341.43 38.29C340.877 37.7367 340.6 36.9467 340.6 35.92V32H342.22V35.86C342.22 37.1133 342.74 37.74 343.78 37.74C344.287 37.74 344.674 37.59 344.94 37.29C345.207 36.9833 345.34 36.5067 345.34 35.86V32H346.94V35.92C346.94 36.9467 346.66 37.7367 346.1 38.29C345.547 38.8433 344.77 39.12 343.77 39.12ZM353.224 33.32H350.984V32H357.084V33.32H354.844V39H353.224V33.32Z" fill="#797F8F"/>
<path d="M196.615 1.04785C191.72 4.09744 188.348 7.47772 181 7.47772V23.2033C181 29.4357 184.16 35.2409 189.391 38.6281L196.615 43.3012L203.84 38.6258C209.071 35.241 212.231 29.438 212.231 23.2056C212.231 15.9789 212.231 7.47772 212.231 7.47772C204.882 7.47772 201.236 3.95507 196.615 1.04785Z" stroke="#797F8F" stroke-width="2" stroke-miterlimit="10" stroke-linecap="round" stroke-linejoin="round"/>
<path d="M206.719 14.8262L194.778 30.4415L188.348 24.0117" stroke="#797F8F" stroke-width="2" stroke-miterlimit="10" stroke-linecap="round" stroke-linejoin="round"/>
</svg>
