<svg width="25" height="25" viewBox="0 0 25 25" fill="none" xmlns="http://www.w3.org/2000/svg">
<path d="M23.599 0H3.96354C3.1875 0 2.5625 0.609056 2.5625 1.3653V6.95339H1.27604C0.567708 6.95339 0 7.51169 0 8.19688V23.1187C0 23.809 0.567708 24.3622 1.27604 24.3622H19.1406C19.849 24.3622 20.4167 23.809 20.4167 23.1187V19.1345H23.599C24.375 19.1345 25 18.5204 25 17.7641V1.3653C25 0.609056 24.375 0 23.599 0ZM19.4375 1.45666C19.9583 1.45666 20.375 1.86777 20.375 2.36517C20.375 2.86764 19.9583 3.27875 19.4375 3.27875C18.9219 3.27875 18.5 2.86764 18.5 2.36517C18.5052 1.86777 18.9219 1.45666 19.4375 1.45666ZM16.2969 1.45666C16.8177 1.45666 17.2344 1.86777 17.2344 2.36517C17.2344 2.86764 16.8177 3.27875 16.2969 3.27875C15.7812 3.27875 15.3594 2.86764 15.3594 2.36517C15.3594 1.86777 15.7812 1.45666 16.2969 1.45666ZM18.5677 22.4031H1.84375V11.5974H18.5677V22.4031ZM11.6458 9.11046C11.6458 8.65367 12.0312 8.28316 12.4948 8.28316C12.9687 8.28316 13.3437 8.65875 13.3437 9.11046C13.3437 9.56725 12.9635 9.93776 12.4948 9.93776C12.0312 9.93776 11.6458 9.56725 11.6458 9.11046ZM14.5052 9.11046C14.5052 8.65367 14.8854 8.28316 15.3542 8.28316C15.8281 8.28316 16.2031 8.65875 16.2031 9.11046C16.2031 9.56725 15.8229 9.93776 15.3542 9.93776C14.8854 9.93776 14.5052 9.56725 14.5052 9.11046ZM18.2135 9.93776C17.7448 9.93776 17.3646 9.56725 17.3646 9.11046C17.3646 8.65367 17.75 8.28316 18.2135 8.28316C18.6875 8.28316 19.0625 8.65875 19.0625 9.11046C19.0625 9.56725 18.6823 9.93776 18.2135 9.93776ZM22.9687 16.9774H20.4167V8.19688C20.4167 7.50661 19.849 6.95339 19.1406 6.95339H4.58854V5.10084H22.9687V16.9774ZM22.5781 3.27875C22.0625 3.27875 21.6406 2.86764 21.6406 2.36517C21.6406 1.8627 22.0625 1.45666 22.5781 1.45666C23.099 1.45666 23.5156 1.86777 23.5156 2.36517C23.5156 2.86764 23.099 3.27875 22.5781 3.27875Z" fill="#1F2A44"/>
</svg>
