<svg width="25" height="25" viewBox="0 0 25 25" fill="none" xmlns="http://www.w3.org/2000/svg">
<path d="M12.5 0C5.59593 0 0 5.59593 0 12.5C0 19.4041 5.59593 25 12.5 25C19.4041 25 25 19.4041 25 12.5C25 5.59593 19.4041 0 12.5 0ZM12.5 22.093C7.19477 22.093 2.90698 17.781 2.90698 12.5C2.90698 7.21899 7.21899 2.90698 12.5 2.90698C17.8052 2.90698 22.093 7.21899 22.093 12.5C22.093 17.781 17.8052 22.093 12.5 22.093Z" fill="#FBE122"/>
<path d="M12.5 5.74127C8.76938 5.74127 5.7655 8.76937 5.7655 12.4758C5.7655 16.1822 8.7936 19.2103 12.5 19.2103C16.2306 19.2103 19.2345 16.1822 19.2345 12.4758C19.2345 8.76937 16.2064 5.74127 12.5 5.74127Z" fill="#FBE122"/>
</svg>
