<svg viewBox="0 0 12 9" fill="none" xmlns="http://www.w3.org/2000/svg">
<path d="M11.6289 1.83795C11.6719 2.00983 11.7077 2.22467 11.7363 2.48248C11.7793 2.7403 11.8079 2.99811 11.8223 3.25592C11.8366 3.49941 11.8438 3.72858 11.8438 3.94342C11.8581 4.15826 11.8652 4.3373 11.8652 4.48053V4.67389C11.8652 5.96295 11.7865 6.91543 11.6289 7.53131C11.5573 7.7748 11.4284 7.98964 11.2422 8.17584C11.056 8.36204 10.834 8.49095 10.5762 8.56256C10.304 8.63418 9.78841 8.69147 9.0293 8.73444C8.27018 8.76308 7.57552 8.78457 6.94531 8.79889H6C3.55078 8.79889 2.02539 8.72011 1.42383 8.56256C0.865234 8.40501 0.514323 8.06126 0.371094 7.53131C0.299479 7.25918 0.242188 6.88678 0.199219 6.41412C0.170573 5.92714 0.149089 5.51894 0.134766 5.18951V4.67389C0.134766 3.39915 0.213542 2.45384 0.371094 1.83795C0.442708 1.58014 0.571615 1.35813 0.757812 1.17194C0.94401 0.985738 1.16602 0.856832 1.42383 0.785217C1.69596 0.713603 2.21159 0.663472 2.9707 0.634827C3.72982 0.591858 4.42448 0.563212 5.05469 0.548889H6C8.44922 0.548889 9.97461 0.627665 10.5762 0.785217C10.834 0.856832 11.056 0.985738 11.2422 1.17194C11.4284 1.35813 11.5573 1.58014 11.6289 1.83795ZM4.79688 6.43561L7.86914 4.67389L4.79688 2.93365V6.43561Z" fill="#797F8F"/>
</svg>
