<svg width="1283" height="1314" viewBox="0 0 1283 1314" fill="none" xmlns="http://www.w3.org/2000/svg">
<path opacity="0.21775" fill-rule="evenodd" clip-rule="evenodd" d="M1028.41 495.515C849.768 374.88 481.506 586.417 298.704 434.054C238.948 384.232 154.589 378.89 99.5775 433.819C44.5911 488.782 39.6746 583.337 99.5437 633.023C232.372 743.338 480.749 569.035 586.304 842.376C613.904 902.722 644.003 946.849 696.211 982.526C830.752 1074.41 1027.19 1043.81 1118.83 909.27C1216.55 765.884 1163.45 586.692 1028.41 495.515Z" fill="#D6DAE4"/>
<path opacity="0.08238" d="M1241 236.456C1208.67 222.735 1172.12 223.088 1139.92 237.111C1107.72 251.135 1071.17 251.305 1038.84 237.583L1036.61 236.639M831.388 451.438C799.058 437.716 762.507 438.069 730.307 452.093C698.106 466.116 661.555 466.286 629.226 452.565L627 451.62L831.388 451.438ZM1036.19 451.438C1003.86 437.716 967.313 438.069 935.113 452.093C902.913 466.116 866.362 466.286 834.032 452.565L831.807 451.62L1036.19 451.438ZM1241 451.438C1208.67 437.716 1172.12 438.069 1139.92 452.093C1107.72 466.116 1071.17 466.286 1038.84 452.565L1036.61 451.62L1241 451.438ZM831.388 248.17C799.058 234.449 762.507 234.802 730.307 248.825C698.106 262.849 661.555 263.02 629.226 249.297L627 248.353L831.388 248.17ZM831.388 258.812C799.058 245.091 762.507 245.445 730.307 259.467C698.106 273.49 661.555 273.661 629.226 259.939L627 258.995L831.388 258.812ZM831.388 269.455C799.058 255.732 762.507 256.085 730.307 270.109C698.106 284.132 661.555 284.303 629.226 270.581L627 269.637L831.388 269.455ZM831.388 280.096C799.058 266.374 762.507 266.728 730.307 280.751C698.106 294.774 661.555 294.945 629.226 281.223L627 280.278L831.388 280.096ZM831.388 290.738C799.058 277.016 762.507 277.37 730.307 291.392C698.106 305.416 661.555 305.587 629.226 291.865L627 290.92L831.388 290.738ZM831.388 301.38C799.058 287.659 762.507 288.012 730.307 302.034C698.106 316.057 661.555 316.228 629.226 302.507L627 301.562L831.388 301.38ZM831.388 312.022C799.058 298.3 762.507 298.653 730.307 312.676C698.106 326.699 661.555 326.87 629.226 313.149L627 312.204L831.388 312.022ZM831.388 322.663C799.058 308.942 762.507 309.295 730.307 323.319C698.106 337.341 661.555 337.512 629.226 323.791L627 322.845L831.388 322.663ZM831.388 333.305C799.058 319.584 762.507 319.937 730.307 333.96C698.106 347.983 661.555 348.154 629.226 334.432L627 333.487L831.388 333.305ZM831.388 343.947C799.058 330.226 762.507 330.579 730.307 344.602C698.106 358.624 661.555 358.795 629.226 345.074L627 344.129L831.388 343.947ZM831.388 354.589C799.058 340.867 762.507 341.22 730.307 355.244C698.106 369.267 661.555 369.437 629.226 355.716L627 354.772L831.388 354.589ZM831.388 365.23C799.058 351.509 762.507 351.862 730.307 365.886C698.106 379.909 661.555 380.079 629.226 366.358L627 365.413L831.388 365.23ZM831.388 375.872C799.058 362.151 762.507 362.504 730.307 376.527C698.106 390.551 661.555 390.721 629.226 376.999L627 376.055L831.388 375.872ZM831.388 386.514C799.058 372.793 762.507 373.146 730.307 387.169C698.106 401.192 661.555 401.362 629.226 387.641L627 386.697L831.388 386.514ZM831.388 397.157C799.058 383.434 762.507 383.787 730.307 397.811C698.106 411.834 661.555 412.004 629.226 398.283L627 397.339L831.388 397.157ZM831.388 407.797C799.058 394.076 762.507 394.429 730.307 408.453C698.106 422.476 661.555 422.647 629.226 408.925L627 407.98L831.388 407.797ZM831.388 418.44C799.058 404.718 762.507 405.071 730.307 419.094C698.106 433.118 661.555 433.289 629.226 419.566L627 418.622L831.388 418.44ZM831.388 429.082C799.058 415.36 762.507 415.713 730.307 429.736C698.106 443.759 661.555 443.93 629.226 430.208L627 429.264L831.388 429.082ZM831.388 439.724C799.058 426.001 762.507 426.354 730.307 440.378C698.106 454.401 661.555 454.572 629.226 440.851L627 439.906L831.388 439.724ZM1036.19 248.17C1003.86 234.449 967.313 234.802 935.113 248.825C902.913 262.849 866.362 263.02 834.032 249.297L831.807 248.353L1036.19 248.17ZM1036.19 258.812C1003.86 245.091 967.313 245.445 935.113 259.467C902.913 273.49 866.362 273.661 834.032 259.939L831.807 258.995L1036.19 258.812ZM1036.19 269.455C1003.86 255.732 967.313 256.085 935.113 270.109C902.913 284.132 866.362 284.303 834.032 270.581L831.807 269.637L1036.19 269.455ZM1036.19 280.096C1003.86 266.374 967.313 266.728 935.113 280.751C902.913 294.774 866.362 294.945 834.032 281.223L831.807 280.278L1036.19 280.096ZM1036.19 290.738C1003.86 277.016 967.313 277.37 935.113 291.392C902.913 305.416 866.362 305.587 834.032 291.865L831.807 290.92L1036.19 290.738ZM1036.19 301.38C1003.86 287.659 967.313 288.012 935.113 302.034C902.913 316.057 866.362 316.228 834.032 302.507L831.807 301.562L1036.19 301.38ZM1036.19 312.022C1003.86 298.3 967.313 298.653 935.113 312.676C902.913 326.699 866.362 326.87 834.032 313.149L831.807 312.204L1036.19 312.022ZM1036.19 322.663C1003.86 308.942 967.313 309.295 935.113 323.319C902.913 337.341 866.362 337.512 834.032 323.791L831.807 322.845L1036.19 322.663ZM1036.19 333.305C1003.86 319.584 967.313 319.937 935.113 333.96C902.913 347.983 866.362 348.154 834.032 334.432L831.807 333.487L1036.19 333.305ZM1036.19 343.947C1003.86 330.226 967.313 330.579 935.113 344.602C902.913 358.624 866.362 358.795 834.032 345.074L831.807 344.129L1036.19 343.947ZM1036.19 354.589C1003.86 340.867 967.313 341.22 935.113 355.244C902.913 369.267 866.362 369.437 834.032 355.716L831.807 354.772L1036.19 354.589ZM1036.19 365.23C1003.86 351.509 967.313 351.862 935.113 365.886C902.913 379.909 866.362 380.079 834.032 366.358L831.807 365.413L1036.19 365.23ZM1036.19 375.872C1003.86 362.151 967.313 362.504 935.113 376.527C902.913 390.551 866.362 390.721 834.032 376.999L831.807 376.055L1036.19 375.872ZM1036.19 386.514C1003.86 372.793 967.313 373.146 935.113 387.169C902.913 401.192 866.362 401.362 834.032 387.641L831.807 386.697L1036.19 386.514ZM1036.19 397.157C1003.86 383.434 967.313 383.787 935.113 397.811C902.913 411.834 866.362 412.004 834.032 398.283L831.807 397.339L1036.19 397.157ZM1036.19 407.797C1003.86 394.076 967.313 394.429 935.113 408.453C902.913 422.476 866.362 422.647 834.032 408.925L831.807 407.98L1036.19 407.797ZM1036.19 418.44C1003.86 404.718 967.313 405.071 935.113 419.094C902.913 433.118 866.362 433.289 834.032 419.566L831.807 418.622L1036.19 418.44ZM1036.19 429.082C1003.86 415.36 967.313 415.713 935.113 429.736C902.913 443.759 866.362 443.93 834.032 430.208L831.807 429.264L1036.19 429.082ZM1036.19 439.724C1003.86 426.001 967.313 426.354 935.113 440.378C902.913 454.401 866.362 454.572 834.032 440.851L831.807 439.906L1036.19 439.724ZM1241 248.17C1208.67 234.449 1172.12 234.802 1139.92 248.825C1107.72 262.849 1071.17 263.02 1038.84 249.297L1036.61 248.353L1241 248.17ZM1241 258.812C1208.67 245.091 1172.12 245.445 1139.92 259.467C1107.72 273.49 1071.17 273.661 1038.84 259.939L1036.61 258.995L1241 258.812ZM1241 269.455C1208.67 255.732 1172.12 256.085 1139.92 270.109C1107.72 284.132 1071.17 284.303 1038.84 270.581L1036.61 269.637L1241 269.455ZM1241 280.096C1208.67 266.374 1172.12 266.728 1139.92 280.751C1107.72 294.774 1071.17 294.945 1038.84 281.223L1036.61 280.278L1241 280.096ZM1241 290.738C1208.67 277.016 1172.12 277.37 1139.92 291.392C1107.72 305.416 1071.17 305.587 1038.84 291.865L1036.61 290.92L1241 290.738ZM1241 301.38C1208.67 287.659 1172.12 288.012 1139.92 302.034C1107.72 316.057 1071.17 316.228 1038.84 302.507L1036.61 301.562L1241 301.38ZM1241 312.022C1208.67 298.3 1172.12 298.653 1139.92 312.676C1107.72 326.699 1071.17 326.87 1038.84 313.149L1036.61 312.204L1241 312.022ZM1241 322.663C1208.67 308.942 1172.12 309.295 1139.92 323.319C1107.72 337.341 1071.17 337.512 1038.84 323.791L1036.61 322.845L1241 322.663ZM1241 333.305C1208.67 319.584 1172.12 319.937 1139.92 333.96C1107.72 347.983 1071.17 348.154 1038.84 334.432L1036.61 333.487L1241 333.305ZM1241 343.947C1208.67 330.226 1172.12 330.579 1139.92 344.602C1107.72 358.624 1071.17 358.795 1038.84 345.074L1036.61 344.129L1241 343.947ZM1241 354.589C1208.67 340.867 1172.12 341.22 1139.92 355.244C1107.72 369.267 1071.17 369.437 1038.84 355.716L1036.61 354.772L1241 354.589ZM1241 365.23C1208.67 351.509 1172.12 351.862 1139.92 365.886C1107.72 379.909 1071.17 380.079 1038.84 366.358L1036.61 365.413L1241 365.23ZM1241 375.872C1208.67 362.151 1172.12 362.504 1139.92 376.527C1107.72 390.551 1071.17 390.721 1038.84 376.999L1036.61 376.055L1241 375.872ZM1241 386.514C1208.67 372.793 1172.12 373.146 1139.92 387.169C1107.72 401.192 1071.17 401.362 1038.84 387.641L1036.61 386.697L1241 386.514ZM1241 397.157C1208.67 383.434 1172.12 383.787 1139.92 397.811C1107.72 411.834 1071.17 412.004 1038.84 398.283L1036.61 397.339L1241 397.157ZM1241 407.797C1208.67 394.076 1172.12 394.429 1139.92 408.453C1107.72 422.476 1071.17 422.647 1038.84 408.925L1036.61 407.98L1241 407.797ZM1241 418.44C1208.67 404.718 1172.12 405.071 1139.92 419.094C1107.72 433.118 1071.17 433.289 1038.84 419.566L1036.61 418.622L1241 418.44ZM1241 429.082C1208.67 415.36 1172.12 415.713 1139.92 429.736C1107.72 443.759 1071.17 443.93 1038.84 430.208L1036.61 429.264L1241 429.082ZM1241 439.724C1208.67 426.001 1172.12 426.354 1139.92 440.378C1107.72 454.401 1071.17 454.572 1038.84 440.851L1036.61 439.906L1241 439.724ZM831.388 225.814C799.058 212.093 762.507 212.446 730.307 226.47C698.106 240.493 661.555 240.663 629.226 226.942L627 225.996L831.388 225.814ZM831.388 236.456C799.058 222.735 762.507 223.088 730.307 237.111C698.106 251.135 661.555 251.305 629.226 237.583L627 236.639L831.388 236.456ZM1036.19 225.814C1003.86 212.093 967.313 212.446 935.113 226.47C902.913 240.493 866.362 240.663 834.032 226.942L831.807 225.996L1036.19 225.814ZM1036.19 236.456C1003.86 222.735 967.313 223.088 935.113 237.111C902.913 251.135 866.362 251.305 834.032 237.583L831.807 236.639L1036.19 236.456ZM1241 225.814C1208.67 212.093 1172.12 212.446 1139.92 226.47C1107.72 240.493 1071.17 240.663 1038.84 226.942L1036.61 225.996L1241 225.814Z" stroke="#92C8E7" stroke-width="1.072" stroke-linecap="square"/>
</svg>
