<svg width="37" height="31" viewBox="0 0 37 31" fill="none" xmlns="http://www.w3.org/2000/svg">
<rect y="7" width="24" height="24" fill="white"/>
<path fill-rule="evenodd" clip-rule="evenodd" d="M21.312 28.312V9.688H2.688V28.312H21.312ZM21.312 7C22.0373 7 22.6667 7.26666 23.2 7.8C23.7333 8.33334 24 8.96266 24 9.688V28.312C24 29.0373 23.7333 29.6667 23.2 30.2C22.6667 30.7333 22.0373 31 21.312 31H2.688C1.96266 31 1.33334 30.7333 0.8 30.2C0.266664 29.6667 0 29.0373 0 28.312V9.688C0 8.96266 0.266664 8.33334 0.8 7.8C1.33334 7.26666 1.96266 7 2.688 7H21.312Z" fill="#797F8F"/>
<path d="M13.4232 23.3066L5 14.3916" stroke="#1F2A43" stroke-width="4" stroke-linecap="round" stroke-linejoin="round"/>
<path d="M13.5766 23L34.5 2.07764" stroke="#1F2A43" stroke-width="4" stroke-linecap="round" stroke-linejoin="round"/>
</svg>
