<svg width="35" height="29" viewBox="0 0 35 29" fill="none" xmlns="http://www.w3.org/2000/svg">
<rect y="5" width="24" height="24" fill="white"/>
<path fill-rule="evenodd" clip-rule="evenodd" d="M21.312 26.312V7.688H2.688V26.312H21.312ZM21.312 5C22.0373 5 22.6667 5.26666 23.2 5.8C23.7333 6.33334 24 6.96266 24 7.688V26.312C24 27.0373 23.7333 27.6667 23.2 28.2C22.6667 28.7333 22.0373 29 21.312 29H2.688C1.96266 29 1.33334 28.7333 0.8 28.2C0.266664 27.6667 0 27.0373 0 26.312V7.688C0 6.96266 0.266664 6.33334 0.8 5.8C1.33334 5.26666 1.96266 5 2.688 5H21.312Z" fill="#797F8F"/>
</svg>
