<svg viewBox="0 0 30 30" fill="none" xmlns="http://www.w3.org/2000/svg">
<path d="M15 30C23.2843 30 30 23.2843 30 15C30 6.71573 23.2843 0 15 0C6.71573 0 0 6.71573 0 15C0 23.2843 6.71573 30 15 30Z" fill="#D2D4DA"/>
<path fill-rule="evenodd" clip-rule="evenodd" d="M18.3954 6.69182V9.34361H16.8184C16.2425 9.34361 15.8541 9.46415 15.6532 9.70522C15.4523 9.94629 15.3518 10.3079 15.3518 10.79V12.6885H18.2949L17.9032 15.6617H15.3518V23.2856H12.2782V15.6617H9.7168V12.6885H12.2782V10.4987C12.2782 9.2532 12.6264 8.28725 13.3228 7.60086C14.0193 6.91448 14.9467 6.57129 16.1052 6.57129C17.0896 6.57129 17.853 6.61147 18.3954 6.69182Z" fill="white"/>
</svg>
