<svg viewBox="0 0 30 30" fill="none" xmlns="http://www.w3.org/2000/svg">
<circle cx="15" cy="15" r="15" fill="#D2D4DA"/>
<path d="M15.2894 19.8383C12.7552 19.8383 10.6938 17.7769 10.6938 15.2439C10.6938 12.7098 12.7552 10.6484 15.2894 10.6484C17.8235 10.6484 19.8837 12.7098 19.8837 15.2439C19.8837 17.7769 17.8223 19.8383 15.2894 19.8383ZM15.2894 12.1783C13.5996 12.1783 12.2237 13.553 12.2237 15.2439C12.2237 16.9337 13.5984 18.3096 15.2894 18.3096C16.9792 18.3096 18.355 16.9349 18.355 15.2439C18.3538 13.553 16.9792 12.1783 15.2894 12.1783Z" fill="white"/>
<path d="M19.5624 24.1854H11.0146C8.44051 24.1854 6.34619 22.0911 6.34619 19.517V10.9692C6.34619 8.3951 8.44051 6.30078 11.0146 6.30078H19.5624C22.1365 6.30078 24.2308 8.3951 24.2308 10.9692V19.517C24.2308 22.0911 22.1365 24.1854 19.5624 24.1854ZM11.0146 7.82948C9.28365 7.82948 7.87489 9.23824 7.87489 10.9692V19.517C7.87489 21.2479 9.28365 22.6567 11.0146 22.6567H19.5624C21.2933 22.6567 22.7021 21.2479 22.7021 19.517V10.9692C22.7021 9.23824 21.2933 7.82948 19.5624 7.82948H11.0146Z" fill="white"/>
<path d="M20.0125 11.4972C20.5957 11.4972 21.0685 11.0244 21.0685 10.4412C21.0685 9.85803 20.5957 9.38525 20.0125 9.38525C19.4293 9.38525 18.9565 9.85803 18.9565 10.4412C18.9565 11.0244 19.4293 11.4972 20.0125 11.4972Z" fill="white"/>
</svg>
