<svg viewBox="0 0 30 30" fill="none" xmlns="http://www.w3.org/2000/svg">
<path d="M15 30C23.2843 30 30 23.2843 30 15C30 6.71573 23.2843 0 15 0C6.71573 0 0 6.71573 0 15C0 23.2843 6.71573 30 15 30Z" fill="#D2D4DA"/>
<path fill-rule="evenodd" clip-rule="evenodd" d="M23.0349 10.6694C22.5863 11.3256 22.0439 11.8848 21.4077 12.3468C21.4144 12.4406 21.4178 12.5812 21.4178 12.7687C21.4178 13.6392 21.2905 14.5081 21.0361 15.3753C20.7816 16.2425 20.3949 17.0745 19.8759 17.8714C19.3569 18.6683 18.7392 19.373 18.0227 19.9858C17.3061 20.5985 16.4423 21.0873 15.4312 21.4523C14.42 21.8172 13.3385 21.9997 12.1867 21.9997C10.372 21.9997 8.71129 21.5142 7.20459 20.5432C7.43897 20.57 7.70012 20.5834 7.98807 20.5834C9.49478 20.5834 10.8374 20.1214 12.016 19.1973C11.3128 19.1839 10.6834 18.9679 10.1276 18.5494C9.57177 18.1309 9.19008 17.5968 8.98249 16.9473C9.20347 16.9807 9.40771 16.9975 9.59521 16.9975C9.88316 16.9975 10.1678 16.9607 10.449 16.887C9.69901 16.733 9.07792 16.3597 8.58573 15.767C8.09354 15.1744 7.84745 14.4863 7.84745 13.7028V13.6627C8.30281 13.9171 8.79164 14.0544 9.31396 14.0745C8.872 13.7799 8.52044 13.3948 8.25928 12.9194C7.99812 12.4439 7.86754 11.9283 7.86754 11.3725C7.86754 10.7832 8.01486 10.2374 8.3095 9.73521C9.11977 10.733 10.1058 11.5315 11.2676 12.1309C12.4295 12.7302 13.6733 13.0633 14.9992 13.1303C14.9457 12.8758 14.9189 12.6281 14.9189 12.387C14.9189 11.4897 15.2353 10.7246 15.8681 10.0918C16.5009 9.45898 17.266 9.14258 18.1633 9.14258C19.1008 9.14258 19.891 9.48409 20.5338 10.1671C21.2637 10.0265 21.9501 9.76535 22.593 9.38365C22.3452 10.1537 21.8698 10.7497 21.1666 11.1716C21.7894 11.1046 22.4122 10.9372 23.0349 10.6694Z" fill="white"/>
</svg>
