<svg width="49" height="115" viewBox="0 0 49 115" fill="none" xmlns="http://www.w3.org/2000/svg">
<path fill-rule="evenodd" clip-rule="evenodd" d="M24.2878 47.5582C37.1494 47.5582 47.5757 37.1358 47.5757 24.2791C47.5757 11.4224 37.1494 1 24.2878 1C11.4263 1 1 11.4224 1 24.2791C1 37.1358 11.4263 47.5582 24.2878 47.5582Z" stroke="#4C5569" stroke-width="2"/>
<path fill-rule="evenodd" clip-rule="evenodd" d="M34.0237 25.0316L19.8935 32.8811C19.7303 32.9733 19.5902 32.984 19.4732 32.913C19.3561 32.8421 19.2976 32.7145 19.2976 32.5301V16.8736C19.2976 16.6892 19.3561 16.5616 19.4732 16.4907C19.5902 16.4198 19.7303 16.4304 19.8935 16.5226L34.0237 24.3722C34.1868 24.4643 34.2684 24.5742 34.2684 24.7019C34.2684 24.8295 34.1868 24.9394 34.0237 25.0316Z" stroke="#4C5569" stroke-width="2"/>
<path fill-rule="evenodd" clip-rule="evenodd" d="M24.2878 113.558C37.1494 113.558 47.5757 103.136 47.5757 90.2791C47.5757 77.4224 37.1494 67 24.2878 67C11.4263 67 1 77.4224 1 90.2791C1 103.136 11.4263 113.558 24.2878 113.558Z" stroke="#6BBEE7" stroke-width="2"/>
<path fill-rule="evenodd" clip-rule="evenodd" d="M34.0237 91.0316L19.8935 98.8811C19.7303 98.9733 19.5902 98.984 19.4732 98.913C19.3561 98.8421 19.2976 98.7145 19.2976 98.5301V82.8736C19.2976 82.6892 19.3561 82.5616 19.4732 82.4907C19.5902 82.4198 19.7303 82.4304 19.8935 82.5226L34.0237 90.3722C34.1868 90.4643 34.2684 90.5742 34.2684 90.7019C34.2684 90.8295 34.1868 90.9394 34.0237 91.0316Z" stroke="#6BBEE7" stroke-width="2"/>
</svg>
