<svg width="25" height="26" viewBox="0 0 25 26" fill="none" xmlns="http://www.w3.org/2000/svg">
<path fill-rule="evenodd" clip-rule="evenodd" d="M25 13.3638C25 15.6151 24.4372 17.6985 23.3115 19.6138C22.1858 21.5291 20.6653 23.0496 18.75 24.1753C16.8347 25.3009 14.7513 25.8638 12.5 25.8638C10.2487 25.8638 8.16532 25.3009 6.25 24.1753C4.33468 23.0496 2.81418 21.5291 1.68851 19.6138C0.562836 17.6985 0 15.6151 0 13.3638C0 11.1124 0.562836 9.02909 1.68851 7.11377C2.81418 5.19845 4.33468 3.67795 6.25 2.55228C8.16532 1.42661 10.2487 0.86377 12.5 0.86377C14.7513 0.86377 16.8347 1.42661 18.75 2.55228C20.6653 3.67795 22.1858 5.19845 23.3115 7.11377C24.4372 9.02909 25 11.1124 25 13.3638ZM11.0383 19.9666L20.3125 10.6924C20.4805 10.558 20.5645 10.3732 20.5645 10.138C20.5645 9.90275 20.4805 9.71794 20.3125 9.58353L19.2036 8.42425C19.0356 8.25624 18.8424 8.17224 18.624 8.17224C18.4056 8.17224 18.2124 8.25624 18.0444 8.42425L10.4839 15.9847L6.95565 12.4565C6.78764 12.2885 6.59442 12.2045 6.37601 12.2045C6.1576 12.2045 5.96438 12.2885 5.79637 12.4565L4.6875 13.6158C4.51949 13.7502 4.43548 13.935 4.43548 14.1702C4.43548 14.4054 4.51949 14.5903 4.6875 14.7247L9.92944 19.9666C10.0638 20.1346 10.2487 20.2186 10.4839 20.2186C10.7191 20.2186 10.9039 20.1346 11.0383 19.9666Z" fill="#1F2A44" fill-opacity="0.5"/>
</svg>
