<svg width="320" height="432" viewBox="0 0 320 432" fill="none" xmlns="http://www.w3.org/2000/svg">
<path fill-rule="evenodd" clip-rule="evenodd" d="M320 11.1763C299.625 18.9988 283.38 20.2721 272.414 20.1728C262.807 20.0857 256.257 19.1091 249.638 18.1223C242.55 17.0655 235.384 15.997 224.301 15.997C216.389 15.997 210.287 17.6117 204.45 19.1563C199.099 20.5722 193.971 21.9292 187.875 21.9292C182.124 21.9292 177.368 20.0366 171.773 17.8103C163.783 14.6308 154.084 10.7708 137.333 10.7708C118.758 10.7708 103.922 16.819 90.4704 22.303C79.3142 26.851 69.1101 31.011 58.5145 31.011C37.2237 31.011 25.9844 24.6742 17.3564 19.8097C11.9818 16.7794 7.62042 14.3204 2.4739 14.3204C1.6548 14.3204 0.829594 14.3865 0 14.5294V432H0.0763293L0.0939863 425.975C20.4556 418.147 36.809 416.746 47.7669 416.846C57.3677 416.933 63.9137 417.91 70.5277 418.898C77.611 419.955 84.7724 421.024 95.8477 421.024C103.755 421.024 109.853 419.409 115.686 417.863C121.034 416.446 126.159 415.088 132.251 415.088C137.998 415.088 142.751 416.982 148.342 419.21C156.326 422.391 166.019 426.254 182.759 426.254C201.321 426.254 216.147 420.202 229.59 414.714C240.739 410.163 250.936 406 261.524 406C282.801 406 294.033 412.341 302.655 417.209C308.026 420.241 312.385 422.702 317.528 422.702C318.346 422.702 319.171 422.636 320 422.493V0L320 11.1763Z" fill="#1F2A44"/>
</svg>
