<svg width="25" height="15" viewBox="0 0 25 15" fill="none" xmlns="http://www.w3.org/2000/svg">
<path d="M24.4219 1.63281L23.3281 0.539062C23.2188 0.429688 23.0729 0.375 22.8906 0.375C22.7083 0.375 22.5443 0.429688 22.3984 0.539062L12.5 10.4375L2.60156 0.539062C2.45573 0.429688 2.29167 0.375 2.10938 0.375C1.92708 0.375 1.78125 0.429688 1.67188 0.539062L0.578125 1.63281C0.46875 1.77865 0.414062 1.94271 0.414062 2.125C0.414062 2.30729 0.46875 2.45312 0.578125 2.5625L12.0625 14.0469C12.1719 14.1562 12.3177 14.2109 12.5 14.2109C12.6823 14.2109 12.8464 14.1562 12.9922 14.0469L24.4219 2.5625C24.5312 2.45312 24.5859 2.30729 24.5859 2.125C24.5859 1.94271 24.5312 1.77865 24.4219 1.63281Z" fill="#BABABA"/>
</svg>
