<svg width="25" height="22" viewBox="0 0 25 22" fill="none" xmlns="http://www.w3.org/2000/svg">
<path fill-rule="evenodd" clip-rule="evenodd" d="M18.8725 16.1765C17.925 16.1765 17.1569 15.4082 17.1569 14.4608C17.1569 13.5134 17.925 12.7451 18.8725 12.7451C19.8201 12.7451 20.5882 13.5134 20.5882 14.4608C20.5882 15.4082 19.8201 16.1765 18.8725 16.1765ZM5.63725 16.1765C4.68968 16.1765 3.92157 15.4082 3.92157 14.4608C3.92157 13.5134 4.68968 12.7451 5.63725 12.7451C6.58483 12.7451 7.35294 13.5134 7.35294 14.4608C7.35294 15.4082 6.58483 16.1765 5.63725 16.1765ZM6.24176 4.73859C6.38451 3.78111 7.27032 2.94118 8.13725 2.94118H16.3725C17.2395 2.94118 18.1253 3.78111 18.268 4.73859L19.1176 9.31373H5.39216L6.24176 4.73859ZM25 7.65338H22.2222L21.3302 4.12604C20.9816 1.85664 18.9583 0 16.6667 0H8.33333C6.04167 0 4.0184 1.85664 3.66979 4.12604L2.77778 7.65338H0V9.74067L1.16458 11.0569C0.867014 11.5624 0.694444 13.5427 0.694444 14.1842V20.1771C0.694444 20.9484 1.31354 21.5686 2.08333 21.5686H4.16667C4.93646 21.5686 5.55556 20.9484 5.55556 20.1771V19.4813H19.4444V20.1771C19.4444 20.9484 20.0635 21.5686 20.8333 21.5686H22.9167C23.6865 21.5686 24.3056 20.9484 24.3056 20.1771V14.1842C24.3056 13.5427 24.133 11.5624 23.8354 11.0569L25 9.74067V7.65338Z" fill="#BABABA"/>
</svg>
