<svg width="27" height="19" viewBox="0 0 27 19" fill="none" xmlns="http://www.w3.org/2000/svg">
<path fill-rule="evenodd" clip-rule="evenodd" d="M8.68843 0C4.18035 0 0.525635 2.96446 0.525635 6.62113C0.525635 7.47418 0.723765 8.28974 1.0855 9.03842C1.24334 9.36374 1.43243 9.67731 1.64906 9.97552L0.759527 14.0741L4.36409 12.2387C5.61823 12.8749 7.09969 13.2436 8.68843 13.2436C13.1961 13.2436 16.8512 10.2787 16.8512 6.62113C16.8512 2.96446 13.1961 0 8.68843 0Z" fill="#BABABA"/>
<path fill-rule="evenodd" clip-rule="evenodd" d="M26.3308 13.9629C26.6963 13.2147 26.8976 12.3997 26.8976 11.5472C26.8976 7.89086 23.2006 4.92578 18.6394 4.92578C18.4818 4.92578 18.3254 4.93075 18.1699 4.93753C18.2871 5.44534 18.3503 5.96986 18.3503 6.50613C18.3503 10.2804 15.3158 13.4646 11.2 14.4169C12.534 16.6361 15.3615 18.169 18.6394 18.169C20.2463 18.169 21.7455 17.8004 23.0139 17.1638L26.6602 18.9999L25.7607 14.9003C25.9802 14.6022 26.1715 14.2891 26.3308 13.9629Z" fill="#BABABA"/>
</svg>
