<svg width="36" height="15" viewBox="0 0 36 15" fill="none" xmlns="http://www.w3.org/2000/svg">
<path d="M34.7145 0H14.8145L24.959 8.73644L34.7145 0Z" fill="#C4E5F5"/>
<path d="M24.9701 10.7028C24.7739 10.7028 24.5777 10.6347 24.4193 10.4984L13.5116 1.10498C13.5077 1.14355 13.5 1.18084 13.5 1.22018V13.7797C13.5 14.4534 14.0518 15.0001 14.7348 15.0001H34.7639C35.4461 15.0001 36 14.4537 36 13.7797V1.22018C36 1.18675 35.9928 1.15564 35.9902 1.12272L25.5327 10.4876C25.3728 10.6311 25.1712 10.7028 24.9701 10.7028Z" fill="#C4E5F5"/>
<path d="M10.125 1.86572H1.125C0.503743 1.86572 0 2.36945 0 2.99069C0 3.61193 0.503743 4.11566 1.125 4.11566H10.125C10.7463 4.11566 11.25 3.61193 11.25 2.99069C11.25 2.36945 10.7463 1.86572 10.125 1.86572Z" fill="#C4E5F5"/>
<path d="M10.125 6.3656H4.5C3.87874 6.3656 3.375 6.86933 3.375 7.49057C3.375 8.11181 3.87874 8.61554 4.5 8.61554H10.125C10.7463 8.61554 11.25 8.11181 11.25 7.49057C11.25 6.86933 10.7463 6.3656 10.125 6.3656Z" fill="#C4E5F5"/>
<path d="M10.125 10.8655H7.875C7.25374 10.8655 6.75 11.3692 6.75 11.9904C6.75 12.6117 7.25374 13.1154 7.875 13.1154H10.125C10.7463 13.1154 11.25 12.6117 11.25 11.9904C11.25 11.3692 10.7463 10.8655 10.125 10.8655Z" fill="#C4E5F5"/>
</svg>
