<svg width="15" height="15" viewBox="0 0 15 15" fill="none" xmlns="http://www.w3.org/2000/svg">
<path d="M14.0427 1.37887L11.445 0.777303C11.1534 0.704386 10.8708 0.740845 10.5974 0.886678C10.324 1.01428 10.1325 1.22392 10.0232 1.51558L8.82005 4.2773C8.71067 4.53251 8.69244 4.79683 8.76536 5.07027C8.83828 5.34371 8.98411 5.57157 9.20286 5.75387L10.2966 6.62887C9.49453 8.10543 8.3552 9.24475 6.87864 10.0468L6.00364 8.95308C5.82135 8.73433 5.59348 8.5885 5.32005 8.51558C5.04661 8.44267 4.78229 8.4609 4.52708 8.57027L1.76536 9.7734C1.47369 9.88277 1.25494 10.0742 1.10911 10.3476C0.981504 10.6211 0.954161 10.9036 1.02708 11.1953L1.62864 13.7929C1.70156 14.0664 1.84739 14.2942 2.06614 14.4765C2.28489 14.6588 2.5401 14.75 2.83176 14.75C5.03749 14.75 7.08828 14.194 8.98411 13.082C10.807 12.0247 12.2562 10.5755 13.3318 8.73433C14.4437 6.85673 14.9997 4.80595 14.9997 2.58199C14.9997 2.29032 14.9086 2.03512 14.7263 1.81637C14.544 1.59762 14.3161 1.45178 14.0427 1.37887ZM2.88645 13.4375L2.31223 10.9492L5.01926 9.80074L6.52317 11.6601C7.87213 11.0403 8.94765 10.3294 9.74973 9.5273C10.57 8.72522 11.2901 7.64058 11.9099 6.2734L10.0505 4.76949L11.199 2.06246L13.6872 2.63668C13.6872 4.5872 13.195 6.401 12.2107 8.07808C11.2445 9.70048 9.95025 10.9948 8.32786 11.9609C6.65078 12.9453 4.83697 13.4375 2.88645 13.4375Z" fill="white"/>
</svg>
