<svg width="22" height="22" viewBox="0 0 22 22" fill="none" xmlns="http://www.w3.org/2000/svg">
<path d="M15.9425 8.61476C16.3191 9.39267 16.5096 10.2216 16.5085 11.0785C16.508 11.5426 16.8846 11.9192 17.3486 11.9198H17.3492C17.8132 11.9198 18.1893 11.5437 18.1899 11.0796C18.1904 9.96657 17.9438 8.89051 17.4557 7.88225C16.851 6.63244 15.9111 5.58552 14.7375 4.85413C13.597 4.14347 12.2844 3.75844 10.9427 3.74051C10.4786 3.73659 10.0969 4.10592 10.0908 4.56998C10.0846 5.03403 10.4562 5.4157 10.9202 5.42187C13.0791 5.45045 15.0031 6.67392 15.9425 8.61476Z" fill="#C4E5F5"/>
<path d="M20.8223 6.25241C19.9054 4.35752 18.479 2.77256 16.6979 1.66847C14.9655 0.59464 12.9737 0.017374 10.9387 0C10.9365 0 10.9336 0 10.9314 0C10.4707 0 10.0947 0.37158 10.0907 0.833393C10.0868 1.29745 10.4601 1.67743 10.9241 1.68136C14.5273 1.71218 17.7403 3.74494 19.3085 6.98492C19.934 8.27676 20.2501 9.65379 20.2489 11.0779C20.2484 11.542 20.6244 11.9186 21.089 11.9191H21.0896C21.5537 11.9191 21.9297 11.5431 21.9303 11.079C21.932 9.39879 21.5593 7.77516 20.8223 6.25241Z" fill="#C4E5F5"/>
<path d="M17.9898 14.9703C17.6922 14.6514 17.2707 14.4681 16.8341 14.4681C16.5136 14.4681 16.2048 14.564 15.9408 14.7456L14.1552 15.8934C13.7959 15.7426 12.5826 15.0673 9.86604 12.1552C7.13327 9.22623 6.55376 7.98146 6.43271 7.61941L7.70269 5.91564C8.18524 5.3081 8.14993 4.42371 7.6203 3.85597L4.83654 0.872123C4.52268 0.535852 4.09674 0.350342 3.63717 0.350342C3.14061 0.350342 2.67655 0.57116 2.36382 0.956191L1.58759 1.91064C0.890392 2.7317 0.541791 3.75005 0.550197 4.93596C0.558044 5.97841 0.843874 7.15704 1.4004 8.43935C2.3358 10.5954 4.07656 13.0962 6.30212 15.4809C7.47178 16.7346 9.31063 18.5258 11.428 19.9398C13.4754 21.3068 15.303 22.0001 16.861 22.0001C17.8738 22.0001 18.7677 21.7041 19.5176 21.1207L20.5186 20.4157C20.9064 20.1427 21.1575 19.7151 21.2062 19.2432C21.255 18.7713 21.0975 18.3016 20.7741 17.9542L17.9898 14.9703Z" fill="#C4E5F5"/>
</svg>
