<svg width="31" height="30" viewBox="0 0 31 30" fill="none" xmlns="http://www.w3.org/2000/svg">
<path fill-rule="evenodd" clip-rule="evenodd" d="M15.2373 30C23.5216 30 30.2373 23.2843 30.2373 15C30.2373 6.71573 23.5216 0 15.2373 0C6.95303 0 0.237305 6.71573 0.237305 15C0.237305 23.2843 6.95303 30 15.2373 30Z" fill="white"/>
<path fill-rule="evenodd" clip-rule="evenodd" d="M11.5056 11.7913V21.7455H8.19085V11.7913H11.5056ZM11.7165 8.71763C11.7232 9.20648 11.5541 9.61495 11.2093 9.94308C10.8644 10.2712 10.4107 10.4353 9.84821 10.4353H9.82812C9.27902 10.4353 8.83706 10.2712 8.50223 9.94308C8.16741 9.61495 8 9.20648 8 8.71763C8 8.2221 8.17243 7.81194 8.5173 7.48717C8.86217 7.16239 9.3125 7 9.8683 7C10.4241 7 10.8694 7.16239 11.2042 7.48717C11.5391 7.81194 11.7098 8.2221 11.7165 8.71763ZM16.6384 13.2058C16.766 13.0048 16.8965 12.8279 17.0301 12.6752C17.1708 12.5145 17.3599 12.3404 17.5977 12.1529C17.8354 11.9654 18.1267 11.8198 18.4715 11.716C18.8164 11.6122 19.1998 11.5603 19.6217 11.5603C20.7667 11.5603 21.6875 11.9403 22.3839 12.7003C23.0804 13.4604 23.4286 14.5737 23.4286 16.0402V21.7455H20.1239V16.4219C20.1239 15.7187 19.9883 15.168 19.7171 14.7695C19.4459 14.3711 19.0223 14.1719 18.4464 14.1719C18.0246 14.1719 17.6713 14.2874 17.3867 14.5184C17.1021 14.7494 16.8895 15.0357 16.7489 15.3772C16.6752 15.5781 16.6384 15.8493 16.6384 16.1908V21.7455H13.3337C13.3471 19.0736 13.3538 16.9074 13.3538 15.2467C13.3538 13.5859 13.3504 12.5949 13.3438 12.2734L13.3337 11.7913H16.6384V13.2058V13.2058Z" fill="#1F2A44"/>
</svg>
