<svg width="30" height="30" viewBox="0 0 30 30" fill="none" xmlns="http://www.w3.org/2000/svg">
<path fill-rule="evenodd" clip-rule="evenodd" d="M15 30C23.2843 30 30 23.2843 30 15C30 6.71573 23.2843 0 15 0C6.71573 0 0 6.71573 0 15C0 23.2843 6.71573 30 15 30Z" fill="white"/>
<path fill-rule="evenodd" clip-rule="evenodd" d="M21.3437 14.9453C21.3437 16.2213 21.0703 17.3607 20.5234 18.3633C19.9765 19.3659 19.2064 20.1497 18.2129 20.7148C17.2194 21.2799 16.0755 21.5625 14.7812 21.5625C13.5599 21.5625 12.4297 21.2571 11.3906 20.6465C10.3516 20.0358 9.52669 19.2109 8.91601 18.1719C8.30534 17.1328 8 16.0026 8 14.7812C8 13.5599 8.30534 12.4297 8.91601 11.3906C9.52669 10.3516 10.3516 9.52669 11.3906 8.91601C12.4297 8.30534 13.5599 8 14.7812 8C16.5495 8 18.0625 8.59245 19.3203 9.77734L17.4883 11.5547C16.9049 10.9896 16.2031 10.6523 15.3828 10.543C14.6172 10.4336 13.8607 10.543 13.1133 10.8711C12.3659 11.1992 11.7643 11.6914 11.3086 12.3476C10.8164 13.0586 10.5703 13.8698 10.5703 14.7812C10.5703 15.5651 10.7617 16.2806 11.1445 16.9277C11.5273 17.5748 12.0378 18.0944 12.6758 18.4863C13.3138 18.8782 14.0156 19.0742 14.7812 19.0742C15.6015 19.0742 16.3216 18.8919 16.9414 18.5273C17.4336 18.2357 17.8437 17.8437 18.1719 17.3515C18.4088 16.9505 18.5638 16.5495 18.6367 16.1484H14.7812V13.7969H21.2343C21.3073 14.1979 21.3437 14.5807 21.3437 14.9453Z" fill="#1F2A44"/>
</svg>
