<svg width="31" height="30" viewBox="0 0 31 30" fill="none" xmlns="http://www.w3.org/2000/svg">
<path fill-rule="evenodd" clip-rule="evenodd" d="M15.2373 30C23.5216 30 30.2373 23.2843 30.2373 15C30.2373 6.71573 23.5216 0 15.2373 0C6.95303 0 0.237305 6.71573 0.237305 15C0.237305 23.2843 6.95303 30 15.2373 30Z" fill="white"/>
<path fill-rule="evenodd" clip-rule="evenodd" d="M23.8304 10.5268C23.3817 11.183 22.8393 11.7422 22.2031 12.2042C22.2098 12.298 22.2132 12.4386 22.2132 12.6261C22.2132 13.4967 22.0859 14.3655 21.8315 15.2327C21.577 16.0999 21.1903 16.9319 20.6713 17.7288C20.1523 18.5257 19.5346 19.2305 18.8181 19.8432C18.1016 20.4559 17.2377 20.9448 16.2266 21.3097C15.2154 21.6747 14.1339 21.8571 12.9821 21.8571C11.1674 21.8571 9.5067 21.3717 8 20.4007C8.23438 20.4275 8.49553 20.4408 8.78348 20.4408C10.2902 20.4408 11.6328 19.9788 12.8114 19.0547C12.1083 19.0413 11.4788 18.8253 10.923 18.4068C10.3672 17.9883 9.98549 17.4542 9.7779 16.8047C9.99889 16.8382 10.2031 16.8549 10.3906 16.8549C10.6786 16.8549 10.9632 16.8181 11.2444 16.7444C10.4944 16.5904 9.87333 16.2171 9.38114 15.6244C8.88895 15.0318 8.64286 14.3438 8.64286 13.5603V13.5201C9.09822 13.7746 9.58705 13.9118 10.1094 13.9319C9.66741 13.6373 9.31585 13.2522 9.05469 12.7768C8.79353 12.3013 8.66295 11.7857 8.66295 11.2299C8.66295 10.6406 8.81027 10.0949 9.10491 9.59263C9.91518 10.5904 10.9012 11.3889 12.0631 11.9883C13.2249 12.5876 14.4687 12.9208 15.7946 12.9877C15.7411 12.7333 15.7143 12.4855 15.7143 12.2444C15.7143 11.3471 16.0307 10.582 16.6635 9.94922C17.2963 9.3164 18.0614 9 18.9587 9C19.8962 9 20.6864 9.34151 21.3292 10.0246C22.0592 9.88393 22.7455 9.62277 23.3884 9.24107C23.1406 10.0112 22.6652 10.6071 21.9621 11.029C22.5848 10.9621 23.2076 10.7946 23.8304 10.5268Z" fill="#1F2A44"/>
</svg>
