<svg width="30" height="30" viewBox="0 0 30 30" fill="none" xmlns="http://www.w3.org/2000/svg">
<path fill-rule="evenodd" clip-rule="evenodd" d="M15 30C23.2843 30 30 23.2843 30 15C30 6.71573 23.2843 0 15 0C6.71573 0 0 6.71573 0 15C0 23.2843 6.71573 30 15 30Z" fill="white"/>
<path fill-rule="evenodd" clip-rule="evenodd" d="M18.6786 6.12054V8.77232H17.1016C16.5257 8.77232 16.1373 8.89286 15.9364 9.13393C15.7355 9.375 15.635 9.7366 15.635 10.2188V12.1172H18.5781L18.1864 15.0904H15.635V22.7143H12.5614V15.0904H10V12.1172H12.5614V9.92746C12.5614 8.68191 12.9096 7.71596 13.606 7.02958C14.3025 6.34319 15.2299 6 16.3884 6C17.3728 6 18.1362 6.04018 18.6786 6.12054Z" fill="#1F2A44"/>
</svg>
