<svg width="21" height="25" viewBox="0 0 21 25" fill="none" xmlns="http://www.w3.org/2000/svg">
<path fill-rule="evenodd" clip-rule="evenodd" d="M5.58967 11.1372C5.56107 11.1458 4.16702 11.584 3.60641 12.6613C3.29592 13.2578 3.2941 13.9732 3.60051 14.7871C3.74622 15.1769 3.53333 15.6048 3.12296 15.7445C3.03581 15.7734 2.94593 15.7881 2.85786 15.7881C2.53466 15.7881 2.23143 15.5974 2.11613 15.2912C1.65901 14.0737 1.6867 12.9615 2.20101 11.9838C3.07258 10.3276 5.03677 9.73248 5.11984 9.7079C5.53656 9.58498 5.97733 9.80623 6.1058 10.2008C6.23472 10.5946 6.00321 11.0134 5.58967 11.1372ZM15.2345 8.02289C15.2345 8.02289 12.3007 7.0288 10.4409 8.40544L10.3574 6.81272C10.622 6.41293 12.0969 5.35759 12.5935 5.00653C13.0524 5.69399 14.1914 6.53067 15.7624 5.84105C18.196 4.7745 18.0598 2.73844 21 2.14758C21 2.14758 18.1974 -1.0387 13.8359 0.350877C13.8359 0.350877 11.4632 0.799407 11.7914 2.99548C11.7914 2.99548 13.4392 2.01216 14.4665 1.55371C16.7643 0.528132 19.3159 1.63221 19.3159 1.63221C19.601 1.78013 19.1806 1.79178 19.1806 1.79178C17.8515 1.64126 17.0335 1.82499 16.6367 1.96041C14.6503 2.56981 13.2585 3.52681 13.2585 3.52681L13.2603 3.52854C12.9539 3.67302 12.736 3.73943 12.4705 3.95593L12.2226 4.08273C12.2226 4.08402 12.0964 4.18192 12.0969 4.18408C11.9239 4.32597 11.096 4.70722 10.1136 5.67501L10.0828 3.18567L8.40591 3.46902L9.05368 8.37223C8.32284 8.04144 7.00959 7.67787 5.11394 8.02289C5.11394 8.02289 -2.04196 8.68577 0.575911 16.6442C0.575911 16.6442 2.15789 26.5308 8.96471 24.7091C8.96471 24.7091 10.524 24.1281 11.6566 24.7091C11.6566 24.7091 16.0561 26.6429 18.1125 20.539C18.1125 20.539 22.3001 9.59922 15.2345 8.02289Z" fill="#BABABA"/>
</svg>
