<svg width="24" height="23" viewBox="0 0 24 23" fill="none" xmlns="http://www.w3.org/2000/svg">
<g clip-path="url(#clip0)">
<mask id="mask0" mask-type="alpha" maskUnits="userSpaceOnUse" x="0" y="0" width="24" height="14">
<path d="M0.246582 0.436523H23.0173V13.0652H0.246582V0.436523Z" fill="white"/>
</mask>
<g mask="url(#mask0)">
<path fill-rule="evenodd" clip-rule="evenodd" d="M23.0084 5.45233C22.4922 0.450963 19.2027 0.0163319 16.2828 0.676168C13.8219 1.23129 11.6252 2.56387 11.577 2.59352C11.4669 2.53279 0.88471 -3.38804 0.248644 5.85493C0.248644 5.85493 0.139979 8.03238 1.50017 11.17H6.24911C6.50345 11.17 6.74138 11.2995 6.88284 11.5166L7.63787 12.6713L8.81305 8.11893C8.90298 7.77706 9.20555 7.5399 9.55075 7.5399C9.5559 7.5399 9.56059 7.5399 9.56621 7.54038C9.91843 7.54755 10.2191 7.80001 10.2941 8.15096L11.3526 13.0653L13.6454 5.15827C13.7414 4.82835 14.0388 4.60171 14.3751 4.60124H14.376C14.7128 4.60124 15.0093 4.82692 15.1072 5.15636L16.8908 11.256H21.7531C23.2051 7.83156 23.0084 5.45233 23.0084 5.45233Z" fill="#BABABA"/>
</g>
<mask id="mask1" mask-type="alpha" maskUnits="userSpaceOnUse" x="-1" y="8" width="25" height="15">
<path d="M-0.632812 8.45312H24V22.6596H-0.632812V8.45312Z" fill="white"/>
</mask>
<g mask="url(#mask1)">
<path fill-rule="evenodd" clip-rule="evenodd" d="M21.1798 13.1049H16.9967H16.4205C16.0787 13.1049 15.7777 12.8812 15.6803 12.5559L14.448 8.45312L12.0068 16.6568C11.9084 16.9845 11.606 17.2077 11.2651 17.2077C11.2556 17.2077 11.2475 17.2077 11.2371 17.2072C10.8853 17.1945 10.5853 16.9467 10.5092 16.6033L9.47759 11.9336L8.66131 15.0107C8.58334 15.3034 8.33993 15.5237 8.04042 15.5734C7.73854 15.6235 7.43855 15.4925 7.26931 15.2414L5.78127 13.0193H4.66882H2.14962H0.763726C0.335382 13.0193 -0.00976562 13.3636 -0.00976562 13.7887C-0.00976562 14.2138 0.335382 14.5581 0.763726 14.5581H3.10709C4.76247 16.9812 7.32731 19.6705 11.3108 22.2544C11.5185 22.3882 11.7272 22.5234 11.9431 22.6568V22.6596C11.9454 22.6582 11.9454 22.6577 11.9454 22.6577C11.9454 22.6577 11.9473 22.6582 11.9483 22.6582V22.6563C15.9883 19.9429 18.5807 17.1533 20.2466 14.6432H23.2264C23.6534 14.6432 23.9999 14.299 23.9999 13.8738C23.9999 13.4492 23.6534 13.1049 23.2264 13.1049H21.1798Z" fill="#BABABA"/>
</g>
</g>
<defs>
<clipPath id="clip0">
<rect width="24" height="23" fill="white"/>
</clipPath>
</defs>
</svg>
