<svg width="23" height="19" viewBox="0 0 23 19" fill="none" xmlns="http://www.w3.org/2000/svg">
<mask id="mask0" mask-type="alpha" maskUnits="userSpaceOnUse" x="0" y="0" width="23" height="19">
<path d="M0.565186 0H22.5652V19H0.565186V0Z" fill="white"/>
</mask>
<g mask="url(#mask0)">
<path fill-rule="evenodd" clip-rule="evenodd" d="M6.91037 10.0045H10.0849V6.81316H13.0455V10.0045H16.2197V12.98H13.0455V16.171H10.0849V12.98H6.91037V10.0045ZM15.0712 2.76829C15.0712 3.35091 14.601 3.82319 14.0198 3.82319H9.10929C8.5277 3.82319 8.06047 3.35091 8.06047 2.76829C8.06047 2.18468 8.5277 1.71076 9.10929 1.71076H14.0198C14.601 1.71076 15.0712 2.18468 15.0712 2.76829ZM0.565186 6.23316V16.7772C0.565186 18.0049 1.55454 19 2.7775 19H20.3545C21.5745 19 22.5652 18.0049 22.5652 16.7772V6.23316C22.5652 5.00486 21.5745 4.00842 20.3545 4.00842H16.7735V3.98379V2.76829C16.7735 1.24144 15.5384 0 14.0198 0H9.10929C7.59324 0 6.35818 1.24144 6.35818 2.76829V3.98379V4.00842H6.34283H2.7775C1.55454 4.00842 0.565186 5.00486 0.565186 6.23316Z" fill="#BABABA"/>
</g>
</svg>
