<svg width="25" height="25" viewBox="0 0 25 25" fill="none" xmlns="http://www.w3.org/2000/svg">
<mask id="mask0" mask-type="alpha" maskUnits="userSpaceOnUse" x="0" y="0" width="25" height="25">
<path d="M0 0H25V25H0V0Z" fill="white"/>
</mask>
<g mask="url(#mask0)">
<path fill-rule="evenodd" clip-rule="evenodd" d="M9.64233 16.2824L13.6599 12.2646L14.8653 13.4699L10.8476 17.4875L9.64233 16.2824ZM14.0618 9.45227L8.43707 15.077L7.23168 13.8717L12.8564 8.24687L14.0618 9.45227ZM20.4545 2.85511C21.396 2.85511 22.1591 3.61818 22.1591 4.55966C22.1591 5.50099 21.396 6.2642 20.4545 6.2642C19.5132 6.2642 18.75 5.50099 18.75 4.55966C18.75 3.61818 19.5132 2.85511 20.4545 2.85511ZM25 4.54545C25 2.03494 22.9649 0 20.4545 0H13.0682L0 13.0682L11.9318 25L25 11.9318V4.54545Z" fill="#BABABA"/>
</g>
</svg>
