<svg width="25" height="25" viewBox="0 0 25 25" fill="none" xmlns="http://www.w3.org/2000/svg">
<g clip-path="url(#clip0)">
<mask id="mask0" mask-type="alpha" maskUnits="userSpaceOnUse" x="0" y="0" width="25" height="25">
<path d="M19.1352 0.00227273V0.00170455C18.021 0.03125 16.5852 0.354545 15.4034 1.53636C14.2517 2.7 13.6221 4.23011 13.6392 5.76364C13.6466 6.5125 13.8477 7.28977 13.6102 7.67443L7.65113 13.6381C7.24715 13.8233 6.4801 13.6455 5.77045 13.6381C4.23749 13.621 2.70908 14.2222 1.54715 15.375C-0.343759 17.2665 -0.0619409 19.8892 0.157945 20.6443C0.268741 21.0227 0.643741 21.4602 0.939196 21.1653L3.91874 18.2119C4.27442 17.8562 4.71135 17.8472 5.04658 18.1835L6.81192 19.9494C7.14715 20.2852 7.13863 20.7511 6.78295 21.1074L3.83238 24.0602C3.53692 24.3557 4.0034 24.7312 4.38124 24.842C4.63806 24.9165 5.10624 24.9989 5.68692 25H5.71817C6.84431 24.9972 8.38067 24.6903 9.6176 23.4528C10.7699 22.2886 11.3704 20.7591 11.3534 19.2256C11.3443 18.4142 11.1312 17.5369 11.4693 17.1989L17.1971 11.467C17.2136 11.4506 17.2358 11.4227 17.2551 11.4091C17.6239 11.1358 18.45 11.3426 19.2221 11.3511C20.7545 11.3676 22.3119 10.767 23.4744 9.6142C24.6801 8.40795 24.9903 6.90398 25 5.77727V5.66705C24.9949 5.07784 24.9096 4.60284 24.8341 4.34489C24.7239 3.96648 24.3489 3.52898 24.0528 3.82386L21.1023 6.77727C20.7466 7.13295 20.3097 7.14205 19.9744 6.80625L18.2091 5.03977C17.8739 4.70398 17.854 4.23807 18.2091 3.88182L21.1886 0.928409C21.4841 0.633523 21.0176 0.257955 20.6398 0.147159C20.3835 0.0727273 19.9051 0 19.3199 0C19.2597 0 19.1977 0.00113636 19.1352 0.00227273Z" fill="white"/>
</mask>
<g mask="url(#mask0)">
<path fill-rule="evenodd" clip-rule="evenodd" d="M19.1352 0.00227273V0.00170455C18.021 0.03125 16.5852 0.354545 15.4034 1.53636C14.2517 2.7 13.6221 4.23011 13.6392 5.76364C13.6466 6.5125 13.8477 7.28977 13.6102 7.67443L7.65113 13.6381C7.24715 13.8233 6.4801 13.6455 5.77045 13.6381C4.23749 13.621 2.70908 14.2222 1.54715 15.375C-0.343759 17.2665 -0.0619409 19.8892 0.157945 20.6443C0.268741 21.0227 0.643741 21.4602 0.939196 21.1653L3.91874 18.2119C4.27442 17.8562 4.71135 17.8472 5.04658 18.1835L6.81192 19.9494C7.14715 20.2852 7.13863 20.7511 6.78295 21.1074L3.83238 24.0602C3.53692 24.3557 4.0034 24.7312 4.38124 24.842C4.63806 24.9165 5.10624 24.9989 5.68692 25H5.71817C6.84431 24.9972 8.38067 24.6903 9.6176 23.4528C10.7699 22.2886 11.3704 20.7591 11.3534 19.2256C11.3443 18.4142 11.1312 17.5369 11.4693 17.1989L17.1971 11.467C17.2136 11.4506 17.2358 11.4227 17.2551 11.4091C17.6239 11.1358 18.45 11.3426 19.2221 11.3511C20.7545 11.3676 22.3119 10.767 23.4744 9.6142C24.6801 8.40795 24.9903 6.90398 25 5.77727V5.66705C24.9949 5.07784 24.9096 4.60284 24.8341 4.34489C24.7239 3.96648 24.3489 3.52898 24.0528 3.82386L21.1023 6.77727C20.7466 7.13295 20.3097 7.14205 19.9744 6.80625L18.2091 5.03977C17.8739 4.70398 17.854 4.23807 18.2091 3.88182L21.1886 0.928409C21.4841 0.633523 21.0176 0.257955 20.6398 0.147159C20.3835 0.0727273 19.9051 0 19.3199 0C19.2597 0 19.1977 0.00113636 19.1352 0.00227273Z" fill="#BABABA"/>
</g>
<mask id="mask1" mask-type="alpha" maskUnits="userSpaceOnUse" x="0" y="0" width="13" height="13">
<path d="M3.95397 0.0535156C1.22101 0.385334 -1.40853 4.11374 0.917602 6.37397L6.38635 11.8075C6.70283 12.1245 7.21931 12.0757 7.59374 11.7012L11.6954 7.56431C12.0591 7.20011 12.1028 6.62227 11.8199 6.33874L6.38635 0.905788C5.81476 0.351243 5.17442 0.0876065 4.50397 0.0535156C4.39658 0.0478338 4.28749 0.0410156 4.1784 0.0410156C4.1034 0.0410156 4.0284 0.0444247 3.95397 0.0535156Z" fill="white"/>
</mask>
<g mask="url(#mask1)">
<path fill-rule="evenodd" clip-rule="evenodd" d="M3.95397 0.0535156C1.22101 0.385334 -1.40853 4.11374 0.917602 6.37397L6.38635 11.8075C6.70283 12.1245 7.21931 12.0757 7.59374 11.7012L11.6954 7.56431C12.0591 7.20011 12.1028 6.62227 11.8199 6.33874L6.38635 0.905788C5.81476 0.351243 5.17442 0.0876065 4.50397 0.0535156C4.39658 0.0478338 4.28749 0.0410156 4.1784 0.0410156C4.1034 0.0410156 4.0284 0.0444247 3.95397 0.0535156Z" fill="#BABABA"/>
</g>
<mask id="mask2" mask-type="alpha" maskUnits="userSpaceOnUse" x="14" y="14" width="11" height="11">
<path d="M15.866 14.1885L14.1887 15.8675C14.0115 16.0595 14.0325 16.4073 14.2177 16.5914L18.4416 20.8181L18.7882 22.5266C18.8348 22.6146 18.9035 22.7101 18.9904 22.7578L22.52 24.9004C22.7098 25.022 22.9632 24.997 23.1274 24.8425C23.6995 24.2823 24.2683 23.701 24.8342 23.1345C25.0018 22.9698 25.0501 22.6931 24.9211 22.497L22.7518 18.9652C22.6961 18.8817 22.641 18.8306 22.549 18.7919L20.8422 18.4152L16.5899 14.1885C16.4956 14.084 16.3547 14.0164 16.2132 14.0146C16.0802 14.0209 15.9575 14.0902 15.866 14.1885Z" fill="white"/>
</mask>
<g mask="url(#mask2)">
<path fill-rule="evenodd" clip-rule="evenodd" d="M15.866 14.1885L14.1887 15.8675C14.0115 16.0595 14.0325 16.4073 14.2177 16.5914L18.4416 20.8181L18.7882 22.5266C18.8348 22.6146 18.9035 22.7101 18.9904 22.7578L22.52 24.9004C22.7098 25.022 22.9632 24.997 23.1274 24.8425C23.6995 24.2823 24.2683 23.701 24.8342 23.1345C25.0018 22.9698 25.0501 22.6931 24.9211 22.497L22.7518 18.9652C22.6961 18.8817 22.641 18.8306 22.549 18.7919L20.8422 18.4152L16.5899 14.1885C16.4956 14.084 16.3547 14.0164 16.2132 14.0146C16.0802 14.0209 15.9575 14.0902 15.866 14.1885Z" fill="#BABABA"/>
</g>
</g>
<defs>
<clipPath id="clip0">
<rect width="25" height="25" fill="white"/>
</clipPath>
</defs>
</svg>
