<svg width="130" height="55" viewBox="0 0 130 55" fill="none" xmlns="http://www.w3.org/2000/svg">
<mask id="mask0" mask-type="alpha" maskUnits="userSpaceOnUse" x="113" y="0" width="17" height="17">
<path d="M113.237 0H130V16.9384H113.237V0Z" fill="white"/>
</mask>
<g mask="url(#mask0)">
<path fill-rule="evenodd" clip-rule="evenodd" d="M121.619 14.9799C118.06 14.9799 115.176 12.0649 115.176 8.46929C115.176 4.87347 118.06 1.95853 121.619 1.95853C125.177 1.95853 128.062 4.87347 128.062 8.46929C128.062 12.0649 125.177 14.9799 121.619 14.9799ZM121.619 -0.00012207C116.99 -0.00012207 113.237 3.79187 113.237 8.46929C113.237 13.1467 116.99 16.9384 121.619 16.9384C126.248 16.9384 130 13.1467 130 8.46929C130 3.79187 126.248 -0.00012207 121.619 -0.00012207Z" fill="#F9E01A"/>
</g>
<path fill-rule="evenodd" clip-rule="evenodd" d="M121.618 3.89929C119.121 3.89929 117.096 5.94538 117.096 8.46944C117.096 10.9935 119.121 13.0397 121.618 13.0397C124.116 13.0397 126.141 10.9935 126.141 8.46944C126.141 5.94538 124.116 3.89929 121.618 3.89929Z" fill="#F9E01A"/>
<path fill-rule="evenodd" clip-rule="evenodd" d="M97.0958 36.5883L101.678 22.3041C101.806 21.9068 102.172 21.6378 102.585 21.6378H105.384C105.798 21.6378 106.165 21.908 106.291 22.3064L110.834 36.5883L114.534 23.8189C114.895 22.5747 116.024 21.7198 117.307 21.7198H120.183L113.877 41.5444C113.493 42.7516 112.381 43.5705 111.126 43.5705H109.42C109.075 43.5705 108.77 43.3471 108.662 43.0164L104.006 28.7433L99.3893 43.0146C99.282 43.3461 98.9758 43.5705 98.6307 43.5705H96.9183C95.6667 43.5705 94.5576 42.7564 94.1706 41.5538L87.7879 21.7198H90.5531C91.8306 21.7198 92.9566 22.5677 93.3218 23.8046L97.0958 36.5883Z" fill="#1F2A43"/>
<path fill-rule="evenodd" clip-rule="evenodd" d="M75.8035 25.6212C71.8608 25.6212 69.3408 28.7428 69.3408 32.5625C69.3408 36.4233 72.0641 39.586 75.8848 39.586C79.8681 39.586 82.388 36.4646 82.388 32.6447C82.388 28.7838 79.6648 25.6212 75.8035 25.6212ZM75.8035 43.8985C69.2594 43.8985 64.4225 38.8466 64.4225 32.6447C64.4225 26.4017 69.3002 21.2676 75.8848 21.2676C82.4693 21.2676 87.3062 26.3195 87.3062 32.5625C87.3062 38.7646 82.4287 43.8985 75.8035 43.8985Z" fill="#1F2A43"/>
<path fill-rule="evenodd" clip-rule="evenodd" d="M46.8161 43.406V16.3384C46.8161 14.7283 48.1079 13.423 49.7013 13.423H51.7342V40.4907C51.7342 42.1008 50.4426 43.406 48.8491 43.406H46.8161Z" fill="#1F2A43"/>
<path fill-rule="evenodd" clip-rule="evenodd" d="M56.0927 43.406V16.3384C56.0927 14.7283 57.3845 13.423 58.9779 13.423H61.0108V40.4907C61.0108 42.1008 59.719 43.406 58.1257 43.406H56.0927Z" fill="#1F2A43"/>
<path fill-rule="evenodd" clip-rule="evenodd" d="M38.3413 31.0428C38.0162 27.8392 36.1464 25.3337 32.8947 25.3337C29.887 25.3337 27.7732 27.6748 27.3262 31.0428H38.3413ZM33.5451 39.8323C35.1781 39.8323 36.4908 39.4132 37.7013 38.614C38.7839 37.8995 40.2059 38.0055 41.1732 38.8729L42.2432 39.8323C40.2111 42.2966 37.4063 43.8985 33.4638 43.8985C27.245 43.8985 22.4487 39.3395 22.4487 32.6035C22.4487 26.3605 26.7979 21.2676 32.9353 21.2676C39.7639 21.2676 43.2188 26.6892 43.2188 32.9733C43.2188 33.1909 43.2094 33.3991 43.1949 33.6117C43.1678 34.0152 42.8347 34.3286 42.4346 34.3286H27.3668C27.9359 37.8608 30.3746 39.8323 33.5451 39.8323Z" fill="#1F2A43"/>
<path fill-rule="evenodd" clip-rule="evenodd" d="M19.0168 21.7195C17.739 21.7195 16.6011 22.5355 16.1792 23.7542C16.1792 23.7542 13.5215 31.3256 11.2889 37.6851L5.9532 23.5943C5.52564 22.4652 4.45301 21.7195 3.25669 21.7195H0L9.12612 43.8462C8.60685 45.3254 8.28042 46.2549 8.27896 46.2589C7.32645 48.7167 5.14239 50.3243 2.7155 50.6351C2.24249 50.6957 1.8534 51.1236 1.8534 51.6055V54.361C1.8534 54.4683 1.94155 54.5572 2.0477 54.5552C6.46468 54.4763 10.5994 51.7441 12.2921 47.3324L22.0298 21.7195H19.0168Z" fill="#1F2A43"/>
</svg>
