<svg width="100" height="100" viewBox="0 0 100 100" fill="none" xmlns="http://www.w3.org/2000/svg">
<path fill-rule="evenodd" clip-rule="evenodd" d="M63.214 27.3398C56.7353 27.3398 51.4835 22.0198 51.4835 15.4572C51.4835 8.89464 56.7353 3.57465 63.214 3.57465C69.6926 3.57465 74.9444 8.89464 74.9444 15.4572C74.9444 22.0198 69.6926 27.3398 63.214 27.3398ZM63.214 0C54.7864 0 47.9545 6.92051 47.9545 15.4572C47.9545 23.9941 54.7864 30.9145 63.214 30.9145C71.6415 30.9145 78.4735 23.9941 78.4735 15.4572C78.4735 6.92051 71.6415 0 63.214 0Z" fill="#FBE122"/>
<path fill-rule="evenodd" clip-rule="evenodd" d="M63.214 7.11621C58.6664 7.11621 54.9797 10.8507 54.9797 15.4572C54.9797 20.0639 58.6664 23.7983 63.214 23.7983C67.7618 23.7983 71.4483 20.0639 71.4483 15.4572C71.4483 10.8507 67.7618 7.11621 63.214 7.11621Z" fill="#FBE122"/>
<path fill-rule="evenodd" clip-rule="evenodd" d="M55.1152 39.6404C52.789 39.6404 50.7169 41.1297 49.9488 43.3539C49.9488 43.3539 45.1101 57.1722 41.0454 68.7791L31.3306 43.062C30.5521 41.0013 28.5995 39.6404 26.4212 39.6404H20.4918L37.1075 80.0237C36.162 82.7232 35.5677 84.4198 35.565 84.4267C33.8308 88.9129 29.8546 91.8468 25.436 92.414C24.5747 92.5245 23.8662 93.3057 23.8662 94.185V99.214C23.8662 99.4099 24.0269 99.5721 24.2201 99.5687C32.262 99.4246 39.7897 94.4382 42.8719 86.3863L60.6011 39.6404H55.1152Z" fill="#1F2A44"/>
</svg>
