<svg width="151" height="100" viewBox="0 0 151 100" fill="none" xmlns="http://www.w3.org/2000/svg">
<g clip-path="url(#clip0)">
<path d="M98.55 43.6643C98.376 44.5847 98.1673 45.4958 97.9239 46.3975C97.8975 46.5022 97.868 46.6054 97.8385 46.7101H94.4534C94.1651 46.7104 93.8887 46.8257 93.6849 47.0308C93.481 47.2359 93.3663 47.514 93.366 47.804V57.5118C93.2634 57.704 93.1594 57.8947 93.0553 58.0854C92.5178 59.0699 91.9585 60.0435 91.3868 61.0046C82.0648 76.6253 69.0632 89.6969 53.5298 99.0655L54.4495 96.9776C54.1123 96.9542 53.7737 96.9308 53.4366 96.9073C46.0964 96.4026 38.7313 95.8431 31.5634 94.1834C24.0647 92.4472 16.7292 89.4358 10.8523 84.4428C4.97384 79.4482 0.664495 72.3158 0.0663851 64.5989C-0.133053 61.9468 0.13358 59.2801 0.854054 56.7211C2.23194 51.7953 5.24267 47.3633 9.58623 44.741C16.4092 40.6231 25.3091 41.4623 32.5017 44.8879C39.6929 48.3119 45.5465 53.98 51.2618 59.5497C45.4913 49.5953 37.457 41.1591 27.818 34.9331C24.624 32.8766 21.2343 31.045 18.5188 28.3805C15.8048 25.7176 13.8023 21.9842 14.2824 18.2007C14.8277 13.9094 18.3215 10.6526 21.8215 8.14128C23.2196 7.13799 24.6628 6.18627 26.1511 5.31113C30.3502 2.83572 34.8926 0.96823 39.6898 0.275929C46.188 -0.663287 53.2067 0.761947 58.1887 5.06265C63.8015 9.90875 66.1038 17.7241 65.8848 25.2003C69.3428 20.1432 74.6759 16.2723 80.6988 16.1082C86.9516 15.9394 92.8953 19.9135 96.0271 25.3613C99.1575 30.8075 99.7198 37.4836 98.55 43.6643Z" fill="#4C5569"/>
<path d="M58.9888 64.6667C62.6511 64.3422 66.0342 63.9632 69.5831 62.953C73.023 61.9738 76.3332 60.3346 78.782 57.658C81.4159 54.7792 82.8377 51.0405 83.8408 47.3187C84.4001 45.2436 84.8597 43.1396 85.2933 41.0348C85.7638 38.7511 86.1819 36.4574 86.5475 34.1535C87.2752 29.5676 87.7948 24.9547 88.1061 20.3147C88.1437 19.7515 88.1782 19.1881 88.2095 18.6245C88.229 18.2768 87.6914 18.2779 87.672 18.6245C87.4163 23.1981 86.9562 27.7539 86.2917 32.2919C85.6361 36.7505 84.7972 41.1897 83.7328 45.5683C82.8311 49.2777 81.6636 53.045 79.351 56.1329C77.1824 59.0286 74.0502 60.9209 70.6682 62.0523C67.2268 63.2035 63.5983 63.6632 60.002 64.005C59.5609 64.0469 59.4302 64.0868 58.9888 64.1259C58.6469 64.1562 58.6437 64.6972 58.9888 64.6667L58.9888 64.6667Z" fill="#A5AAB4"/>
<path d="M1.16359 57.1197C5.78424 57.3775 10.3579 58.1882 14.7878 59.5348C19.2197 60.8786 23.4785 62.7434 27.4762 65.0906C31.3389 67.3605 34.9249 70.0766 38.1611 73.1835C41.3019 76.2007 44.1011 79.5582 46.5076 83.1949C48.925 86.8406 50.9284 90.7476 52.4802 94.8425C52.6694 95.3437 52.8517 95.8475 53.027 96.3538C53.1402 96.6803 53.6597 96.5398 53.5453 96.21C52.0935 92.0286 50.1796 88.0244 47.8395 84.2726C45.5 80.5205 42.7542 77.0408 39.6526 73.8972C36.5013 70.7049 32.9941 67.8894 29.2006 65.5065C21.2357 60.5154 12.2075 57.496 2.85743 56.6963C2.29342 56.6488 1.7288 56.6096 1.1636 56.579C0.817944 56.5599 0.819005 57.1007 1.1636 57.1197L1.16359 57.1197Z" fill="#A5AAB4"/>
<path d="M26.2958 5.94488C29.2502 6.89008 32.0505 8.26667 34.6072 10.0306C37.2197 11.8453 39.6023 13.9739 41.7023 16.3691C43.9153 18.8889 45.8827 21.6165 47.5776 24.5144C49.3753 27.5742 50.937 30.7682 52.249 34.0683C53.5999 37.4565 54.7361 40.9273 55.6508 44.4599C56.5806 48.0344 57.3069 51.6594 57.8261 55.3171C58.3427 58.9361 58.6553 62.5815 58.7625 66.236C58.8705 69.7305 58.7678 73.2283 58.455 76.7103C58.1689 79.9588 57.6464 83.1818 56.8917 86.3534C56.2215 89.218 55.2769 92.0105 54.0713 94.6918C53.7921 95.3003 53.4957 95.9004 53.1824 96.4921C53.0198 96.7992 53.4836 97.0726 53.6465 96.7651C54.9788 94.204 56.0427 91.5104 56.8209 88.7279C57.694 85.6304 58.327 82.4694 58.7139 79.2734C59.1429 75.8059 59.3518 72.3144 59.3394 68.8202C59.3317 65.1492 59.1145 61.4818 58.6888 57.8359C58.263 54.1445 57.6307 50.4802 56.7951 46.8604C55.9615 43.2346 54.9041 39.6647 53.6289 36.1713C52.4 32.7894 50.9285 29.5018 49.2261 26.3345C47.6047 23.312 45.7151 20.443 43.5805 17.7626C41.5532 15.2104 39.2388 12.9032 36.6836 10.8871C34.2196 8.9488 31.4968 7.36887 28.5953 6.19371C27.8862 5.90981 27.1674 5.65306 26.4387 5.42347C26.108 5.31879 25.9664 5.84064 26.2958 5.94488H26.2958Z" fill="#A5AAB4"/>
<path d="M58.1787 99.9996C79.4135 99.9996 96.6277 99.3 96.6277 98.4369C96.6277 97.5738 79.4135 96.8741 58.1787 96.8741C36.944 96.8741 19.7298 97.5738 19.7298 98.4369C19.7298 99.3 36.944 99.9996 58.1787 99.9996Z" fill="#797F8F"/>
<path d="M92.1487 49.4901C92.1296 49.5744 92.1171 49.6601 92.1115 49.7464L85.4381 53.6192L83.816 52.6799L82.0868 54.9572L85.5569 57.4452L93.1702 51.4031C93.4807 51.5187 93.8188 51.5365 94.1396 51.454C94.4604 51.3716 94.7487 51.1929 94.966 50.9416C95.1834 50.6904 95.3195 50.3785 95.3564 50.0475C95.3933 49.7165 95.3291 49.3821 95.1724 49.0887C95.0157 48.7952 94.774 48.5568 94.4793 48.4049C94.1846 48.2531 93.8509 48.1951 93.5227 48.2387C93.1944 48.2823 92.8872 48.4254 92.6417 48.6489C92.3963 48.8724 92.2243 49.1659 92.1487 49.4901Z" fill="#FFB8B8"/>
<path d="M76.9503 51.8667L82.2049 55.6341L84.555 52.67L79.4471 48.547C79.2273 48.3697 78.9739 48.2393 78.7023 48.1639C78.4307 48.0885 78.1466 48.0697 77.8675 48.1086C77.5885 48.1475 77.3202 48.2433 77.0792 48.3901C76.8382 48.537 76.6296 48.7318 76.4661 48.9626C76.1475 49.4123 76.0195 49.9709 76.1103 50.5155C76.2011 51.0602 76.5033 51.5462 76.9503 51.8667Z" fill="#FBE122"/>
<path d="M66.104 94.852L67.9464 95.3376L70.6852 88.4202L67.9662 87.7034L66.104 94.852Z" fill="#FFB8B8"/>
<path d="M71.0511 97.9959L65.2608 96.4697L65.847 94.2192L69.4001 95.1558C69.9934 95.3122 70.5007 95.6993 70.8103 96.2319C71.1199 96.7645 71.2065 97.3991 71.0511 97.9959Z" fill="#F3F5F8"/>
<path d="M82.4813 96.1722L84.3562 95.8353L83.9567 88.4002L81.1896 88.8974L82.4813 96.1722Z" fill="#FFB8B8"/>
<path d="M88.2829 96.9371L82.3904 97.996L81.9838 95.7058L85.5996 95.056C85.8986 95.0023 86.2051 95.0083 86.5018 95.0738C86.7984 95.1393 87.0794 95.2629 87.3285 95.4375C87.5777 95.6122 87.7902 95.8346 87.954 96.0919C88.1177 96.3492 88.2295 96.6364 88.2829 96.9371Z" fill="#F3F5F8"/>
<path d="M78.7895 41.4925C79.2515 41.6056 79.6274 42.0792 79.8531 42.6278C80.0613 43.204 80.2023 43.8027 80.2732 44.4116C80.4505 45.5457 80.6209 46.7734 80.254 47.8237C79.8241 49.0547 78.6785 49.6995 77.6847 49.3965C76.691 49.0935 75.9007 47.9561 75.6306 46.647C75.3848 45.3241 75.5432 43.9574 76.0849 42.7269C76.3672 42.0804 76.7563 41.4839 77.2734 41.1922C77.527 41.0379 77.8294 40.986 78.1195 41.0468C78.4097 41.1076 78.6662 41.2767 78.8375 41.5201" fill="#797F8F"/>
<path d="M81.4032 62.026L84.9726 94.1866L82.0246 95.3127L76.5873 73.7467L69.0175 93.4652L65.7906 93.6456C65.7906 93.6456 70.218 62.9637 73.4992 62.2664L81.4032 62.026Z" fill="#D2D4DA"/>
<path d="M78.4049 45.5963C80.5122 45.5963 82.2204 43.8778 82.2204 41.758C82.2204 39.6381 80.5122 37.9197 78.4049 37.9197C76.2977 37.9197 74.5894 39.6381 74.5894 41.758C74.5894 43.8778 76.2977 45.5963 78.4049 45.5963Z" fill="#FFB8B8"/>
<path d="M80.0432 47.208L75.9199 46.6669C75.9199 46.6669 73.2309 49.9131 73.4101 55.5036C73.5894 61.0941 72.962 62.8074 72.962 62.8074L81.5591 62.9636C80.3163 61.2446 85.5145 51.3716 80.0432 47.208Z" fill="#FBE122"/>
<path d="M82.2582 63.7439C82.1723 63.7446 82.0865 63.752 82.0017 63.7662L76.7268 58.1175L77.2646 56.314L74.6652 55.1418L73.0517 59.1093L80.6408 65.1821C80.6 65.5126 80.6602 65.8478 80.8134 66.1431C80.9666 66.4383 81.2055 66.6797 81.4984 66.8351C81.7913 66.9904 82.1242 67.0524 82.4529 67.0127C82.7817 66.9731 83.0906 66.8337 83.3387 66.6131C83.5868 66.3926 83.7622 66.1012 83.8417 65.7779C83.9212 65.4546 83.9009 65.1146 83.7836 64.8031C83.6664 64.4916 83.4576 64.2235 83.1851 64.0343C82.9126 63.8451 82.5893 63.7438 82.2582 63.7439Z" fill="#FFB8B8"/>
<path d="M76.4809 49.4051L74.0377 55.4129L77.4439 57.0359L80.2647 51.0904C80.386 50.8346 80.4542 50.5566 80.465 50.2734C80.4758 49.9901 80.429 49.7077 80.3275 49.4433C80.226 49.1789 80.0719 48.9381 79.8747 48.7357C79.6774 48.5334 79.4412 48.3736 79.1804 48.2663C78.9288 48.1628 78.6594 48.1101 78.3876 48.1113C78.1158 48.1125 77.8468 48.1675 77.5962 48.2733C77.3455 48.379 77.118 48.5334 76.9266 48.7276C76.7353 48.9218 76.5838 49.152 76.4809 49.4051Z" fill="#FBE122"/>
<path d="M77.4076 45.2476C78.0054 44.9006 78.0692 44.0637 77.9879 43.3742C77.9067 42.6847 77.771 41.9161 78.1738 41.3523C78.6547 40.6795 79.6207 40.6661 80.4442 40.6441C81.2677 40.6221 82.2705 40.3796 82.4838 39.5792C82.6248 39.0503 82.3232 38.4828 81.8903 38.1508C81.4575 37.8188 80.9159 37.6721 80.3896 37.5326C79.2122 37.2205 77.9964 36.9059 76.7907 37.0774C75.5966 37.2472 74.5169 37.8832 73.7854 38.8478C73.0538 39.8123 72.7292 41.0279 72.8817 42.2313C73.0769 43.7708 73.3599 44.443 73.1741 45.1218C72.8281 46.3861 71.3362 47.1983 71.3065 48.5093C71.2832 49.5348 72.1837 50.3259 73.0622 50.8466C73.759 51.2596 74.5111 51.6101 75.3141 51.7068C76.1172 51.8035 76.9818 51.6184 77.58 51.0708C78.3516 50.3646 78.5425 49.1847 78.3212 48.1593C78.1 47.1338 77.5324 46.2231 76.971 45.3386" fill="#FEF9D3"/>
<path d="M149.602 46.3972H94.453C94.0824 46.3978 93.7271 46.5461 93.465 46.8098C93.2029 47.0734 93.0554 47.4308 93.0549 47.8037V83.4345C93.0554 83.8073 93.2029 84.1648 93.465 84.4284C93.7271 84.6921 94.0824 84.8404 94.453 84.841H149.602C149.973 84.8404 150.328 84.6921 150.59 84.4284C150.852 84.1648 151 83.8073 151 83.4345V47.8037C151 47.4308 150.852 47.0734 150.59 46.8098C150.328 46.5461 149.973 46.3978 149.602 46.3972ZM150.689 83.4345C150.689 83.7245 150.574 84.0026 150.371 84.2077C150.167 84.4128 149.89 84.5281 149.602 84.5284H94.453C94.1647 84.5281 93.8883 84.4128 93.6844 84.2077C93.4806 84.0026 93.3659 83.7245 93.3656 83.4345V47.8037C93.3659 47.5137 93.4806 47.2356 93.6844 47.0305C93.8883 46.8254 94.1647 46.7101 94.453 46.7098H149.602C149.89 46.7101 150.167 46.8254 150.371 47.0305C150.574 47.2356 150.689 47.5137 150.689 47.8037V83.4345Z" fill="#797F8F"/>
<path d="M106.225 64.1351H97.5253C97.1752 64.1346 96.8396 63.9945 96.592 63.7455C96.3445 63.4965 96.2053 63.1589 96.2048 62.8067V54.0553C96.2053 53.7031 96.3445 53.3655 96.592 53.1165C96.8396 52.8674 97.1752 52.7273 97.5253 52.7269H106.225C106.575 52.7273 106.911 52.8674 107.158 53.1165C107.406 53.3655 107.545 53.7031 107.545 54.0553V62.8067C107.545 63.1589 107.406 63.4965 107.158 63.7455C106.911 63.9945 106.575 64.1346 106.225 64.1351Z" fill="#FBE122"/>
<path d="M146.729 73.4343H97.3282C97.0604 73.4343 96.8036 73.3273 96.6142 73.1368C96.4248 72.9463 96.3184 72.6879 96.3184 72.4185C96.3184 72.1491 96.4248 71.8907 96.6142 71.7002C96.8036 71.5097 97.0604 71.4027 97.3282 71.4027H146.729C146.997 71.4027 147.254 71.5097 147.443 71.7002C147.633 71.8907 147.739 72.1491 147.739 72.4185C147.739 72.6879 147.633 72.9463 147.443 73.1368C147.254 73.3273 146.997 73.4343 146.729 73.4343Z" fill="#CCCCCC"/>
<path d="M146.763 68.5117H97.3622C97.0943 68.5117 96.8375 68.4047 96.6481 68.2142C96.4588 68.0237 96.3524 67.7653 96.3524 67.4959C96.3524 67.2265 96.4588 66.9682 96.6481 66.7777C96.8375 66.5872 97.0943 66.4802 97.3622 66.4802H146.763C147.031 66.4802 147.288 66.5872 147.477 66.7777C147.667 66.9682 147.773 67.2265 147.773 67.4959C147.773 67.7653 147.667 68.0237 147.477 68.2142C147.288 68.4047 147.031 68.5117 146.763 68.5117Z" fill="#CCCCCC"/>
<path d="M122.373 61.7903H115.071C114.803 61.7903 114.547 61.6832 114.357 61.4927C114.168 61.3022 114.061 61.0439 114.061 60.7745C114.061 60.5051 114.168 60.2467 114.357 60.0562C114.547 59.8657 114.803 59.7587 115.071 59.7587H122.373C122.64 59.7587 122.897 59.8657 123.087 60.0562C123.276 60.2467 123.382 60.5051 123.382 60.7745C123.382 61.0439 123.276 61.3022 123.087 61.4927C122.897 61.6832 122.64 61.7903 122.373 61.7903Z" fill="#CCCCCC"/>
<path d="M146.762 56.7904H115.071C114.803 56.7904 114.547 56.6834 114.357 56.4929C114.168 56.3024 114.061 56.044 114.061 55.7746C114.061 55.5052 114.168 55.2469 114.357 55.0564C114.547 54.8659 114.803 54.7589 115.071 54.7589H146.762C147.03 54.7589 147.287 54.8659 147.476 55.0564C147.666 55.2469 147.772 55.5052 147.772 55.7746C147.772 56.044 147.666 56.3024 147.476 56.4929C147.287 56.6834 147.03 56.7904 146.762 56.7904Z" fill="#CCCCCC"/>
<path d="M121.13 78.4353H97.3282C97.0604 78.4353 96.8036 78.3283 96.6142 78.1378C96.4248 77.9473 96.3184 77.6889 96.3184 77.4195C96.3184 77.1501 96.4248 76.8917 96.6142 76.7012C96.8036 76.5107 97.0604 76.4037 97.3282 76.4037H121.13C121.398 76.4037 121.654 76.5107 121.844 76.7012C122.033 76.8917 122.14 77.1501 122.14 77.4195C122.14 77.6889 122.033 77.9473 121.844 78.1378C121.654 78.3283 121.398 78.4353 121.13 78.4353Z" fill="#CCCCCC"/>
</g>
<defs>
<clipPath id="clip0">
<rect width="151" height="100" fill="white"/>
</clipPath>
</defs>
</svg>
