<svg width="145" height="100" viewBox="0 0 145 100" fill="none" xmlns="http://www.w3.org/2000/svg">
<g clip-path="url(#clip0)">
<path d="M19.409 72.1341L17.5515 69.1285C18.1516 67.5672 18.8392 66.0411 19.611 64.5574L20.8305 65.5851L19.8795 64.0462C20.852 62.2211 21.6115 61.0741 21.6115 61.0741C21.6115 61.0741 25.3344 67.219 26.4899 73.6689L23.9532 77.4267L26.7209 75.2788C26.8029 76.029 26.8377 76.7837 26.825 77.5384C26.6721 85.1466 24.0668 91.2642 21.0059 91.2025C17.945 91.1408 15.5876 84.9232 15.7405 77.315C15.7879 74.9564 16.3704 72.4995 17.1513 70.2317L19.409 72.1341Z" fill="#6CC24A" fill-opacity="0.6"/>
<path d="M11.0042 75.4893L7.86261 73.8778C7.57048 72.2307 7.37136 70.5683 7.26619 68.8987L8.84063 69.1472L7.23214 68.3221C7.12256 66.2563 7.18062 64.8813 7.18062 64.8813C7.18062 64.8813 13.5395 68.2146 17.858 73.1379L17.6261 77.6678L18.8868 74.3964C19.3442 74.9963 19.7635 75.6243 20.1422 76.2769C23.9385 82.869 24.8661 89.4545 22.2139 90.9861C19.5618 92.5177 14.3344 88.4153 10.5381 81.8232C9.3612 79.7796 8.5916 77.3749 8.0895 75.0293L11.0042 75.4893Z" fill="#6CC24A" fill-opacity="0.6"/>
<path d="M26.7786 99.8207C23.1586 100.053 19.2144 99.8072 15.0183 99.8207V90.2003C18.7157 90.7767 22.6587 90.7175 26.7786 90.2003V99.8207Z" fill="#D2D4DA"/>
<path d="M112.106 55.8171L73.6893 62.0114L73.5265 24.6118L111.943 0L112.106 55.8171Z" fill="#797F8F"/>
<path d="M108.525 50.2744L75.3174 57.4467V26.149L108.525 8.10016V50.2744Z" fill="#A5AAB4"/>
<path d="M105.269 21.5849L77.2705 34.1406V29.7353L105.269 15.8843V21.5849Z" fill="#3F3D56"/>
<path d="M105.269 33.3213L77.2705 43.2104V38.8636L105.269 27.6964V33.3213Z" fill="#FBE122"/>
<path d="M88.0877 27.8765C88.0932 27.8542 88.1058 27.8344 88.1235 27.82C88.1413 27.8055 88.1633 27.7973 88.1862 27.7966C88.209 27.7958 88.2315 27.8026 88.2502 27.8158C88.2688 27.829 88.2827 27.848 88.2896 27.8698L88.7429 29.3005L89.286 31.0146C89.294 31.0396 89.2922 31.0667 89.2812 31.0905C89.2701 31.1144 89.2506 31.1332 89.2264 31.1433L88.1769 31.5813L87.2545 31.9661C87.2366 31.9736 87.2169 31.976 87.1977 31.9729C87.1785 31.9699 87.1606 31.9616 87.1458 31.9489C87.1311 31.9363 87.1201 31.9198 87.1142 31.9012C87.1083 31.8827 87.1076 31.8629 87.1122 31.844L87.6167 29.7921L88.0877 27.8765Z" fill="#D2D4DA"/>
<path d="M86.404 38.5442C86.413 38.5075 86.4338 38.4748 86.4631 38.451C86.4924 38.4272 86.5287 38.4136 86.5664 38.4124C86.6042 38.4111 86.6413 38.4223 86.6721 38.4441C86.7029 38.4659 86.7258 38.4972 86.7372 38.5333L87.1172 39.7325L87.6414 41.3869C87.6545 41.4282 87.6516 41.473 87.6334 41.5123C87.6152 41.5516 87.5829 41.5827 87.5429 41.5994L86.5511 42.0132L85.7535 42.346C85.724 42.3584 85.6915 42.3623 85.6599 42.3572C85.6282 42.3522 85.5986 42.3385 85.5743 42.3176C85.5499 42.2967 85.5319 42.2695 85.5221 42.2389C85.5123 42.2084 85.5112 42.1757 85.5188 42.1445L85.991 40.2241L86.404 38.5442Z" fill="#D2D4DA"/>
<path d="M105.269 45.0585L77.2705 52.2809V47.6665L105.269 39.0876V45.0585Z" fill="#F2F2F2"/>
<path d="M104.618 24.7571C104.618 25.7389 104.179 26.715 103.642 26.9356C103.109 27.1543 102.68 26.5469 102.68 25.5807C102.68 24.6145 103.109 23.6429 103.642 23.4088C104.179 23.1726 104.618 23.7754 104.618 24.7571Z" fill="#3F3D56"/>
<path d="M103.967 25.0324C103.967 25.3597 103.821 25.6863 103.641 25.7617C103.462 25.8369 103.317 25.6339 103.317 25.3084C103.317 24.9829 103.462 24.6568 103.641 24.5798C103.821 24.5026 103.967 24.7052 103.967 25.0324Z" fill="white"/>
<path d="M104.618 36.1671C104.618 37.1489 104.179 38.125 103.642 38.3456C103.109 38.5643 102.68 37.9569 102.68 36.9907C102.68 36.0245 103.109 35.0529 103.642 34.8188C104.179 34.5825 104.618 35.1854 104.618 36.1671Z" fill="#FBE122"/>
<path d="M103.967 36.4442C103.967 36.7715 103.821 37.0981 103.641 37.1735C103.462 37.2487 103.317 37.0457 103.317 36.7202C103.317 36.3947 103.462 36.0686 103.641 35.9916C103.821 35.9144 103.967 36.117 103.967 36.4442Z" fill="white"/>
<path d="M104.618 47.5775C104.618 48.5592 104.179 49.5353 103.642 49.7559C103.109 49.9746 102.68 49.3672 102.68 48.401C102.68 47.4348 103.109 46.4632 103.642 46.2291C104.179 45.9929 104.618 46.5957 104.618 47.5775Z" fill="#F2F2F2"/>
<path d="M103.967 47.854C103.967 48.1813 103.821 48.5079 103.641 48.5833C103.462 48.6585 103.317 48.4555 103.317 48.13C103.317 47.8045 103.462 47.4784 103.641 47.4014C103.821 47.3242 103.967 47.5268 103.967 47.854Z" fill="white"/>
<path d="M89.0064 47.9986C89.0154 47.9619 89.0362 47.9292 89.0655 47.9054C89.0948 47.8816 89.1311 47.868 89.1689 47.8668C89.2066 47.8655 89.2437 47.8767 89.2745 47.8985C89.3053 47.9203 89.3282 47.9516 89.3396 47.9877L89.7196 49.1869L90.2438 50.8413C90.2569 50.8826 90.254 50.9274 90.2358 50.9667C90.2176 51.006 90.1853 51.0371 90.1453 51.0538L89.1535 51.4676L88.356 51.8004C88.3264 51.8128 88.294 51.8167 88.2623 51.8117C88.2306 51.8066 88.201 51.7929 88.1767 51.772C88.1523 51.7511 88.1343 51.7239 88.1245 51.6933C88.1147 51.6628 88.1136 51.6301 88.1212 51.5989L88.5934 49.6785L89.0064 47.9986Z" fill="#D2D4DA"/>
<path d="M82.398 45.9932L83.9126 44.5941C83.9126 44.5941 87.341 42.2293 86.1435 40.9292C84.946 39.6291 82.5323 42.6608 82.5323 42.6608L81.0344 43.6433L82.398 45.9932Z" fill="#E6BBC1"/>
<path d="M62.3728 46.644L61.4905 47.86C61.4905 47.86 60.2576 52.6082 66.497 52.8604C66.497 52.8604 74.4657 56.7288 76.4382 54.3052C78.4108 51.8815 83.8537 46.0518 83.8537 46.0518L80.6519 42.7932L74.1271 49.6223L67.7971 46.446C67.7971 46.446 64.5366 44.6453 62.3728 46.644Z" fill="#775382"/>
<path d="M58.2206 69.1757L49.9593 99.6551L51 99.8636L59.6776 69.1757H58.2206Z" fill="#D2D4DA"/>
<path d="M68.2358 69.1757L76.4969 99.6551L75.4562 99.8636L66.7786 69.1757H68.2358Z" fill="#D2D4DA"/>
<path d="M62.5916 68.5501L63.977 99.7058L65.1801 99.7594L63.6325 68.1331L62.5916 68.5501Z" fill="#D2D4DA"/>
<path d="M66.4428 68.0583C66.4428 68.8486 64.2825 69.6969 61.4471 69.9694C58.404 70.262 55.7683 69.7871 55.7683 68.8888C55.7683 67.9905 58.404 67.1055 61.4471 66.9245C64.2825 66.7559 66.4428 67.268 66.4428 68.0583Z" fill="#D2D4DA"/>
<path d="M69.461 62.7142L71.5426 64.1733C71.5426 64.1733 80.4931 70.635 79.6605 73.1363C78.8279 75.6376 74.2485 85.6428 74.2485 85.6428L68.4203 83.7669L75.0811 73.1363L71.5426 69.8013L69.6692 65.2155L69.461 62.7142Z" fill="#775382"/>
<path d="M61.3432 58.9619C61.3432 58.9619 57.1801 65.4236 59.6779 67.2996C62.1758 69.1756 69.2529 76.4711 69.2529 76.4711L70.71 79.8061L75.9138 96.6899L82.3665 93.3549L76.5382 80.223C76.5382 80.223 75.9138 75.4288 73.8322 72.7191C71.7507 70.0094 70.9181 66.049 70.9181 66.049L71.5426 64.173L67.8156 58.2012L61.3432 58.9619Z" fill="#775382"/>
<path d="M72.6624 84.4485L68.9212 83.3083C68.9212 83.3083 64.8812 83.1416 65.0893 84.6007C65.2975 86.0598 68.6279 95.6481 69.6687 95.0228C70.7094 94.3975 69.8768 91.4793 69.8768 91.4793L72.6624 84.4485Z" fill="#775382"/>
<path d="M64.3611 38.6395L62.2797 40.9324L65.61 46.3519L67.0671 42.183L64.3611 38.6395Z" fill="#E6BBC1"/>
<path d="M66.3386 46.6647L62.6416 40.5339L61.343 40.8284V42.9128L60.9267 60.4219L67.7957 59.3797C67.7957 59.3797 68.212 48.1238 66.3386 46.6647Z" fill="#FBE122"/>
<path d="M64.4658 46.455L61.3435 40.8271L58.6375 42.0777L53.85 61.6713L50.9359 67.2992C50.9359 67.2992 60.5109 72.0934 62.8005 67.2992C65.0902 62.505 65.2984 51.8745 65.2984 51.8745L64.4658 46.455Z" fill="#775382"/>
<path d="M59.8853 42.9117L58.6364 42.078C58.6364 42.078 53.8489 41.0357 53.8489 47.289C53.8489 47.289 50.3103 55.4182 52.8081 57.2942C55.3059 59.1702 61.3423 64.3812 61.3423 64.3812L64.4646 61.0462L57.3875 54.7929L60.3016 48.3312C60.3016 48.3312 61.9668 44.9961 59.8853 42.9117Z" fill="#775382"/>
<path d="M61.3428 62.9226L62.7998 64.3817C62.7998 64.3817 65.2977 67.7168 66.5466 66.4661C67.7955 65.2155 64.6732 62.9226 64.6732 62.9226L63.6324 61.4635L61.3428 62.9226Z" fill="#E6BBC1"/>
<path d="M66.0972 44.7726L69.6689 53.5428C69.6689 53.5428 71.126 57.9201 71.126 59.5876V64.1734L67.1711 58.9623C67.1711 58.9623 65.0233 45.3823 66.0972 44.7726Z" fill="#775382"/>
<path d="M77.4692 95.0279C77.4692 95.0279 76.438 99.0937 77.7914 99.4378C79.1447 99.782 90.5 100.073 90.5072 98.1515C90.5144 96.2298 83.1375 94.6422 83.1375 94.6422L80.4122 92.8911L77.4692 95.0279Z" fill="#775382"/>
<path d="M66.963 42.4949C69.0322 42.4949 70.7097 40.8151 70.7097 38.7429C70.7097 36.6708 69.0322 34.991 66.963 34.991C64.8937 34.991 63.2162 36.6708 63.2162 38.7429C63.2162 40.8151 64.8937 42.4949 66.963 42.4949Z" fill="#E6BBC1"/>
<path d="M70.9579 38.0695C70.9579 38.0695 71.6898 34.8937 70.9579 34.1608V34.6494C70.9579 34.6494 70.47 32.9394 69.4942 33.428C69.4942 33.428 68.2745 32.4508 68.0305 32.9394C66.5951 31.6399 60.2305 32.8582 63.32 39.6812C63.32 39.6812 63.8834 37.5809 63.8834 38.3138C63.8834 38.3138 65.3471 36.848 65.591 36.3595C65.835 35.8709 69.9821 39.0467 70.9579 38.0695Z" fill="#775382"/>
<path d="M144.444 99.6343H0V99.9993H144.444V99.6343Z" fill="#D2D4DA"/>
</g>
<defs>
<clipPath id="clip0">
<rect width="144.444" height="100" fill="white"/>
</clipPath>
</defs>
</svg>
