<svg width="197" height="166" viewBox="0 0 197 166" fill="none" xmlns="http://www.w3.org/2000/svg">
<g clip-path="url(#clip0)" filter="url(#filter0_d)">
<path d="M74.8865 4.37766L75.6454 3.20752C75.4204 2.58726 75.1604 1.98017 74.8669 1.38912L74.3761 1.78456L74.7647 1.18545C74.3944 0.458204 74.103 0 74.103 0C74.103 0 72.581 2.3929 72.0725 4.92644L73.0463 6.42802L71.9682 5.55925C71.9298 5.85438 71.9101 6.15162 71.9091 6.44923C71.9091 9.44979 72.8913 11.8822 74.103 11.8822C75.3147 11.8822 76.2969 9.44979 76.2969 6.44923C76.2742 5.49459 76.1049 4.54906 75.795 3.64559L74.8865 4.37766Z" fill="#E6E6E6"/>
<path d="M80.2583 6.97935L81.6242 6.68732C81.9047 6.08997 82.1512 5.4773 82.3625 4.85225L81.7352 4.78567L82.4346 4.63615C82.6881 3.86067 82.8069 3.33112 82.8069 3.33112C82.8069 3.33112 80.0347 3.94941 77.8795 5.38217L77.5039 7.13097L77.3573 5.75609C77.1209 5.93769 76.8963 6.13394 76.6847 6.34368C74.558 8.46539 73.5286 10.8783 74.3854 11.7331C75.2422 12.5879 77.6607 11.5609 79.7873 9.43915C80.4478 8.74808 80.9983 7.96008 81.4195 7.1026L80.2583 6.97935Z" fill="#E6E6E6"/>
<path d="M80.7572 18.5896C77.5896 18.7917 74.1383 18.5778 70.4666 18.5896V10.2026C73.7019 10.7051 77.1522 10.6535 80.7572 10.2026V18.5896Z" fill="#E6E6E6"/>
<path d="M103.418 25.1292L103.913 24.3661C103.766 23.9616 103.597 23.5657 103.405 23.1803L103.085 23.4381L103.339 23.0474C103.097 22.5732 102.907 22.2744 102.907 22.2744C102.298 23.2683 101.851 24.3528 101.583 25.4871L102.218 26.4663L101.515 25.8998C101.49 26.0922 101.477 26.2861 101.477 26.4802C101.477 28.437 102.117 30.0232 102.907 30.0232C103.697 30.0232 104.338 28.437 104.338 26.4802C104.323 25.8576 104.213 25.241 104.011 24.6518L103.418 25.1292Z" fill="#E6E6E6"/>
<path d="M106.921 26.8255L107.812 26.635C107.995 26.2455 108.156 25.8459 108.294 25.4383L107.885 25.3949L108.341 25.2974C108.506 24.7916 108.583 24.4463 108.583 24.4463C107.448 24.7189 106.363 25.1705 105.37 25.7839L105.125 26.9243L105.03 26.0277C104.875 26.1461 104.729 26.2741 104.591 26.4109C103.204 27.7946 102.533 29.3681 103.091 29.9256C103.65 30.483 105.227 29.8132 106.614 28.4296C107.045 27.9789 107.404 27.465 107.679 26.9058L106.921 26.8255Z" fill="#E6E6E6"/>
<path d="M107.247 34.3974C105.181 34.5293 102.93 34.3898 100.536 34.3974V28.928C102.762 29.2391 105.02 29.2391 107.247 28.928V34.3974Z" fill="#E6E6E6"/>
<path d="M105.971 50.6065C104.147 50.7229 102.16 50.5997 100.045 50.6065V45.7769C102.011 46.0516 104.006 46.0516 105.971 45.7769V50.6065Z" fill="#E6E6E6"/>
<path d="M116.379 18.0001H36.64V20.2223H116.379V18.0001Z" fill="#E6E6E6"/>
<path d="M116.379 33.7775H36.64V35.9997H116.379V33.7775Z" fill="#E6E6E6"/>
<path d="M116.379 49.5549H36.64V51.7771H116.379V49.5549Z" fill="#E6E6E6"/>
<path d="M103.015 47.5549C105.475 47.5549 107.47 45.5651 107.47 43.1105C107.47 40.6559 105.475 38.6661 103.015 38.6661C100.555 38.6661 98.5603 40.6559 98.5603 43.1105C98.5603 45.5651 100.555 47.5549 103.015 47.5549Z" fill="#E6E6E6"/>
<path d="M103.015 46.6658C104.983 46.6658 106.579 45.074 106.579 43.1103C106.579 41.1467 104.983 39.5548 103.015 39.5548C101.047 39.5548 99.4513 41.1467 99.4513 43.1103C99.4513 45.074 101.047 46.6658 103.015 46.6658Z" fill="white"/>
<path d="M103.015 43.9995C103.507 43.9995 103.906 43.6015 103.906 43.1106C103.906 42.6197 103.507 42.2217 103.015 42.2217C102.523 42.2217 102.124 42.6197 102.124 43.1106C102.124 43.6015 102.523 43.9995 103.015 43.9995Z" fill="#E6E6E6"/>
<path d="M106.133 43.3331V42.8887H102.569V43.3331H106.133Z" fill="#E6E6E6"/>
<path d="M102.792 43.5552H103.238V39.9997H102.792V43.5552Z" fill="#E6E6E6"/>
<path d="M77.2572 22.9369H74.3098V34.5769H77.2572V22.9369Z" fill="#E6E6E6"/>
<path d="M77.2572 24.7751H74.3098V26.1229H77.2572V24.7751Z" fill="#CCCCCC"/>
<path d="M77.2572 30.656H74.3098V32.0038H77.2572V30.656Z" fill="#CCCCCC"/>
<path d="M72.7134 22.9369H69.7659V34.5769H72.7134V22.9369Z" fill="#E6E6E6"/>
<path d="M72.7134 24.7751H69.7659V26.1229H72.7134V24.7751Z" fill="#CCCCCC"/>
<path d="M72.7134 30.656H69.7659V32.0038H72.7134V30.656Z" fill="#CCCCCC"/>
<path d="M79.7968 22.8884L77.1554 24.1931L82.3319 34.6247L84.9734 33.32L79.7968 22.8884Z" fill="#E6E6E6"/>
<path d="M80.6141 24.5356L77.9727 25.8403L78.5721 27.0482L81.2135 25.7435L80.6141 24.5356Z" fill="#CCCCCC"/>
<path d="M83.2297 29.8065L80.5883 31.1113L81.1876 32.3191L83.8291 31.0144L83.2297 29.8065Z" fill="#CCCCCC"/>
<path d="M50.9745 38.7143H48.0271V50.3544H50.9745V38.7143Z" fill="#E6E6E6"/>
<path d="M50.9745 40.5525H48.0271V41.9003H50.9745V40.5525Z" fill="#CCCCCC"/>
<path d="M50.9745 46.4333H48.0271V47.7811H50.9745V46.4333Z" fill="#CCCCCC"/>
<path d="M46.4306 38.7143H43.4831V50.3544H46.4306V38.7143Z" fill="#E6E6E6"/>
<path d="M46.4306 40.5525H43.4831V41.9003H46.4306V40.5525Z" fill="#CCCCCC"/>
<path d="M46.4306 46.4333H43.4831V47.7811H46.4306V46.4333Z" fill="#CCCCCC"/>
<path d="M53.5141 38.6663L50.8727 39.9711L56.0492 50.4027L58.6907 49.0979L53.5141 38.6663Z" fill="#E6E6E6"/>
<path d="M54.3316 40.313L51.6901 41.6177L52.2895 42.8256L54.9309 41.5209L54.3316 40.313Z" fill="#CCCCCC"/>
<path d="M56.947 45.5839L54.3055 46.8886L54.9049 48.0965L57.5464 46.7917L56.947 45.5839Z" fill="#CCCCCC"/>
<path d="M78.5938 38.7143H75.6463V50.3544H78.5938V38.7143Z" fill="#E6E6E6"/>
<path d="M78.5938 40.5525H75.6463V41.9003H78.5938V40.5525Z" fill="#CCCCCC"/>
<path d="M78.5938 46.4333H75.6463V47.7811H78.5938V46.4333Z" fill="#CCCCCC"/>
<path d="M74.0498 38.7143H71.1023V50.3544H74.0498V38.7143Z" fill="#E6E6E6"/>
<path d="M74.0498 40.5525H71.1023V41.9003H74.0498V40.5525Z" fill="#CCCCCC"/>
<path d="M74.0498 46.4333H71.1023V47.7811H74.0498V46.4333Z" fill="#CCCCCC"/>
<path d="M81.1332 38.6663L78.4917 39.9711L83.6683 50.4027L86.3097 49.0979L81.1332 38.6663Z" fill="#E6E6E6"/>
<path d="M81.9507 40.313L79.3092 41.6177L79.9086 42.8256L82.5501 41.5209L81.9507 40.313Z" fill="#CCCCCC"/>
<path d="M84.5662 45.5839L81.9247 46.8887L82.5241 48.0965L85.1656 46.7918L84.5662 45.5839Z" fill="#CCCCCC"/>
<path d="M110.142 7.12421H98.4279V18.8117H110.142V7.12421Z" fill="#E6E6E6"/>
<path d="M107.8 9.46167H100.771V16.4741H107.8V9.46167Z" fill="#CCCCCC"/>
<path d="M102.805 11.8159L104.296 14.3912L105.786 16.9665H102.805H99.8247L101.315 14.3912L102.805 11.8159Z" fill="#E6E6E6"/>
<path d="M105.395 12.3076L106.886 14.8829L108.376 17.4583H105.395H102.414L103.905 14.8829L105.395 12.3076Z" fill="#E6E6E6"/>
<path d="M106.443 11.5531C106.92 11.5531 107.306 11.1675 107.306 10.6919C107.306 10.2163 106.92 9.83075 106.443 9.83075C105.967 9.83075 105.58 10.2163 105.58 10.6919C105.58 11.1675 105.967 11.5531 106.443 11.5531Z" fill="#E6E6E6"/>
<path d="M50.8949 7.12421H39.1803V18.8117H50.8949V7.12421Z" fill="#E6E6E6"/>
<path d="M48.5521 9.46167H41.5234V16.4741H48.5521V9.46167Z" fill="#CCCCCC"/>
<path d="M43.5581 11.8159L45.0483 14.3912L46.5388 16.9665H43.5581H40.5774L42.0676 14.3912L43.5581 11.8159Z" fill="#E6E6E6"/>
<path d="M46.1476 12.3076L47.6378 14.8829L49.128 17.4583H46.1476H43.1669L44.6571 14.8829L46.1476 12.3076Z" fill="#E6E6E6"/>
<path d="M47.1955 11.5531C47.6722 11.5531 48.0587 11.1675 48.0587 10.6919C48.0587 10.2163 47.6722 9.83075 47.1955 9.83075C46.7188 9.83075 46.3323 10.2163 46.3323 10.6919C46.3323 11.1675 46.7188 11.5531 47.1955 11.5531Z" fill="#E6E6E6"/>
<path d="M15.639 86.8207L16.3979 85.6505C16.1728 85.0303 15.9129 84.4232 15.6193 83.8321L15.1286 84.2276L15.5171 83.6284C15.1468 82.9012 14.8554 82.443 14.8554 82.443C14.8554 82.443 13.3334 84.8359 12.8249 87.3694L13.7988 88.871L12.7207 88.0022C12.6823 88.2974 12.6625 88.5946 12.6615 88.8922C12.6615 91.8928 13.6438 94.3252 14.8554 94.3252C16.0671 94.3252 17.0493 91.8928 17.0493 88.8922C17.0266 87.9376 16.8574 86.9921 16.5475 86.0886L15.639 86.8207Z" fill="#FFE063"/>
<path d="M21.0105 89.4229L22.3765 89.1309C22.657 88.5335 22.9034 87.9208 23.1147 87.2958L22.4875 87.2292L23.1868 87.0797C23.4404 86.3042 23.5592 85.7747 23.5592 85.7747C23.5592 85.7747 20.787 86.393 18.6318 87.8257L18.2561 89.5745L18.1096 88.1996C17.8732 88.3812 17.6486 88.5775 17.437 88.7872C15.3103 90.9089 14.2809 93.3219 15.1377 94.1767C15.9944 95.0315 18.413 94.0044 20.5396 91.8827C21.2001 91.1916 21.7506 90.4036 22.1718 89.5462L21.0105 89.4229Z" fill="#FFE063"/>
<path d="M21.5096 101.033C18.342 101.235 14.8907 101.021 11.219 101.033V92.6462C14.4544 93.1487 17.9046 93.0971 21.5096 92.6462V101.033Z" fill="#3F3D56"/>
<path d="M152.351 103.666H109.586V158.999H152.351V103.666Z" fill="#E6E6E6"/>
<path d="M22.4964 106.554H20.269V158.998H22.4964V106.554Z" fill="#E6E6E6"/>
<path d="M152.351 99.8879H0V104.332H152.351V99.8879Z" fill="#E6E6E6"/>
<path d="M23.6099 104.332H19.1552V108.777H23.6099V104.332Z" fill="#E6E6E6"/>
<path d="M134.337 106.887L134.087 107.887H127.85L127.474 106.887H111.59V117.109H150.346V106.887H134.337Z" fill="#3F3D56"/>
<path d="M134.337 119.776L134.087 120.776H127.85L127.474 119.776H111.59V129.998H150.346V119.776H134.337Z" fill="#3F3D56"/>
<path d="M134.337 132.665L134.087 133.665H127.85L127.474 132.665H111.59V142.887H150.346V132.665H134.337Z" fill="#3F3D56"/>
<path d="M134.337 145.554L134.087 146.554H127.85L127.474 145.554H111.59V155.776H150.346V145.554H134.337Z" fill="#3F3D56"/>
<path d="M82.6348 99.2212H69.4934L69.9387 93.4435H82.1892L82.6348 99.2212Z" fill="#E6E6E6"/>
<path d="M83.5257 98.5544H68.8252V99.8878H83.5257V98.5544Z" fill="#E6E6E6"/>
<path d="M101.233 56.2215H51.0063C50.6519 56.2215 50.3119 56.362 50.0613 56.612C49.8107 56.8621 49.6699 57.2012 49.6699 57.5548V88.11H102.569V57.5548C102.569 57.2012 102.429 56.8621 102.178 56.612C101.927 56.362 101.588 56.2215 101.233 56.2215Z" fill="#3F3D56"/>
<path d="M49.6699 88.1097V93.1097C49.6699 93.4633 49.8107 93.8024 50.0613 94.0525C50.3119 94.3025 50.6519 94.443 51.0063 94.443H101.233C101.588 94.443 101.927 94.3025 102.178 94.0525C102.429 93.8024 102.569 93.4633 102.569 93.1097V88.1097H49.6699Z" fill="#E6E6E6"/>
<path d="M100.008 58.9996H52.3426V85.6659H100.008V58.9996Z" fill="white"/>
<path d="M76.1755 92.5546C76.9136 92.5546 77.5119 91.9576 77.5119 91.2213C77.5119 90.4849 76.9136 89.8879 76.1755 89.8879C75.4374 89.8879 74.8391 90.4849 74.8391 91.2213C74.8391 91.9576 75.4374 92.5546 76.1755 92.5546Z" fill="#3F3D56"/>
<path d="M189.214 158.665C184.346 158.976 179.042 158.647 173.399 158.665V145.776C178.371 146.549 183.673 146.469 189.214 145.776V158.665Z" fill="#3F3D56"/>
<path d="M181.863 146.934H180.527L180.972 120.888H181.418L181.863 146.934Z" fill="#3F3D56"/>
<path d="M187.877 147.109H186.541L186.986 121.063H187.432L187.877 147.109Z" fill="#3F3D56"/>
<path d="M176.518 147.109H175.181L175.627 121.063H176.072L176.518 147.109Z" fill="#3F3D56"/>
<path d="M182.977 104.221L185.134 100.895C184.494 99.1319 183.755 97.4061 182.921 95.7259L181.526 96.8501L182.63 95.147C181.578 93.0796 180.75 91.7771 180.75 91.7771C180.75 91.7771 176.423 98.5794 174.977 105.781L177.746 110.05L174.681 107.58C174.572 108.419 174.516 109.264 174.513 110.11C174.513 118.64 177.305 125.555 180.75 125.555C184.194 125.555 186.986 118.64 186.986 110.11C186.986 107.466 186.386 104.699 185.559 102.14L182.977 104.221Z" fill="#E6E6E6"/>
<path d="M188.991 104.666L191.148 101.339C190.508 99.576 189.769 97.8502 188.935 96.17L187.54 97.2941L188.644 95.5911C187.592 93.5237 186.763 92.2212 186.763 92.2212C186.763 92.2212 182.437 99.0235 180.991 106.226L183.76 110.494L180.695 108.024C180.586 108.863 180.53 109.708 180.527 110.554C180.527 119.084 183.319 125.999 186.763 125.999C190.208 125.999 193 119.084 193 110.554C193 107.91 192.4 105.144 191.573 102.584L188.991 104.666Z" fill="#FFE063"/>
<path d="M177.631 104.666L179.789 101.339C179.149 99.576 178.41 97.8502 177.575 96.17L176.18 97.2941L177.285 95.5911C176.232 93.5237 175.404 92.2212 175.404 92.2212C175.404 92.2212 171.077 99.0235 169.632 106.226L172.4 110.494L169.335 108.024C169.226 108.863 169.17 109.708 169.167 110.554C169.167 119.084 171.96 125.999 175.404 125.999C178.848 125.999 181.64 119.084 181.64 110.554C181.64 107.91 181.041 105.144 180.214 102.584L177.631 104.666Z" fill="#FFE063"/>
<path d="M80.652 66.5265H67.7999V67.2625H80.652V66.5265Z" fill="#3F3D56"/>
<path d="M87.6462 69.2115H67.7999V69.9476H87.6462V69.2115Z" fill="#FFE063"/>
<path d="M83.9743 71.7412H67.7999V72.4773H83.9743V71.7412Z" fill="#FFE063"/>
<path d="M77.2422 74.2614H67.7999V74.9974H77.2422V74.2614Z" fill="#3F3D56"/>
<path d="M82.0508 76.7808H67.7999V77.5168H82.0508V76.7808Z" fill="#3F3D56"/>
<path d="M63.5159 66.265H61.9422V67.835H63.5159V66.265Z" fill="#3F3D56"/>
<path d="M63.5159 68.7941H61.9422V70.3642H63.5159V68.7941Z" fill="#FFE063"/>
<path d="M63.5159 71.3242H61.9422V72.8943H63.5159V71.3242Z" fill="#FFE063"/>
<path d="M63.5159 73.8539H61.9422V75.424H63.5159V73.8539Z" fill="#3F3D56"/>
<path d="M63.5159 76.3831H61.9422V77.9532H63.5159V76.3831Z" fill="#3F3D56"/>
<path d="M97.7998 65.1335H91.0555C90.5953 62.479 90.5953 59.7654 91.0555 57.1108H97.7998C97.04 59.7313 97.04 62.513 97.7998 65.1335Z" fill="#FFE063"/>
<path d="M48.7263 81.2131L45.9517 80.5383C44.8929 80.5397 43.8471 80.3061 42.8898 79.8547C41.9326 79.4032 41.088 78.7451 40.417 77.9279C39.7461 77.1108 39.2656 76.1551 39.0103 75.1299C38.755 74.1047 38.7314 73.0357 38.9411 72.0003C38.938 69.5298 39.9187 67.1593 41.6674 65.4102C43.4162 63.6611 45.7897 62.6767 48.266 62.6736H48.266C50.7422 62.6705 53.1182 63.6489 54.8714 65.3936C56.6246 67.1383 57.6112 69.5064 57.6143 71.9769V71.9769C59.1875 77.4388 54.2604 82.559 48.7263 81.2131Z" fill="#2F2E41"/>
<path d="M51.7572 82.1866C55.546 82.1866 58.6175 79.1222 58.6175 75.3421C58.6175 71.5621 55.546 68.4977 51.7572 68.4977C47.9683 68.4977 44.8968 71.5621 44.8968 75.3421C44.8968 79.1222 47.9683 82.1866 51.7572 82.1866Z" fill="#FFB8B8"/>
<path d="M47.2829 78.9131C47.2829 78.9131 45.1949 86.0552 44.0018 86.6503C42.8087 87.2455 53.5466 88.1383 53.5466 88.1383C53.5466 88.1383 53.2484 81.2938 53.8449 80.6986C54.4415 80.1035 47.2829 78.9131 47.2829 78.9131Z" fill="#FFB8B8"/>
<path d="M58.0209 122.956C58.0209 122.956 71.4433 121.765 73.233 126.229C75.0226 130.693 72.0398 157.178 72.0398 157.178H66.3726V135.454C66.3726 135.454 42.2084 128.602 42.2084 126.221C42.2084 123.84 58.0209 122.956 58.0209 122.956Z" fill="#2F2E41"/>
<path d="M71.1449 155.988L74.1277 157.178C74.1277 157.178 77.707 156.881 76.2156 159.559C75.7887 160.336 75.1916 161.008 74.4685 161.523C73.7455 162.038 72.9153 162.384 72.0398 162.535C72.0398 162.535 66.3726 164.618 66.0743 162.535C65.776 160.452 67.5657 156.285 67.5657 156.285L71.1449 155.988Z" fill="#2F2E41"/>
<path d="M50.5639 122.956C50.5639 122.956 63.9863 121.766 65.7759 126.23C67.5656 130.693 64.5828 157.178 64.5828 157.178H58.9156V135.455C58.9156 135.455 41.7628 131.491 41.7628 129.11C41.7628 127.992 40.594 122.308 42.6538 121.11C44.9785 119.759 50.5639 122.956 50.5639 122.956Z" fill="#2F2E41"/>
<path d="M63.688 155.988L66.6707 157.178C66.6707 157.178 70.25 156.881 68.7587 159.559C68.3318 160.336 67.7346 161.008 67.0116 161.523C66.2886 162.038 65.4584 162.384 64.5828 162.535C64.5828 162.535 58.9155 164.618 58.6173 162.535C58.319 160.452 60.1086 156.285 60.1086 156.285L63.688 155.988Z" fill="#2F2E41"/>
<path d="M44.3001 85.7574L53.2639 86.7295C54.6473 86.8795 55.9479 87.4618 56.9798 88.3933C58.0117 89.3247 58.7222 90.5577 59.0098 91.916L62.4949 108.374C62.4949 108.374 63.688 124.741 61.3018 125.634C58.9156 126.527 55.6346 122.063 51.1604 122.658C46.6863 123.253 40.8699 124.592 40.8699 124.592C40.8699 124.592 39.9463 95.2956 39.826 92.8994C39.5855 88.1091 44.3001 85.7574 44.3001 85.7574Z" fill="#575A89"/>
<path d="M65.5332 123.806L69.2131 125.968C69.2131 125.968 75.8151 125.023 75.609 127.338C75.4029 129.653 68.1964 129.206 68.1964 129.206L63.7615 126.479L65.5332 123.806Z" fill="#FFB8B8"/>
<path d="M38.441 69.7753C40.8885 69.7753 42.8725 67.7958 42.8725 65.354C42.8725 62.9123 40.8885 60.9328 38.441 60.9328C35.9936 60.9328 34.0096 62.9123 34.0096 65.354C34.0096 67.7958 35.9936 69.7753 38.441 69.7753Z" fill="#2F2E41"/>
<path d="M42.53 62.9774C42.5295 62.3234 42.3835 61.6776 42.1025 61.0867C41.8216 60.4959 41.4126 59.9746 40.9053 59.5604C40.3979 59.1463 39.8048 58.8497 39.1686 58.692C38.5324 58.5343 37.8691 58.5195 37.2264 58.6486C37.7934 58.3812 38.4109 58.2371 39.0379 58.2257C39.6649 58.2142 40.2873 58.3357 40.8637 58.5822C41.4401 58.8287 41.9575 59.1944 42.3817 59.6553C42.8058 60.1162 43.127 60.6617 43.324 61.2557C43.5211 61.8497 43.5894 62.4786 43.5246 63.101C43.4598 63.7233 43.2632 64.3248 42.948 64.8657C42.6327 65.4065 42.2059 65.8745 41.6958 66.2385C41.1858 66.6025 40.604 66.8543 39.9891 66.9772C40.7495 66.6198 41.3922 66.0539 41.8421 65.3456C42.2921 64.6374 42.5307 63.8159 42.53 62.9774Z" fill="#2F2E41"/>
<path d="M46.3318 65.485L52.3061 64.3875L56.9006 67.2605C58.0302 67.9668 58.9331 68.9815 59.5021 70.1843C60.0711 71.387 60.2825 72.7274 60.1111 74.0463L55.5095 72.8827L54.4791 70.305L53.2519 72.3118L46.8355 80.55L43.233 78.2612L40.0214 73.2399L46.3318 65.485Z" fill="#2F2E41"/>
<path d="M51.2514 88.289L54.2342 86.801C54.2342 86.801 60.4979 87.6938 61.6911 91.86C62.8842 96.0262 68.2531 124.892 68.2531 124.892L63.1824 127.273L56.0238 109.715L51.2514 88.289Z" fill="#575A89"/>
<path opacity="0.2" d="M53.7906 99.999L56.7759 111.56L62.0698 124.543L61.8862 124.993L55.5724 111.777L53.7906 99.999Z" fill="black"/>
<path d="M31.5162 163.755L30.4634 163.393L40.6619 133.17L42.1362 133.677L31.5162 163.755Z" fill="#3F3D56"/>
<path d="M70.4963 163.755L71.5493 163.393L61.3505 133.17L59.8765 133.677L70.4963 163.755Z" fill="#3F3D56"/>
<path d="M48.9463 169.996L50.0599 170L50.4059 134.671L48.8468 134.665L48.9463 169.996Z" fill="#3F3D56"/>
<path d="M28.9385 115.411L31.9933 127.729C32.4211 129.454 33.3118 131.03 34.5698 132.288C35.8277 133.546 37.4053 134.439 39.1333 134.87H39.1333C47.6528 136.995 56.5724 136.937 65.0637 134.703L69.6246 133.503C72.2747 132.806 74.2676 130.535 74.4561 127.807C74.5326 126.843 74.3575 125.875 73.948 124.998C73.9302 124.96 73.9123 124.923 73.8943 124.886C73.2995 123.667 72.3819 122.633 71.2407 121.897C70.0996 121.161 68.7784 120.75 67.4201 120.709L62.5885 120.554L44.9925 112.776C44.9925 112.776 38.9407 109.709 33.9657 109.366C30.6801 109.139 28.1475 112.222 28.9385 115.411Z" fill="#FFE063"/>
<path d="M136.203 76.6658H118.829V100.221H136.203V76.6658Z" fill="#E6E6E6"/>
<path d="M134.198 79.3834H120.834V97.5029H134.198V79.3834Z" fill="white"/>
<path d="M132.569 84.1255H126.094V84.8615H132.569V84.1255Z" fill="#3F3D56"/>
<path d="M124.037 83.7177H122.463V85.2877H124.037V83.7177Z" fill="#3F3D56"/>
<path d="M132.569 87.2365H126.094V87.9726H132.569V87.2365Z" fill="#3F3D56"/>
<path d="M124.037 86.8291H122.463V88.3992H124.037V86.8291Z" fill="#3F3D56"/>
<path d="M132.569 90.3475H126.094V91.0836H132.569V90.3475Z" fill="#3F3D56"/>
<path d="M124.037 89.9402H122.463V91.5103H124.037V89.9402Z" fill="#3F3D56"/>
<path d="M128.184 77.9994C128.184 77.6312 127.885 77.3327 127.516 77.3327C127.147 77.3327 126.848 77.6312 126.848 77.9994C126.848 78.3675 127.147 78.666 127.516 78.666C127.885 78.666 128.184 78.3675 128.184 77.9994Z" fill="#3F3D56"/>
</g>
<defs>
<filter id="filter0_d" x="-4" y="0" width="201" height="178" filterUnits="userSpaceOnUse" color-interpolation-filters="sRGB">
<feFlood flood-opacity="0" result="BackgroundImageFix"/>
<feColorMatrix in="SourceAlpha" type="matrix" values="0 0 0 0 0 0 0 0 0 0 0 0 0 0 0 0 0 0 127 0"/>
<feOffset dy="4"/>
<feGaussianBlur stdDeviation="2"/>
<feColorMatrix type="matrix" values="0 0 0 0 0 0 0 0 0 0 0 0 0 0 0 0 0 0 0.25 0"/>
<feBlend mode="normal" in2="BackgroundImageFix" result="effect1_dropShadow"/>
<feBlend mode="normal" in="SourceGraphic" in2="effect1_dropShadow" result="shape"/>
</filter>
<clipPath id="clip0">
<rect width="193" height="170" fill="white"/>
</clipPath>
</defs>
</svg>
