<svg width="323" height="171" viewBox="0 0 323 171" fill="none" xmlns="http://www.w3.org/2000/svg">
<g filter="url(#filter0_d)">
<path d="M72.9541 170.631H72.2358C72.2358 161.713 68.6791 153.16 62.3481 146.854C56.0171 140.548 47.4304 137.006 38.4771 137.006C29.5237 137.006 20.937 140.548 14.606 146.854C8.27504 153.16 4.71833 161.713 4.71833 170.631H4.00006C4.00006 161.523 7.63245 152.789 14.0981 146.348C20.5638 139.908 29.3332 136.29 38.4771 136.29C47.6209 136.29 56.3903 139.908 62.856 146.348C69.3217 152.789 72.9541 161.523 72.9541 170.631Z" fill="#3F3D56"/>
<path d="M322.912 170.631H322.194C322.194 161.713 318.637 153.16 312.306 146.854C305.975 140.548 297.389 137.006 288.435 137.006C279.482 137.006 270.895 140.548 264.564 146.854C258.233 153.16 254.677 161.713 254.677 170.631H253.958C253.958 161.523 257.591 152.788 264.057 146.348C270.522 139.908 279.292 136.29 288.435 136.29C297.579 136.29 306.349 139.908 312.814 146.348C319.28 152.788 322.912 161.523 322.912 170.631Z" fill="#3F3D56"/>
<path d="M238.516 88.714H237.797C237.797 54.7877 210.087 27.1868 176.026 27.1868C141.965 27.1868 114.255 54.7877 114.255 88.714H113.536C113.536 54.3933 141.569 26.4714 176.026 26.4714C210.483 26.4714 238.516 54.3933 238.516 88.714Z" fill="#3F3D56"/>
<path d="M56.2543 28.2596C64.0889 28.2596 70.4402 21.9334 70.4402 14.1298C70.4402 6.32612 64.0889 0 56.2543 0C48.4197 0 42.0685 6.32612 42.0685 14.1298C42.0685 21.9334 48.4197 28.2596 56.2543 28.2596Z" fill="#FF6584"/>
<path d="M59.2678 111.388L83.6391 82.4782H131.555L160.836 110.887L160.245 111.265H160.456V170.355H59.3012V111.265L59.2678 111.388Z" fill="#3F3D56"/>
<path d="M73.9307 98.8189H79.4552V79.771H73.9307V98.8189Z" fill="#3F3D56"/>
<path d="M83.2593 82.0999L113.301 117.182V170.355H59.3014V110.508L83.2593 82.0999Z" fill="#FFE063"/>
<path d="M106.359 124.144H95.3304V135.376H106.359V124.144Z" fill="#3F3D56"/>
<path d="M106.359 139.425H95.3304V150.657H106.359V139.425Z" fill="#3F3D56"/>
<path d="M106.359 124.144H95.3304V135.376H106.359V124.144Z" fill="white"/>
<path d="M106.359 139.425H95.3304V150.657H106.359V139.425Z" fill="white"/>
<path d="M91.1064 124.144H80.0782V135.376H91.1064V124.144Z" fill="#3F3D56"/>
<path d="M91.1064 139.425H80.0782V150.657H91.1064V139.425Z" fill="#3F3D56"/>
<path d="M91.1064 124.144H80.0782V135.376H91.1064V124.144Z" fill="white"/>
<path d="M91.1064 139.425H80.0782V150.657H91.1064V139.425Z" fill="white"/>
<path d="M75.8548 124.144H64.8267V135.376H75.8548V124.144Z" fill="#3F3D56"/>
<path d="M75.8548 139.425H64.8267V150.657H75.8548V139.425Z" fill="#3F3D56"/>
<path d="M75.8548 124.144H64.8267V135.376H75.8548V124.144Z" fill="white"/>
<path d="M75.8548 139.425H64.8267V150.657H75.8548V139.425Z" fill="white"/>
<path d="M183.209 14.3082H178.181V26.8282H183.209V14.3082Z" fill="#FFE063"/>
<path d="M182.849 25.7552H140.112V170.63H182.849V25.7552Z" fill="#FFE063"/>
<path d="M200.088 25.7552H182.849V170.63H200.088V25.7552Z" fill="#3F3D56"/>
<path d="M154.298 38.2751H147.834V44.714H154.298V38.2751Z" fill="white"/>
<path d="M164.713 38.2751H158.249V44.714H164.713V38.2751Z" fill="white"/>
<path d="M175.128 38.2751H168.664V44.714H175.128V38.2751Z" fill="white"/>
<path d="M154.478 52.9418H148.013V59.3807H154.478V52.9418Z" fill="white"/>
<path d="M164.893 52.9418H158.428V59.3807H164.893V52.9418Z" fill="white"/>
<path d="M175.307 52.9418H168.843V59.3807H175.307V52.9418Z" fill="white"/>
<path d="M154.657 67.6085H148.193V74.0474H154.657V67.6085Z" fill="white"/>
<path d="M165.072 67.6085H158.608V74.0474H165.072V67.6085Z" fill="white"/>
<path d="M175.487 67.6085H169.023V74.0474H175.487V67.6085Z" fill="white"/>
<path d="M154.837 82.2748H148.372V88.7137H154.837V82.2748Z" fill="white"/>
<path d="M165.252 82.2748H158.787V88.7137H165.252V82.2748Z" fill="white"/>
<path d="M175.667 82.2748H169.202V88.7137H175.667V82.2748Z" fill="white"/>
<path d="M155.017 96.9419H148.552V103.381H155.017V96.9419Z" fill="white"/>
<path d="M165.432 96.9419H158.967V103.381H165.432V96.9419Z" fill="white"/>
<path d="M175.847 96.9419H169.382V103.381H175.847V96.9419Z" fill="white"/>
<path d="M155.196 111.607H148.732V118.046H155.196V111.607Z" fill="white"/>
<path d="M165.611 111.607H159.146V118.046H165.611V111.607Z" fill="white"/>
<path d="M176.026 111.607H169.561V118.046H176.026V111.607Z" fill="white"/>
<path d="M155.376 126.274H148.911V132.713H155.376V126.274Z" fill="white"/>
<path d="M165.79 126.274H159.326V132.713H165.79V126.274Z" fill="white"/>
<path d="M176.205 126.274H169.741V132.713H176.205V126.274Z" fill="white"/>
<path d="M155.555 140.941H149.091V147.38H155.555V140.941Z" fill="white"/>
<path d="M165.97 140.941H159.506V147.38H165.97V140.941Z" fill="white"/>
<path d="M165.97 158.11H159.506V170.272H165.97V158.11Z" fill="white"/>
<path d="M176.385 140.941H169.921V147.38H176.385V140.941Z" fill="white"/>
<path d="M185.723 14.3082H182.849V26.4705H185.723V14.3082Z" fill="#3F3D56"/>
<path d="M237.079 77.9816H232.051V85.4019H237.079V77.9816Z" fill="#FFE063"/>
<path d="M236.72 84.7664H193.983V170.631H236.72V84.7664Z" fill="#FFE063"/>
<path d="M253.958 84.7664H236.72V170.631H253.958V84.7664Z" fill="#3F3D56"/>
<path d="M208.887 96.9419H202.422V103.381H208.887V96.9419Z" fill="white"/>
<path d="M219.302 96.9419H212.837V103.381H219.302V96.9419Z" fill="white"/>
<path d="M229.717 96.9419H223.252V103.381H229.717V96.9419Z" fill="white"/>
<path d="M209.067 111.607H202.602V118.046H209.067V111.607Z" fill="white"/>
<path d="M219.482 111.607H213.017V118.046H219.482V111.607Z" fill="white"/>
<path d="M229.896 111.607H223.432V118.046H229.896V111.607Z" fill="white"/>
<path d="M209.246 126.274H202.782V132.713H209.246V126.274Z" fill="white"/>
<path d="M219.661 126.274H213.197V132.713H219.661V126.274Z" fill="white"/>
<path d="M230.076 126.274H223.611V132.713H230.076V126.274Z" fill="white"/>
<path d="M209.425 140.941H202.961V147.38H209.425V140.941Z" fill="white"/>
<path d="M219.84 140.941H213.376V147.38H219.84V140.941Z" fill="white"/>
<path d="M219.84 158.11H213.376V170.272H219.84V158.11Z" fill="white"/>
<path d="M230.255 140.941H223.791V147.38H230.255V140.941Z" fill="white"/>
<path d="M239.593 77.9816H236.72V85.1899H239.593V77.9816Z" fill="#3F3D56"/>
<path d="M323 170.198H4.08737V170.999H323V170.198Z" fill="#3F3D56"/>
<path d="M267.124 153.847C272.289 153.847 276.476 149.677 276.476 144.532C276.476 139.388 272.289 135.217 267.124 135.217C261.959 135.217 257.772 139.388 257.772 144.532C257.772 149.677 261.959 153.847 267.124 153.847Z" fill="#FFE063"/>
<path opacity="0.2" d="M274.081 138.31C274.953 140.342 275.071 142.618 274.415 144.729C273.758 146.84 272.369 148.65 270.495 149.835C268.622 151.021 266.387 151.504 264.189 151.198C261.991 150.893 259.974 149.819 258.497 148.169C259.03 149.41 259.828 150.522 260.835 151.426C261.842 152.331 263.034 153.006 264.329 153.406C265.624 153.805 266.991 153.92 268.335 153.741C269.679 153.563 270.968 153.095 272.112 152.371C273.257 151.647 274.229 150.684 274.963 149.548C275.697 148.412 276.174 147.131 276.361 145.794C276.548 144.456 276.441 143.094 276.047 141.802C275.654 140.51 274.983 139.318 274.081 138.31Z" fill="black"/>
<path d="M267.15 144.531H267.175L267.638 170.941H266.661L267.15 144.531Z" fill="#3F3D56"/>
<path d="M268.852 158.918L268.637 158.51L267.091 159.321L267.306 159.729L268.852 158.918Z" fill="#3F3D56"/>
<path d="M294.619 144.945C302.473 144.945 308.841 138.603 308.841 130.78C308.841 122.957 302.473 116.615 294.619 116.615C286.765 116.615 280.397 122.957 280.397 130.78C280.397 138.603 286.765 144.945 294.619 144.945Z" fill="#FFE063"/>
<path opacity="0.2" d="M305.198 121.319C306.525 124.409 306.705 127.869 305.706 131.08C304.707 134.291 302.595 137.043 299.746 138.845C296.897 140.648 293.498 141.382 290.156 140.918C286.813 140.453 283.746 138.821 281.501 136.311C282.311 138.199 283.524 139.889 285.055 141.264C286.587 142.64 288.4 143.667 290.369 144.274C292.338 144.882 294.417 145.056 296.461 144.785C298.504 144.513 300.464 143.802 302.204 142.701C303.945 141.6 305.424 140.135 306.54 138.408C307.655 136.681 308.381 134.733 308.665 132.699C308.95 130.665 308.788 128.594 308.189 126.629C307.59 124.664 306.57 122.852 305.198 121.319Z" fill="black"/>
<path d="M294.658 130.78H294.697L295.4 170.942H293.916L294.658 130.78Z" fill="#3F3D56"/>
<path d="M297.248 152.656L296.92 152.036L294.569 153.269L294.897 153.888L297.248 152.656Z" fill="#3F3D56"/>
<path d="M13.5737 153.489C18.7388 153.489 22.9258 149.319 22.9258 144.174C22.9258 139.029 18.7388 134.859 13.5737 134.859C8.40872 134.859 4.22165 139.029 4.22165 144.174C4.22165 149.319 8.40872 153.489 13.5737 153.489Z" fill="#FFE063"/>
<path opacity="0.2" d="M20.5311 137.951C21.4035 139.984 21.5218 142.259 20.865 144.37C20.2082 146.482 18.819 148.292 16.9458 149.477C15.0725 150.662 12.8372 151.145 10.6393 150.84C8.44134 150.535 6.42403 149.461 4.94781 147.81C5.4807 149.052 6.27827 150.164 7.28526 151.068C8.29225 151.972 9.48457 152.647 10.7796 153.047C12.0747 153.447 13.4415 153.561 14.7854 153.383C16.1293 153.204 17.4181 152.737 18.5626 152.012C19.7071 151.288 20.6798 150.325 21.4134 149.189C22.1471 148.054 22.624 146.773 22.8113 145.435C22.9985 144.098 22.8916 142.736 22.4979 141.443C22.1042 140.151 21.4331 138.96 20.5312 137.951H20.5311Z" fill="black"/>
<path d="M13.5999 144.174H13.6258L14.088 170.584H13.1118L13.5999 144.174Z" fill="#3F3D56"/>
<path d="M15.303 158.56L15.0875 158.152L13.5416 158.963L13.757 159.37L15.303 158.56Z" fill="#3F3D56"/>
<path d="M221.785 13.3557L225.091 10.7219C222.523 10.4396 221.467 11.8348 221.035 12.9391C219.029 12.1092 216.845 13.1969 216.845 13.1969L223.46 15.5888C223.126 14.701 222.545 13.9263 221.785 13.3557Z" fill="#3F3D56"/>
<path d="M55.8642 26.5922L59.1702 23.9584C56.6019 23.6762 55.5466 25.0713 55.1147 26.1756C53.1082 25.3457 50.9239 26.4334 50.9239 26.4334L57.5388 28.8253C57.2051 27.9375 56.6242 27.1628 55.8642 26.5922Z" fill="#3F3D56"/>
<path d="M272.064 40.1841L275.37 37.5503C272.802 37.2681 271.746 38.6633 271.314 39.7676C269.308 38.9377 267.124 40.0253 267.124 40.0253L273.738 42.4172C273.405 41.5294 272.824 40.7548 272.064 40.1841Z" fill="#3F3D56"/>
<path d="M83.1582 19.4381L86.4643 16.8043C83.8959 16.522 82.8407 17.9172 82.4088 19.0215C80.4023 18.1916 78.218 19.2793 78.218 19.2793L84.8328 21.6712C84.4991 20.7834 83.9182 20.0087 83.1582 19.4381Z" fill="#3F3D56"/>
<path d="M89.2638 48.0544L92.5699 45.4206C90.0016 45.1384 88.9463 46.5336 88.5144 47.6379C86.5079 46.808 84.3236 47.8956 84.3236 47.8956L90.9385 50.2875C90.6048 49.3997 90.0238 48.6251 89.2638 48.0544Z" fill="#3F3D56"/>
<path d="M217.834 63.0781L221.14 60.4443C218.572 60.1621 217.517 61.5572 217.085 62.6616C215.078 61.8316 212.894 62.9193 212.894 62.9193L219.509 65.3112C219.175 64.4234 218.594 63.6487 217.834 63.0781Z" fill="#3F3D56"/>
<path d="M42.0686 163.119H19.8022V163.834H23.2746V170.631H23.9929V163.834H37.5187V170.631H38.2369V163.834H42.0686V163.119Z" fill="#3F3D56"/>
<path d="M64.694 165.98C63.8151 165.98 62.9518 166.211 62.191 166.649C61.4183 165.953 60.4595 165.496 59.4308 165.332C58.4021 165.168 57.3479 165.306 56.396 165.727C55.4441 166.149 54.6356 166.837 54.0686 167.707C53.5016 168.578 53.2004 169.593 53.2017 170.631H69.7038C69.6138 169.368 69.047 168.187 68.1174 167.324C67.1879 166.461 65.9646 165.981 64.694 165.98Z" fill="#3F3D56"/>
<path d="M149.809 165.98C148.93 165.98 148.067 166.211 147.306 166.649C146.533 165.953 145.575 165.496 144.546 165.332C143.517 165.168 142.463 165.306 141.511 165.727C140.559 166.149 139.751 166.837 139.184 167.707C138.617 168.578 138.316 169.593 138.317 170.631H154.819C154.729 169.368 154.162 168.187 153.233 167.324C152.303 166.461 151.08 165.981 149.809 165.98Z" fill="#3F3D56"/>
<path d="M205.475 165.98C204.596 165.98 203.733 166.211 202.972 166.649C202.2 165.953 201.241 165.496 200.212 165.332C199.183 165.168 198.129 165.306 197.177 165.727C196.225 166.149 195.417 166.837 194.85 167.707C194.283 168.578 193.982 169.593 193.983 170.631H210.485C210.395 169.368 209.828 168.187 208.899 167.324C207.969 166.461 206.746 165.981 205.475 165.98Z" fill="#3F3D56"/>
<path d="M278.739 165.98C277.86 165.98 276.996 166.211 276.236 166.649C275.463 165.953 274.504 165.496 273.475 165.332C272.447 165.168 271.392 165.306 270.441 165.727C269.489 166.149 268.68 166.837 268.113 167.707C267.546 168.578 267.245 169.593 267.246 170.631H283.748C283.658 169.368 283.092 168.187 282.162 167.324C281.232 166.461 280.009 165.981 278.739 165.98Z" fill="#3F3D56"/>
<path d="M313.934 165.98C313.055 165.98 312.192 166.211 311.431 166.649C310.658 165.953 309.699 165.496 308.671 165.332C307.642 165.168 306.588 165.306 305.636 165.727C304.684 166.149 303.876 166.837 303.309 167.707C302.742 168.578 302.44 169.593 302.442 170.631H318.944C318.854 169.368 318.287 168.187 317.357 167.324C316.428 166.461 315.205 165.981 313.934 165.98Z" fill="#3F3D56"/>
<path d="M50.3285 145.59H44.5823V151.313H47.246V170.599H47.9643V151.313H50.3285V145.59Z" fill="#3F3D56"/>
<path d="M42.1123 160.978H19.8459V161.694H42.1123V160.978Z" fill="#3F3D56"/>
<path d="M42.1123 159.189H19.8459V159.905H42.1123V159.189Z" fill="#3F3D56"/>
<path d="M42.1123 157.401H19.8459V158.117H42.1123V157.401Z" fill="#3F3D56"/>
</g>
<defs>
<filter id="filter0_d" x="0" y="0" width="327" height="179" filterUnits="userSpaceOnUse" color-interpolation-filters="sRGB">
<feFlood flood-opacity="0" result="BackgroundImageFix"/>
<feColorMatrix in="SourceAlpha" type="matrix" values="0 0 0 0 0 0 0 0 0 0 0 0 0 0 0 0 0 0 127 0"/>
<feOffset dy="4"/>
<feGaussianBlur stdDeviation="2"/>
<feColorMatrix type="matrix" values="0 0 0 0 0 0 0 0 0 0 0 0 0 0 0 0 0 0 0.25 0"/>
<feBlend mode="normal" in2="BackgroundImageFix" result="effect1_dropShadow"/>
<feBlend mode="normal" in="SourceGraphic" in2="effect1_dropShadow" result="shape"/>
</filter>
</defs>
</svg>
