<svg width="154" height="100" viewBox="0 0 154 100" fill="none" xmlns="http://www.w3.org/2000/svg">
<g clip-path="url(#clip0)">
<path d="M132.434 99.9996C144.03 99.9996 153.432 99.0678 153.432 97.9182C153.432 96.7687 144.03 95.8368 132.434 95.8368C120.837 95.8368 111.436 96.7687 111.436 97.9182C111.436 99.0678 120.837 99.9996 132.434 99.9996Z" fill="#E6E6E6"/>
<path d="M13.0052 97.9996C17.1585 97.9996 20.5254 97.5337 20.5254 96.9589C20.5254 96.3842 17.1585 95.9182 13.0052 95.9182C8.85185 95.9182 5.48492 96.3842 5.48492 96.9589C5.48492 97.5337 8.85185 97.9996 13.0052 97.9996Z" fill="#E6E6E6"/>
<path d="M98.4319 20.5882H0V69.9785H98.4319V20.5882Z" fill="#A5AAB4"/>
<path d="M93.912 24.6059H4.51978V65.9598H93.912V24.6059Z" fill="#797F8F"/>
<path d="M4.63816 66.0785L4.40143 65.8418L16.4053 53.8364L20.172 57.6034L26.7842 50.9901L34.9032 59.1102L48.7138 45.2976L54.9913 51.5762L68.7182 37.8472L76.4187 45.5488L90.5294 31.4361L90.7661 31.6729L76.4187 46.0223L68.7182 38.3207L54.9913 52.0495L48.7138 45.7711L34.9032 59.5837L26.7842 51.4636L20.172 58.0769L16.4053 54.3097L4.63816 66.0785Z" fill="#FBE122"/>
<path d="M68.8017 40.344C69.9111 40.344 70.8105 39.4445 70.8105 38.3349C70.8105 37.2253 69.9111 36.3258 68.8017 36.3258C67.6922 36.3258 66.7928 37.2253 66.7928 38.3349C66.7928 39.4445 67.6922 40.344 68.8017 40.344Z" fill="#FBE122"/>
<path d="M26.9514 53.4035C28.0608 53.4035 28.9602 52.504 28.9602 51.3944C28.9602 50.2848 28.0608 49.3853 26.9514 49.3853C25.8419 49.3853 24.9426 50.2848 24.9426 51.3944C24.9426 52.504 25.8419 53.4035 26.9514 53.4035Z" fill="#FBE122"/>
<path d="M55.0752 53.5701C56.1847 53.5701 57.084 52.6706 57.084 51.561C57.084 50.4514 56.1847 49.5519 55.0752 49.5519C53.9658 49.5519 53.0664 50.4514 53.0664 51.561C53.0664 52.6706 53.9658 53.5701 55.0752 53.5701Z" fill="#FBE122"/>
<path d="M35.4888 61.1046C36.5983 61.1046 37.4976 60.2051 37.4976 59.0955C37.4976 57.9859 36.5983 57.0864 35.4888 57.0864C34.3794 57.0864 33.48 57.9859 33.48 59.0955C33.48 60.2051 34.3794 61.1046 35.4888 61.1046Z" fill="#FBE122"/>
<path d="M48.3789 47.8785C49.4883 47.8785 50.3877 46.979 50.3877 45.8694C50.3877 44.7598 49.4883 43.8603 48.3789 43.8603C47.2694 43.8603 46.3701 44.7598 46.3701 45.8694C46.3701 46.979 47.2694 47.8785 48.3789 47.8785Z" fill="#FBE122"/>
<path d="M76.335 47.8785C77.4444 47.8785 78.3438 46.979 78.3438 45.8694C78.3438 44.7598 77.4444 43.8603 76.335 43.8603C75.2255 43.8603 74.3262 44.7598 74.3262 45.8694C74.3262 46.979 75.2255 47.8785 76.335 47.8785Z" fill="#FBE122"/>
<path d="M10.6429 91.8437C11.458 94.8572 14.2499 96.7236 14.2499 96.7236C14.2499 96.7236 15.7202 93.7041 14.9051 90.6906C14.09 87.677 11.2981 85.8107 11.2981 85.8107C11.2981 85.8107 9.82778 88.8302 10.6429 91.8437Z" fill="#6CC24A" fill-opacity="0.6"/>
<path d="M11.8403 91.1952C14.0769 93.3728 14.3501 96.7203 14.3501 96.7203C14.3501 96.7203 10.997 96.5372 8.76038 94.3596C6.52374 92.182 6.25055 88.8345 6.25055 88.8345C6.25055 88.8345 9.60367 89.0177 11.8403 91.1952Z" fill="#FFE063"/>
<path d="M125.385 23.2761L126.666 35.947H137.209L136.702 16.6873C136.702 12.5418 133.837 8.9158 129.692 8.9158C125.547 8.9158 122.851 12.3728 122.851 16.5183L122.175 35.947H123.894L125.385 23.2761Z" fill="#797F8F"/>
<path d="M131.687 89.7222C131.687 89.7222 131.231 92.6047 130.473 93.0599C129.715 93.515 134.417 94.577 134.417 94.577L135.175 90.0256L131.687 89.7222Z" fill="#FBBEBE"/>
<path d="M137.299 56.8007L138.968 58.773L138.209 65.6L137.602 79.1022C137.602 79.1022 138.816 90.784 137.602 91.0874C136.389 91.3908 130.928 91.2391 131.08 90.4806C131.231 89.722 131.383 89.1152 131.686 88.0532C131.99 86.9912 131.383 83.1984 131.383 83.1984L132.142 78.9505L129.411 60.5935L137.299 56.8007Z" fill="#797F8F"/>
<path d="M131.838 92.6051C131.838 92.6051 130.169 92.3017 130.018 92.6051C129.866 92.9085 126.984 96.0944 126.529 96.0944C126.074 96.0944 122.737 99.1287 126.226 99.2804C129.714 99.4321 135.479 96.7013 135.479 96.7013C135.479 96.7013 134.63 92.8408 134.675 93.0264C134.72 93.2119 131.838 93.3636 131.838 92.6051Z" fill="#797F8F"/>
<path d="M130.018 85.6264C130.018 85.6264 134.265 90.3294 134.417 90.7846C134.569 91.2397 136.844 90.7846 136.844 90.7846L137.754 87.7503L136.996 86.6883L132.748 83.199L130.018 85.6264Z" fill="#FBBEBE"/>
<path d="M136.086 89.1156L133.886 91.1862C133.886 91.1862 136.692 95.4875 136.692 95.9426C136.692 96.3977 136.844 100.191 138.361 99.5837C139.878 98.9768 140.029 92.9084 140.029 92.9084C140.029 92.9084 139.878 86.6882 138.968 86.2331C138.057 85.778 136.063 85.9218 136.063 85.9218C136.063 85.9218 137.299 88.9639 136.086 89.1156Z" fill="#797F8F"/>
<path d="M123.495 43.2988C123.495 43.2988 122.737 45.7262 122.585 46.3331C122.433 46.9399 121.523 48.6087 121.523 51.1878C121.523 53.7669 121.827 56.8011 121.523 57.1045C121.22 57.408 116.366 74.3996 118.489 76.2201C120.613 78.0407 127.591 84.1091 128.046 84.8677C128.501 85.6262 128.653 87.4467 129.563 87.1433C130.473 86.8399 133.962 83.8057 134.113 83.1988C134.265 82.592 132.142 81.53 132.142 81.53C132.142 81.53 127.894 75.3099 126.832 75.4616C125.771 75.6133 125.922 74.703 126.074 74.2479C126.226 73.7928 126.529 73.4893 126.074 73.4893C125.619 73.4893 125.922 72.2756 126.074 71.6688C126.226 71.0619 129.714 62.8696 129.714 62.8696L138.968 58.7734C138.968 58.7734 138.512 47.6985 135.175 44.6642L134.417 42.8437C134.417 42.8437 125.922 42.2369 123.495 43.2988Z" fill="#797F8F"/>
<path d="M127.288 19.3284C127.288 19.3284 128.046 24.6383 126.226 24.9417C124.405 25.2451 122.889 25.0934 122.889 25.2451C122.889 25.3968 127.439 30.0999 127.439 30.0999L131.687 29.7964L135.479 25.7002C135.479 25.7002 131.99 25.0934 131.99 22.9694C131.99 20.8455 131.838 19.3284 131.838 19.3284L127.288 19.3284Z" fill="#FFB8B8"/>
<path d="M129.639 21.5287C132.236 21.5287 134.341 19.4231 134.341 16.8257C134.341 14.2282 132.236 12.1226 129.639 12.1226C127.042 12.1226 124.936 14.2282 124.936 16.8257C124.936 19.4231 127.042 21.5287 129.639 21.5287Z" fill="#FFB8B8"/>
<path d="M126.894 24.5553C126.894 24.5553 119.551 25.245 119.096 27.2172C118.641 29.1895 122.13 41.4781 122.585 42.54C123.04 43.602 122.888 44.3606 122.888 44.3606C123.575 43.8472 124.363 43.4868 125.2 43.3036C126.038 43.1204 126.904 43.1187 127.742 43.2986C130.625 43.9055 134.72 43.602 134.72 43.602C134.72 43.602 136.085 37.9887 136.389 37.3819C136.692 36.775 137.906 33.4374 137.906 32.5271C137.906 31.6169 139.726 27.8241 139.726 27.8241C139.726 27.8241 138.816 25.0933 135.479 25.245C135.479 25.245 134.023 24.5934 133.613 25.0709C133.203 25.5484 130.928 27.6724 128.046 26.7621C125.164 25.8518 126.894 24.5553 126.894 24.5553Z" fill="#E6E6E6"/>
<path d="M136.844 27.0662L139.726 27.8247C139.726 27.8247 141.849 35.562 142.001 35.7137C142.153 35.8654 142.304 36.7757 142.304 36.7757C142.304 36.7757 142.304 36.9274 142.608 37.3825C142.911 37.8377 143.366 37.5343 143.063 38.1411C142.759 38.7479 142.304 38.4445 142.608 39.0514C142.911 39.6582 142.759 41.327 142.759 41.327C142.759 41.327 142.001 38.4445 139.271 39.2031L137.45 31.0107L136.844 27.0662Z" fill="#E6E6E6"/>
<path d="M137.797 28.5182L137.786 28.5529L132.79 44.2953L129.51 43.5668L125.964 42.7795L130.97 26.5461L137.797 28.5182Z" fill="#FFE063"/>
<path d="M122.031 27.0662L119.149 27.8247C119.149 27.8247 117.025 35.562 116.873 35.7137C116.722 35.8654 116.57 36.7757 116.57 36.7757C116.57 36.7757 116.57 36.9274 116.267 37.3825C115.963 37.8377 115.508 37.5343 115.811 38.1411C116.115 38.7479 116.57 38.4445 116.267 39.0514C115.963 39.6582 116.115 41.327 116.115 41.327C116.115 41.327 116.873 38.4445 119.604 39.2031L121.424 31.0107L122.031 27.0662Z" fill="#E6E6E6"/>
<path d="M117.025 38.7473L116.078 40.3312C116.078 40.3312 115.66 43.2986 117.784 43.2986C119.907 43.2986 122.941 40.4161 122.941 40.4161C122.941 40.4161 124.458 39.8093 125.368 39.961C126.278 40.1127 131.284 39.961 129.16 37.3819C127.037 34.8028 123.396 37.3819 123.396 37.3819L119.604 39.2025L117.632 38.1405L117.025 38.7473Z" fill="#FFB8B8"/>
<path d="M118.314 36.6992L119.831 39.1266C119.831 39.1266 116.342 39.5817 116.039 40.3403C115.736 41.0989 117.404 36.3958 117.404 36.3958L118.314 36.6992Z" fill="#E6E6E6"/>
<path d="M125.723 15.1675C128.777 13.5204 130.032 13.5901 133.831 15.1675L134.844 12.6979C134.844 12.2328 134.659 11.787 134.33 11.4582C134.001 11.1294 133.556 10.9444 133.091 10.9439H126.294C125.829 10.9444 125.383 11.1294 125.054 11.4582C124.726 11.787 124.541 12.2328 124.54 12.6979L125.723 15.1675Z" fill="#797F8F"/>
<path opacity="0.2" d="M137.786 28.5527L132.79 44.2951L129.51 43.5666L134.439 27.5866L137.786 28.5527Z" fill="black"/>
<path d="M135.479 27.5859L130.473 43.8189L137.299 45.3359L142.305 29.558L135.479 27.5859Z" fill="#FFE063"/>
<path d="M141.85 38.7473L142.797 40.3312C142.797 40.3312 143.215 43.2986 141.091 43.2986C138.967 43.2986 135.934 40.4161 135.934 40.4161C135.934 40.4161 134.417 39.8093 133.507 39.961C132.596 40.1127 127.591 39.961 129.714 37.3819C131.838 34.8028 135.479 37.3819 135.479 37.3819L139.271 39.2025L141.243 38.1405L141.85 38.7473Z" fill="#FFB8B8"/>
<path d="M140.561 36.6992L139.044 39.1266C139.044 39.1266 142.533 39.5817 142.836 40.3403C143.139 41.0989 141.471 36.3958 141.471 36.3958L140.561 36.6992Z" fill="#E6E6E6"/>
</g>
<defs>
<clipPath id="clip0">
<rect width="153.431" height="100" fill="white"/>
</clipPath>
</defs>
</svg>
