<svg width="139" height="100" viewBox="0 0 139 100" fill="none" xmlns="http://www.w3.org/2000/svg">
<g clip-path="url(#clip0)">
<path d="M138.234 99.2334H0.200049C0.146993 99.2334 0.0961095 99.2123 0.0585929 99.1748C0.0210764 99.1372 0 99.0864 0 99.0333C0 98.9802 0.0210764 98.9294 0.0585929 98.8918C0.0961095 98.8543 0.146993 98.8333 0.200049 98.8333H138.234C138.287 98.8333 138.338 98.8543 138.376 98.8918C138.413 98.9294 138.434 98.9802 138.434 99.0333C138.434 99.0864 138.413 99.1372 138.376 99.1748C138.338 99.2123 138.287 99.2334 138.234 99.2334Z" fill="#CCCCCC"/>
<path d="M124.571 64.3447H43.3514C43.0066 64.3447 42.6758 64.4817 42.432 64.7256C42.1881 64.9694 42.0511 65.3002 42.0511 65.645C42.0511 65.9899 42.1881 66.3207 42.432 66.5645C42.6758 66.8084 43.0066 66.9454 43.3514 66.9454H45.652V98.053C45.652 98.3979 45.789 98.7286 46.0329 98.9725C46.2767 99.2164 46.6075 99.3534 46.9523 99.3534C47.2972 99.3534 47.6279 99.2164 47.8718 98.9725C48.1156 98.7286 48.2526 98.3979 48.2526 98.053L48.2724 66.9454H119.47V98.053C119.47 98.3979 119.607 98.7286 119.851 98.9725C120.095 99.2164 120.426 99.3534 120.77 99.3534C121.115 99.3534 121.446 99.2164 121.69 98.9725C121.934 98.7286 122.071 98.3979 122.071 98.053V67.631L122.449 66.9454H124.571C124.916 66.9454 125.247 66.8084 125.491 66.5645C125.735 66.3207 125.872 65.9899 125.872 65.645C125.872 65.3002 125.735 64.9694 125.491 64.7256C125.247 64.4817 124.916 64.3447 124.571 64.3447Z" fill="#CCCCCC"/>
<path d="M88.3809 65.0241H63.7785C63.3021 65.0235 62.8454 64.834 62.5086 64.4972C62.1717 64.1603 61.9822 63.7036 61.9817 63.2273V49.6821C61.9822 49.2057 62.1717 48.749 62.5086 48.4122C62.8454 48.0753 63.3021 47.8858 63.7785 47.8853H88.3809C88.8573 47.8858 89.314 48.0753 89.6509 48.4122C89.9877 48.749 90.1772 49.2057 90.1777 49.6821V63.2273C90.1772 63.7036 89.9877 64.1603 89.6509 64.4972C89.314 64.834 88.8573 65.0235 88.3809 65.0241Z" fill="#C6C6C6"/>
<path d="M88.3809 49.2691H63.7787C63.6689 49.2694 63.5637 49.3131 63.4861 49.3907C63.4085 49.4683 63.3648 49.5735 63.3646 49.6832V63.2286C63.3648 63.3383 63.4085 63.4435 63.4862 63.5211C63.5638 63.5987 63.6689 63.6424 63.7787 63.6427H88.3809C88.4906 63.6424 88.5958 63.5987 88.6734 63.5211C88.751 63.4435 88.7947 63.3383 88.7949 63.2286V49.6832C88.7947 49.5735 88.751 49.4683 88.6734 49.3907C88.5958 49.3131 88.4906 49.2694 88.3809 49.2691Z" fill="white"/>
<path d="M78.1775 58.8592C78.1775 58.8592 75.2323 58.1805 73.6125 59.4247C71.9927 60.6689 75.6741 63.4967 75.6741 63.4967L78.1775 58.8592Z" fill="#2F2E41"/>
<path d="M76.2239 57.5769C77.7582 57.5769 79.002 56.3331 79.002 54.7988C79.002 53.2645 77.7582 52.0207 76.2239 52.0207C74.6896 52.0207 73.4458 53.2645 73.4458 54.7988C73.4458 56.3331 74.6896 57.5769 76.2239 57.5769Z" fill="#A0616A"/>
<path d="M74.0751 50.8987C74.2603 50.5843 74.5289 50.3271 74.8511 50.1557C75.1732 49.9843 75.5365 49.9052 75.9008 49.9273C76.2819 49.9751 76.6537 50.0792 77.0042 50.2362L78.8203 50.9446C79.2902 51.1279 79.8049 51.3524 80.0088 51.8138C80.1981 52.242 80.0569 52.7366 79.914 53.1824L79.2345 55.3016C79.1592 54.8219 79.0301 54.3523 78.8494 53.9017C78.6659 53.448 78.3342 53.0698 77.9083 52.8286C77.4366 52.5866 76.8806 52.5917 76.351 52.6171C75.601 52.6532 74.7855 52.7487 74.2526 53.2777C73.9697 53.5781 73.778 53.9527 73.6996 54.3578C73.6224 54.7608 73.5836 55.1701 73.5836 55.5804C73.276 55.0517 73.017 54.4963 72.8095 53.9209C72.6389 53.4925 72.5417 53.0384 72.5219 52.5776C72.5041 52.113 72.6583 51.658 72.9549 51.2999C73.1055 51.1249 73.302 50.9955 73.5223 50.9262C73.7425 50.8569 73.9777 50.8504 74.2014 50.9076L74.0751 50.8987Z" fill="#2F2E41"/>
<path d="M82.8569 61.2678C82.8308 61.174 82.7776 61.09 82.7039 61.0263C82.6303 60.9625 82.5394 60.922 82.4428 60.9097C82.4364 60.9053 82.4297 60.9013 82.4228 60.8977L78.2755 58.5735C78.1571 58.5072 78.0176 58.489 77.8862 58.5228C77.7547 58.5567 77.6413 58.6399 77.5697 58.7552L76.4354 60.5917L74.727 58.8832L74.6998 58.8561C74.6121 58.7684 74.4964 58.7144 74.3728 58.7036C74.2493 58.6928 74.1259 58.7259 74.0244 58.797L70.6159 61.1838C70.6099 61.1838 70.6039 61.1858 70.5979 61.1858C70.4348 61.213 70.2858 61.295 70.1756 61.4183C70.0654 61.5416 70.0005 61.6988 69.9917 61.864L69.9037 63.6424H83.5151L82.8569 61.2678Z" fill="#FBE122"/>
<path d="M90.4543 63.3657H87.8282C87.8282 63.2924 87.7991 63.2221 87.7472 63.1703C87.6954 63.1184 87.6251 63.0893 87.5518 63.0893H86.7225C86.6492 63.0893 86.5788 63.1184 86.527 63.1703C86.4752 63.2221 86.446 63.2924 86.446 63.3657H85.6167C85.6167 63.2924 85.5876 63.2221 85.5358 63.1703C85.4839 63.1184 85.4136 63.0893 85.3403 63.0893H84.511C84.4377 63.0893 84.3674 63.1184 84.3155 63.1703C84.2637 63.2221 84.2346 63.2924 84.2346 63.3657H83.4053C83.4053 63.2924 83.3762 63.2221 83.3243 63.1703C83.2725 63.1184 83.2022 63.0893 83.1289 63.0893H82.2996C82.2262 63.0893 82.1559 63.1184 82.1041 63.1703C82.0523 63.2221 82.0231 63.2924 82.0231 63.3657H81.1938C81.1938 63.2924 81.1647 63.2221 81.1129 63.1703C81.061 63.1184 80.9907 63.0893 80.9174 63.0893H80.0881C80.0148 63.0893 79.9445 63.1184 79.8926 63.1703C79.8408 63.2221 79.8117 63.2924 79.8117 63.3657H78.9824C78.9824 63.2924 78.9533 63.2221 78.9014 63.1703C78.8496 63.1184 78.7793 63.0893 78.7059 63.0893H77.8767C77.8033 63.0893 77.733 63.1184 77.6812 63.1703C77.6294 63.2221 77.6002 63.2924 77.6002 63.3657H76.7709C76.7709 63.2924 76.7418 63.2221 76.69 63.1703C76.6381 63.1184 76.5678 63.0893 76.4945 63.0893H75.6652C75.5919 63.0893 75.5216 63.1184 75.4697 63.1703C75.4179 63.2221 75.3888 63.2924 75.3888 63.3657H74.5595C74.5595 63.2924 74.5303 63.2221 74.4785 63.1703C74.4267 63.1184 74.3564 63.0893 74.283 63.0893H73.4537C73.3804 63.0893 73.3101 63.1184 73.2583 63.1703C73.2064 63.2221 73.1773 63.2924 73.1773 63.3657H72.348C72.348 63.2924 72.3189 63.2221 72.2671 63.1703C72.2152 63.1184 72.1449 63.0893 72.0716 63.0893H71.2423C71.169 63.0893 71.0987 63.1184 71.0468 63.1703C70.995 63.2221 70.9659 63.2924 70.9659 63.3657H70.1366C70.1366 63.2924 70.1074 63.2221 70.0556 63.1703C70.0038 63.1184 69.9334 63.0893 69.8601 63.0893H69.0308C68.9575 63.0893 68.8872 63.1184 68.8354 63.1703C68.7835 63.2221 68.7544 63.2924 68.7544 63.3657H67.9251C67.9251 63.2924 67.896 63.2221 67.8441 63.1703C67.7923 63.1184 67.722 63.0893 67.6487 63.0893H66.8194C66.7461 63.0893 66.6758 63.1184 66.6239 63.1703C66.5721 63.2221 66.543 63.2924 66.543 63.3657H65.7137C65.7137 63.2924 65.6845 63.2221 65.6327 63.1703C65.5809 63.1184 65.5105 63.0893 65.4372 63.0893H64.6079C64.5346 63.0893 64.4643 63.1184 64.4125 63.1703C64.3606 63.2221 64.3315 63.2924 64.3315 63.3657H61.7054C61.4857 63.3661 61.2751 63.4536 61.1198 63.6091C60.9646 63.7646 60.8774 63.9753 60.8774 64.195C60.8774 64.4148 60.9646 64.6255 61.1198 64.781C61.2751 64.9365 61.4857 65.024 61.7054 65.0243H90.4543C90.6742 65.0243 90.8852 64.937 91.0407 64.7814C91.1962 64.6259 91.2836 64.415 91.2836 64.195C91.2836 63.9751 91.1962 63.7642 91.0407 63.6086C90.8852 63.4531 90.6742 63.3657 90.4543 63.3657Z" fill="#C6C6C6"/>
<path d="M57.4299 58.5498V64.0563H43.6341C43.2645 64.0691 42.896 64.0074 42.5508 63.8749C42.2055 63.7423 41.8905 63.5415 41.6244 63.2846C41.3584 63.0277 41.1468 62.7198 41.0023 62.3794C40.8578 62.0389 40.7834 61.6729 40.7834 61.303C40.7834 60.9332 40.8578 60.5671 41.0023 60.2267C41.1468 59.8862 41.3584 59.5783 41.6244 59.3214C41.8905 59.0645 42.2055 58.8637 42.5508 58.7312C42.896 58.5986 43.2645 58.5369 43.6341 58.5498H57.4299Z" fill="#F2F2F2"/>
<path d="M57.7689 64.0146C57.7689 64.0708 57.7466 64.1247 57.7069 64.1644C57.6672 64.2041 57.6133 64.2264 57.5571 64.2264H43.3885C42.619 64.2264 41.881 63.9207 41.3368 63.3766C40.7927 62.8325 40.487 62.0945 40.487 61.3249C40.487 60.5554 40.7927 59.8174 41.3368 59.2733C41.881 58.7291 42.619 58.4234 43.3885 58.4234H57.5571C57.6133 58.4234 57.6672 58.4457 57.7069 58.4855C57.7466 58.5252 57.7689 58.5791 57.7689 58.6352C57.7689 58.6914 57.7466 58.7453 57.7069 58.785C57.6672 58.8247 57.6133 58.847 57.5571 58.847H43.3885C42.7317 58.8476 42.102 59.1089 41.6378 59.5736C41.1736 60.0382 40.9128 60.6681 40.9128 61.3249C40.9128 61.9817 41.1736 62.6117 41.6378 63.0763C42.102 63.5409 42.7317 63.8023 43.3885 63.8029H57.5571C57.6133 63.8029 57.6672 63.8252 57.7069 63.8649C57.7466 63.9046 57.7689 63.9585 57.7689 64.0146Z" fill="#FBE122"/>
<path d="M57.4303 59.8207H42.6051C42.5995 59.8207 42.5939 59.8197 42.5888 59.8175C42.5836 59.8154 42.5789 59.8123 42.5749 59.8084C42.571 59.8045 42.5678 59.7998 42.5657 59.7946C42.5635 59.7895 42.5624 59.7839 42.5624 59.7783C42.5624 59.7728 42.5635 59.7672 42.5657 59.7621C42.5678 59.7569 42.571 59.7522 42.5749 59.7483C42.5789 59.7444 42.5836 59.7412 42.5888 59.7391C42.5939 59.737 42.5995 59.736 42.6051 59.736H57.4303C57.4414 59.7361 57.4521 59.7406 57.46 59.7485C57.4679 59.7564 57.4723 59.7672 57.4723 59.7783C57.4723 59.7895 57.4679 59.8003 57.46 59.8082C57.4521 59.8161 57.4414 59.8206 57.4303 59.8207Z" fill="#CCCCCC"/>
<path d="M57.4303 60.837H42.6051C42.5995 60.837 42.5939 60.8359 42.5888 60.8338C42.5836 60.8317 42.5789 60.8286 42.5749 60.8247C42.571 60.8207 42.5678 60.8161 42.5657 60.8109C42.5635 60.8057 42.5624 60.8002 42.5624 60.7946C42.5624 60.789 42.5635 60.7835 42.5657 60.7783C42.5678 60.7732 42.571 60.7685 42.5749 60.7646C42.5789 60.7606 42.5836 60.7575 42.5888 60.7554C42.5939 60.7533 42.5995 60.7522 42.6051 60.7523H57.4303C57.4414 60.7523 57.4521 60.7568 57.46 60.7648C57.4679 60.7727 57.4723 60.7834 57.4723 60.7946C57.4723 60.8058 57.4679 60.8165 57.46 60.8245C57.4521 60.8324 57.4414 60.8369 57.4303 60.837Z" fill="#CCCCCC"/>
<path d="M57.4303 61.8545H42.6051C42.5995 61.8545 42.5939 61.8534 42.5888 61.8513C42.5836 61.8492 42.5789 61.8461 42.5749 61.8422C42.571 61.8382 42.5678 61.8336 42.5657 61.8284C42.5635 61.8232 42.5624 61.8177 42.5624 61.8121C42.5624 61.8065 42.5635 61.801 42.5657 61.7958C42.5678 61.7907 42.571 61.786 42.5749 61.7821C42.5789 61.7781 42.5836 61.775 42.5888 61.7729C42.5939 61.7708 42.5995 61.7697 42.6051 61.7698H57.4303C57.4414 61.7698 57.4521 61.7743 57.46 61.7823C57.4679 61.7902 57.4723 61.8009 57.4723 61.8121C57.4723 61.8233 57.4679 61.834 57.46 61.842C57.4521 61.8499 57.4414 61.8544 57.4303 61.8545Z" fill="#CCCCCC"/>
<path d="M57.4303 62.8706H42.6051C42.5995 62.8707 42.5939 62.8696 42.5888 62.8675C42.5836 62.8654 42.5789 62.8623 42.5749 62.8583C42.571 62.8544 42.5678 62.8497 42.5657 62.8445C42.5635 62.8394 42.5624 62.8338 42.5624 62.8283C42.5624 62.8227 42.5635 62.8171 42.5657 62.812C42.5678 62.8068 42.571 62.8021 42.5749 62.7982C42.5789 62.7943 42.5836 62.7912 42.5888 62.789C42.5939 62.7869 42.5995 62.7859 42.6051 62.7859H57.4303C57.4414 62.786 57.4521 62.7905 57.46 62.7984C57.4679 62.8064 57.4723 62.8171 57.4723 62.8283C57.4723 62.8394 57.4679 62.8502 57.46 62.8581C57.4521 62.866 57.4414 62.8705 57.4303 62.8706Z" fill="#CCCCCC"/>
<path d="M54.8292 52.7487V58.2552H41.0334C40.6638 58.268 40.2953 58.2063 39.9501 58.0738C39.6048 57.9412 39.2897 57.7405 39.0237 57.4835C38.7577 57.2266 38.5461 56.9187 38.4016 56.5783C38.2571 56.2378 38.1826 55.8718 38.1826 55.5019C38.1826 55.1321 38.2571 54.766 38.4016 54.4256C38.5461 54.0851 38.7577 53.7773 39.0237 53.5203C39.2897 53.2634 39.6048 53.0627 39.9501 52.9301C40.2953 52.7975 40.6638 52.7358 41.0334 52.7487H54.8292Z" fill="#F2F2F2"/>
<path d="M55.1682 58.2128C55.1682 58.2689 55.1459 58.3228 55.1062 58.3625C55.0665 58.4022 55.0126 58.4245 54.9564 58.4245H40.7878C40.4068 58.4245 40.0295 58.3495 39.6774 58.2037C39.3254 58.0579 39.0056 57.8441 38.7361 57.5747C38.4667 57.3053 38.253 56.9854 38.1072 56.6334C37.9613 56.2814 37.8863 55.9041 37.8863 55.523C37.8863 55.142 37.9613 54.7647 38.1072 54.4127C38.253 54.0607 38.4667 53.7408 38.7361 53.4714C39.0056 53.2019 39.3254 52.9882 39.6774 52.8424C40.0295 52.6966 40.4068 52.6215 40.7878 52.6215H54.9564C55.0126 52.6215 55.0665 52.6439 55.1062 52.6836C55.1459 52.7233 55.1682 52.7772 55.1682 52.8333C55.1682 52.8895 55.1459 52.9434 55.1062 52.9831C55.0665 53.0228 55.0126 53.0451 54.9564 53.0451H40.7878C40.131 53.0457 39.5013 53.307 39.0371 53.7717C38.5729 54.2363 38.3121 54.8662 38.3121 55.523C38.3121 56.1798 38.5729 56.8098 39.0371 57.2744C39.5013 57.7391 40.131 58.0004 40.7878 58.001H54.9564C55.0126 58.001 55.0665 58.0233 55.1062 58.063C55.1459 58.1027 55.1682 58.1566 55.1682 58.2128Z" fill="#C6C6C6"/>
<path d="M54.8295 54.0188H40.0043C39.9987 54.0189 39.9932 54.0178 39.988 54.0157C39.9828 54.0136 39.9781 54.0105 39.9742 54.0065C39.9702 54.0026 39.9671 53.9979 39.9649 53.9928C39.9628 53.9876 39.9617 53.9821 39.9617 53.9765C39.9617 53.9709 39.9628 53.9654 39.9649 53.9602C39.9671 53.955 39.9702 53.9504 39.9742 53.9464C39.9781 53.9425 39.9828 53.9394 39.988 53.9373C39.9932 53.9351 39.9987 53.9341 40.0043 53.9341H54.8295C54.8407 53.9342 54.8514 53.9387 54.8593 53.9466C54.8672 53.9546 54.8716 53.9653 54.8716 53.9765C54.8716 53.9877 54.8672 53.9984 54.8593 54.0063C54.8514 54.0143 54.8407 54.0188 54.8295 54.0188Z" fill="#CCCCCC"/>
<path d="M54.8295 55.0359H40.0043C39.9987 55.0359 39.9932 55.0349 39.988 55.0327C39.9828 55.0306 39.9781 55.0275 39.9742 55.0236C39.9702 55.0197 39.9671 55.015 39.9649 55.0098C39.9628 55.0047 39.9617 54.9991 39.9617 54.9935C39.9617 54.988 39.9628 54.9824 39.9649 54.9773C39.9671 54.9721 39.9702 54.9674 39.9742 54.9635C39.9781 54.9596 39.9828 54.9564 39.988 54.9543C39.9932 54.9522 39.9987 54.9511 40.0043 54.9512H54.8295C54.8407 54.9513 54.8514 54.9558 54.8593 54.9637C54.8672 54.9716 54.8716 54.9824 54.8716 54.9935C54.8716 55.0047 54.8672 55.0154 54.8593 55.0234C54.8514 55.0313 54.8407 55.0358 54.8295 55.0359Z" fill="#CCCCCC"/>
<path d="M54.8295 56.0526H40.0043C39.9987 56.0526 39.9932 56.0516 39.988 56.0495C39.9828 56.0473 39.9781 56.0442 39.9742 56.0403C39.9702 56.0363 39.9671 56.0317 39.9649 56.0265C39.9628 56.0213 39.9617 56.0158 39.9617 56.0102C39.9617 56.0046 39.9628 55.9991 39.9649 55.9939C39.9671 55.9888 39.9702 55.9841 39.9742 55.9802C39.9781 55.9762 39.9828 55.9731 39.988 55.971C39.9932 55.9689 39.9987 55.9678 40.0043 55.9679H54.8295C54.8407 55.9679 54.8514 55.9724 54.8593 55.9804C54.8672 55.9883 54.8716 55.999 54.8716 56.0102C54.8716 56.0214 54.8672 56.0321 54.8593 56.0401C54.8514 56.048 54.8407 56.0525 54.8295 56.0526Z" fill="#CCCCCC"/>
<path d="M54.8295 57.0696H40.0043C39.9987 57.0696 39.9932 57.0685 39.988 57.0664C39.9828 57.0643 39.9781 57.0612 39.9742 57.0573C39.9702 57.0533 39.9671 57.0486 39.9649 57.0435C39.9628 57.0383 39.9617 57.0328 39.9617 57.0272C39.9617 57.0216 39.9628 57.0161 39.9649 57.0109C39.9671 57.0058 39.9702 57.0011 39.9742 56.9972C39.9781 56.9932 39.9828 56.9901 39.988 56.988C39.9932 56.9859 39.9987 56.9848 40.0043 56.9849H54.8295C54.8407 56.9849 54.8514 56.9894 54.8593 56.9974C54.8672 57.0053 54.8716 57.016 54.8716 57.0272C54.8716 57.0384 54.8672 57.0491 54.8593 57.0571C54.8514 57.065 54.8407 57.0695 54.8295 57.0696Z" fill="#CCCCCC"/>
<path d="M70.8781 83.6297V78.8285C70.8781 78.6163 70.7938 78.4127 70.6437 78.2627C70.4937 78.1126 70.2901 78.0283 70.0779 78.0283H51.8734C51.6612 78.0283 51.4576 78.1126 51.3076 78.2627C51.1575 78.4127 51.0732 78.6163 51.0732 78.8285V83.6297H70.8781Z" fill="#8A8A8A"/>
<path d="M70.8781 85.4298H51.0732V91.6313H70.8781V85.4298Z" fill="#8A8A8A"/>
<path d="M51.0732 93.4317V98.2329C51.0732 98.4451 51.1575 98.6486 51.3076 98.7987C51.4576 98.9487 51.6612 99.0331 51.8734 99.0331H70.0779C70.2901 99.0331 70.4937 98.9487 70.6437 98.7987C70.7938 98.6486 70.8781 98.4451 70.8781 98.2329V93.4317H51.0732Z" fill="#8A8A8A"/>
<path d="M60.8758 81.6288C61.2072 81.6288 61.4759 81.3601 61.4759 81.0286C61.4759 80.6972 61.2072 80.4285 60.8758 80.4285C60.5443 80.4285 60.2756 80.6972 60.2756 81.0286C60.2756 81.3601 60.5443 81.6288 60.8758 81.6288Z" fill="white"/>
<path d="M60.8758 89.6307C61.2072 89.6307 61.4759 89.362 61.4759 89.0305C61.4759 88.6991 61.2072 88.4304 60.8758 88.4304C60.5443 88.4304 60.2756 88.6991 60.2756 89.0305C60.2756 89.362 60.5443 89.6307 60.8758 89.6307Z" fill="white"/>
<path d="M60.9074 97.4632C61.2389 97.4632 61.5076 97.1945 61.5076 96.863C61.5076 96.5316 61.2389 96.2629 60.9074 96.2629C60.576 96.2629 60.3073 96.5316 60.3073 96.863C60.3073 97.1945 60.576 97.4632 60.9074 97.4632Z" fill="white"/>
<path d="M68.6326 72.5537V78.0602H54.8368C54.4672 78.0731 54.0987 78.0114 53.7535 77.8788C53.4082 77.7463 53.0931 77.5455 52.8271 77.2886C52.5611 77.0317 52.3495 76.7238 52.205 76.3833C52.0605 76.0429 51.9861 75.6768 51.9861 75.307C51.9861 74.9371 52.0605 74.5711 52.205 74.2306C52.3495 73.8902 52.5611 73.5823 52.8271 73.3254C53.0931 73.0684 53.4082 72.8677 53.7535 72.7351C54.0987 72.6026 54.4672 72.5409 54.8368 72.5537H68.6326Z" fill="#F2F2F2"/>
<path d="M68.9714 78.0178C68.9713 78.0739 68.949 78.1278 68.9093 78.1675C68.8696 78.2072 68.8157 78.2295 68.7596 78.2296H54.5909C54.2097 78.2299 53.8321 78.1551 53.4798 78.0094C53.1275 77.8637 52.8074 77.65 52.5377 77.3806C52.268 77.1111 52.0541 76.7911 51.9081 76.439C51.7621 76.0868 51.687 75.7093 51.687 75.3281C51.687 74.9468 51.7621 74.5693 51.9081 74.2171C52.0541 73.865 52.268 73.545 52.5377 73.2755C52.8074 73.0061 53.1275 72.7924 53.4798 72.6467C53.8321 72.5011 54.2097 72.4262 54.5909 72.4266H68.7596C68.8157 72.4266 68.8696 72.4489 68.9093 72.4886C68.949 72.5283 68.9714 72.5822 68.9714 72.6383C68.9714 72.6945 68.949 72.7484 68.9093 72.7881C68.8696 72.8278 68.8157 72.8501 68.7596 72.8501H54.5909C53.9341 72.8507 53.3044 73.112 52.8402 73.5767C52.376 74.0413 52.1152 74.6713 52.1152 75.3281C52.1152 75.9848 52.376 76.6148 52.8402 77.0794C53.3044 77.5441 53.9341 77.8054 54.5909 77.806H68.7596C68.8157 77.806 68.8696 77.8283 68.9093 77.868C68.949 77.9077 68.9713 77.9616 68.9714 78.0178Z" fill="#C6C6C6"/>
<path d="M68.6329 73.8238H53.8078C53.8022 73.8239 53.7966 73.8228 53.7915 73.8207C53.7863 73.8186 53.7816 73.8155 53.7776 73.8115C53.7736 73.8076 53.7705 73.8029 53.7684 73.7978C53.7662 73.7926 53.7651 73.7871 53.7651 73.7815C53.7651 73.7759 53.7662 73.7704 53.7684 73.7652C53.7705 73.76 53.7736 73.7554 53.7776 73.7514C53.7816 73.7475 53.7863 73.7444 53.7915 73.7423C53.7966 73.7401 53.8022 73.7391 53.8078 73.7391H68.6329C68.6441 73.7392 68.6548 73.7437 68.6627 73.7516C68.6706 73.7596 68.675 73.7703 68.675 73.7815C68.675 73.7927 68.6706 73.8034 68.6627 73.8113C68.6548 73.8193 68.6441 73.8238 68.6329 73.8238Z" fill="#CCCCCC"/>
<path d="M68.6329 74.8409H53.8078C53.8022 74.8409 53.7966 74.8399 53.7915 74.8378C53.7863 74.8357 53.7816 74.8325 53.7776 74.8286C53.7736 74.8247 53.7705 74.82 53.7684 74.8148C53.7662 74.8097 53.7651 74.8041 53.7651 74.7986C53.7651 74.793 53.7662 74.7874 53.7684 74.7823C53.7705 74.7771 53.7736 74.7724 53.7776 74.7685C53.7816 74.7646 53.7863 74.7614 53.7915 74.7593C53.7966 74.7572 53.8022 74.7562 53.8078 74.7562H68.6329C68.6441 74.7563 68.6548 74.7608 68.6627 74.7687C68.6706 74.7766 68.675 74.7874 68.675 74.7986C68.675 74.8097 68.6706 74.8205 68.6627 74.8284C68.6548 74.8363 68.6441 74.8408 68.6329 74.8409Z" fill="#CCCCCC"/>
<path d="M68.6329 75.8576H53.8078C53.8022 75.8577 53.7966 75.8566 53.7915 75.8545C53.7863 75.8524 53.7816 75.8492 53.7776 75.8453C53.7736 75.8414 53.7705 75.8367 53.7684 75.8315C53.7662 75.8264 53.7651 75.8208 53.7651 75.8153C53.7651 75.8097 53.7662 75.8041 53.7684 75.799C53.7705 75.7938 53.7736 75.7891 53.7776 75.7852C53.7816 75.7812 53.7863 75.7781 53.7915 75.776C53.7966 75.7739 53.8022 75.7729 53.8078 75.7729H68.6329C68.6441 75.773 68.6548 75.7775 68.6627 75.7854C68.6706 75.7933 68.675 75.8041 68.675 75.8153C68.675 75.8264 68.6706 75.8372 68.6627 75.8451C68.6548 75.853 68.6441 75.8575 68.6329 75.8576Z" fill="#CCCCCC"/>
<path d="M68.6329 76.8737H53.8078C53.8022 76.8738 53.7966 76.8727 53.7915 76.8706C53.7863 76.8685 53.7816 76.8654 53.7776 76.8615C53.7736 76.8575 53.7705 76.8528 53.7684 76.8477C53.7662 76.8425 53.7651 76.837 53.7651 76.8314C53.7651 76.8258 53.7662 76.8203 53.7684 76.8151C53.7705 76.81 53.7736 76.8053 53.7776 76.8013C53.7816 76.7974 53.7863 76.7943 53.7915 76.7922C53.7966 76.7901 53.8022 76.789 53.8078 76.789H68.6329C68.6441 76.7891 68.6548 76.7936 68.6627 76.8015C68.6706 76.8095 68.675 76.8202 68.675 76.8314C68.675 76.8426 68.6706 76.8533 68.6627 76.8612C68.6548 76.8692 68.6441 76.8737 68.6329 76.8737Z" fill="#CCCCCC"/>
<path d="M50.0346 36.6133V1.50466C50.0351 1.10574 50.1937 0.723286 50.4758 0.441207C50.7579 0.159127 51.1403 0.000453759 51.5393 0H79.2918C79.6907 0.000456401 80.0732 0.159131 80.3553 0.44121C80.6374 0.723289 80.796 1.10574 80.7965 1.50466V36.6133C80.796 37.0122 80.6374 37.3947 80.3553 37.6768C80.0732 37.9588 79.6907 38.1175 79.2918 38.118H51.5393C51.1403 38.1175 50.7579 37.9588 50.4758 37.6768C50.1937 37.3947 50.0351 37.0122 50.0346 36.6133ZM51.5393 0.334369C51.229 0.334716 50.9315 0.458127 50.7121 0.677523C50.4927 0.896919 50.3693 1.19439 50.369 1.50466V36.6133C50.3693 36.9236 50.4927 37.2211 50.7121 37.4404C50.9315 37.6598 51.229 37.7833 51.5393 37.7836H79.2918C79.6021 37.7833 79.8996 37.6598 80.119 37.4404C80.3384 37.2211 80.4618 36.9236 80.4621 36.6133V1.50466C80.4618 1.19439 80.3384 0.896919 80.119 0.677523C79.8996 0.458127 79.6021 0.334717 79.2918 0.334369H51.5393Z" fill="#E6E6E6"/>
<path d="M66.9718 16.1234V8.9145C66.972 8.71504 67.0513 8.52381 67.1924 8.38277C67.3334 8.24173 67.5246 8.16239 67.7241 8.16217H73.833C74.0325 8.16239 74.2237 8.24173 74.3647 8.38277C74.5058 8.52381 74.5851 8.71504 74.5853 8.9145V16.1234C74.5851 16.3229 74.5058 16.5141 74.3647 16.6551C74.2237 16.7962 74.0325 16.8755 73.833 16.8757H67.7241C67.5246 16.8755 67.3334 16.7962 67.1924 16.6551C67.0513 16.5141 66.972 16.3229 66.9718 16.1234Z" fill="#FBE122"/>
<path d="M55.1016 19.4671V12.2582C55.1018 12.0587 55.1812 11.8675 55.3222 11.7264C55.4633 11.5854 55.6545 11.5061 55.854 11.5058H61.9629C62.1623 11.5061 62.3536 11.5854 62.4946 11.7264C62.6356 11.8675 62.715 12.0587 62.7152 12.2582V19.4671C62.715 19.6665 62.6356 19.8578 62.4946 19.9988C62.3536 20.1398 62.1623 20.2192 61.9629 20.2194H55.854C55.6545 20.2192 55.4633 20.1398 55.3222 19.9988C55.1812 19.8578 55.1018 19.6665 55.1016 19.4671Z" fill="#CCCCCC"/>
<path d="M64.6309 29.6657V22.4568C64.6311 22.2573 64.7104 22.0661 64.8515 21.9251C64.9925 21.784 65.1837 21.7047 65.3832 21.7045H71.4921C71.6916 21.7047 71.8828 21.784 72.0238 21.9251C72.1649 22.0661 72.2442 22.2573 72.2444 22.4568V29.6657C72.2442 29.8652 72.1649 30.0564 72.0238 30.1974C71.8828 30.3385 71.6916 30.4178 71.4921 30.418H65.3832C65.1837 30.4178 64.9925 30.3385 64.8515 30.1974C64.7104 30.0564 64.6311 29.8652 64.6309 29.6657Z" fill="#FF6584"/>
<path d="M101.138 62.624H94.8522C94.7926 62.624 94.7337 62.6377 94.6802 62.664L93.0938 63.4582C93.0416 63.4804 92.9971 63.5175 92.9658 63.5648C92.9345 63.6121 92.9178 63.6676 92.9178 63.7243C92.9178 63.781 92.9345 63.8365 92.9658 63.8838C92.9971 63.9311 93.0416 63.9682 93.0938 63.9904L94.6802 64.7846C94.7337 64.8109 94.7926 64.8246 94.8522 64.8246H101.138C101.224 64.8296 101.31 64.8003 101.375 64.743C101.44 64.6857 101.48 64.605 101.486 64.5185V62.9301C101.48 62.8436 101.44 62.7629 101.375 62.7056C101.31 62.6483 101.224 62.619 101.138 62.624Z" fill="#C6C6C6"/>
<path d="M101.486 62.9301V64.5184C101.48 64.605 101.44 64.6856 101.374 64.7429C101.309 64.8002 101.224 64.8295 101.138 64.8245H99.8853V62.624H101.138C101.224 62.619 101.309 62.6483 101.374 62.7056C101.44 62.7629 101.48 62.8435 101.486 62.9301Z" fill="#FBE122"/>
<path d="M101.091 50.7414C101.375 50.6185 101.683 50.5572 101.993 50.5614C102.303 50.5657 102.609 50.6354 102.89 50.766C103.171 50.8966 103.422 51.0851 103.625 51.3193C103.828 51.5534 103.98 51.8279 104.069 52.1246C104.097 52.2187 104.119 52.3147 104.134 52.4117L112.923 56.7704L114.957 55.4224L117.488 58.3362L114.382 60.8588C114.009 61.1597 113.548 61.3323 113.069 61.3508C112.59 61.3693 112.117 61.2327 111.722 60.9614L102.804 54.7942C102.737 54.8224 102.669 54.8471 102.601 54.8683C102.304 54.958 101.991 54.9841 101.684 54.9447C101.376 54.9053 101.08 54.8013 100.816 54.6396C100.551 54.4779 100.324 54.2622 100.148 54.0064C99.9727 53.7507 99.8533 53.4608 99.7977 53.1557C99.7813 53.0671 99.7704 52.9776 99.7652 52.8877C99.7405 52.4374 99.8543 51.9903 100.091 51.6066C100.328 51.2229 100.677 50.9209 101.091 50.7414Z" fill="#FFB8B8"/>
<path d="M119.397 77.5774H109.793C109.793 77.8535 99.8945 78.0775 99.8945 78.0775C99.7392 78.1945 99.5976 78.3287 99.4724 78.4776C99.0965 78.926 98.891 79.4928 98.8922 80.078V80.4781C98.8925 81.1412 99.156 81.7771 99.6249 82.2461C100.094 82.715 100.73 82.9785 101.393 82.9787H119.397C120.06 82.9782 120.696 82.7145 121.165 82.2457C121.634 81.7769 121.897 81.1411 121.898 80.4781V80.078C121.897 79.4151 121.633 78.7796 121.164 78.3108C120.696 77.8421 120.06 77.5783 119.397 77.5774Z" fill="#C6C6C6"/>
<path d="M108.951 99.6834H111.551V82.8793H108.951V99.6834Z" fill="#C6C6C6"/>
<path d="M101.549 99.5923C101.549 99.8733 105.489 99.701 110.351 99.701C115.212 99.701 119.153 99.8733 119.153 99.5923C119.153 99.3113 115.212 97.083 110.351 97.083C105.489 97.083 101.549 99.3113 101.549 99.5923Z" fill="#C6C6C6"/>
<path d="M103.896 97.6225L101.443 97.6223L100.276 91.2613L103.896 91.2615L103.896 97.6225Z" fill="#FFB8B8"/>
<path d="M104.522 100L96.6138 99.9999V99.8998C96.6138 99.4956 96.6934 99.0954 96.8481 98.7219C97.0028 98.3485 97.2295 98.0092 97.5153 97.7233C97.8011 97.4375 98.1405 97.2108 98.5139 97.0561C98.8874 96.9014 99.2876 96.8218 99.6918 96.8218H99.692L104.522 96.822L104.522 100Z" fill="#2F2E41"/>
<path d="M100.228 93.6779L95.3384 82.7137C94.9302 81.7896 94.8851 80.7456 95.212 79.7897C95.5389 78.8338 96.2139 78.0362 97.1026 77.5556L107.708 71.8686L112.547 71.457L117.011 71.0513L117.044 71.1058C117.085 71.1753 118.045 72.8331 117.396 74.651C116.904 76.0298 115.624 77.1069 113.591 77.8522C108.847 79.5916 103.367 81.0784 101.231 81.6367C101.136 81.6608 101.048 81.7047 100.972 81.7653C100.896 81.826 100.833 81.9022 100.788 81.9887C100.744 82.0743 100.717 82.1682 100.71 82.2646C100.703 82.3609 100.717 82.4577 100.749 82.5486L105.292 92.7541C105.339 92.8835 105.356 93.0221 105.341 93.1592C105.327 93.2963 105.281 93.4282 105.207 93.5447C105.134 93.6612 105.034 93.7593 104.917 93.8314C104.799 93.9034 104.667 93.9475 104.529 93.9602L101.135 94.2074C101.107 94.2101 101.078 94.2115 101.049 94.2115C100.875 94.2114 100.705 94.161 100.56 94.0663C100.414 93.9716 100.299 93.8367 100.228 93.6779Z" fill="#2F2E41"/>
<path d="M105.096 97.6225L102.644 97.6223L101.477 91.2613L105.097 91.2615L105.096 97.6225Z" fill="#FFB8B8"/>
<path d="M105.722 100L97.8138 99.9999V99.8998C97.8138 99.4956 97.8935 99.0954 98.0481 98.7219C98.2028 98.3485 98.4296 98.0092 98.7154 97.7233C99.0012 97.4375 99.3405 97.2108 99.714 97.0561C100.087 96.9014 100.488 96.8218 100.892 96.8218H100.892L105.722 96.822L105.722 100Z" fill="#4C5569"/>
<path d="M101.628 94.2784L96.7387 83.3141C96.3305 82.39 96.2853 81.3461 96.6122 80.3902C96.9392 79.4343 97.6142 78.6366 98.5028 78.156L109.108 72.4691L113.948 72.0575L118.412 71.6517L118.444 71.7062C118.485 71.7758 119.445 73.4336 118.796 75.2514C118.304 76.6303 117.024 77.7073 114.991 78.4526C110.247 80.1921 104.767 81.6788 102.631 82.2371C102.537 82.2613 102.448 82.3051 102.372 82.3658C102.296 82.4265 102.233 82.5026 102.189 82.5892C102.144 82.6747 102.117 82.7687 102.11 82.865C102.104 82.9614 102.117 83.0581 102.149 83.1491L106.692 93.3545C106.739 93.484 106.756 93.6226 106.742 93.7596C106.727 93.8967 106.681 94.0286 106.608 94.1452C106.534 94.2617 106.435 94.3598 106.317 94.4318C106.199 94.5039 106.067 94.548 105.93 94.5607L102.536 94.8078C102.507 94.8106 102.478 94.8119 102.449 94.8119C102.276 94.8119 102.106 94.7614 101.96 94.6668C101.814 94.5721 101.699 94.4372 101.628 94.2784Z" fill="#68677E"/>
<path d="M99.1917 60.7832C97.1371 58.0503 95.5129 55.019 94.3754 51.7947C94.3095 51.6018 94.3142 51.3918 94.3887 51.2021C94.4631 51.0123 94.6024 50.8551 94.7819 50.7585L101.813 46.9913C101.926 46.9299 102.053 46.8952 102.182 46.89C102.311 46.8847 102.44 46.909 102.558 46.961C102.679 47.0134 102.786 47.0926 102.871 47.1926C102.956 47.2926 103.018 47.4107 103.05 47.538C103.869 50.6451 105.407 53.5159 107.541 55.9182C107.628 56.016 107.693 56.1325 107.729 56.2589C107.765 56.3853 107.771 56.5183 107.748 56.6477C107.726 56.775 107.675 56.8956 107.599 57.0002C107.523 57.1048 107.424 57.1908 107.31 57.2514L100.28 61.0187C100.1 61.1146 99.8916 61.1436 99.6924 61.1004C99.4932 61.0573 99.3158 60.9449 99.1917 60.7832Z" fill="#CCCCCC"/>
<path d="M99.6708 60.4233C99.7086 60.4705 99.7617 60.5031 99.821 60.5153C99.8802 60.5275 99.9418 60.5187 99.9953 60.4904L107.026 56.723C107.06 56.7052 107.09 56.6798 107.112 56.6486C107.135 56.6175 107.15 56.5815 107.157 56.5436C107.164 56.5035 107.162 56.4623 107.151 56.4231C107.139 56.384 107.119 56.348 107.092 56.3179C104.895 53.8449 103.312 50.8895 102.469 47.6908C102.459 47.6513 102.441 47.6146 102.414 47.5835C102.388 47.5524 102.355 47.5279 102.317 47.5118C102.282 47.496 102.244 47.4887 102.205 47.4902C102.167 47.4918 102.129 47.5024 102.095 47.521L95.0647 51.2882C95.0114 51.317 94.9699 51.3634 94.9472 51.4196C94.9246 51.4757 94.9223 51.538 94.9407 51.5957C96.0578 54.7623 97.653 57.7393 99.6708 60.4233Z" fill="white"/>
<path d="M122.549 59.7793L117.043 61.8717L115.698 58.1374C115.52 57.6416 115.522 57.0986 115.705 56.6044C115.889 56.1102 116.24 55.6967 116.699 55.4369C117.163 55.174 117.705 55.0857 118.229 55.1879C118.752 55.29 119.221 55.5759 119.552 55.9939L122.549 59.7793Z" fill="#FBE122"/>
<path d="M108.544 74.5746C108.428 74.4926 108.331 74.3869 108.259 74.2645C108.187 74.1421 108.142 74.0058 108.127 73.8646C107.421 67.2811 107.913 62.1289 109.628 58.1138C109.93 57.4213 110.386 56.8062 110.96 56.3149C111.534 55.8236 112.212 55.4688 112.942 55.2771L117.393 55.0525L117.417 55.0636C118.421 55.5556 119.24 56.3581 119.752 57.3522C120.265 58.3464 120.443 59.4792 120.261 60.5826C118.829 64.3562 117.631 68.2851 118.545 71.4546C118.583 71.5871 118.594 71.7259 118.578 71.8629C118.561 71.9998 118.517 72.132 118.448 72.2514C118.381 72.3669 118.292 72.4675 118.184 72.5469C118.077 72.6264 117.955 72.683 117.825 72.7134L109.347 74.7301C109.21 74.7627 109.067 74.7658 108.929 74.7389C108.79 74.7121 108.659 74.6561 108.544 74.5746Z" fill="#FBE122"/>
<path d="M115.908 53.3898C118.621 53.3898 120.821 51.19 120.821 48.4764C120.821 45.7628 118.621 43.563 115.908 43.563C113.194 43.563 110.994 45.7628 110.994 48.4764C110.994 51.19 113.194 53.3898 115.908 53.3898Z" fill="#FFB8B8"/>
<path d="M102.274 52.3681L98.4447 54.0584C98.2991 54.1225 98.134 54.1262 97.9856 54.0687C97.8372 54.0112 97.7177 53.8972 97.6533 53.7517L97.5586 53.5372C97.4945 53.3915 97.4908 53.2264 97.5483 53.0781C97.6058 52.9297 97.7198 52.8102 97.8653 52.7458L101.695 51.0555C101.84 50.9914 102.005 50.9876 102.154 51.0451C102.302 51.1026 102.422 51.2166 102.486 51.3621L102.581 51.5767C102.645 51.7223 102.648 51.8874 102.591 52.0358C102.533 52.1842 102.419 52.3037 102.274 52.3681Z" fill="#CCCCCC"/>
<path d="M103.674 54.9684L99.8449 56.6587C99.6993 56.7228 99.5342 56.7265 99.3858 56.669C99.2375 56.6115 99.118 56.4975 99.0535 56.352L98.9588 56.1375C98.8947 55.9919 98.891 55.8267 98.9485 55.6784C99.006 55.53 99.12 55.4105 99.2655 55.3461L103.095 53.6558C103.24 53.5917 103.406 53.588 103.554 53.6455C103.702 53.7029 103.822 53.8169 103.886 53.9624L103.981 54.177C104.045 54.3226 104.049 54.4877 103.991 54.6361C103.934 54.7845 103.82 54.904 103.674 54.9684Z" fill="#CCCCCC"/>
<path d="M106.627 65.1268L98.0902 58.3919C98.0222 58.4158 97.953 58.4362 97.8829 58.4531C97.5816 58.5235 97.2688 58.5298 96.9649 58.4715C96.661 58.4132 96.3728 58.2917 96.1189 58.1147C95.8634 57.9376 95.6486 57.708 95.489 57.4412C95.3294 57.1743 95.2286 56.8765 95.1934 56.5676C95.1361 56.0738 95.2474 55.5751 95.5092 55.1525C95.771 54.7299 96.1679 54.4081 96.6355 54.2394C96.9274 54.1347 97.2381 54.0929 97.5473 54.1166C97.8565 54.1404 98.1571 54.2291 98.4296 54.3772C98.7021 54.5252 98.9402 54.7291 99.1283 54.9756C99.3165 55.222 99.4505 55.5054 99.5215 55.8073C99.5435 55.9029 99.5588 56 99.5673 56.0978L108.066 61.0005L110.181 59.7829L112.523 62.85L109.24 65.1904C108.855 65.4622 108.394 65.6027 107.923 65.5913C107.452 65.5798 106.998 65.4169 106.627 65.1268Z" fill="#FFB8B8"/>
<path d="M113.565 63.8047L108.694 60.4924L110.983 57.2502C111.287 56.8197 111.733 56.5105 112.243 56.3773C112.753 56.244 113.294 56.2953 113.769 56.5221C114.251 56.7514 114.634 57.1454 114.85 57.6326C115.066 58.1199 115.101 58.6685 114.949 59.1792L113.565 63.8047Z" fill="#FBE122"/>
<path d="M114.106 47.7453C112.843 48.6096 111.185 49.498 109.895 48.5776C109.049 47.9733 108.782 46.8541 109.125 45.872C109.743 44.1058 111.44 43.3283 113.062 42.7323C115.172 41.9575 117.468 41.3411 119.646 41.896C121.824 42.4509 123.748 44.5592 123.355 46.7718C123.039 48.551 121.361 50.0316 121.599 51.8229C121.839 53.6258 123.866 54.5748 125.656 54.897C127.446 55.2192 129.449 55.3227 130.736 56.6085C132.377 58.2486 131.967 61.1802 130.423 62.9119C128.879 64.6436 126.548 65.4286 124.29 65.9622C121.299 66.6692 118.063 67.0408 115.222 65.8674C112.38 64.694 110.169 61.5355 110.992 58.5737C111.34 57.3226 112.159 56.2653 112.951 55.2359C113.742 54.2066 114.544 53.1302 114.846 51.8673C115.097 50.8149 114.911 49.593 114.213 48.8036C114.086 48.6654 114.006 48.4906 113.985 48.3042C113.964 48.1178 114.002 47.9294 114.094 47.7661L114.106 47.7453Z" fill="#FF7F41"/>
<path d="M21.8201 71.6173C20.5541 72.0624 19.1947 72.1738 17.873 71.941C16.5513 71.7082 15.3119 71.1389 14.2741 70.288C11.631 68.0696 10.8023 64.4149 10.1281 61.0307C9.46329 57.6942 8.79851 54.3577 8.13373 51.0211L12.3091 53.8962C15.3118 55.9637 18.3821 58.0974 20.4611 61.0921C22.5401 64.0869 23.4476 68.1749 21.7772 71.4153" fill="#ABDF97"/>
<path d="M21.4628 83.7359C21.8854 80.6577 22.32 77.5399 22.0236 74.4286C21.7603 71.6655 20.9173 68.9667 19.2011 66.7539C18.2901 65.5816 17.1817 64.5771 15.9255 63.7857C15.598 63.5789 15.2965 64.098 15.6226 64.3039C17.7961 65.6775 19.4772 67.7059 20.4236 70.0966C21.4688 72.7551 21.6367 75.6532 21.4565 78.4773C21.3476 80.1852 21.1168 81.8819 20.8841 83.5764C20.8658 83.653 20.8772 83.7337 20.9161 83.8023C20.955 83.8708 21.0185 83.922 21.0937 83.9455C21.1704 83.9662 21.2522 83.9558 21.3213 83.9165C21.3904 83.8773 21.4413 83.8124 21.4628 83.7359H21.4628Z" fill="#F2F2F2"/>
<path d="M17.3928 78.2894C16.8498 79.1147 16.1034 79.7862 15.2256 80.2393C14.3477 80.6924 13.3679 80.9118 12.3806 80.8763C9.84339 80.7559 7.72813 78.985 5.824 77.3038L0.191956 72.3312L3.91944 72.1528C6.60002 72.0245 9.34976 71.9048 11.9029 72.7315C14.4561 73.5581 16.8107 75.5475 17.2776 78.1903" fill="#ABDF97"/>
<path d="M22.6572 85.5056C20.6232 81.9065 18.2639 77.9065 14.0482 76.628C12.876 76.2738 11.6469 76.1468 10.4271 76.2541C10.0426 76.2873 10.1386 76.8799 10.5224 76.8468C12.5671 76.6771 14.6078 77.217 16.3011 78.3757C17.9305 79.4847 19.1991 81.0267 20.2729 82.6618C20.9306 83.6633 21.5198 84.7074 22.109 85.7501C22.2973 86.0833 22.8477 85.8427 22.6572 85.5056Z" fill="#F2F2F2"/>
<path d="M25.9167 89.2932C25.8482 88.4991 25.5631 87.739 25.0924 87.0957C24.6218 86.4524 23.9837 85.9506 23.2475 85.645V83.5642H19.7577V85.7105C19.0578 86.0312 18.4555 86.5318 18.0121 87.1611C17.5687 87.7905 17.3002 88.5262 17.2338 89.2932L16.4132 98.8323H26.7374L25.9167 89.2932Z" fill="#F2F2F2"/>
</g>
<defs>
<clipPath id="clip0">
<rect width="138.434" height="100" fill="white"/>
</clipPath>
</defs>
</svg>
