<svg width="151" height="100" viewBox="0 0 151 100" fill="none" xmlns="http://www.w3.org/2000/svg">
<g clip-path="url(#clip0)">
<path d="M18.3818 88.0874C18.3818 91.3766 16.4247 92.5252 14.0106 92.5252C13.9544 92.5252 13.8985 92.5246 13.8429 92.5231C13.7311 92.5207 13.6203 92.5158 13.5109 92.5079C11.332 92.354 9.63914 91.1462 9.63914 88.0874C9.63914 84.922 13.6871 80.9276 13.9924 80.631L13.993 80.6307C14.0046 80.6192 14.0106 80.6134 14.0106 80.6134C14.0106 80.6134 18.3818 84.7978 18.3818 88.0874Z" fill="#3F3D56"/>
<path d="M13.851 92.022L15.4499 89.7901L13.8471 92.267L13.8428 92.5232C13.731 92.5208 13.6201 92.5159 13.5107 92.508L13.683 89.2173L13.6818 89.1918L13.6848 89.1869L13.7009 88.8761L12.0941 86.3927L13.7058 88.6429L13.7097 88.7088L13.8401 86.2225L12.4644 83.6566L13.8568 85.7857L13.9923 80.6311L13.9929 80.6135V80.6308L13.9704 84.6956L15.3397 83.0841L13.9646 85.0456L13.9285 87.2718L15.2072 85.1355L13.923 87.5997L13.9029 88.8372L15.7592 85.8634L13.896 89.2692L13.851 92.022Z" fill="#F2F2F2"/>
<path d="M73.9196 69.0677C72.7517 64.832 66.2669 61.7101 61.207 60.9042V58.8696C61.3005 58.8347 61.3935 58.7989 61.486 58.762C61.4595 58.3554 61.3777 57.9543 61.243 57.5697C63.4043 56.6917 65.2707 55.2168 66.6236 53.3176C68.0476 51.8287 69.1207 50.0407 69.7644 48.0843C70.4082 46.1279 70.6064 44.0525 70.3445 42.0098C70.0827 39.9671 69.3674 38.0086 68.2509 36.2774C67.1344 34.5463 65.645 33.0863 63.8914 32.004C64.3723 31.701 64.7459 31.2548 64.9595 30.7283C65.1731 30.2018 65.2158 29.6216 65.0817 29.0696C64.9476 28.5175 64.6434 28.0215 64.212 27.6514C63.7806 27.2813 63.2439 27.0559 62.6774 27.007C63.1399 25.9159 63.2227 24.7014 62.9126 23.5578C62.6025 22.4141 61.9174 21.4075 60.967 20.6988C60.0166 19.9902 58.8557 19.6206 57.6702 19.6491C56.4847 19.6776 55.343 20.1026 54.4278 20.8561C55.2351 20.4269 56.1399 20.2139 57.0541 20.2376C57.9683 20.2614 58.8607 20.5213 59.6446 20.9918C60.4285 21.4624 61.0771 22.1278 61.5273 22.9231C61.9775 23.7184 62.214 24.6166 62.2137 25.5303C62.2137 25.5768 62.211 25.6226 62.2098 25.6688C62.1866 24.9024 61.9971 24.1502 61.6544 23.4642C61.3117 22.7782 60.8239 22.1747 60.2248 21.6956C59.6257 21.2165 58.9296 20.8731 58.1846 20.6892C57.4396 20.5054 56.6635 20.4854 55.91 20.6306C55.1565 20.7759 54.4436 21.083 53.8206 21.5306C53.1976 21.9783 52.6793 22.5558 52.3017 23.2232C51.924 23.8907 51.696 24.6321 51.6334 25.3963C51.5707 26.1605 51.6749 26.9291 51.9389 27.6491C51.5342 27.7365 51.1556 27.9175 50.8335 28.1775C50.5115 28.4375 50.2549 28.7693 50.0844 29.1464C49.9139 29.5234 49.8342 29.9351 49.8517 30.3484C49.8692 30.7617 49.9835 31.1652 50.1853 31.5265C48.2679 32.5331 46.6138 33.9753 45.3561 35.7371C44.0983 37.499 43.2721 39.5312 42.9438 41.6703C42.6155 43.8094 42.7944 45.9956 43.4661 48.053C44.1377 50.1104 45.2833 51.9815 46.8108 53.5159C48.0978 55.2484 49.8192 56.6114 51.8015 57.4673V60.8587C46.688 61.5887 39.954 64.7685 38.7774 69.1087C37.752 72.8909 36.6575 77.0445 36.1129 79.4832C40.7808 82.7603 50.5756 84.6846 56.7141 84.6846C62.5463 84.6846 72.0789 82.9478 76.6094 79.9638C76.1186 77.2842 74.9896 72.9481 73.9196 69.0677ZM64.5688 29.9424C64.5688 29.9906 64.5668 30.0383 64.5643 30.0859C64.5301 29.4878 64.2938 28.919 63.8942 28.4724C63.4945 28.0258 62.9551 27.7278 62.364 27.6271C62.4154 27.5403 62.4643 27.452 62.5108 27.3622C63.0955 27.4961 63.6174 27.8242 63.9912 28.2928C64.3651 28.7615 64.5687 29.3431 64.5688 29.9424Z" fill="url(#paint0_linear)"/>
<path d="M56.7041 83.7588C62.3702 83.7588 71.6313 82.0715 76.0327 79.1724C75.556 76.5692 74.4591 72.3566 73.4196 68.5867C72.0957 63.7855 63.7403 60.457 58.756 60.457H53.9529C48.9531 60.457 40.5856 63.8048 39.2784 68.6265C38.2822 72.301 37.2189 76.3363 36.6898 78.7055C41.2248 81.8893 50.7406 83.7588 56.7041 83.7588Z" fill="#FBE122"/>
<path d="M56.6131 57.437C64.037 57.437 70.0553 51.4239 70.0553 44.0064C70.0553 36.5888 64.037 30.5757 56.6131 30.5757C49.1891 30.5757 43.1708 36.5888 43.1708 44.0064C43.1708 51.4239 49.1891 57.437 56.6131 57.437Z" fill="#F55F44"/>
<path d="M52.9841 53.3412H60.017C60.2961 53.3412 60.5638 53.452 60.7611 53.6492C60.9585 53.8464 61.0693 54.1138 61.0693 54.3926V61.5776C61.0693 62.1445 60.9576 62.7059 60.7404 63.2296C60.5233 63.7534 60.205 64.2293 59.8038 64.6302C59.4026 65.0311 58.9263 65.3491 58.4021 65.566C57.8779 65.783 57.316 65.8946 56.7486 65.8946H56.2525C55.6851 65.8946 55.1232 65.783 54.599 65.566C54.0748 65.3491 53.5985 65.0311 53.1973 64.6302C52.7961 64.2293 52.4778 63.7534 52.2607 63.2296C52.0435 62.7059 51.9318 62.1445 51.9318 61.5776V54.3926C51.9318 54.2546 51.959 54.1178 52.0119 53.9903C52.0648 53.8627 52.1423 53.7468 52.24 53.6492C52.3377 53.5516 52.4537 53.4741 52.5814 53.4213C52.709 53.3684 52.8459 53.3412 52.9841 53.3412Z" fill="#FDA57D"/>
<path opacity="0.05" d="M56.9227 59.4243C58.4361 59.4252 59.9357 59.1365 61.3404 58.5738C61.2684 57.4653 60.7771 56.4257 59.9661 55.6659C59.155 54.9061 58.0851 54.4831 56.9733 54.4826H56.5988C55.5055 54.4828 54.4519 54.8916 53.6448 55.6285C52.8378 56.3654 52.3357 57.3772 52.2373 58.4651C53.7176 59.0997 55.3119 59.4261 56.9227 59.4243Z" fill="black"/>
<path d="M56.6369 58.2829C63.2048 58.2829 68.5292 52.9631 68.5292 46.4009C68.5292 39.8386 63.2048 34.5188 56.6369 34.5188C50.069 34.5188 44.7446 39.8386 44.7446 46.4009C44.7446 52.9631 50.069 58.2829 56.6369 58.2829Z" fill="#FDA57D"/>
<path d="M52.6093 33.4329C54.0309 33.4329 55.1833 32.2814 55.1833 30.861C55.1833 29.4406 54.0309 28.2892 52.6093 28.2892C51.1877 28.2892 50.0352 29.4406 50.0352 30.861C50.0352 32.2814 51.1877 33.4329 52.6093 33.4329Z" fill="#F55F44"/>
<path d="M61.7609 33.4329C63.1825 33.4329 64.3349 32.2814 64.3349 30.861C64.3349 29.4406 63.1825 28.2892 61.7609 28.2892C60.3393 28.2892 59.1868 29.4406 59.1868 30.861C59.1868 32.2814 60.3393 33.4329 61.7609 33.4329Z" fill="#F55F44"/>
<path d="M56.8991 31.7181C59.7423 31.7181 62.0471 29.4152 62.0471 26.5745C62.0471 23.7337 59.7423 21.4308 56.8991 21.4308C54.0559 21.4308 51.751 23.7337 51.751 26.5745C51.751 29.4152 54.0559 31.7181 56.8991 31.7181Z" fill="#F55F44"/>
<path d="M62.3336 27.7177C61.8217 27.7169 61.3214 27.8693 60.8971 28.1553C61.4876 27.9444 62.1349 27.9564 62.7172 28.1888C63.2996 28.4213 63.7769 28.8582 64.0595 29.4176C64.3421 29.9769 64.4105 30.6201 64.2519 31.2263C64.0933 31.8325 63.7185 32.3599 63.198 32.7095C63.7694 32.5062 64.2505 32.1078 64.5564 31.5845C64.8623 31.0613 64.9734 30.4469 64.87 29.8498C64.7665 29.2527 64.4553 28.7113 63.9912 28.3212C63.5272 27.9311 62.94 27.7173 62.3336 27.7177Z" fill="#F55F44"/>
<path d="M57.7572 20.5742C56.5622 20.5724 55.4042 20.9877 54.4831 21.7484C55.6098 21.1499 56.9188 20.9908 58.1562 21.302C59.3936 21.6133 60.4713 22.3726 61.1801 23.4327C61.8889 24.4929 62.1783 25.7783 61.9923 27.0396C61.8062 28.3009 61.158 29.4482 60.1732 30.259C61.1876 29.7204 61.9925 28.8583 62.4599 27.8099C62.9273 26.7615 63.0303 25.5871 62.7525 24.4734C62.4746 23.3598 61.832 22.371 60.9268 21.6644C60.0216 20.9578 58.9059 20.5741 57.7572 20.5742Z" fill="#F55F44"/>
<path d="M48.0328 35.7195C48.0328 35.7195 49.4628 45.1495 67.4811 40.0058L58.615 32.2903L48.0328 35.7195Z" fill="#F55F44"/>
<path d="M17.7828 89.7236H10.3791C9.00231 89.7236 7.88617 90.8388 7.88617 92.2145V92.5004C7.88617 93.8761 9.00231 94.9913 10.3791 94.9913H17.7828C19.1596 94.9913 20.2757 93.8761 20.2757 92.5004V92.2145C20.2757 90.8388 19.1596 89.7236 17.7828 89.7236Z" fill="#FBE122"/>
<g opacity="0.7">
<path opacity="0.7" d="M103.77 86.3585V84.4604H94.2718V93.2391C94.2718 93.7299 94.4669 94.2006 94.8143 94.5477C95.1617 94.8948 95.6328 95.0897 96.124 95.0897H101.918C102.409 95.0897 102.881 94.8948 103.228 94.5477C103.575 94.2006 103.77 93.7299 103.77 93.2391V91.2935C104.425 91.2935 105.054 91.0336 105.517 90.5708C105.98 90.1081 106.24 89.4804 106.24 88.826C106.24 88.1716 105.98 87.544 105.517 87.0812C105.054 86.6185 104.425 86.3585 103.77 86.3585ZM103.77 90.3445V87.3075C104.173 87.308 104.559 87.4681 104.844 87.7529C105.129 88.0376 105.289 88.4236 105.289 88.826C105.289 89.2285 105.129 89.6144 104.844 89.8992C104.559 90.1839 104.173 90.3441 103.77 90.3445Z" fill="url(#paint1_linear)"/>
</g>
<path d="M103.465 86.6558C103.019 86.6558 102.583 86.7879 102.212 87.0355C101.841 87.283 101.552 87.6349 101.382 88.0466C101.211 88.4582 101.166 88.9112 101.253 89.3483C101.34 89.7853 101.555 90.1867 101.87 90.5018C102.186 90.8169 102.588 91.0315 103.025 91.1184C103.462 91.2053 103.916 91.1607 104.328 90.9902C104.74 90.8197 105.092 90.5309 105.34 90.1604C105.588 89.7899 105.72 89.3543 105.72 88.9087C105.72 88.6129 105.661 88.3199 105.548 88.0466C105.435 87.7732 105.269 87.5248 105.059 87.3156C104.85 87.1064 104.601 86.9405 104.328 86.8273C104.054 86.714 103.761 86.6558 103.465 86.6558ZM103.465 90.2952C103.19 90.2952 102.922 90.2139 102.694 90.0615C102.466 89.9092 102.288 89.6926 102.183 89.4393C102.078 89.186 102.05 88.9072 102.104 88.6382C102.157 88.3693 102.29 88.1223 102.484 87.9284C102.678 87.7345 102.925 87.6024 103.194 87.5489C103.463 87.4954 103.742 87.5229 103.996 87.6278C104.249 87.7328 104.466 87.9105 104.619 88.1385C104.771 88.3665 104.852 88.6345 104.852 88.9087C104.852 89.2764 104.706 89.6291 104.446 89.8891C104.186 90.1491 103.833 90.2952 103.465 90.2952Z" fill="#FBE122"/>
<path opacity="0.1" d="M103.465 86.6558C103.019 86.6558 102.583 86.7879 102.212 87.0355C101.841 87.283 101.552 87.6349 101.382 88.0466C101.211 88.4582 101.166 88.9112 101.253 89.3483C101.34 89.7853 101.555 90.1867 101.87 90.5018C102.186 90.8169 102.588 91.0315 103.025 91.1184C103.462 91.2053 103.916 91.1607 104.328 90.9902C104.74 90.8197 105.092 90.5309 105.34 90.1604C105.588 89.7899 105.72 89.3543 105.72 88.9087C105.72 88.6129 105.661 88.3199 105.548 88.0466C105.435 87.7732 105.269 87.5248 105.059 87.3156C104.85 87.1064 104.601 86.9405 104.328 86.8273C104.054 86.714 103.761 86.6558 103.465 86.6558ZM103.465 90.2952C103.19 90.2952 102.922 90.2139 102.694 90.0615C102.466 89.9092 102.288 89.6926 102.183 89.4393C102.078 89.186 102.05 88.9072 102.104 88.6382C102.157 88.3693 102.29 88.1223 102.484 87.9284C102.678 87.7345 102.925 87.6024 103.194 87.5489C103.463 87.4954 103.742 87.5229 103.996 87.6278C104.249 87.7328 104.466 87.9105 104.619 88.1385C104.771 88.3665 104.852 88.6345 104.852 88.9087C104.852 89.2764 104.706 89.6291 104.446 89.8891C104.186 90.1491 103.833 90.2952 103.465 90.2952Z" fill="black"/>
<path d="M94.7928 84.9222H103.465V92.9287C103.465 93.3792 103.286 93.8113 102.968 94.1298C102.649 94.4484 102.216 94.6273 101.765 94.6273H96.4929C96.042 94.6273 95.6096 94.4484 95.2907 94.1298C94.9719 93.8113 94.7928 93.3792 94.7928 92.9287V84.9222Z" fill="#FBE122"/>
<path d="M112.572 94.6277H0V98.4404H112.572V94.6277Z" fill="#A5AAB4"/>
<g opacity="0.7">
<path opacity="0.7" d="M77.694 67.0837H34.8774C33.481 67.0837 32.3491 68.2147 32.3491 69.6099V92.1014C32.3491 93.4965 33.481 94.6275 34.8774 94.6275H77.694C79.0904 94.6275 80.2223 93.4965 80.2223 92.1014V69.6099C80.2223 68.2147 79.0904 67.0837 77.694 67.0837Z" fill="url(#paint2_linear)"/>
</g>
<path d="M74.6764 67.5917H37.8958C35.3116 67.5917 33.2167 69.6848 33.2167 72.2668V89.9522C33.2167 92.5342 35.3116 94.6273 37.8958 94.6273H74.6764C77.2606 94.6273 79.3555 92.5342 79.3555 89.9522V72.2668C79.3555 69.6848 77.2606 67.5917 74.6764 67.5917Z" fill="#535461"/>
<path d="M56.286 82.6694C57.1482 82.6694 57.8471 81.9711 57.8471 81.1097C57.8471 80.2483 57.1482 79.5499 56.286 79.5499C55.4239 79.5499 54.7249 80.2483 54.7249 81.1097C54.7249 81.9711 55.4239 82.6694 56.286 82.6694Z" fill="white"/>
<path d="M107.802 98.4407H4.76987V100H107.802V98.4407Z" fill="#A5AAB4"/>
<path opacity="0.1" d="M107.802 98.4407H4.76987V98.9606H107.802V98.4407Z" fill="black"/>
<path opacity="0.1" d="M101.904 84.9223V92.9377C101.904 93.3858 101.726 93.8156 101.409 94.1325C101.091 94.4493 100.661 94.6274 100.213 94.6274H101.08C101.529 94.6274 101.959 94.4493 102.276 94.1325C102.593 93.8156 102.771 93.3858 102.771 92.9377V84.9223H101.904Z" fill="black"/>
<path d="M96.5043 78.4621C96.4301 78.4645 96.3574 78.4831 96.2912 78.5167C96.225 78.5502 96.167 78.5979 96.1213 78.6564C96.0076 78.8624 96.2137 79.0948 96.4019 79.2364C96.7494 79.4979 97.1157 79.7549 97.352 80.12C97.5882 80.4851 97.6624 80.9946 97.4042 81.3445C97.067 81.8014 96.2625 81.8996 96.1846 82.462C96.1347 82.823 96.447 83.131 96.7635 83.3121C97.5447 83.7593 98.5518 83.8785 99.1177 84.5782C99.3517 84.0972 99.8753 83.8192 100.397 83.7005C100.919 83.5818 101.461 83.5907 101.99 83.5101C102.077 83.5085 102.162 83.4865 102.238 83.4461C102.314 83.4056 102.38 83.3477 102.43 83.2771C102.578 82.9772 102.156 82.6175 102.302 82.3164C102.413 82.0872 102.738 82.105 102.976 82.0132C103.362 81.8638 103.522 81.3664 103.412 80.9668C103.302 80.5672 102.992 80.2549 102.666 79.9989C101.787 79.3089 100.73 78.9031 99.6616 78.6112C99.1645 78.4755 98.5809 78.2626 98.0646 78.242C97.5661 78.2222 96.9977 78.3778 96.5043 78.4621Z" fill="#EEEEEE"/>
<path d="M150.45 0H74.6926V51.8586H150.45V0Z" fill="#4C5569"/>
<g opacity="0.5">
<path opacity="0.5" d="M98.6486 5.10736H82.3845C81.9512 5.10736 81.5999 5.45836 81.5999 5.89133V20.7628C81.5999 21.1958 81.9512 21.5468 82.3845 21.5468H98.6486C99.0819 21.5468 99.4332 21.1958 99.4332 20.7628V5.89133C99.4332 5.45836 99.0819 5.10736 98.6486 5.10736Z" fill="url(#paint3_linear)"/>
</g>
<path d="M98.4554 5.23535H82.6027C82.1693 5.23535 81.818 5.58635 81.818 6.01932V20.4921C81.818 20.9251 82.1693 21.2761 82.6027 21.2761H98.4554C98.8888 21.2761 99.2401 20.9251 99.2401 20.4921V6.01932C99.2401 5.58635 98.8888 5.23535 98.4554 5.23535Z" fill="#F5F5F5"/>
<path d="M85.3142 7.87683H83.9453C83.512 7.87683 83.1607 8.22783 83.1607 8.6608V9.73491C83.1607 10.1679 83.512 10.5189 83.9453 10.5189H85.3142C85.7475 10.5189 86.0988 10.1679 86.0988 9.73491V8.6608C86.0988 8.22783 85.7475 7.87683 85.3142 7.87683Z" fill="#FBE122"/>
<path d="M98.5216 7.87683H87.1194C87.0427 7.87683 86.9805 7.93898 86.9805 8.01564V8.03158C86.9805 8.10824 87.0427 8.17039 87.1194 8.17039H98.5216C98.5983 8.17039 98.6605 8.10824 98.6605 8.03158V8.01564C98.6605 7.93898 98.5983 7.87683 98.5216 7.87683Z" fill="#E0E0E0"/>
<path d="M98.5216 8.7572H87.1194C87.0427 8.7572 86.9805 8.81935 86.9805 8.89601V8.91195C86.9805 8.98862 87.0427 9.05076 87.1194 9.05076H98.5216C98.5983 9.05076 98.6605 8.98862 98.6605 8.91195V8.89601C98.6605 8.81935 98.5983 8.7572 98.5216 8.7572Z" fill="#E0E0E0"/>
<path d="M98.5217 11.954H83.0062C82.9295 11.954 82.8672 12.0161 82.8672 12.0928V12.1087C82.8672 12.1854 82.9295 12.2475 83.0062 12.2475H98.5217C98.5984 12.2475 98.6606 12.1854 98.6606 12.1087V12.0928C98.6606 12.0161 98.5984 11.954 98.5217 11.954Z" fill="#E0E0E0"/>
<path d="M98.5217 12.8348H83.0062C82.9295 12.8348 82.8672 12.897 82.8672 12.9737V12.9896C82.8672 13.0663 82.9295 13.1284 83.0062 13.1284H98.5217C98.5984 13.1284 98.6606 13.0663 98.6606 12.9896V12.9737C98.6606 12.897 98.5984 12.8348 98.5217 12.8348Z" fill="#E0E0E0"/>
<path d="M98.5217 14.009H83.0062C82.9295 14.009 82.8672 14.0711 82.8672 14.1478V14.1637C82.8672 14.2404 82.9295 14.3025 83.0062 14.3025H98.5217C98.5984 14.3025 98.6606 14.2404 98.6606 14.1637V14.1478C98.6606 14.0711 98.5984 14.009 98.5217 14.009Z" fill="#E0E0E0"/>
<path d="M91.8365 14.8896H83.0062C82.9295 14.8896 82.8672 14.9518 82.8672 15.0285V15.0444C82.8672 15.1211 82.9295 15.1832 83.0062 15.1832H91.8365C91.9132 15.1832 91.9755 15.1211 91.9755 15.0444V15.0285C91.9755 14.9518 91.9132 14.8896 91.8365 14.8896Z" fill="#E0E0E0"/>
<path d="M98.5217 16.0609H83.0062C82.9295 16.0609 82.8672 16.1231 82.8672 16.1997V16.2157C82.8672 16.2923 82.9295 16.3545 83.0062 16.3545H98.5217C98.5984 16.3545 98.6606 16.2923 98.6606 16.2157V16.1997C98.6606 16.1231 98.5984 16.0609 98.5217 16.0609Z" fill="#E0E0E0"/>
<path d="M98.5217 16.9418H83.0062C82.9295 16.9418 82.8672 17.0039 82.8672 17.0806V17.0965C82.8672 17.1732 82.9295 17.2353 83.0062 17.2353H98.5217C98.5984 17.2353 98.6606 17.1732 98.6606 17.0965V17.0806C98.6606 17.0039 98.5984 16.9418 98.5217 16.9418Z" fill="#E0E0E0"/>
<path d="M98.5217 18.116H83.0062C82.9295 18.116 82.8672 18.1781 82.8672 18.2548V18.2707C82.8672 18.3474 82.9295 18.4095 83.0062 18.4095H98.5217C98.5984 18.4095 98.6606 18.3474 98.6606 18.2707V18.2548C98.6606 18.1781 98.5984 18.116 98.5217 18.116Z" fill="#E0E0E0"/>
<path d="M91.8365 18.9963H83.0062C82.9295 18.9963 82.8672 19.0585 82.8672 19.1351V19.1511C82.8672 19.2278 82.9295 19.2899 83.0062 19.2899H91.8365C91.9132 19.2899 91.9755 19.2278 91.9755 19.1511V19.1351C91.9755 19.0585 91.9132 18.9963 91.8365 18.9963Z" fill="#E0E0E0"/>
<g opacity="0.5">
<path opacity="0.5" d="M101.34 8.90637H85.0762C84.6428 8.90637 84.2915 9.25737 84.2915 9.69034V24.5618C84.2915 24.9948 84.6428 25.3458 85.0762 25.3458H101.34C101.774 25.3458 102.125 24.9948 102.125 24.5618V9.69034C102.125 9.25737 101.774 8.90637 101.34 8.90637Z" fill="url(#paint4_linear)"/>
</g>
<path d="M101.147 9.03326H85.2938C84.8605 9.03326 84.5092 9.38426 84.5092 9.81724V24.29C84.5092 24.723 84.8605 25.074 85.2938 25.074H101.147C101.58 25.074 101.931 24.723 101.931 24.29V9.81724C101.931 9.38426 101.58 9.03326 101.147 9.03326Z" fill="#D2D4DA"/>
<path d="M88.0052 11.6758H86.6363C86.203 11.6758 85.8517 12.0268 85.8517 12.4598V13.5339C85.8517 13.9668 86.203 14.3178 86.6363 14.3178H88.0052C88.4385 14.3178 88.7898 13.9668 88.7898 13.5339V12.4598C88.7898 12.0268 88.4385 11.6758 88.0052 11.6758Z" fill="#FBE122"/>
<path d="M101.213 11.6758H89.8106C89.7339 11.6758 89.6717 11.7379 89.6717 11.8146V11.8305C89.6717 11.9072 89.7339 11.9693 89.8106 11.9693H101.213C101.289 11.9693 101.352 11.9072 101.352 11.8305V11.8146C101.352 11.7379 101.289 11.6758 101.213 11.6758Z" fill="#E0E0E0"/>
<path d="M101.213 12.5562H89.8106C89.7339 12.5562 89.6717 12.6184 89.6717 12.695V12.711C89.6717 12.7876 89.7339 12.8498 89.8106 12.8498H101.213C101.289 12.8498 101.352 12.7876 101.352 12.711V12.695C101.352 12.6184 101.289 12.5562 101.213 12.5562Z" fill="#E0E0E0"/>
<path d="M101.213 15.7531H85.6973C85.6206 15.7531 85.5584 15.8153 85.5584 15.8919V15.9079C85.5584 15.9845 85.6206 16.0467 85.6973 16.0467H101.213C101.29 16.0467 101.352 15.9845 101.352 15.9079V15.8919C101.352 15.8153 101.29 15.7531 101.213 15.7531Z" fill="#E0E0E0"/>
<path d="M101.213 16.6338H85.6973C85.6206 16.6338 85.5584 16.6959 85.5584 16.7726V16.7885C85.5584 16.8652 85.6206 16.9274 85.6973 16.9274H101.213C101.29 16.9274 101.352 16.8652 101.352 16.7885V16.7726C101.352 16.6959 101.29 16.6338 101.213 16.6338Z" fill="#E0E0E0"/>
<path d="M101.213 17.808H85.6973C85.6206 17.808 85.5584 17.8701 85.5584 17.9468V17.9627C85.5584 18.0394 85.6206 18.1015 85.6973 18.1015H101.213C101.29 18.1015 101.352 18.0394 101.352 17.9627V17.9468C101.352 17.8701 101.29 17.808 101.213 17.808Z" fill="#E0E0E0"/>
<path d="M94.5277 18.6883H85.6973C85.6206 18.6883 85.5584 18.7504 85.5584 18.8271V18.843C85.5584 18.9197 85.6206 18.9819 85.6973 18.9819H94.5277C94.6044 18.9819 94.6666 18.9197 94.6666 18.843V18.8271C94.6666 18.7504 94.6044 18.6883 94.5277 18.6883Z" fill="#E0E0E0"/>
<path d="M101.213 19.8596H85.6973C85.6206 19.8596 85.5584 19.9218 85.5584 19.9984V20.0144C85.5584 20.091 85.6206 20.1532 85.6973 20.1532H101.213C101.29 20.1532 101.352 20.091 101.352 20.0144V19.9984C101.352 19.9218 101.29 19.8596 101.213 19.8596Z" fill="#E0E0E0"/>
<path d="M101.213 20.7403H85.6973C85.6206 20.7403 85.5584 20.8024 85.5584 20.8791V20.895C85.5584 20.9717 85.6206 21.0339 85.6973 21.0339H101.213C101.29 21.0339 101.352 20.9717 101.352 20.895V20.8791C101.352 20.8024 101.29 20.7403 101.213 20.7403Z" fill="#E0E0E0"/>
<path d="M101.213 21.9149H85.6973C85.6206 21.9149 85.5584 21.9771 85.5584 22.0537V22.0697C85.5584 22.1463 85.6206 22.2085 85.6973 22.2085H101.213C101.29 22.2085 101.352 22.1463 101.352 22.0697V22.0537C101.352 21.9771 101.29 21.9149 101.213 21.9149Z" fill="#E0E0E0"/>
<path d="M94.5277 22.7961H85.6973C85.6206 22.7961 85.5584 22.8582 85.5584 22.9349V22.9508C85.5584 23.0275 85.6206 23.0896 85.6973 23.0896H94.5277C94.6044 23.0896 94.6666 23.0275 94.6666 22.9508V22.9349C94.6666 22.8582 94.6044 22.7961 94.5277 22.7961Z" fill="#E0E0E0"/>
<path d="M119.317 11.3931H109.495V20.822H119.317V11.3931Z" fill="url(#paint5_linear)"/>
<path d="M119.164 11.6237H109.65V20.6292H119.164V11.6237Z" fill="#F5F5F5"/>
<g opacity="0.6">
<path opacity="0.6" d="M116.197 16.9733H112.769V17.4351H116.197V16.9733Z" fill="#FBE122"/>
</g>
<path d="M117.334 17.8203H111.479V18.2821H117.334V17.8203Z" fill="#BDBDBD"/>
<g opacity="0.5">
<path opacity="0.5" d="M145.235 3.14258H123.817V28.2861H145.235V3.14258Z" fill="url(#paint6_linear)"/>
</g>
<path d="M144.779 3.54749H124.475V27.7298H144.779V3.54749Z" fill="#D2D4DA"/>
<path d="M141.792 14.1572H127.513V14.7643H141.792V14.1572Z" fill="#E0E0E0"/>
<path d="M141.792 18.1541H127.513V18.7611H141.792V18.1541Z" fill="#E0E0E0"/>
<path d="M141.792 19.2166H127.513V19.8236H141.792V19.2166Z" fill="#E0E0E0"/>
<path d="M133.538 17.0917H127.513V17.6988H133.538V17.0917Z" fill="#E0E0E0"/>
<path opacity="0.6" d="M141.792 17.0917H137.285V17.6988H141.792V17.0917Z" fill="#3AD29F"/>
<path d="M137.032 21.6955H132.526V22.3026H137.032V21.6955Z" fill="#FBE122"/>
<g opacity="0.5">
<path opacity="0.5" d="M124.046 35.3579H111.32V45.8018H124.046V35.3579Z" fill="url(#paint7_linear)"/>
</g>
<path d="M123.872 35.5559H111.467V45.6294H123.872V35.5559Z" fill="#F2F2F2"/>
<path d="M123.872 35.5559H111.467V37.8027H123.872V35.5559Z" fill="#FBE122"/>
<path opacity="0.1" d="M123.872 35.5559H111.467V37.8027H123.872V35.5559Z" fill="black"/>
<path d="M122.885 38.6169H112.457V39.9255H122.885V38.6169Z" fill="#E0E0E0"/>
<path d="M120.068 40.9138H112.457V41.3582H120.068V40.9138Z" fill="#E0E0E0"/>
<path d="M117.399 41.6788H112.457V42.1233H117.399V41.6788Z" fill="#E0E0E0"/>
<path d="M118.98 42.4439H112.457V42.8883H118.98V42.4439Z" fill="#E0E0E0"/>
<path d="M120.068 43.2095H112.457V43.6539H120.068V43.2095Z" fill="#E0E0E0"/>
<path d="M115.002 43.9745H112.457V44.419H115.002V43.9745Z" fill="#E0E0E0"/>
<g opacity="0.5">
<path opacity="0.5" d="M119.125 31.5274H103.351V44.4723H119.125V31.5274Z" fill="url(#paint8_linear)"/>
</g>
<path d="M118.91 31.7723H103.535V44.2582H118.91V31.7723Z" fill="#D2D4DA"/>
<path d="M118.91 31.7723H103.535V34.5572H118.91V31.7723Z" fill="#FBE122"/>
<path d="M117.686 35.5671H104.76V37.1891H117.686V35.5671Z" fill="#F5F5F5"/>
<path d="M114.194 38.4126H104.76V38.9635H114.194V38.4126Z" fill="#E0E0E0"/>
<path d="M110.886 39.3615H104.76V39.9123H110.886V39.3615Z" fill="#E0E0E0"/>
<path d="M112.846 40.3108H104.76V40.8616H112.846V40.3108Z" fill="#E0E0E0"/>
<path d="M114.194 41.2589H104.76V41.8097H114.194V41.2589Z" fill="#E0E0E0"/>
<path d="M107.915 42.2077H104.76V42.7585H107.915V42.2077Z" fill="#E0E0E0"/>
<path d="M109.109 36.1185H105.433V36.6081H109.109V36.1185Z" fill="#69F0AE"/>
<path opacity="0.1" d="M81.843 65.9038C83.0192 65.9038 83.9727 64.9511 83.9727 63.7759C83.9727 62.6007 83.0192 61.648 81.843 61.648C80.6667 61.648 79.7132 62.6007 79.7132 63.7759C79.7132 64.9511 80.6667 65.9038 81.843 65.9038Z" fill="#535461"/>
<path opacity="0.1" d="M85.7979 59.0637C86.9741 59.0637 87.9277 58.111 87.9277 56.9358C87.9277 55.7606 86.9741 54.8079 85.7979 54.8079C84.6217 54.8079 83.6682 55.7606 83.6682 56.9358C83.6682 58.111 84.6217 59.0637 85.7979 59.0637Z" fill="#535461"/>
</g>
<defs>
<linearGradient id="paint0_linear" x1="56.3611" y1="84.6846" x2="56.3611" y2="19.6476" gradientUnits="userSpaceOnUse">
<stop stop-color="#808080" stop-opacity="0.25"/>
<stop offset="0.53514" stop-color="#808080" stop-opacity="0.12"/>
<stop offset="1" stop-color="#808080" stop-opacity="0.1"/>
</linearGradient>
<linearGradient id="paint1_linear" x1="8993.38" y1="7618.71" x2="8993.38" y2="6970.18" gradientUnits="userSpaceOnUse">
<stop stop-color="#808080" stop-opacity="0.25"/>
<stop offset="0.53514" stop-color="#808080" stop-opacity="0.12"/>
<stop offset="1" stop-color="#808080" stop-opacity="0.1"/>
</linearGradient>
<linearGradient id="paint2_linear" x1="15486" y1="15027.8" x2="15486" y2="10673.1" gradientUnits="userSpaceOnUse">
<stop stop-color="#808080" stop-opacity="0.25"/>
<stop offset="0.53514" stop-color="#808080" stop-opacity="0.12"/>
<stop offset="1" stop-color="#808080" stop-opacity="0.1"/>
</linearGradient>
<linearGradient id="paint3_linear" x1="9339.29" y1="2038.3" x2="9339.29" y2="487.042" gradientUnits="userSpaceOnUse">
<stop stop-color="#808080" stop-opacity="0.25"/>
<stop offset="0.53514" stop-color="#808080" stop-opacity="0.12"/>
<stop offset="1" stop-color="#808080" stop-opacity="0.1"/>
</linearGradient>
<linearGradient id="paint4_linear" x1="9617.26" y1="2400.57" x2="9617.26" y2="849.312" gradientUnits="userSpaceOnUse">
<stop stop-color="#808080" stop-opacity="0.25"/>
<stop offset="0.53514" stop-color="#808080" stop-opacity="0.12"/>
<stop offset="1" stop-color="#808080" stop-opacity="0.1"/>
</linearGradient>
<linearGradient id="paint5_linear" x1="6554.08" y1="1138.31" x2="6554.08" y2="628.009" gradientUnits="userSpaceOnUse">
<stop stop-color="#808080" stop-opacity="0.25"/>
<stop offset="0.53514" stop-color="#808080" stop-opacity="0.12"/>
<stop offset="1" stop-color="#808080" stop-opacity="0.1"/>
</linearGradient>
<linearGradient id="paint6_linear" x1="16648.3" y1="4085.57" x2="16648.3" y2="456.745" gradientUnits="userSpaceOnUse">
<stop stop-color="#808080" stop-opacity="0.25"/>
<stop offset="0.53514" stop-color="#808080" stop-opacity="0.12"/>
<stop offset="1" stop-color="#808080" stop-opacity="0.1"/>
</linearGradient>
<linearGradient id="paint7_linear" x1="8700.52" y1="2781.08" x2="8700.52" y2="2154.99" gradientUnits="userSpaceOnUse">
<stop stop-color="#808080" stop-opacity="0.25"/>
<stop offset="0.53514" stop-color="#808080" stop-opacity="0.12"/>
<stop offset="1" stop-color="#808080" stop-opacity="0.1"/>
</linearGradient>
<linearGradient id="paint8_linear" x1="10166.4" y1="3335.99" x2="10166.4" y2="2374.14" gradientUnits="userSpaceOnUse">
<stop stop-color="#808080" stop-opacity="0.25"/>
<stop offset="0.53514" stop-color="#808080" stop-opacity="0.12"/>
<stop offset="1" stop-color="#808080" stop-opacity="0.1"/>
</linearGradient>
<clipPath id="clip0">
<rect width="150.45" height="100" fill="white"/>
</clipPath>
</defs>
</svg>
