<svg width="150" height="100" viewBox="0 0 150 100" fill="none" xmlns="http://www.w3.org/2000/svg">
<g clip-path="url(#clip0)">
<path d="M122.68 59.8706C122.778 59.8411 122.879 59.8195 122.982 59.806L127.063 51.5198L125.817 49.6534L128.39 47.4063L131.625 51.3616L125.037 60.9423C125.199 61.3046 125.247 61.7077 125.174 62.0979C125.101 62.488 124.911 62.8468 124.63 63.1265C124.348 63.4062 123.987 63.5936 123.596 63.6637C123.205 63.7338 122.802 63.6832 122.441 63.5189C122.079 63.3545 121.776 63.084 121.572 62.7435C121.368 62.4029 121.273 62.0083 121.299 61.6123C121.325 61.2163 121.471 60.8375 121.718 60.5264C121.964 60.2152 122.3 59.9865 122.68 59.8706V59.8706Z" fill="#AD6F6F"/>
<path d="M129.647 48.5517C129.591 48.6102 129.527 48.6604 129.457 48.7008L125.282 51.1196C125.181 51.1777 125.07 51.2144 124.955 51.2274C124.839 51.2403 124.723 51.2292 124.612 51.1948C124.501 51.1604 124.399 51.1033 124.311 51.0273C124.223 50.9513 124.153 50.8579 124.103 50.7531L122.072 46.4659C121.986 46.2855 121.967 46.08 122.02 45.887C122.072 45.694 122.192 45.5264 122.358 45.4146L124.947 43.6552C125.109 43.5454 125.304 43.4955 125.498 43.514C125.693 43.5325 125.875 43.6182 126.013 43.7565L129.631 47.3843C129.785 47.5387 129.872 47.7469 129.875 47.9648C129.878 48.1826 129.796 48.3931 129.647 48.5517H129.647Z" fill="#CCCCCC"/>
<path d="M135.51 96.0306L133.305 96.63L129.942 88.4183L133.196 87.5336L135.51 96.0306Z" fill="#AD6F6F"/>
<path d="M131.559 96.4291L135.811 95.2732L136.54 97.9482L129.611 99.8319C129.515 99.4806 129.49 99.114 129.536 98.7528C129.582 98.3917 129.699 98.0432 129.88 97.7272C130.061 97.4113 130.302 97.134 130.59 96.9112C130.879 96.6885 131.208 96.5247 131.559 96.4291Z" fill="#4C5569"/>
<path d="M116.662 97.7121L114.377 97.7119L113.29 88.906L116.663 88.9062L116.662 97.7121Z" fill="#AD6F6F"/>
<path d="M112.746 97.0601H117.153V99.8323H109.972C109.972 99.4682 110.043 99.1077 110.183 98.7714C110.322 98.4351 110.526 98.1295 110.784 97.872C111.042 97.6146 111.348 97.4104 111.684 97.2711C112.021 97.1318 112.382 97.0601 112.746 97.0601Z" fill="#4C5569"/>
<path d="M119.07 40.7314C121.598 40.7314 123.647 38.6836 123.647 36.1576C123.647 33.6316 121.598 31.5839 119.07 31.5839C116.542 31.5839 114.492 33.6316 114.492 36.1576C114.492 38.6836 116.542 40.7314 119.07 40.7314Z" fill="#AD6F6F"/>
<path d="M116.522 91.4334H113.4C113.186 91.433 112.981 91.3515 112.825 91.2055C112.67 91.0595 112.575 90.8599 112.562 90.647C111.631 75.8684 112.175 65.2674 114.274 57.2852C114.284 57.2503 114.295 57.216 114.308 57.1824L114.476 56.7647C114.537 56.6089 114.645 56.4753 114.784 56.3813C114.923 56.2873 115.087 56.2373 115.254 56.2379H121.675C121.796 56.2378 121.916 56.2639 122.026 56.3144C122.136 56.3649 122.233 56.4386 122.312 56.5305L123.184 57.5473C123.201 57.5671 123.217 57.5873 123.232 57.6085C127.165 63.0882 130.689 73.8011 134.771 88.2004C134.831 88.4096 134.808 88.6341 134.705 88.826C134.602 89.0179 134.428 89.1621 134.22 89.2277L130.864 90.3006C130.672 90.3612 130.464 90.3507 130.278 90.271C130.092 90.1913 129.942 90.0477 129.853 89.8664L121.145 71.8203C121.084 71.6942 120.984 71.591 120.86 71.5261C120.736 71.4611 120.594 71.4379 120.456 71.4597C120.318 71.4816 120.19 71.5474 120.092 71.6474C119.994 71.7474 119.93 71.8764 119.911 72.0151L117.353 90.7089C117.325 90.9093 117.225 91.0929 117.073 91.226C116.92 91.3591 116.725 91.4327 116.522 91.4334Z" fill="#797F8F"/>
<path d="M122.833 57.6227C122.824 57.6227 122.815 57.6225 122.806 57.6223L115.007 57.3763C114.806 57.3707 114.614 57.2932 114.466 57.158C114.318 57.0228 114.224 56.839 114.2 56.6399C113.211 48.6434 115.923 46.5011 117.135 45.9514C117.236 45.9057 117.324 45.8347 117.389 45.7452C117.455 45.6557 117.496 45.5508 117.51 45.4406L117.614 44.6024C117.632 44.4544 117.69 44.3138 117.78 44.1954C119.68 41.7363 122.274 40.9489 123.651 40.6985C123.763 40.6784 123.878 40.6813 123.988 40.7068C124.099 40.7324 124.203 40.7802 124.295 40.8472C124.386 40.9142 124.463 40.9992 124.521 41.0969C124.578 41.1945 124.616 41.3029 124.63 41.4154L124.787 42.6189C124.803 42.7337 124.849 42.8423 124.92 42.9339C128.882 48.1093 124.468 55.7508 123.543 57.23C123.468 57.3502 123.363 57.4492 123.239 57.5178C123.114 57.5865 122.975 57.6226 122.833 57.6227Z" fill="#CCCCCC"/>
<path d="M128.305 36.672C127.284 35.2354 126.059 33.9544 124.67 32.8694C123.514 31.9678 122.229 31.1975 120.81 30.8291C119.391 30.4606 117.825 30.5233 116.53 31.2107C115.236 31.898 113.898 33.2637 113.889 34.7283C113.887 35.1988 114.007 35.8353 114.47 35.7539L114.605 35.7717C115.723 35.5459 116.842 35.3202 117.961 35.0944C118.437 36.7465 118.913 38.3987 119.39 40.0508C119.49 40.399 119.625 40.7884 119.956 40.9368C120.267 41.0767 120.628 40.9449 120.943 40.8134C120.995 40.7918 121.44 39.7927 121.44 39.7927C121.451 39.7614 121.471 39.7338 121.496 39.7125C121.522 39.6912 121.552 39.6771 121.585 39.6716C121.618 39.6661 121.651 39.6695 121.682 39.6813C121.713 39.6932 121.74 39.7131 121.761 39.7389L122.026 40.0694C122.076 40.1326 122.146 40.1775 122.225 40.1976C122.303 40.2176 122.386 40.2116 122.46 40.1804C124.285 39.4195 126.109 38.6586 127.933 37.8977C128.186 37.7925 128.467 37.6552 128.54 37.3921C128.611 37.1401 128.456 36.8853 128.305 36.672Z" fill="#FF6584"/>
<path d="M149.276 99.9999H93.1777C93.1283 99.9999 93.0809 99.9803 93.0459 99.9454C93.0109 99.9104 92.9913 99.8631 92.9913 99.8137C92.9913 99.7643 93.0109 99.7169 93.0459 99.682C93.0809 99.6471 93.1283 99.6274 93.1777 99.6274H149.276C149.325 99.6274 149.373 99.6471 149.408 99.682C149.443 99.7169 149.462 99.7643 149.462 99.8137C149.462 99.8631 149.443 99.9104 149.408 99.9454C149.373 99.9803 149.325 99.9999 149.276 99.9999Z" fill="#3F3D56"/>
<path d="M118.864 70.9804C118.737 70.9799 118.614 70.9391 118.512 70.864L117.663 70.2481C117.593 70.1968 117.508 70.1691 117.421 70.1691C117.334 70.1691 117.249 70.1968 117.178 70.2481L116.33 70.864C116.228 70.9382 116.104 70.9782 115.978 70.9783C115.851 70.9783 115.728 70.9383 115.626 70.864C115.524 70.7897 115.447 70.685 115.408 70.5648C115.369 70.4447 115.369 70.3152 115.408 70.195L115.732 69.1985C115.759 69.1158 115.76 69.0265 115.733 68.9437C115.706 68.8609 115.653 68.7888 115.582 68.7377L114.734 68.1218C114.632 68.0475 114.556 67.9428 114.517 67.8226C114.477 67.7024 114.477 67.5729 114.517 67.4528C114.556 67.3326 114.632 67.2278 114.734 67.1536C114.836 67.0793 114.96 67.0393 115.086 67.0393H116.135C116.222 67.0394 116.307 67.0119 116.377 66.9608C116.448 66.9096 116.5 66.8374 116.527 66.7545L116.851 65.758C116.89 65.6378 116.966 65.5331 117.069 65.4588C117.171 65.3845 117.294 65.3445 117.421 65.3445C117.547 65.3445 117.67 65.3845 117.773 65.4588C117.875 65.5331 117.951 65.6378 117.99 65.758L118.314 66.7545C118.341 66.8374 118.394 66.9096 118.464 66.9608C118.535 67.0119 118.62 67.0394 118.707 67.0393H119.755C119.882 67.0393 120.005 67.0793 120.107 67.1536C120.21 67.2278 120.286 67.3326 120.325 67.4528C120.364 67.5729 120.364 67.7024 120.325 67.8226C120.286 67.9428 120.21 68.0475 120.107 68.1218L119.259 68.7376C119.188 68.7887 119.136 68.8608 119.109 68.9437C119.082 69.0265 119.082 69.1158 119.109 69.1985L119.433 70.195C119.474 70.3151 119.474 70.445 119.435 70.5655C119.396 70.686 119.319 70.7906 119.216 70.864C119.114 70.9391 118.99 70.9799 118.864 70.9804Z" fill="#FBE122"/>
<path d="M122.105 68.988C122.345 68.8201 122.545 68.6017 122.691 68.3482C122.837 68.0948 122.925 67.8124 122.95 67.521C122.975 67.2296 122.936 66.9363 122.835 66.6617C122.735 66.3871 122.575 66.1379 122.367 65.9317L123.816 48.451L119.503 49.0439L119.42 66.028C119.097 66.3993 118.921 66.8764 118.926 67.3687C118.931 67.8611 119.116 68.3346 119.447 68.6994C119.778 69.0643 120.231 69.2952 120.721 69.3484C121.211 69.4016 121.703 69.2734 122.105 68.988Z" fill="#AD6F6F"/>
<path d="M124.098 50.9677C124.017 50.9677 123.937 50.956 123.859 50.9331L119.229 49.5723C119.118 49.5396 119.014 49.4842 118.926 49.4095C118.837 49.3349 118.764 49.2427 118.713 49.1387C118.662 49.0347 118.633 48.9212 118.628 48.8054C118.623 48.6896 118.642 48.574 118.683 48.4659L120.397 44.0424C120.469 43.8556 120.605 43.7007 120.781 43.6059C120.957 43.5112 121.162 43.4829 121.357 43.5263L124.417 44.1908C124.608 44.2324 124.778 44.3392 124.899 44.493C125.019 44.6467 125.082 44.8376 125.077 45.0328L124.934 50.1524C124.928 50.3702 124.838 50.5771 124.682 50.7293C124.525 50.8815 124.316 50.967 124.098 50.9677H124.098Z" fill="#CCCCCC"/>
<path d="M80.5132 72.8117H1.30461C0.958722 72.8113 0.627114 72.6738 0.382536 72.4294C0.137958 72.1851 0.000384405 71.8537 -3.8147e-06 71.5081V47.8582C0.000384405 47.5126 0.137958 47.1813 0.382536 46.9369C0.627114 46.6925 0.958722 46.5551 1.30461 46.5547H80.5132C80.8591 46.5551 81.1907 46.6925 81.4353 46.9369C81.6798 47.1813 81.8174 47.5126 81.8178 47.8582V71.5081C81.8174 71.8537 81.6798 72.1851 81.4353 72.4294C81.1907 72.6738 80.8591 72.8113 80.5132 72.8117ZM1.30461 46.9271C1.05755 46.9274 0.820694 47.0256 0.645997 47.2002C0.4713 47.3747 0.373028 47.6114 0.372742 47.8582V71.5081C0.373028 71.755 0.4713 71.9916 0.645997 72.1662C0.820694 72.3407 1.05755 72.4389 1.30461 72.4392H80.5132C80.7602 72.4389 80.9971 72.3408 81.1718 72.1662C81.3465 71.9916 81.4448 71.755 81.445 71.5081V47.8582C81.4448 47.6114 81.3465 47.3747 81.1718 47.2001C80.9971 47.0256 80.7602 46.9274 80.5132 46.9271H1.30461Z" fill="#D2D4DA"/>
<path d="M35.9654 82.7698C35.8101 82.7692 35.6591 82.7192 35.5341 82.6271L34.4948 81.8727C34.4086 81.8097 34.3046 81.7758 34.1978 81.7758C34.091 81.7758 33.987 81.8097 33.9008 81.8727L32.8615 82.6271C32.7362 82.7181 32.5852 82.7671 32.4303 82.7671C32.2753 82.7671 32.1244 82.7181 31.999 82.6271C31.8737 82.5362 31.7804 82.4079 31.7325 82.2606C31.6846 82.1134 31.6846 81.9548 31.7324 81.8076L32.1294 80.5869C32.1626 80.4855 32.1627 80.3761 32.1297 80.2747C32.0968 80.1732 32.0324 80.0848 31.9459 80.0222L30.9066 79.2678C30.7812 79.1768 30.6879 79.0485 30.6401 78.9013C30.5922 78.754 30.5922 78.5954 30.64 78.4482C30.6879 78.301 30.7812 78.1727 30.9066 78.0817C31.0319 77.9907 31.1829 77.9417 31.3378 77.9417H32.6225C32.7292 77.9419 32.8333 77.9082 32.9197 77.8455C33.006 77.7828 33.0703 77.6943 33.1031 77.5928L33.5 76.3721C33.5479 76.2248 33.6412 76.0965 33.7665 76.0055C33.8919 75.9145 34.0429 75.8654 34.1978 75.8654C34.3528 75.8654 34.5037 75.9145 34.6291 76.0055C34.7544 76.0965 34.8477 76.2248 34.8956 76.3721L35.2925 77.5928C35.3253 77.6943 35.3896 77.7828 35.4759 77.8455C35.5623 77.9082 35.6664 77.9419 35.7731 77.9417H37.0578C37.2127 77.9417 37.3637 77.9907 37.489 78.0817C37.6144 78.1727 37.7077 78.301 37.7555 78.4482C37.8034 78.5954 37.8034 78.754 37.7555 78.9013C37.7077 79.0485 37.6144 79.1768 37.489 79.2678L36.4497 80.0222C36.3632 80.0848 36.2989 80.1732 36.2659 80.2747C36.2329 80.3761 36.233 80.4855 36.2662 80.5869L36.6632 81.8076C36.7128 81.9547 36.7137 82.1138 36.6656 82.2614C36.6176 82.4091 36.5233 82.5373 36.3966 82.6271C36.2717 82.7192 36.1206 82.7692 35.9654 82.7698Z" fill="#FBE122"/>
<path d="M46.4967 82.7698C46.3414 82.7692 46.1904 82.7192 46.0654 82.6271L45.0261 81.8727C44.9399 81.8097 44.8359 81.7758 44.7291 81.7758C44.6223 81.7758 44.5183 81.8097 44.4321 81.8727L43.3928 82.6271C43.2675 82.7181 43.1165 82.7671 42.9616 82.7671C42.8066 82.7671 42.6557 82.7181 42.5303 82.6271C42.405 82.5362 42.3117 82.4079 42.2638 82.2606C42.2159 82.1134 42.2159 81.9548 42.2637 81.8076L42.6607 80.5869C42.6939 80.4855 42.694 80.3761 42.661 80.2747C42.6281 80.1732 42.5637 80.0848 42.4772 80.0222L41.4379 79.2678C41.3126 79.1768 41.2193 79.0485 41.1714 78.9012C41.1235 78.754 41.1235 78.5954 41.1714 78.4482C41.2193 78.301 41.3126 78.1727 41.4379 78.0817C41.5633 77.9907 41.7142 77.9417 41.8692 77.9417H43.1538C43.2605 77.9419 43.3646 77.9082 43.451 77.8455C43.5373 77.7828 43.6016 77.6943 43.6344 77.5928L44.0314 76.3721C44.0792 76.2248 44.1725 76.0965 44.2979 76.0055C44.4232 75.9145 44.5742 75.8654 44.7291 75.8654C44.8841 75.8654 45.035 75.9145 45.1604 76.0055C45.2857 76.0965 45.379 76.2248 45.4269 76.3721L45.8238 77.5928C45.8567 77.6943 45.9209 77.7828 46.0073 77.8455C46.0936 77.9082 46.1977 77.9419 46.3045 77.9417H47.5891C47.744 77.9417 47.895 77.9907 48.0203 78.0817C48.1457 78.1727 48.239 78.301 48.2868 78.4482C48.3347 78.5954 48.3347 78.754 48.2869 78.9012C48.239 79.0485 48.1457 79.1768 48.0204 79.2678L46.9811 80.0222C46.8946 80.0848 46.8302 80.1732 46.7972 80.2746C46.7642 80.3761 46.7643 80.4855 46.7975 80.5869L47.1944 81.8076C47.2441 81.9547 47.2449 82.1138 47.1969 82.2614C47.1489 82.4091 47.0546 82.5373 46.9279 82.6271C46.803 82.7192 46.6519 82.7692 46.4967 82.7698Z" fill="#FBE122"/>
<path d="M57.0288 82.7698C56.8736 82.7692 56.7225 82.7192 56.5976 82.6271L55.5583 81.8727C55.472 81.8099 55.368 81.7761 55.2613 81.7761C55.1545 81.7761 55.0505 81.8099 54.9642 81.8727L53.9249 82.6271C53.7996 82.7181 53.6486 82.7671 53.4937 82.7671C53.3388 82.7671 53.1878 82.7181 53.0625 82.6271C52.9371 82.5362 52.8438 82.4079 52.796 82.2606C52.7481 82.1134 52.7481 81.9548 52.7959 81.8076L53.1929 80.5869C53.2261 80.4855 53.2262 80.3761 53.1932 80.2747C53.1602 80.1732 53.0958 80.0848 53.0093 80.0222L51.97 79.2678C51.8447 79.1768 51.7514 79.0485 51.7035 78.9012C51.6557 78.754 51.6557 78.5954 51.7035 78.4482C51.7514 78.301 51.8447 78.1727 51.9701 78.0817C52.0954 77.9907 52.2464 77.9417 52.4013 77.9417H53.6859C53.7927 77.9419 53.8967 77.9082 53.9831 77.8455C54.0695 77.7828 54.1337 77.6943 54.1665 77.5928L54.5635 76.3721C54.6113 76.2248 54.7046 76.0965 54.83 76.0055C54.9553 75.9145 55.1063 75.8654 55.2613 75.8654C55.4162 75.8654 55.5672 75.9145 55.6925 76.0055C55.8179 76.0965 55.9112 76.2248 55.959 76.3721L56.356 77.5928C56.3888 77.6943 56.453 77.7828 56.5394 77.8455C56.6258 77.9082 56.7299 77.9419 56.8366 77.9417H58.1212C58.2762 77.9417 58.4271 77.9907 58.5525 78.0817C58.6778 78.1727 58.7711 78.301 58.819 78.4482C58.8669 78.5954 58.8669 78.754 58.819 78.9012C58.7711 79.0485 58.6778 79.1768 58.5525 79.2678L57.5132 80.0222C57.4267 80.0848 57.3623 80.1732 57.3293 80.2747C57.2964 80.3761 57.2965 80.4855 57.3297 80.5869L57.7266 81.8076C57.7762 81.9547 57.7771 82.1138 57.7291 82.2614C57.6811 82.409 57.5868 82.5373 57.4601 82.6271C57.3351 82.7192 57.1841 82.7692 57.0288 82.7698Z" fill="#FBE122"/>
<path d="M67.5604 82.7702C67.4052 82.7696 67.2541 82.7196 67.1292 82.6275L66.0899 81.8731C66.0036 81.8102 65.8996 81.7763 65.7928 81.7763C65.6861 81.7763 65.5821 81.8102 65.4958 81.8731L64.4565 82.6275C64.3312 82.7185 64.1802 82.7675 64.0253 82.7675C63.8704 82.7676 63.7194 82.7186 63.5941 82.6276C63.4687 82.5366 63.3754 82.4083 63.3275 82.2611C63.2796 82.1138 63.2796 81.9553 63.3275 81.808L63.7245 80.5873C63.7577 80.4859 63.7578 80.3766 63.7248 80.2751C63.6918 80.1737 63.6274 80.0853 63.5409 80.0228L62.5015 79.2682C62.3762 79.1772 62.2829 79.0489 62.2351 78.9017C62.1872 78.7544 62.1872 78.5959 62.2351 78.4486C62.283 78.3014 62.3762 78.1731 62.5016 78.0821C62.6269 77.9911 62.7779 77.9421 62.9328 77.9421H64.2174C64.3242 77.9423 64.4283 77.9086 64.5147 77.8459C64.601 77.7832 64.6653 77.6947 64.6981 77.5932L65.095 76.3725C65.1429 76.2253 65.2362 76.0969 65.3615 76.0059C65.4869 75.9149 65.6378 75.8659 65.7928 75.8659C65.9477 75.8659 66.0987 75.9149 66.2241 76.0059C66.3494 76.0969 66.4427 76.2253 66.4906 76.3725L66.8876 77.5932C66.9204 77.6947 66.9846 77.7832 67.071 77.8459C67.1573 77.9086 67.2614 77.9423 67.3682 77.9421H68.6528C68.8077 77.9421 68.9587 77.9911 69.084 78.0821C69.2093 78.1731 69.3026 78.3014 69.3505 78.4486C69.3984 78.5959 69.3984 78.7544 69.3505 78.9017C69.3027 79.0489 69.2094 79.1772 69.084 79.2682L68.0447 80.0227C67.9582 80.0852 67.8939 80.1736 67.8609 80.2751C67.8279 80.3766 67.828 80.4859 67.8612 80.5873L68.2582 81.808C68.3078 81.9551 68.3087 82.1143 68.2607 82.2619C68.2127 82.4095 68.1183 82.5377 67.9917 82.6275C67.8667 82.7196 67.7157 82.7696 67.5604 82.7702Z" fill="#FBE122"/>
<path d="M74.5571 82.8418C74.3866 82.8411 74.2207 82.7863 74.0835 82.6852C73.9443 82.5865 73.8407 82.4456 73.7879 82.2835C73.7352 82.1213 73.7361 81.9465 73.7906 81.7849L74.1877 80.5642C74.2161 80.4773 74.2162 80.3836 74.1879 80.2966C74.1596 80.2097 74.1044 80.1339 74.0303 80.0803L72.991 79.3258C72.8533 79.2259 72.7508 79.0849 72.6982 78.9232C72.6456 78.7615 72.6456 78.5873 72.6982 78.4255C72.7508 78.2638 72.8533 78.1229 72.991 78.0229C73.1287 77.923 73.2945 77.8691 73.4647 77.8692H74.7493C74.8408 77.8693 74.93 77.8405 75.0041 77.7867C75.0781 77.733 75.1331 77.6571 75.1612 77.5701L75.5583 76.3494C75.6109 76.1877 75.7133 76.0467 75.851 75.9468C75.9887 75.8468 76.1545 75.793 76.3247 75.793C76.4949 75.793 76.6607 75.8468 76.7984 75.9468C76.9361 76.0467 77.0386 76.1877 77.0912 76.3494L77.4881 77.5701C77.5162 77.6571 77.5713 77.733 77.6453 77.7867C77.7193 77.8404 77.8085 77.8693 77.9 77.8692H79.1847C79.3548 77.8692 79.5207 77.923 79.6583 78.0229C79.796 78.1229 79.8985 78.2638 79.9511 78.4255C80.0037 78.5873 80.0037 78.7615 79.9511 78.9232C79.8985 79.0849 79.796 79.2259 79.6584 79.3258L78.6191 80.0803C78.5449 80.1339 78.4897 80.2097 78.4614 80.2966C78.4332 80.3836 78.4333 80.4772 78.4617 80.5642L78.8587 81.7849C78.9113 81.9466 78.9113 82.1208 78.8587 82.2825C78.8061 82.4443 78.7036 82.5852 78.5659 82.6851C78.4282 82.7851 78.2624 82.8389 78.0922 82.8389C77.922 82.8389 77.7562 82.7851 77.6185 82.6851L76.5793 81.9307C76.5053 81.8768 76.4162 81.8478 76.3247 81.8478C76.2332 81.8478 76.144 81.8768 76.0701 81.9307L75.0308 82.6851C74.8935 82.7863 74.7276 82.8412 74.5571 82.8418ZM76.3247 81.4752C76.4949 81.4752 76.6607 81.5292 76.7983 81.6294L77.8376 82.3838C77.9116 82.4376 78.0007 82.4665 78.0922 82.4665C78.1837 82.4665 78.2728 82.4376 78.3468 82.3839C78.4208 82.3302 78.4759 82.2544 78.5042 82.1675C78.5324 82.0806 78.5324 81.9869 78.5041 81.9L78.1072 80.6793C78.0543 80.5176 78.0541 80.3433 78.1067 80.1815C78.1594 80.0197 78.262 79.8787 78.4 79.779L79.4392 79.0245C79.5132 78.9708 79.5683 78.895 79.5966 78.8081C79.6248 78.7212 79.6248 78.6276 79.5966 78.5406C79.5683 78.4537 79.5132 78.378 79.4392 78.3243C79.3652 78.2705 79.2761 78.2416 79.1846 78.2416H77.9C77.7297 78.2419 77.5638 78.1882 77.426 78.0882C77.2883 77.9882 77.1859 77.8471 77.1336 77.6852L76.7366 76.4645C76.7083 76.3776 76.6532 76.3018 76.5792 76.2481C76.5052 76.1944 76.4161 76.1654 76.3246 76.1654C76.2332 76.1654 76.144 76.1944 76.07 76.2481C75.996 76.3018 75.941 76.3776 75.9127 76.4645L75.5157 77.6852C75.4634 77.8471 75.361 77.9882 75.2233 78.0882C75.0855 78.1882 74.9196 78.2419 74.7493 78.2416H73.4647C73.3732 78.2416 73.2841 78.2705 73.2101 78.3242C73.1361 78.378 73.081 78.4537 73.0527 78.5406C73.0245 78.6275 73.0245 78.7212 73.0527 78.8081C73.081 78.895 73.1361 78.9708 73.2101 79.0245L74.2494 79.779C74.3873 79.8788 74.49 80.0197 74.5426 80.1815C74.5952 80.3433 74.5951 80.5176 74.5422 80.6793L74.1451 81.9C74.1169 81.9869 74.1168 82.0805 74.1451 82.1675C74.1734 82.2544 74.2285 82.3301 74.3025 82.3838C74.3765 82.4376 74.4656 82.4665 74.5571 82.4665C74.6485 82.4665 74.7377 82.4375 74.8117 82.3838L75.851 81.6294C75.9886 81.5292 76.1544 81.4752 76.3247 81.4752Z" fill="#A5AAB4"/>
<path d="M10.2505 52.1417C9.92921 52.1417 9.62107 52.2692 9.39389 52.4962C9.1667 52.7232 9.03907 53.0311 9.03907 53.3521C9.03907 53.6731 9.1667 53.981 9.39389 54.208C9.62107 54.435 9.92921 54.5625 10.2505 54.5625H71.5672C71.8885 54.5625 72.1967 54.435 72.4239 54.208C72.651 53.981 72.7787 53.6731 72.7787 53.3521C72.7787 53.0311 72.651 52.7232 72.4239 52.4962C72.1967 52.2692 71.8885 52.1417 71.5672 52.1417H10.2505Z" fill="#A5AAB4"/>
<path d="M10.2505 58.4726C9.92921 58.4726 9.62107 58.6001 9.39389 58.8271C9.1667 59.0541 9.03907 59.362 9.03907 59.683C9.03907 60.004 9.1667 60.3119 9.39389 60.5389C9.62107 60.7659 9.92921 60.8934 10.2505 60.8934H71.5672C71.8885 60.8934 72.1967 60.7659 72.4239 60.5389C72.651 60.3119 72.7787 60.004 72.7787 59.683C72.7787 59.362 72.651 59.0541 72.4239 58.8271C72.1967 58.6001 71.8885 58.4726 71.5672 58.4726H10.2505Z" fill="#A5AAB4"/>
<path d="M10.2505 64.8041C9.92921 64.8041 9.62107 64.9316 9.39389 65.1586C9.1667 65.3856 9.03907 65.6935 9.03907 66.0145C9.03907 66.3355 9.1667 66.6434 9.39389 66.8704C9.62107 67.0974 9.92921 67.2249 10.2505 67.2249H71.5672C71.8885 67.2249 72.1967 67.0974 72.4239 66.8704C72.651 66.6434 72.7787 66.3355 72.7787 66.0145C72.7787 65.6935 72.651 65.3856 72.4239 65.1586C72.1967 64.9316 71.8885 64.8041 71.5672 64.8041H10.2505Z" fill="#A5AAB4"/>
<path d="M10.2505 52.1417C9.92921 52.1417 9.62107 52.2692 9.39389 52.4962C9.1667 52.7232 9.03907 53.0311 9.03907 53.3521C9.03907 53.6731 9.1667 53.981 9.39389 54.208C9.62107 54.435 9.92921 54.5625 10.2505 54.5625H71.5672C71.8885 54.5625 72.1967 54.435 72.4239 54.208C72.651 53.981 72.7787 53.6731 72.7787 53.3521C72.7787 53.0311 72.651 52.7232 72.4239 52.4962C72.1967 52.2692 71.8885 52.1417 71.5672 52.1417H10.2505Z" fill="#797F8F"/>
<path d="M10.2505 58.4726C9.92921 58.4726 9.62107 58.6001 9.39389 58.8271C9.1667 59.0541 9.03907 59.362 9.03907 59.683C9.03907 60.004 9.1667 60.3119 9.39389 60.5389C9.62107 60.7659 9.92921 60.8934 10.2505 60.8934H71.5672C71.8885 60.8934 72.1967 60.7659 72.4239 60.5389C72.651 60.3119 72.7787 60.004 72.7787 59.683C72.7787 59.362 72.651 59.0541 72.4239 58.8271C72.1967 58.6001 71.8885 58.4726 71.5672 58.4726H10.2505Z" fill="#797F8F"/>
<path d="M10.2505 64.8041C9.92921 64.8041 9.62107 64.9316 9.39389 65.1586C9.1667 65.3856 9.03907 65.6935 9.03907 66.0145C9.03907 66.3355 9.1667 66.6434 9.39389 66.8704C9.62107 67.0974 9.92921 67.2249 10.2505 67.2249H71.5672C71.8885 67.2249 72.1967 67.0974 72.4239 66.8704C72.651 66.6434 72.7787 66.3355 72.7787 66.0145C72.7787 65.6935 72.651 65.3856 72.4239 65.1586C72.1967 64.9316 71.8885 64.8041 71.5672 64.8041H10.2505Z" fill="#797F8F"/>
<path d="M80.5132 26.257H1.30461C0.958722 26.2566 0.627114 26.1191 0.382536 25.8748C0.137958 25.6304 0.000384405 25.299 -3.8147e-06 24.9534V1.30354C0.000384405 0.957937 0.137958 0.626602 0.382536 0.382226C0.627114 0.137849 0.958722 0.0003879 1.30461 0H80.5132C80.8591 0.000387408 81.1907 0.137849 81.4353 0.382226C81.6798 0.626602 81.8174 0.957937 81.8178 1.30354V24.9534C81.8174 25.299 81.6798 25.6304 81.4353 25.8748C81.1907 26.1191 80.8591 26.2566 80.5132 26.257ZM1.30461 0.37244C1.05755 0.372725 0.820694 0.470914 0.645997 0.645467C0.4713 0.82002 0.373028 1.05668 0.372742 1.30354V24.9534C0.373028 25.2003 0.4713 25.437 0.645997 25.6115C0.820694 25.7861 1.05755 25.8843 1.30461 25.8845H80.5132C80.7602 25.8843 80.9971 25.7861 81.1718 25.6115C81.3465 25.437 81.4448 25.2003 81.445 24.9534V1.30354C81.4448 1.05668 81.3465 0.820018 81.1718 0.645464C80.9971 0.47091 80.7602 0.372721 80.5132 0.37244H1.30461Z" fill="#D2D4DA"/>
<path d="M35.9654 36.2156C35.8101 36.215 35.6591 36.165 35.5341 36.0729L34.4948 35.3185C34.4086 35.2556 34.3046 35.2216 34.1978 35.2216C34.091 35.2216 33.987 35.2556 33.9008 35.3185L32.8615 36.0729C32.7362 36.1639 32.5852 36.2129 32.4303 36.2129C32.2753 36.2129 32.1244 36.1639 31.999 36.073C31.8737 35.982 31.7804 35.8537 31.7325 35.7065C31.6846 35.5592 31.6846 35.4007 31.7324 35.2534L32.1294 34.0327C32.1626 33.9313 32.1627 33.822 32.1297 33.7205C32.0968 33.619 32.0324 33.5306 31.9459 33.4681L30.9066 32.7136C30.7812 32.6226 30.6879 32.4943 30.6401 32.3471C30.5922 32.1999 30.5922 32.0413 30.64 31.894C30.6879 31.7468 30.7812 31.6185 30.9066 31.5275C31.0319 31.4365 31.1829 31.3875 31.3378 31.3875H32.6225C32.7292 31.3877 32.8333 31.354 32.9197 31.2913C33.006 31.2286 33.0703 31.1401 33.1031 31.0386L33.5 29.8179C33.5479 29.6706 33.6412 29.5423 33.7665 29.4513C33.8919 29.3603 34.0429 29.3113 34.1978 29.3113C34.3528 29.3113 34.5037 29.3603 34.6291 29.4513C34.7544 29.5423 34.8477 29.6706 34.8956 29.8179L35.2925 31.0386C35.3253 31.1401 35.3896 31.2286 35.4759 31.2913C35.5623 31.354 35.6664 31.3877 35.7731 31.3875H37.0578C37.2127 31.3875 37.3637 31.4365 37.489 31.5275C37.6144 31.6185 37.7077 31.7468 37.7555 31.894C37.8034 32.0413 37.8034 32.1999 37.7555 32.3471C37.7077 32.4943 37.6144 32.6226 37.489 32.7136L36.4497 33.4681C36.3632 33.5306 36.2989 33.619 36.2659 33.7205C36.2329 33.822 36.233 33.9313 36.2662 34.0327L36.6632 35.2534C36.7128 35.4005 36.7137 35.5596 36.6656 35.7073C36.6176 35.8549 36.5233 35.9831 36.3966 36.0729C36.2717 36.165 36.1206 36.215 35.9654 36.2156Z" fill="#FBE122"/>
<path d="M46.4967 36.2156C46.3414 36.215 46.1904 36.165 46.0654 36.0729L45.0261 35.3185C44.9399 35.2556 44.8359 35.2216 44.7291 35.2216C44.6223 35.2216 44.5183 35.2556 44.4321 35.3185L43.3928 36.0729C43.2675 36.1639 43.1165 36.2129 42.9616 36.2129C42.8066 36.2129 42.6557 36.1639 42.5303 36.073C42.405 35.982 42.3117 35.8537 42.2638 35.7065C42.2159 35.5592 42.2159 35.4007 42.2637 35.2534L42.6607 34.0327C42.6939 33.9313 42.694 33.822 42.661 33.7205C42.6281 33.619 42.5637 33.5306 42.4772 33.4681L41.4379 32.7136C41.3126 32.6226 41.2193 32.4943 41.1714 32.3471C41.1235 32.1998 41.1235 32.0412 41.1714 31.894C41.2193 31.7468 41.3126 31.6185 41.4379 31.5275C41.5633 31.4365 41.7142 31.3875 41.8692 31.3875H43.1538C43.2605 31.3877 43.3646 31.354 43.451 31.2913C43.5373 31.2286 43.6016 31.1401 43.6344 31.0386L44.0314 29.8179C44.0792 29.6706 44.1725 29.5423 44.2979 29.4513C44.4232 29.3603 44.5742 29.3113 44.7291 29.3113C44.8841 29.3113 45.035 29.3603 45.1604 29.4513C45.2857 29.5423 45.379 29.6706 45.4269 29.8179L45.8238 31.0386C45.8567 31.1401 45.9209 31.2286 46.0073 31.2913C46.0936 31.354 46.1977 31.3877 46.3045 31.3875H47.5891C47.744 31.3875 47.895 31.4365 48.0203 31.5275C48.1457 31.6185 48.239 31.7468 48.2868 31.894C48.3347 32.0412 48.3347 32.1998 48.2869 32.3471C48.239 32.4943 48.1457 32.6226 48.0204 32.7136L46.9811 33.4681C46.8946 33.5306 46.8302 33.619 46.7972 33.7205C46.7642 33.822 46.7643 33.9313 46.7975 34.0327L47.1944 35.2534C47.2441 35.4005 47.2449 35.5596 47.1969 35.7073C47.1489 35.8549 47.0546 35.9831 46.9279 36.0729C46.803 36.165 46.6519 36.215 46.4967 36.2156Z" fill="#FBE122"/>
<path d="M57.0288 36.2156C56.8736 36.215 56.7225 36.165 56.5976 36.0729L55.5583 35.3185C55.472 35.2557 55.368 35.2219 55.2613 35.2219C55.1545 35.2219 55.0505 35.2557 54.9642 35.3185L53.9249 36.0729C53.7996 36.1639 53.6486 36.2129 53.4937 36.2129C53.3388 36.2129 53.1878 36.1639 53.0625 36.073C52.9371 35.982 52.8438 35.8537 52.796 35.7065C52.7481 35.5592 52.7481 35.4006 52.7959 35.2534L53.1929 34.0327C53.2261 33.9313 53.2262 33.822 53.1932 33.7205C53.1602 33.619 53.0958 33.5306 53.0093 33.4681L51.97 32.7136C51.8447 32.6226 51.7514 32.4943 51.7035 32.3471C51.6557 32.1998 51.6557 32.0412 51.7035 31.894C51.7514 31.7468 51.8447 31.6185 51.9701 31.5275C52.0954 31.4365 52.2464 31.3875 52.4013 31.3875H53.6859C53.7927 31.3877 53.8967 31.354 53.9831 31.2913C54.0695 31.2286 54.1337 31.1401 54.1665 31.0386L54.5635 29.8179C54.6113 29.6706 54.7046 29.5423 54.83 29.4513C54.9553 29.3603 55.1063 29.3113 55.2613 29.3113C55.4162 29.3113 55.5672 29.3603 55.6925 29.4513C55.8179 29.5423 55.9112 29.6706 55.959 29.8179L56.356 31.0386C56.3888 31.1401 56.453 31.2286 56.5394 31.2913C56.6258 31.354 56.7299 31.3877 56.8366 31.3875H58.1212C58.2762 31.3875 58.4271 31.4365 58.5525 31.5275C58.6778 31.6185 58.7711 31.7468 58.819 31.894C58.8669 32.0412 58.8669 32.1998 58.819 32.3471C58.7711 32.4943 58.6778 32.6226 58.5525 32.7136L57.5132 33.4681C57.4267 33.5306 57.3623 33.619 57.3293 33.7205C57.2964 33.822 57.2965 33.9313 57.3297 34.0327L57.7266 35.2534C57.7762 35.4005 57.7771 35.5596 57.7291 35.7072C57.6811 35.8549 57.5868 35.9831 57.4601 36.0729C57.3351 36.165 57.1841 36.215 57.0288 36.2156Z" fill="#FBE122"/>
<path d="M74.5571 36.2878C74.3866 36.2872 74.2207 36.2323 74.0835 36.1313C73.9443 36.0326 73.8407 35.8917 73.7879 35.7295C73.7352 35.5673 73.7361 35.3925 73.7906 35.2309L74.1877 34.0102C74.2161 33.9233 74.2162 33.8296 74.1879 33.7427C74.1596 33.6557 74.1044 33.58 74.0303 33.5264L72.991 32.7718C72.8533 32.6719 72.7508 32.531 72.6982 32.3692C72.6456 32.2075 72.6456 32.0333 72.6982 31.8716C72.7508 31.7098 72.8533 31.5689 72.991 31.4689C73.1287 31.369 73.2945 31.3152 73.4647 31.3152H74.7493C74.8408 31.3153 74.93 31.2865 75.0041 31.2327C75.0781 31.179 75.1331 31.1031 75.1612 31.0161L75.5583 29.7954C75.6109 29.6337 75.7133 29.4927 75.851 29.3928C75.9887 29.2928 76.1545 29.239 76.3247 29.239C76.4949 29.239 76.6607 29.2928 76.7984 29.3928C76.9361 29.4927 77.0386 29.6337 77.0912 29.7954L77.4881 31.0161C77.5162 31.1031 77.5713 31.179 77.6453 31.2327C77.7193 31.2865 77.8085 31.3153 77.9 31.3152H79.1847C79.3548 31.3152 79.5207 31.369 79.6583 31.469C79.796 31.5689 79.8985 31.7099 79.9511 31.8716C80.0037 32.0333 80.0037 32.2075 79.9511 32.3692C79.8985 32.5309 79.796 32.6719 79.6584 32.7718L78.6191 33.5264C78.5449 33.5799 78.4897 33.6557 78.4614 33.7426C78.4332 33.8296 78.4333 33.9233 78.4617 34.0102L78.8587 35.2309C78.9113 35.3926 78.9113 35.5668 78.8587 35.7286C78.8061 35.8903 78.7036 36.0312 78.5659 36.1312C78.4282 36.2311 78.2624 36.2849 78.0922 36.2849C77.922 36.2849 77.7562 36.2311 77.6185 36.1312L76.5793 35.3767C76.5053 35.3229 76.4162 35.2938 76.3247 35.2938C76.2332 35.2938 76.144 35.3229 76.0701 35.3767L75.0308 36.1312C74.8935 36.2323 74.7276 36.2872 74.5571 36.2878ZM76.3247 34.9212C76.4949 34.9212 76.6607 34.9752 76.7983 35.0754L77.8376 35.8298C77.9116 35.8836 78.0007 35.9125 78.0922 35.9126C78.1837 35.9126 78.2728 35.8836 78.3468 35.8299C78.4208 35.7762 78.4759 35.7004 78.5042 35.6135C78.5324 35.5266 78.5324 35.4329 78.5041 35.346L78.1072 34.1253C78.0543 33.9636 78.0541 33.7893 78.1067 33.6275C78.1594 33.4657 78.262 33.3248 78.4 33.225L79.4392 32.4705C79.5132 32.4168 79.5683 32.341 79.5966 32.2541C79.6248 32.1672 79.6248 32.0736 79.5966 31.9867C79.5683 31.8997 79.5132 31.824 79.4392 31.7703C79.3652 31.7166 79.2761 31.6876 79.1846 31.6876H77.9C77.7297 31.6879 77.5638 31.6342 77.426 31.5342C77.2883 31.4342 77.1859 31.2931 77.1336 31.1312L76.7366 29.9105C76.7083 29.8236 76.6532 29.7478 76.5792 29.6941C76.5052 29.6404 76.4161 29.6115 76.3246 29.6115C76.2332 29.6115 76.144 29.6404 76.07 29.6941C75.996 29.7478 75.941 29.8236 75.9127 29.9105L75.5157 31.1312C75.4634 31.2931 75.361 31.4342 75.2233 31.5342C75.0855 31.6342 74.9196 31.6879 74.7493 31.6876H73.4647C73.3732 31.6876 73.2841 31.7165 73.2101 31.7703C73.1361 31.824 73.081 31.8997 73.0527 31.9866C73.0245 32.0736 73.0245 32.1672 73.0527 32.2541C73.081 32.341 73.1361 32.4168 73.2101 32.4705L74.2494 33.225C74.3873 33.3248 74.49 33.4657 74.5426 33.6275C74.5952 33.7893 74.5951 33.9636 74.5422 34.1253L74.1451 35.346C74.1169 35.4329 74.1168 35.5266 74.1451 35.6135C74.1734 35.7004 74.2285 35.7762 74.3025 35.8299C74.3765 35.8836 74.4656 35.9125 74.5571 35.9125C74.6485 35.9125 74.7377 35.8836 74.8117 35.8298L75.851 35.0754C75.9886 34.9752 76.1544 34.9212 76.3247 34.9212Z" fill="#A5AAB4"/>
<path d="M63.9336 36.2575C63.7631 36.2568 63.5972 36.202 63.4599 36.1009C63.3208 36.0022 63.2171 35.8613 63.1644 35.6991C63.1116 35.537 63.1126 35.3621 63.1671 35.2005L63.5641 33.9798C63.5926 33.8929 63.5926 33.7992 63.5644 33.7123C63.5361 33.6253 63.4809 33.5496 63.4068 33.496L62.3674 32.7415C62.2298 32.6415 62.1273 32.5006 62.0747 32.3389C62.0221 32.1771 62.0221 32.0029 62.0747 31.8412C62.1273 31.6795 62.2298 31.5385 62.3675 31.4386C62.5051 31.3386 62.671 31.2848 62.8412 31.2848H64.1258C64.2173 31.285 64.3065 31.2561 64.3805 31.2024C64.4546 31.1486 64.5096 31.0728 64.5377 30.9858L64.9347 29.7651C64.9873 29.6033 65.0898 29.4624 65.2275 29.3625C65.3652 29.2625 65.531 29.2087 65.7012 29.2087C65.8714 29.2087 66.0372 29.2625 66.1749 29.3625C66.3126 29.4624 66.4151 29.6033 66.4676 29.7651L66.8646 30.9858C66.8927 31.0728 66.9477 31.1486 67.0218 31.2024C67.0958 31.2561 67.185 31.285 67.2765 31.2848H68.5612C68.7314 31.2848 68.8972 31.3387 69.0348 31.4386C69.1725 31.5386 69.275 31.6795 69.3276 31.8412C69.3802 32.0029 69.3802 32.1771 69.3276 32.3389C69.275 32.5006 69.1725 32.6415 69.0349 32.7415L67.9956 33.496C67.9214 33.5496 67.8662 33.6253 67.8379 33.7123C67.8097 33.7992 67.8098 33.8929 67.8382 33.9798L68.2352 35.2005C68.2878 35.3623 68.2878 35.5365 68.2352 35.6982C68.1826 35.8599 68.0801 36.0008 67.9424 36.1008C67.8047 36.2007 67.6389 36.2546 67.4687 36.2546C67.2985 36.2546 67.1327 36.2008 66.995 36.1008L65.9557 35.3464C65.8818 35.2925 65.7927 35.2635 65.7011 35.2635C65.6096 35.2635 65.5205 35.2925 65.4465 35.3464L64.4072 36.1008C64.27 36.2019 64.1041 36.2568 63.9336 36.2575ZM65.7012 34.8908C65.8714 34.8909 66.0372 34.9449 66.1748 35.045L67.2141 35.7995C67.2881 35.8532 67.3772 35.8822 67.4687 35.8822C67.5602 35.8822 67.6493 35.8533 67.7233 35.7996C67.7973 35.7458 67.8524 35.6701 67.8807 35.5831C67.9089 35.4962 67.9089 35.4026 67.8806 35.3156L67.4837 34.0949C67.4308 33.9332 67.4306 33.7589 67.4832 33.5971C67.5358 33.4353 67.6385 33.2944 67.7765 33.1947L68.8157 32.4402C68.8897 32.3864 68.9448 32.3107 68.9731 32.2238C69.0013 32.1369 69.0013 32.0432 68.9731 31.9563C68.9448 31.8694 68.8897 31.7936 68.8157 31.7399C68.7417 31.6862 68.6526 31.6573 68.5611 31.6573H67.2765C67.1062 31.6576 66.9403 31.6039 66.8025 31.5039C66.6648 31.4039 66.5624 31.2628 66.5101 31.1009L66.1131 29.8802C66.0848 29.7933 66.0297 29.7175 65.9557 29.6638C65.8817 29.61 65.7926 29.5811 65.7011 29.5811C65.6097 29.5811 65.5205 29.61 65.4465 29.6638C65.3725 29.7175 65.3174 29.7933 65.2892 29.8802L64.8922 31.1009C64.8399 31.2628 64.7375 31.4039 64.5998 31.5039C64.462 31.6039 64.2961 31.6576 64.1258 31.6573H62.8412C62.7497 31.6573 62.6606 31.6862 62.5866 31.7399C62.5126 31.7936 62.4575 31.8694 62.4292 31.9563C62.4009 32.0432 62.4009 32.1368 62.4292 32.2238C62.4575 32.3107 62.5125 32.3864 62.5865 32.4402L63.6259 33.1947C63.7638 33.2944 63.8665 33.4354 63.9191 33.5971C63.9717 33.7589 63.9715 33.9332 63.9186 34.0949L63.5216 35.3156C63.4933 35.4026 63.4933 35.4962 63.5216 35.5831C63.5499 35.67 63.605 35.7458 63.679 35.7995C63.753 35.8532 63.8421 35.8821 63.9336 35.8821C64.025 35.8821 64.1141 35.8532 64.1881 35.7995L65.2275 35.045C65.3651 34.9449 65.5309 34.8909 65.7012 34.8908Z" fill="#A5AAB4"/>
<path d="M10.2505 5.58673C9.92921 5.58673 9.62107 5.71426 9.39389 5.94126C9.1667 6.16826 9.03907 6.47613 9.03907 6.79716C9.03907 7.11818 9.1667 7.42606 9.39389 7.65306C9.62107 7.88006 9.92921 8.00759 10.2505 8.00759H71.5672C71.8885 8.00759 72.1967 7.88006 72.4239 7.65306C72.651 7.42606 72.7787 7.11818 72.7787 6.79716C72.7787 6.47613 72.651 6.16826 72.4239 5.94126C72.1967 5.71426 71.8885 5.58673 71.5672 5.58673H10.2505Z" fill="#A5AAB4"/>
<path d="M10.2505 11.9177C9.92921 11.9177 9.62107 12.0453 9.39389 12.2723C9.1667 12.4993 9.03907 12.8071 9.03907 13.1282C9.03907 13.4492 9.1667 13.7571 9.39389 13.9841C9.62107 14.2111 9.92921 14.3386 10.2505 14.3386H71.5672C71.8885 14.3386 72.1967 14.2111 72.4239 13.9841C72.651 13.7571 72.7787 13.4492 72.7787 13.1282C72.7787 12.8071 72.651 12.4993 72.4239 12.2723C72.1967 12.0453 71.8885 11.9177 71.5672 11.9177H10.2505Z" fill="#A5AAB4"/>
<path d="M10.2505 18.2495C9.92921 18.2495 9.62107 18.377 9.39389 18.604C9.1667 18.831 9.03907 19.1389 9.03907 19.4599C9.03907 19.781 9.1667 20.0888 9.39389 20.3158C9.62107 20.5428 9.92921 20.6704 10.2505 20.6704H71.5672C71.8885 20.6704 72.1967 20.5428 72.4239 20.3158C72.651 20.0888 72.7787 19.781 72.7787 19.4599C72.7787 19.1389 72.651 18.831 72.4239 18.604C72.1967 18.377 71.8885 18.2495 71.5672 18.2495H10.2505Z" fill="#A5AAB4"/>
<path d="M10.2505 5.58673C9.92921 5.58673 9.62107 5.71426 9.39389 5.94126C9.1667 6.16826 9.03907 6.47613 9.03907 6.79716C9.03907 7.11818 9.1667 7.42606 9.39389 7.65306C9.62107 7.88006 9.92921 8.00759 10.2505 8.00759H71.5672C71.8885 8.00759 72.1967 7.88006 72.4239 7.65306C72.651 7.42606 72.7787 7.11818 72.7787 6.79716C72.7787 6.47613 72.651 6.16826 72.4239 5.94126C72.1967 5.71426 71.8885 5.58673 71.5672 5.58673H10.2505Z" fill="#797F8F"/>
<path d="M10.2505 11.9177C9.92921 11.9177 9.62107 12.0453 9.39389 12.2723C9.1667 12.4993 9.03907 12.8071 9.03907 13.1282C9.03907 13.4492 9.1667 13.7571 9.39389 13.9841C9.62107 14.2111 9.92921 14.3386 10.2505 14.3386H71.5672C71.8885 14.3386 72.1967 14.2111 72.4239 13.9841C72.651 13.7571 72.7787 13.4492 72.7787 13.1282C72.7787 12.8071 72.651 12.4993 72.4239 12.2723C72.1967 12.0453 71.8885 11.9177 71.5672 11.9177H10.2505Z" fill="#797F8F"/>
<path d="M10.2505 18.2495C9.92921 18.2495 9.62107 18.377 9.39389 18.604C9.1667 18.831 9.03907 19.1389 9.03907 19.4599C9.03907 19.781 9.1667 20.0888 9.39389 20.3158C9.62107 20.5428 9.92921 20.6704 10.2505 20.6704H71.5672C71.8885 20.6704 72.1967 20.5428 72.4239 20.3158C72.651 20.0888 72.7787 19.781 72.7787 19.4599C72.7787 19.1389 72.651 18.831 72.4239 18.604C72.1967 18.377 71.8885 18.2495 71.5672 18.2495H10.2505Z" fill="#797F8F"/>
</g>
<defs>
<clipPath id="clip0">
<rect width="149.462" height="100" fill="white"/>
</clipPath>
</defs>
</svg>
