<svg width="242" height="190" viewBox="0 0 242 190" fill="none" xmlns="http://www.w3.org/2000/svg">
<path d="M219.096 0.124023H0.0935059V140.383H219.096V0.124023Z" fill="#E6E6E6"/>
<path d="M212.834 17.7161H6.35583V132.086H212.834V17.7161Z" fill="white"/>
<path d="M219.003 0H0V9.30405H219.003V0Z" fill="#FBE122"/>
<path d="M6.91401 6.48109C7.86639 6.48109 8.63844 5.70904 8.63844 4.75666C8.63844 3.80428 7.86639 3.03223 6.91401 3.03223C5.96163 3.03223 5.18958 3.80428 5.18958 4.75666C5.18958 5.70904 5.96163 6.48109 6.91401 6.48109Z" fill="white"/>
<path d="M13.4595 6.48109C14.4119 6.48109 15.184 5.70904 15.184 4.75666C15.184 3.80428 14.4119 3.03223 13.4595 3.03223C12.5072 3.03223 11.7351 3.80428 11.7351 4.75666C11.7351 5.70904 12.5072 6.48109 13.4595 6.48109Z" fill="white"/>
<path d="M20.0051 6.48109C20.9575 6.48109 21.7295 5.70904 21.7295 4.75666C21.7295 3.80428 20.9575 3.03223 20.0051 3.03223C19.0527 3.03223 18.2806 3.80428 18.2806 4.75666C18.2806 5.70904 19.0527 6.48109 20.0051 6.48109Z" fill="white"/>
<path d="M78.1724 29.583H25.1172V120.219H78.1724V29.583Z" fill="#E6E6E6"/>
<path d="M131.543 29.583H87.3307V54.5316H131.543V29.583Z" fill="#FBE122"/>
<path d="M131.543 61.479H87.3307V88.3224H131.543V61.479Z" fill="#E6E6E6"/>
<path d="M131.543 95.2703H87.3307V120.219H131.543V95.2703Z" fill="#E6E6E6"/>
<path d="M194.073 29.583H141.018V69.0817H194.073V29.583Z" fill="#E6E6E6"/>
<path d="M194.073 80.7202H141.018V120.219H194.073V80.7202Z" fill="#E6E6E6"/>
<path d="M173.634 71.9192V63.4157C173.634 60.3936 174.835 57.4953 176.971 55.3584C179.108 53.2215 182.007 52.021 185.029 52.021C188.051 52.021 190.949 53.2215 193.086 55.3584C195.223 57.4953 196.423 60.3936 196.423 63.4157V71.9192C196.423 72.325 196.262 72.714 195.975 73.001C195.688 73.2879 195.299 73.4493 194.893 73.4498H175.165C174.759 73.4493 174.37 73.2879 174.083 73.001C173.796 72.714 173.634 72.325 173.634 71.9192Z" fill="#2F2E41"/>
<path d="M201.878 182.582L197.859 183.695L191.656 168.722L197.588 167.081L201.878 182.582Z" fill="#FFB8B8"/>
<path d="M194.67 183.341L202.421 181.196L203.772 186.076L191.141 189.572C190.963 188.931 190.914 188.261 190.995 187.601C191.077 186.941 191.287 186.304 191.615 185.725C191.943 185.147 192.381 184.638 192.905 184.229C193.43 183.82 194.029 183.518 194.67 183.341V183.341Z" fill="#F9E01A"/>
<path d="M159.977 185.674H155.807L153.823 169.589H159.978L159.977 185.674Z" fill="#FFB8B8"/>
<path d="M152.828 184.482H160.871V189.546H147.765C147.765 188.881 147.896 188.222 148.15 187.608C148.405 186.994 148.778 186.435 149.248 185.965C149.718 185.495 150.276 185.122 150.891 184.868C151.505 184.613 152.163 184.482 152.828 184.482V184.482Z" fill="#F9E01A"/>
<path d="M154.949 95.7826C155.247 96.1844 155.629 96.516 156.068 96.7542C156.508 96.9923 156.995 97.1311 157.494 97.1609C157.993 97.1906 158.493 97.1106 158.957 96.9264C159.422 96.7421 159.841 96.4583 160.184 96.0947L171.27 101.08L170.261 94.8452L159.889 91.0665C159.24 90.5303 158.417 90.2508 157.576 90.281C156.734 90.3112 155.933 90.649 155.324 91.2303C154.715 91.8116 154.341 92.5961 154.272 93.4351C154.202 94.2741 154.443 95.1094 154.949 95.7826H154.949Z" fill="#FFB8B8"/>
<path d="M177.981 133.279C174.498 133.279 170.893 132.76 167.862 131.217C166.254 130.414 164.828 129.288 163.675 127.909C162.521 126.53 161.665 124.927 161.159 123.202C159.58 118.202 161.571 113.29 163.496 108.54C164.689 105.596 165.816 102.816 166.108 100.076L166.21 99.1031C166.666 94.7331 167.059 90.959 169.237 89.5435C170.365 88.8097 171.883 88.7679 173.876 89.4152L192.599 95.4974L191.911 131.039L191.797 131.077C191.699 131.11 185.099 133.279 177.981 133.279Z" fill="#D9D9D9"/>
<path d="M173.549 78.3506C173.549 78.3506 182.733 75.6294 189.876 76.6499C189.876 76.6499 185.794 99.0991 187.155 106.582C188.515 114.065 163.515 109.473 168.617 102.33L170.318 93.8269C170.318 93.8269 166.916 90.4255 169.978 86.3438L173.549 78.3506Z" fill="#F9E01A"/>
<path d="M169.032 132.605L157.713 130.483L161.665 100.072C161.931 99.2233 168.052 79.9554 170.832 78.9129C172.851 78.202 174.915 77.6285 177.011 77.1963L177.414 77.1157L175.145 80.5201L166.109 102.171L169.032 132.605Z" fill="#D9D9D9"/>
<path d="M163.134 181.947L148.51 179.51L156.717 145.998L168.929 100.168L169.05 100.982C169.059 101.043 170.2 107.03 187.128 104.373L187.277 104.35L187.318 104.495L207.778 176.788L191.115 179.565L175.916 126.82L163.134 181.947Z" fill="#E6E6E6"/>
<path d="M183.404 138.296L183.413 138.039C183.423 137.753 184.43 109.34 184.093 97.9136C183.756 86.4478 187.468 76.5185 187.506 76.4195L187.536 76.3398L187.618 76.3162C192.421 74.9442 196.587 79.0392 196.629 79.0807L196.687 79.1391L195.319 90.4237L201.175 131.459L183.404 138.296Z" fill="#D9D9D9"/>
<path d="M182.687 73.2518C187.301 73.2518 191.041 69.5115 191.041 64.8976C191.041 60.2838 187.301 56.5435 182.687 56.5435C178.073 56.5435 174.333 60.2838 174.333 64.8976C174.333 69.5115 178.073 73.2518 182.687 73.2518Z" fill="#FFB8B8"/>
<path d="M170.938 64.096C170.941 61.7062 171.892 59.4151 173.582 57.7253C175.271 56.0355 177.562 55.085 179.952 55.0823H181.653C184.043 55.085 186.334 56.0355 188.024 57.7253C189.713 59.4151 190.664 61.7062 190.667 64.096V64.266H187.072L185.847 60.8334L185.601 64.266H183.744L183.125 62.5341L183.002 64.266H170.938V64.096Z" fill="#2F2E41"/>
<path d="M181.865 74.4061C181.696 74.1776 181.595 73.9061 181.574 73.6228C181.553 73.3396 181.612 73.0561 181.745 72.805C183.547 69.377 186.071 63.0429 182.721 59.1366L182.481 58.856H192.204V73.4547L183.371 75.0132C183.282 75.0291 183.191 75.0371 183.1 75.0372C182.859 75.0372 182.621 74.9799 182.407 74.8702C182.192 74.7605 182.006 74.6014 181.865 74.4061Z" fill="#2F2E41"/>
<path d="M142.716 14.1316C135.912 8.39018 127.585 4.75017 118.75 3.65455C109.915 2.55892 100.952 4.05491 92.9515 7.96048C84.951 11.8661 78.2582 18.0128 73.6875 25.6528C69.1167 33.2927 66.8651 42.0965 67.2067 50.9928C67.5482 59.8891 70.4681 68.4944 75.6111 75.7614C80.7542 83.0285 87.8985 88.644 96.1748 91.9247C104.451 95.2054 113.503 96.0098 122.228 94.2401C130.953 92.4703 138.976 88.2027 145.32 81.9565L201.653 129.49C202.51 130.215 203.62 130.569 204.738 130.476C205.857 130.382 206.892 129.848 207.617 128.991C208.342 128.134 208.696 127.024 208.603 125.905C208.509 124.787 207.975 123.751 207.118 123.027L207.111 123.021L150.778 75.4876C157.322 66.0953 160.123 54.5977 158.632 43.2479C157.14 31.8982 151.464 21.5144 142.716 14.1316V14.1316ZM139.084 70.9104C134.696 76.1114 128.863 79.8943 122.325 81.7806C115.786 83.667 108.835 83.572 102.351 81.5078C95.8659 79.4436 90.1391 75.5029 85.8941 70.1839C81.6492 64.8649 79.0768 58.4067 78.5024 51.6257C77.9279 44.8448 79.3771 38.0458 82.6667 32.0885C85.9563 26.1313 90.9386 21.2832 96.9835 18.1575C103.028 15.0318 109.864 13.7689 116.627 14.5283C123.39 15.2878 129.775 18.0355 134.977 22.4242H134.977C138.43 25.3381 141.276 28.9037 143.351 32.9174C145.426 36.931 146.691 41.3142 147.072 45.8165C147.454 50.3189 146.945 54.8523 145.574 59.1579C144.203 63.4635 141.998 67.457 139.084 70.9104V70.9104Z" fill="#3F3D56"/>
<path opacity="0.3" d="M90.5981 75.0182C83.9973 69.448 79.7327 61.5991 78.651 53.0301C77.5694 44.4611 79.7498 35.7987 84.7594 28.7629C84.1015 29.4255 83.4655 30.1193 82.8514 30.8446C79.9375 34.2979 77.7322 38.2914 76.3617 42.597C74.9911 46.9026 74.482 51.436 74.8634 55.9384C75.2449 60.4408 76.5094 64.8239 78.5847 68.8376C80.6601 72.8512 83.5057 76.4168 86.9591 79.3308C90.4125 82.2447 94.406 84.4499 98.7116 85.8205C103.017 87.1911 107.551 87.7002 112.053 87.3187C116.555 86.9373 120.938 85.6728 124.952 83.5974C128.966 81.522 132.531 78.6764 135.445 75.2231C136.058 74.4969 136.635 73.7533 137.176 72.9921C131.084 79.1139 122.911 82.7205 114.283 83.0959C105.654 83.4712 97.1994 80.5878 90.5981 75.0182V75.0182Z" fill="black"/>
<path d="M185.369 110.388C185.855 110.506 186.361 110.517 186.851 110.419C187.342 110.321 187.805 110.117 188.208 109.821C188.61 109.525 188.944 109.144 189.183 108.705C189.423 108.266 189.564 107.78 189.595 107.281L201.307 104.03L196.546 99.8794L186.154 103.603C185.313 103.605 184.501 103.917 183.873 104.478C183.245 105.038 182.845 105.81 182.748 106.647C182.652 107.483 182.865 108.326 183.348 109.015C183.831 109.705 184.55 110.193 185.369 110.388V110.388Z" fill="#FFB8B8"/>
<path d="M190.238 108.667L189.525 101.896L199.308 96.4983L192.93 88.7771L193.97 80.1037L196.562 78.9929L196.643 79.0966C197.865 80.668 208.584 94.4983 208.584 96.208C208.584 97.964 206.533 103.121 203.728 104.523C201.022 105.877 190.86 108.506 190.429 108.618L190.238 108.667Z" fill="#D9D9D9"/>
</svg>
