<svg width="297" height="190" viewBox="0 0 297 190" fill="none" xmlns="http://www.w3.org/2000/svg">
<g clip-path="url(#clip0)">
<path opacity="0.5" d="M278.475 162.623C277.939 160.412 276.18 158.746 274.885 156.875C273.328 154.567 272.418 151.885 272.25 149.107C272.082 146.328 272.661 143.556 273.929 141.078C275.174 138.708 277.127 136.257 276.42 133.67C275.946 131.929 274.374 130.737 272.829 129.802C266.962 126.269 260.19 124.527 253.346 124.792C244.957 125.135 236.596 128.485 228.369 126.826C220.357 125.203 213.569 121.186 205.186 120.71C198.924 120.355 192.731 120.753 186.456 120.068C170.953 118.387 155.336 118.014 139.77 118.954C124.205 118.014 108.589 118.387 93.0865 120.068C86.8276 120.753 80.631 120.355 74.3565 120.71C65.949 121.183 59.1763 125.206 51.1611 126.826C42.9311 128.488 34.5735 125.135 26.1846 124.792C19.3406 124.527 12.5684 126.269 6.70106 129.802C5.14411 130.737 3.58717 131.929 3.11075 133.67C2.40701 136.254 4.3563 138.705 5.60186 141.078C6.86995 143.555 7.45071 146.328 7.28367 149.106C7.11664 151.884 6.20792 154.567 4.65212 156.875C3.35674 158.743 1.5974 160.412 1.06181 162.623C-0.0155955 167.069 4.30648 170.987 8.53514 172.752C20.0721 177.576 34.1033 175.243 44.6562 181.96C49.3862 184.974 53.5246 189.813 59.1296 189.994C62.9192 190.115 66.3662 188.01 69.6763 186.158C74.6296 183.385 79.8076 181.034 85.1554 179.129C89.8263 177.467 94.7742 176.134 99.7035 176.685C107.23 177.516 139.764 193.235 154.43 183.947C164.475 177.579 172.31 177.526 179.855 176.682C184.784 176.131 189.729 177.464 194.403 179.126C199.751 181.03 204.929 183.381 209.882 186.154C213.189 188.007 216.639 190.112 220.429 189.991C226.034 189.81 230.172 184.971 234.902 181.957C245.449 175.237 259.477 177.573 271.023 172.749C275.23 170.977 279.555 167.072 278.475 162.623Z" fill="url(#paint0_linear)"/>
<path d="M276.949 162.532C276.42 160.353 274.679 158.696 273.399 156.846C271.863 154.563 270.966 151.91 270.801 149.163C270.637 146.415 271.212 143.674 272.465 141.224C273.711 138.879 275.629 136.457 274.931 133.9C274.461 132.178 272.907 130.998 271.381 130.076C265.579 126.581 258.882 124.858 252.113 125.119C243.817 125.455 235.55 128.772 227.41 127.128C219.482 125.527 212.775 121.547 204.47 121.077C198.277 120.728 192.139 121.121 185.949 120.454C170.616 118.791 155.171 118.423 139.776 119.352C124.382 118.423 108.936 118.791 93.6034 120.454C87.413 121.133 81.2756 120.738 75.082 121.077C66.7804 121.544 60.07 125.524 52.142 127.128C44.0055 128.772 35.735 125.455 27.4396 125.119C20.6708 124.858 13.9733 126.581 8.17085 130.076C6.64504 131.011 5.09121 132.178 4.62101 133.9C3.9235 136.457 5.86657 138.882 7.08722 141.224C8.34069 143.674 8.91514 146.415 8.75086 149.163C8.58658 151.91 7.68958 154.563 6.15305 156.846C4.87013 158.696 3.13258 160.343 2.60322 162.532C1.51024 166.929 5.78561 170.803 9.96133 172.534C21.3737 177.302 35.2492 174.994 45.6776 181.639C50.3484 184.619 54.4494 189.408 60.0015 189.586C63.7382 189.707 67.1634 187.624 70.433 185.79C75.3324 183.047 80.4542 180.721 85.744 178.837C90.3681 177.189 95.2569 175.872 100.133 176.417C107.607 177.252 139.773 192.787 154.265 183.601C164.201 177.305 171.949 177.252 179.41 176.417C184.286 175.872 189.178 177.189 193.799 178.837C199.089 180.721 204.211 183.047 209.11 185.79C212.383 187.621 215.792 189.704 219.541 189.586C225.084 189.408 229.179 184.622 233.865 181.639C244.297 174.994 258.172 177.302 269.582 172.534C273.742 170.803 278.017 166.929 276.949 162.532Z" fill="#F9E01A"/>
<path opacity="0.6" d="M10.8798 68.2626C11.7704 67.9512 12.717 67.6553 13.6481 67.8173C15.205 68.0882 16.298 69.5642 16.762 71.0806C17.2259 72.5971 17.2104 74.1945 17.5062 75.7515C17.802 77.3084 18.5089 78.9183 19.9039 79.6625C21.2989 80.4067 22.9462 80.114 24.4938 79.9334C26.5236 79.6993 28.5725 79.6805 30.6063 79.8774C32.3127 80.0424 34.3181 80.6185 34.8194 82.2595C35.2304 83.5985 34.4146 84.9655 33.8852 86.2577C32.8701 88.6741 32.7891 91.5295 33.9506 93.8774C35.1121 96.2253 37.4662 97.9753 38.4502 100.454C38.7353 101.074 38.8181 101.768 38.6868 102.437C38.5413 102.906 38.3019 103.341 37.9831 103.714C37.2109 104.707 36.2892 105.583 35.5854 106.629C34.1188 108.808 33.7171 111.518 33.5489 114.136C33.3812 116.711 33.3958 119.295 33.5925 121.868C31.6806 121.245 29.5694 121.8 27.5983 121.392C23.4039 120.526 20.7851 115.563 16.5129 115.26C14.492 115.117 12.3185 116.07 10.5155 115.145C9.65418 114.649 8.98012 113.883 8.59737 112.966C7.83534 111.342 7.66142 109.503 8.10537 107.765C8.41676 106.563 9.03954 105.386 8.9181 104.15C8.81534 103.091 8.18011 102.157 7.45146 101.382C5.3745 99.1772 2.36025 97.8289 0.868703 95.1915C0.190322 93.9386 -0.0927426 92.5098 0.0567771 91.0929C0.206297 89.6761 0.781389 88.3378 1.70634 87.2542C2.23869 86.7345 2.74282 86.1867 3.21657 85.6131C3.93277 84.6042 4.15074 83.3307 4.24727 82.0944C4.45279 79.1331 3.93588 75.9975 4.9043 73.1202C5.77307 70.517 8.4261 69.1345 10.8798 68.2626Z" fill="#F9E01A"/>
<path opacity="0.6" d="M10.9236 68.3499C10.9236 68.3499 19.4276 115.578 30.4695 121.211" stroke="#535461" stroke-miterlimit="10"/>
<path opacity="0.6" d="M34.5829 81.4219C34.5829 81.4219 25.4748 82.6674 16.376 92.0247" stroke="#535461" stroke-miterlimit="10"/>
<path opacity="0.6" d="M17.9764 97.5114C17.9764 97.5114 10.967 90.6608 0.0155029 91.8223" stroke="#535461" stroke-miterlimit="10"/>
<path opacity="0.6" d="M38.5935 100.491C38.5935 100.491 25.8017 101.578 21.0654 106.489" stroke="#535461" stroke-miterlimit="10"/>
<path opacity="0.6" d="M22.9805 111.063C22.9805 111.063 15.8185 109.817 9.20776 114.037" stroke="#535461" stroke-miterlimit="10"/>
<path opacity="0.6" d="M274.156 31.1636C272.727 30.656 271.21 30.1921 269.719 30.4505C267.228 30.8865 265.471 33.253 264.736 35.6787C264.002 38.1045 264.017 40.6921 263.544 43.1832C263.07 45.6743 261.937 48.2557 259.701 49.4515C257.466 50.6472 254.825 50.1739 252.343 49.8874C249.093 49.5085 245.811 49.474 242.553 49.7847C239.816 50.0493 236.606 50.9742 235.802 53.6023C235.145 55.7509 236.45 57.9368 237.322 60.0075C238.95 63.8781 239.081 68.4586 237.216 72.2233C235.32 76.0534 231.58 78.7936 230.004 82.7638C229.606 83.7727 229.353 84.8906 229.624 85.94C229.858 86.6927 230.243 87.3898 230.755 87.9889C232 89.5832 233.47 90.9876 234.597 92.6598C236.948 96.1473 237.586 100.494 237.86 104.692C238.13 108.818 238.107 112.959 237.792 117.082C240.856 116.073 244.244 116.973 247.401 116.322C254.124 114.936 258.322 106.981 265.169 106.495C268.408 106.267 271.892 107.79 274.782 106.308C276.189 105.586 277.189 104.237 277.858 102.802C279.06 100.2 279.323 97.2617 278.603 94.4876C278.095 92.5601 277.108 90.6762 277.301 88.6927C277.466 86.9956 278.481 85.4978 279.652 84.2585C282.981 80.7242 287.813 78.5632 290.205 74.3376C292.447 70.3768 291.88 65.0178 288.863 61.6143C288.072 60.7206 287.131 59.9546 286.44 58.9831C285.291 57.367 284.924 55.3243 284.787 53.3438C284.46 48.5952 285.266 43.5725 283.731 38.9608C282.33 34.7633 278.079 32.5431 274.156 31.1636Z" fill="#F9E01A"/>
<path opacity="0.6" d="M274.075 31.2883C274.075 31.2883 260.445 106.99 242.743 116.017" stroke="#535461" stroke-miterlimit="10"/>
<path opacity="0.6" d="M236.151 52.2417C236.151 52.2417 250.749 54.247 265.334 69.2404" stroke="#535461" stroke-miterlimit="10"/>
<path opacity="0.6" d="M262.769 78.0309C262.769 78.0309 274.007 67.042 291.556 68.9104" stroke="#535461" stroke-miterlimit="10"/>
<path opacity="0.6" d="M229.739 82.8076C229.739 82.8076 250.241 84.5483 257.833 92.4233" stroke="#535461" stroke-miterlimit="10"/>
<path opacity="0.6" d="M254.75 99.7533C254.75 99.7533 266.237 97.7418 276.828 104.518" stroke="#535461" stroke-miterlimit="10"/>
<path d="M23.326 0V7.7816V154.2H249.684V7.7816V0H23.326Z" fill="url(#paint1_linear)"/>
<path d="M247.286 6.99683H26.683V151.41H247.286V6.99683Z" fill="white"/>
<path d="M247.286 0.127686H26.683V10.7523H247.286V0.127686Z" fill="#EEEEEE"/>
<path d="M35.0779 7.85325C36.5001 7.85325 37.653 6.7003 37.653 5.27806C37.653 3.85583 36.5001 2.70288 35.0779 2.70288C33.6556 2.70288 32.5027 3.85583 32.5027 5.27806C32.5027 6.7003 33.6556 7.85325 35.0779 7.85325Z" fill="#FF5252"/>
<path d="M42.162 7.85325C43.5842 7.85325 44.7372 6.7003 44.7372 5.27806C44.7372 3.85583 43.5842 2.70288 42.162 2.70288C40.7397 2.70288 39.5868 3.85583 39.5868 5.27806C39.5868 6.7003 40.7397 7.85325 42.162 7.85325Z" fill="#FFFF00"/>
<path d="M49.2461 7.85325C50.6683 7.85325 51.8213 6.7003 51.8213 5.27806C51.8213 3.85583 50.6683 2.70288 49.2461 2.70288C47.8238 2.70288 46.6709 3.85583 46.6709 5.27806C46.6709 6.7003 47.8238 7.85325 49.2461 7.85325Z" fill="#69F0AE"/>
<path opacity="0.5" d="M117.344 27.7698H35.1371V31.1951H117.344V27.7698Z" fill="#F9E01A"/>
<path opacity="0.5" d="M117.344 34.6201H35.1371V38.0454H117.344V34.6201Z" fill="#F9E01A"/>
<path opacity="0.5" d="M117.344 41.4707H35.1371V44.896H117.344V41.4707Z" fill="#F9E01A"/>
<path opacity="0.5" d="M117.344 48.3213H63.4735V51.7466H117.344V48.3213Z" fill="#F9E01A"/>
<path opacity="0.5" d="M78.4201 55.1719H35.1371V58.5971H78.4201V55.1719Z" fill="#F9E01A"/>
<path opacity="0.5" d="M91.8098 62.0225H58.4912V65.4477H91.8098V62.0225Z" fill="#F9E01A"/>
<path opacity="0.5" d="M225.084 51.7466H128.242V107.485H225.084V51.7466Z" fill="#F9E01A"/>
<path d="M236.606 57.0403H139.764V112.779H236.606V57.0403Z" fill="#EEEEEE"/>
<path opacity="0.5" d="M294.829 108.463C295.03 108.206 295.14 107.889 295.14 107.563C295.14 107.563 295.14 107.544 295.14 107.538C295.14 107.532 295.159 107.473 295.168 107.442V107.401C295.17 107.371 295.17 107.341 295.168 107.311C295.168 107.311 295.168 107.286 295.168 107.273C295.172 107.236 295.172 107.199 295.168 107.161C294.985 105.916 287.583 97.801 285.733 87.9019C285.529 86.8242 285.223 85.7681 284.821 84.7476C284.878 84.2371 284.844 83.7205 284.721 83.2218C284.41 81.9544 283.787 80.6684 284.099 79.4041C284.142 79.2388 284.199 79.0773 284.27 78.9215C284.658 78.3509 285.015 77.7594 285.338 77.1497C285.458 76.9509 285.563 76.7426 285.649 76.5269C286.786 73.5313 283.267 70.4393 283.915 67.3129C284.195 65.9584 285.244 64.7751 285.216 63.3957C285.182 61.8169 283.731 60.5932 282.224 60.0077C280.717 59.4223 279.057 59.2542 277.578 58.6003C274.336 57.1648 272.562 53.699 269.603 51.7715C265.845 49.3271 260.941 49.7631 256.435 50.3952C256.286 50.417 256.146 50.4749 256.025 50.564C255.905 50.6531 255.808 50.7705 255.743 50.9059V50.9059H255.7C255.666 51.0055 255.625 51.102 255.582 51.1986C254.959 52.2604 253.909 53.0669 252.872 53.8111C251.608 54.7017 250.254 55.5798 249.481 56.9001C249.366 57.0963 249.27 57.2831 249.186 57.4637C247.504 60.4624 249.525 61.7577 251.988 62.4771C251.914 62.906 251.877 63.3403 251.876 63.7755C251.876 68.135 255.522 71.6942 260.016 71.6942C260.371 71.6937 260.725 71.6708 261.078 71.6256L261.339 71.7969H261.398C262.233 72.3979 262.955 73.1515 263.267 74.0483L260.657 76.0411C260.657 76.0411 260.763 76.3152 260.919 76.7511L250.662 81.478C246.775 81.6586 240.485 69.4179 240.485 69.4179C240.485 69.4179 239.551 62.3992 236.229 61.1381C235.226 60.7582 234.827 61.5522 234.759 62.8476C233.274 64.4045 235.768 73.1483 235.768 73.1483L243.724 87.1889C244.465 88.6275 244.658 89.5274 248.164 90.0692C251.051 90.5114 260.044 87.3165 263.173 86.1581L263.32 87.4037C262.956 88.3532 262.795 89.3682 262.846 90.3837C262.846 92.6786 263.871 96.0167 268.872 98.676C268.872 98.676 274.034 105.349 273.461 111.648C273.461 111.648 273.711 111.91 274.109 112.253C274.053 114.027 273.798 116.216 272.904 117.07C272.845 117.125 272.801 117.195 272.777 117.273C272.752 117.35 272.748 117.432 272.764 117.512C272.745 117.605 272.756 117.702 272.795 117.789C272.834 117.875 272.899 117.947 272.982 117.995L266.465 129.407C266.222 129.718 265.976 130.03 265.723 130.341C264.514 131.883 263.171 133.316 261.71 134.623C260.623 135.591 259.493 136.65 259.268 137.045C258.923 137.668 258.054 139.677 258.421 141.336C258.897 143.349 259.092 145.417 259.001 147.483L258.157 162.246C257.874 163.894 257.484 165.522 256.989 167.119H256.861C256.861 167.119 253.716 170.899 248.722 171.79C243.727 172.681 243.911 175.215 245.39 175.57C246.869 175.925 264.817 175.209 264.817 175.209C264.817 175.209 265.496 173.886 265.309 172.677C271.039 172.126 278.976 171.192 278.976 171.192C278.976 171.192 280.063 168.58 278.484 167.44C277.89 166.983 277.449 166.357 277.22 165.643C277.127 165.245 277.024 164.79 276.924 164.314C276.899 164.08 276.899 163.937 276.899 163.937H276.846C276.569 162.545 276.348 161.053 276.476 160.272C276.94 158.201 278.142 146.231 275.18 142.812C273.835 141.255 274.019 139.487 274.617 138.011C278.17 135.685 283.139 130.68 286.014 127.654C286.175 127.788 286.325 127.922 286.465 128.055L286.558 128.146C286.558 128.146 296.339 123.304 296.38 114.756C296.395 112.562 295.862 110.399 294.829 108.463V108.463ZM263.5 168.76C263.483 168.448 263.494 168.136 263.534 167.826L263.223 167.792C263.404 166.434 263.846 164.915 264.836 163.865C266.536 160.785 267.739 157.456 268.398 154L270.195 160.798C270.195 160.798 270.376 162.205 270.425 163.694H270.394C270.394 163.694 267.888 167.272 263.5 168.76Z" fill="url(#paint2_linear)"/>
<path d="M271.621 80.7183C271.621 80.7183 267.227 82.3002 264.771 84.9377C264.771 84.9377 252.816 89.6832 249.475 89.157C246.134 88.6307 245.96 87.7495 245.256 86.3545L237.695 72.6534C237.695 72.6534 234.532 61.2254 237.695 62.4554C240.859 63.6854 241.743 70.5515 241.743 70.5515C241.743 70.5515 247.722 82.5057 251.412 82.3313L261.423 77.5609C261.423 77.5609 263.709 74.2197 264.764 74.3972C265.82 74.5746 271.621 80.7183 271.621 80.7183Z" fill="#FDB797"/>
<g opacity="0.05">
<path opacity="0.05" d="M271.621 80.7183C271.621 80.7183 267.227 82.3002 264.771 84.9377C264.771 84.9377 252.816 89.6832 249.475 89.157C246.134 88.6307 245.96 87.7495 245.256 86.3545L237.695 72.6534C237.695 72.6534 234.532 61.2254 237.695 62.4554C240.859 63.6854 241.743 70.5515 241.743 70.5515C241.743 70.5515 247.722 82.5057 251.412 82.3313L261.423 77.5609C261.423 77.5609 263.709 74.2197 264.764 74.3972C265.82 74.5746 271.621 80.7183 271.621 80.7183Z" fill="black"/>
</g>
<path d="M264.403 74.2383L260.897 76.9909C260.897 76.9909 262.65 81.5777 262.211 83.1845C261.772 84.7912 269.223 80.6622 269.223 80.6622L266.156 73.7805L264.403 74.2383Z" fill="#F9CE43"/>
<g opacity="0.05">
<path opacity="0.05" d="M264.403 74.2383L260.897 76.9909C260.897 76.9909 262.65 81.5777 262.211 83.1845C261.772 84.7912 269.223 80.6622 269.223 80.6622L266.156 73.7805L264.403 74.2383Z" fill="black"/>
</g>
<path d="M258.35 71.1742C258.35 71.1742 266.172 73.7245 262.569 78.2054L273.82 72.7561C273.82 72.7561 269.074 73.1079 266.085 65.9055L258.35 71.1742Z" fill="#FDB797"/>
<path d="M273.116 117.06L263.447 134.464L269.955 159.767C269.955 159.767 270.659 165.394 269.603 165.92H276.986C276.986 165.92 275.563 160.938 275.931 159.241C276.37 157.22 277.513 145.54 274.685 142.189C271.858 138.839 276.093 134.454 276.093 134.454L284.531 121.093L273.116 117.06Z" fill="#FDB797"/>
<g opacity="0.05">
<path opacity="0.05" d="M273.116 117.06L263.447 134.464L269.955 159.767C269.955 159.767 270.659 165.394 269.603 165.92H276.986C276.986 165.92 275.669 160.91 275.931 159.241C276.192 157.572 277.513 145.54 274.685 142.189C271.858 138.839 276.093 134.454 276.093 134.454L284.531 121.093L273.116 117.06Z" fill="black"/>
</g>
<path d="M270.142 162.607C270.142 162.607 267.464 166.552 262.793 167.804C258.122 169.056 258.502 171.497 259.932 171.734C261.361 171.971 278.304 169.919 278.304 169.919C278.304 169.919 279.334 167.368 277.836 166.254C276.339 165.139 276.329 162.828 276.329 162.828L270.142 162.607Z" fill="#0D134D"/>
<g opacity="0.1">
<path opacity="0.1" d="M273.645 110.026C273.645 110.026 274.063 115.743 272.54 117.244C272.487 117.294 272.446 117.355 272.421 117.424C272.396 117.492 272.388 117.566 272.397 117.638C272.406 117.711 272.432 117.78 272.473 117.84C272.515 117.9 272.569 117.95 272.633 117.985L277.161 120.398L281.209 112.663L273.645 110.026Z" fill="black"/>
</g>
<path d="M273.645 109.852C273.645 109.852 274.063 115.569 272.54 117.07C272.487 117.119 272.446 117.181 272.421 117.25C272.396 117.318 272.388 117.392 272.397 117.464C272.406 117.536 272.432 117.605 272.473 117.666C272.515 117.726 272.569 117.776 272.633 117.811L277.161 120.224L281.209 112.489L273.645 109.852Z" fill="#84329B"/>
<g opacity="0.1">
<path opacity="0.1" d="M273.645 110.163C273.645 110.163 274.063 115.88 272.54 117.381C272.487 117.431 272.446 117.493 272.421 117.561C272.396 117.63 272.388 117.703 272.397 117.776C272.406 117.848 272.432 117.917 272.473 117.977C272.515 118.038 272.569 118.087 272.633 118.122L277.161 120.535L281.209 112.801L273.645 110.163Z" fill="black"/>
</g>
<path d="M273.82 121.102C273.82 121.102 271.207 122.846 265.723 130.024C264.577 131.527 263.3 132.926 261.909 134.206C260.878 135.14 259.804 136.186 259.589 136.572C259.259 137.167 258.434 139.144 258.786 140.763C259.238 142.731 259.423 144.75 259.337 146.767L258.537 161.187C258.537 161.187 257.481 167.692 256.077 168.396L263.285 169.642C263.285 169.642 262.759 165.07 264.867 162.791C264.867 162.791 269.79 154.352 268.56 144.858C268.56 144.858 268.034 140.639 272.78 138.353C277.525 136.068 287.197 124.992 287.197 124.992L273.82 121.102Z" fill="#FDB797"/>
<path d="M257.294 165.933C257.294 165.933 254.305 169.626 249.559 170.504C244.814 171.382 244.988 173.845 246.396 174.197C247.803 174.549 264.855 173.845 264.855 173.845C264.855 173.845 266.1 171.385 264.68 170.152C263.26 168.919 263.625 166.637 263.625 166.637L257.294 165.933Z" fill="#0D134D"/>
<g opacity="0.1">
<path opacity="0.1" d="M278.216 111.785C278.216 111.785 276.071 118.991 273.353 121.09C273.302 121.127 273.263 121.178 273.239 121.236C273.215 121.294 273.207 121.358 273.217 121.42C273.226 121.482 273.252 121.541 273.292 121.59C273.331 121.638 273.384 121.675 273.443 121.697C275.691 122.516 282.915 125.275 285.425 127.784L285.512 127.872C285.512 127.872 300.543 120.224 292.456 107.214L278.216 111.785Z" fill="black"/>
</g>
<path d="M278.216 111.611C278.216 111.611 276.071 118.816 273.353 120.915C273.302 120.953 273.263 121.004 273.239 121.062C273.215 121.12 273.207 121.184 273.217 121.246C273.226 121.308 273.252 121.367 273.292 121.415C273.331 121.464 273.384 121.501 273.443 121.522C275.691 122.341 282.915 125.1 285.425 127.61L285.512 127.697C285.512 127.697 300.543 120.05 292.456 107.04L278.216 111.611Z" fill="#84329B"/>
<g opacity="0.1">
<path opacity="0.1" d="M265.873 75.8824C264.756 76.6338 263.535 77.2172 262.248 77.6138L263.457 88.366C263.457 88.366 260.632 94.6872 268.71 99.1027C268.71 99.1027 273.614 105.62 273.069 111.773C273.069 111.773 275.7 114.594 277.46 113.894C279.219 113.193 277.634 114.246 277.986 114.071C278.338 113.897 279.039 115.482 284.491 114.087C289.943 112.692 293.833 109.014 293.649 107.781C293.465 106.548 286.465 98.62 284.731 88.9452C282.996 79.2704 272.643 72.3887 272.643 72.3887C272.643 72.3887 272.3 72.5786 271.708 72.8308C269.684 73.6897 267.733 74.7102 265.873 75.8824V75.8824Z" fill="black"/>
</g>
<g opacity="0.1">
<path opacity="0.1" d="M273.216 121.155C273.209 121.231 273.228 121.306 273.269 121.37C273.31 121.433 273.371 121.482 273.443 121.507C275.38 122.214 281.01 124.359 284.136 126.545C281.43 124.359 275.672 122.089 273.216 121.155Z" fill="black"/>
<path opacity="0.1" d="M292.456 107.04L292.145 107.146C299.055 119.224 286.042 126.52 284.905 127.127C285.101 127.289 285.279 127.439 285.441 127.61L285.528 127.697C285.528 127.697 300.543 120.05 292.456 107.04Z" fill="black"/>
</g>
<path d="M284.544 113.719C279.095 115.127 278.391 113.545 278.039 113.719C277.687 113.894 279.285 112.841 277.513 113.545C275.741 114.249 273.119 111.434 273.119 111.434C273.144 111.122 273.156 110.833 273.156 110.531C273.175 104.652 268.71 98.7757 268.71 98.7757C260.614 94.382 263.435 88.0515 263.435 88.0515L263.105 85.168L262.199 77.3023C263.483 76.9034 264.702 76.318 265.817 75.5648C267.674 74.3895 269.622 73.3649 271.643 72.5007C272.238 72.2454 272.577 72.0554 272.577 72.0554C272.577 72.0554 282.95 78.906 284.721 88.5808C286.493 98.2557 293.512 106.162 293.686 107.392C293.861 108.622 289.993 112.312 284.544 113.719Z" fill="#4D8AF0"/>
<g opacity="0.1">
<path opacity="0.1" d="M266.259 66.0767L258.524 71.3516C259.59 71.7215 260.604 72.227 261.542 72.8556C264.176 72.485 265.789 70.598 266.876 68.2751C266.452 67.5962 266.639 66.989 266.259 66.0767Z" fill="black"/>
</g>
<path d="M260.283 72.7591C264.555 72.7591 268.018 69.2961 268.018 65.0242C268.018 60.7523 264.555 57.2893 260.283 57.2893C256.012 57.2893 252.549 60.7523 252.549 65.0242C252.549 69.2961 256.012 72.7591 260.283 72.7591Z" fill="#FDB797"/>
<g opacity="0.1">
<path opacity="0.1" d="M285.774 112.841C280.324 114.248 279.621 112.667 279.269 112.841C278.917 113.015 280.514 111.963 278.743 112.667C276.971 113.37 274.349 110.555 274.349 110.555C274.374 110.244 274.386 109.954 274.386 109.652C274.408 103.783 269.952 97.8974 269.952 97.8974C261.856 93.5037 264.677 87.1732 264.677 87.1732L264.35 84.2866L263.494 76.8413C263.08 77.0278 262.652 77.1808 262.214 77.2991L263.105 85.1678L263.438 88.0513C263.438 88.0513 260.635 94.3818 268.713 98.7755C268.713 98.7755 273.169 104.661 273.147 110.53C273.147 110.842 273.147 111.131 273.11 111.433C273.11 111.433 275.747 114.236 277.503 113.545C279.26 112.853 277.678 113.897 278.03 113.719C278.381 113.542 279.085 115.127 284.534 113.719C287.007 113.079 289.323 111.945 291.345 110.384C289.63 111.495 287.75 112.324 285.774 112.841V112.841Z" fill="black"/>
</g>
<path d="M271.182 82.2501C271.182 82.2501 266.788 83.8319 264.331 86.4694C264.331 86.4694 252.377 91.215 249.036 90.6887C245.695 90.1625 245.52 89.2813 244.817 87.8862L237.256 74.1851C237.256 74.1851 234.092 62.7572 237.256 63.9871C240.42 65.2171 241.304 72.0833 241.304 72.0833C241.304 72.0833 247.283 84.0375 250.973 83.8631L260.987 79.0864C260.987 79.0864 263.273 75.7452 264.328 75.9227C265.384 76.1002 271.182 82.2501 271.182 82.2501Z" fill="#FDB797"/>
<g opacity="0.1">
<path opacity="0.1" d="M265.247 75.8137C265.247 75.8137 261.601 75.4806 260.545 80.0517C259.49 84.6229 268.641 87.4347 268.641 87.4347L273.564 80.5842L265.247 75.8137Z" fill="black"/>
</g>
<path d="M265.425 75.8137C265.425 75.8137 261.778 75.4806 260.723 80.0517C259.667 84.6229 268.819 87.4347 268.819 87.4347L273.742 80.5842L265.425 75.8137Z" fill="#4D8AF0"/>
<g opacity="0.1">
<path opacity="0.1" d="M263.936 76.6267C263.384 76.9048 262.806 77.128 262.211 77.2931L262.242 77.5578C262.823 77.2777 263.388 76.9669 263.936 76.6267V76.6267Z" fill="black"/>
<path opacity="0.1" d="M293.686 107.392C293.512 106.146 286.477 98.2494 284.721 88.5808C282.965 78.9122 272.577 72.0554 272.577 72.0554C272.577 72.0554 272.234 72.2454 271.643 72.5007C270.063 73.1794 268.526 73.9542 267.041 74.8206C268.027 74.3016 269.033 73.822 270.061 73.3819C270.656 73.1266 270.995 72.9366 270.995 72.9366C270.995 72.9366 281.368 79.7872 283.139 89.462C284.911 99.1369 291.93 107.043 292.104 108.273C292.216 109.048 290.719 110.802 288.231 112.346C291.646 110.649 293.82 108.32 293.686 107.392Z" fill="black"/>
</g>
<path opacity="0.1" d="M267.514 75.8855C267.514 75.8855 272.06 78.1368 272.917 82.4651" stroke="black" stroke-miterlimit="10"/>
<g opacity="0.1">
<path opacity="0.1" d="M256.397 64.5883C257.123 64.7502 257.933 64.9775 258.291 65.6283C258.549 66.1016 258.502 66.6964 258.755 67.1852C259.402 68.4059 261.302 67.9855 262.491 68.7017C264.671 70.0158 263.248 74.1136 265.418 75.4339C265.826 75.683 266.309 75.7827 266.729 76.01C268.563 77.0127 268.305 79.6657 267.975 81.7302C267.645 83.7947 268.037 86.619 270.108 86.9117C271.248 87.0705 272.527 86.317 273.486 86.9491C273.988 87.2791 274.215 87.8832 274.635 88.3223C274.924 88.6103 275.291 88.8077 275.69 88.8901C276.09 88.9725 276.504 88.9364 276.884 88.7863C277.587 88.4936 278.095 87.8241 278.827 87.6092C280.004 87.2636 281.318 88.2164 282.451 87.7774C283.585 87.3383 283.843 85.7004 283.55 84.4642C283.258 83.228 282.66 81.9731 282.971 80.7275C283.23 79.7 284.071 78.9153 284.438 77.925C285.515 75.0011 282.174 71.9806 282.791 68.9259C283.058 67.6025 284.055 66.4348 284.036 65.0989C284.005 63.542 282.626 62.3618 281.19 61.7889C279.755 61.2159 278.179 61.054 276.775 60.4157C273.695 59.0144 272.01 55.6265 269.195 53.7457C267.935 52.9229 266.514 52.3773 265.026 52.1452C263.106 51.8362 261.143 51.9402 259.267 52.4503C257.391 52.9604 255.645 53.8649 254.146 55.1034C253.869 55.3276 253.586 55.5393 253.299 55.7448C252.097 56.6136 250.808 57.4699 250.076 58.7591C247.405 63.4112 253.542 63.9437 256.397 64.5883Z" fill="black"/>
</g>
<path d="M256.615 64.1492C257.341 64.3111 258.151 64.5384 258.509 65.1892C258.767 65.6625 258.72 66.2573 258.973 66.7462C259.62 67.9668 261.52 67.5464 262.709 68.2626C264.889 69.5767 263.466 73.6746 265.636 74.9948C266.044 75.244 266.527 75.3436 266.947 75.5709C268.781 76.5736 268.523 79.2266 268.193 81.2911C267.863 83.3556 268.255 86.1799 270.326 86.4726C271.466 86.6314 272.745 85.8779 273.705 86.51C274.206 86.8401 274.433 87.4442 274.854 87.8832C275.142 88.1712 275.509 88.3686 275.908 88.451C276.308 88.5334 276.723 88.4974 277.102 88.3472C277.806 88.0545 278.313 87.385 279.045 87.1701C280.222 86.8245 281.536 87.7773 282.669 87.3383C283.803 86.8992 284.061 85.2613 283.769 84.0251C283.476 82.7889 282.878 81.534 283.189 80.2885C283.448 79.2609 284.289 78.4762 284.656 77.486C285.733 74.562 282.392 71.5415 283.009 68.4868C283.277 67.1634 284.273 65.9957 284.254 64.6599C284.223 63.1029 282.844 61.9227 281.408 61.3498C279.973 60.7768 278.397 60.6149 276.993 59.9766C273.913 58.5753 272.229 55.1874 269.414 53.3066C268.27 52.5559 266.99 52.0374 265.646 51.7808C263.667 51.4013 261.629 51.4635 259.677 51.963C257.725 52.4626 255.908 53.3871 254.355 54.6705C254.081 54.8916 253.797 55.1033 253.517 55.2933C252.315 56.1621 251.026 57.0184 250.294 58.3075C247.623 62.9721 253.763 63.5077 256.615 64.1492Z" fill="black"/>
<path d="M193.945 112.779H139.764V102.568C153.001 96.381 173.369 92.9059 193.945 112.779Z" fill="#F9E01A"/>
<g opacity="0.1">
<path opacity="0.1" d="M235.983 111.318V112.779H168.411V112.467C168.411 112.467 201.661 80.0921 235.983 111.318Z" fill="black"/>
</g>
<path d="M236.606 111.318V112.779H169.034V112.467C169.034 112.467 202.284 80.0921 236.606 111.318Z" fill="#F9E01A"/>
<path d="M150.974 71.9869C153.725 71.9869 155.956 69.7563 155.956 67.0047C155.956 64.2531 153.725 62.0225 150.974 62.0225C148.222 62.0225 145.991 64.2531 145.991 67.0047C145.991 69.7563 148.222 71.9869 150.974 71.9869Z" fill="#F9E01A"/>
<path d="M193.391 63.2368C192.821 63.2368 192.186 63.2368 191.753 63.271C191.56 63.2817 191.369 63.3205 191.186 63.3863L188.256 64.4387C190.623 64.4979 193.092 64.4792 195.518 64.4605L209.119 64.3547C210.508 64.3547 211.965 64.3298 213.121 64.2488C213.896 64.1928 214.466 64.1118 215.182 64.0495C217.757 63.8191 221.509 63.8627 224.863 63.8751C228.217 63.8876 232.265 63.8004 233.445 63.4641H226.246C225.47 63.4641 224.654 63.4641 223.969 63.4267C223.169 63.38 222.68 63.2929 221.976 63.2306C220.812 63.1309 219.205 63.1185 217.71 63.1122C209.505 63.078 201.403 63.2711 193.391 63.2368Z" fill="#F4F4F4"/>
<path d="M201.45 69.2714C201.325 69.2714 201.188 69.2714 201.095 69.2714C201.052 69.2735 201.01 69.2819 200.97 69.2963L200.347 69.5236C200.861 69.5236 201.394 69.5236 201.92 69.5236L204.866 69.5018C205.177 69.5018 205.488 69.5018 205.731 69.48C205.899 69.48 206.024 69.4489 206.177 69.4364C206.734 69.3866 207.547 69.3959 208.275 69.399C208.9 69.42 209.524 69.3898 210.144 69.3087H208.587C208.419 69.3087 208.241 69.3087 208.095 69.3087C207.948 69.3087 207.815 69.2807 207.662 69.2651C207.41 69.2433 207.061 69.2402 206.728 69.2402C204.953 69.2402 203.197 69.2807 201.45 69.2714Z" fill="#F4F4F4"/>
<path d="M180.587 77.9904C180.462 77.9904 180.325 77.9904 180.232 77.9904C180.189 77.9925 180.147 78.0009 180.107 78.0153L179.484 78.2426C179.998 78.2426 180.531 78.2426 181.057 78.2426L184.003 78.2208C184.314 78.2208 184.625 78.2208 184.868 78.199C185.036 78.199 185.161 78.1679 185.314 78.1554C185.871 78.1056 186.684 78.1149 187.412 78.118C188.037 78.139 188.661 78.1088 189.281 78.0277H187.724C187.556 78.0277 187.378 78.0277 187.232 78.0277C187.085 78.0277 186.951 77.9997 186.799 77.9841C186.547 77.9623 186.198 77.9592 185.865 77.9592C184.09 77.9592 182.334 77.9997 180.587 77.9904Z" fill="#F4F4F4"/>
<path d="M168.882 110.017H166.54C166.54 110.017 165.808 84.4082 168.882 76.5051H169.467C169.467 76.5051 167.418 105.48 168.882 110.017Z" fill="#F9E01A"/>
<path d="M167.272 75.1881C167.272 75.1881 165.369 80.4568 166.247 82.7984C166.247 82.7984 167.564 77.9688 169.1 77.237C170.635 76.5052 172.245 82.7984 172.245 82.7984C172.245 82.7984 173.123 78.8469 171.513 75.6365C171.513 75.6365 174.733 77.3927 176.343 80.7588C176.343 80.7588 176.635 78.5791 172.83 74.0266C172.83 74.0266 176.196 74.9047 178.391 76.9536C178.391 76.9536 179.123 75.3438 174.586 72.7094C174.586 72.7094 175.172 70.8068 178.684 71.6849C178.684 71.6849 178.684 69.1938 173.123 69.636C173.123 69.636 173.123 68.0261 176.782 68.3188C176.782 68.3188 176.782 66.2699 172.537 67.0016C172.537 67.0016 173.415 65.6845 174.001 65.3918C173.269 65.3241 172.538 65.5329 171.952 65.9772C171.952 65.9772 172.098 63.3428 169.903 62.3184L169.61 65.9772C169.61 65.9772 167.15 63.0782 167.708 63.6355C167.854 63.7819 168.293 65.5381 168.147 66.4162C168.147 66.4162 165.656 64.3673 162.585 66.5626C162.585 66.5626 166.391 66.8553 166.976 68.1725C166.976 68.1725 163.756 67.5871 163.024 68.0261C163.024 68.0261 165.516 68.9042 165.366 69.4896C165.366 69.4896 160.975 69.4896 160.384 71.0995C160.384 71.0995 164.921 71.6849 165.213 72.124C165.213 72.124 159.945 75.9292 159.652 76.9536C159.652 76.9536 165.067 73.7339 165.945 73.7339C166.823 73.7339 161.994 78.4047 162.286 79.588C162.299 79.5786 166.263 74.8954 167.272 75.1881Z" fill="#F9E01A"/>
<path d="M197.763 109.058H199.55C199.55 109.058 200.111 89.4931 197.763 83.4553H197.315C197.315 83.4553 198.884 105.586 197.763 109.058Z" fill="#F9E01A"/>
<path d="M198.993 82.4496C198.993 82.4496 200.447 86.4759 199.774 88.2632C199.774 88.2632 198.769 84.5733 197.595 84.0159C196.421 83.4585 195.191 88.2632 195.191 88.2632C195.191 88.2632 194.521 85.2459 195.751 82.7859C194.178 83.7175 192.899 85.0742 192.061 86.7001C192.061 86.7001 191.837 85.0217 194.746 81.5559C194.746 81.5559 192.173 82.2254 190.498 83.7917C190.498 83.7917 189.938 82.5617 193.407 80.5502C193.407 80.5502 192.958 79.096 190.277 79.7686C190.277 79.7686 190.277 77.8691 194.524 78.2116C194.524 78.2116 194.524 76.9816 191.722 77.2058C191.722 77.2058 191.722 75.6489 194.963 76.2001C194.963 76.2001 194.294 75.1943 193.846 74.9701C194.402 74.9208 194.957 75.0807 195.403 75.4185C195.403 75.4185 195.29 73.4069 196.96 72.616L197.184 75.4185C197.184 75.4185 199.052 73.2045 198.638 73.6311C198.37 74.3054 198.255 75.0307 198.302 75.7548C198.302 75.7548 200.201 74.1978 202.549 75.8669C202.549 75.8669 199.641 76.0911 199.195 77.0969C199.195 77.0969 201.655 76.6484 202.213 76.9847C202.213 76.9847 200.313 77.6542 200.425 78.1026C200.425 78.1026 203.779 78.1026 204.227 79.3326C204.227 79.3326 200.762 79.781 200.537 80.1142C200.537 80.1142 204.564 83.0226 204.785 83.8042C204.785 83.8042 200.649 81.3442 199.977 81.3442C199.304 81.3442 202.994 84.922 202.779 85.8157C202.795 85.8033 199.778 82.2317 198.993 82.4496Z" fill="#F9E01A"/>
<path d="M219.165 105.234H220.273C220.273 105.234 220.619 93.1177 219.165 89.3779H218.888C218.888 89.3779 219.856 103.095 219.165 105.234Z" fill="#F9E01A"/>
<path d="M219.928 88.7552C219.928 88.7552 220.828 91.2463 220.413 92.3549C220.413 92.3549 219.791 90.0693 219.062 89.7236C218.333 89.378 217.574 92.3549 217.574 92.3549C217.574 92.3549 217.159 90.4865 217.919 88.9607C216.945 89.5372 216.152 90.3769 215.634 91.3833C215.634 91.3833 215.497 90.3433 217.296 88.1978C216.33 88.4666 215.433 88.9391 214.665 89.5835C214.665 89.5835 214.32 88.8206 216.465 87.575C216.465 87.575 216.188 86.6751 214.525 87.0893C214.525 87.0893 214.525 85.9122 217.156 86.1208C217.156 86.1208 217.156 85.3579 215.425 85.4981C215.425 85.4981 215.425 84.5296 217.433 84.8753C217.248 84.5836 217.014 84.3256 216.742 84.1124C217.088 84.0806 217.434 84.1795 217.711 84.3895C217.711 84.3895 217.642 83.144 218.679 82.6582L218.816 84.3895C218.816 84.3895 219.981 83.0194 219.716 83.281C219.55 83.6982 219.479 84.147 219.507 84.595C219.892 84.3146 220.359 84.1693 220.835 84.1817C221.31 84.1941 221.769 84.3635 222.138 84.6635C222.138 84.6635 220.339 84.8006 220.062 85.4265C220.062 85.4265 221.584 85.1493 221.93 85.3579C221.93 85.3579 220.753 85.7721 220.821 86.0492C220.821 86.0492 222.898 86.0492 223.175 86.8121C223.175 86.8121 221.03 87.0893 220.89 87.2979C220.89 87.2979 223.381 89.0977 223.521 89.5835C223.521 89.5835 220.958 88.0608 220.544 88.0608C220.13 88.0608 222.412 90.2779 222.275 90.829C222.282 90.8322 220.41 88.6151 219.928 88.7552Z" fill="#F9E01A"/>
<path d="M178.684 91.5328L178.451 90.2872C178.45 90.1956 178.431 90.1051 178.395 90.021C178.359 89.937 178.305 89.8612 178.239 89.7983L177.158 89.269C177.079 89.1755 177.014 89.0705 176.965 88.9576L176.984 88.9296C177.043 88.8556 177.086 88.7695 177.109 88.6773C177.111 88.6535 177.111 88.6295 177.109 88.6057H177.124C177.224 88.619 177.325 88.5944 177.407 88.5367C177.49 88.4791 177.548 88.3926 177.569 88.2943V88.2663C177.55 88.3505 177.504 88.4262 177.439 88.4823C177.373 88.5384 177.291 88.5718 177.205 88.5777C177.355 88.477 177.479 88.3407 177.564 88.1811C177.649 88.0214 177.694 87.8432 177.694 87.6622C177.694 87.6622 177.694 87.6311 177.694 87.6155C177.742 87.5863 177.783 87.5473 177.814 87.5012C177.846 87.455 177.868 87.4027 177.878 87.3477V87.3197C177.864 87.3719 177.841 87.4209 177.808 87.4637C177.776 87.5065 177.735 87.5423 177.688 87.5688C177.68 87.4622 177.657 87.3573 177.619 87.2574H177.647C177.754 87.2574 177.856 87.2151 177.931 87.1398C178.007 87.0644 178.049 86.9622 178.049 86.8557C178.049 86.8557 178.049 86.837 178.049 86.8277C178.042 86.9288 177.997 87.0234 177.923 87.0927C177.849 87.162 177.752 87.2008 177.65 87.2013H177.601V87.1827C177.72 87.1468 177.827 87.0777 177.908 86.9834C177.99 86.8891 178.043 86.7735 178.061 86.6502C178.061 86.6502 178.061 86.6315 178.061 86.6222C178.056 86.7002 178.028 86.7749 177.98 86.837C177.986 86.7373 177.954 86.6391 177.89 86.5617C177.827 86.4843 177.738 86.4332 177.639 86.4184C177.54 86.4037 177.439 86.4262 177.356 86.4817C177.273 86.5373 177.214 86.6217 177.189 86.7187L177.118 86.6782C177.14 86.598 177.187 86.5267 177.252 86.4743C177.317 86.4219 177.396 86.3908 177.479 86.3855H177.451C177.367 86.3848 177.285 86.4106 177.216 86.4592C177.147 86.5079 177.095 86.5768 177.068 86.6564C176.827 86.5445 176.554 86.5232 176.299 86.5964C176.044 86.6697 175.824 86.8325 175.679 87.055C175.595 87.1173 175.486 87.2076 175.489 87.2854C175.453 87.3215 175.421 87.3612 175.393 87.4037C175.274 87.6638 175.231 87.9518 175.268 88.2352C175.285 88.376 175.268 88.5189 175.218 88.6517C175.169 88.7845 175.087 88.9034 174.982 88.9981C175.028 89.0174 175.078 89.0274 175.128 89.0274C175.178 89.0274 175.228 89.0174 175.274 88.9981C175.367 88.959 175.454 88.9076 175.533 88.8455C175.607 88.8007 175.669 88.7401 175.717 88.668V88.6524C175.768 88.6871 175.824 88.7163 175.882 88.7396C175.903 88.9264 175.91 89.1413 175.826 89.2129L175.841 89.1787C175.64 89.3298 175.391 89.4008 175.141 89.378C174.99 89.3865 174.843 89.434 174.716 89.5158C174.589 89.5977 174.485 89.7111 174.415 89.845L174.076 91.2619V91.2868V91.3117C174.081 91.3308 174.091 91.3481 174.105 91.3618C174.12 91.3756 174.137 91.3851 174.157 91.3895L174.262 91.4176C174.278 91.6596 174.254 91.9027 174.191 92.1369C174.12 92.4856 174.079 92.8398 174.069 93.1956C174.094 93.3731 174.138 94.2979 174.16 94.737C174.122 94.8869 174.092 95.0386 174.069 95.1916L173.568 98.1996C173.568 98.1996 173.194 100.607 173.213 101.335L173.148 101.756C173.148 101.756 172.129 103.032 172.428 103.213C172.727 103.394 173.188 103.471 173.627 102.793C173.687 102.633 173.783 102.489 173.907 102.372C173.957 102.329 173.996 102.275 174.02 102.213C174.045 102.152 174.054 102.086 174.048 102.02L174.016 101.709L174.069 101.728H174.101C174.101 101.728 174.602 100.08 174.546 98.9251C174.546 98.9251 175.48 95.6182 176.181 95.0982V95.0764L176.246 95.0452L176.395 98.2494L176.243 101.781L176.209 101.992C176.209 101.992 175.19 103.269 175.489 103.45C175.788 103.63 176.249 103.708 176.688 103.029C176.748 102.869 176.844 102.725 176.968 102.609C177.018 102.566 177.057 102.511 177.081 102.45C177.106 102.389 177.115 102.323 177.109 102.257L177.062 101.79C177.236 101.195 177.685 99.4825 177.501 98.4892L177.812 96.378C178.124 96.0261 178.083 95.1324 178.083 95.1324C178.329 94.6186 178.395 92.6039 178.395 92.6039L178.457 91.6075C178.503 91.6035 178.55 91.6035 178.597 91.6075H178.628H178.647V91.5888C178.656 91.581 178.663 91.5714 178.669 91.5608H178.687V91.5359L178.684 91.5328ZM177.812 93.5568C177.784 93.4883 177.753 93.4198 177.719 93.3513H177.694V93.3264C177.693 93.3181 177.693 93.3097 177.694 93.3015V93.2765C177.709 93.2431 177.721 93.2088 177.731 93.1738C177.772 93.1095 177.792 93.0348 177.79 92.9589C177.827 93.1561 177.834 93.3575 177.812 93.5568V93.5568ZM177.719 92.7036L177.657 92.0372L177.675 91.9843L177.759 92.8313L177.719 92.7036ZM174.767 92.7939C174.745 92.8184 174.729 92.8472 174.72 92.8783C174.71 92.9094 174.707 92.9422 174.711 92.9745C174.711 92.9745 174.711 92.9745 174.711 92.9963C174.711 93.0637 174.721 93.1307 174.739 93.1956L174.642 93.6128V92.8157C174.706 92.7316 174.763 92.642 174.81 92.5479C174.82 92.6324 174.805 92.7179 174.767 92.7939V92.7939Z" fill="url(#paint3_linear)"/>
<path d="M175.396 87.6496C175.281 87.8997 175.239 88.177 175.274 88.4499C175.291 88.5856 175.274 88.7233 175.226 88.8512C175.178 88.9791 175.099 89.0935 174.997 89.1847C175.042 89.2035 175.09 89.2131 175.139 89.2131C175.188 89.2131 175.236 89.2035 175.281 89.1847C175.37 89.1472 175.454 89.098 175.53 89.0384C175.601 88.9953 175.662 88.9367 175.707 88.8671C175.75 88.7595 175.764 88.6424 175.748 88.5277C175.748 88.3242 175.766 88.121 175.801 87.9205C175.819 87.7959 175.938 87.4565 175.801 87.3911C175.664 87.3258 175.455 87.5562 175.396 87.6496Z" fill="#72351C"/>
<path d="M173.338 100.887L173.241 101.51C173.241 101.51 172.26 102.755 172.55 102.914C172.839 103.073 173.282 103.163 173.705 102.509C173.762 102.355 173.853 102.217 173.973 102.104V102.104C174.021 102.063 174.058 102.01 174.081 101.951C174.105 101.892 174.113 101.828 174.107 101.765L174.01 100.815L173.338 100.887Z" fill="#333333"/>
<path d="M176.29 101.133L176.193 101.755C176.193 101.755 175.212 103.001 175.502 103.16C175.791 103.319 176.233 103.409 176.657 102.755C176.714 102.601 176.805 102.463 176.925 102.35V102.35C176.973 102.309 177.01 102.256 177.033 102.197C177.056 102.138 177.065 102.074 177.059 102.011L176.962 101.061L176.29 101.133Z" fill="#333333"/>
<path d="M174.761 93.6875C174.761 93.6875 174.3 94.0207 174.138 95.179L173.655 98.0781C173.655 98.0781 173.247 100.706 173.322 101.211L174.138 101.491C174.138 101.491 174.621 99.9028 174.568 98.7974C174.568 98.7974 175.549 95.3036 176.237 95.0607L176.383 98.1466L176.227 101.619L176.925 101.759C176.925 101.759 177.632 99.5478 177.408 98.377L177.772 95.8859C177.772 95.8859 178.189 94.5563 177.61 93.3948L174.761 93.6875Z" fill="#4D8AF0"/>
<g opacity="0.1">
<path opacity="0.1" d="M176.165 95.1074V95.0544C175.477 95.3004 174.496 98.7911 174.496 98.7911C174.479 99.6947 174.338 100.592 174.076 101.457L174.163 101.488C174.163 101.488 174.645 99.8997 174.592 98.7942C174.589 98.7973 175.486 95.6212 176.165 95.1074Z" fill="black"/>
<path opacity="0.1" d="M177.638 93.4104H177.544C177.879 94.191 177.934 95.0632 177.7 95.8797L177.336 98.3708C177.551 99.4794 176.925 101.519 176.859 101.734L176.95 101.753C176.95 101.753 177.657 99.5416 177.432 98.3708L177.797 95.8797C177.797 95.8797 178.217 94.5563 177.638 93.4104Z" fill="black"/>
</g>
<path d="M174.135 91.4176C174.134 91.4415 174.142 91.4648 174.157 91.4835C174.172 91.5023 174.192 91.5153 174.216 91.5203C174.444 91.5776 174.656 91.6838 174.839 91.8317C175.181 92.0995 174.474 91.2961 174.474 91.2961L174.238 91.3491L174.141 91.4363L174.135 91.4176Z" fill="#F55F44"/>
<path opacity="0.1" d="M174.135 91.4176C174.134 91.4415 174.142 91.4648 174.157 91.4835C174.172 91.5023 174.192 91.5153 174.216 91.5203C174.444 91.5776 174.656 91.6838 174.839 91.8317C175.181 92.0995 174.474 91.2961 174.474 91.2961L174.238 91.3491L174.141 91.4363L174.135 91.4176Z" fill="black"/>
<path d="M177.504 92.1274C177.792 91.9229 178.125 91.7915 178.475 91.7444C178.499 91.7444 178.522 91.7349 178.539 91.718C178.556 91.701 178.566 91.6781 178.566 91.6541V91.6541C178.566 91.6541 177.75 91.3334 177.504 92.1274Z" fill="#F55F44"/>
<path opacity="0.1" d="M178.566 91.6511C178.566 91.6511 177.75 91.3397 177.504 92.1244C177.504 92.1244 178.105 91.6635 178.522 91.7382" fill="black"/>
<path d="M176.557 88.9606C177.144 88.9606 177.619 88.4852 177.619 87.8988C177.619 87.3123 177.144 86.8369 176.557 86.8369C175.971 86.8369 175.495 87.3123 175.495 87.8988C175.495 88.4852 175.971 88.9606 176.557 88.9606Z" fill="#72351C"/>
<path d="M175.826 88.6428C175.826 88.6428 175.975 89.2656 175.826 89.3933C175.676 89.5209 175.374 89.7576 175.601 89.9413C175.829 90.125 176.641 90.4364 176.912 90.2838C177.183 90.1313 177.492 90.178 177.417 89.8666C177.342 89.5552 176.75 89.6206 176.741 88.073L175.826 88.6428Z" fill="#FDB797"/>
<path opacity="0.1" d="M174.322 91.2307C174.344 91.5684 174.322 91.9076 174.256 92.2396C174.187 92.575 174.148 92.9157 174.138 93.2579C174.169 93.4821 174.234 94.9643 174.234 94.9643C174.234 94.9643 174.116 96.2628 174.748 96.1444C175.38 96.0261 174.652 94.6622 174.652 94.6622L174.683 92.8904C174.854 92.6575 174.962 92.3837 174.994 92.0964C175.041 91.6698 174.322 91.2307 174.322 91.2307Z" fill="black"/>
<path d="M174.312 91.2307C174.334 91.5684 174.313 91.9076 174.247 92.2396C174.178 92.575 174.138 92.9157 174.129 93.2579C174.16 93.4821 174.225 94.9643 174.225 94.9643C174.225 94.9643 174.107 96.2628 174.739 96.1444C175.371 96.0261 174.642 94.6622 174.642 94.6622L174.673 92.8904C174.845 92.6575 174.952 92.3837 174.985 92.0964C175.028 91.6698 174.312 91.2307 174.312 91.2307Z" fill="#FDB797"/>
<path opacity="0.1" d="M178.357 91.3271L178.27 92.7128C178.27 92.7128 178.217 94.6559 177.98 95.1479C177.98 95.1479 178.046 96.5118 177.411 96.4775C176.775 96.4433 177.516 94.986 177.516 94.986C177.516 94.986 177.856 93.4695 177.681 92.99L177.516 91.3271H178.357Z" fill="black"/>
<path d="M178.366 91.3271L178.279 92.7128C178.279 92.7128 178.226 94.6559 177.99 95.1479C177.99 95.1479 178.055 96.5118 177.42 96.4775C176.785 96.4433 177.526 94.986 177.526 94.986C177.526 94.986 177.865 93.4695 177.691 92.99L177.526 91.3271H178.366Z" fill="#FDB797"/>
<path opacity="0.1" d="M176.308 89.9851C176.308 89.9851 176.822 90.2217 177.102 89.518L178.145 90.0287C178.21 90.0897 178.261 90.1631 178.295 90.2445C178.33 90.3258 178.348 90.4135 178.348 90.502L178.572 91.7039C178.572 91.7039 177.809 91.4455 177.573 92.1555L177.638 92.8312C177.687 92.998 177.675 93.1769 177.604 93.3356C177.597 93.3498 177.594 93.3652 177.594 93.3808C177.594 93.3963 177.597 93.4117 177.604 93.4259C177.619 93.4751 177.623 93.5273 177.615 93.5782C177.607 93.6292 177.587 93.6775 177.556 93.7193C177.526 93.761 177.486 93.7952 177.44 93.8188C177.395 93.8425 177.344 93.8551 177.292 93.8556C177.012 93.8589 176.732 93.8807 176.455 93.921C176.23 93.9864 175.552 93.7934 175.327 93.921C175.103 94.0487 174.63 93.8245 174.63 93.8245L174.758 93.2765C174.758 93.2765 174.67 93.0087 174.779 92.9121C174.888 92.8156 174.823 91.978 174.726 91.7413C174.726 91.7413 174.34 91.377 174.104 91.4299L174.415 90.0442C174.482 89.915 174.582 89.8054 174.704 89.7263C174.826 89.6471 174.967 89.6011 175.113 89.5927C175.354 89.6143 175.595 89.5455 175.788 89.3997C175.788 89.3997 175.555 89.9103 176.308 89.9851Z" fill="black"/>
<path opacity="0.1" d="M176.361 89.9602C176.501 89.9975 176.875 90.038 177.099 89.4744L178.142 89.9851C178.207 90.0461 178.258 90.1195 178.292 90.2009C178.327 90.2823 178.345 90.3699 178.345 90.4584L178.569 91.6604C178.569 91.6604 177.806 91.4019 177.569 92.1119L177.635 92.7876L177.678 92.9215C177.697 92.9787 177.702 93.0396 177.693 93.0991C177.684 93.1586 177.661 93.2151 177.625 93.264C177.611 93.2808 177.601 93.3013 177.597 93.3232C177.593 93.3452 177.595 93.3678 177.604 93.3886C177.619 93.4378 177.623 93.4899 177.615 93.5409C177.607 93.5918 177.587 93.6401 177.556 93.6819C177.526 93.7237 177.486 93.7578 177.44 93.7815C177.395 93.8052 177.344 93.8178 177.292 93.8183C177.012 93.8215 176.732 93.8434 176.455 93.8837C176.23 93.9491 175.552 93.756 175.327 93.8837C175.103 94.0114 174.63 93.7871 174.63 93.7871L174.758 93.2391C174.758 93.2391 174.67 92.9713 174.779 92.8748C174.888 92.7782 174.823 91.9406 174.726 91.704C174.726 91.704 174.34 91.3396 174.104 91.3926L174.415 90.0069C174.482 89.8776 174.582 89.7681 174.704 89.6889C174.826 89.6098 174.967 89.5638 175.113 89.5554C175.354 89.577 175.595 89.5082 175.788 89.3623C175.788 89.3623 175.536 89.8232 176.199 89.9228L176.361 89.9602Z" fill="black"/>
<path d="M176.361 89.982C176.501 90.0194 176.875 90.0599 177.099 89.4962L178.142 90.0069C178.206 90.0679 178.257 90.1413 178.292 90.2227C178.327 90.3041 178.345 90.3917 178.345 90.4802L178.569 91.6822C178.569 91.6822 177.806 91.4237 177.569 92.1337L177.635 92.8094C177.684 92.9763 177.672 93.1552 177.6 93.3139C177.594 93.3281 177.591 93.3435 177.591 93.359C177.591 93.3746 177.594 93.3899 177.6 93.4042C177.616 93.4534 177.62 93.5055 177.612 93.5565C177.603 93.6074 177.583 93.6557 177.553 93.6975C177.523 93.7393 177.483 93.7734 177.437 93.7971C177.391 93.8208 177.341 93.8334 177.289 93.8339C177.009 93.8371 176.729 93.8589 176.451 93.8993C176.227 93.9647 175.548 93.7716 175.324 93.8993C175.1 94.0269 174.627 93.8027 174.627 93.8027L174.754 93.2547C174.754 93.2547 174.667 92.9869 174.776 92.8904C174.885 92.7938 174.82 91.9562 174.723 91.7196C174.723 91.7196 174.337 91.3552 174.1 91.4082L174.412 90.0225C174.479 89.8933 174.579 89.7837 174.701 89.7046C174.823 89.6254 174.964 89.5794 175.109 89.571C175.351 89.5926 175.592 89.5238 175.785 89.3779C175.785 89.3779 175.533 89.8388 176.196 89.9384L176.361 89.982Z" fill="#F55F44"/>
<path opacity="0.1" d="M176.757 88.1292L175.844 88.699C175.868 88.8018 175.885 88.9057 175.897 89.0104C176.001 89.0518 176.112 89.0729 176.224 89.0727C176.447 89.057 176.657 88.962 176.816 88.8049C176.775 88.582 176.755 88.3558 176.757 88.1292V88.1292Z" fill="black"/>
<path d="M176.205 89.0042C176.692 89.0042 177.087 88.6096 177.087 88.1229C177.087 87.6362 176.692 87.2417 176.205 87.2417C175.719 87.2417 175.324 87.6362 175.324 88.1229C175.324 88.6096 175.719 89.0042 176.205 89.0042Z" fill="#FDB797"/>
<path d="M177.504 87.4473C177.717 87.4473 177.89 87.2744 177.89 87.0612C177.89 86.8479 177.717 86.675 177.504 86.675C177.291 86.675 177.118 86.8479 177.118 87.0612C177.118 87.2744 177.291 87.4473 177.504 87.4473Z" fill="#72351C"/>
<path d="M177.579 87.4692C177.481 87.4694 177.387 87.4326 177.315 87.3662C177.243 87.2997 177.2 87.2086 177.193 87.1111C177.193 87.1111 177.193 87.1298 177.193 87.1391C177.193 87.2415 177.233 87.3397 177.306 87.4121C177.378 87.4845 177.476 87.5252 177.579 87.5252C177.681 87.5252 177.779 87.4845 177.852 87.4121C177.924 87.3397 177.965 87.2415 177.965 87.1391C177.965 87.1391 177.965 87.1204 177.965 87.1111C177.958 87.2086 177.914 87.2997 177.842 87.3662C177.771 87.4326 177.676 87.4694 177.579 87.4692V87.4692Z" fill="#72351C"/>
<path d="M177.358 87.8366C177.262 87.8183 177.176 87.7645 177.119 87.686C177.061 87.6074 177.035 87.5099 177.046 87.4131V87.438C177.028 87.5387 177.05 87.6428 177.108 87.7271C177.166 87.8115 177.255 87.8694 177.356 87.888C177.457 87.9065 177.561 87.8843 177.645 87.8262C177.73 87.7681 177.787 87.6789 177.806 87.5781V87.5501C177.782 87.6462 177.722 87.7296 177.639 87.7829C177.556 87.8362 177.455 87.8554 177.358 87.8366Z" fill="#72351C"/>
<path d="M177.059 88.7707C176.963 88.7524 176.878 88.6986 176.82 88.6201C176.762 88.5415 176.736 88.444 176.747 88.3472V88.3721C176.729 88.4728 176.751 88.5768 176.809 88.6612C176.867 88.7456 176.956 88.8035 177.057 88.822C177.158 88.8406 177.262 88.8184 177.346 88.7603C177.431 88.7022 177.489 88.613 177.507 88.5122V88.4842C177.483 88.5803 177.424 88.6637 177.34 88.717C177.257 88.7703 177.156 88.7895 177.059 88.7707V88.7707Z" fill="#72351C"/>
<path d="M177.579 87.2636C177.48 87.2638 177.386 87.2265 177.314 87.1594C177.242 87.0923 177.199 87.0004 177.193 86.9023C177.193 86.9023 177.193 86.921 177.193 86.9304C177.193 87.0328 177.233 87.131 177.306 87.2034C177.378 87.2758 177.476 87.3165 177.579 87.3165C177.681 87.3165 177.779 87.2758 177.852 87.2034C177.924 87.131 177.965 87.0328 177.965 86.9304C177.965 86.9304 177.965 86.9117 177.965 86.9023C177.958 87.0004 177.915 87.0923 177.843 87.1594C177.771 87.2265 177.677 87.2638 177.579 87.2636V87.2636Z" fill="#72351C"/>
<path d="M177.04 87.0549C177.041 86.9567 177.079 86.8624 177.146 86.7913C177.214 86.7201 177.306 86.6774 177.404 86.6719H177.376C177.274 86.6719 177.176 86.7126 177.103 86.785C177.031 86.8574 176.99 86.9556 176.99 87.058C176.99 87.1604 177.031 87.2586 177.103 87.331C177.176 87.4034 177.274 87.4441 177.376 87.4441H177.404C177.305 87.4385 177.212 87.395 177.144 87.3225C177.076 87.25 177.039 87.1542 177.04 87.0549V87.0549Z" fill="#72351C"/>
<path opacity="0.1" d="M177.429 90.6982C177.47 90.8892 177.47 91.0865 177.429 91.2774C177.429 91.2774 177.376 91.7819 177.46 91.8691" fill="black"/>
<path opacity="0.1" d="M174.82 90.8167C174.86 91.0076 174.86 91.2049 174.82 91.3958C174.82 91.3958 174.767 91.9003 174.851 91.9875" fill="black"/>
<path opacity="0.1" d="M174.798 92.8874C174.882 92.9173 174.973 92.9173 175.056 92.8874C175.158 92.8565 175.266 92.8565 175.368 92.8874" fill="black"/>
<path opacity="0.1" d="M174.929 92.1274C175.232 92.142 175.535 92.0943 175.819 91.9873C175.819 91.9873 176.915 92.2551 177.227 92.062" fill="black"/>
<path d="M174.599 96.7546H174.34C174.225 96.7546 174.132 96.848 174.132 96.9633C174.132 97.0785 174.225 97.1719 174.34 97.1719H174.599C174.714 97.1719 174.807 97.0785 174.807 96.9633C174.807 96.848 174.714 96.7546 174.599 96.7546Z" fill="#FDB797"/>
<path d="M174.135 96.8666L174.496 96.8511L174.807 96.9009H174.698L174.135 96.8666Z" fill="#F0E4E4"/>
<path d="M176.57 95.1199H176.931L177.242 95.151H177.133L176.57 95.1199Z" fill="#F0E4E4"/>
<path d="M176.57 95.1946H176.931L177.242 95.2257H177.133L176.57 95.1946Z" fill="#F0E4E4"/>
<path d="M176.57 95.2725H176.931L177.242 95.3036H177.133L176.57 95.2725Z" fill="#F0E4E4"/>
<path d="M176.57 95.3472H176.931L177.242 95.3783H177.133L176.57 95.3472Z" fill="#F0E4E4"/>
<path d="M174.135 97.1562H174.496L174.807 97.1936H174.698L174.135 97.1562Z" fill="#F0E4E4"/>
<path d="M174.135 97.1191H174.496L174.807 97.1565H174.698L174.135 97.1191Z" fill="#F0E4E4"/>
<path d="M174.135 97.0815H174.496L174.807 97.1189H174.698L174.135 97.0815Z" fill="#F0E4E4"/>
<path d="M174.135 97.0444H174.496L174.807 97.0818H174.698L174.135 97.0444Z" fill="#F0E4E4"/>
<path d="M174.135 96.8107L174.496 96.7952L174.807 96.845H174.698L174.135 96.8107Z" fill="#F0E4E4"/>
<path d="M174.135 96.7453L174.496 96.7297L174.807 96.7796H174.698L174.135 96.7453Z" fill="#F0E4E4"/>
<path opacity="0.1" d="M176.355 87.5594C176.32 87.8885 176.363 88.2212 176.479 88.5309C176.537 88.6813 176.563 88.8421 176.555 89.003C176.547 89.1638 176.505 89.3213 176.433 89.4651C176.481 89.4761 176.53 89.4756 176.578 89.4637C176.626 89.4518 176.67 89.4288 176.707 89.3966C176.784 89.3288 176.851 89.2502 176.906 89.1631C176.964 89.092 177.005 89.0091 177.028 88.9202C177.037 88.7803 177.016 88.64 176.965 88.5091C176.905 88.2706 176.861 88.0282 176.834 87.7836C176.816 87.6341 176.834 87.2044 176.666 87.1608C176.498 87.1172 176.386 87.4348 176.355 87.5594Z" fill="black"/>
<path d="M176.377 87.5502C176.342 87.8793 176.385 88.2119 176.501 88.5217C176.559 88.6721 176.585 88.8328 176.577 88.9937C176.569 89.1546 176.527 89.312 176.455 89.4559C176.502 89.4669 176.552 89.4664 176.6 89.4545C176.647 89.4426 176.692 89.4196 176.729 89.3874C176.806 89.3196 176.873 89.2409 176.928 89.1538C176.986 89.0828 177.027 88.9998 177.049 88.9109C177.059 88.771 177.038 88.6307 176.987 88.4999C176.927 88.2614 176.883 88.0189 176.856 87.7744C176.838 87.6249 176.856 87.1952 176.688 87.1516C176.52 87.108 176.408 87.4225 176.377 87.5502Z" fill="#72351C"/>
<path opacity="0.1" d="M175.997 87.7804C176.072 87.8582 176.087 87.9735 176.149 88.0606C176.205 88.12 176.273 88.1664 176.348 88.1966C176.423 88.2267 176.504 88.2399 176.585 88.235C176.63 88.2327 176.674 88.2424 176.713 88.2631C176.782 88.3066 176.785 88.4063 176.828 88.4748C176.852 88.4998 176.88 88.5197 176.911 88.5333C176.942 88.547 176.976 88.554 177.01 88.554C177.045 88.554 177.078 88.547 177.11 88.5333C177.141 88.5197 177.169 88.4998 177.193 88.4748C177.283 88.3674 177.332 88.2319 177.333 88.0918C177.348 87.9375 177.348 87.7821 177.333 87.6278C177.329 87.4511 177.259 87.2823 177.137 87.1545C177.034 87.0788 176.916 87.0276 176.791 87.005C176.62 86.9447 176.436 86.9307 176.258 86.9645C176.172 86.9933 176.09 87.0342 176.016 87.086C175.91 87.1545 175.806 87.224 175.704 87.2946C175.589 87.3756 175.371 87.5375 175.583 87.6247C175.717 87.687 175.885 87.659 175.997 87.7804Z" fill="black"/>
<path d="M176.019 87.7679C176.093 87.8458 176.109 87.961 176.171 88.0482C176.227 88.1076 176.294 88.154 176.37 88.1841C176.445 88.2143 176.526 88.2274 176.607 88.2226C176.652 88.2202 176.696 88.2299 176.735 88.2506C176.803 88.2942 176.807 88.3938 176.85 88.4623C176.873 88.4873 176.902 88.5073 176.933 88.5209C176.964 88.5345 176.998 88.5415 177.032 88.5415C177.066 88.5415 177.1 88.5345 177.132 88.5209C177.163 88.5073 177.191 88.4873 177.214 88.4623C177.304 88.3549 177.354 88.2194 177.355 88.0793C177.37 87.925 177.37 87.7697 177.355 87.6154C177.35 87.4387 177.28 87.2699 177.158 87.142C177.056 87.0663 176.938 87.0152 176.813 86.9926C176.642 86.9322 176.458 86.9183 176.28 86.9521C176.194 86.9809 176.112 87.0217 176.037 87.0735C175.932 87.142 175.828 87.2116 175.726 87.2822C175.611 87.3631 175.393 87.5251 175.605 87.6122C175.738 87.6745 175.916 87.6496 176.019 87.7679Z" fill="#72351C"/>
<path d="M176.592 95.1199H176.953L177.264 95.151H177.161L176.592 95.1199Z" fill="#F0E4E4"/>
<path d="M176.592 95.1946H176.953L177.264 95.2257H177.161L176.592 95.1946Z" fill="#F0E4E4"/>
<path d="M176.592 95.2725H176.953L177.264 95.3036H177.161L176.592 95.2725Z" fill="#F0E4E4"/>
<path d="M176.592 95.3472H176.953L177.264 95.3783H177.161L176.592 95.3472Z" fill="#F0E4E4"/>
<path d="M176.436 99.4792H176.797L177.109 99.5104H177L176.436 99.4792Z" fill="#F0E4E4"/>
<path d="M176.436 99.5571H176.797L177.109 99.5883H177L176.436 99.5571Z" fill="#F0E4E4"/>
<path d="M176.436 99.6318H176.797L177.109 99.663H177L176.436 99.6318Z" fill="#F0E4E4"/>
<path d="M176.436 99.7068H176.797L177.109 99.7379H177L176.436 99.7068Z" fill="#F0E4E4"/>
</g>
<defs>
<linearGradient id="paint0_linear" x1="139.764" y1="189.997" x2="139.764" y2="118.459" gradientUnits="userSpaceOnUse">
<stop stop-color="#808080" stop-opacity="0.25"/>
<stop offset="0.54" stop-color="#808080" stop-opacity="0.12"/>
<stop offset="1" stop-color="#808080" stop-opacity="0.1"/>
</linearGradient>
<linearGradient id="paint1_linear" x1="99251.8" y1="76359.7" x2="99251.8" y2="0" gradientUnits="userSpaceOnUse">
<stop stop-color="#808080" stop-opacity="0.25"/>
<stop offset="0.54" stop-color="#808080" stop-opacity="0.12"/>
<stop offset="1" stop-color="#808080" stop-opacity="0.1"/>
</linearGradient>
<linearGradient id="paint2_linear" x1="60849.6" y1="89222.9" x2="60849.6" y2="38429.2" gradientUnits="userSpaceOnUse">
<stop stop-color="#808080" stop-opacity="0.25"/>
<stop offset="0.54" stop-color="#808080" stop-opacity="0.12"/>
<stop offset="1" stop-color="#808080" stop-opacity="0.1"/>
</linearGradient>
<linearGradient id="paint3_linear" x1="4514.86" y1="8296.05" x2="4514.86" y2="7344.76" gradientUnits="userSpaceOnUse">
<stop stop-color="#808080" stop-opacity="0.25"/>
<stop offset="0.54" stop-color="#808080" stop-opacity="0.12"/>
<stop offset="1" stop-color="#808080" stop-opacity="0.1"/>
</linearGradient>
<clipPath id="clip0">
<rect width="296.392" height="190" fill="white"/>
</clipPath>
</defs>
</svg>
