<svg width="288" height="190" viewBox="0 0 288 190" fill="none" xmlns="http://www.w3.org/2000/svg">
<g clip-path="url(#clip0)">
<path d="M210.959 181.019H204.788V120.999L218.812 120.719L210.959 181.019Z" fill="#FFB8B8"/>
<path d="M240.688 181.019H246.858V120.999L232.835 120.719L240.688 181.019Z" fill="#FFB8B8"/>
<path d="M208.063 189.367L194.935 189.246C194.306 189.402 193.65 189.412 193.017 189.276C192.384 189.141 191.79 188.863 191.28 188.464C190.77 188.065 190.358 187.555 190.074 186.972C189.791 186.39 189.643 185.751 189.643 185.104V185.104C189.643 184.3 189.87 183.513 190.298 182.832C190.726 182.152 191.337 181.606 192.061 181.258L195.056 179.817L204.788 173.166L211.8 175.129L213.143 181.172C213.534 182.931 213.221 184.772 212.272 186.304C211.323 187.835 209.812 188.934 208.063 189.367Z" fill="#84329B"/>
<path d="M243.402 189.292L230.273 189.172C229.644 189.327 228.989 189.338 228.356 189.202C227.722 189.067 227.128 188.789 226.618 188.39C226.109 187.99 225.696 187.48 225.413 186.898C225.129 186.316 224.982 185.677 224.982 185.029V185.029C224.982 184.226 225.209 183.438 225.636 182.758C226.064 182.078 226.675 181.532 227.399 181.184L230.394 179.743L240.127 173.091L247.138 175.055L248.481 181.098C248.872 182.856 248.56 184.698 247.61 186.23C246.661 187.761 245.151 188.86 243.402 189.292Z" fill="#84329B"/>
<path d="M248.534 130.837L229.203 129.111L226.658 106.436L220.958 128.374L201.416 126.63C202.137 113.196 203.687 101.99 207.306 96.3394L248.254 89.0474L248.534 130.837Z" fill="#84329B"/>
<path d="M228.998 25.8285C234.766 25.8285 239.443 21.1521 239.443 15.3835C239.443 9.61486 234.766 4.93848 228.998 4.93848C223.229 4.93848 218.553 9.61486 218.553 15.3835C218.553 21.1521 223.229 25.8285 228.998 25.8285Z" fill="#FFB8B8"/>
<path d="M237.316 37.1616L219.085 34.9178C221.405 29.9789 222.45 25.3671 220.768 21.4556H234.791C232.623 25.3243 234.562 31.058 237.316 37.1616Z" fill="#FFB8B8"/>
<path d="M248.254 89.6083C235.426 99.0141 221.427 102.223 206.184 98.8636C215.433 77.7497 214.112 56.9399 206.184 36.3201L220.768 30.1499C224.858 34.1389 229.548 34.2256 234.792 30.7108L249.095 33.7959C246.479 54.3663 245.602 73.4727 248.254 89.6083Z" fill="#E6E6E6"/>
<path d="M221.292 6.26599L219.528 5.55988C219.528 5.55988 223.216 1.49978 228.347 1.85284L226.904 0.264076C226.904 0.264076 230.431 -1.14812 233.638 2.55892C235.324 4.50763 237.275 6.79824 238.49 9.37858H240.379L239.591 11.1144L242.35 12.8503L239.518 12.5385C239.786 14.0371 239.695 15.5779 239.25 17.0341L239.326 18.4061C239.326 18.4061 236.043 13.327 236.043 12.6209V14.3862C236.043 14.3862 234.28 12.7975 234.28 11.7383L233.318 12.974L232.837 11.0322L226.904 12.974L227.866 11.3852L224.178 11.9148L225.621 9.97303C225.621 9.97303 221.452 12.2679 221.292 14.2097C221.132 16.1515 219.047 18.6228 219.047 18.6228L218.085 16.8576C218.085 16.8576 216.642 8.91387 221.292 6.26599Z" fill="#FBE122"/>
<path d="M250.812 111.815H187.461C186.819 111.814 186.203 111.558 185.749 111.104C185.294 110.65 185.039 110.034 185.038 109.392V99.6986C185.039 99.0562 185.294 98.4402 185.749 97.986C186.203 97.5317 186.819 97.2761 187.461 97.2754H250.812C251.454 97.2762 252.07 97.5317 252.524 97.986C252.978 98.4403 253.234 99.0562 253.235 99.6986V109.392C253.234 110.034 252.978 110.65 252.524 111.104C252.07 111.558 251.454 111.814 250.812 111.815V111.815Z" fill="#FBE122"/>
<path d="M196.933 102.487C196.393 102.496 195.878 102.716 195.499 103.102C195.121 103.487 194.908 104.005 194.908 104.545C194.908 105.085 195.121 105.603 195.499 105.988C195.878 106.373 196.393 106.594 196.933 106.603H241.273C241.818 106.611 242.343 106.402 242.734 106.022C243.125 105.643 243.35 105.123 243.359 104.579C243.368 104.034 243.16 103.508 242.782 103.116C242.404 102.723 241.885 102.497 241.34 102.487C241.318 102.486 241.295 102.486 241.273 102.487H196.933Z" fill="white"/>
<path d="M212.635 94.9372L215.855 100.677C216.236 101.357 216.457 102.115 216.499 102.893C216.542 103.671 216.405 104.449 216.1 105.166C215.795 105.883 215.33 106.521 214.739 107.03C214.149 107.539 213.45 107.906 212.696 108.103V108.103C211.935 108.302 211.137 108.321 210.367 108.16C209.596 107.999 208.873 107.662 208.255 107.174C207.637 106.687 207.14 106.063 206.803 105.352C206.466 104.64 206.299 103.86 206.314 103.073L206.465 95.2176C204.045 81.2542 202.082 68.0334 202.538 58.7573H213.757L211.513 69.415L212.635 94.9372Z" fill="#FFB8B8"/>
<path d="M249.656 96.3393L247.298 100.27C246.912 100.914 246.372 101.452 245.728 101.836C245.083 102.22 244.353 102.438 243.604 102.471C242.854 102.504 242.108 102.351 241.432 102.025C240.756 101.7 240.171 101.212 239.73 100.605V100.605C239.377 100.12 239.124 99.5699 238.985 98.9865C238.846 98.4031 238.824 97.798 238.92 97.206C239.016 96.614 239.228 96.047 239.545 95.5375C239.861 95.028 240.275 94.5862 240.763 94.2376L244.888 91.291L250.778 66.8906L247.132 56.7939L257.229 55.1111C261.969 66.0675 257.194 80.6736 249.656 96.3393Z" fill="#FFB8B8"/>
<path d="M216.281 61.0009L201.416 60.1595L202.437 44.2321C202.386 41.9775 203.095 39.7712 204.45 37.9686C205.806 36.166 207.728 34.872 209.908 34.2949L211.793 33.7959L216.281 61.0009Z" fill="#E6E6E6"/>
<path d="M258.351 55.9526L244.608 59.3182V32.9546L245.175 32.918C247.434 32.7723 249.67 33.4435 251.475 34.8091C253.28 36.1747 254.534 38.1438 255.009 40.3571L258.351 55.9526Z" fill="#E6E6E6"/>
<path d="M287.205 189.308H77.3895V190H287.205V189.308Z" fill="#E6E6E6"/>
<path d="M9.2212 168.877C9.40902 175.893 10.5843 182.848 12.7123 189.537C12.761 189.692 12.8119 189.845 12.8629 190H25.8915C25.8776 189.861 25.8637 189.706 25.8498 189.537C24.9811 179.55 19.9726 118.767 25.961 108.372C25.4374 109.215 8.21116 137.144 9.2212 168.877Z" fill="#E6E6E6"/>
<path d="M10.1988 189.537C10.3077 189.692 10.4212 189.847 10.5371 190H20.3108C20.2367 189.868 20.151 189.713 20.0514 189.537C18.4367 186.622 13.6575 177.91 9.22125 168.877C4.45367 159.171 0.0799245 149.096 0.44827 145.449C0.334745 146.272 -2.9641 171.342 10.1988 189.537Z" fill="#E6E6E6"/>
<path d="M132.558 191H25.4424C24.7948 190.999 24.1741 190.524 23.7162 189.68C23.2583 188.836 23.0008 187.691 23 186.497V76.5027C23.0008 75.3089 23.2583 74.1645 23.7162 73.3203C24.1741 72.4762 24.7948 72.0014 25.4424 72H132.558C133.205 72.0014 133.826 72.4763 134.284 73.3204C134.742 74.1645 134.999 75.309 135 76.5027V186.497C134.999 187.691 134.742 188.835 134.284 189.68C133.826 190.524 133.205 190.999 132.558 191V191Z" fill="white"/>
<path d="M132.199 77.6539H25.9226C25.2802 77.6531 24.6642 77.3976 24.21 76.9433C23.7557 76.489 23.5001 75.8731 23.4994 75.2307V16.0346C23.5001 15.3921 23.7557 14.7762 24.21 14.3219C24.6642 13.8676 25.2802 13.6121 25.9226 13.6113H132.199C132.841 13.6121 133.457 13.8677 133.911 14.3219C134.366 14.7762 134.621 15.3921 134.622 16.0346V75.2307C134.621 75.8731 134.366 76.489 133.911 76.9433C133.457 77.3976 132.841 77.6531 132.199 77.6539V77.6539Z" fill="#FBE122"/>
<path d="M133.513 190H24.4678C24.0089 190 23.569 189.817 23.2445 189.492C22.92 189.168 22.7375 188.728 22.7369 188.269V15.1896C22.7375 14.7307 22.92 14.2908 23.2445 13.9663C23.569 13.6418 24.0089 13.4593 24.4678 13.4587H133.513C133.972 13.4593 134.412 13.6418 134.737 13.9663C135.061 14.2908 135.244 14.7307 135.244 15.1896V188.269C135.244 188.728 135.061 189.168 134.737 189.492C134.412 189.817 133.972 190 133.513 190V190ZM24.4678 14.1511C24.1925 14.1514 23.9285 14.2609 23.7338 14.4556C23.5391 14.6503 23.4296 14.9143 23.4293 15.1896V188.269C23.4296 188.545 23.5391 188.808 23.7338 189.003C23.9285 189.198 24.1925 189.307 24.4678 189.308H133.513C133.789 189.307 134.053 189.198 134.247 189.003C134.442 188.808 134.552 188.545 134.552 188.269V15.1896C134.552 14.9143 134.442 14.6503 134.247 14.4556C134.053 14.2609 133.789 14.1514 133.513 14.1511H24.4678Z" fill="white"/>
<path d="M37.3464 109.848C39.4495 109.848 41.1543 108.143 41.1543 106.04C41.1543 103.937 39.4495 102.232 37.3464 102.232C35.2433 102.232 33.5385 103.937 33.5385 106.04C33.5385 108.143 35.2433 109.848 37.3464 109.848Z" fill="#E6E6E6"/>
<path d="M117.659 113.31H54.309C53.6665 113.309 53.0506 113.054 52.5963 112.599C52.142 112.145 51.8865 111.529 51.8857 110.887V101.194C51.8865 100.551 52.142 99.9354 52.5963 99.4811C53.0506 99.0268 53.6665 98.7713 54.309 98.7705H117.659C118.302 98.7713 118.918 99.0268 119.372 99.4811C119.826 99.9354 120.082 100.551 120.082 101.194V110.887C120.082 111.529 119.826 112.145 119.372 112.599C118.918 113.054 118.302 113.309 117.659 113.31V113.31Z" fill="#E6E6E6"/>
<path d="M120.082 113.656H51.8857C51.7939 113.656 51.7059 113.62 51.6409 113.555C51.576 113.49 51.5396 113.402 51.5396 113.31C51.5396 113.218 51.576 113.13 51.6409 113.065C51.7059 113 51.7939 112.964 51.8857 112.964H120.082C120.174 112.964 120.262 113 120.327 113.065C120.392 113.13 120.429 113.218 120.429 113.31C120.429 113.402 120.392 113.49 120.327 113.555C120.262 113.62 120.174 113.656 120.082 113.656Z" fill="#3F3D56"/>
<path d="M37.3464 132.696C39.4495 132.696 41.1543 130.991 41.1543 128.888C41.1543 126.785 39.4495 125.08 37.3464 125.08C35.2433 125.08 33.5385 126.785 33.5385 128.888C33.5385 130.991 35.2433 132.696 37.3464 132.696Z" fill="#E6E6E6"/>
<path d="M117.659 136.158H54.309C53.6665 136.157 53.0506 135.901 52.5963 135.447C52.142 134.993 51.8865 134.377 51.8857 133.734V124.041C51.8865 123.399 52.142 122.783 52.5963 122.329C53.0506 121.874 53.6665 121.619 54.309 121.618H117.659C118.302 121.619 118.918 121.874 119.372 122.329C119.826 122.783 120.082 123.399 120.082 124.041V133.734C120.082 134.377 119.826 134.993 119.372 135.447C118.918 135.901 118.302 136.157 117.659 136.158V136.158Z" fill="#E6E6E6"/>
<path d="M120.082 136.504H51.8857C51.7939 136.504 51.7059 136.467 51.6409 136.402C51.576 136.338 51.5396 136.25 51.5396 136.158C51.5396 136.066 51.576 135.978 51.6409 135.913C51.7059 135.848 51.7939 135.812 51.8857 135.812H120.082C120.174 135.812 120.262 135.848 120.327 135.913C120.392 135.978 120.429 136.066 120.429 136.158C120.429 136.25 120.392 136.338 120.327 136.402C120.262 136.467 120.174 136.504 120.082 136.504Z" fill="#3F3D56"/>
<path d="M37.3464 155.544C39.4495 155.544 41.1543 153.839 41.1543 151.736C41.1543 149.633 39.4495 147.928 37.3464 147.928C35.2433 147.928 33.5385 149.633 33.5385 151.736C33.5385 153.839 35.2433 155.544 37.3464 155.544Z" fill="#E6E6E6"/>
<path d="M80.6184 159.005H54.309C53.6665 159.004 53.0506 158.749 52.5963 158.295C52.142 157.84 51.8865 157.224 51.8857 156.582V146.889C51.8865 146.247 52.142 145.631 52.5963 145.176C53.0506 144.722 53.6665 144.467 54.309 144.466H80.6184C81.2608 144.467 81.8767 144.722 82.331 145.176C82.7853 145.631 83.0408 146.247 83.0416 146.889V156.582C83.0408 157.224 82.7853 157.84 82.331 158.295C81.8767 158.749 81.2608 159.004 80.6184 159.005V159.005Z" fill="#E6E6E6"/>
<path d="M83.0416 159.351H51.8857C51.7939 159.351 51.7059 159.315 51.6409 159.25C51.576 159.185 51.5396 159.097 51.5396 159.005C51.5396 158.913 51.576 158.825 51.6409 158.76C51.7059 158.695 51.7939 158.659 51.8857 158.659H83.0416C83.1334 158.659 83.2214 158.695 83.2864 158.76C83.3513 158.825 83.3877 158.913 83.3877 159.005C83.3877 159.097 83.3513 159.185 83.2864 159.25C83.2214 159.315 83.1334 159.351 83.0416 159.351Z" fill="#3F3D56"/>
<path d="M117.659 159.005H91.3499C90.7074 159.004 90.0915 158.749 89.6372 158.295C89.1829 157.84 88.9274 157.224 88.9266 156.582V146.889C88.9274 146.247 89.1829 145.631 89.6372 145.176C90.0915 144.722 90.7074 144.467 91.3499 144.466H117.659C118.302 144.467 118.918 144.722 119.372 145.176C119.826 145.631 120.082 146.247 120.082 146.889V156.582C120.082 157.224 119.826 157.84 119.372 158.295C118.918 158.749 118.302 159.004 117.659 159.005Z" fill="#E6E6E6"/>
<path d="M120.082 159.351H88.9266C88.8348 159.351 88.7468 159.315 88.6818 159.25C88.6169 159.185 88.5804 159.097 88.5804 159.005C88.5804 158.913 88.6169 158.825 88.6818 158.76C88.7468 158.695 88.8348 158.659 88.9266 158.659H120.082C120.174 158.659 120.262 158.695 120.327 158.76C120.392 158.825 120.429 158.913 120.429 159.005C120.429 159.097 120.392 159.185 120.327 159.25C120.262 159.315 120.174 159.351 120.082 159.351Z" fill="#3F3D56"/>
<path d="M37.4708 32.1504C36.9308 32.1593 36.4159 32.3801 36.0371 32.7651C35.6583 33.1502 35.446 33.6687 35.446 34.2088C35.446 34.7489 35.6583 35.2674 36.0371 35.6525C36.4159 36.0375 36.9308 36.2583 37.4708 36.2672H120.583C120.853 36.2719 121.122 36.2233 121.374 36.1241C121.625 36.0249 121.855 35.877 122.05 35.689C122.244 35.501 122.4 35.2765 122.507 35.0283C122.615 34.7801 122.673 34.5131 122.677 34.2426C122.682 33.9721 122.633 33.7034 122.533 33.4518C122.434 33.2002 122.286 32.9707 122.097 32.7764C121.909 32.5821 121.684 32.4268 121.436 32.3194C121.188 32.212 120.921 32.1546 120.65 32.1504C120.628 32.1501 120.605 32.1501 120.583 32.1504H37.4708Z" fill="white"/>
<path d="M37.4708 43.5743C36.9308 43.5831 36.4159 43.8039 36.0371 44.189C35.6583 44.574 35.446 45.0925 35.446 45.6326C35.446 46.1727 35.6583 46.6912 36.0371 47.0763C36.4159 47.4613 36.9308 47.6821 37.4708 47.691H120.583C121.128 47.6993 121.655 47.4908 122.047 47.1112C122.439 46.7316 122.664 46.2119 122.673 45.6664C122.682 45.1209 122.474 44.5941 122.094 44.2018C121.715 43.8095 121.196 43.5838 120.65 43.5743C120.628 43.5739 120.605 43.5739 120.583 43.5743H37.4708Z" fill="white"/>
<path d="M37.4708 54.9981C36.9308 55.007 36.4159 55.2277 36.0371 55.6128C35.6583 55.9979 35.446 56.5163 35.446 57.0565C35.446 57.5966 35.6583 58.1151 36.0371 58.5001C36.4159 58.8852 36.9308 59.106 37.4708 59.1148H120.583C121.128 59.1232 121.655 58.9147 122.047 58.535C122.439 58.1554 122.664 57.6357 122.673 57.0902C122.682 56.5447 122.474 56.0179 122.094 55.6256C121.715 55.2334 121.196 55.0076 120.65 54.9981C120.628 54.9977 120.605 54.9977 120.583 54.9981H37.4708Z" fill="white"/>
<path d="M116.897 176.071L116.026 175.2C116.007 175.181 115.984 175.166 115.96 175.156C115.935 175.146 115.909 175.14 115.882 175.14H115.459C115.419 175.14 115.379 175.152 115.346 175.175C115.313 175.197 115.287 175.228 115.272 175.265C115.256 175.302 115.252 175.343 115.26 175.382C115.268 175.422 115.287 175.458 115.315 175.486L115.798 175.968H111.947C111.856 175.968 111.768 176.004 111.703 176.069C111.638 176.134 111.601 176.222 111.601 176.314C111.601 176.406 111.638 176.494 111.703 176.559C111.768 176.624 111.856 176.66 111.947 176.66H115.798L115.365 177.093C115.332 177.125 115.31 177.167 115.301 177.211C115.292 177.256 115.297 177.303 115.314 177.345C115.332 177.387 115.362 177.424 115.4 177.449C115.438 177.474 115.482 177.488 115.528 177.488H115.87C115.901 177.488 115.931 177.482 115.959 177.47C115.987 177.459 116.013 177.442 116.034 177.42L116.897 176.557C116.929 176.525 116.954 176.488 116.971 176.446C116.989 176.404 116.998 176.359 116.998 176.314C116.998 176.269 116.989 176.224 116.971 176.182C116.954 176.141 116.929 176.103 116.897 176.071V176.071Z" fill="#6C63FF"/>
<path d="M114.544 181.853C113.448 181.853 112.377 181.528 111.466 180.92C110.556 180.311 109.846 179.446 109.427 178.434C109.007 177.422 108.898 176.308 109.111 175.234C109.325 174.159 109.853 173.172 110.627 172.398C111.402 171.623 112.389 171.096 113.463 170.882C114.538 170.668 115.651 170.778 116.663 171.197C117.675 171.616 118.54 172.326 119.149 173.237C119.758 174.148 120.083 175.219 120.083 176.314C120.081 177.783 119.497 179.191 118.458 180.229C117.42 181.267 116.012 181.851 114.544 181.853ZM114.544 171.468C113.585 171.468 112.648 171.752 111.851 172.285C111.054 172.817 110.433 173.574 110.066 174.46C109.699 175.345 109.603 176.32 109.79 177.26C109.977 178.2 110.439 179.063 111.117 179.741C111.795 180.419 112.658 180.881 113.598 181.068C114.538 181.255 115.513 181.159 116.398 180.792C117.284 180.425 118.041 179.804 118.573 179.007C119.106 178.21 119.39 177.273 119.39 176.314C119.389 175.029 118.878 173.797 117.969 172.889C117.061 171.98 115.829 171.469 114.544 171.468V171.468Z" fill="#3F3D56"/>
</g>
<defs>
<clipPath id="clip0">
<rect width="287.205" height="190" fill="white"/>
</clipPath>
</defs>
</svg>
