<svg viewBox="0 0 30 30" fill="none" xmlns="http://www.w3.org/2000/svg">
<path d="M15 30C23.2843 30 30 23.2843 30 15C30 6.71573 23.2843 0 15 0C6.71573 0 0 6.71573 0 15C0 23.2843 6.71573 30 15 30Z" fill="#1F2A44"/>
<path fill-rule="evenodd" clip-rule="evenodd" d="M11.2683 11.8494V21.8036H7.95354V11.8494H11.2683ZM11.4792 8.77574C11.4859 9.26458 11.3168 9.67306 10.972 10.0012C10.6271 10.3293 10.1734 10.4934 9.61091 10.4934H9.59082C9.04171 10.4934 8.59975 10.3293 8.26493 10.0012C7.9301 9.67306 7.7627 9.26458 7.7627 8.77574C7.7627 8.2802 7.93513 7.87005 8.27999 7.54527C8.62486 7.22049 9.07519 7.05811 9.631 7.05811C10.1868 7.05811 10.6321 7.22049 10.9669 7.54527C11.3018 7.87005 11.4725 8.2802 11.4792 8.77574ZM16.4011 13.2639C16.5286 13.0629 16.6592 12.886 16.7928 12.7333C16.9335 12.5726 17.1226 12.3985 17.3604 12.211C17.5981 12.0235 17.8894 11.8779 18.2342 11.7741C18.5791 11.6703 18.9625 11.6184 19.3843 11.6184C20.5294 11.6184 21.4502 11.9984 22.1466 12.7584C22.8431 13.5185 23.1913 14.6318 23.1913 16.0983V21.8036H19.8866V16.48C19.8866 15.7769 19.751 15.2261 19.4798 14.8276C19.2086 14.4292 18.785 14.23 18.2091 14.23C17.7872 14.23 17.434 14.3455 17.1494 14.5765C16.8648 14.8075 16.6522 15.0938 16.5116 15.4353C16.4379 15.6362 16.4011 15.9074 16.4011 16.249V21.8036H13.0964C13.1098 19.1318 13.1165 16.9655 13.1165 15.3048C13.1165 13.644 13.1131 12.653 13.1064 12.3315L13.0964 11.8494H16.4011V13.2639Z" fill="white"/>
</svg>
