<svg viewBox="0 0 31 30" fill="none" xmlns="http://www.w3.org/2000/svg">
<path d="M15.7617 30C24.046 30 30.7617 23.2843 30.7617 15C30.7617 6.71573 24.046 0 15.7617 0C7.47745 0 0.761719 6.71573 0.761719 15C0.761719 23.2843 7.47745 30 15.7617 30Z" fill="#1F2A44"/>
<path fill-rule="evenodd" clip-rule="evenodd" d="M18.2439 18.4955V20.615C18.2439 21.0636 18.1133 21.2879 17.8521 21.2879C17.6981 21.2879 17.5474 21.2143 17.4001 21.067V18.0435C17.5474 17.8962 17.6981 17.8225 17.8521 17.8225C18.1133 17.8225 18.2439 18.0469 18.2439 18.4955ZM21.639 18.5056V18.9676H20.7349V18.5056C20.7349 18.0502 20.8856 17.8225 21.1869 17.8225C21.4883 17.8225 21.639 18.0502 21.639 18.5056ZM11.9358 16.3158H13.0106V15.3717H9.87667V16.3158H10.9314V22.0312H11.9358V16.3158ZM14.8287 22.0312H15.7227V17.0692H14.8287V20.8661C14.6278 21.1473 14.4369 21.2879 14.2561 21.2879C14.1356 21.2879 14.0653 21.2176 14.0452 21.077C14.0385 21.0569 14.0352 20.9397 14.0352 20.7254V17.0692H13.1412V20.9967C13.1412 21.3248 13.168 21.5692 13.2215 21.7299C13.3019 21.9777 13.4961 22.1016 13.8041 22.1016C14.1256 22.1016 14.4671 21.8973 14.8287 21.4888V22.0312ZM19.1378 20.5446V18.5658C19.1378 18.077 19.1077 17.7455 19.0474 17.5714C18.9336 17.1964 18.6959 17.0089 18.3343 17.0089C17.9994 17.0089 17.6881 17.1897 17.4001 17.5513V15.3717H16.5061V22.0312H17.4001V21.5491C17.7015 21.9174 18.0128 22.1016 18.3343 22.1016C18.6959 22.1016 18.9336 21.9174 19.0474 21.5491C19.1077 21.3683 19.1378 21.0335 19.1378 20.5446ZM22.5329 20.4442V20.3136H21.6189C21.6189 20.6551 21.6122 20.8594 21.5988 20.9263C21.5519 21.1674 21.418 21.2879 21.197 21.2879C20.8889 21.2879 20.7349 21.0569 20.7349 20.5949V19.721H22.5329V18.6864C22.5329 18.1574 22.4425 17.769 22.2617 17.5212C22.0006 17.1797 21.6456 17.0089 21.197 17.0089C20.7416 17.0089 20.3834 17.1797 20.1222 17.5212C19.9347 17.769 19.841 18.1574 19.841 18.6864V20.4241C19.841 20.9531 19.9381 21.3415 20.1323 21.5893C20.3934 21.9308 20.755 22.1016 21.2171 22.1016C21.6992 22.1016 22.0608 21.9241 22.3019 21.5692C22.4224 21.3884 22.4927 21.2076 22.5128 21.0268C22.5262 20.9665 22.5329 20.7723 22.5329 20.4442ZM16.4258 11.2734V9.16406C16.4258 8.70201 16.2818 8.47098 15.9939 8.47098C15.7059 8.47098 15.5619 8.70201 15.5619 9.16406V11.2734C15.5619 11.7422 15.7059 11.9766 15.9939 11.9766C16.2818 11.9766 16.4258 11.7422 16.4258 11.2734ZM23.6479 18.817C23.6479 20.3839 23.5608 21.5558 23.3867 22.3326C23.293 22.7277 23.0988 23.0592 22.8041 23.327C22.5095 23.5949 22.168 23.7489 21.7796 23.7891C20.5474 23.9297 18.6892 24 16.2048 24C13.7204 24 11.8622 23.9297 10.63 23.7891C10.2416 23.7489 9.89844 23.5949 9.60045 23.327C9.30245 23.0592 9.10993 22.7277 9.02288 22.3326C8.84877 21.5826 8.76172 20.4107 8.76172 18.817C8.76172 17.25 8.84877 16.0781 9.02288 15.3013C9.11663 14.9062 9.31082 14.5748 9.60547 14.3069C9.90011 14.0391 10.245 13.8817 10.6401 13.8348C11.8655 13.7009 13.7204 13.6339 16.2048 13.6339C18.6892 13.6339 20.5474 13.7009 21.7796 13.8348C22.168 13.8817 22.5112 14.0391 22.8092 14.3069C23.1071 14.5748 23.2997 14.9062 23.3867 15.3013C23.5608 16.0513 23.6479 17.2232 23.6479 18.817ZM13.6233 6H14.6479L13.4325 10.0078V12.7299H12.428V10.0078C12.3343 9.51227 12.13 8.80246 11.8153 7.87835C11.5675 7.18861 11.3499 6.5625 11.1624 6H12.2271L12.9403 8.64174L13.6233 6ZM17.3398 9.34487V11.1027C17.3398 11.6451 17.2461 12.0402 17.0586 12.2879C16.8041 12.6295 16.4492 12.8002 15.9939 12.8002C15.5452 12.8002 15.1936 12.6295 14.9392 12.2879C14.7517 12.0335 14.6579 11.6384 14.6579 11.1027V9.34487C14.6579 8.80915 14.7517 8.41741 14.9392 8.16964C15.1936 7.82812 15.5452 7.65737 15.9939 7.65737C16.4492 7.65737 16.8041 7.82812 17.0586 8.16964C17.2461 8.41741 17.3398 8.80915 17.3398 9.34487ZM20.7048 7.71763V12.7299H19.7907V12.1775C19.4358 12.5926 19.091 12.8002 18.7561 12.8002C18.4481 12.8002 18.2506 12.6763 18.1635 12.4286C18.1099 12.2679 18.0831 12.0167 18.0831 11.6752V7.71763H18.9972V11.404C18.9972 11.625 19.0006 11.7422 19.0073 11.7556C19.0273 11.9029 19.0977 11.9766 19.2182 11.9766C19.399 11.9766 19.5898 11.8326 19.7907 11.5446V7.71763H20.7048Z" fill="white"/>
</svg>
