<svg viewBox="0 0 54 48" fill="none" xmlns="http://www.w3.org/2000/svg">
<mask id="mask0" mask-type="alpha" maskUnits="userSpaceOnUse" x="0" y="0" width="43" height="43">
<path d="M0 0H43V42.9997H0V0Z" fill="white"/>
</mask>
<g mask="url(#mask0)">
<path fill-rule="evenodd" clip-rule="evenodd" d="M38.3597 6.45003C37.3743 6.45003 36.5681 5.64377 36.5681 4.65835C36.5681 3.67204 37.3743 2.86668 38.3597 2.86668C39.3541 2.86668 40.1514 3.67204 40.1514 4.65835C40.1514 5.64377 39.3541 6.45003 38.3597 6.45003ZM3.88793 38.762H39.1122V10.0334H3.88793V38.762ZM2.84876 4.65835C2.84876 3.67204 3.64606 2.86668 4.64044 2.86668H23.2559C24.2414 2.86668 25.0476 3.67204 25.0476 4.65835C25.0476 5.64377 24.2414 6.45003 23.2559 6.45003H4.64044C3.64606 6.45003 2.84876 5.64377 2.84876 4.65835ZM32.501 2.86668C33.4953 2.86668 34.2926 3.67204 34.2926 4.65835C34.2926 5.64377 33.4953 6.45003 32.501 6.45003C31.5156 6.45003 30.7093 5.64377 30.7093 4.65835C30.7093 3.67204 31.5156 2.86668 32.501 2.86668ZM40.3127 0H2.68751C1.20042 0 0 1.20042 0 2.68751V40.3127C0 41.7998 1.20042 43.0002 2.68751 43.0002H40.3127C41.7998 43.0002 43.0002 41.7998 43.0002 40.3127V2.68751C43.0002 1.20042 41.7998 0 40.3127 0Z" fill="#D2D4DA"/>
</g>
<path fill-rule="evenodd" clip-rule="evenodd" d="M18.336 31.9867L26.9755 26.0894C28.1678 25.276 28.1678 23.5166 26.9755 22.7023L18.336 16.8059C16.9743 15.8769 15.1289 16.8507 15.1289 18.499V30.2927C15.1289 31.941 16.9743 32.9157 18.336 31.9867Z" fill="#D2D4DA"/>
<circle cx="43" cy="37" r="11" fill="#D2D4DA"/>
<path d="M43 32.9062V41.0923" stroke="white" stroke-width="2" stroke-miterlimit="10" stroke-linecap="round" stroke-linejoin="round"/>
<path d="M39.1172 37L47.3032 37" stroke="white" stroke-width="2" stroke-miterlimit="10" stroke-linecap="round" stroke-linejoin="round"/>
</svg>
