<svg viewBox="0 0 56 48" fill="none" xmlns="http://www.w3.org/2000/svg">
<mask id="mask0" mask-type="alpha" maskUnits="userSpaceOnUse" x="0" y="5" width="38" height="38">
<path d="M0 5.40234H37.377V42.7795H0V5.40234Z" fill="white"/>
</mask>
<g mask="url(#mask0)">
<path fill-rule="evenodd" clip-rule="evenodd" d="M33.325 39.9895H4.05208C3.35619 39.9895 2.79003 39.4232 2.79003 38.7273V9.45452C2.79003 8.75863 3.35619 8.19237 4.05208 8.19237V5.40234C1.81767 5.40234 0 7.22011 0 9.45452V38.7273C0 40.9617 1.81767 42.7795 4.05208 42.7795H33.325C35.5593 42.7795 37.3771 40.9617 37.3771 38.7273H34.587C34.587 39.4232 34.0209 39.9895 33.325 39.9895Z" fill="#D2D4DA"/>
</g>
<path fill-rule="evenodd" clip-rule="evenodd" d="M40.2082 33.3249C40.2082 34.0209 39.6421 34.587 38.9461 34.587H9.67327C8.97738 34.587 8.41112 34.0209 8.41112 33.3249V4.05218C8.41112 3.35619 8.97738 2.79003 9.67327 2.79003H38.9461C39.6421 2.79003 40.2082 3.35619 40.2082 4.05218V33.3249ZM38.9461 0H9.67327C7.43896 0 5.62109 1.81777 5.62109 4.05218V33.3249C5.62109 35.5594 7.43896 37.3772 9.67327 37.3772H38.9461C41.1805 37.3772 42.9983 35.5594 42.9983 33.3249V4.05218C42.9983 1.81777 41.1805 0 38.9461 0Z" fill="#D2D4DA"/>
<path fill-rule="evenodd" clip-rule="evenodd" d="M35.9168 26.336C35.0769 24.8245 34.2307 23.3168 33.3872 21.8073C32.2584 19.7872 31.1306 17.7668 30.0016 15.7465C29.9255 15.6104 29.8504 15.4733 29.7648 15.3429C29.1178 14.3562 28.1286 14.3271 27.4564 15.2969C27.0421 15.8949 26.6735 16.5249 26.2866 17.1418C25.4435 18.4857 24.6145 19.8389 23.7559 21.1728C23.0022 22.3437 21.657 22.7318 20.5827 22.0343C19.3775 21.252 17.806 21.6496 16.9896 22.6212C15.8092 24.0261 14.6139 25.4183 13.4332 26.8229C13.2765 27.0095 13.1367 27.2245 13.0458 27.4494C12.8331 27.9763 13.0474 28.4191 13.596 28.5741C13.8667 28.6506 14.1592 28.6794 14.442 28.68C17.8002 28.6869 21.1582 28.6845 24.5163 28.6845C27.8743 28.6845 31.2325 28.6859 34.5905 28.6817C34.8227 28.6814 35.0596 28.6631 35.286 28.6144C36.111 28.4375 36.4796 27.8093 36.2256 27.0066C36.1519 26.7736 36.036 26.5508 35.9168 26.336Z" fill="#D2D4DA"/>
<path fill-rule="evenodd" clip-rule="evenodd" d="M16.284 17.3356C18.3766 17.3113 20.0339 15.6315 20.0308 13.5375C20.028 11.4475 18.3554 9.76549 16.2691 9.75396C14.1847 9.74263 12.4711 11.4572 12.4727 13.5524C12.4744 15.6428 14.204 17.3597 16.284 17.3356Z" fill="#D2D4DA"/>
<circle cx="45" cy="37" r="11" fill="#D2D4DA"/>
<path d="M45 32.9062V41.0923" stroke="white" stroke-width="2" stroke-miterlimit="10" stroke-linecap="round" stroke-linejoin="round"/>
<path d="M41.1172 37L49.3032 37" stroke="white" stroke-width="2" stroke-miterlimit="10" stroke-linecap="round" stroke-linejoin="round"/>
</svg>
