<svg viewBox="0 0 25 25" fill="none" xmlns="http://www.w3.org/2000/svg">
<path d="M17.4242 10.7764C17.4242 14.0164 14.1104 18.3018 12.9228 19.7432C12.6969 20.0159 12.3088 20.0159 12.077 19.7432C10.8836 18.3083 7.5699 14.0358 7.57569 10.7764C7.57569 7.7571 9.78291 5.30273 12.4999 5.30273C15.217 5.30273 17.4242 7.7571 17.4242 10.7764Z" stroke="#1F2A44" stroke-miterlimit="10" stroke-linecap="round" stroke-linejoin="round"/>
<path d="M12.4999 13.4641C13.7797 13.4641 14.8172 12.3012 14.8172 10.8668C14.8172 9.43237 13.7797 8.26953 12.4999 8.26953C11.2201 8.26953 10.1826 9.43237 10.1826 10.8668C10.1826 12.3012 11.2201 13.4641 12.4999 13.4641Z" stroke="#1F2A44" stroke-miterlimit="10" stroke-linecap="round" stroke-linejoin="round"/>
<circle cx="12.5" cy="12.5" r="12" stroke="#1F2A44"/>
<line x1="12.6211" y1="0.757813" x2="12.6211" y2="3.03054" stroke="#1F2A44"/>
<line x1="12.6211" y1="21.9688" x2="12.6211" y2="24.2415" stroke="#1F2A44"/>
<line x1="0.378906" y1="12" x2="2.65163" y2="12" stroke="#1F2A44"/>
<line x1="21.9697" y1="12" x2="24.2425" y2="12" stroke="#1F2A44"/>
</svg>
