<svg viewBox="0 0 21 23" fill="none" xmlns="http://www.w3.org/2000/svg">
<path d="M19.3506 2.87659H19.2403C18.4114 2.87659 17.7394 3.54855 17.7394 4.37746C17.7394 5.20505 17.1612 5.87833 16.4504 5.87833C15.7396 5.87833 15.1613 5.20505 15.1613 4.37746C15.1613 3.54855 14.4893 2.87659 13.6604 2.87659H7.63928C6.81037 2.87659 6.13841 3.54855 6.13841 4.37746C6.13841 5.20505 5.56015 5.87833 4.84934 5.87833C4.13854 5.87833 3.56028 5.20505 3.56028 4.37746C3.56028 3.54855 2.88832 2.87659 2.05941 2.87659H1.94908C1.06078 2.87659 0.337891 3.71826 0.337891 4.75267V20.8862C0.337891 21.9205 1.06078 22.7622 1.94908 22.7622H19.3506C20.2391 22.7622 20.9618 21.9205 20.9618 20.8862V4.75267C20.9618 3.71826 20.2391 2.87659 19.3506 2.87659ZM19.6728 20.8862C19.6729 20.8862 19.6729 20.8863 19.6729 20.8863C19.6729 21.0896 19.5253 21.2615 19.3506 21.2615H1.94908C1.77444 21.2615 1.62682 21.0896 1.62682 20.8862V11.379C1.62682 9.1699 3.41768 7.37904 5.62682 7.37904H15.6728C17.8819 7.37904 19.6728 9.1699 19.6728 11.379V20.8862C19.6728 20.8862 19.6728 20.8862 19.6728 20.8862Z" fill="#1F2A44"/>
<path d="M7.42731 11.5064H9.68303C9.86026 11.5064 10.0053 11.3375 10.0053 11.1312V9.2551C10.0053 9.04875 9.86026 8.87988 9.68303 8.87988H7.42731C7.25008 8.87988 7.10504 9.04875 7.10504 9.2551V11.131C7.10518 11.3374 7.25022 11.5064 7.42731 11.5064Z" fill="#1F2A44"/>
<path d="M11.6166 11.5064H13.8724C14.0496 11.5064 14.1946 11.3375 14.1946 11.1312V9.2551C14.1946 9.04875 14.0496 8.87988 13.8724 8.87988H11.6166C11.4394 8.87988 11.2944 9.04875 11.2944 9.2551V11.131C11.2944 11.3374 11.4394 11.5064 11.6166 11.5064Z" fill="#1F2A44"/>
<path d="M15.8058 11.5064H18.0615C18.2387 11.5064 18.3838 11.3375 18.3838 11.1312V9.2551C18.3838 9.04875 18.2387 8.87988 18.0615 8.87988H15.8058C15.6286 8.87988 15.4835 9.04875 15.4835 9.2551V11.131C15.4835 11.3374 15.6287 11.5064 15.8058 11.5064Z" fill="#1F2A44"/>
<path d="M7.42731 15.6334H9.68303C9.86026 15.6334 10.0053 15.4646 10.0053 15.2582V13.3823C10.0053 13.176 9.86026 13.0071 9.68303 13.0071H7.42731C7.25008 13.0071 7.10504 13.176 7.10504 13.3823V15.2582C7.10518 15.4646 7.25022 15.6334 7.42731 15.6334Z" fill="#1F2A44"/>
<path d="M3.23816 15.6334H5.49389C5.67111 15.6334 5.81615 15.4646 5.81615 15.2582V13.3823C5.81615 13.176 5.67111 13.0071 5.49389 13.0071H3.23816C3.06093 13.0071 2.91589 13.176 2.91589 13.3823V15.2582C2.91589 15.4646 3.06093 15.6334 3.23816 15.6334Z" fill="#1F2A44"/>
<path d="M11.6166 15.6334H13.8724C14.0496 15.6334 14.1946 15.4646 14.1946 15.2582V13.3823C14.1946 13.176 14.0496 13.0071 13.8724 13.0071H11.6166C11.4394 13.0071 11.2944 13.176 11.2944 13.3823V15.2582C11.2944 15.4646 11.4394 15.6334 11.6166 15.6334Z" fill="#1F2A44"/>
<path d="M15.8058 15.6334H18.0615C18.2387 15.6334 18.3838 15.4646 18.3838 15.2582V13.3823C18.3838 13.176 18.2387 13.0071 18.0615 13.0071H15.8058C15.6286 13.0071 15.4835 13.176 15.4835 13.3823V15.2582C15.4835 15.4646 15.6287 15.6334 15.8058 15.6334Z" fill="#1F2A44"/>
<path d="M7.42731 19.7606H9.68303C9.86026 19.7606 10.0053 19.5918 10.0053 19.3854V17.5095C10.0053 17.3032 9.86026 17.1343 9.68303 17.1343H7.42731C7.25008 17.1343 7.10504 17.3032 7.10504 17.5095V19.3854C7.10518 19.5918 7.25022 19.7606 7.42731 19.7606Z" fill="#1F2A44"/>
<path d="M3.23816 19.7606H5.49389C5.67111 19.7606 5.81615 19.5918 5.81615 19.3854V17.5095C5.81615 17.3032 5.67111 17.1343 5.49389 17.1343H3.23816C3.06093 17.1343 2.91589 17.3032 2.91589 17.5095V19.3854C2.91589 19.5918 3.06093 19.7606 3.23816 19.7606Z" fill="#1F2A44"/>
<path d="M11.6166 19.7606H13.8724C14.0496 19.7606 14.1946 19.5918 14.1946 19.3854V17.5095C14.1946 17.3032 14.0496 17.1343 13.8724 17.1343H11.6166C11.4394 17.1343 11.2944 17.3032 11.2944 17.5095V19.3854C11.2944 19.5918 11.4394 19.7606 11.6166 19.7606Z" fill="#1F2A44"/>
<path d="M4.84941 5.12794C5.20536 5.12794 5.49395 4.79194 5.49395 4.3775V1.37592C5.49395 0.961492 5.20536 0.625488 4.84941 0.625488C4.4936 0.625488 4.20502 0.961492 4.20502 1.37592V4.3775C4.20502 4.79194 4.4936 5.12794 4.84941 5.12794Z" fill="#1F2A44"/>
<path d="M16.4504 5.12794C16.8063 5.12794 17.0949 4.79194 17.0949 4.3775V1.37592C17.0949 0.961492 16.8063 0.625488 16.4504 0.625488C16.0944 0.625488 15.8058 0.961492 15.8058 1.37592V4.3775C15.8058 4.79194 16.0944 5.12794 16.4504 5.12794Z" fill="#1F2A44"/>
</svg>
