<svg viewBox="0 0 18 18" fill="none" xmlns="http://www.w3.org/2000/svg">
<path d="M1.11396 1.84022C0.963114 2.09162 0.984663 2.43641 1.04931 2.79556C1.69578 6.42299 3.44845 9.66973 5.91223 12.1407C8.37601 14.6045 11.7161 16.4505 15.2286 16.9821C15.5878 17.0395 15.9326 17.0611 16.184 16.9174C16.2702 16.8671 16.3851 16.7737 16.4138 16.6301L16.9885 14.0442C17.0316 13.8215 16.9526 13.5917 16.773 13.4049C16.6868 13.3187 14.7258 12.6076 13.7992 12.1622C13.4185 11.9755 12.9732 12.0832 12.7864 12.3921L12.4272 13.0098C12.3051 13.2181 12.0968 13.3762 11.867 13.4336C10.9619 13.6635 8.16052 11.0848 7.54996 10.4742C6.91785 9.84212 4.25295 6.9689 4.4828 6.06384C4.54027 5.8268 4.69829 5.62568 4.9066 5.50356C5.45251 5.18751 5.30167 5.27371 5.52434 5.14441C5.8404 4.95765 5.94814 4.51231 5.76138 4.1316C5.35913 3.30556 5.12209 2.52979 4.85632 1.64627C4.74139 1.25839 4.36787 0.949519 3.99436 1.02853C3.99436 1.02853 3.95126 1.03572 1.3941 1.61036C1.25762 1.63909 1.16424 1.75402 1.11396 1.84022Z" stroke="#1F2A44" stroke-miterlimit="10"/>
<path d="M8.99414 3.16211C11.8171 3.16211 14.1013 5.44631 14.1013 8.26925" stroke="#1F2A44" stroke-miterlimit="10" stroke-linecap="round" stroke-linejoin="round"/>
<path d="M8.99414 1C13.0095 1 16.2634 4.25392 16.2634 8.26923" stroke="#1F2A44" stroke-miterlimit="10" stroke-linecap="round" stroke-linejoin="round"/>
</svg>
