<svg viewBox="0 0 19 15" fill="none" xmlns="http://www.w3.org/2000/svg">
<path d="M15.7326 5.10986C11.5489 5.54444 6.88641 5.50761 3.21094 5.10986" stroke="#1F2A44" stroke-miterlimit="10" stroke-linejoin="round"/>
<path d="M15.7331 11.6877V12.7926C15.7331 13.1977 15.4017 13.5292 14.9966 13.5292H14.26C13.8549 13.5292 13.5234 13.1977 13.5234 12.7926V10.9512" stroke="#1F2A44" stroke-miterlimit="10" stroke-linejoin="round"/>
<path d="M3.21094 11.6877V12.7926C3.21094 13.1977 3.54239 13.5292 3.94751 13.5292H4.68407C5.08919 13.5292 5.42064 13.1977 5.42064 12.7926V10.9512" stroke="#1F2A44" stroke-miterlimit="10" stroke-linejoin="round"/>
<path d="M6.89258 9.10938H12.0486" stroke="#1F2A44" stroke-miterlimit="10" stroke-linecap="round" stroke-linejoin="round"/>
<path d="M5.42064 9.10962H3.82966C3.49083 9.10962 3.21094 8.71187 3.21094 8.37305" stroke="#1F2A44" stroke-miterlimit="10" stroke-linecap="round" stroke-linejoin="round"/>
<path d="M13.5234 9.10962H15.1144C15.4532 9.10962 15.7331 8.71187 15.7331 8.37305" stroke="#1F2A44" stroke-miterlimit="10" stroke-linecap="round" stroke-linejoin="round"/>
<path d="M2.84142 5.42675H1.73657C1.39775 5.42675 1 5.14685 1 4.80803C1 4.38819 1 3.95361 1.73657 3.95361H3.57799" stroke="#1F2A44" stroke-miterlimit="10" stroke-linejoin="round"/>
<path d="M16.0998 5.42675H17.2636C17.6024 5.42675 18.0002 5.14685 18.0002 4.80803C18.0002 4.38819 18.0002 3.95361 17.2636 3.95361H15.3633" stroke="#1F2A44" stroke-miterlimit="10" stroke-linejoin="round"/>
<path d="M17.2043 7.7396C17.2043 7.224 17.0201 6.73787 16.7034 6.34012C15.9005 5.35312 14.9946 3.94627 14.722 2.2448C14.5232 1.10312 12.9985 1 11.8052 1H9.10201H7.13537C5.94213 1 4.41007 1.10312 4.21856 2.2448C4.07862 3.62955 3.03269 5.35312 2.22983 6.34749C1.9131 6.74523 1.73633 7.23137 1.73633 7.7396V10.5312C1.73633 10.9658 2.48763 11.3193 2.93693 11.3193H9.10201H16.0037C16.453 11.3193 17.2043 10.9658 17.2043 10.5312V7.7396V7.7396Z" stroke="#1F2A44" stroke-miterlimit="10" stroke-linecap="round" stroke-linejoin="round"/>
</svg>
