<svg viewBox="0 0 10 13" fill="none" xmlns="http://www.w3.org/2000/svg">
<path d="M7.45704 3.90252H9.4533L6.09766 0.546875V2.54313C6.09766 3.29299 6.7079 3.90252 7.45704 3.90252Z" fill="#A5AAB4"/>
<path d="M7.45754 4.35593C6.45797 4.35593 5.64479 3.54275 5.64479 2.54318V0H1.58607C0.713875 0 0 0.713875 0 1.58607V10.983C0 11.8552 0.713875 12.5691 1.58607 12.5691H8.41393C9.28613 12.5691 10 11.8552 10 10.983V4.35593H7.45754ZM1.45006 2.36975H4.61284V2.82239H1.45006V2.36975ZM1.45006 3.95725H4.61284V4.41062H1.45006V3.95725ZM8.55066 10.7592H1.45006V10.3058H8.55066V10.7592ZM8.55066 9.17242H1.45006V8.71906H8.55066V9.17242ZM8.55066 7.58492H1.45006V7.13155H8.55066V7.58492ZM8.55066 5.99741H1.45006V5.54404H8.55066V5.99741Z" fill="#A5AAB4"/>
</svg>
