<svg viewBox="0 0 17 18" fill="none" xmlns="http://www.w3.org/2000/svg">
<path d="M4.47852 14.913V6.56522V1.69565C4.47852 1.31304 4.79156 1 5.17417 1H15.609C15.9916 1 16.3046 1.31304 16.3046 1.69565V14.913C16.3046 16.0678 15.3724 17 14.2176 17H5.86982H4.47852" stroke="#1F2A44" stroke-miterlimit="10" stroke-linecap="round" stroke-linejoin="round"/>
<path d="M2.73913 17C1.77913 17 1 16.2209 1 15.2609V8.6522C1 8.26959 1.31304 7.95654 1.69565 7.95654H4.47826V15.2609C4.47826 16.2209 3.69913 17 2.73913 17Z" stroke="#1F2A44" stroke-miterlimit="10" stroke-linecap="round" stroke-linejoin="round"/>
<path d="M6.56615 17H3.08789" stroke="#1F2A44" stroke-miterlimit="10" stroke-linecap="round" stroke-linejoin="round"/>
<path d="M7.26172 3.78271H13.5226" stroke="#1F2A44" stroke-miterlimit="10" stroke-linecap="round" stroke-linejoin="round"/>
<path d="M7.26172 6.56543H13.5226" stroke="#1F2A44" stroke-miterlimit="10" stroke-linecap="round" stroke-linejoin="round"/>
<path d="M7.26172 9.34766H13.5226" stroke="#1F2A44" stroke-miterlimit="10" stroke-linecap="round" stroke-linejoin="round"/>
</svg>
