<svg viewBox="0 0 21 20" fill="none" xmlns="http://www.w3.org/2000/svg">
<path d="M6.6101 10.9288C6.74692 11.0157 7.06616 11.1525 7.4011 11.1525C8.02163 11.1525 8.21377 10.7594 8.20854 10.4651C8.20331 9.96875 7.75248 9.75549 7.28596 9.75549H7.01681V9.3951H7.28596C7.63735 9.3951 8.08219 9.21528 8.08219 8.7947C8.08219 8.51085 7.90126 8.2597 7.45642 8.2597C7.17082 8.2597 6.89644 8.38527 6.74243 8.49451L6.61608 8.14526C6.80299 8.00928 7.16484 7.87256 7.54913 7.87256C8.2519 7.87256 8.57039 8.28719 8.57039 8.71817C8.57039 9.08376 8.35059 9.3951 7.91173 9.55338V9.56452C8.35134 9.6522 8.70796 9.97915 8.70796 10.4755C8.70796 11.0432 8.26312 11.5396 7.40633 11.5396C7.0056 11.5396 6.65421 11.414 6.47852 11.2996L6.6101 10.9288Z" fill="#1F2A44" stroke="#1F2A44" stroke-width="0.2"/>
<path d="M11.3479 8.27175C11.2492 8.26655 11.1228 8.27175 10.9853 8.2933C10.2272 8.41888 9.82643 8.97024 9.74419 9.55354H9.76063C9.93109 9.32988 10.2272 9.14411 10.6227 9.14411C11.2544 9.14411 11.6985 9.59664 11.6985 10.2899C11.6985 10.9394 11.2537 11.5398 10.5128 11.5398C9.74942 11.5398 9.25 10.9505 9.25 10.0284C9.25 9.32988 9.5027 8.77853 9.85409 8.42928C10.1509 8.14023 10.5456 7.95967 10.9957 7.90542C11.1385 7.88387 11.2596 7.87793 11.3471 7.87793V8.27175H11.3479ZM10.5187 11.169C10.9307 11.169 11.2103 10.8249 11.2103 10.3174C11.2103 9.8099 10.9195 9.5045 10.4746 9.5045C10.1838 9.5045 9.91465 9.68432 9.78306 9.94142C9.75017 9.99567 9.72849 10.067 9.72849 10.1539C9.7397 10.738 10.0088 11.169 10.5135 11.169H10.5187Z" fill="#1F2A44" stroke="#1F2A44" stroke-width="0.2"/>
<path d="M14.4997 9.66878C14.4997 10.8748 14.0496 11.5406 13.2586 11.5406C12.5611 11.5406 12.0893 10.8911 12.0781 9.71782C12.0781 8.52818 12.594 7.87354 13.3192 7.87354C14.0713 7.87354 14.4997 8.53932 14.4997 9.66878ZM12.5618 9.72302C12.5618 10.6452 12.8474 11.169 13.2863 11.169C13.7805 11.169 14.0167 10.5961 14.0167 9.69033C14.0167 8.81723 13.7917 8.24432 13.2915 8.24432C12.8691 8.24432 12.5618 8.75704 12.5618 9.72302Z" fill="#1F2A44" stroke="#1F2A44" stroke-width="0.2"/>
<path d="M15.5932 7.73682C16.038 7.73682 16.3124 8.07491 16.3124 8.44644C16.3124 8.88857 15.9558 9.17762 15.5767 9.17762C15.1483 9.17762 14.8575 8.85587 14.8575 8.47914C14.8523 8.05856 15.1812 7.73682 15.5879 7.73682H15.5932ZM15.5767 7.99317C15.2971 7.99317 15.1543 8.24433 15.1543 8.47319C15.1543 8.72435 15.3412 8.92052 15.5827 8.92052C15.8294 8.92052 16.0163 8.72435 16.0163 8.45685C16.0163 8.24953 15.8952 7.99317 15.5827 7.99317H15.5767Z" fill="#1F2A44" stroke="black" stroke-width="0.1"/>
<path d="M10.6918 19C9.35201 19 8.20888 17.1684 7.63395 14.101C7.60405 13.9413 7.71021 13.7882 7.8702 13.7585C8.03094 13.7287 8.18496 13.8343 8.21486 13.9933C8.70979 16.6363 9.70489 18.4123 10.691 18.4123C11.6771 18.4123 12.6722 16.6363 13.1672 13.9933C13.1971 13.8335 13.3511 13.7287 13.5118 13.7585C13.6726 13.7882 13.778 13.9413 13.7481 14.101C13.1747 17.1691 12.0315 19 10.6918 19Z" fill="#1F2A44" stroke="#1F2A44" stroke-width="0.2"/>
<path d="M14.3342 5.61518C14.2004 5.5223 14.0165 5.5535 13.9223 5.68651L13.7548 5.92281C13.5006 4.55631 13.12 3.39118 12.6483 2.54112C12.0883 1.53278 11.4125 1 10.6932 1C9.97401 1 9.29814 1.53278 8.73817 2.54112C8.23052 3.45583 7.82904 4.73242 7.57634 6.23341C7.54943 6.39317 7.65858 6.54475 7.81933 6.5715C7.98007 6.59825 8.13258 6.49051 8.1595 6.33001C8.63649 3.49298 9.65477 1.58702 10.6932 1.58702C11.7003 1.58702 12.6887 3.3793 13.1821 6.07514L12.8741 5.85965C12.7402 5.76602 12.5563 5.79797 12.4621 5.93098C12.3679 6.06399 12.4001 6.24678 12.5339 6.34041L13.3855 6.93635C13.387 6.93709 13.3884 6.93783 13.3899 6.93932C13.3914 6.94006 13.3929 6.94155 13.3944 6.94229C13.5283 7.03592 13.7122 7.00397 13.8064 6.87096L14.406 6.02386C14.5002 5.89234 14.468 5.7088 14.3342 5.61518Z" fill="#1F2A44" stroke="#1F2A44" stroke-width="0.2"/>
<path d="M17.3388 7.52497C17.1833 7.47667 17.0173 7.56286 16.9687 7.71742C16.9201 7.87198 17.0068 8.03694 17.1623 8.08598C18.8101 8.59869 19.794 9.29792 19.794 9.95479C19.794 10.599 18.8423 11.2878 17.2468 11.7968C15.5003 12.3549 13.173 12.6618 10.6931 12.6618C8.21316 12.6618 5.88503 12.3549 4.13931 11.7968C2.54461 11.2871 1.59213 10.599 1.59213 9.95479C1.59213 9.32541 2.49228 8.65963 4.01221 8.1536L3.88586 8.45157C3.82231 8.60092 3.89259 8.77331 4.04287 8.83648C4.19314 8.89964 4.36659 8.82979 4.43014 8.68043L4.8361 7.72708C4.83685 7.72559 4.83685 7.72411 4.83835 7.72188C4.8391 7.72039 4.83984 7.71891 4.84059 7.71742C4.90414 7.56806 4.83386 7.39567 4.68359 7.33251L3.72437 6.92903C3.5741 6.86587 3.40065 6.93572 3.3371 7.08507C3.27355 7.23443 3.34383 7.40682 3.4941 7.46998L3.80886 7.60225C1.99435 8.20859 1 9.03859 1 9.95479C1 10.9081 2.02276 11.7389 3.95764 12.3564C5.76093 12.9322 8.1526 13.2495 10.6923 13.2495C13.232 13.2495 15.6237 12.9322 17.427 12.3564C19.3619 11.7381 20.3846 10.9081 20.3846 9.95479C20.3846 8.99995 19.3028 8.13651 17.3388 7.52497Z" fill="#1F2A44" stroke="#1F2A44" stroke-width="0.2"/>
</svg>
