<svg viewBox="0 0 18 18" fill="none" xmlns="http://www.w3.org/2000/svg">
<path d="M9 17C4.5872 17 1 13.4128 1 9C1 4.5872 4.5872 1 9 1C13.4128 1 17 4.5872 17 9C17 13.4128 13.4128 17 9 17ZM9 1.64C4.9424 1.64 1.64 4.9424 1.64 9C1.64 13.0576 4.9424 16.36 9 16.36C13.0576 16.36 16.36 13.0576 16.36 9C16.36 4.9424 13.0576 1.64 9 1.64Z" fill="#1F2A44" stroke="#1F2A44" stroke-width="0.3"/>
<path d="M8.85604 13.1601C8.51044 13.1601 8.31524 13.0129 8.21284 12.8881C8.09764 12.7473 7.97604 12.4881 8.06244 12.0497C8.17764 11.4673 8.49124 9.90248 8.72484 8.75048L8.89444 7.91208C8.90724 7.84808 8.87844 7.80328 8.86244 7.78088C8.84004 7.75528 8.80164 7.72008 8.73444 7.72008H8.36004C8.18404 7.72008 8.04004 7.57608 8.04004 7.40008C8.04004 7.22408 8.18404 7.08008 8.36004 7.08008H8.73444C8.97444 7.08008 9.20164 7.18568 9.35524 7.37448C9.50884 7.56008 9.56644 7.80328 9.52164 8.03688L9.35204 8.87528C9.12164 10.0241 8.80484 11.5857 8.69284 12.1713C8.66084 12.3441 8.68004 12.4433 8.70884 12.4785C8.73764 12.5137 8.82404 12.5201 8.85924 12.5201C8.95204 12.5201 9.24644 12.3921 9.47684 12.2481C9.62724 12.1553 9.82564 12.2001 9.91844 12.3505C10.0112 12.5009 9.96644 12.6993 9.81604 12.7921C9.66884 12.8785 9.18884 13.1601 8.85604 13.1601Z" fill="#1F2A44" stroke="#1F2A44" stroke-width="0.4"/>
<path d="M9.31969 6.11984C9.67315 6.11984 9.95969 5.83331 9.95969 5.47984C9.95969 5.12638 9.67315 4.83984 9.31969 4.83984C8.96623 4.83984 8.67969 5.12638 8.67969 5.47984C8.67969 5.83331 8.96623 6.11984 9.31969 6.11984Z" fill="#1F2A44" stroke="#1F2A44" stroke-width="0.4"/>
</svg>
