<svg width="10" height="15" viewBox="0 0 10 15" fill="none" xmlns="http://www.w3.org/2000/svg">
<path d="M5 0C2.24284 0 0 2.3405 0 5.2177C0 6.5849 0.815523 8.63552 2.42407 11.3128C3.61174 13.2898 4.81565 14.8966 4.82783 14.9126C4.86939 14.9677 4.93282 15 5 15C5.00031 15 5.00031 15 5.00062 15C5.06812 14.9997 5.13155 14.9674 5.17279 14.9116C5.18466 14.8953 6.38858 13.2725 7.57624 11.2877C9.18448 8.59966 10 6.55718 10 5.21738C9.99969 2.3405 7.75684 0 5 0ZM5 7.73363C3.67048 7.73363 2.58905 6.60479 2.58905 5.2177C2.58905 3.83062 3.67079 2.70145 5 2.70145C6.32921 2.70145 7.41126 3.83029 7.41126 5.2177C7.41126 6.60511 6.32921 7.73363 5 7.73363Z" fill="#1F2A44"/>
</svg>
