<svg viewBox="0 0 19 16" fill="none" xmlns="http://www.w3.org/2000/svg">
<path d="M16.815 10.5791V14.2633C16.815 14.6686 16.4834 15.0002 16.0781 15.0002H2.07812" stroke="#1F2A44" stroke-miterlimit="10" stroke-linecap="round" stroke-linejoin="round"/>
<path d="M2.07812 3.94775H16.0781C16.4834 3.94775 16.815 4.27933 16.815 4.6846V7.63197" stroke="#1F2A44" stroke-miterlimit="10" stroke-linecap="round" stroke-linejoin="round"/>
<path d="M0.605469 3.94775V4.6846V13.5267" stroke="#1F2A44" stroke-miterlimit="10" stroke-linecap="round" stroke-linejoin="round"/>
<path d="M2.07915 1C1.26863 1 0.605469 1.66316 0.605469 2.47369C0.605469 3.28421 1.26863 3.94737 2.07915 3.94737" stroke="#1F2A44" stroke-miterlimit="10" stroke-linecap="round" stroke-linejoin="round"/>
<path d="M0.605469 4.68367V2.47314" stroke="#1F2A44" stroke-miterlimit="10" stroke-linecap="round" stroke-linejoin="round"/>
<path d="M14.6044 3.94737V1.73684C14.6044 1.33158 14.2729 1 13.8676 1H2.07812" stroke="#1F2A44" stroke-miterlimit="10" stroke-linecap="round" stroke-linejoin="round"/>
<path d="M0.605469 13.5269C0.605469 14.3374 1.26863 15.0005 2.07915 15.0005" stroke="#1F2A44" stroke-miterlimit="10" stroke-linecap="round" stroke-linejoin="round"/>
<path d="M12.3956 10.5792C11.585 10.5792 10.9219 9.91605 10.9219 9.10552C10.9219 8.29499 11.585 7.63184 12.3956 7.63184" stroke="#1F2A44" stroke-miterlimit="10" stroke-linecap="round" stroke-linejoin="round"/>
<path d="M12.3965 10.5792H16.8175C17.2228 10.5792 17.5544 10.2476 17.5544 9.84236V8.36868C17.5544 7.96342 17.2228 7.63184 16.8175 7.63184H12.3965" stroke="#1F2A44" stroke-miterlimit="10" stroke-linecap="round" stroke-linejoin="round"/>
</svg>
