<svg width="22" height="19" viewBox="0 0 22 19" fill="none" xmlns="http://www.w3.org/2000/svg">
<path d="M9.25676 10.7562C8.38974 10.1256 7.33005 9.75778 6.17402 9.75778C3.61675 9.75778 1.48861 11.5882 1.01569 14.0053C0.910593 14.5308 1.34848 15.0125 1.88271 15.0125H6.17402M16.6833 5.28256C16.6833 6.78889 15.5098 8.00623 14.056 8.00623C12.6022 8.00623 11.4287 6.78889 11.4287 5.28256V3.72367C11.4287 2.21733 12.6022 1 14.056 1C15.5098 1 16.6833 2.21733 16.6833 3.72367V5.28256ZM9.23923 3.62734C9.23923 4.83653 8.25899 5.81678 7.04979 5.81678C5.84059 5.81678 4.86034 4.83653 4.86034 3.62734C4.86034 2.41814 5.84059 1.43789 7.04979 1.43789C8.25899 1.43789 9.23923 2.41814 9.23923 3.62734ZM14.056 10.6336C10.5267 10.6336 7.60156 13.2434 7.11988 16.6414C7.04106 17.1669 7.46144 17.6398 7.99566 17.6398H20.1164C20.6507 17.6398 21.0623 17.1669 20.9922 16.6414C20.5105 13.2434 17.5854 10.6336 14.056 10.6336Z" stroke="#1F2A44" stroke-miterlimit="10" stroke-linecap="round" stroke-linejoin="round"/>
</svg>
