<svg viewBox="0 0 18 15" fill="none" xmlns="http://www.w3.org/2000/svg">
<path d="M14.912 12.5543L3.08594 9.77165V4.20644L14.912 1.42383V12.5543Z" stroke="#1F2A44" stroke-miterlimit="10" stroke-linecap="round" stroke-linejoin="round"/>
<path d="M3.08696 9.77225H1.69565C1.31304 9.77225 1 9.4592 1 9.0766V4.90268C1 4.52007 1.31304 4.20703 1.69565 4.20703H3.08696V9.77225Z" stroke="#1F2A44" stroke-miterlimit="10" stroke-linecap="round" stroke-linejoin="round"/>
<path d="M14.9141 12.5547L16.0828 12.9442C16.5349 13.0973 17.001 12.7564 17.001 12.2834V1.69553C17.001 1.22248 16.5349 0.88857 16.0828 1.03466L14.9141 1.42422V12.5547Z" stroke="#1F2A44" stroke-miterlimit="10" stroke-linecap="round" stroke-linejoin="round"/>
<path d="M5.17383 10.4678L5.75122 12.2069C5.82078 12.4226 6.00165 12.5895 6.21731 12.6591L10.1756 13.793C10.4956 13.8834 10.8364 13.7373 10.9895 13.4382L11.4277 11.866" stroke="#1F2A44" stroke-miterlimit="10" stroke-linecap="round" stroke-linejoin="round"/>
</svg>
