<svg width="24" height="24" viewBox="0 0 24 24" fill="none" xmlns="http://www.w3.org/2000/svg">
<path d="M7.5 10.5C8.05228 10.5 8.5 10.0523 8.5 9.5C8.5 8.94772 8.05228 8.5 7.5 8.5C6.94772 8.5 6.5 8.94772 6.5 9.5C6.5 10.0523 6.94772 10.5 7.5 10.5Z" fill="#163567"/>
<path d="M16.5 10.5C17.0523 10.5 17.5 10.0523 17.5 9.5C17.5 8.94772 17.0523 8.5 16.5 8.5C15.9477 8.5 15.5 8.94772 15.5 9.5C15.5 10.0523 15.9477 10.5 16.5 10.5Z" fill="#163567"/>
<path d="M12 23C18.0751 23 23 18.0751 23 12C23 5.92487 18.0751 1 12 1C5.92487 1 1 5.92487 1 12C1 18.0751 5.92487 23 12 23Z" stroke="#1F2A44" stroke-miterlimit="10" stroke-linecap="round" stroke-linejoin="round"/>
<path d="M18 14C18 17.31 15.31 20 12 20C8.69 20 6 17.31 6 14H18Z" stroke="#1F2A44" stroke-miterlimit="10" stroke-linecap="round" stroke-linejoin="round"/>
</svg>
