<svg viewBox="0 0 16 16" fill="none" xmlns="http://www.w3.org/2000/svg">
<path d="M1.47618 8.87607L7.41886 14.8187C7.66053 15.0604 8.05092 15.0604 8.2926 14.8187L15.109 8.00232C15.2268 7.88459 15.2887 7.72967 15.2887 7.56235V1.61967C15.2887 1.27885 15.0099 1 14.6691 1H8.73257C8.56525 1 8.41034 1.06816 8.2926 1.17971L1.47618 7.99613C1.2345 8.2378 1.2345 8.63439 1.47618 8.87607Z" stroke="#1F2A44" stroke-miterlimit="10" stroke-linecap="round" stroke-linejoin="round"/>
<path d="M12.1964 5.33759C12.8809 5.33759 13.4357 4.78271 13.4357 4.09824C13.4357 3.41376 12.8809 2.85889 12.1964 2.85889C11.5119 2.85889 10.957 3.41376 10.957 4.09824C10.957 4.78271 11.5119 5.33759 12.1964 5.33759Z" stroke="#1F2A44" stroke-miterlimit="10" stroke-linecap="round" stroke-linejoin="round"/>
</svg>
