<svg viewBox="0 0 10 12" fill="none" xmlns="http://www.w3.org/2000/svg">
<path d="M4.3125 4.41406V9.05469C4.3125 9.1263 4.28385 9.19076 4.22656 9.24805C4.18359 9.29102 4.1263 9.3125 4.05469 9.3125H3.53906C3.46745 9.3125 3.40299 9.29102 3.3457 9.24805C3.30273 9.19076 3.28125 9.1263 3.28125 9.05469V4.41406C3.28125 4.34245 3.30273 4.28516 3.3457 4.24219C3.40299 4.1849 3.46745 4.15625 3.53906 4.15625H4.05469C4.1263 4.15625 4.18359 4.1849 4.22656 4.24219C4.28385 4.28516 4.3125 4.34245 4.3125 4.41406ZM6.46094 4.15625H5.94531C5.8737 4.15625 5.80924 4.1849 5.75195 4.24219C5.70898 4.28516 5.6875 4.34245 5.6875 4.41406V9.05469C5.6875 9.1263 5.70898 9.19076 5.75195 9.24805C5.80924 9.29102 5.8737 9.3125 5.94531 9.3125H6.46094C6.53255 9.3125 6.58984 9.29102 6.63281 9.24805C6.6901 9.19076 6.71875 9.1263 6.71875 9.05469V4.41406C6.71875 4.34245 6.6901 4.28516 6.63281 4.24219C6.58984 4.1849 6.53255 4.15625 6.46094 4.15625ZM9.29688 2.09375C9.4401 2.09375 9.56185 2.14388 9.66211 2.24414C9.76237 2.3444 9.8125 2.46615 9.8125 2.60938V2.86719C9.8125 2.9388 9.78385 3.00326 9.72656 3.06055C9.68359 3.10352 9.6263 3.125 9.55469 3.125H9.125V10.3438C9.125 10.6302 9.02474 10.8737 8.82422 11.0742C8.6237 11.2747 8.38021 11.375 8.09375 11.375H1.90625C1.61979 11.375 1.3763 11.2747 1.17578 11.0742C0.97526 10.8737 0.875 10.6302 0.875 10.3438V3.125H0.445312C0.373698 3.125 0.309245 3.10352 0.251953 3.06055C0.208984 3.00326 0.1875 2.9388 0.1875 2.86719V2.60938C0.1875 2.46615 0.23763 2.3444 0.337891 2.24414C0.438151 2.14388 0.559896 2.09375 0.703125 2.09375H2.29297L3.02344 0.869141C3.1237 0.711589 3.2526 0.589844 3.41016 0.503906C3.56771 0.417969 3.73958 0.375 3.92578 0.375H6.07422C6.26042 0.375 6.43229 0.417969 6.58984 0.503906C6.7474 0.589844 6.8763 0.711589 6.97656 0.869141L7.70703 2.09375H9.29688ZM3.49609 2.09375H6.50391L6.11719 1.4707C6.08854 1.42773 6.05273 1.40625 6.00977 1.40625H3.99023C3.94727 1.40625 3.91146 1.42773 3.88281 1.4707L3.49609 2.09375ZM8.09375 3.125H1.90625V10.2148C1.90625 10.2435 1.92057 10.2721 1.94922 10.3008C1.97786 10.3294 2.00651 10.3438 2.03516 10.3438H7.96484C7.99349 10.3438 8.02214 10.3294 8.05078 10.3008C8.07943 10.2721 8.09375 10.2435 8.09375 10.2148V3.125Z" fill="#4C5569"/>
</svg>
