<svg viewBox="0 0 20 20" fill="none" xmlns="http://www.w3.org/2000/svg">
<path d="M10 19C14.9706 19 19 14.9706 19 10C19 5.02944 14.9706 1 10 1C5.02944 1 1 5.02944 1 10C1 14.9706 5.02944 19 10 19Z" stroke="#1F2A44" stroke-miterlimit="10"/>
<path d="M9.99907 19C12.8085 19 15.086 14.9706 15.086 10C15.086 5.02944 12.8085 1 9.99907 1C7.18962 1 4.91211 5.02944 4.91211 10C4.91211 14.9706 7.18962 19 9.99907 19Z" stroke="#1F2A44" stroke-miterlimit="10"/>
<path d="M2.88672 4.49805C4.5302 5.70326 7.10498 6.47805 10.0006 6.47805C12.8963 6.47805 15.4789 5.70326 17.1224 4.49805" stroke="#1F2A44" stroke-miterlimit="10"/>
<path d="M17.4811 15.001C15.8689 13.6393 13.1219 12.7393 9.99932 12.7393C6.87671 12.7393 4.12975 13.6393 2.51758 15.001" stroke="#1F2A44" stroke-miterlimit="10"/>
</svg>
