<svg width="22" height="17" viewBox="0 0 22 17" fill="none" xmlns="http://www.w3.org/2000/svg">
<path d="M19.1719 0.140625L6.84375 12.5156L2.29688 7.96875C2.20312 7.84375 2.07812 7.78125 1.92188 7.78125C1.76562 7.78125 1.625 7.84375 1.5 7.96875L0.1875 9.28125C0.0625 9.40625 0 9.54688 0 9.70312C0 9.85938 0.0625 9.98438 0.1875 10.0781L6.42188 16.3594C6.54688 16.4531 6.6875 16.5 6.84375 16.5C7 16.5 7.125 16.4531 7.21875 16.3594L21.2812 2.29688C21.4062 2.17188 21.4688 2.03125 21.4688 1.875C21.4688 1.71875 21.4062 1.59375 21.2812 1.5L19.9688 0.140625C19.8438 0.046875 19.7031 0 19.5469 0C19.3906 0 19.2656 0.046875 19.1719 0.140625Z" fill="white"/>
</svg>
