<svg viewBox="0 0 23 19" fill="none" xmlns="http://www.w3.org/2000/svg">
<path d="M1 5.40692C3.72 2.68692 7.47308 1 11.6315 1C15.79 1 19.5431 2.68692 22.2631 5.40692" stroke="#1F2A44" stroke-miterlimit="10" stroke-linecap="round"/>
<path d="M19.488 8.17949C17.4741 6.16565 14.6888 4.92334 11.6288 4.92334C8.56876 4.92334 5.78338 6.16565 3.76953 8.17949" stroke="#1F2A44" stroke-miterlimit="10" stroke-linecap="round"/>
<path d="M16.7188 10.9516C15.4242 9.65696 13.6195 8.84619 11.6318 8.84619C9.64415 8.84619 7.83954 9.65696 6.54492 10.9516" stroke="#1F2A44" stroke-miterlimit="10" stroke-linecap="round"/>
<path d="M11.6315 17.9997C12.7148 17.9997 13.593 17.1215 13.593 16.0382C13.593 14.9549 12.7148 14.0767 11.6315 14.0767C10.5481 14.0767 9.66992 14.9549 9.66992 16.0382C9.66992 17.1215 10.5481 17.9997 11.6315 17.9997Z" stroke="#1F2A44" stroke-miterlimit="10" stroke-linecap="round"/>
</svg>
