<svg width="261" height="170" viewBox="0 0 261 170" fill="none" xmlns="http://www.w3.org/2000/svg">
<g clip-path="url(#clip0)">
<path d="M225.137 170.001C244.852 170.001 260.834 168.416 260.834 166.462C260.834 164.508 244.852 162.924 225.137 162.924C205.422 162.924 189.44 164.508 189.44 166.462C189.44 168.416 205.422 170.001 225.137 170.001Z" fill="#E6E6E6"/>
<path d="M22.1086 166.599C29.1693 166.599 34.893 165.807 34.893 164.83C34.893 163.853 29.1693 163.061 22.1086 163.061C15.048 163.061 9.32422 163.853 9.32422 164.83C9.32422 165.807 15.048 166.599 22.1086 166.599Z" fill="#E6E6E6"/>
<path d="M167.334 0H0V83.9634H167.334V0Z" fill="#D5D5D5"/>
<path d="M159.65 6.83008H7.68359V77.1316H159.65V6.83008Z" fill="white" fill-opacity="0.24"/>
<path d="M7.88486 77.3335L7.48242 76.931L27.889 56.5219L34.2923 62.9258L45.5331 51.6831L59.3354 65.4873L82.8135 42.0059L93.4852 52.6795L116.821 29.3402L129.912 42.4329L153.9 18.4414L154.302 18.8439L129.912 43.2379L116.821 30.1452L93.4852 53.4842L82.8135 42.8109L59.3354 66.2923L45.5331 52.4881L34.2923 63.7308L27.889 57.3266L7.88486 77.3335Z" fill="#1F2A44"/>
<path d="M116.963 33.5848C118.849 33.5848 120.378 32.0557 120.378 30.1694C120.378 28.2831 118.849 26.7539 116.963 26.7539C115.077 26.7539 113.548 28.2831 113.548 30.1694C113.548 32.0557 115.077 33.5848 116.963 33.5848Z" fill="#1F2A44"/>
<path d="M45.8173 55.786C47.7034 55.786 49.2323 54.2568 49.2323 52.3705C49.2323 50.4842 47.7034 48.9551 45.8173 48.9551C43.9313 48.9551 42.4023 50.4842 42.4023 52.3705C42.4023 54.2568 43.9313 55.786 45.8173 55.786Z" fill="#1F2A44"/>
<path d="M93.6279 56.0692C95.5139 56.0692 97.0429 54.5401 97.0429 52.6537C97.0429 50.7674 95.5139 49.2383 93.6279 49.2383C91.7418 49.2383 90.2129 50.7674 90.2129 52.6537C90.2129 54.5401 91.7418 56.0692 93.6279 56.0692Z" fill="#1F2A44"/>
<path d="M60.331 68.8778C62.217 68.8778 63.746 67.3486 63.746 65.4623C63.746 63.576 62.217 62.0469 60.331 62.0469C58.445 62.0469 56.916 63.576 56.916 65.4623C56.916 67.3486 58.445 68.8778 60.331 68.8778Z" fill="#1F2A44"/>
<path d="M82.2441 46.3934C84.1301 46.3934 85.6591 44.8643 85.6591 42.978C85.6591 41.0917 84.1301 39.5625 82.2441 39.5625C80.358 39.5625 78.8291 41.0917 78.8291 42.978C78.8291 44.8643 80.358 46.3934 82.2441 46.3934Z" fill="#1F2A44"/>
<path d="M129.769 46.3934C131.655 46.3934 133.184 44.8643 133.184 42.978C133.184 41.0917 131.655 39.5625 129.769 39.5625C127.883 39.5625 126.354 41.0917 126.354 42.978C126.354 44.8643 127.883 46.3934 129.769 46.3934Z" fill="#1F2A44"/>
<path d="M18.0923 156.133C19.478 161.256 24.2242 164.429 24.2242 164.429C24.2242 164.429 26.7238 159.296 25.3381 154.173C23.9524 149.05 19.2062 145.877 19.2062 145.877C19.2062 145.877 16.7066 151.01 18.0923 156.133Z" fill="#E6E6E6"/>
<path d="M20.1286 155.033C23.9309 158.735 24.3953 164.425 24.3953 164.425C24.3953 164.425 18.695 164.114 14.8927 160.412C11.0904 156.71 10.626 151.02 10.626 151.02C10.626 151.02 16.3263 151.331 20.1286 155.033Z" fill="#FFE063"/>
<path d="M213.154 39.5707L215.332 61.1112H233.256L232.395 28.3697C232.395 21.3223 227.523 15.1582 220.477 15.1582C213.431 15.1582 208.847 21.0351 208.847 28.0825L207.698 61.1112H210.621L213.154 39.5707Z" fill="#1F2A44"/>
<path d="M223.867 152.529C223.867 152.529 223.093 157.43 221.804 158.203C220.514 158.977 228.509 160.782 228.509 160.782L229.798 153.045L223.867 152.529Z" fill="#FBBEBE"/>
<path d="M233.408 96.5625L236.245 99.9153L234.956 111.521L233.924 134.475C233.924 134.475 235.987 154.334 233.924 154.85C231.861 155.366 222.578 155.108 222.836 153.818C223.094 152.529 223.351 151.497 223.867 149.692C224.383 147.886 223.351 141.439 223.351 141.439L224.641 134.217L219.999 103.01L233.408 96.5625Z" fill="#1F2A44"/>
<path d="M224.125 157.428C224.125 157.428 221.288 156.913 221.03 157.428C220.772 157.944 215.873 163.36 215.099 163.36C214.326 163.36 208.652 168.519 214.584 168.776C220.515 169.034 230.314 164.392 230.314 164.392C230.314 164.392 228.872 157.829 228.948 158.145C229.024 158.46 224.125 158.718 224.125 157.428Z" fill="#1F2A44"/>
<path d="M221.03 145.564C221.03 145.564 228.251 153.559 228.509 154.333C228.766 155.107 232.635 154.333 232.635 154.333L234.182 149.175L232.892 147.369L225.672 141.438L221.03 145.564Z" fill="#FBBEBE"/>
<path d="M231.346 151.495L227.606 155.015C227.606 155.015 232.377 162.328 232.377 163.101C232.377 163.875 232.635 170.323 235.214 169.291C237.792 168.26 238.05 157.943 238.05 157.943C238.05 157.943 237.792 147.369 236.245 146.595C234.698 145.822 231.307 146.066 231.307 146.066C231.307 146.066 233.409 151.238 231.346 151.495Z" fill="#1F2A44"/>
<path d="M209.942 73.6082C209.942 73.6082 208.653 77.7347 208.395 78.7664C208.137 79.798 206.59 82.635 206.59 87.0194C206.59 91.4039 207.106 96.5621 206.59 97.0779C206.074 97.5937 197.822 126.479 201.432 129.574C205.043 132.669 216.905 142.986 217.678 144.275C218.452 145.565 218.71 148.66 220.257 148.144C221.804 147.628 227.735 142.47 227.993 141.438C228.251 140.407 224.641 138.601 224.641 138.601C224.641 138.601 217.42 128.027 215.615 128.285C213.81 128.543 214.068 126.995 214.326 126.222C214.584 125.448 215.1 124.932 214.326 124.932C213.552 124.932 214.068 122.869 214.326 121.837C214.584 120.805 220.515 106.878 220.515 106.878L236.245 99.9149C236.245 99.9149 235.472 81.0875 229.798 75.9294L228.509 72.8345C228.509 72.8345 214.068 71.8028 209.942 73.6082Z" fill="#1F2A44"/>
<path d="M216.388 32.8594C216.388 32.8594 217.678 41.8862 214.583 42.402C211.489 42.9178 208.91 42.6599 208.91 42.9178C208.91 43.1757 216.646 51.1709 216.646 51.1709L223.867 50.6551L230.314 43.6915C230.314 43.6915 224.383 42.6599 224.383 39.0492C224.383 35.4384 224.125 32.8594 224.125 32.8594L216.388 32.8594Z" fill="#FFB8B8"/>
<path d="M220.386 36.5978C224.801 36.5978 228.38 33.0182 228.38 28.6026C228.38 24.187 224.801 20.6074 220.386 20.6074C215.971 20.6074 212.392 24.187 212.392 28.6026C212.392 33.0182 215.971 36.5978 220.386 36.5978Z" fill="#FFB8B8"/>
<path d="M215.72 41.7441C215.72 41.7441 203.237 42.9166 202.463 46.2694C201.689 49.6222 207.62 70.5128 208.394 72.3182C209.168 74.1235 208.91 75.4131 208.91 75.4131C210.077 74.5403 211.417 73.9276 212.84 73.6162C214.264 73.3048 215.737 73.3019 217.162 73.6077C222.061 74.6393 229.024 74.1235 229.024 74.1235C229.024 74.1235 231.345 64.5809 231.86 63.5493C232.376 62.5176 234.439 56.8436 234.439 55.2962C234.439 53.7487 237.534 47.301 237.534 47.301C237.534 47.301 235.986 42.6586 230.313 42.9166C230.313 42.9166 227.839 41.8088 227.142 42.6206C226.445 43.4324 222.577 47.0431 217.677 45.4956C212.778 43.9482 215.72 41.7441 215.72 41.7441Z" fill="#E6E6E6"/>
<path d="M232.635 46.0117L237.534 47.3013C237.534 47.3013 241.145 60.4546 241.402 60.7125C241.66 60.9704 241.918 62.5179 241.918 62.5179C241.918 62.5179 241.918 62.7758 242.434 63.5495C242.95 64.3232 243.723 63.8074 243.208 64.8391C242.692 65.8707 241.918 65.3549 242.434 66.3865C242.95 67.4182 242.692 70.2552 242.692 70.2552C242.692 70.2552 241.402 65.3549 236.761 66.6444L233.666 52.7174L232.635 46.0117Z" fill="#E6E6E6"/>
<path d="M234.254 48.4796L234.236 48.5386L225.742 75.3006L220.167 74.0622L214.138 72.7238L222.649 45.127L234.254 48.4796Z" fill="#FFE063"/>
<path d="M207.453 46.0117L202.553 47.3013C202.553 47.3013 198.943 60.4546 198.685 60.7125C198.427 60.9704 198.169 62.5179 198.169 62.5179C198.169 62.5179 198.169 62.7758 197.654 63.5495C197.138 64.3232 196.364 63.8074 196.88 64.8391C197.396 65.8707 198.169 65.3549 197.654 66.3865C197.138 67.4182 197.396 70.2552 197.396 70.2552C197.396 70.2552 198.685 65.3549 203.327 66.6444L206.421 52.7174L207.453 46.0117Z" fill="#E6E6E6"/>
<path d="M198.942 65.8714L197.331 68.564C197.331 68.564 196.621 73.6086 200.231 73.6086C203.842 73.6086 208.999 68.7084 208.999 68.7084C208.999 68.7084 211.578 67.6767 213.125 67.9347C214.672 68.1926 223.182 67.9347 219.572 63.5502C215.962 59.1658 209.773 63.5502 209.773 63.5502L203.326 66.6451L199.973 64.8398L198.942 65.8714Z" fill="#FFB8B8"/>
<path d="M201.135 62.3889L203.714 66.5154C203.714 66.5154 197.783 67.2891 197.267 68.5787C196.751 69.8682 199.588 61.873 199.588 61.873L201.135 62.3889Z" fill="#E6E6E6"/>
<path d="M213.728 25.7837C218.921 22.9835 221.054 23.1021 227.512 25.7837L229.235 21.5852C229.234 20.7947 228.92 20.0368 228.361 19.4778C227.802 18.9188 227.044 18.6044 226.254 18.6035H214.699C213.909 18.6044 213.151 18.9188 212.592 19.4778C212.033 20.0368 211.719 20.7947 211.718 21.5852L213.728 25.7837Z" fill="#1F2A44"/>
<path opacity="0.2" d="M234.236 48.5389L225.742 75.3009L220.167 74.0625L228.546 46.8965L234.236 48.5389Z" fill="black"/>
<path d="M230.314 46.8965L221.804 74.4927L233.408 77.0716L241.918 50.2491L230.314 46.8965Z" fill="#FFE063"/>
<path d="M241.145 65.8714L242.756 68.564C242.756 68.564 243.466 73.6086 239.856 73.6086C236.245 73.6086 231.088 68.7084 231.088 68.7084C231.088 68.7084 228.509 67.6767 226.962 67.9347C225.415 68.1926 216.905 67.9347 220.515 63.5502C224.125 59.1658 230.314 63.5502 230.314 63.5502L236.761 66.6451L240.114 64.8398L241.145 65.8714Z" fill="#FFB8B8"/>
<path d="M238.953 62.3889L236.374 66.5154C236.374 66.5154 242.305 67.2891 242.821 68.5787C243.337 69.8682 240.5 61.873 240.5 61.873L238.953 62.3889Z" fill="#E6E6E6"/>
</g>
<defs>
<clipPath id="clip0">
<rect width="260.833" height="170" fill="white"/>
</clipPath>
</defs>
</svg>
