<svg width="242" height="190" viewBox="0 0 242 190" fill="none" xmlns="http://www.w3.org/2000/svg">
<g clip-path="url(#clip0)">
<path d="M218.813 0.123047H0.0927734V140.382H218.813V0.123047Z" fill="#E6E6E6"/>
<path d="M212.559 17.7168H6.34766V132.086H212.559V17.7168Z" fill="white"/>
<path d="M218.72 0H0V9.30405H218.72V0Z" fill="#FBE122"/>
<path d="M6.9058 6.48207C7.85695 6.48207 8.62801 5.71002 8.62801 4.75764C8.62801 3.80526 7.85695 3.0332 6.9058 3.0332C5.95465 3.0332 5.18359 3.80526 5.18359 4.75764C5.18359 5.71002 5.95465 6.48207 6.9058 6.48207Z" fill="white"/>
<path d="M13.4419 6.48207C14.3931 6.48207 15.1641 5.71002 15.1641 4.75764C15.1641 3.80526 14.3931 3.0332 13.4419 3.0332C12.4908 3.0332 11.7197 3.80526 11.7197 4.75764C11.7197 5.71002 12.4908 6.48207 13.4419 6.48207Z" fill="white"/>
<path d="M19.979 6.48207C20.9302 6.48207 21.7012 5.71002 21.7012 4.75764C21.7012 3.80526 20.9302 3.0332 19.979 3.0332C19.0279 3.0332 18.2568 3.80526 18.2568 4.75764C18.2568 5.71002 19.0279 6.48207 19.979 6.48207Z" fill="white"/>
<path d="M78.0716 29.584H25.085V120.22H78.0716V29.584Z" fill="#E6E6E6"/>
<path d="M131.373 29.584H87.2178V54.5326H131.373V29.584Z" fill="#FBE122"/>
<path d="M131.373 61.4805H87.2178V88.3239H131.373V61.4805Z" fill="#E6E6E6"/>
<path d="M131.373 95.2695H87.2178V120.218H131.373V95.2695Z" fill="#E6E6E6"/>
<path d="M193.823 29.584H140.836V69.0826H193.823V29.584Z" fill="#E6E6E6"/>
<path d="M193.823 80.7207H140.836V120.219H193.823V80.7207Z" fill="#E6E6E6"/>
<path d="M173.41 71.9197V63.4162C173.41 60.3941 174.609 57.4958 176.743 55.3589C178.877 53.222 181.772 52.0215 184.79 52.0215C187.808 52.0215 190.703 53.222 192.837 55.3589C194.971 57.4958 196.17 60.3941 196.17 63.4162V71.9197C196.17 72.3255 196.008 72.7145 195.722 73.0015C195.435 73.2884 195.047 73.4498 194.641 73.4503H174.939C174.534 73.4498 174.145 73.2884 173.858 73.0015C173.572 72.7145 173.411 72.3255 173.41 71.9197Z" fill="#2F2E41"/>
<path d="M201.617 182.582L197.603 183.694L191.408 168.722L197.332 167.08L201.617 182.582Z" fill="#FFB8B8"/>
<path d="M194.419 183.341L202.16 181.196L203.508 186.076L190.894 189.572C190.717 188.931 190.667 188.261 190.749 187.601C190.83 186.941 191.04 186.304 191.368 185.725C191.695 185.147 192.133 184.638 192.656 184.229C193.18 183.82 193.779 183.518 194.419 183.341V183.341Z" fill="#2F2E41"/>
<path d="M159.77 185.672H155.606L153.624 169.588H159.771L159.77 185.672Z" fill="#FFB8B8"/>
<path d="M152.631 184.482H160.663V189.546H147.574C147.574 188.881 147.705 188.223 147.959 187.608C148.213 186.994 148.586 186.436 149.055 185.966C149.525 185.495 150.082 185.122 150.696 184.868C151.31 184.613 151.967 184.482 152.631 184.482V184.482Z" fill="#2F2E41"/>
<path d="M154.749 95.7831C155.046 96.1849 155.427 96.5165 155.867 96.7547C156.306 96.9928 156.792 97.1316 157.29 97.1614C157.789 97.1911 158.288 97.1111 158.752 96.9268C159.216 96.7426 159.634 96.4587 159.977 96.0951L171.048 101.081L170.041 94.8456L159.682 91.067C159.034 90.5308 158.212 90.2513 157.372 90.2815C156.532 90.3117 155.732 90.6495 155.123 91.2308C154.515 91.8121 154.141 92.5966 154.072 93.4356C154.003 94.2746 154.244 95.1099 154.749 95.7831H154.749Z" fill="#FFB8B8"/>
<path d="M177.751 133.281C174.272 133.281 170.672 132.762 167.645 131.219C166.038 130.416 164.615 129.289 163.463 127.91C162.311 126.531 161.455 124.929 160.95 123.203C159.373 118.203 161.361 113.291 163.284 108.541C164.476 105.598 165.601 102.818 165.893 100.077L165.995 99.1046C166.45 94.7346 166.843 90.9605 169.017 89.5449C170.145 88.8112 171.66 88.7693 173.651 89.4167L192.35 95.4989L191.662 131.04L191.549 131.078C191.451 131.111 184.859 133.281 177.751 133.281Z" fill="#2F2E41"/>
<path d="M173.325 78.3496C173.325 78.3496 182.496 75.6285 189.63 76.6489C189.63 76.6489 185.554 99.0981 186.913 106.581C188.271 114.064 163.303 109.472 168.399 102.329L170.097 93.8259C170.097 93.8259 166.7 90.4245 169.758 86.3429L173.325 78.3496Z" fill="#FBE122"/>
<path d="M168.814 132.605L157.51 130.483L161.456 100.072C161.722 99.2228 167.835 79.9549 170.612 78.9124C172.628 78.2015 174.69 77.628 176.783 77.1958L177.185 77.1152L174.918 80.5196L165.894 102.171L168.814 132.605Z" fill="#2F2E41"/>
<path d="M162.924 181.947L148.318 179.509L156.515 145.997L168.711 100.168L168.831 100.982C168.841 101.042 169.98 107.029 186.887 104.373L187.035 104.35L187.076 104.495L207.51 176.787L190.868 179.564L175.689 126.82L162.924 181.947Z" fill="#2F2E41"/>
<path d="M183.167 138.296L183.176 138.039C183.186 137.753 184.191 109.34 183.855 97.9136C183.519 86.4478 187.226 76.5185 187.263 76.4195L187.294 76.3398L187.376 76.3162C192.172 74.9442 196.333 79.0392 196.375 79.0807L196.433 79.1391L195.067 90.4237L200.915 131.459L183.167 138.296Z" fill="#2F2E41"/>
<path d="M182.452 73.2513C187.06 73.2513 190.795 69.511 190.795 64.8971C190.795 60.2833 187.06 56.543 182.452 56.543C177.844 56.543 174.108 60.2833 174.108 64.8971C174.108 69.511 177.844 73.2513 182.452 73.2513Z" fill="#FFB8B8"/>
<path d="M170.717 64.0957C170.719 61.706 171.669 59.4149 173.356 57.7251C175.044 56.0353 177.332 55.0847 179.719 55.082H181.417C183.804 55.0847 186.092 56.0353 187.78 57.7251C189.467 59.4149 190.417 61.706 190.419 64.0957V64.2658H186.83L185.606 60.8332L185.361 64.2658H183.506L182.888 62.5339L182.764 64.2658H170.717V64.0957Z" fill="#2F2E41"/>
<path d="M181.63 74.4056C181.462 74.1771 181.361 73.9056 181.34 73.6223C181.319 73.3391 181.378 73.0556 181.511 72.8045C183.311 69.3766 185.831 63.0424 182.486 59.1362L182.245 58.8555H191.956V73.4542L183.135 75.0128C183.045 75.0286 182.955 75.0366 182.864 75.0367C182.623 75.0367 182.386 74.9795 182.171 74.8697C181.957 74.76 181.772 74.601 181.63 74.4056Z" fill="#2F2E41"/>
<path d="M142.531 14.1328C135.736 8.3914 127.42 4.75139 118.597 3.65577C109.773 2.56014 100.821 4.05614 92.8312 7.9617C84.8411 11.8673 78.157 18.014 73.5921 25.654C69.0273 33.294 66.7786 42.0977 67.1197 50.994C67.4608 59.8903 70.377 68.4956 75.5133 75.7626C80.6497 83.0297 87.7848 88.6452 96.0505 91.9259C104.316 95.2066 113.356 96.0111 122.07 94.2413C130.784 92.4715 138.796 88.2039 145.132 81.9577L201.392 129.491C202.248 130.216 203.357 130.571 204.474 130.477C205.591 130.383 206.625 129.849 207.349 128.992C208.073 128.135 208.427 127.025 208.333 125.906C208.239 124.788 207.706 123.752 206.85 123.028L206.844 123.023L150.583 75.4888C157.119 66.0965 159.916 54.5989 158.427 43.2491C156.937 31.8994 151.268 21.5157 142.531 14.1328V14.1328ZM138.904 70.9116C134.522 76.1126 128.697 79.8955 122.167 81.7818C115.636 83.6682 108.694 83.5732 102.218 81.509C95.742 79.4448 90.0225 75.5041 85.783 70.1851C81.5436 64.8662 78.9745 58.4079 78.4008 51.627C77.8271 44.846 79.2744 38.047 82.5598 32.0898C85.8451 26.1325 90.821 21.2844 96.8581 18.1588C102.895 15.0331 109.722 13.7701 116.476 14.5295C123.23 15.289 129.608 18.0368 134.802 22.4254H134.802C138.251 25.3393 141.093 28.9049 143.166 32.9186C145.238 36.9322 146.501 41.3154 146.882 45.8177C147.263 50.3201 146.755 54.8535 145.386 59.1591C144.017 63.4647 141.815 67.4582 138.904 70.9116V70.9116Z" fill="#3F3D56"/>
<path opacity="0.3" d="M90.4805 75.017C83.8883 69.4468 79.6292 61.5979 78.5489 53.0289C77.4687 44.4599 79.6463 35.7975 84.6494 28.7617C83.9924 29.4243 83.3572 30.1181 82.7439 30.8433C79.8337 34.2967 77.6313 38.2902 76.2625 42.5958C74.8937 46.9014 74.3853 51.4348 74.7662 55.9372C75.1472 60.4396 76.41 64.8227 78.4827 68.8364C80.5554 72.8501 83.3974 76.4157 86.8463 79.3296C90.2952 82.2435 94.2835 84.4487 98.5836 85.8193C102.884 87.1899 107.411 87.699 111.908 87.3176C116.404 86.9361 120.782 85.6716 124.79 83.5962C128.799 81.5209 132.36 78.6752 135.27 75.2219C135.882 74.4957 136.458 73.7521 136.999 72.9909C130.914 79.1127 122.752 82.7193 114.135 83.0947C105.517 83.47 97.0733 80.5866 90.4805 75.017V75.017Z" fill="black"/>
<path d="M185.131 110.387C185.616 110.506 186.121 110.517 186.611 110.419C187.1 110.321 187.563 110.117 187.965 109.82C188.368 109.524 188.7 109.143 188.94 108.705C189.179 108.266 189.32 107.78 189.351 107.281L201.048 104.03L196.293 99.8789L185.915 103.602C185.074 103.605 184.263 103.916 183.636 104.477C183.009 105.038 182.61 105.81 182.513 106.646C182.416 107.482 182.629 108.325 183.112 109.015C183.594 109.704 184.313 110.192 185.131 110.387V110.387Z" fill="#FFB8B8"/>
<path d="M189.992 108.666L189.28 101.895L199.051 96.4976L192.681 88.7764L193.72 80.1029L196.309 78.9922L196.389 79.0958C197.61 80.6673 208.314 94.4976 208.314 96.2073C208.314 97.9633 206.266 103.12 203.465 104.523C200.762 105.876 190.614 108.506 190.183 108.617L189.992 108.666Z" fill="#2F2E41"/>
<path d="M240.689 190.001H111.264C111.173 190.001 111.087 189.965 111.023 189.901C110.96 189.837 110.924 189.751 110.924 189.66C110.924 189.57 110.96 189.484 111.023 189.42C111.087 189.356 111.173 189.32 111.264 189.32H240.689C240.779 189.32 240.866 189.356 240.93 189.42C240.993 189.484 241.029 189.57 241.029 189.66C241.029 189.751 240.993 189.837 240.93 189.901C240.866 189.965 240.779 190.001 240.689 190.001Z" fill="#CCCCCC"/>
</g>
<defs>
<clipPath id="clip0">
<rect width="241.029" height="190" fill="white"/>
</clipPath>
</defs>
</svg>
