<svg width="297" height="190" viewBox="0 0 297 190" fill="none" xmlns="http://www.w3.org/2000/svg">
<g clip-path="url(#clip0)">
<path opacity="0.5" d="M278.475 162.623C277.939 160.412 276.18 158.746 274.884 156.875C273.328 154.568 272.418 151.885 272.25 149.107C272.082 146.329 272.661 143.556 273.928 141.078C275.174 138.709 277.126 136.258 276.42 133.67C275.946 131.93 274.374 130.737 272.829 129.803C266.962 126.269 260.19 124.528 253.346 124.793C244.957 125.135 236.596 128.486 228.369 126.826C220.357 125.204 213.569 121.187 205.186 120.71C198.924 120.355 192.731 120.754 186.456 120.069C170.953 118.387 155.336 118.014 139.77 118.954C124.205 118.014 108.589 118.387 93.0864 120.069C86.8275 120.754 80.6308 120.355 74.3564 120.71C65.9489 121.184 59.1761 125.207 51.161 126.826C42.931 128.489 34.5733 125.135 26.1845 124.793C19.3405 124.528 12.5683 126.269 6.70094 129.803C5.14399 130.737 3.58705 131.93 3.11063 133.67C2.40689 136.255 4.35618 138.705 5.60173 141.078C6.86982 143.556 7.45058 146.328 7.28355 149.106C7.11652 151.885 6.2078 154.567 4.652 156.875C3.35662 158.743 1.59728 160.412 1.06169 162.623C-0.0157175 167.07 4.30636 170.987 8.53502 172.753C20.072 177.576 34.1031 175.244 44.6561 181.96C49.3861 184.975 53.5245 189.814 59.1294 189.994C62.919 190.116 66.3661 188.011 69.6762 186.158C74.6295 183.385 79.8075 181.034 85.1553 179.13C89.8261 177.467 94.7741 176.134 99.7034 176.686C107.23 177.517 139.764 193.236 154.43 183.947C164.475 177.579 172.31 177.526 179.855 176.682C184.784 176.131 189.729 177.464 194.403 179.127C199.751 181.031 204.929 183.382 209.882 186.155C213.189 188.008 216.639 190.113 220.429 189.991C226.034 189.811 230.172 184.972 234.902 181.957C245.449 175.238 259.477 177.573 271.023 172.75C275.23 170.978 279.555 167.073 278.475 162.623Z" fill="url(#paint0_linear)"/>
<path d="M276.949 162.533C276.419 160.353 274.679 158.697 273.399 156.847C271.862 154.564 270.965 151.911 270.801 149.163C270.637 146.416 271.211 143.675 272.465 141.225C273.71 138.88 275.628 136.457 274.931 133.901C274.461 132.179 272.907 130.999 271.381 130.077C265.579 126.582 258.881 124.859 252.112 125.12C243.817 125.456 235.55 128.772 227.41 127.128C219.482 125.528 212.775 121.548 204.47 121.078C198.276 120.729 192.139 121.122 185.948 120.455C170.616 118.792 155.17 118.423 139.776 119.353C124.381 118.423 108.936 118.792 93.6031 120.455C87.4127 121.134 81.2752 120.739 75.0817 121.078C66.7801 121.545 60.0696 125.525 52.1417 127.128C44.0051 128.772 35.7346 125.456 27.4392 125.12C20.6704 124.859 13.9729 126.582 8.17048 130.077C6.64468 131.011 5.09085 132.179 4.62065 133.901C3.92314 136.457 5.86621 138.883 7.08685 141.225C8.34033 143.675 8.91477 146.416 8.75049 149.163C8.58621 151.911 7.68921 154.564 6.15268 156.847C4.86976 158.697 3.13221 160.344 2.60285 162.533C1.50988 166.93 5.78525 170.804 9.96097 172.535C21.3734 177.302 35.2488 174.995 45.6772 181.64C50.3481 184.62 54.4491 189.409 60.0011 189.587C63.7378 189.708 67.1631 187.625 70.4326 185.791C75.3321 183.047 80.4538 180.721 85.7436 178.837C90.3677 177.19 95.2565 175.873 100.133 176.418C107.606 177.252 139.773 192.788 154.265 183.602C164.201 177.305 171.948 177.252 179.409 176.418C184.286 175.873 189.178 177.19 193.799 178.837C199.088 180.721 204.21 183.047 209.11 185.791C212.382 187.622 215.792 189.705 219.541 189.587C225.084 189.409 229.179 184.623 233.865 181.64C244.296 174.995 258.172 177.302 269.581 172.535C273.741 170.804 278.017 166.93 276.949 162.533Z" fill="#1F2A44"/>
<path opacity="0.6" d="M10.8796 68.2626C11.7702 67.9512 12.7168 67.6553 13.6479 67.8173C15.2048 68.0882 16.2978 69.5642 16.7617 71.0806C17.2257 72.5971 17.2101 74.1945 17.506 75.7515C17.8018 77.3084 18.5086 78.9183 19.9036 79.6625C21.2987 80.4067 22.9459 80.114 24.4935 79.9334C26.5234 79.6993 28.5723 79.6805 30.6061 79.8774C32.3125 80.0424 34.3178 80.6185 34.8192 82.2595C35.2302 83.5984 34.4144 84.9654 33.885 86.2577C32.8699 88.6741 32.7889 91.5295 33.9504 93.8774C35.1119 96.2253 37.466 97.9753 38.45 100.454C38.7351 101.074 38.8179 101.768 38.6866 102.437C38.5411 102.906 38.3016 103.341 37.9829 103.714C37.2106 104.707 36.2889 105.582 35.5852 106.629C34.1185 108.808 33.7169 111.518 33.5487 114.136C33.381 116.711 33.3955 119.295 33.5923 121.868C31.6804 121.245 29.5692 121.8 27.5981 121.392C23.4037 120.526 20.7849 115.562 16.5126 115.26C14.4917 115.117 12.3182 116.07 10.5153 115.145C9.65394 114.649 8.97988 113.883 8.59713 112.966C7.8351 111.342 7.66118 109.503 8.10513 107.765C8.41652 106.563 9.0393 105.386 8.91786 104.15C8.8151 103.091 8.17987 102.157 7.45122 101.382C5.37426 99.1772 2.36001 97.8289 0.868459 95.1914C0.190078 93.9386 -0.0929868 92.5097 0.056533 91.0929C0.206053 89.6761 0.781145 88.3378 1.70609 87.2542C2.23845 86.7345 2.74258 86.1867 3.21633 85.6131C3.93252 84.6042 4.1505 83.3307 4.24703 82.0944C4.45254 79.1331 3.93564 75.9975 4.90406 73.1202C5.77283 70.517 8.42586 69.1345 10.8796 68.2626Z" fill="#FBE122"/>
<path opacity="0.6" d="M10.9238 68.3496C10.9238 68.3496 19.4279 115.578 30.4697 121.211" stroke="#535461" stroke-miterlimit="10"/>
<path opacity="0.6" d="M34.5829 81.4219C34.5829 81.4219 25.4748 82.6674 16.376 92.0247" stroke="#535461" stroke-miterlimit="10"/>
<path opacity="0.6" d="M17.9765 97.5111C17.9765 97.5111 10.9672 90.6606 0.015625 91.8221" stroke="#535461" stroke-miterlimit="10"/>
<path opacity="0.6" d="M38.5935 100.49C38.5935 100.49 25.8017 101.577 21.0654 106.488" stroke="#535461" stroke-miterlimit="10"/>
<path opacity="0.6" d="M22.9807 111.062C22.9807 111.062 15.8188 109.817 9.20801 114.036" stroke="#535461" stroke-miterlimit="10"/>
<path opacity="0.6" d="M274.155 31.1639C272.726 30.6563 271.21 30.1923 269.718 30.4508C267.227 30.8867 265.471 33.2533 264.736 35.679C264.001 38.1047 264.016 40.6924 263.543 43.1835C263.07 45.6746 261.936 48.256 259.701 49.4517C257.465 50.6474 254.824 50.1741 252.343 49.8877C249.092 49.5087 245.81 49.4743 242.552 49.7849C239.815 50.0496 236.605 50.9744 235.802 53.6025C235.145 55.7511 236.449 57.9371 237.321 60.0078C238.95 63.8784 239.081 68.4589 237.215 72.2236C235.319 76.0536 231.579 78.7939 230.004 82.7641C229.605 83.773 229.353 84.8909 229.624 85.9402C229.857 86.6929 230.242 87.3901 230.754 87.9892C232 89.5835 233.469 90.9878 234.597 92.66C236.948 96.1476 237.586 100.495 237.86 104.692C238.129 108.819 238.106 112.959 237.791 117.082C240.855 116.073 244.243 116.973 247.401 116.322C254.124 114.937 258.321 106.981 265.169 106.495C268.407 106.268 271.892 107.79 274.781 106.308C276.189 105.586 277.188 104.237 277.858 102.802C279.059 100.2 279.322 97.2619 278.602 94.4879C278.094 92.5604 277.107 90.6765 277.3 88.6929C277.465 86.9958 278.481 85.4981 279.651 84.2587C282.98 80.7245 287.813 78.5634 290.204 74.3379C292.446 70.377 291.88 65.018 288.862 61.6146C288.071 60.7209 287.131 59.9549 286.44 58.9833C285.291 57.3672 284.923 55.3245 284.786 53.3441C284.459 48.5954 285.266 43.5727 283.731 38.961C282.329 34.7635 278.079 32.5433 274.155 31.1639Z" fill="#FBE122"/>
<path opacity="0.6" d="M274.075 31.2871C274.075 31.2871 260.446 106.989 242.743 116.016" stroke="#535461" stroke-miterlimit="10"/>
<path opacity="0.6" d="M236.151 52.2422C236.151 52.2422 250.749 54.2475 265.335 69.2409" stroke="#535461" stroke-miterlimit="10"/>
<path opacity="0.6" d="M262.769 78.0317C262.769 78.0317 274.007 67.0428 291.556 68.9111" stroke="#535461" stroke-miterlimit="10"/>
<path opacity="0.6" d="M229.739 82.8086C229.739 82.8086 250.241 84.5493 257.833 92.4243" stroke="#535461" stroke-miterlimit="10"/>
<path opacity="0.6" d="M254.75 99.7538C254.75 99.7538 266.237 97.7422 276.827 104.518" stroke="#535461" stroke-miterlimit="10"/>
<path d="M23.3262 0V7.7816V154.2H249.684V7.7816V0H23.3262Z" fill="url(#paint1_linear)"/>
<path d="M247.286 6.99609H26.6826V151.409H247.286V6.99609Z" fill="white"/>
<path d="M247.286 0.126953H26.6826V10.7515H247.286V0.126953Z" fill="#CCCCCC"/>
<path d="M35.0781 7.85349C36.5003 7.85349 37.6533 6.70054 37.6533 5.27831C37.6533 3.85607 36.5003 2.70312 35.0781 2.70312C33.6559 2.70312 32.5029 3.85607 32.5029 5.27831C32.5029 6.70054 33.6559 7.85349 35.0781 7.85349Z" fill="#FF5252"/>
<path d="M42.1621 7.85349C43.5843 7.85349 44.7373 6.70054 44.7373 5.27831C44.7373 3.85607 43.5843 2.70312 42.1621 2.70312C40.7399 2.70312 39.5869 3.85607 39.5869 5.27831C39.5869 6.70054 40.7399 7.85349 42.1621 7.85349Z" fill="#FF7F41"/>
<path d="M49.2461 7.85349C50.6683 7.85349 51.8213 6.70054 51.8213 5.27831C51.8213 3.85607 50.6683 2.70312 49.2461 2.70312C47.8238 2.70312 46.6709 3.85607 46.6709 5.27831C46.6709 6.70054 47.8238 7.85349 49.2461 7.85349Z" fill="#69F0AE"/>
<path opacity="0.5" d="M117.343 27.7695H35.1367V31.1948H117.343V27.7695Z" fill="#FBE122"/>
<path opacity="0.5" d="M117.343 34.6211H35.1367V38.0464H117.343V34.6211Z" fill="#FBE122"/>
<path opacity="0.5" d="M117.343 41.4707H35.1367V44.896H117.343V41.4707Z" fill="#FBE122"/>
<path opacity="0.5" d="M117.344 48.3223H63.4736V51.7475H117.344V48.3223Z" fill="#FBE122"/>
<path opacity="0.5" d="M78.4198 55.1719H35.1367V58.5971H78.4198V55.1719Z" fill="#FBE122"/>
<path opacity="0.5" d="M91.8098 62.0234H58.4912V65.4487H91.8098V62.0234Z" fill="#FBE122"/>
<path opacity="0.5" d="M225.084 51.7461H128.242V107.485H225.084V51.7461Z" fill="#FBE122"/>
<path d="M236.606 57.041H139.764V112.78H236.606V57.041Z" fill="#EEEEEE"/>
<path opacity="0.5" d="M294.829 108.464C295.03 108.207 295.14 107.89 295.141 107.564C295.141 107.564 295.141 107.545 295.141 107.539C295.141 107.533 295.159 107.474 295.169 107.443V107.402C295.17 107.372 295.17 107.342 295.169 107.312C295.169 107.312 295.169 107.287 295.169 107.274C295.172 107.237 295.172 107.2 295.169 107.162C294.985 105.917 287.583 97.802 285.734 87.9029C285.529 86.8252 285.223 85.7691 284.821 84.7485C284.878 84.238 284.844 83.7215 284.721 83.2227C284.41 81.9554 283.787 80.6694 284.099 79.4051C284.142 79.2398 284.2 79.0783 284.27 78.9225C284.658 78.3518 285.015 77.7604 285.338 77.1507C285.459 76.9519 285.563 76.7436 285.649 76.5279C286.786 73.5323 283.267 70.4402 283.915 67.3139C284.195 65.9594 285.245 64.7761 285.217 63.3966C285.182 61.8179 283.731 60.5941 282.224 60.0087C280.717 59.4233 279.057 59.2552 277.578 58.6012C274.337 57.1657 272.562 53.7 269.604 51.7725C265.845 49.3281 260.941 49.764 256.435 50.3962C256.287 50.4179 256.146 50.4759 256.025 50.565C255.905 50.6541 255.808 50.7715 255.744 50.9068V50.9068H255.7C255.666 51.0065 255.625 51.103 255.582 51.1995C254.959 52.2614 253.91 53.0679 252.873 53.8121C251.608 54.7027 250.254 55.5808 249.482 56.9011C249.366 57.0972 249.27 57.2841 249.186 57.4647C247.504 60.4633 249.525 61.7587 251.988 62.478C251.915 62.907 251.877 63.3413 251.876 63.7765C251.876 68.136 255.523 71.6951 260.016 71.6951C260.371 71.6947 260.726 71.6718 261.078 71.6266L261.339 71.7979H261.398C262.233 72.3989 262.955 73.1524 263.267 74.0492L260.657 76.0421C260.657 76.0421 260.763 76.3161 260.919 76.7521L250.662 81.479C246.776 81.6596 240.486 69.4189 240.486 69.4189C240.486 69.4189 239.551 62.4002 236.229 61.1391C235.226 60.7592 234.828 61.5532 234.759 62.8486C233.274 64.4055 235.768 73.1493 235.768 73.1493L243.724 87.1898C244.465 88.6285 244.658 89.5284 248.164 90.0702C251.051 90.5124 260.044 87.3175 263.173 86.1591L263.32 87.4047C262.956 88.3542 262.795 89.3692 262.846 90.3847C262.846 92.6796 263.871 96.0177 268.872 98.677C268.872 98.677 274.035 105.35 273.462 111.649C273.462 111.649 273.711 111.911 274.109 112.254C274.053 114.028 273.798 116.217 272.904 117.071C272.845 117.126 272.801 117.196 272.777 117.274C272.752 117.351 272.748 117.433 272.764 117.513C272.745 117.606 272.756 117.703 272.795 117.79C272.834 117.876 272.9 117.948 272.982 117.996L266.465 129.408C266.222 129.719 265.976 130.031 265.724 130.342C264.514 131.884 263.171 133.317 261.71 134.624C260.623 135.592 259.493 136.651 259.269 137.046C258.923 137.669 258.054 139.678 258.422 141.337C258.897 143.35 259.092 145.418 259.001 147.484L258.157 162.247C257.874 163.895 257.484 165.523 256.989 167.12H256.862C256.862 167.12 253.717 170.9 248.722 171.791C243.727 172.682 243.911 175.216 245.39 175.571C246.869 175.926 264.818 175.21 264.818 175.21C264.818 175.21 265.496 173.887 265.31 172.678C271.039 172.127 278.976 171.193 278.976 171.193C278.976 171.193 280.063 168.581 278.484 167.441C277.89 166.984 277.449 166.358 277.22 165.644C277.127 165.246 277.024 164.791 276.924 164.315C276.899 164.081 276.899 163.938 276.899 163.938H276.846C276.569 162.546 276.348 161.054 276.476 160.273C276.94 158.202 278.142 146.232 275.181 142.813C273.835 141.256 274.019 139.488 274.617 138.012C278.17 135.686 283.14 130.681 286.014 127.655C286.176 127.789 286.325 127.923 286.465 128.056L286.559 128.147C286.559 128.147 296.339 123.305 296.38 114.757C296.395 112.563 295.862 110.4 294.829 108.464V108.464ZM263.5 168.761C263.483 168.449 263.494 168.137 263.535 167.827L263.223 167.793C263.404 166.435 263.846 164.916 264.836 163.866C266.537 160.786 267.739 157.457 268.398 154.001L270.195 160.799C270.195 160.799 270.376 162.206 270.426 163.695H270.394C270.394 163.695 267.888 167.273 263.5 168.761Z" fill="url(#paint2_linear)"/>
<path d="M271.621 80.7169C271.621 80.7169 267.227 82.2987 264.77 84.9362C264.77 84.9362 252.816 89.6818 249.475 89.1555C246.134 88.6293 245.959 87.748 245.256 86.353L237.695 72.6519C237.695 72.6519 234.531 61.224 237.695 62.4539C240.859 63.6839 241.743 70.55 241.743 70.55C241.743 70.55 247.722 82.5043 251.412 82.3299L261.423 77.5594C261.423 77.5594 263.709 74.2182 264.764 74.3957C265.82 74.5732 271.621 80.7169 271.621 80.7169Z" fill="#FDB797"/>
<g opacity="0.05">
<path opacity="0.05" d="M271.621 80.7169C271.621 80.7169 267.227 82.2987 264.77 84.9362C264.77 84.9362 252.816 89.6818 249.475 89.1555C246.134 88.6293 245.959 87.748 245.256 86.353L237.695 72.6519C237.695 72.6519 234.531 61.224 237.695 62.4539C240.859 63.6839 241.743 70.55 241.743 70.55C241.743 70.55 247.722 82.5043 251.412 82.3299L261.423 77.5594C261.423 77.5594 263.709 74.2182 264.764 74.3957C265.82 74.5732 271.621 80.7169 271.621 80.7169Z" fill="black"/>
</g>
<path d="M264.404 74.239L260.897 76.9917C260.897 76.9917 262.651 81.5784 262.212 83.1852C261.772 84.792 269.224 80.663 269.224 80.663L266.157 73.7812L264.404 74.239Z" fill="#CCCCCC"/>
<g opacity="0.05">
<path opacity="0.05" d="M264.404 74.239L260.897 76.9917C260.897 76.9917 262.651 81.5784 262.212 83.1852C261.772 84.792 269.224 80.663 269.224 80.663L266.157 73.7812L264.404 74.239Z" fill="#CCCCCC"/>
</g>
<path d="M258.35 71.173C258.35 71.173 266.172 73.7233 262.569 78.2042L273.819 72.7549C273.819 72.7549 269.074 73.1067 266.085 65.9043L258.35 71.173Z" fill="#FDB797"/>
<path d="M273.116 117.061L263.447 134.464L269.955 159.767C269.955 159.767 270.659 165.394 269.603 165.921H276.986C276.986 165.921 275.563 160.938 275.931 159.241C276.37 157.22 277.513 145.54 274.685 142.19C271.858 138.839 276.093 134.455 276.093 134.455L284.531 121.093L273.116 117.061Z" fill="#FDB797"/>
<g opacity="0.05">
<path opacity="0.05" d="M273.116 117.061L263.447 134.464L269.955 159.767C269.955 159.767 270.659 165.394 269.603 165.921H276.986C276.986 165.921 275.669 160.91 275.931 159.241C276.192 157.572 277.513 145.54 274.685 142.19C271.858 138.839 276.093 134.455 276.093 134.455L284.531 121.093L273.116 117.061Z" fill="black"/>
</g>
<path d="M270.142 162.607C270.142 162.607 267.464 166.553 262.793 167.804C258.122 169.056 258.502 171.498 259.932 171.734C261.361 171.971 278.304 169.919 278.304 169.919C278.304 169.919 279.334 167.369 277.836 166.254C276.339 165.139 276.329 162.829 276.329 162.829L270.142 162.607Z" fill="#FBE122"/>
<g opacity="0.1">
<path opacity="0.1" d="M273.645 110.025C273.645 110.025 274.063 115.742 272.54 117.243C272.487 117.293 272.446 117.355 272.421 117.423C272.396 117.492 272.388 117.565 272.397 117.638C272.406 117.71 272.432 117.779 272.473 117.84C272.515 117.9 272.569 117.949 272.633 117.984L277.161 120.398L281.209 112.663L273.645 110.025Z" fill="black"/>
</g>
<path d="M273.645 109.852C273.645 109.852 274.063 115.569 272.54 117.07C272.487 117.119 272.446 117.181 272.421 117.25C272.396 117.318 272.388 117.392 272.397 117.464C272.406 117.536 272.432 117.605 272.473 117.666C272.515 117.726 272.569 117.776 272.633 117.811L277.161 120.224L281.209 112.489L273.645 109.852Z" fill="#84329B"/>
<g opacity="0.1">
<path opacity="0.1" d="M273.645 110.164C273.645 110.164 274.063 115.881 272.54 117.382C272.487 117.432 272.446 117.494 272.421 117.562C272.396 117.631 272.388 117.704 272.397 117.776C272.406 117.849 272.432 117.918 272.473 117.978C272.515 118.038 272.569 118.088 272.633 118.123L277.161 120.536L281.209 112.802L273.645 110.164Z" fill="black"/>
</g>
<path d="M273.819 121.102C273.819 121.102 271.207 122.845 265.723 130.023C264.576 131.526 263.3 132.925 261.908 134.205C260.878 135.139 259.804 136.185 259.589 136.571C259.259 137.166 258.433 139.143 258.785 140.763C259.237 142.73 259.423 144.749 259.336 146.766L258.536 161.187C258.536 161.187 257.481 167.692 256.076 168.395L263.285 169.641C263.285 169.641 262.759 165.07 264.867 162.79C264.867 162.79 269.79 154.352 268.56 144.857C268.56 144.857 268.033 140.638 272.779 138.352C277.525 136.067 287.196 124.991 287.196 124.991L273.819 121.102Z" fill="#FDB797"/>
<path d="M257.294 165.932C257.294 165.932 254.305 169.625 249.559 170.503C244.814 171.381 244.988 173.844 246.396 174.196C247.803 174.548 264.855 173.844 264.855 173.844C264.855 173.844 266.1 171.384 264.68 170.151C263.26 168.918 263.625 166.635 263.625 166.635L257.294 165.932Z" fill="#FBE122"/>
<g opacity="0.1">
<path opacity="0.1" d="M278.217 111.784C278.217 111.784 276.071 118.99 273.353 121.088C273.302 121.126 273.263 121.177 273.239 121.235C273.215 121.293 273.207 121.357 273.217 121.419C273.226 121.481 273.252 121.54 273.292 121.588C273.332 121.637 273.384 121.674 273.443 121.696C275.691 122.515 282.915 125.273 285.425 127.783L285.512 127.87C285.512 127.87 300.543 120.223 292.456 107.213L278.217 111.784Z" fill="black"/>
</g>
<path d="M278.217 111.61C278.217 111.61 276.071 118.816 273.353 120.915C273.302 120.952 273.263 121.003 273.239 121.061C273.215 121.119 273.207 121.183 273.217 121.245C273.226 121.307 273.252 121.366 273.292 121.415C273.332 121.463 273.384 121.5 273.443 121.522C275.691 122.341 282.915 125.1 285.425 127.609L285.512 127.697C285.512 127.697 300.543 120.049 292.456 107.039L278.217 111.61Z" fill="#84329B"/>
<g opacity="0.1">
<path opacity="0.1" d="M265.873 75.8824C264.756 76.6338 263.534 77.2172 262.248 77.6138L263.456 88.366C263.456 88.366 260.632 94.6872 268.709 99.1027C268.709 99.1027 273.614 105.62 273.069 111.773C273.069 111.773 275.7 114.594 277.459 113.894C279.219 113.193 277.634 114.246 277.986 114.071C278.338 113.897 279.038 115.482 284.491 114.087C289.943 112.692 293.832 109.014 293.649 107.781C293.465 106.548 286.465 98.62 284.73 88.9452C282.996 79.2704 272.642 72.3887 272.642 72.3887C272.642 72.3887 272.3 72.5786 271.708 72.8308C269.684 73.6897 267.733 74.7102 265.873 75.8824V75.8824Z" fill="black"/>
</g>
<g opacity="0.1">
<path opacity="0.1" d="M273.215 121.154C273.209 121.23 273.228 121.305 273.269 121.369C273.31 121.433 273.371 121.481 273.442 121.506C275.379 122.213 281.009 124.358 284.135 126.544C281.43 124.358 275.672 122.088 273.215 121.154Z" fill="black"/>
<path opacity="0.1" d="M292.455 107.039L292.144 107.145C299.054 119.224 286.041 126.52 284.904 127.127C285.1 127.289 285.278 127.438 285.44 127.609L285.527 127.697C285.527 127.697 300.542 120.049 292.455 107.039Z" fill="black"/>
</g>
<path d="M284.543 113.718C279.094 115.126 278.39 113.544 278.039 113.718C277.687 113.893 279.284 112.84 277.512 113.544C275.741 114.248 273.119 111.433 273.119 111.433C273.144 111.121 273.156 110.832 273.156 110.53C273.175 104.651 268.709 98.7749 268.709 98.7749C260.613 94.3812 263.434 88.0507 263.434 88.0507L263.104 85.1673L262.198 77.3016C263.483 76.9027 264.702 76.3172 265.817 75.564C267.674 74.3888 269.622 73.3641 271.643 72.5C272.237 72.2446 272.577 72.0547 272.577 72.0547C272.577 72.0547 282.949 78.9052 284.721 88.5801C286.493 98.2549 293.511 106.161 293.686 107.391C293.86 108.621 289.993 112.311 284.543 113.718Z" fill="#CCCCCC"/>
<g opacity="0.1">
<path opacity="0.1" d="M266.258 66.0781L258.523 71.3531C259.59 71.7229 260.604 72.2284 261.541 72.8571C264.175 72.4865 265.788 70.5995 266.875 68.2765C266.451 67.5977 266.638 66.9905 266.258 66.0781Z" fill="black"/>
</g>
<path d="M260.284 72.7589C264.556 72.7589 268.019 69.2958 268.019 65.024C268.019 60.7521 264.556 57.2891 260.284 57.2891C256.012 57.2891 252.549 60.7521 252.549 65.024C252.549 69.2958 256.012 72.7589 260.284 72.7589Z" fill="#FDB797"/>
<g opacity="0.1">
<path opacity="0.1" d="M285.774 112.841C280.324 114.249 279.62 112.667 279.269 112.841C278.917 113.016 280.514 111.963 278.742 112.667C276.971 113.371 274.349 110.556 274.349 110.556C274.374 110.244 274.386 109.955 274.386 109.653C274.408 103.783 269.952 97.8979 269.952 97.8979C261.856 93.5042 264.677 87.1737 264.677 87.1737L264.35 84.2871L263.494 76.8418C263.08 77.0282 262.652 77.1813 262.214 77.2995L263.104 85.1683L263.438 88.0518C263.438 88.0518 260.635 94.3823 268.713 98.776C268.713 98.776 273.169 104.661 273.147 110.531C273.147 110.842 273.147 111.132 273.109 111.434C273.109 111.434 275.747 114.236 277.503 113.545C279.259 112.854 277.677 113.897 278.029 113.72C278.381 113.542 279.085 115.127 284.534 113.72C287.006 113.08 289.323 111.945 291.344 110.385C289.63 111.495 287.75 112.325 285.774 112.841V112.841Z" fill="#CCCCCC"/>
</g>
<path d="M271.182 82.2501C271.182 82.2501 266.789 83.8319 264.332 86.4694C264.332 86.4694 252.378 91.215 249.037 90.6887C245.695 90.1625 245.521 89.2813 244.817 87.8862L237.257 74.1851C237.257 74.1851 234.093 62.7572 237.257 63.9871C240.42 65.2171 241.305 72.0833 241.305 72.0833C241.305 72.0833 247.283 84.0375 250.973 83.8631L260.988 79.0864C260.988 79.0864 263.273 75.7452 264.329 75.9227C265.384 76.1002 271.182 82.2501 271.182 82.2501Z" fill="#FDB797"/>
<g opacity="0.1">
<path opacity="0.1" d="M265.247 75.814C265.247 75.814 261.6 75.4808 260.545 80.052C259.489 84.6232 268.641 87.435 268.641 87.435L273.564 80.5844L265.247 75.814Z" fill="black"/>
</g>
<path d="M265.424 75.814C265.424 75.814 261.778 75.4808 260.722 80.052C259.667 84.6232 268.819 87.435 268.819 87.435L273.742 80.5844L265.424 75.814Z" fill="#CCCCCC"/>
<g opacity="0.1">
<path opacity="0.1" d="M263.936 76.627C263.384 76.905 262.806 77.1282 262.211 77.2933L262.242 77.558C262.823 77.2779 263.388 76.9671 263.936 76.627V76.627Z" fill="black"/>
<path opacity="0.1" d="M293.687 107.391C293.512 106.146 286.478 98.2487 284.722 88.5801C282.965 78.9115 272.577 72.0547 272.577 72.0547C272.577 72.0547 272.235 72.2446 271.643 72.5C270.063 73.1787 268.526 73.9534 267.041 74.8198C268.027 74.3008 269.034 73.8213 270.061 73.3812C270.656 73.1259 270.996 72.9359 270.996 72.9359C270.996 72.9359 281.368 79.7865 283.14 89.4613C284.912 99.1362 291.93 107.042 292.105 108.272C292.217 109.048 290.719 110.801 288.231 112.345C291.647 110.648 293.82 108.319 293.687 107.391Z" fill="black"/>
</g>
<path opacity="0.1" d="M267.515 75.8867C267.515 75.8867 272.061 78.1381 272.917 82.4664" stroke="black" stroke-miterlimit="10"/>
<g opacity="0.1">
<path opacity="0.1" d="M256.397 64.5875C257.123 64.7495 257.933 64.9768 258.291 65.6276C258.549 66.1009 258.502 66.6956 258.755 67.1845C259.402 68.4052 261.302 67.9848 262.491 68.701C264.671 70.015 263.248 74.1129 265.418 75.4332C265.826 75.6823 266.309 75.7819 266.729 76.0093C268.563 77.0119 268.305 79.665 267.975 81.7295C267.645 83.794 268.037 86.6183 270.108 86.911C271.248 87.0698 272.527 86.3162 273.487 86.9483C273.988 87.2784 274.215 87.8825 274.636 88.3216C274.924 88.6096 275.291 88.8069 275.69 88.8894C276.09 88.9718 276.505 88.9357 276.884 88.7855C277.587 88.4928 278.095 87.8233 278.827 87.6085C280.004 87.2628 281.318 88.2157 282.451 87.7766C283.585 87.3376 283.843 85.6997 283.551 84.4635C283.258 83.2273 282.66 81.9724 282.971 80.7268C283.23 79.6992 284.071 78.9145 284.438 77.9243C285.515 75.0004 282.174 71.9799 282.791 68.9252C283.059 67.6018 284.055 66.4341 284.036 65.0982C284.005 63.5413 282.626 62.3611 281.19 61.7882C279.755 61.2152 278.179 61.0533 276.775 60.4149C273.695 59.0137 272.011 55.6258 269.196 53.745C267.935 52.9222 266.514 52.3766 265.026 52.1445C263.106 51.8354 261.143 51.9395 259.267 52.4496C257.391 52.9597 255.645 53.8642 254.146 55.1026C253.869 55.3268 253.586 55.5386 253.299 55.7441C252.097 56.6129 250.808 57.4692 250.076 58.7583C247.405 63.4105 253.542 63.943 256.397 64.5875Z" fill="black"/>
</g>
<path d="M256.615 64.1484C257.341 64.3104 258.15 64.5377 258.508 65.1885C258.767 65.6618 258.72 66.2565 258.972 66.7454C259.62 67.9661 261.519 67.5457 262.709 68.2619C264.889 69.576 263.466 73.6738 265.636 74.9941C266.044 75.2432 266.527 75.3429 266.947 75.5702C268.781 76.5728 268.523 79.2259 268.192 81.2904C267.862 83.3549 268.255 86.1792 270.325 86.4719C271.465 86.6307 272.745 85.8771 273.704 86.5093C274.205 86.8393 274.433 87.4434 274.853 87.8825C275.142 88.1705 275.508 88.3679 275.908 88.4503C276.307 88.5327 276.722 88.4966 277.101 88.3465C277.805 88.0538 278.313 87.3843 279.044 87.1694C280.221 86.8238 281.535 87.7766 282.669 87.3376C283.802 86.8985 284.061 85.2606 283.768 84.0244C283.475 82.7882 282.878 81.5333 283.189 80.2877C283.447 79.2601 284.288 78.4754 284.656 77.4852C285.733 74.5613 282.392 71.5408 283.008 68.4861C283.276 67.1627 284.273 65.995 284.254 64.6591C284.223 63.1022 282.843 61.922 281.408 61.3491C279.972 60.7761 278.397 60.6142 276.992 59.9758C273.913 58.5746 272.228 55.1867 269.413 53.3059C268.269 52.5551 266.989 52.0367 265.645 51.7801C263.667 51.4005 261.629 51.4627 259.677 51.9623C257.725 52.4618 255.907 53.3863 254.354 54.6698C254.08 54.8909 253.797 55.1026 253.517 55.2925C252.315 56.1613 251.026 57.0176 250.294 58.3068C247.622 62.9714 253.763 63.507 256.615 64.1484Z" fill="#1F2A44"/>
<path d="M193.945 112.779H139.764V102.569C153.001 96.3817 173.369 92.9066 193.945 112.779Z" fill="#FBE122"/>
<g opacity="0.1">
<path opacity="0.1" d="M235.982 111.319V112.779H168.411V112.468C168.411 112.468 201.661 80.0929 235.982 111.319Z" fill="black"/>
</g>
<path d="M236.606 111.319V112.779H169.034V112.468C169.034 112.468 202.284 80.0929 236.606 111.319Z" fill="#FBE122"/>
<path d="M150.973 71.9879C153.725 71.9879 155.956 69.7573 155.956 67.0057C155.956 64.2541 153.725 62.0234 150.973 62.0234C148.222 62.0234 145.991 64.2541 145.991 67.0057C145.991 69.7573 148.222 71.9879 150.973 71.9879Z" fill="#FBE122"/>
<path d="M193.391 63.238C192.821 63.238 192.186 63.238 191.753 63.2723C191.559 63.2829 191.368 63.3217 191.186 63.3875L188.256 64.44C190.622 64.4991 193.092 64.4805 195.517 64.4618L209.119 64.3559C210.508 64.3559 211.965 64.331 213.12 64.25C213.896 64.194 214.465 64.113 215.182 64.0507C217.757 63.8203 221.509 63.8639 224.863 63.8764C228.216 63.8888 232.264 63.8016 233.445 63.4653H226.245C225.47 63.4653 224.654 63.4653 223.969 63.428C223.169 63.3813 222.68 63.2941 221.976 63.2318C220.812 63.1322 219.205 63.1197 217.71 63.1135C209.505 63.0792 201.403 63.2723 193.391 63.238Z" fill="#F4F4F4"/>
<path d="M201.45 69.2714C201.325 69.2714 201.188 69.2714 201.095 69.2714C201.052 69.2735 201.011 69.2819 200.97 69.2963L200.348 69.5236C200.861 69.5236 201.394 69.5236 201.92 69.5236L204.866 69.5018C205.177 69.5018 205.489 69.5018 205.732 69.48C205.9 69.48 206.024 69.4489 206.177 69.4364C206.734 69.3866 207.547 69.3959 208.276 69.399C208.9 69.42 209.525 69.3898 210.144 69.3087H208.587C208.419 69.3087 208.241 69.3087 208.095 69.3087C207.949 69.3087 207.815 69.2807 207.662 69.2651C207.41 69.2433 207.061 69.2402 206.728 69.2402C204.953 69.2402 203.197 69.2807 201.45 69.2714Z" fill="#F4F4F4"/>
<path d="M180.587 77.9901C180.462 77.9901 180.325 77.9901 180.232 77.9901C180.189 77.9923 180.147 78.0006 180.107 78.015L179.484 78.2424C179.998 78.2424 180.531 78.2424 181.057 78.2424L184.003 78.2206C184.314 78.2206 184.625 78.2206 184.868 78.1988C185.036 78.1988 185.161 78.1676 185.314 78.1552C185.871 78.1053 186.684 78.1147 187.412 78.1178C188.037 78.1388 188.661 78.1086 189.281 78.0275H187.724C187.556 78.0275 187.378 78.0275 187.232 78.0275C187.085 78.0275 186.951 77.9995 186.799 77.9839C186.547 77.9621 186.198 77.959 185.865 77.959C184.09 77.959 182.334 77.9995 180.587 77.9901Z" fill="#F4F4F4"/>
<path d="M168.882 110.018H166.54C166.54 110.018 165.808 84.4089 168.882 76.5059H169.467C169.467 76.5059 167.418 105.481 168.882 110.018Z" fill="#FBE122"/>
<path d="M167.272 75.1881C167.272 75.1881 165.369 80.4568 166.248 82.7984C166.248 82.7984 167.565 77.9688 169.1 77.237C170.635 76.5052 172.245 82.7984 172.245 82.7984C172.245 82.7984 173.123 78.8469 171.513 75.6365C171.513 75.6365 174.733 77.3927 176.343 80.7588C176.343 80.7588 176.635 78.5791 172.83 74.0266C172.83 74.0266 176.196 74.9047 178.392 76.9536C178.392 76.9536 179.123 75.3438 174.587 72.7094C174.587 72.7094 175.172 70.8068 178.684 71.6849C178.684 71.6849 178.684 69.1938 173.123 69.636C173.123 69.636 173.123 68.0261 176.782 68.3188C176.782 68.3188 176.782 66.2699 172.538 67.0017C172.538 67.0017 173.416 65.6845 174.001 65.3918C173.269 65.3241 172.538 65.5329 171.952 65.9772C171.952 65.9772 172.099 63.3428 169.903 62.3184L169.611 65.9772C169.611 65.9772 167.151 63.0782 167.708 63.6355C167.854 63.7819 168.293 65.5381 168.147 66.4162C168.147 66.4162 165.656 64.3673 162.586 66.5626C162.586 66.5626 166.391 66.8553 166.976 68.1725C166.976 68.1725 163.756 67.5871 163.025 68.0261C163.025 68.0261 165.516 68.9042 165.366 69.4896C165.366 69.4896 160.976 69.4896 160.384 71.0995C160.384 71.0995 164.921 71.6849 165.214 72.124C165.214 72.124 159.945 75.9292 159.652 76.9536C159.652 76.9536 165.067 73.7339 165.945 73.7339C166.824 73.7339 161.994 78.4047 162.287 79.588C162.299 79.5787 166.263 74.8954 167.272 75.1881Z" fill="#FBE122"/>
<path d="M197.763 109.057H199.55C199.55 109.057 200.111 89.4929 197.763 83.4551H197.314C197.314 83.4551 198.884 105.585 197.763 109.057Z" fill="#FBE122"/>
<path d="M198.993 82.4508C198.993 82.4508 200.447 86.4771 199.775 88.2645C199.775 88.2645 198.769 84.5745 197.595 84.0171C196.421 83.4597 195.191 88.2645 195.191 88.2645C195.191 88.2645 194.522 85.2471 195.752 82.7871C194.178 83.7187 192.899 85.0754 192.062 86.7013C192.062 86.7013 191.837 85.0229 194.746 81.5572C194.746 81.5572 192.174 82.2266 190.498 83.7929C190.498 83.7929 189.938 82.5629 193.407 80.5514C193.407 80.5514 192.958 79.0972 190.277 79.7698C190.277 79.7698 190.277 77.8703 194.525 78.2128C194.525 78.2128 194.525 76.9829 191.722 77.2071C191.722 77.2071 191.722 75.6501 194.964 76.2013C194.964 76.2013 194.294 75.1955 193.846 74.9713C194.403 74.9221 194.958 75.0819 195.403 75.4197C195.403 75.4197 195.291 73.4081 196.96 72.6172L197.184 75.4197C197.184 75.4197 199.052 73.2057 198.638 73.6323C198.37 74.3066 198.255 75.0319 198.302 75.756C198.302 75.756 200.201 74.199 202.549 75.8681C202.549 75.8681 199.641 76.0923 199.196 77.0981C199.196 77.0981 201.655 76.6497 202.213 76.986C202.213 76.986 200.313 77.6555 200.426 78.1039C200.426 78.1039 203.779 78.1039 204.228 79.3338C204.228 79.3338 200.762 79.7822 200.538 80.1154C200.538 80.1154 204.564 83.0238 204.785 83.8054C204.785 83.8054 200.65 81.3454 199.977 81.3454C199.305 81.3454 202.994 84.9233 202.78 85.817C202.795 85.8045 199.778 82.2329 198.993 82.4508Z" fill="#FBE122"/>
<path d="M219.165 105.235H220.273C220.273 105.235 220.619 93.1187 219.165 89.3789H218.888C218.888 89.3789 219.856 103.096 219.165 105.235Z" fill="#FBE122"/>
<path d="M219.928 88.7552C219.928 88.7552 220.828 91.2463 220.414 92.3549C220.414 92.3549 219.791 90.0693 219.062 89.7236C218.334 89.378 217.574 92.3549 217.574 92.3549C217.574 92.3549 217.16 90.4865 217.92 88.9607C216.945 89.5372 216.153 90.3769 215.634 91.3833C215.634 91.3833 215.497 90.3433 217.297 88.1978C216.331 88.4666 215.434 88.9391 214.666 89.5835C214.666 89.5835 214.32 88.8206 216.465 87.575C216.465 87.575 216.188 86.6751 214.525 87.0893C214.525 87.0893 214.525 85.9122 217.157 86.1208C217.157 86.1208 217.157 85.3579 215.425 85.4981C215.425 85.4981 215.425 84.5296 217.434 84.8753C217.248 84.5836 217.015 84.3256 216.742 84.1124C217.089 84.0806 217.434 84.1795 217.711 84.3895C217.711 84.3895 217.642 83.144 218.679 82.6582L218.816 84.3895C218.816 84.3895 219.981 83.0194 219.716 83.281C219.55 83.6982 219.479 84.147 219.508 84.595C219.892 84.3146 220.359 84.1693 220.835 84.1817C221.311 84.1941 221.769 84.3635 222.139 84.6635C222.139 84.6635 220.339 84.8006 220.062 85.4265C220.062 85.4265 221.585 85.1493 221.93 85.3579C221.93 85.3579 220.753 85.7721 220.822 86.0492C220.822 86.0492 222.899 86.0492 223.176 86.8121C223.176 86.8121 221.03 87.0893 220.89 87.2979C220.89 87.2979 223.381 89.0977 223.521 89.5835C223.521 89.5835 220.959 88.0608 220.545 88.0608C220.13 88.0608 222.413 90.2779 222.276 90.829C222.282 90.8322 220.411 88.6151 219.928 88.7552Z" fill="#FBE122"/>
<path d="M178.684 91.532L178.45 90.2865C178.45 90.1949 178.431 90.1043 178.395 90.0203C178.358 89.9363 178.305 89.8605 178.239 89.7976L177.158 89.2682C177.078 89.1747 177.013 89.0698 176.965 88.9569L176.984 88.9288C177.043 88.8549 177.086 88.7688 177.108 88.6766C177.11 88.6528 177.11 88.6288 177.108 88.605H177.124C177.223 88.6183 177.325 88.5937 177.407 88.536C177.489 88.4783 177.547 88.3918 177.569 88.2936V88.2656C177.55 88.3497 177.504 88.4255 177.438 88.4816C177.373 88.5376 177.291 88.5711 177.205 88.577C177.355 88.4762 177.478 88.34 177.564 88.1803C177.649 88.0207 177.694 87.8425 177.694 87.6615C177.694 87.6615 177.694 87.6303 177.694 87.6148C177.741 87.5855 177.782 87.5466 177.814 87.5004C177.846 87.4543 177.867 87.402 177.877 87.347V87.3189C177.864 87.3711 177.84 87.4201 177.808 87.4629C177.775 87.5058 177.734 87.5415 177.687 87.5681C177.68 87.4615 177.657 87.3566 177.619 87.2567H177.647C177.753 87.2567 177.856 87.2144 177.931 87.139C178.006 87.0637 178.049 86.9615 178.049 86.855C178.049 86.855 178.049 86.8363 178.049 86.827C178.041 86.928 177.996 87.0227 177.923 87.092C177.849 87.1613 177.751 87.2001 177.65 87.2006H177.6V87.1819C177.72 87.1461 177.826 87.0769 177.908 86.9827C177.99 86.8884 178.043 86.7728 178.061 86.6495C178.061 86.6495 178.061 86.6308 178.061 86.6214C178.056 86.6994 178.028 86.7742 177.98 86.8363C177.985 86.7365 177.953 86.6384 177.89 86.561C177.827 86.4836 177.737 86.4325 177.638 86.4177C177.54 86.4029 177.439 86.4255 177.356 86.481C177.273 86.5365 177.213 86.621 177.189 86.718L177.117 86.6775C177.14 86.5973 177.187 86.526 177.251 86.4736C177.316 86.4211 177.396 86.3901 177.479 86.3848H177.451C177.367 86.3841 177.284 86.4099 177.216 86.4585C177.147 86.5071 177.095 86.5761 177.068 86.6557C176.827 86.5438 176.554 86.5225 176.299 86.5957C176.044 86.6689 175.824 86.8318 175.679 87.0543C175.595 87.1165 175.486 87.2068 175.489 87.2847C175.453 87.3208 175.421 87.3604 175.392 87.403C175.274 87.663 175.231 87.9511 175.268 88.2344C175.285 88.3753 175.268 88.5182 175.218 88.651C175.168 88.7838 175.087 88.9026 174.981 88.9973C175.028 89.0167 175.077 89.0267 175.128 89.0267C175.178 89.0267 175.228 89.0167 175.274 88.9973C175.367 88.9582 175.454 88.9069 175.533 88.8447C175.606 88.8 175.669 88.7394 175.716 88.6673V88.6517C175.768 88.6863 175.823 88.7156 175.881 88.7389C175.903 88.9257 175.909 89.1406 175.825 89.2122L175.841 89.1779C175.64 89.329 175.39 89.4001 175.14 89.3772C174.989 89.3858 174.843 89.4333 174.716 89.5151C174.589 89.597 174.485 89.7104 174.415 89.8443L174.075 91.2611V91.286V91.311C174.08 91.3301 174.091 91.3474 174.105 91.3611C174.119 91.3748 174.137 91.3844 174.156 91.3888L174.262 91.4168C174.278 91.6589 174.254 91.902 174.19 92.1361C174.119 92.4849 174.079 92.8391 174.069 93.1949C174.094 93.3723 174.138 94.2972 174.159 94.7362C174.122 94.8861 174.091 95.0379 174.069 95.1909L173.568 98.1989C173.568 98.1989 173.194 100.606 173.213 101.335L173.147 101.755C173.147 101.755 172.129 103.032 172.428 103.212C172.727 103.393 173.188 103.471 173.627 102.792C173.686 102.632 173.782 102.488 173.907 102.371C173.957 102.328 173.996 102.274 174.02 102.213C174.044 102.151 174.054 102.085 174.047 102.02L174.016 101.708L174.069 101.727H174.1C174.1 101.727 174.601 100.08 174.545 98.9244C174.545 98.9244 175.48 95.6175 176.18 95.0974V95.0756L176.246 95.0445L176.395 98.2487L176.242 101.78L176.208 101.992C176.208 101.992 175.19 103.268 175.489 103.449C175.788 103.63 176.249 103.707 176.688 103.029C176.747 102.869 176.843 102.725 176.968 102.608C177.018 102.565 177.057 102.511 177.081 102.449C177.105 102.388 177.115 102.322 177.108 102.256L177.061 101.789C177.236 101.194 177.684 99.4818 177.501 98.4885L177.812 96.3772C178.123 96.0254 178.083 95.1317 178.083 95.1317C178.329 94.6179 178.394 92.6032 178.394 92.6032L178.456 91.6068C178.503 91.6028 178.55 91.6028 178.597 91.6068H178.628H178.646V91.5881C178.655 91.5802 178.663 91.5707 178.668 91.5601H178.687V91.5352L178.684 91.532ZM177.812 93.5561C177.784 93.4876 177.753 93.4191 177.718 93.3505H177.694V93.3256C177.693 93.3174 177.693 93.309 177.694 93.3007V93.2758C177.708 93.2424 177.721 93.2081 177.731 93.1731C177.771 93.1087 177.792 93.0341 177.79 92.9582C177.827 93.1553 177.834 93.3568 177.812 93.5561V93.5561ZM177.718 92.7029L177.656 92.0365L177.675 91.9836L177.759 92.8305L177.718 92.7029ZM174.767 92.7932C174.745 92.8177 174.729 92.8464 174.719 92.8775C174.71 92.9086 174.707 92.9414 174.71 92.9738C174.71 92.9738 174.71 92.9738 174.71 92.9956C174.711 93.063 174.72 93.13 174.738 93.1949L174.642 93.6121V92.815C174.706 92.7309 174.762 92.6413 174.81 92.5472C174.82 92.6317 174.805 92.7172 174.767 92.7932V92.7932Z" fill="url(#paint3_linear)"/>
<path d="M175.396 87.6489C175.281 87.899 175.239 88.1763 175.274 88.4491C175.291 88.5849 175.274 88.7226 175.226 88.8505C175.177 88.9784 175.099 89.0928 174.997 89.184C175.042 89.2028 175.09 89.2124 175.139 89.2124C175.187 89.2124 175.236 89.2028 175.28 89.184C175.37 89.1465 175.453 89.0973 175.53 89.0377C175.601 88.9945 175.661 88.936 175.707 88.8664C175.75 88.7588 175.764 88.6417 175.748 88.527C175.748 88.3235 175.766 88.1203 175.8 87.9198C175.819 87.7952 175.937 87.4558 175.8 87.3904C175.663 87.325 175.455 87.5554 175.396 87.6489Z" fill="#72351C"/>
<path d="M173.337 100.886L173.241 101.509C173.241 101.509 172.26 102.754 172.55 102.913C172.839 103.072 173.281 103.162 173.705 102.508C173.762 102.355 173.853 102.216 173.973 102.104V102.104C174.021 102.062 174.058 102.009 174.081 101.95C174.104 101.891 174.113 101.827 174.107 101.764L174.01 100.814L173.337 100.886Z" fill="#333333"/>
<path d="M176.29 101.132L176.193 101.755C176.193 101.755 175.212 103 175.502 103.159C175.791 103.318 176.233 103.408 176.657 102.754C176.714 102.601 176.805 102.462 176.925 102.35V102.35C176.973 102.308 177.01 102.255 177.033 102.196C177.056 102.137 177.065 102.073 177.059 102.01L176.962 101.061L176.29 101.132Z" fill="#333333"/>
<path d="M174.76 93.6872C174.76 93.6872 174.299 94.0204 174.137 95.1788L173.655 98.0778C173.655 98.0778 173.247 100.706 173.322 101.21L174.137 101.491C174.137 101.491 174.62 99.9026 174.567 98.7971C174.567 98.7971 175.548 95.3033 176.236 95.0605L176.383 98.1463L176.227 101.618L176.924 101.758C176.924 101.758 177.631 99.5476 177.407 98.3767L177.771 95.8856C177.771 95.8856 178.189 94.556 177.609 93.3945L174.76 93.6872Z" fill="#4D8AF0"/>
<g opacity="0.1">
<path opacity="0.1" d="M176.165 95.1076V95.0547C175.476 95.3007 174.496 98.7914 174.496 98.7914C174.479 99.695 174.337 100.592 174.075 101.457L174.162 101.488C174.162 101.488 174.645 99.8999 174.592 98.7945C174.589 98.7976 175.486 95.6214 176.165 95.1076Z" fill="black"/>
<path opacity="0.1" d="M177.637 93.4102H177.543C177.878 94.1908 177.933 95.063 177.699 95.8795L177.335 98.3706C177.55 99.4791 176.924 101.519 176.858 101.734L176.949 101.752C176.949 101.752 177.656 99.5414 177.431 98.3706L177.796 95.8795C177.796 95.8795 178.216 94.5561 177.637 93.4102Z" fill="black"/>
</g>
<path d="M174.135 91.4183C174.134 91.4422 174.142 91.4655 174.157 91.4843C174.172 91.503 174.192 91.516 174.216 91.5211C174.444 91.5783 174.656 91.6846 174.839 91.8325C175.181 92.1003 174.474 91.2969 174.474 91.2969L174.238 91.3498L174.141 91.437L174.135 91.4183Z" fill="#4C5569"/>
<path opacity="0.1" d="M174.135 91.4183C174.134 91.4422 174.142 91.4655 174.157 91.4843C174.172 91.503 174.192 91.516 174.216 91.5211C174.444 91.5783 174.656 91.6846 174.839 91.8325C175.181 92.1003 174.474 91.2969 174.474 91.2969L174.238 91.3498L174.141 91.437L174.135 91.4183Z" fill="black"/>
<path d="M177.504 92.1272C177.792 91.9227 178.125 91.7912 178.475 91.7442C178.499 91.7442 178.522 91.7347 178.539 91.7177C178.556 91.7008 178.566 91.6778 178.566 91.6539V91.6539C178.566 91.6539 177.75 91.3332 177.504 92.1272Z" fill="#4C5569"/>
<path opacity="0.1" d="M178.566 91.6508C178.566 91.6508 177.75 91.3394 177.504 92.1241C177.504 92.1241 178.105 91.6633 178.522 91.738" fill="black"/>
<path d="M176.558 88.9616C177.144 88.9616 177.62 88.4862 177.62 87.8997C177.62 87.3133 177.144 86.8379 176.558 86.8379C175.971 86.8379 175.496 87.3133 175.496 87.8997C175.496 88.4862 175.971 88.9616 176.558 88.9616Z" fill="#72351C"/>
<path d="M175.826 88.6441C175.826 88.6441 175.975 89.2668 175.826 89.3945C175.676 89.5222 175.374 89.7588 175.601 89.9425C175.829 90.1263 176.642 90.4376 176.912 90.2851C177.183 90.1325 177.492 90.1792 177.417 89.8678C177.342 89.5564 176.751 89.6218 176.741 88.0742L175.826 88.6441Z" fill="#FDB797"/>
<path opacity="0.1" d="M174.321 91.2305C174.344 91.5682 174.322 91.9074 174.256 92.2394C174.187 92.5747 174.148 92.9154 174.138 93.2576C174.169 93.4818 174.234 94.964 174.234 94.964C174.234 94.964 174.116 96.2625 174.748 96.1442C175.38 96.0259 174.652 94.662 174.652 94.662L174.683 92.8902C174.854 92.6573 174.961 92.3835 174.994 92.0961C175.041 91.6695 174.321 91.2305 174.321 91.2305Z" fill="black"/>
<path d="M174.313 91.2305C174.335 91.5682 174.313 91.9074 174.247 92.2394C174.178 92.5747 174.139 92.9154 174.129 93.2576C174.16 93.4818 174.225 94.964 174.225 94.964C174.225 94.964 174.107 96.2625 174.739 96.1442C175.371 96.0259 174.643 94.662 174.643 94.662L174.674 92.8902C174.845 92.6573 174.953 92.3835 174.985 92.0961C175.029 91.6695 174.313 91.2305 174.313 91.2305Z" fill="#FDB797"/>
<path opacity="0.1" d="M178.357 91.3281L178.27 92.7138C178.27 92.7138 178.217 94.6569 177.98 95.1489C177.98 95.1489 178.046 96.5127 177.411 96.4785C176.775 96.4442 177.516 94.9869 177.516 94.9869C177.516 94.9869 177.856 93.4705 177.681 92.9909L177.516 91.3281H178.357Z" fill="black"/>
<path d="M178.367 91.3281L178.28 92.7138C178.28 92.7138 178.227 94.6569 177.99 95.1489C177.99 95.1489 178.056 96.5127 177.42 96.4785C176.785 96.4442 177.526 94.9869 177.526 94.9869C177.526 94.9869 177.866 93.4705 177.691 92.9909L177.526 91.3281H178.367Z" fill="#FDB797"/>
<path opacity="0.1" d="M176.308 89.9858C176.308 89.9858 176.822 90.2225 177.102 89.5187L178.145 90.0294C178.209 90.0904 178.261 90.1638 178.295 90.2452C178.33 90.3266 178.348 90.4142 178.348 90.5027L178.572 91.7047C178.572 91.7047 177.809 91.4462 177.572 92.1562L177.638 92.8319C177.687 92.9987 177.675 93.1777 177.604 93.3363C177.597 93.3506 177.594 93.3659 177.594 93.3815C177.594 93.397 177.597 93.4124 177.604 93.4266C177.619 93.4758 177.623 93.528 177.615 93.5789C177.606 93.6299 177.586 93.6782 177.556 93.72C177.526 93.7618 177.486 93.7959 177.44 93.8195C177.395 93.8432 177.344 93.8558 177.292 93.8563C177.012 93.8596 176.732 93.8814 176.454 93.9217C176.23 93.9871 175.551 93.7941 175.327 93.9217C175.103 94.0494 174.63 93.8252 174.63 93.8252L174.757 93.2772C174.757 93.2772 174.67 93.0094 174.779 92.9128C174.888 92.8163 174.823 91.9787 174.726 91.742C174.726 91.742 174.34 91.3777 174.104 91.4306L174.415 90.045C174.482 89.9157 174.582 89.8062 174.704 89.727C174.826 89.6479 174.967 89.6019 175.112 89.5935C175.354 89.6151 175.595 89.5463 175.788 89.4004C175.788 89.4004 175.555 89.9111 176.308 89.9858Z" fill="black"/>
<path opacity="0.1" d="M176.361 89.9592C176.501 89.9966 176.875 90.037 177.099 89.4734L178.142 89.9841C178.206 90.0451 178.257 90.1185 178.292 90.1999C178.327 90.2813 178.345 90.3689 178.345 90.4574L178.569 91.6594C178.569 91.6594 177.806 91.4009 177.569 92.1109L177.635 92.7866L177.678 92.9205C177.697 92.9777 177.702 93.0386 177.693 93.0981C177.684 93.1576 177.66 93.2141 177.625 93.263C177.611 93.2798 177.601 93.3003 177.597 93.3223C177.593 93.3442 177.595 93.3668 177.604 93.3876C177.619 93.4368 177.623 93.489 177.615 93.5399C177.606 93.5908 177.586 93.6391 177.556 93.6809C177.526 93.7227 177.486 93.7568 177.44 93.7805C177.395 93.8042 177.344 93.8168 177.292 93.8173C177.012 93.8205 176.732 93.8424 176.455 93.8827C176.23 93.9481 175.551 93.755 175.327 93.8827C175.103 94.0104 174.63 93.7862 174.63 93.7862L174.757 93.2381C174.757 93.2381 174.67 92.9703 174.779 92.8738C174.888 92.7773 174.823 91.9396 174.726 91.703C174.726 91.703 174.34 91.3387 174.104 91.3916L174.415 90.0059C174.482 89.8767 174.582 89.7671 174.704 89.688C174.826 89.6088 174.967 89.5628 175.112 89.5544C175.354 89.576 175.595 89.5072 175.788 89.3613C175.788 89.3613 175.536 89.8222 176.199 89.9218L176.361 89.9592Z" fill="black"/>
<path d="M176.361 89.983C176.501 90.0204 176.875 90.0608 177.099 89.4972L178.142 90.0079C178.207 90.0689 178.258 90.1423 178.292 90.2237C178.327 90.3051 178.345 90.3927 178.345 90.4812L178.569 91.6832C178.569 91.6832 177.806 91.4247 177.569 92.1347L177.635 92.8104C177.684 92.9773 177.672 93.1562 177.601 93.3149C177.594 93.3291 177.591 93.3445 177.591 93.36C177.591 93.3756 177.594 93.3909 177.601 93.4052C177.616 93.4544 177.62 93.5065 177.612 93.5575C177.604 93.6084 177.583 93.6567 177.553 93.6985C177.523 93.7403 177.483 93.7744 177.437 93.7981C177.392 93.8218 177.341 93.8344 177.289 93.8349C177.009 93.8381 176.729 93.8599 176.452 93.9003C176.227 93.9657 175.549 93.7726 175.324 93.9003C175.1 94.0279 174.627 93.8037 174.627 93.8037L174.755 93.2557C174.755 93.2557 174.667 92.9879 174.776 92.8914C174.885 92.7948 174.82 91.9572 174.723 91.7205C174.723 91.7205 174.337 91.3562 174.101 91.4092L174.412 90.0235C174.479 89.8942 174.579 89.7847 174.701 89.7055C174.823 89.6264 174.964 89.5804 175.109 89.572C175.351 89.5936 175.592 89.5248 175.785 89.3789C175.785 89.3789 175.533 89.8398 176.196 89.9394L176.361 89.983Z" fill="#4C5569"/>
<path opacity="0.1" d="M176.757 88.1289L175.845 88.6987C175.868 88.8015 175.886 88.9055 175.898 89.0101C176.002 89.0515 176.113 89.0727 176.225 89.0724C176.448 89.0568 176.657 88.9618 176.816 88.8046C176.775 88.5818 176.755 88.3555 176.757 88.1289V88.1289Z" fill="black"/>
<path d="M176.205 89.0046C176.692 89.0046 177.087 88.6101 177.087 88.1234C177.087 87.6367 176.692 87.2422 176.205 87.2422C175.719 87.2422 175.324 87.6367 175.324 88.1234C175.324 88.6101 175.719 89.0046 176.205 89.0046Z" fill="#FDB797"/>
<path d="M177.504 87.448C177.718 87.448 177.89 87.2752 177.89 87.0619C177.89 86.8487 177.718 86.6758 177.504 86.6758C177.291 86.6758 177.118 86.8487 177.118 87.0619C177.118 87.2752 177.291 87.448 177.504 87.448Z" fill="#72351C"/>
<path d="M177.579 87.4694C177.481 87.4697 177.387 87.4329 177.315 87.3664C177.243 87.3 177.199 87.2088 177.192 87.1113C177.192 87.1113 177.192 87.13 177.192 87.1394C177.192 87.2418 177.233 87.34 177.305 87.4124C177.378 87.4848 177.476 87.5255 177.579 87.5255C177.681 87.5255 177.779 87.4848 177.852 87.4124C177.924 87.34 177.965 87.2418 177.965 87.1394C177.965 87.1394 177.965 87.1207 177.965 87.1113C177.958 87.2088 177.914 87.3 177.842 87.3664C177.77 87.4329 177.676 87.4697 177.579 87.4694V87.4694Z" fill="#72351C"/>
<path d="M177.358 87.8356C177.262 87.8174 177.177 87.7636 177.119 87.685C177.061 87.6065 177.035 87.509 177.046 87.4121V87.437C177.028 87.5378 177.05 87.6418 177.108 87.7262C177.166 87.8105 177.256 87.8684 177.356 87.887C177.457 87.9056 177.561 87.8834 177.645 87.8252C177.73 87.7671 177.788 87.6779 177.806 87.5771V87.5491C177.782 87.6453 177.723 87.7286 177.639 87.7819C177.556 87.8352 177.455 87.8545 177.358 87.8356Z" fill="#72351C"/>
<path d="M177.058 88.7711C176.962 88.7529 176.877 88.6991 176.819 88.6206C176.761 88.542 176.735 88.4445 176.747 88.3477V88.3726C176.728 88.4733 176.75 88.5773 176.808 88.6617C176.866 88.7461 176.956 88.8039 177.056 88.8225C177.157 88.8411 177.261 88.8189 177.346 88.7608C177.43 88.7027 177.488 88.6134 177.506 88.5127V88.4847C177.483 88.5808 177.423 88.6642 177.339 88.7175C177.256 88.7708 177.155 88.79 177.058 88.7711V88.7711Z" fill="#72351C"/>
<path d="M177.579 87.2636C177.48 87.2638 177.386 87.2265 177.314 87.1594C177.242 87.0923 177.199 87.0004 177.192 86.9023C177.192 86.9023 177.192 86.921 177.192 86.9304C177.192 87.0328 177.233 87.131 177.305 87.2034C177.378 87.2758 177.476 87.3165 177.579 87.3165C177.681 87.3165 177.779 87.2758 177.852 87.2034C177.924 87.131 177.965 87.0328 177.965 86.9304C177.965 86.9304 177.965 86.9117 177.965 86.9023C177.958 87.0004 177.915 87.0923 177.843 87.1594C177.771 87.2265 177.677 87.2638 177.579 87.2636V87.2636Z" fill="#72351C"/>
<path d="M177.04 87.0549C177.041 86.9567 177.079 86.8624 177.146 86.7913C177.214 86.7201 177.306 86.6774 177.404 86.6719H177.376C177.274 86.6719 177.176 86.7126 177.103 86.785C177.031 86.8574 176.99 86.9556 176.99 87.058C176.99 87.1604 177.031 87.2586 177.103 87.331C177.176 87.4034 177.274 87.4441 177.376 87.4441H177.404C177.305 87.4385 177.212 87.395 177.144 87.3225C177.076 87.25 177.039 87.1542 177.04 87.0549V87.0549Z" fill="#72351C"/>
<path opacity="0.1" d="M177.43 90.6992C177.47 90.8901 177.47 91.0875 177.43 91.2784C177.43 91.2784 177.377 91.7829 177.461 91.87" fill="black"/>
<path opacity="0.1" d="M174.82 90.8164C174.861 91.0073 174.861 91.2047 174.82 91.3956C174.82 91.3956 174.767 91.9 174.851 91.9872" fill="black"/>
<path opacity="0.1" d="M174.798 92.8864C174.881 92.9163 174.973 92.9163 175.056 92.8864C175.158 92.8556 175.266 92.8556 175.368 92.8864" fill="black"/>
<path opacity="0.1" d="M174.929 92.1265C175.232 92.141 175.535 92.0933 175.819 91.9863C175.819 91.9863 176.915 92.2541 177.227 92.0611" fill="black"/>
<path d="M174.599 96.7539H174.34C174.225 96.7539 174.132 96.8473 174.132 96.9625C174.132 97.0778 174.225 97.1712 174.34 97.1712H174.599C174.714 97.1712 174.808 97.0778 174.808 96.9625C174.808 96.8473 174.714 96.7539 174.599 96.7539Z" fill="#FDB797"/>
<path d="M174.135 96.8671L174.496 96.8516L174.807 96.9014H174.698L174.135 96.8671Z" fill="#F0E4E4"/>
<path d="M176.569 95.1191H176.931L177.242 95.1503H177.133L176.569 95.1191Z" fill="#F0E4E4"/>
<path d="M176.569 95.1934H176.931L177.242 95.2245H177.133L176.569 95.1934Z" fill="#F0E4E4"/>
<path d="M176.569 95.2715H176.931L177.242 95.3026H177.133L176.569 95.2715Z" fill="#F0E4E4"/>
<path d="M176.569 95.3477H176.931L177.242 95.3788H177.133L176.569 95.3477Z" fill="#F0E4E4"/>
<path d="M174.135 97.1562H174.496L174.807 97.1936H174.698L174.135 97.1562Z" fill="#F0E4E4"/>
<path d="M174.135 97.1191H174.496L174.807 97.1565H174.698L174.135 97.1191Z" fill="#F0E4E4"/>
<path d="M174.135 97.082H174.496L174.807 97.1194H174.698L174.135 97.082Z" fill="#F0E4E4"/>
<path d="M174.135 97.0449H174.496L174.807 97.0823H174.698L174.135 97.0449Z" fill="#F0E4E4"/>
<path d="M174.135 96.8105L174.496 96.7949L174.807 96.8447H174.698L174.135 96.8105Z" fill="#F0E4E4"/>
<path d="M174.135 96.7441L174.496 96.7285L174.807 96.7784H174.698L174.135 96.7441Z" fill="#F0E4E4"/>
<path opacity="0.1" d="M176.355 87.5589C176.321 87.888 176.364 88.2207 176.48 88.5305C176.538 88.6808 176.563 88.8416 176.555 89.0025C176.547 89.1634 176.506 89.3208 176.433 89.4646C176.481 89.4756 176.531 89.4751 176.578 89.4632C176.626 89.4513 176.67 89.4283 176.707 89.3961C176.785 89.3283 176.852 89.2497 176.907 89.1626C176.964 89.0915 177.006 89.0086 177.028 88.9197C177.037 88.7798 177.016 88.6395 176.966 88.5087C176.905 88.2701 176.862 88.0277 176.835 87.7831C176.816 87.6336 176.835 87.2039 176.667 87.1603C176.499 87.1167 176.387 87.4344 176.355 87.5589Z" fill="black"/>
<path d="M176.377 87.5492C176.342 87.8783 176.385 88.2109 176.501 88.5207C176.559 88.6711 176.585 88.8319 176.577 88.9927C176.569 89.1536 176.527 89.311 176.455 89.4549C176.503 89.4659 176.552 89.4654 176.6 89.4535C176.648 89.4416 176.692 89.4186 176.729 89.3864C176.806 89.3186 176.873 89.2399 176.928 89.1528C176.986 89.0818 177.027 88.9989 177.049 88.91C177.059 88.77 177.038 88.6298 176.987 88.4989C176.927 88.2604 176.883 88.018 176.856 87.7734C176.838 87.6239 176.856 87.1942 176.688 87.1506C176.52 87.107 176.408 87.4215 176.377 87.5492Z" fill="#72351C"/>
<path opacity="0.1" d="M175.997 87.7792C176.072 87.857 176.088 87.9722 176.15 88.0594C176.205 88.1188 176.273 88.1652 176.348 88.1953C176.424 88.2255 176.505 88.2386 176.586 88.2338C176.63 88.2314 176.674 88.2411 176.713 88.2618C176.782 88.3054 176.785 88.405 176.829 88.4735C176.852 88.4985 176.88 88.5185 176.911 88.5321C176.943 88.5457 176.977 88.5527 177.011 88.5527C177.045 88.5527 177.079 88.5457 177.11 88.5321C177.141 88.5185 177.17 88.4985 177.193 88.4735C177.283 88.3661 177.332 88.2306 177.333 88.0905C177.348 87.9363 177.348 87.7809 177.333 87.6266C177.329 87.4499 177.259 87.2811 177.137 87.1533C177.035 87.0776 176.916 87.0264 176.791 87.0038C176.62 86.9435 176.437 86.9295 176.259 86.9633C176.172 86.9921 176.091 87.033 176.016 87.0848C175.91 87.1533 175.806 87.2228 175.705 87.2934C175.589 87.3744 175.371 87.5363 175.583 87.6235C175.717 87.6857 175.885 87.6577 175.997 87.7792Z" fill="black"/>
<path d="M176.019 87.7675C176.093 87.8453 176.109 87.9605 176.171 88.0477C176.227 88.1071 176.294 88.1535 176.37 88.1836C176.445 88.2138 176.526 88.2269 176.607 88.2221C176.652 88.2197 176.696 88.2294 176.735 88.2501C176.803 88.2937 176.807 88.3934 176.85 88.4619C176.873 88.4868 176.902 88.5068 176.933 88.5204C176.964 88.534 176.998 88.541 177.032 88.541C177.066 88.541 177.1 88.534 177.132 88.5204C177.163 88.5068 177.191 88.4868 177.214 88.4619C177.304 88.3544 177.354 88.2189 177.355 88.0788C177.37 87.9245 177.37 87.7692 177.355 87.6149C177.35 87.4382 177.28 87.2694 177.158 87.1416C177.056 87.0659 176.938 87.0147 176.813 86.9921C176.642 86.9318 176.458 86.9178 176.28 86.9516C176.194 86.9804 176.112 87.0212 176.037 87.073C175.932 87.1415 175.828 87.2111 175.726 87.2817C175.611 87.3626 175.393 87.5246 175.605 87.6118C175.738 87.674 175.916 87.6491 176.019 87.7675Z" fill="#72351C"/>
<path d="M176.592 95.1191H176.953L177.264 95.1503H177.162L176.592 95.1191Z" fill="#F0E4E4"/>
<path d="M176.592 95.1934H176.953L177.264 95.2245H177.162L176.592 95.1934Z" fill="#F0E4E4"/>
<path d="M176.592 95.2715H176.953L177.264 95.3026H177.162L176.592 95.2715Z" fill="#F0E4E4"/>
<path d="M176.592 95.3477H176.953L177.264 95.3788H177.162L176.592 95.3477Z" fill="#F0E4E4"/>
<path d="M176.436 99.4785H176.797L177.108 99.5097H176.999L176.436 99.4785Z" fill="#F0E4E4"/>
<path d="M176.436 99.5566H176.797L177.108 99.5878H176.999L176.436 99.5566Z" fill="#F0E4E4"/>
<path d="M176.436 99.6309H176.797L177.108 99.662H176.999L176.436 99.6309Z" fill="#F0E4E4"/>
<path d="M176.436 99.707H176.797L177.108 99.7382H176.999L176.436 99.707Z" fill="#F0E4E4"/>
</g>
<defs>
<linearGradient id="paint0_linear" x1="139.764" y1="189.997" x2="139.764" y2="118.459" gradientUnits="userSpaceOnUse">
<stop stop-color="#808080" stop-opacity="0.25"/>
<stop offset="0.54" stop-color="#808080" stop-opacity="0.12"/>
<stop offset="1" stop-color="#808080" stop-opacity="0.1"/>
</linearGradient>
<linearGradient id="paint1_linear" x1="99251.8" y1="76359.7" x2="99251.8" y2="0" gradientUnits="userSpaceOnUse">
<stop stop-color="#808080" stop-opacity="0.94"/>
<stop offset="0.54" stop-color="#808080" stop-opacity="0.12"/>
<stop offset="1" stop-color="#CCCCCC"/>
</linearGradient>
<linearGradient id="paint2_linear" x1="60849.5" y1="89223" x2="60849.5" y2="38429.2" gradientUnits="userSpaceOnUse">
<stop stop-color="#808080" stop-opacity="0.25"/>
<stop offset="0.54" stop-color="#808080" stop-opacity="0.12"/>
<stop offset="1" stop-color="#808080" stop-opacity="0.1"/>
</linearGradient>
<linearGradient id="paint3_linear" x1="4514.85" y1="8296.04" x2="4514.85" y2="7344.76" gradientUnits="userSpaceOnUse">
<stop stop-color="#808080" stop-opacity="0.25"/>
<stop offset="0.54" stop-color="#808080" stop-opacity="0.12"/>
<stop offset="1" stop-color="#808080" stop-opacity="0.1"/>
</linearGradient>
<clipPath id="clip0">
<rect width="296.392" height="190" fill="white"/>
</clipPath>
</defs>
</svg>
