<svg width="236" height="190" viewBox="0 0 236 190" fill="none" xmlns="http://www.w3.org/2000/svg">
<g clip-path="url(#clip0)">
<path d="M119.314 190C183.663 190 235.828 185.925 235.828 180.897C235.828 175.87 183.663 171.795 119.314 171.795C54.9657 171.795 2.80078 175.87 2.80078 180.897C2.80078 185.925 54.9657 190 119.314 190Z" fill="#1B365D"/>
<path d="M218.286 163.987L219.378 171.995L211.734 172.723L212.826 162.895L218.286 163.987Z" fill="#A0616A"/>
<path d="M182.249 54.0557C182.249 54.0557 182.977 63.884 182.977 64.248C182.977 64.612 177.881 89.7288 177.881 89.7288C177.881 89.7288 170.6 103.561 177.881 103.197C185.161 102.833 182.977 90.0929 182.977 90.0929L190.621 68.9802L187.345 54.0557L182.249 54.0557Z" fill="#A0616A"/>
<path d="M194.261 163.987L193.169 171.995L200.814 172.723L199.722 162.895L194.261 163.987Z" fill="#A0616A"/>
<path d="M185.889 89.0008L184.069 91.5489C184.069 91.5489 182.977 102.469 184.069 106.109C185.161 109.75 187.345 126.494 187.345 127.586C187.345 128.678 187.709 129.406 187.345 129.77C186.981 130.134 185.889 130.134 186.617 130.862C187.345 131.59 187.345 133.774 187.345 133.774V135.594L192.077 162.531C192.077 162.531 189.165 165.807 191.349 165.807C193.533 165.807 201.541 165.807 201.177 162.167L200.449 161.803C200.449 161.803 199.357 137.778 199.721 136.686C200.085 135.594 199.721 133.41 199.721 133.41C199.721 133.41 198.993 132.318 199.721 131.954C200.449 131.59 200.449 128.678 200.449 128.678L203.725 106.473C203.725 106.473 206.638 121.398 208.458 122.854C210.278 124.31 209.914 127.95 209.914 127.95L211.37 159.983C211.37 159.983 209.914 163.623 211.37 164.351C212.826 165.079 219.014 167.627 219.378 163.987C219.742 160.347 221.562 128.678 221.562 127.222C221.562 125.766 221.198 125.038 221.562 123.946C221.926 122.854 221.198 122.854 221.562 122.854C221.926 122.854 220.834 121.762 220.834 121.034V103.197C220.834 103.197 221.198 99.5572 221.562 98.8292C221.926 98.1011 221.198 97.3731 221.562 96.2811C221.926 95.189 220.834 91.5489 220.834 91.5489L204.454 87.1808L185.889 89.0008Z" fill="#4D5A6D"/>
<path d="M198.629 170.539C198.629 170.539 200.449 168.719 197.901 168.719C196.265 168.753 194.654 169.125 193.169 169.811L191.349 176.364C191.349 176.364 183.887 182.37 192.259 181.642C200.631 180.914 199.357 181.46 199.357 181.46C199.357 181.46 201.905 180.732 202.269 180.004C202.633 179.276 201.541 168.719 201.541 168.719C201.541 168.719 200.449 171.631 198.629 170.539Z" fill="#4D5A6D"/>
<path d="M214.282 170.539C214.282 170.539 212.462 168.719 215.01 168.719C216.646 168.753 218.257 169.125 219.742 169.811L221.562 176.364C221.562 176.364 229.024 182.37 220.652 181.642C212.28 180.914 212.462 181.46 212.462 181.46C212.462 181.46 209.914 180.732 209.55 180.004C209.186 179.276 211.37 168.719 211.37 168.719C211.37 168.719 212.462 171.631 214.282 170.539Z" fill="#4D5A6D"/>
<path d="M190.621 25.2988C195.848 25.2988 200.085 21.0615 200.085 15.8345C200.085 10.6075 195.848 6.37021 190.621 6.37021C185.394 6.37021 181.157 10.6075 181.157 15.8345C181.157 21.0615 185.394 25.2988 190.621 25.2988Z" fill="#A0616A"/>
<path d="M187.345 22.7507C187.345 22.7507 188.801 30.0309 188.801 31.123C188.801 32.215 194.989 35.4911 194.989 35.4911L201.905 26.7548C201.905 26.7548 197.537 20.5666 197.537 19.1106L187.345 22.7507Z" fill="#A0616A"/>
<path d="M192.805 32.215C192.805 32.215 189.633 31.3706 188.671 29.9728C188.671 29.9728 178.609 39.8593 178.609 41.6793L186.617 55.8758C186.617 55.8758 186.617 60.972 187.345 61.336C188.073 61.7 187.345 61.336 187.345 62.792C187.345 64.2481 185.161 73.7124 185.889 75.1684C186.617 76.6245 187.345 75.5324 186.617 77.7165C185.889 79.9006 184.069 91.5489 184.069 91.5489C184.069 91.5489 190.621 89.3649 200.085 93.005C209.55 96.6451 220.834 91.5489 220.834 91.5489C220.834 91.5489 217.922 84.9967 218.65 82.8127C219.378 80.6286 216.83 76.6245 216.83 76.6245L215.01 43.1354C215.01 43.1354 217.558 28.2109 215.738 27.4829L212.098 26.0268L200.441 24.5941C200.441 24.5941 197.537 31.851 192.805 32.215Z" fill="#D0CDE1"/>
<path d="M182.249 39.1313L178.609 41.6793C178.609 41.6793 176.789 47.1395 178.609 49.6876C180.429 52.2357 181.157 55.8758 181.157 55.8758L188.437 55.1478L182.249 39.1313Z" fill="#D0CDE1"/>
<path d="M183.395 5.83236L181.753 5.17511C181.753 5.17511 185.186 1.39598 189.962 1.72461L188.619 0.245801C188.619 0.245801 191.902 -1.06867 194.887 2.38183C196.456 4.19569 198.272 6.32778 199.403 8.72955H201.161L200.428 10.3453L202.996 11.961L200.36 11.6708C200.61 13.0656 200.524 14.4999 200.111 15.8553L200.181 17.1323C200.181 17.1323 197.126 12.4047 197.126 11.7475V13.3906C197.126 13.3906 195.484 11.9118 195.484 10.926L194.588 12.0761L194.141 10.2687L188.619 12.0761L189.514 10.5974L186.082 11.0903L187.425 9.28287C187.425 9.28287 183.544 11.4189 183.395 13.2263C183.246 15.0337 181.306 17.3341 181.306 17.3341L180.41 15.691C180.41 15.691 179.067 8.297 183.395 5.83236Z" fill="#4D5A6D"/>
<path d="M185.59 79.2157H40.9391V180.828H185.59V79.2157Z" fill="#F2F2F2"/>
<path d="M89.4361 117.986H53.1158V181.389H89.4361V117.986Z" fill="#1B365D"/>
<path d="M69.6177 121.789H59.834V130.91H69.6177V121.789Z" fill="#F2F2F2"/>
<path d="M82.7179 121.789H72.9343V130.91H82.7179V121.789Z" fill="#F2F2F2"/>
<path d="M69.6177 134.226H59.834V143.678H69.6177V134.226Z" fill="#F2F2F2"/>
<path d="M82.7179 134.226H72.9343V143.678H82.7179V134.226Z" fill="#F2F2F2"/>
<path d="M84.8174 156.265C86.0928 156.265 87.1268 155.231 87.1268 153.956C87.1268 152.68 86.0928 151.646 84.8174 151.646C83.5419 151.646 82.508 152.68 82.508 153.956C82.508 155.231 83.5419 156.265 84.8174 156.265Z" fill="#FBE122"/>
<path d="M173.414 111.967H101.613V172.221H173.414V111.967Z" fill="#1B365D"/>
<path d="M200.706 98.3458H25.8231L37.4834 73.967L40.0929 68.5085L43.5068 61.3704L46.1164 55.9119L49.1415 49.5885H186.928L188.714 55.9119L190.257 61.3704L192.275 68.5085L193.818 73.967L200.706 98.3458Z" fill="#1B365D"/>
<path d="M106.651 136.95H104.132V152.486H106.651V136.95Z" fill="#FBE122"/>
<path d="M106.651 139.26H104.132V141.149H106.651V139.26Z" fill="#F2F2F2"/>
<path d="M106.651 148.287H104.132V150.177H106.651V148.287Z" fill="#F2F2F2"/>
<path d="M113.999 136.95H107.911V152.486H113.999V136.95Z" fill="#FBE122"/>
<path d="M113.999 139.26H107.911V141.149H113.999V139.26Z" fill="#F2F2F2"/>
<path d="M113.999 148.287H107.911V150.177H113.999V148.287Z" fill="#F2F2F2"/>
<path d="M117.988 136.95H115.469V152.486H117.988V136.95Z" fill="#FBE122"/>
<path d="M117.988 139.26H115.469V141.149H117.988V139.26Z" fill="#F2F2F2"/>
<path d="M117.988 148.287H115.469V150.177H117.988V148.287Z" fill="#F2F2F2"/>
<path d="M121.767 136.95H119.248V152.486H121.767V136.95Z" fill="#FBE122"/>
<path d="M121.767 139.26H119.248V141.149H121.767V139.26Z" fill="#F2F2F2"/>
<path d="M121.767 148.287H119.248V150.177H121.767V148.287Z" fill="#F2F2F2"/>
<path d="M124.195 137.005L121.838 137.894L127.318 152.431L129.675 151.542L124.195 137.005Z" fill="#FBE122"/>
<path d="M125.01 139.166L122.652 140.055L123.319 141.823L125.676 140.934L125.01 139.166Z" fill="#F2F2F2"/>
<path d="M128.194 147.613L125.837 148.502L126.503 150.27L128.86 149.382L128.194 147.613Z" fill="#F2F2F2"/>
<path d="M171.104 136.95H165.016V152.486H171.104V136.95Z" fill="#FBE122"/>
<path d="M171.104 139.26H165.016V141.149H171.104V139.26Z" fill="#F2F2F2"/>
<path d="M171.104 148.287H165.016V150.177H171.104V148.287Z" fill="#F2F2F2"/>
<path d="M163.546 136.95H161.027V152.486H163.546V136.95Z" fill="#FBE122"/>
<path d="M163.546 139.26H161.027V141.149H163.546V139.26Z" fill="#F2F2F2"/>
<path d="M163.546 148.287H161.027V150.177H163.546V148.287Z" fill="#F2F2F2"/>
<path d="M159.767 136.95H157.248V152.486H159.767V136.95Z" fill="#FBE122"/>
<path d="M159.767 139.26H157.248V141.149H159.767V139.26Z" fill="#F2F2F2"/>
<path d="M159.767 148.287H157.248V150.177H159.767V148.287Z" fill="#F2F2F2"/>
<path d="M154.82 137.005L149.34 151.542L151.698 152.431L157.178 137.894L154.82 137.005Z" fill="#FBE122"/>
<path d="M154.006 139.166L153.339 140.934L155.697 141.823L156.363 140.055L154.006 139.166Z" fill="#F2F2F2"/>
<path d="M150.821 147.613L150.155 149.382L152.512 150.27L153.179 148.502L150.821 147.613Z" fill="#F2F2F2"/>
<path d="M173.414 152.486H101.613V153.956H173.414V152.486Z" fill="#F2F2F2"/>
<path d="M146.121 136.95H132.894V152.486H146.121V136.95Z" fill="#FBE122"/>
<path d="M142.867 140.309H136.149V143.249H142.867V140.309Z" fill="#F2F2F2"/>
<path d="M138.143 111.967H136.883V125.403H138.143V111.967Z" fill="#F2F2F2"/>
<path d="M137.513 127.503C138.673 127.503 139.613 126.563 139.613 125.403C139.613 124.244 138.673 123.304 137.513 123.304C136.354 123.304 135.414 124.244 135.414 125.403C135.414 126.563 136.354 127.503 137.513 127.503Z" fill="#F2F2F2"/>
<path d="M190.257 61.3704H43.5069L46.1164 55.9119H188.714L190.257 61.3704Z" fill="#FBE122"/>
<path d="M193.818 73.967H37.4835L40.093 68.5085H192.275L193.818 73.967Z" fill="#FBE122"/>
<path d="M209.186 42.4073C209.186 42.4073 207.078 47.8278 207.518 53.1907C207.599 54.1509 207.922 55.0749 208.458 55.8758V55.8758L182.633 68.1361C182.633 68.1361 170.964 69.3442 173.877 74.4404C176.789 79.5365 187.345 71.8923 187.345 71.8923C187.345 71.8923 215.01 67.8882 217.194 63.884C219.378 59.8799 220.834 43.1354 220.834 43.1354L209.186 42.4073Z" fill="#A0616A"/>
<path d="M210.278 27.4829H215.738C215.738 27.4829 219.742 28.2109 220.834 35.4911C221.926 42.7714 223.018 44.5914 221.926 44.5914C220.834 44.5914 207.73 44.2274 207.73 43.8634C207.73 43.4994 210.278 27.4829 210.278 27.4829Z" fill="#D0CDE1"/>
<path d="M36.5 76C20.216 76 7 89.216 7 105.5C7 121.784 20.216 135 36.5 135C52.784 135 66 121.784 66 105.5C66 89.216 52.784 76 36.5 76ZM36.5 128.156C23.992 128.156 13.844 118.008 13.844 105.5C13.844 92.992 23.992 82.844 36.5 82.844C49.008 82.844 59.156 92.992 59.156 105.5C59.156 118.008 49.008 128.156 36.5 128.156Z" fill="#FBE122"/>
<path d="M36.5 89C27.9403 89 21 96.1642 21 105C21 113.836 27.9403 121 36.5 121C45.0597 121 52 113.836 52 105C52 96.1642 45.0597 89 36.5 89Z" fill="#FBE122"/>
</g>
<defs>
<clipPath id="clip0">
<rect width="235.828" height="190" fill="white"/>
</clipPath>
</defs>
</svg>
