<svg width="263" height="190" viewBox="0 0 263 190" fill="none" xmlns="http://www.w3.org/2000/svg">
<g clip-path="url(#clip0)">
<path opacity="0.52" d="M226.66 108.995C218.358 122.574 219.826 141.017 223.383 155.56C224.574 160.43 225.949 165.564 224.89 171.021C223.595 177.692 218.954 182.951 214.267 185.961C205.721 191.451 195.992 191.339 188.946 185.671C182.847 180.772 178.854 172.202 172.633 167.568C162.21 159.814 147.854 164.603 135.366 171.951C126.53 177.147 116.806 183.723 108.681 180.059C102.964 177.48 99.4289 170.152 97.7903 162.166C97.0014 158.311 96.5339 154.099 94.7005 151.165C93.6098 149.422 92.1051 148.258 90.5444 147.306C76.2985 138.621 56.9445 146.016 43.2148 136.172C33.9408 129.523 28.7084 115.734 27.0357 100.972C25.363 86.2103 26.8434 70.3965 28.6889 54.8261C30.0086 43.7625 31.7811 31.9149 37.5369 22.8941C43.6238 13.3522 53.1779 9.06211 61.461 9.91671C69.7441 10.7713 76.9169 16.0864 83.0915 22.5775C90.8098 30.6902 97.7537 41.0648 107.775 43.6481C114.593 45.4084 122.072 43.3048 129.335 42.102C141.477 40.0909 153.439 40.6022 165.311 41.2863C176.679 41.9413 188.118 42.774 198.697 46.7962C206.184 49.6425 211.913 55.6101 218.893 59.4765C223.444 61.9965 228.589 62.296 232.825 65.6657C238.043 69.8048 242.54 77.4987 240.402 87.2403C238.369 96.5046 231.065 101.79 226.66 108.995Z" fill="#1F2A44"/>
<path d="M71.6554 67.5163C71.6554 67.5163 35.8301 59.5059 81.4139 12.6389C81.4139 12.6389 101.063 31.2625 93.8556 54.4123C90.9583 63.7205 81.6331 69.4665 72.1861 67.6259L71.6554 67.5163Z" fill="#FBE122"/>
<path opacity="0.4" d="M71.6554 67.5163C70.869 67.341 36.5947 58.7146 81.414 12.6389C81.414 12.6389 101.063 31.2625 93.8557 54.4123C90.9583 63.7205 81.6331 69.4665 72.1862 67.6259L71.6554 67.5163Z" fill="white"/>
<path d="M72.1301 67.7841C72.1301 67.7841 91.0532 39.2778 81.4188 12.6414" stroke="#535461" stroke-miterlimit="10"/>
<path d="M219.035 95.1971C219.035 95.1971 212.86 70.3356 222.217 52.6348C226.147 45.2063 227.707 36.743 226.395 28.4429C225.765 24.5056 224.776 20.6344 223.439 16.8777" stroke="#535461" stroke-width="2" stroke-miterlimit="10"/>
<path d="M229.27 5.68761C229.141 8.69699 223.32 17.187 223.32 17.187C223.32 17.187 218.246 8.22952 218.375 5.22014C218.464 3.79523 219.109 2.46224 220.17 1.50739C221.232 0.55254 222.625 0.0519725 224.052 0.113172C225.478 0.174372 226.824 0.792459 227.799 1.83471C228.775 2.87697 229.303 4.26028 229.27 5.68761V5.68761Z" fill="#FBE122"/>
<path d="M237.563 22.7384C235.82 25.195 226.317 29.1589 226.317 29.1589C226.317 29.1589 226.926 18.8817 228.669 16.425C229.077 15.8237 229.6 15.3099 230.209 14.9136C230.817 14.5173 231.499 14.2466 232.214 14.1174C232.928 13.9881 233.662 14.0029 234.37 14.1608C235.079 14.3188 235.75 14.6167 236.342 15.0372C236.934 15.4577 237.436 15.9922 237.819 16.6094C238.202 17.2266 238.458 17.914 238.571 18.6313C238.685 19.3487 238.654 20.0815 238.48 20.7868C238.307 21.492 237.994 22.1555 237.561 22.7384H237.563Z" fill="#FBE122"/>
<path d="M235.949 51.2009C233.205 52.4402 223.001 51.067 223.001 51.067C223.001 51.067 228.715 42.5039 231.459 41.2621C232.772 40.6991 234.253 40.6735 235.585 41.1909C236.916 41.7084 237.991 42.7274 238.579 44.0292C239.167 45.3309 239.221 46.8114 238.73 48.1525C238.238 49.4935 237.239 50.5881 235.949 51.2009V51.2009Z" fill="#FBE122"/>
<path d="M229.879 72.4613C227.383 74.1462 217.094 74.5162 217.094 74.5162C217.094 74.5162 221.279 65.1107 223.775 63.4234C224.974 62.6446 226.431 62.3676 227.832 62.6521C229.233 62.9365 230.466 63.7597 231.266 64.9444C232.066 66.1291 232.369 67.5806 232.11 68.9865C231.85 70.3923 231.049 71.6401 229.879 72.4613Z" fill="#FBE122"/>
<path d="M214.854 29.261C216.921 31.4523 226.884 34.0527 226.884 34.0527C226.884 34.0527 224.849 23.9605 222.782 21.7717C221.781 20.7517 220.421 20.1651 218.992 20.138C217.564 20.1108 216.182 20.6452 215.143 21.6263C214.104 22.6075 213.492 23.957 213.438 25.3847C213.384 26.8124 213.893 28.2042 214.854 29.261V29.261Z" fill="#FBE122"/>
<path d="M208.071 54.2053C210.701 55.6661 220.975 55.1792 220.975 55.1792C220.975 55.1792 216.025 46.1559 213.393 44.6878C212.134 44.0228 210.665 43.8765 209.3 44.2802C207.934 44.6839 206.781 45.6056 206.086 46.8483C205.391 48.091 205.21 49.5563 205.581 50.9309C205.952 52.3056 206.845 53.4808 208.071 54.2053V54.2053Z" fill="#FBE122"/>
<path d="M204.806 79.364C207.148 81.2558 217.367 82.5049 217.367 82.5049C217.367 82.5049 214.002 72.7658 211.66 70.8813C210.532 70.0062 209.105 69.6084 207.687 69.7733C206.269 69.9382 204.972 70.6526 204.075 71.7631C203.178 72.8736 202.752 74.2917 202.888 75.7128C203.025 77.134 203.713 78.4449 204.806 79.364V79.364Z" fill="#FBE122"/>
<path d="M229.27 5.68761C229.141 8.69699 223.32 17.187 223.32 17.187C223.32 17.187 218.246 8.22952 218.375 5.22014C218.464 3.79523 219.109 2.46224 220.17 1.50739C221.232 0.55254 222.625 0.0519725 224.052 0.113172C225.478 0.174372 226.824 0.792459 227.799 1.83471C228.775 2.87697 229.303 4.26028 229.27 5.68761V5.68761Z" fill="#84329B"/>
<path d="M237.563 22.7384C235.82 25.195 226.317 29.1589 226.317 29.1589C226.317 29.1589 226.926 18.8817 228.669 16.425C229.077 15.8237 229.6 15.3099 230.209 14.9136C230.817 14.5173 231.499 14.2466 232.214 14.1174C232.928 13.9881 233.662 14.0029 234.37 14.1608C235.079 14.3188 235.75 14.6167 236.342 15.0372C236.934 15.4577 237.436 15.9922 237.819 16.6094C238.202 17.2266 238.458 17.914 238.571 18.6313C238.685 19.3487 238.654 20.0815 238.48 20.7868C238.307 21.492 237.994 22.1555 237.561 22.7384H237.563Z" fill="#84329B"/>
<path d="M235.949 51.2009C233.205 52.4402 223.001 51.067 223.001 51.067C223.001 51.067 228.715 42.5039 231.459 41.2621C232.772 40.6991 234.253 40.6735 235.585 41.1909C236.916 41.7084 237.991 42.7274 238.579 44.0292C239.167 45.3309 239.221 46.8114 238.73 48.1525C238.238 49.4935 237.239 50.5881 235.949 51.2009V51.2009Z" fill="#84329B"/>
<path d="M229.879 72.4613C227.383 74.1462 217.094 74.5162 217.094 74.5162C217.094 74.5162 221.279 65.1107 223.775 63.4234C224.974 62.6446 226.431 62.3676 227.832 62.6521C229.233 62.9365 230.466 63.7597 231.266 64.9444C232.066 66.1291 232.369 67.5806 232.11 68.9865C231.85 70.3923 231.049 71.6401 229.879 72.4613Z" fill="#84329B"/>
<path d="M214.854 29.261C216.921 31.4523 226.884 34.0527 226.884 34.0527C226.884 34.0527 224.849 23.9605 222.782 21.7717C221.781 20.7517 220.421 20.1651 218.992 20.138C217.564 20.1108 216.182 20.6452 215.143 21.6263C214.104 22.6075 213.492 23.957 213.438 25.3847C213.384 26.8124 213.893 28.2042 214.854 29.261V29.261Z" fill="#84329B"/>
<path d="M208.071 54.2053C210.701 55.6661 220.975 55.1792 220.975 55.1792C220.975 55.1792 216.025 46.1559 213.393 44.6878C212.134 44.0228 210.665 43.8765 209.3 44.2802C207.934 44.6839 206.781 45.6056 206.086 46.8483C205.391 48.091 205.21 49.5563 205.581 50.9309C205.952 52.3056 206.845 53.4808 208.071 54.2053V54.2053Z" fill="#84329B"/>
<path d="M204.806 79.364C207.148 81.2558 217.367 82.5049 217.367 82.5049C217.367 82.5049 214.002 72.7658 211.66 70.8813C210.532 70.0062 209.105 69.6084 207.687 69.7733C206.269 69.9382 204.972 70.6526 204.075 71.7631C203.178 72.8736 202.752 74.2917 202.888 75.7128C203.025 77.134 203.713 78.4449 204.806 79.364V79.364Z" fill="#84329B"/>
<path d="M196.43 79.1397C196.43 79.1397 222.327 57.4386 228.082 46.4943C233.838 35.55 241.174 26.1226 241.174 26.1226" stroke="#535461" stroke-width="2" stroke-miterlimit="10"/>
<path d="M237.778 50.5822L226.578 48.0549C226.578 48.0549 229.217 59.8733 237.778 50.5822Z" fill="#FBE122"/>
<path d="M220.651 38.5132L227.099 48.1695C227.099 48.1695 214.501 49.085 220.651 38.5132Z" fill="#FBE122"/>
<path d="M242.185 41.5056L231.944 39.7087C231.944 39.7087 238.379 49.4941 242.185 41.5056Z" fill="#FBE122"/>
<path d="M227.04 32.8792L232.095 39.4871C232.095 39.4871 223.147 40.3295 227.04 32.8792Z" fill="#FBE122"/>
<path d="M237.242 31.562C237.242 31.562 245.971 31.9784 246.981 32.8111C247.991 33.6437 245.681 38.5279 242.355 37.7317C239.029 36.9356 237.242 31.562 237.242 31.562Z" fill="#FBE122"/>
<path d="M233.755 23.7681C233.755 23.7681 237.318 30.2592 237.184 31.4936C237.05 32.728 231.756 34.1159 230.685 29.4362C229.614 24.7566 233.755 23.7681 233.755 23.7681Z" fill="#FBE122"/>
<path d="M245.436 27.9772C245.842 26.6952 245.132 25.3269 243.85 24.921C242.568 24.5151 241.2 25.2252 240.794 26.5072C240.388 27.7891 241.098 29.1574 242.38 29.5634C243.662 29.9693 245.03 29.2591 245.436 27.9772Z" fill="#FFD037"/>
<path d="M241.626 25.494C242.032 24.212 241.322 22.8437 240.04 22.4378C238.758 22.0319 237.389 22.7421 236.984 24.024C236.578 25.306 237.288 26.6743 238.57 27.0802C239.852 27.4861 241.22 26.776 241.626 25.494Z" fill="#FFD037"/>
<path d="M80.07 84.7106C80.07 84.7106 90.5395 76.9194 77.3917 49.6499C77.3917 49.6499 59.8613 27.9804 77.3917 7.52832C77.3917 7.52832 39.1658 8.50223 39.8962 44.0499C40.6266 79.5976 59.0092 84.7106 59.0092 84.7106H80.07Z" fill="#FBE122"/>
<path d="M70.2919 84.7106C70.2919 84.7106 67.6551 65.9629 60.5942 54.5194C59.1996 52.205 58.1968 49.6761 57.6262 47.0349C55.2669 36.6555 58.6318 25.8013 66.2551 18.3728L77.3942 7.521" stroke="#535461" stroke-width="2" stroke-miterlimit="10"/>
<path d="M101.873 22.1248C101.873 22.1248 104.279 25.2705 100.763 30.0183C97.2474 34.7661 94.35 38.7835 95.5212 41.7344C95.5212 41.7344 100.824 32.9157 105.141 32.7915C109.458 32.6673 106.621 27.4277 101.873 22.1248Z" fill="#FBE122"/>
<path opacity="0.1" d="M101.873 22.1248C102.081 22.4288 102.245 22.7608 102.36 23.1108C106.572 28.0583 108.815 32.6771 104.768 32.7939C100.997 32.9011 96.473 39.6454 95.3895 41.3473C95.4253 41.4786 95.4684 41.6079 95.5186 41.7344C95.5186 41.7344 100.822 32.9157 105.138 32.7915C109.455 32.6673 106.621 27.4277 101.873 22.1248Z" fill="black"/>
<path d="M106.344 26.1324C106.344 27.2402 106.219 28.1362 106.066 28.1362C105.913 28.1362 105.788 27.2378 105.788 26.1324C105.788 25.027 105.944 25.5456 106.098 25.5456C106.251 25.5456 106.344 25.027 106.344 26.1324Z" fill="#FFD037"/>
<path d="M107.877 27.4544C106.904 27.9852 106.059 28.3041 105.986 28.1702C105.913 28.0363 106.641 27.4982 107.612 26.9675C108.584 26.4367 108.201 26.8238 108.274 26.9675C108.347 27.1111 108.849 26.9236 107.877 27.4544Z" fill="#FFD037"/>
<path d="M89.1735 22.1248C89.1735 22.1248 86.768 25.2705 90.2838 30.0183C93.7996 34.7661 96.697 38.7835 95.5258 41.7344C95.5258 41.7344 90.2229 32.9157 85.9061 32.7915C81.5892 32.6673 84.4208 27.4277 89.1735 22.1248Z" fill="#FBE122"/>
<path opacity="0.1" d="M89.1736 22.1248C88.9655 22.4288 88.8016 22.7608 88.6867 23.1108C84.4745 28.0583 82.2321 32.6771 86.2787 32.7939C90.0502 32.9011 94.574 39.6454 95.6574 41.3473C95.6217 41.4786 95.5786 41.6079 95.5284 41.7344C95.5284 41.7344 90.2182 32.9132 85.9013 32.7939C81.5844 32.6746 84.421 27.4277 89.1736 22.1248Z" fill="black"/>
<path d="M84.6985 26.1324C84.6985 27.2402 84.8227 28.1362 84.9761 28.1362C85.1295 28.1362 85.2536 27.2378 85.2536 26.1324C85.2536 25.027 85.0978 25.5456 84.9444 25.5456C84.791 25.5456 84.6985 25.027 84.6985 26.1324Z" fill="#FFD037"/>
<path d="M83.1646 27.4544C84.1385 27.9852 84.9833 28.3041 85.0564 28.1702C85.1294 28.0363 84.4014 27.4982 83.43 26.9675C82.4585 26.4367 82.8407 26.8238 82.7677 26.9675C82.6947 27.1111 82.1931 26.9236 83.1646 27.4544Z" fill="#FFD037"/>
<path d="M262.59 157.235L241.259 63.3797H233.334C233.018 59.7933 232.806 56.3188 232.725 53.0465C232.725 53.0465 203.995 59.3331 181.084 41.1453C158.173 22.9576 131.237 42.7182 131.237 42.7182L131.132 42.6427V42.6062V42.6525C129.262 41.3279 103.458 23.6442 81.3969 41.1599C58.4954 59.3477 29.7554 53.0611 29.7554 53.0611C29.675 56.3748 29.4608 59.8785 29.1369 63.499H21.7839L0 157.574C0 157.574 88.5527 160.89 119.584 157.832C120.697 160.184 125.493 161.951 131.239 161.951C137.696 161.951 142.948 159.719 143.131 156.936C167.286 158.774 219.264 161.713 262.59 157.235Z" fill="url(#paint0_linear)"/>
<path d="M24.0653 64.205L2.73914 156.322C2.73914 156.322 120.137 160.719 129.591 154.564C129.591 154.564 202.471 161.93 259.851 155.994L238.966 64.0979L24.0653 64.205Z" fill="#E2E2EC"/>
<path opacity="0.1" d="M31.321 67.3872L11.4386 153.269C11.4386 153.269 120.891 157.369 129.705 151.63C129.705 151.63 197.653 158.496 251.149 152.962L231.671 67.2849L31.321 67.3872Z" fill="black"/>
<path d="M230.612 53.9839C230.612 53.9839 202.471 60.139 180.047 42.3311C157.622 24.5232 131.239 43.8699 131.239 43.8699C131.239 43.8699 104.858 24.5232 82.4341 42.3311C60.0098 60.139 31.8687 53.9839 31.8687 53.9839C30.9825 89.8189 14.2823 147.859 14.2823 147.859C14.2823 147.859 45.0603 156.213 85.7332 139.286C126.406 122.36 131.242 145.222 131.242 145.222C131.242 145.222 136.077 122.357 176.75 139.286C217.423 156.215 248.201 147.859 248.201 147.859C248.201 147.859 231.491 89.8189 230.612 53.9839Z" fill="#F1F2FB"/>
<path opacity="0.1" d="M76.9388 145.887C76.9388 145.887 114.093 137.533 131.234 149.843C131.234 149.843 147.723 134.894 185.975 146.547" fill="black"/>
<path d="M131.239 160.61C137.675 160.61 142.892 158.346 142.892 155.553C142.892 152.76 137.675 150.496 131.239 150.496C124.804 150.496 119.586 152.76 119.586 155.553C119.586 158.346 124.804 160.61 131.239 160.61Z" fill="#E8EAF8"/>
<path opacity="0.1" d="M131.13 43.7603C131.13 43.7603 139.483 86.1911 131.349 145.989Z" fill="black"/>
<path opacity="0.1" d="M39.9182 67.285C39.9182 67.285 57.4169 71.3511 72.5637 67.285C87.7104 63.219 115.52 49.9178 124.668 67.285" stroke="black" stroke-width="4" stroke-miterlimit="10"/>
<path opacity="0.1" d="M39.9182 74.7597C39.9182 74.7597 57.4169 78.8258 72.5637 74.7597C87.7104 70.6936 120.507 70.9128 124.668 74.7597" stroke="black" stroke-width="4" stroke-miterlimit="10"/>
<path opacity="0.1" d="M39.9182 87.9391C39.9182 87.9391 57.4169 92.0052 72.5637 87.9391C87.7104 83.873 115.52 70.5718 124.668 87.9391" stroke="black" stroke-width="4" stroke-miterlimit="10"/>
<path opacity="0.1" d="M39.9182 95.4235C39.9182 95.4235 57.4169 99.4896 72.5637 95.4235C87.7104 91.3574 120.507 91.5766 124.668 95.4235" stroke="black" stroke-width="4" stroke-miterlimit="10"/>
<path opacity="0.1" d="M222.563 67.285C222.563 67.285 205.064 71.3511 189.917 67.285C174.771 63.219 146.961 49.9178 137.813 67.285" stroke="black" stroke-width="4" stroke-miterlimit="10"/>
<path opacity="0.1" d="M222.563 74.7597C222.563 74.7597 205.064 78.8258 189.917 74.7597C174.771 70.6936 141.974 70.9128 137.813 74.7597" stroke="black" stroke-width="4" stroke-miterlimit="10"/>
<path opacity="0.1" d="M222.563 87.9391C222.563 87.9391 205.064 92.0052 189.917 87.9391C174.771 83.873 146.961 70.5718 137.813 87.9391" stroke="black" stroke-width="4" stroke-miterlimit="10"/>
<path opacity="0.1" d="M222.563 95.4235C222.563 95.4235 205.064 99.4896 189.917 95.4235C174.771 91.3574 141.974 91.5766 137.813 95.4235" stroke="black" stroke-width="4" stroke-miterlimit="10"/>
<path d="M222.918 174.566C223.649 174.008 224.342 173.349 224.554 172.552C224.663 172.129 224.605 171.681 224.392 171.3C224.18 170.918 223.829 170.633 223.412 170.502C222.363 170.176 221.243 170.768 220.391 171.367C219.539 171.966 218.567 172.65 217.455 172.523C218.606 171.69 219.159 170.332 218.837 169.115C218.783 168.849 218.649 168.607 218.453 168.421C217.871 167.912 216.814 168.131 216.118 168.53C213.9 169.804 213.281 172.26 213.269 174.473C213.045 173.675 213.235 172.845 213.228 172.024C213.22 171.204 212.948 170.298 212.1 169.857C211.558 169.623 210.972 169.511 210.381 169.528C209.386 169.499 208.273 169.58 207.594 170.176C206.749 170.906 206.968 172.156 207.703 172.969C208.439 173.782 209.559 174.293 210.588 174.856C211.375 175.284 212.169 175.783 212.651 176.46C212.712 176.55 212.764 176.646 212.804 176.748H219.054C220.427 176.183 221.725 175.45 222.918 174.566V174.566Z" fill="#FBE122"/>
<path d="M179.703 86.8898C179.703 86.8898 179.764 87.2404 179.867 87.8637C179.813 87.9611 179.759 88.0585 179.703 88.1535C177.707 91.5135 177.4 96.3538 177.588 100.327C177.762 103.532 178.324 106.704 179.26 109.774C180.402 113.764 180.976 117.895 180.965 122.046C181.755 122.9 182.704 123.591 183.76 124.081C183.813 124.244 183.869 124.41 183.918 124.568C184.838 127.634 185.46 130.783 185.776 133.969L186.404 141.921C186.404 141.921 191.217 159.918 192.681 163.266C193.723 165.647 193.494 170.571 193.275 173.21C192.649 174.985 191.887 176.677 191.215 176.862C189.998 177.208 188.78 180.139 190.553 181.612C190.686 181.722 190.828 181.82 190.979 181.904L191.049 181.943L191.178 182.009L191.368 182.094L191.466 182.131L191.668 182.199L191.756 182.226C191.85 182.253 191.948 182.279 192.053 182.304C193.287 182.547 194.567 182.344 195.666 181.732C197 181.532 198.186 180.816 199.074 180.093L199.05 181.362H200.511L200.443 178.827C200.706 178.532 200.852 178.34 200.852 178.34C200.852 178.34 200.896 176.808 201.064 175.026L200.957 180.746H202.417L202.023 170.191C202.097 170.033 202.194 169.888 202.313 169.76C203.53 168.542 201.426 164.615 200.338 163.96C200.825 161.379 202.683 157.652 204.825 150.506C207.964 140.036 203.988 129.788 203.988 129.788V121.753C205.042 121.3 205.663 120.991 205.663 120.991C205.663 120.991 204.202 112.411 205.663 106.344C206.61 102.421 206.856 98.9371 206.065 95.6039C207.117 91.9809 207.966 89.1834 207.966 89.1834L209.427 74.117C209.8 71.8551 210.05 69.9195 210.211 68.2736C210.238 68.069 210.257 67.8621 210.267 67.6576C210.535 64.5922 210.477 62.5445 210.301 61.2054C210.386 60.5917 210.416 59.9715 210.389 59.3525C210.423 59.0348 210.436 58.7151 210.428 58.3957C210.637 58.1522 210.842 57.9087 211.037 57.6652C211.555 57.0214 211.995 56.3186 212.349 55.5713C213.958 52.5352 214.004 48.827 211.757 46.1512C210.374 44.5029 209.943 42.7279 208.748 40.9724C207.655 39.3655 207.448 37.4396 207.185 35.5891C206.859 33.289 206.412 31.0077 205.846 28.7547C205.678 28.0925 204.757 27.6859 204.299 27.1356C203.416 26.0716 200.835 26.1081 199.347 25.872C196.849 25.4751 194.144 25.105 191.87 26.0862C190.287 26.7704 189.15 28.0146 187.913 29.1127C186.582 30.2935 183.855 30.8633 183.431 32.2779C183.054 32.8184 183.034 33.4952 183.675 34.401C184.293 35.2726 185.267 35.8959 186.175 36.5484C186.292 36.6312 186.401 36.7189 186.516 36.7919C186.208 38.6709 186.511 40.599 187.382 42.2926C188.252 43.9862 189.642 45.3558 191.349 46.1999C191.325 46.3582 191.298 46.514 191.269 46.6674C191.001 48.0326 190.634 49.3762 190.168 50.6872C189.898 51.4955 186.772 52.9077 184.568 53.8134C184.313 53.5518 184.01 53.3425 183.675 53.1974C181.999 52.7787 176.351 55.9171 175.932 56.964C175.815 57.2562 176.122 58.0645 176.621 59.0823C176.654 59.546 176.73 60.0057 176.847 60.4555C176.723 62.5981 176.947 66.0555 178.026 71.6141L179.703 86.8898ZM203.199 89.2443C203.121 89.0957 203.041 88.9448 202.955 88.789C200.63 84.0874 199.25 76.486 202.581 71.9525C202.878 71.9841 203.175 72.0134 203.472 72.0328C203.669 78.2026 203.554 88.3458 203.554 88.3458C203.554 88.3458 203.423 88.6867 203.199 89.2443ZM194.899 125.079C195.371 127.453 195.926 130.212 196.445 132.72C197.062 135.64 197.02 138.661 196.323 141.563L194.356 135.661L193.898 125.276L193.869 124.85C194.185 124.797 194.5 124.739 194.811 124.678L194.899 125.079Z" fill="url(#paint1_linear)"/>
<path d="M196.418 132.267C197.025 135.141 196.985 138.114 196.299 140.971C196.176 141.514 196.013 142.047 195.812 142.566L196.367 165.136L196.43 167.695C196.944 167.803 197.465 167.88 197.988 167.924C198.474 167.974 198.964 167.974 199.449 167.924C199.936 167.863 200.365 167.717 200.594 167.437C200.823 167.157 200.871 166.707 200.547 166.052C200.191 165.332 200.053 164.524 200.151 163.726C200.17 163.502 200.207 163.266 200.25 163.023C200.737 160.483 202.556 156.812 204.667 149.78C207.757 139.481 203.844 129.389 203.844 129.389V119.908L193.752 118.878C193.752 118.878 194.239 121.43 194.908 124.746C195.361 127.083 195.907 129.798 196.418 132.267Z" fill="#FDC2CC"/>
<path opacity="0.1" d="M196.418 132.267C197.025 135.141 196.985 138.114 196.299 140.971C196.176 141.514 196.013 142.047 195.812 142.566L196.367 165.136L196.43 167.695C196.944 167.803 197.465 167.88 197.988 167.924C198.474 167.974 198.964 167.974 199.449 167.924C199.936 167.863 200.365 167.717 200.594 167.437C200.823 167.157 200.871 166.707 200.547 166.052C200.191 165.332 200.053 164.524 200.151 163.726C200.17 163.502 200.207 163.266 200.25 163.023C200.737 160.483 202.556 156.812 204.667 149.78C207.757 139.481 203.844 129.389 203.844 129.389V119.908L193.752 118.878C193.752 118.878 194.239 121.43 194.908 124.746C195.361 127.083 195.907 129.798 196.418 132.267Z" fill="black"/>
<path d="M182.411 119.908C183.077 121.311 183.636 122.762 184.084 124.249C184.989 127.267 185.602 130.365 185.912 133.501L186.531 141.329C186.531 141.329 191.269 159.042 192.71 162.339C193.735 164.683 193.511 169.528 193.294 172.131C193.207 173.188 193.121 173.874 193.121 173.874L195.223 171.301L197.976 167.924L199.233 166.383L199.508 166.047C199.176 165.356 198.907 164.636 198.704 163.897C198.704 163.897 198.704 163.897 198.704 163.897C198.067 161.641 197.647 159.33 197.451 156.994C196.832 150.61 196.628 141.957 196.628 141.957L196.301 140.983L194.353 135.162L193.903 124.936L193.735 121.149L182.411 119.908Z" fill="#FDC2CC"/>
<path d="M198.344 164.34C197.233 165.788 196.402 167.43 195.895 169.183C195.24 171.411 194.088 174.834 193.121 175.109C191.68 175.52 190.239 179.64 193.944 180.465C197.65 181.291 200.742 177.169 200.742 177.169C200.742 177.169 200.949 169.959 202.184 168.725C203.418 167.491 201.154 163.368 200.124 162.957C199.712 162.789 199.016 163.471 198.344 164.34Z" fill="#5F5D7E"/>
<path opacity="0.1" d="M192.71 179.847C193.679 180.05 194.686 179.958 195.602 179.584C196.731 179.132 197.709 178.372 198.425 177.389C199.141 176.407 199.565 175.243 199.649 174.03C199.824 171.824 200.194 168.859 200.947 168.107C201.921 167.133 200.703 164.357 199.656 163.03C199.724 162.985 199.8 162.955 199.881 162.942C199.961 162.929 200.043 162.935 200.121 162.957C201.151 163.368 203.418 167.488 202.181 168.725C200.944 169.962 200.74 177.169 200.74 177.169C200.74 177.169 197.655 181.288 193.947 180.461C193.407 180.356 192.901 180.123 192.471 179.781C192.549 179.806 192.627 179.828 192.71 179.847Z" fill="black"/>
<path d="M201.891 168.898L202.288 179.538H200.847L201.047 168.905C201.052 168.798 201.1 168.697 201.179 168.625C201.258 168.552 201.363 168.514 201.47 168.518C201.576 168.514 201.679 168.552 201.757 168.623C201.836 168.694 201.884 168.792 201.891 168.898V168.898Z" fill="#5F5D7E"/>
<path opacity="0.15" d="M201.891 168.898L202.288 179.538H200.847L201.047 168.905C201.052 168.798 201.1 168.697 201.179 168.625C201.258 168.552 201.363 168.514 201.47 168.518C201.576 168.514 201.679 168.552 201.757 168.623C201.836 168.694 201.884 168.792 201.891 168.898V168.898Z" fill="black"/>
<path d="M196.491 164.958C195.38 166.406 194.55 168.048 194.042 169.801C193.387 172.029 192.235 175.452 191.268 175.727C189.827 176.139 188.386 180.258 192.091 181.084C195.797 181.909 198.889 177.782 198.889 177.782C198.889 177.782 199.096 170.573 200.331 169.338C201.565 168.104 199.301 163.982 198.271 163.57C197.855 163.417 197.163 164.089 196.491 164.958Z" fill="#5F5D7E"/>
<path opacity="0.1" d="M190.857 180.461C191.826 180.664 192.833 180.572 193.75 180.198C194.878 179.746 195.856 178.985 196.572 178.003C197.288 177.021 197.712 175.856 197.796 174.644C197.971 172.438 198.341 169.472 199.094 168.72C200.068 167.746 198.85 164.971 197.803 163.644C197.871 163.598 197.948 163.568 198.028 163.556C198.108 163.543 198.19 163.548 198.268 163.571C199.298 163.982 201.565 168.102 200.328 169.339C199.091 170.575 198.889 177.782 198.889 177.782C198.889 177.782 195.8 181.902 192.091 181.079C191.552 180.975 191.046 180.742 190.616 180.4C190.704 180.424 190.774 180.446 190.857 180.461Z" fill="black"/>
<path d="M200.036 169.504L200.433 180.144H198.982L199.182 169.511C199.187 169.404 199.235 169.303 199.314 169.231C199.393 169.159 199.498 169.12 199.605 169.124V169.124C199.713 169.118 199.818 169.155 199.899 169.226C199.979 169.297 200.029 169.397 200.036 169.504V169.504Z" fill="#5F5D7E"/>
<path opacity="0.15" d="M200.036 169.504L200.433 180.144H198.982L199.182 169.511C199.187 169.404 199.235 169.303 199.314 169.231C199.393 169.159 199.498 169.12 199.605 169.124V169.124C199.713 169.118 199.818 169.155 199.899 169.226C199.979 169.297 200.029 169.397 200.036 169.504V169.504Z" fill="black"/>
<path d="M182.618 55.4399L190.857 68.4172L200.538 69.6541C200.538 69.6541 206.51 57.9136 206.306 57.2952C206.101 56.6767 203.009 55.4423 200.126 53.1755C197.243 50.9088 200.745 41.4351 200.745 41.4351L191.271 42.258C191.307 42.3846 191.344 42.5015 191.371 42.6427C191.748 44.2424 191.614 46.0173 191.324 47.578C191.06 48.9193 190.697 50.2393 190.239 51.5272C189.827 52.7616 182.618 55.4399 182.618 55.4399Z" fill="#FDC2CC"/>
<path opacity="0.1" d="M193.74 118.878C193.74 118.878 194.227 121.43 194.896 124.746C197.963 124.093 200.957 123.137 203.834 121.892V119.908L193.74 118.878Z" fill="black"/>
<path opacity="0.1" d="M182.411 119.908C183.077 121.311 183.636 122.762 184.084 124.249C186.949 125.542 190.514 125.505 193.905 124.928L193.737 121.142L182.411 119.908Z" fill="black"/>
<path d="M179.94 88.3945C177.975 91.7033 177.673 96.4633 177.858 100.388C178.03 103.542 178.583 106.663 179.504 109.684C180.629 113.611 181.194 117.678 181.184 121.763C188.186 129.384 205.488 120.733 205.488 120.733C205.488 120.733 204.046 112.289 205.488 106.314C206.491 102.161 206.705 98.5012 205.687 94.9951C205.219 93.393 204.528 91.8644 203.635 90.4543C203.362 90.0209 203.097 89.5413 202.841 89.0275C200.455 84.2018 199.077 76.2742 202.914 71.9013C203.313 71.4462 203.762 71.0378 204.253 70.6839C207.599 68.2613 209.123 65.5709 209.765 63.2944C210.168 61.88 210.251 60.3939 210.009 58.9434C209.597 56.6767 203.829 54.6169 203.829 54.6169C204.036 61.4147 195.386 67.1803 195.386 67.1803C195.386 67.1803 185.498 54.4099 183.852 53.9984C182.206 53.5869 176.643 56.6767 176.231 57.7066C175.82 58.7365 180.762 66.3573 180.762 66.3573C180.762 66.3573 183.855 81.8035 179.94 88.3945Z" fill="#84329B"/>
<path opacity="0.1" d="M204.246 70.6815C207.591 68.2589 209.115 65.5685 209.758 63.292C209.597 59.8833 208.784 59.355 208.784 59.355C208.784 59.355 201.979 65.9435 202.597 68.2176C202.739 68.741 202.841 70.1094 202.907 71.9087C203.305 71.4501 203.754 71.0384 204.246 70.6815V70.6815Z" fill="black"/>
<path opacity="0.1" d="M192.71 117.643C194.151 121.97 201.361 114.347 201.568 111.053C201.699 108.944 204.024 100.678 205.68 94.9977C205.212 93.3955 204.521 91.867 203.627 90.4568C203.355 90.0234 203.089 89.5438 202.834 89.03C202.052 90.9511 198.914 98.8251 199.096 101.167C199.303 103.846 197.859 107.758 197.859 107.758C197.859 107.758 191.269 113.317 192.71 117.643Z" fill="black"/>
<path d="M209.188 59.3525C209.188 59.3525 211.455 60.7939 209.188 74.5942L207.747 89.4245C207.747 89.4245 202.186 107.756 201.979 111.053C201.772 114.349 194.565 121.968 193.121 117.644C191.678 113.319 198.271 107.756 198.271 107.756C198.271 107.756 199.712 103.843 199.508 101.165C199.303 98.4867 203.42 88.6015 203.42 88.6015C203.42 88.6015 203.627 70.477 203.009 68.2103C202.391 65.9435 209.188 59.3525 209.188 59.3525Z" fill="#FDC2CC"/>
<path opacity="0.1" d="M178.705 57.7041C178.705 57.7041 176.027 58.3225 178.705 72.1228L180.353 87.16C180.353 87.16 184.062 108.788 183.855 111.264C183.648 113.74 191.889 120.122 192.505 116.621C193.121 113.12 188.386 107.352 188.386 107.352C188.386 107.352 186.321 102.813 186.321 94.3669L185.91 87.569L183.029 63.0606L178.705 57.7041Z" fill="black"/>
<path d="M178.286 57.7041C178.286 57.7041 175.608 58.3225 178.286 72.1228L179.935 87.16C179.935 87.16 183.643 108.788 183.436 111.264C183.229 113.74 191.471 120.122 192.087 116.621C192.703 113.12 187.967 107.352 187.967 107.352C187.967 107.352 185.907 102.82 185.907 94.3742L185.496 87.5763L182.618 63.0606L178.286 57.7041Z" fill="#FDC2CC"/>
<path opacity="0.1" d="M176.954 58.4249C176.954 58.4249 175.718 65.0159 184.368 67.2826C193.019 69.5494 183.338 59.4524 183.338 59.4524C183.338 59.4524 180.044 54.5122 176.954 58.4249Z" fill="black"/>
<path d="M177.159 58.2202C177.159 58.2202 175.925 64.8087 184.575 67.0755C193.226 69.3422 183.545 59.2477 183.545 59.2477C183.545 59.2477 180.249 54.3051 177.159 58.2202Z" fill="#84329B"/>
<path opacity="0.1" d="M210.116 58.4249C210.116 58.4249 211.353 65.0159 202.702 67.2826C194.051 69.5494 203.73 59.4524 203.73 59.4524C203.73 59.4524 207.017 54.5122 210.116 58.4249Z" fill="black"/>
<path d="M209.909 58.2202C209.909 58.2202 211.156 64.8087 202.495 67.0755C193.835 69.3422 203.525 59.2477 203.525 59.2477C203.525 59.2477 206.819 54.3051 209.909 58.2202Z" fill="#84329B"/>
<path opacity="0.1" d="M191.324 47.5755C192.462 47.9066 193.735 45.2429 195.079 45.2429C196.503 45.2429 197.845 48.0941 199.033 47.4902C199.379 45.5702 199.883 43.6818 200.538 41.844L191.371 42.6523C191.746 44.2422 191.614 46.0148 191.324 47.5755Z" fill="black"/>
<path d="M195.286 48.0234C200.12 48.0234 204.039 44.1045 204.039 39.2704C204.039 34.4362 200.12 30.5173 195.286 30.5173C190.452 30.5173 186.533 34.4362 186.533 39.2704C186.533 44.1045 190.452 48.0234 195.286 48.0234Z" fill="#FDC2CC"/>
<path opacity="0.1" d="M183.847 35.4917C184.456 36.3487 185.415 36.9525 186.309 37.6051C187.414 38.3963 188.457 39.2696 189.43 40.2176C190.118 40.846 190.707 41.575 191.176 42.3797C191.87 43.675 191.962 45.1407 192.045 46.5675L192.895 61.3052C192.951 62.2791 193.007 63.2749 192.759 64.2269C192.507 65.038 192.153 65.8136 191.704 66.535C190.582 68.5267 189.428 70.5573 187.621 72.135C187.017 72.6585 186.282 73.3354 186.601 74.022C186.859 74.5747 187.653 74.7524 188.335 74.8328C191.196 75.2175 194.366 75.5461 196.774 74.151C197.682 73.6251 198.434 72.8703 199.452 72.5441C200.869 72.0936 202.432 72.5635 203.942 72.5611C205.544 72.5611 207.073 72.0279 208.568 71.502C208.855 71.4295 209.117 71.2815 209.327 71.0735C209.447 70.9004 209.521 70.7005 209.544 70.4916C209.77 69.2961 209.985 68.0568 209.615 66.8857C209.213 65.6171 208.154 64.5191 208.034 63.2091C207.879 61.3879 209.559 59.9052 210.766 58.4078C213.337 55.2207 213.91 50.6311 211.27 47.4878C209.909 45.8663 209.483 44.1181 208.307 42.3918C207.231 40.8117 207.026 38.915 206.768 37.0938C206.447 34.8297 206.007 32.5841 205.449 30.3665C205.286 29.714 204.377 29.3147 203.927 28.7717C203.055 27.7248 200.518 27.7613 199.057 27.5275C196.598 27.138 193.944 26.7728 191.697 27.7394C190.139 28.4114 189.019 29.6385 187.801 30.7171C186.078 32.2559 181.895 32.738 183.847 35.4917Z" fill="black"/>
<path d="M184.054 35.0803C184.663 35.9373 185.622 36.5412 186.516 37.1937C187.62 37.9864 188.664 38.8614 189.637 39.8111C190.325 40.4395 190.913 41.1685 191.383 41.9732C192.077 43.2685 192.169 44.7342 192.252 46.161L193.109 60.8938C193.165 61.8677 193.221 62.8635 192.973 63.8155C192.721 64.6266 192.367 65.4023 191.918 66.1237C190.796 68.1153 189.642 70.1459 187.835 71.7236C187.232 72.2471 186.496 72.924 186.815 73.6106C187.073 74.1633 187.867 74.341 188.549 74.4214C191.41 74.8061 194.58 75.1348 196.988 73.7396C197.896 73.2137 198.648 72.4589 199.666 72.1327C201.083 71.6823 202.646 72.1522 204.156 72.1497C205.758 72.1497 207.287 71.6165 208.782 71.0906C209.069 71.0181 209.331 70.8702 209.541 70.6621C209.661 70.4891 209.735 70.2891 209.758 70.0802C209.985 68.8847 210.199 67.6454 209.829 66.4743C209.427 65.2058 208.368 64.1077 208.249 62.7978C208.093 60.9766 209.773 59.4938 210.98 57.9964C213.551 54.8093 214.124 50.2197 211.484 47.0764C210.123 45.4549 209.697 43.7067 208.521 41.9805C207.445 40.4003 207.241 38.5036 206.982 36.6824C206.661 34.4183 206.221 32.1727 205.663 29.9551C205.5 29.3026 204.591 28.9033 204.141 28.3603C203.269 27.3134 200.732 27.3499 199.272 27.1162C196.812 26.7266 194.158 26.3614 191.911 27.328C190.353 28 189.233 29.2271 188.016 30.3057C186.272 31.8445 182.101 32.3266 184.054 35.0803Z" fill="#865A61"/>
</g>
<defs>
<linearGradient id="paint0_linear" x1="131.295" y1="161.949" x2="131.295" y2="33.4563" gradientUnits="userSpaceOnUse">
<stop stop-color="#808080" stop-opacity="0.25"/>
<stop offset="0.54" stop-color="#808080" stop-opacity="0.12"/>
<stop offset="1" stop-color="#808080" stop-opacity="0.1"/>
</linearGradient>
<linearGradient id="paint1_linear" x1="-33861.4" y1="127003" x2="-33861.4" y2="25831.6" gradientUnits="userSpaceOnUse">
<stop stop-color="#808080" stop-opacity="0.25"/>
<stop offset="0.54" stop-color="#808080" stop-opacity="0.12"/>
<stop offset="1" stop-color="#808080" stop-opacity="0.1"/>
</linearGradient>
<clipPath id="clip0">
<rect width="262.59" height="190" fill="white"/>
</clipPath>
</defs>
</svg>
